<?xml version="1.0" encoding="iso-8859-1"?>
<!-- Generator: Adobe Illustrator 19.0.0, SVG Export Plug-In . SVG Version: 6.00 Build 0)  -->
<svg version="1.1" id="Capa_1" xmlns="http://www.w3.org/2000/svg" xmlns:xlink="http://www.w3.org/1999/xlink" x="0px" y="0px"
	 viewBox="0 0 480 480" style="enable-background:new 0 0 480 480;" xml:space="preserve">
<path style="fill:#FFC67B;" d="M8,56h288v368H8V56z"/>
<g>
	<path style="fill:#BCBEC0;" d="M40,472h224c17.673,0,32-14.327,32-32v-16H8v16C8,457.673,22.327,472,40,472z"/>
	<path style="fill:#BCBEC0;" d="M296,40c0-17.673-14.327-32-32-32H40C22.327,8,8,22.327,8,40v16h288V40z"/>
</g>
<path style="fill:#FFFFFF;" d="M376,200h64v-64h-64V200z M400,160h16v16h-16V160z"/>
<path style="fill:#231F20;" d="M400,160h16v16h-16V160z"/>
<path style="fill:#FFFFFF;" d="M240,200h64v-64h-64V200z M264,160h16v16h-16V160z"/>
<path style="fill:#FFC67B;" d="M264,160h16v16h-16V160z"/>
<path style="fill:#FFFFFF;" d="M304,280h-64v64h64V280z M280,320h-16v-16h16V320z"/>
<path style="fill:#FFC67B;" d="M264,304h16v16h-16V304z"/>
<g>
	<path style="fill:#231F20;" d="M176,456h-48c-4.418,0-8-3.582-8-8s3.582-8,8-8h48c4.418,0,8,3.582,8,8S180.418,456,176,456z"/>
	<path style="fill:#231F20;" d="M448,208h-80v-80h80V208z M384,192h48v-48h-48V192z"/>
	<path style="fill:#231F20;" d="M392,152h32v32h-32V152z"/>
	<path style="fill:#231F20;" d="M320,128h16v16h-16V128z"/>
	<path style="fill:#231F20;" d="M344,128v32h-24v32h16v-16h8v8h16v-56H344z"/>
	<path style="fill:#231F20;" d="M360,224h-16v-8h-24v-16h40V224z"/>
	<path style="fill:#231F20;" d="M320,232v16h8v24h16v-24h16v-16H320z"/>
	<path style="fill:#231F20;" d="M320,280h64v16h-64V280z"/>
	<path style="fill:#231F20;" d="M368,216v56h16v-40h64v-16H368z"/>
	<path style="fill:#231F20;" d="M432,296h16v56h-16V296z"/>
	<path style="fill:#231F20;" d="M320,336h104v16H320V336z"/>
	<path style="fill:#231F20;" d="M400,312h24v16h-24V312z"/>
	<path style="fill:#231F20;" d="M368,328h-48v-16h32v-8h16V328z"/>
	<path style="fill:#231F20;" d="M432,240v32h-24v-16h16v-16h-32v64h16v-16h40v-48H432z"/>
	<path style="fill:#231F20;" d="M376,312h16v16h-16V312z"/>
	<path style="fill:#231F20;" d="M216,152h-16V96h56v16h-40V152z"/>
	<path style="fill:#231F20;" d="M480,152h-16v-40h-40V96h56V152z"/>
	<path style="fill:#231F20;" d="M256,384h-56v-56h16v40h40V384z"/>
	<path style="fill:#231F20;" d="M480,384h-56v-16h40v-40h16V384z"/>
	<path style="fill:#231F20;" d="M200,40h-48c-4.418,0-8-3.582-8-8s3.582-8,8-8h48c4.418,0,8,3.582,8,8S204.418,40,200,40z"/>
	<path style="fill:#231F20;" d="M120,40h-16c-4.418,0-8-3.582-8-8s3.582-8,8-8h16c4.418,0,8,3.582,8,8S124.418,40,120,40z"/>
	<path style="fill:#231F20;" d="M32,176h16v128H32V176z"/>
	<path style="fill:#231F20;" d="M56,176h16v128H56V176z"/>
	<path style="fill:#231F20;" d="M80,176h16v128H80V176z"/>
	<path style="fill:#231F20;" d="M104,176h16v128h-16V176z"/>
	<path style="fill:#231F20;" d="M128,176h16v128h-16V176z"/>
	<path style="fill:#231F20;" d="M304,128V40c-0.026-22.08-17.92-39.974-40-40H40C17.92,0.026,0.026,17.92,0,40v400
		c0.026,22.08,17.92,39.974,40,40h224c22.08-0.026,39.974-17.92,40-40v-88h8v-80h-80v80h56v64H16V64h272v64h-56v80h80v-80H304z
		 M248,288h48v48h-48V288z M288,432v8c0,13.255-10.745,24-24,24H40c-13.255,0-24-10.745-24-24v-8H288z M16,48v-8
		c0-13.255,10.745-24,24-24h224c13.255,0,24,10.745,24,24v8H16z M296,192h-48v-48h48V192z"/>
	<path style="fill:#231F20;" d="M256,152h32v32h-32V152z"/>
	<path style="fill:#231F20;" d="M256,296h32v32h-32V296z"/>
	<path style="fill:#231F20;" d="M256,248h24v16h-24V248z"/>
	<path style="fill:#231F20;" d="M280,232h8v32h16v-32h8v-16h-32V232z"/>
	<path style="fill:#231F20;" d="M232,216v48h16v-23.952L272.016,240l-0.032-16L248,224.048V216H232z"/>
</g>
<g>
</g>
<g>
</g>
<g>
</g>
<g>
</g>
<g>
</g>
<g>
</g>
<g>
</g>
<g>
</g>
<g>
</g>
<g>
</g>
<g>
</g>
<g>
</g>
<g>
</g>
<g>
</g>
<g>
</g>
</svg>
