<svg height="511pt" viewBox="0 0 511.99235 511" width="511pt" xmlns="http://www.w3.org/2000/svg"><path d="m179.199219 392.980469h42.667969v76.800781h-42.667969zm0 0" fill="#37474f"/><path d="m290.132812 392.980469h42.667969v76.800781h-42.667969zm0 0" fill="#37474f"/><path d="m238.933594 478.3125v25.601562h-76.800782v-25.601562c.03125-9.414062 7.652344-17.039062 17.066407-17.066406h42.667969c9.414062.027344 17.039062 7.652344 17.066406 17.066406zm0 0" fill="#283593"/><path d="m290.132812 461.246094h42.667969c9.425781 0 17.066407 7.640625 17.066407 17.066406v25.601562h-76.800782v-25.601562c0-9.425781 7.640625-17.066406 17.066406-17.066406zm0 0" fill="#283593"/><path d="m392.535156 324.714844h34.132813c28.277343 0 51.199219-22.925782 51.199219-51.203125v-119.464844h-34.132813v119.464844c-.027344 9.414062-7.652344 17.039062-17.066406 17.066406h-34.132813" fill="#607d8b"/><path d="m392.535156 341.78125h-25.601562v-68.269531h25.601562c9.425782 0 17.066406 7.640625 17.066406 17.066406v34.136719c0 9.425781-7.640624 17.066406-17.066406 17.066406zm0 0" fill="#37474f"/><path d="m34.132812 154.046875v119.464844c0 28.277343 22.925782 51.203125 51.203126 51.203125h34.132812v-34.136719h-34.132812c-9.414063-.027344-17.039063-7.652344-17.070313-17.066406v-119.464844zm0 0" fill="#607d8b"/><path d="m119.46875 273.511719h25.597656v68.269531h-25.597656c-9.425781 0-17.066406-7.640625-17.066406-17.066406v-34.136719c0-9.425781 7.640625-17.066406 17.066406-17.066406zm0 0" fill="#37474f"/><path d="m375.46875 290.578125v76.800781c0 18.851563-15.285156 34.132813-34.132812 34.132813h-170.667969c-18.851563 0-34.132813-15.28125-34.132813-34.132813v-76.800781zm0 0" fill="#283593"/><path d="m354.132812 290.578125v76.800781c0 18.851563-15.28125 34.132813-34.132812 34.132813h-149.332031c-18.851563 0-34.132813-15.28125-34.132813-34.132813v-76.800781zm0 0" fill="#3f51b5"/><path d="m358.402344 111.378906v136.535156h-204.800782v-136.535156c0-2.898437.085938-5.714844.339844-8.53125 4.140625-49.089844 42.640625-88.273437 91.648438-93.269531 3.453125-.414063 6.929687-.613281 10.410156-.597656 53.277344-.070313 97.679688 40.769531 102.058594 93.867187.257812 2.816406.34375 5.632813.34375 8.53125zm0 0" fill="#00838f"/><path d="m337.066406 111.378906v136.535156h-183.464844v-136.535156c0-2.898437.085938-5.714844.339844-8.53125 4.140625-49.089844 42.640625-88.273437 91.648438-93.269531 48.839844 5.15625 87.109375 44.320313 91.136718 93.269531.253907 2.816406.339844 5.632813.339844 8.53125zm0 0" fill="#00bcd4"/><path d="m153.601562 102.847656h204.800782v85.332032h-204.800782zm0 0" fill="#283593"/><path d="m153.601562 102.847656h183.464844v85.332032h-183.464844zm0 0" fill="#3f51b5"/><path d="m247.46875 145.511719c0 9.425781-7.640625 17.066406-17.066406 17.066406-9.425782 0-17.066406-7.640625-17.066406-17.066406s7.640624-17.066407 17.066406-17.066407c9.425781 0 17.066406 7.640626 17.066406 17.066407zm0 0" fill="#f44335"/><path d="m375.46875 264.980469v34.132812h-238.933594v-34.132812c.027344-9.414063 7.652344-17.039063 17.066406-17.066407h204.800782c9.414062.027344 17.035156 7.652344 17.066406 17.066407zm0 0" fill="#1566c0"/><path d="m354.132812 264.980469v34.132812h-217.597656v-34.132812c.027344-9.414063 7.652344-17.039063 17.066406-17.066407h183.464844c9.414063.027344 17.039063 7.652344 17.066406 17.066407zm0 0" fill="#2296f3"/><path d="m85.335938 136.980469c0 18.851562-15.285157 34.132812-34.136719 34.132812-3.621094.007813-7.226563-.566406-10.664063-1.707031-14.007812-4.605469-23.476562-17.683594-23.476562-32.425781 0-14.746094 9.46875-27.824219 23.476562-32.425781 3.4375-1.140626 7.042969-1.71875 10.664063-1.707032 18.851562 0 34.136719 15.28125 34.136719 34.132813zm0 0" fill="#1566c0"/><path d="m494.933594 136.980469c0 18.851562-15.28125 34.132812-34.132813 34.132812-3.625.007813-7.226562-.566406-10.667969-1.707031-14.007812-4.605469-23.472656-17.683594-23.472656-32.425781 0-14.746094 9.464844-27.824219 23.472656-32.425781 3.441407-1.140626 7.042969-1.71875 10.667969-1.707032 18.851563 0 34.132813 15.28125 34.132813 34.132813zm0 0" fill="#1566c0"/><path d="m64 136.980469c0-17.910157-10.503906-32.425781-23.464844-32.425781-12.960937 0-23.46875 14.515624-23.46875 32.425781 0 17.90625 10.507813 32.425781 23.46875 32.425781 12.960938 0 23.464844-14.519531 23.464844-32.425781zm0 0" fill="#02a9f4"/><path d="m473.601562 136.980469c0-17.910157-10.507812-32.425781-23.46875-32.425781-12.960937 0-23.464843 14.515624-23.464843 32.425781 0 17.90625 10.503906 32.425781 23.464843 32.425781 12.960938 0 23.46875-14.519531 23.46875-32.425781zm0 0" fill="#02a9f4"/><path d="m307.199219 341.78125c-1.113281-.015625-2.214844-.246094-3.242188-.683594-1.054687-.390625-2.011719-1.003906-2.816406-1.792968-1.554687-1.636719-2.441406-3.800782-2.472656-6.058594.011719-1.113282.246093-2.214844.683593-3.242188.773438-2.144531 2.460938-3.832031 4.605469-4.609375 3.183594-1.285156 6.824219-.585937 9.300781 1.792969.753907.832031 1.359376 1.78125 1.792969 2.816406.4375 1.027344.667969 2.128906.683594 3.242188.023437 2.269531-.867187 4.453125-2.472656 6.058594-1.605469 1.605468-3.789063 2.5-6.0625 2.476562zm0 0"/><path d="m341.335938 341.78125c-1.117188-.015625-2.21875-.246094-3.246094-.683594-1.054688-.390625-2.011719-1.003906-2.816406-1.792968-1.554688-1.636719-2.441407-3.800782-2.472657-6.058594.011719-1.113282.246094-2.214844.683594-3.242188.773437-2.144531 2.464844-3.832031 4.605469-4.609375 3.183594-1.285156 6.828125-.585937 9.304687 1.792969.75.832031 1.355469 1.78125 1.789063 2.816406.4375 1.027344.671875 2.128906.683594 3.242188.023437 2.269531-.867188 4.453125-2.472657 6.058594-1.605469 1.605468-3.789062 2.5-6.058593 2.476562zm0 0"/><path d="m230.402344 171.113281c14.136718 0 25.597656-11.460937 25.597656-25.601562 0-14.136719-11.460938-25.597657-25.597656-25.597657-14.140625 0-25.601563 11.460938-25.601563 25.597657 0 14.140625 11.460938 25.601562 25.601563 25.601562zm0-34.132812c4.710937 0 8.53125 3.820312 8.53125 8.53125 0 4.714843-3.820313 8.535156-8.53125 8.535156-4.714844 0-8.535156-3.820313-8.535156-8.535156 0-4.710938 3.820312-8.53125 8.535156-8.53125zm0 0"/><path d="m307.199219 350.3125c-4.710938 0-8.53125 3.820312-8.53125 8.535156v8.53125c0 4.714844 3.820312 8.535156 8.53125 8.535156 4.714843 0 8.535156-3.820312 8.535156-8.535156v-8.53125c0-4.714844-3.820313-8.535156-8.535156-8.535156zm0 0"/><path d="m341.335938 350.3125c-4.714844 0-8.535157 3.820312-8.535157 8.535156v8.53125c0 4.714844 3.820313 8.535156 8.535157 8.535156 4.710937 0 8.53125-3.820312 8.53125-8.535156v-8.53125c0-4.714844-3.820313-8.535156-8.53125-8.535156zm0 0"/><path d="m179.199219 324.714844h-8.53125c-4.714844 0-8.535157 3.820312-8.535157 8.53125 0 4.714844 3.820313 8.535156 8.535157 8.535156h8.53125c4.714843 0 8.535156-3.820312 8.535156-8.535156 0-4.710938-3.820313-8.53125-8.535156-8.53125zm0 0"/><path d="m264.535156 324.714844h-51.199218c-4.714844 0-8.535157 3.820312-8.535157 8.53125 0 4.714844 3.820313 8.535156 8.535157 8.535156h51.199218c4.710938 0 8.53125-3.820312 8.53125-8.535156 0-4.710938-3.820312-8.53125-8.53125-8.53125zm0 0"/><path d="m16.214844 112.675781c-13.167969 18.742188-9.007813 44.5625 9.386718 58.214844v102.621094c.035157 32.976562 26.757813 59.695312 59.734376 59.734375h10.101562c3.601562 10.191406 13.21875 17.023437 24.03125 17.066406h8.53125v17.066406c.027344 23.554688 19.113281 42.640625 42.667969 42.667969v44.238281c-10.191407 3.601563-17.023438 13.21875-17.066407 24.027344v25.601562c0 4.710938 3.820313 8.53125 8.53125 8.53125h76.800782c4.714844 0 8.535156-3.820312 8.535156-8.53125v-25.601562c-.046875-10.808594-6.875-20.425781-17.066406-24.027344v-44.238281h51.199218v44.238281c-10.191406 3.601563-17.023437 13.21875-17.066406 24.027344v25.601562c0 4.710938 3.820313 8.53125 8.53125 8.53125h76.800782c4.714843 0 8.535156-3.820312 8.535156-8.53125v-25.601562c-.046875-10.808594-6.875-20.425781-17.066406-24.027344v-44.238281c23.550781-.027344 42.636718-19.113281 42.664062-42.667969v-17.066406h8.535156c10.808594-.042969 20.425782-6.875 24.027344-17.066406h10.105469c32.972656-.039063 59.695312-26.757813 59.734375-59.734375v-102.621094c18.390625-13.652344 22.554687-39.472656 9.386718-58.214844l14.777344-22.183593c1.996094-3.007813 1.886719-6.941407-.273437-9.832032l-25.597657-34.132812c-1.832031-2.441406-4.820312-3.71875-7.847656-3.351563-3.027344.363281-5.628906 2.316407-6.828125 5.117188-1.195312 2.804687-.808593 6.035156 1.019531 8.472656l21.976563 29.304687-9.832031 14.746094c-13.664063-8.660156-31.101563-8.660156-44.765625 0l-9.832031-14.746094 21.976562-29.304687c2.824219-3.769531 2.0625-9.117187-1.707031-11.945313-3.773438-2.828124-9.121094-2.0625-11.949219 1.707032l-25.597656 34.132812c-2.171875 2.894532-2.28125 6.84375-.273438 9.855469l14.777344 22.1875c-13.152344 18.734375-8.988281 44.539063 9.386719 58.1875v102.621094c0 4.714843-3.820313 8.535156-8.53125 8.535156h-10.105469c-3.601562-10.191406-13.21875-17.023437-24.027344-17.066406h-8.535156c-.042969-10.808594-6.875-20.425781-17.066406-24.03125v-138.101563c-.015625-1.027344-.222656-2.042968-.605469-2.996094-5.925781-56.472656-53.542969-99.355468-110.328125-99.355468s-104.398438 42.882812-110.328125 99.355468c-.382813.953126-.589844 1.96875-.605469 2.996094v138.101563c-10.191406 3.605469-17.019531 13.222656-17.066406 24.03125h-8.53125c-10.8125.042969-20.429688 6.875-24.03125 17.066406h-10.101562c-4.714844 0-8.535157-3.820313-8.535157-8.535156v-102.621094c18.390625-13.652344 22.554688-39.472656 9.386719-58.214844l14.78125-22.183593c1.996094-3.007813 1.886719-6.941407-.273438-9.832032l-25.601562-34.132812c-1.828125-2.441406-4.820312-3.71875-7.847656-3.351563-3.027344.363281-5.628906 2.316407-6.824219 5.117188-1.199219 2.804687-.808594 6.035156 1.019531 8.472656l21.972656 29.304687-9.832031 14.746094c-13.664062-8.660156-31.097656-8.660156-44.765625 0l-9.828125-14.746094 21.972657-29.304687c2.828124-3.769531 2.0625-9.117187-1.707032-11.945313-3.769531-2.828124-9.117187-2.0625-11.945312 1.707032l-25.601563 34.132812c-2.171875 2.894532-2.28125 6.84375-.273437 9.855469zm214.1875 382.703125h-8.535156c0-4.710937-3.820313-8.53125-8.53125-8.53125-4.714844 0-8.535157 3.820313-8.535157 8.53125h-8.535156c0-4.710937-3.820313-8.53125-8.53125-8.53125-4.714844 0-8.535156 3.820313-8.535156 8.53125h-8.53125v-17.066406c0-4.710938 3.820312-8.53125 8.53125-8.53125h42.667969c4.714843 0 8.535156 3.820312 8.535156 8.53125zm-17.066406-42.664062h-25.601563v-42.667969h25.601563zm128 42.664062h-8.535157c0-4.710937-3.820312-8.53125-8.535156-8.53125-4.710937 0-8.53125 3.820313-8.53125 8.53125h-8.535156c0-4.710937-3.820313-8.53125-8.53125-8.53125-4.714844 0-8.535157 3.820313-8.535157 8.53125h-8.53125v-17.066406c0-4.710938 3.820313-8.53125 8.53125-8.53125h42.667969c4.710938 0 8.535157 3.820312 8.535157 8.53125zm-17.070313-42.664062h-25.597656v-42.667969h25.597656zm42.667969-85.335938c0 14.140625-11.460938 25.601563-25.597656 25.601563h-170.667969c-14.140625 0-25.601563-11.460938-25.601563-25.601563v-59.730468h221.867188zm119.46875-230.398437c0 14.136719-11.464844 25.597656-25.601563 25.597656s-25.601562-11.460937-25.601562-25.597656c0-14.140625 11.464843-25.601563 25.601562-25.601563s25.601563 11.460938 25.601563 25.601563zm-34.136719 136.53125v-94.71875c5.632813 1.148437 11.4375 1.148437 17.070313 0v94.71875c-.03125 23.554687-19.117188 42.640625-42.667969 42.667969h-8.535157v-17.066407h8.535157c14.136719 0 25.597656-11.460937 25.597656-25.601562zm-59.730469 8.535156c4.710938 0 8.53125 3.820313 8.53125 8.53125v34.136719c0 4.710937-3.820312 8.53125-8.53125 8.53125h-8.535156v-51.199219zm-42.667968-145.066406h-68.265626c-4.714843 0-8.535156 3.820312-8.535156 8.53125 0 4.714843 3.820313 8.535156 8.535156 8.535156h68.265626v25.601563h-187.734376v-25.601563h17.066407c4.714843 0 8.535156-3.820313 8.535156-8.535156 0-4.710938-3.820313-8.53125-8.535156-8.53125h-17.066407v-25.601563h187.734376zm-187.734376 59.734375h187.734376v42.664062h-187.734376zm93.867188-179.203125c45.21875.074219 83.976562 32.34375 92.238281 76.800781h-184.472656c8.261719-44.457031 47.015625-76.726562 92.234375-76.800781zm-110.933594 247.46875c0-4.714844 3.820313-8.535157 8.535156-8.535157h204.800782c4.710937 0 8.53125 3.820313 8.53125 8.535157v25.597656h-221.867188zm-25.597656 17.066406h8.53125v51.199219h-8.53125c-4.714844 0-8.535156-3.820313-8.535156-8.53125v-34.136719c0-4.710937 3.820312-8.53125 8.535156-8.53125zm-34.132812 17.066406h8.53125v17.066407h-8.53125c-23.554688-.027344-42.640626-19.113282-42.667969-42.667969v-94.71875c5.628906 1.148437 11.433593 1.148437 17.066406 0v94.71875c0 14.140625 11.460937 25.601562 25.601563 25.601562zm-8.535157-162.132812c0 14.136719-11.460937 25.597656-25.601562 25.597656-14.136719 0-25.597657-11.460937-25.597657-25.597656 0-14.140625 11.460938-25.601563 25.597657-25.601563 6.789062 0 13.300781 2.699219 18.101562 7.5 4.804688 4.800782 7.5 11.3125 7.5 18.101563zm0 0"/></svg>