<svg height="512pt" viewBox="0 0 512 512.09753" width="512pt" xmlns="http://www.w3.org/2000/svg"><path d="m409.648438 247.464844h-25.597657v-85.332032h25.597657c14.140624 0 25.601562 11.460938 25.601562 25.601563v34.132813c0 14.136718-11.460938 25.597656-25.601562 25.597656zm0 0" fill="#607d8b"/><path d="m503.515625 349.867188c0 14.136718-11.460937 25.597656-25.597656 25.597656-3.691407.011718-7.335938-.804688-10.667969-2.386719-9.09375-4.144531-14.929688-13.21875-14.929688-23.210937 0-9.996094 5.835938-19.066407 14.929688-23.210938 3.332031-1.582031 6.976562-2.398438 10.667969-2.390625 14.136719 0 25.597656 11.460937 25.597656 25.601563zm0 0" fill="#1566c0"/><path d="m102.449219 162.132812h25.601562v85.332032h-25.601562c-14.136719 0-25.597657-11.460938-25.597657-25.597656v-34.132813c0-14.140625 11.460938-25.601563 25.597657-25.601563zm0 0" fill="#607d8b"/><path d="m59.78125 349.867188c0 14.136718-11.460938 25.597656-25.597656 25.597656-3.691406.011718-7.335938-.804688-10.667969-2.386719-9.09375-4.144531-14.929687-13.21875-14.929687-23.210937 0-9.996094 5.835937-19.066407 14.929687-23.210938 3.332031-1.582031 6.976563-2.398438 10.667969-2.390625 14.136718 0 25.597656 11.460937 25.597656 25.601563zm0 0" fill="#1566c0"/><path d="m482.183594 349.867188c.019531 10-5.824219 19.085937-14.933594 23.210937-9.09375-4.144531-14.929688-13.21875-14.929688-23.210937 0-9.996094 5.835938-19.066407 14.929688-23.210938 9.109375 4.125 14.953125 13.210938 14.933594 23.210938zm0 0" fill="#02a9f4"/><path d="m38.449219 349.867188c.023437 10-5.824219 19.085937-14.933594 23.210937-9.09375-4.144531-14.929687-13.21875-14.929687-23.210937 0-9.996094 5.835937-19.066407 14.929687-23.210938 9.109375 4.125 14.957031 13.210938 14.933594 23.210938zm0 0" fill="#02a9f4"/><path d="m349.917969 401.066406c.011719 24.898438-9.875 48.78125-27.480469 66.390625-17.605469 17.605469-41.488281 27.488281-66.386719 27.476563-3.570312.03125-7.132812-.199219-10.667969-.683594-47.421874-5.328125-83.253906-45.460938-83.199218-93.183594zm0 0" fill="#1566c0"/><path d="m328.582031 401.066406c.054688 47.722656-35.777343 87.855469-83.199219 93.183594-47.421874-5.328125-83.253906-45.460938-83.199218-93.183594zm0 0" fill="#2296f3"/><path d="m392.582031 145.066406v230.398438c0 18.851562-15.28125 34.136718-34.132812 34.136718h-204.800781c-18.851563 0-34.132813-15.285156-34.132813-34.136718v-230.398438c-.035156-70.460937 53.582031-129.363281 123.734375-135.9375 4.253906-.414062 8.527344-.613281 12.800781-.59375 36.222657-.050781 70.980469 14.320313 96.59375 39.933594 25.617188 25.617188 39.984375 60.371094 39.9375 96.597656zm0 0" fill="#283593"/><path d="m366.984375 145.066406v230.398438c0 18.851562-15.285156 34.136718-34.132813 34.136718h-179.203124c-18.851563 0-34.132813-15.285156-34.132813-34.136718v-230.398438c-.035156-70.460937 53.582031-129.363281 123.734375-135.9375 70.183594 6.515625 123.832031 65.453125 123.734375 135.9375zm0 0" fill="#3f51b5"/><path d="m358.449219 142.25v59.734375c-.070313 5.355469-2.269531 10.460937-6.109375 14.191406-3.84375 3.734375-9.015625 5.78125-14.371094 5.691407h-163.839844c-2.808594-.003907-5.59375-.554688-8.191406-1.621094-2.96875-1.285156-5.597656-3.242188-7.679688-5.71875-2.984374-3.496094-4.621093-7.945313-4.609374-12.542969v-56.234375c-.050782-52.5625 39.488281-96.734375 91.734374-102.484375 1.195313-.171875 2.476563-.257813 3.667969-.34375 28.355469-2.003906 56.285157 7.75 77.226563 26.964844 3.445312 3.074219 6.640625 6.414062 9.558594 9.984375 14.605468 17.507812 22.609374 39.582031 22.613281 62.378906zm0 0" fill="#00838f"/><path d="m337.117188 142.25v59.734375c-.070313 5.355469-2.269532 10.460937-6.113282 14.191406-3.84375 3.734375-9.011718 5.78125-14.367187 5.691407h-142.507813c-2.808594-.003907-5.59375-.554688-8.191406-1.621094-2.96875-1.285156-5.597656-3.242188-7.679688-5.71875-2.984374-3.496094-4.621093-7.945313-4.609374-12.542969v-56.234375c-.050782-52.5625 39.488281-96.734375 91.734374-102.484375 22.230469 2.121094 43.152344 11.472656 59.5625 26.621094 3.441407 3.074219 6.636719 6.414062 9.558594 9.984375 14.605469 17.507812 22.609375 39.582031 22.613282 62.378906zm0 0" fill="#00bcd4"/><path d="m119.515625 256h273.066406v34.132812h-273.066406zm0 0" fill="#1566c0"/><path d="m119.515625 256h247.46875v34.132812h-247.46875zm0 0" fill="#2296f3"/><path d="m204.851562 349.867188c0 14.136718-11.464843 25.597656-25.601562 25.597656-14.140625 0-25.601562-11.460938-25.601562-25.597656 0-14.140626 11.460937-25.601563 25.601562-25.601563 14.136719 0 25.601562 11.460937 25.601562 25.601563zm0 0" fill="#607d8b"/><path d="m349.917969 358.398438h-17.066407c-4.714843 0-8.535156-3.820313-8.535156-8.53125v-17.066407c0-4.714843 3.820313-8.535156 8.535156-8.535156h17.066407c4.710937 0 8.53125 3.820313 8.53125 8.535156v17.066407c0 4.710937-3.820313 8.53125-8.53125 8.53125zm0 0" fill="#607d8b"/><path d="m238.984375 102.398438c0 9.425781-7.640625 17.066406-17.066406 17.066406s-17.066407-7.640625-17.066407-17.066406c0-9.425782 7.640626-17.066407 17.066407-17.066407s17.066406 7.640625 17.066406 17.066407zm0 0" fill="#f44335"/><path d="m307.25 102.398438c0 9.425781-7.640625 17.066406-17.066406 17.066406-9.425782 0-17.066406-7.640625-17.066406-17.066406 0-9.425782 7.640624-17.066407 17.066406-17.066407 9.425781 0 17.066406 7.640625 17.066406 17.066407zm0 0" fill="#f44335"/><path d="m281.648438 452.265625c0-9.425781-11.460938-17.066406-25.597657-17.066406-14.140625 0-25.601562 7.640625-25.601562 17.066406s11.460937 17.066406 25.601562 17.066406c14.136719 0 25.597657-7.640625 25.597657-17.066406zm0 0" fill="#2c3e50"/><path d="m174.128906 230.398438h163.839844c15.859375.140624 28.835938-12.582032 29.015625-28.441407v-59.730469c.023437-29.585937-12.335937-57.828124-34.082031-77.886718-22.824219-21.164063-53.355469-32-84.414063-29.960938-58.359375 4.199219-103.519531 52.84375-103.371093 111.351563v56.226562c.175781 15.859375 13.15625 28.582031 29.011718 28.441407zm163.839844-17.066407h-163.839844c-6.433594.148438-11.777344-4.9375-11.945312-11.375v-22.757812h51.199218c2.851563 0 5.515626-1.421875 7.101563-3.796875l8.0625-12.109375 11.042969 27.613281c1.167968 2.96875 3.898437 5.039062 7.074218 5.359375h.851563c2.851563 0 5.515625-1.421875 7.101563-3.796875l14.53125-21.800781h80.769531v31.289062c-.167969 6.4375-5.511719 11.523438-11.949219 11.375zm-88.371094-161.917969c2.09375-.144531 4.183594-.214843 6.273438-.214843 24.242187-.042969 47.601562 9.105469 65.363281 25.601562 18.28125 16.84375 28.679687 40.566407 28.683594 65.425781v11.375h-85.335938c-2.851562-.003906-5.515625 1.421876-7.097656 3.796876l-8.066406 12.109374-11.039063-27.617187c-1.179687-2.941406-3.890625-4.988281-7.042968-5.316406-3.148438-.300781-6.210938 1.136719-7.984376 3.757812l-14.535156 21.800781h-46.632812v-16.402343c-.167969-49.519531 38.023437-90.726563 87.414062-94.316407zm0 0"/><path d="m187.78125 264.535156h8.535156c4.710938 0 8.535156-3.824218 8.535156-8.535156s-3.824218-8.535156-8.535156-8.535156h-8.535156c-4.710938 0-8.53125 3.824218-8.53125 8.535156s3.820312 8.535156 8.53125 8.535156zm0 0"/><path d="m187.78125 298.667969h8.535156c4.710938 0 8.535156-3.820313 8.535156-8.535157 0-4.710937-3.824218-8.53125-8.535156-8.53125h-8.535156c-4.710938 0-8.53125 3.820313-8.53125 8.53125 0 4.714844 3.820312 8.535157 8.53125 8.535157zm0 0"/><path d="m179.25 315.734375c-6.074219.027344-12.027344 1.699219-17.230469 4.835937l-2.335937-2.335937c-3.347656-3.234375-8.671875-3.1875-11.964844.101563-3.289062 3.292968-3.335938 8.617187-.101562 11.964843l2.335937 2.335938c-3.136719 5.203125-4.808594 11.15625-4.835937 17.230469 0 18.851562 15.28125 34.132812 34.132812 34.132812 6.074219-.03125 12.027344-1.703125 17.226562-4.839844l2.339844 2.339844c3.347656 3.234375 8.671875 3.1875 11.960938-.105469 3.292968-3.289062 3.339844-8.613281.105468-11.960937l-2.339843-2.339844c3.136719-5.199219 4.808593-11.152344 4.839843-17.226562 0-18.851563-15.28125-34.132813-34.132812-34.132813zm-17.066406 34.132813c-.003906-4.519532 1.792968-8.855469 4.992187-12.050782 6.71875-6.304687 17.230469-6.136718 23.746094.378906 6.515625 6.515626 6.683594 17.027344.375 23.746094-4.882813 4.867188-12.214844 6.320313-18.585937 3.679688-6.367188-2.644532-10.523438-8.859375-10.527344-15.753906zm0 0"/><path d="m332.851562 366.933594h17.066407c9.425781 0 17.066406-7.640625 17.066406-17.066406v-17.066407c0-9.425781-7.640625-17.066406-17.066406-17.066406h-17.066407c-9.425781 0-17.070312 7.640625-17.070312 17.066406v17.066407c0 9.425781 7.644531 17.066406 17.070312 17.066406zm0-34.132813h17.066407v17.066407h-17.066407zm0 0"/><path d="m281.648438 332.800781h8.535156c4.710937 0 8.53125-3.820312 8.53125-8.535156 0-4.710937-3.820313-8.53125-8.53125-8.53125h-8.535156c-4.710938 0-8.53125 3.820313-8.53125 8.53125 0 4.714844 3.820312 8.535156 8.53125 8.535156zm0 0"/><path d="m281.648438 366.933594h8.535156c4.710937 0 8.53125-3.820313 8.53125-8.535156 0-4.710938-3.820313-8.53125-8.53125-8.53125h-8.535156c-4.710938 0-8.53125 3.820312-8.53125 8.53125 0 4.714843 3.820312 8.535156 8.53125 8.535156zm0 0"/><path d="m221.917969 128c14.136719 0 25.597656-11.460938 25.597656-25.601562 0-14.136719-11.460937-25.597657-25.597656-25.597657-14.140625 0-25.601563 11.460938-25.601563 25.597657 0 14.140624 11.460938 25.601562 25.601563 25.601562zm0-34.132812c4.710937 0 8.53125 3.820312 8.53125 8.53125 0 4.714843-3.820313 8.535156-8.53125 8.535156-4.714844 0-8.535157-3.820313-8.535157-8.535156 0-4.710938 3.820313-8.53125 8.535157-8.53125zm0 0"/><path d="m290.183594 128c14.136718 0 25.597656-11.460938 25.597656-25.601562 0-14.136719-11.460938-25.597657-25.597656-25.597657-14.140625 0-25.601563 11.460938-25.601563 25.597657 0 14.140624 11.460938 25.601562 25.601563 25.601562zm0-34.132812c4.710937 0 8.53125 3.820312 8.53125 8.53125 0 4.714843-3.820313 8.535156-8.53125 8.535156-4.714844 0-8.535156-3.820313-8.535156-8.535156 0-4.710938 3.820312-8.53125 8.535156-8.53125zm0 0"/><path d="m256.050781 477.867188c19.140625 0 34.132813-11.246094 34.132813-25.601563 0-14.351563-14.992188-25.597656-34.132813-25.597656s-34.132812 11.246093-34.132812 25.597656c0 14.355469 14.992187 25.601563 34.132812 25.601563zm0-34.132813c10.417969 0 17.066407 5.050781 17.066407 8.53125 0 3.484375-6.648438 8.535156-17.066407 8.535156-10.421875 0-17.066406-5.050781-17.066406-8.535156 0-3.480469 6.644531-8.53125 17.066406-8.53125zm0 0"/><path d="m8.582031 392.535156c0 4.710938 3.820313 8.53125 8.535157 8.53125 4.710937 0 8.53125-3.820312 8.53125-8.53125v-9.746094c2.78125.769532 5.648437 1.175782 8.535156 1.210938 2.882812-.035156 5.753906-.441406 8.53125-1.210938v9.746094c0 4.710938 3.820312 8.53125 8.535156 8.53125 4.710938 0 8.53125-3.820312 8.53125-8.53125v-20.328125c7.855469-8.839843 10.519531-21.140625 7.03125-32.4375-3.492188-11.296875-12.625-19.953125-24.097656-22.824219v-86.546874c0-9.425782 7.640625-17.066407 17.066406-17.066407h8.535156v8.535157c0 18.851562 15.28125 34.132812 34.132813 34.132812h8.535156v119.464844c.027344 23.554687 19.113281 42.640625 42.664063 42.667968h.4375c4.347656 53.09375 48.703124 93.964844 101.972656 93.964844 53.269531 0 97.625-40.871094 101.972656-93.964844h.417969c23.554687-.027343 42.640625-19.113281 42.667969-42.667968v-119.464844h8.53125c18.851562 0 34.132812-15.28125 34.132812-34.132812v-8.535157h8.535156c9.425782 0 17.066406 7.640625 17.066406 17.066407v86.546874c-11.46875 2.871094-20.605468 11.527344-24.09375 22.824219-3.488281 11.296875-.824218 23.597657 7.027344 32.4375v20.328125c0 4.710938 3.820313 8.53125 8.535156 8.53125 4.710938 0 8.53125-3.820312 8.53125-8.53125v-9.746094c5.574219 1.613282 11.492188 1.613282 17.066407 0v9.746094c0 4.710938 3.820312 8.53125 8.535156 8.53125 4.710937 0 8.53125-3.820312 8.53125-8.53125v-20.328125c7.851563-8.839843 10.515625-21.140625 7.027344-32.4375s-12.625-19.953125-24.09375-22.824219v-86.546874c0-18.851563-15.28125-34.132813-34.132813-34.132813h-8.535156v-8.53125c0-18.851563-15.28125-34.132813-34.132812-34.132813h-8.53125v-8.535156c0-80.117187-64.949219-145.066406-145.066407-145.066406-80.121093 0-145.066406 64.949219-145.066406 145.066406v8.535156h-8.535156c-18.851563 0-34.132813 15.28125-34.132813 34.132813v8.53125h-8.535156c-18.847656 0-34.132812 15.28125-34.132812 34.132813v86.546874c-11.46875 2.871094-20.605469 11.527344-24.09375 22.824219-3.488282 11.296875-.824219 23.597657 7.027343 32.4375zm486.402344-42.667968c0 9.425781-7.640625 17.066406-17.066406 17.066406s-17.066407-7.640625-17.066407-17.066406c0-9.425782 7.640626-17.066407 17.066407-17.066407s17.066406 7.640625 17.066406 17.066407zm-238.933594 145.066406c-43.800781-.054688-80.46875-33.222656-84.898437-76.800782h169.8125c-4.433594 43.582032-41.109375 76.753907-84.914063 76.800782zm153.597657-324.265625c9.425781 0 17.066406 7.640625 17.066406 17.066406v34.132813c0 9.425781-7.640625 17.066406-17.066406 17.066406h-8.53125v-68.265625zm-281.597657-25.601563c0-70.691406 57.304688-128 128-128 70.691407 0 128 57.308594 128 128v102.398438h-153.601562c-4.710938 0-8.53125 3.824218-8.53125 8.535156s3.820312 8.535156 8.53125 8.535156h153.601562v17.066406h-153.601562c-4.710938 0-8.53125 3.820313-8.53125 8.53125 0 4.714844 3.820312 8.535157 8.53125 8.535157h153.601562v76.796875c0 14.140625-11.460937 25.601562-25.601562 25.601562h-204.800781c-14.136719 0-25.597657-11.460937-25.597657-25.601562v-76.796875h25.597657c4.714843 0 8.535156-3.820313 8.535156-8.535157 0-4.710937-3.820313-8.53125-8.535156-8.53125h-25.597657v-17.066406h25.597657c4.714843 0 8.535156-3.824218 8.535156-8.535156s-3.820313-8.535156-8.535156-8.535156h-25.597657zm-42.667969 42.667969c0-9.425781 7.640626-17.066406 17.066407-17.066406h8.535156v68.265625h-8.535156c-9.425781 0-17.066407-7.640625-17.066407-17.066406zm-51.199218 145.066406c9.425781 0 17.066406 7.640625 17.066406 17.066407 0 9.425781-7.640625 17.066406-17.066406 17.066406-9.425782 0-17.066406-7.640625-17.066406-17.066406 0-9.425782 7.640624-17.066407 17.066406-17.066407zm0 0"/></svg>