<svg height="512pt" viewBox="-43 0 512 512" width="512pt" xmlns="http://www.w3.org/2000/svg"><path d="m145.066406 238.933594h-110.933594v34.132812h104.183594zm0 0" fill="#2e7d32"/><path d="m298.667969 238.933594h93.867187v34.132812h-88.160156zm0 0" fill="#2e7d32"/><path d="m187.734375 128h51.199219v59.734375h-51.199219zm0 0" fill="#2e7d32"/><path d="m187.734375 128h34.132813v59.734375h-34.132813zm0 0" fill="#4caf50"/><path d="m238.933594 401.066406v76.800782c0 14.136718-11.460938 25.597656-25.601563 25.597656-2.914062.019531-5.804687-.5-8.53125-1.535156-10.257812-3.539063-17.121093-13.214844-17.066406-24.0625v-76.800782c-.054687-10.847656 6.808594-20.527344 17.066406-24.0625 2.726563-1.035156 5.617188-1.554687 8.53125-1.539062 14.140625 0 25.601563 11.464844 25.601563 25.601562zm0 0" fill="#37474f"/><path d="m221.867188 401.066406v76.800782c.050781 10.847656-6.8125 20.523437-17.066407 24.0625-10.257812-3.539063-17.121093-13.214844-17.066406-24.0625v-76.800782c-.054687-10.847656 6.808594-20.527344 17.066406-24.0625 3.609375 1.210938 6.886719 3.257813 9.554688 5.972656 4.808593 4.792969 7.511719 11.300782 7.511719 18.089844zm0 0" fill="#607d8b"/><path d="m170.667969 418.132812h17.066406v51.199219h-17.066406c-9.425781 0-17.066407-7.640625-17.066407-17.066406v-17.066406c0-9.425781 7.640626-17.066407 17.066407-17.066407zm0 0" fill="#2e7d32"/><path d="m332.800781 260.265625c0 44.800781-53.503906 81.066406-119.46875 81.066406-2.898437 0-5.714843-.085937-8.53125-.253906-61.953125-2.902344-110.933593-37.972656-110.933593-80.8125 0-42.835937 48.980468-77.910156 110.933593-80.808594 2.816407-.171875 5.632813-.257812 8.53125-.257812 65.964844 0 119.46875 36.265625 119.46875 81.066406zm0 0" fill="#558b30"/><path d="m315.734375 260.265625c0-44.628906-49.667969-80.808594-110.933594-80.808594s-110.933593 36.179688-110.933593 80.808594c0 44.632813 49.667968 80.8125 110.933593 80.8125s110.933594-36.179687 110.933594-80.8125zm0 0" fill="#8bc34a"/><path d="m17.066406 275.03125h34.132813v72.871094h-34.132813zm0 0" fill="#4caf50"/><path d="m59.734375 256c0 14.136719-11.460937 25.601562-25.601563 25.601562-2.914062.015626-5.808593-.503906-8.53125-1.539062-10.226562-3.578125-17.070312-13.230469-17.070312-24.0625s6.84375-20.484375 17.070312-24.0625c2.722657-1.035156 5.617188-1.554688 8.53125-1.539062 14.140626 0 25.601563 11.464843 25.601563 25.601562zm0 0" fill="#558b30"/><path d="m59.734375 366.933594c0 14.136718-11.460937 25.601562-25.601563 25.601562-2.914062.015625-5.808593-.503906-8.53125-1.539062-10.226562-3.578125-17.070312-13.230469-17.070312-24.0625 0-10.832032 6.84375-20.484375 17.070312-24.0625 2.722657-1.035156 5.617188-1.554688 8.53125-1.539063 14.140626 0 25.601563 11.460938 25.601563 25.601563zm0 0" fill="#558b30"/><path d="m375.464844 275.03125h34.136718v72.871094h-34.136718zm0 0" fill="#4caf50"/><path d="m418.132812 256c0 14.136719-11.460937 25.601562-25.597656 25.601562-2.917968.015626-5.808594-.503906-8.535156-1.539062-10.222656-3.578125-17.070312-13.230469-17.070312-24.0625s6.847656-20.484375 17.070312-24.0625c2.726562-1.035156 5.617188-1.554688 8.535156-1.539062 14.136719 0 25.597656 11.464843 25.597656 25.601562zm0 0" fill="#558b30"/><path d="m418.132812 366.933594c0 14.136718-11.460937 25.601562-25.597656 25.601562-2.917968.015625-5.808594-.503906-8.535156-1.539062-10.222656-3.578125-17.070312-13.230469-17.070312-24.0625 0-10.832032 6.847656-20.484375 17.070312-24.0625 2.726562-1.035156 5.617188-1.554688 8.535156-1.539063 14.136719 0 25.597656 11.460938 25.597656 25.601563zm0 0" fill="#558b30"/><g fill="#8bc34a"><path d="m42.667969 256c0-13.289062-7.640625-24.0625-17.066407-24.0625-9.425781 0-17.066406 10.773438-17.066406 24.0625s7.640625 24.0625 17.066406 24.0625c9.425782 0 17.066407-10.773438 17.066407-24.0625zm0 0"/><path d="m42.667969 366.933594c0-13.289063-7.640625-24.0625-17.066407-24.0625-9.425781 0-17.066406 10.773437-17.066406 24.0625 0 13.289062 7.640625 24.0625 17.066406 24.0625 9.425782 0 17.066407-10.773438 17.066407-24.0625zm0 0"/><path d="m401.066406 256c0-13.289062-7.640625-24.0625-17.066406-24.0625s-17.066406 10.773438-17.066406 24.0625 7.640625 24.0625 17.066406 24.0625 17.066406-10.773438 17.066406-24.0625zm0 0"/><path d="m401.066406 366.933594c0-13.289063-7.640625-24.0625-17.066406-24.0625s-17.066406 10.773437-17.066406 24.0625c0 13.289062 7.640625 24.0625 17.066406 24.0625s17.066406-10.773438 17.066406-24.0625zm0 0"/></g><path d="m264.535156 34.132812v93.867188c0 4.710938-3.824218 8.535156-8.535156 8.535156h-85.332031c-4.714844 0-8.535157-3.824218-8.535157-8.535156v-93.867188c0-14.136718 11.460938-25.597656 25.601563-25.597656h51.199219c14.136718 0 25.601562 11.460938 25.601562 25.597656zm0 0" fill="#558b30"/><path d="m247.464844 34.132812v93.867188c0 4.710938-3.820313 8.535156-8.53125 8.535156h-68.265625c-4.714844 0-8.535157-3.824218-8.535157-8.535156v-93.867188c0-14.136718 11.460938-25.597656 25.601563-25.597656h34.132813c14.136718 0 25.597656 11.460938 25.597656 25.597656zm0 0" fill="#8bc34a"/><path d="m128 85.332031c0 9.425781-7.640625 17.066407-17.066406 17.066407-9.425782 0-17.066406-7.640626-17.066406-17.066407s7.640624-17.066406 17.066406-17.066406c9.425781 0 17.066406 7.640625 17.066406 17.066406zm0 0" fill="#f44335"/><path d="m256 469.332031h-17.066406v-51.199219h17.066406c9.425781 0 17.066406 7.640626 17.066406 17.066407v17.066406c0 9.425781-7.640625 17.066406-17.066406 17.066406zm0 0" fill="#2e7d32"/><path d="m332.800781 85.332031c0 9.425781-7.640625 17.066407-17.066406 17.066407s-17.066406-7.640626-17.066406-17.066407 7.640625-17.066406 17.066406-17.066406 17.066406 7.640625 17.066406 17.066406zm0 0" fill="#f44335"/><path d="m204.800781 256h-68.265625c-.003906-14.742188 9.460938-27.820312 23.464844-32.425781 3.441406-1.140625 7.042969-1.714844 10.667969-1.707031 18.851562 0 34.132812 15.28125 34.132812 34.132812zm0 0" fill="#9e9e9e"/><path d="m183.464844 256h-46.929688c-.003906-14.742188 9.460938-27.820312 23.464844-32.425781 14.003906 4.605469 23.46875 17.683593 23.464844 32.425781zm0 0" fill="#cfd8dc"/><path d="m273.066406 238.933594c0 9.425781-7.640625 17.066406-17.066406 17.066406s-17.066406-7.640625-17.066406-17.066406c0-9.425782 7.640625-17.066406 17.066406-17.066406s17.066406 7.640624 17.066406 17.066406zm0 0" fill="#f44335"/><path d="m204.800781 68.265625c0 4.714844-3.820312 8.535156-8.535156 8.535156-4.710937 0-8.53125-3.820312-8.53125-8.535156 0-4.710937 3.820313-8.53125 8.53125-8.53125 4.714844 0 8.535156 3.820313 8.535156 8.53125zm0 0"/><path d="m238.933594 68.265625c0 4.714844-3.820313 8.535156-8.535156 8.535156-4.710938 0-8.53125-3.820312-8.53125-8.535156 0-4.710937 3.820312-8.53125 8.53125-8.53125 4.714843 0 8.535156 3.820313 8.535156 8.53125zm0 0"/><path d="m247.464844 290.132812c0 4.714844-3.820313 8.535157-8.53125 8.535157-4.714844 0-8.535156-3.820313-8.535156-8.535157 0-4.710937 3.820312-8.53125 8.535156-8.53125 4.710937 0 8.53125 3.820313 8.53125 8.53125zm0 0"/><path d="m281.601562 290.132812c0 4.714844-3.820312 8.535157-8.535156 8.535157-4.710937 0-8.53125-3.820313-8.53125-8.535157 0-4.710937 3.820313-8.53125 8.53125-8.53125 4.714844 0 8.535156 3.820313 8.535156 8.53125zm0 0"/><path d="m0 366.933594c.03125 8.238281 3.066406 16.179687 8.535156 22.339844v20.328124c0 4.710938 3.820313 8.53125 8.53125 8.53125 4.714844 0 8.535156-3.820312 8.535156-8.53125v-9.746093c2.777344.769531 5.648438 1.175781 8.53125 1.210937 2.886719-.035156 5.753907-.441406 8.535157-1.210937v9.746093c0 4.710938 3.820312 8.53125 8.53125 8.53125 4.714843 0 8.535156-3.820312 8.535156-8.53125v-20.328124c11.375-12.71875 11.375-31.960938 0-44.679688v-62.992188h29.421875c4.550781 12.332032 12.023438 23.378907 21.777344 32.195313v112.871094c0 14.136719 11.460937 25.597656 25.601562 25.597656h8.53125c0 14.140625 11.460938 25.601563 25.601563 25.601563h8.53125c0 18.851562 15.28125 34.132812 34.132812 34.132812 18.851563 0 34.132813-15.28125 34.132813-34.132812h8.535156c14.136719 0 25.601562-11.460938 25.601562-25.601563h8.53125c14.140626 0 25.601563-11.460937 25.601563-25.597656v-112.871094c9.753906-8.816406 17.226563-19.863281 21.777344-32.195313h29.421875v62.992188c-11.378906 12.71875-11.378906 31.960938 0 44.679688v20.328124c0 4.710938 3.820312 8.53125 8.53125 8.53125 4.714844 0 8.535156-3.820312 8.535156-8.53125v-9.746093c5.574219 1.613281 11.492188 1.613281 17.066406 0v9.746093c0 4.710938 3.820313 8.53125 8.535156 8.53125 4.710938 0 8.53125-3.820312 8.53125-8.53125v-20.328124c11.378907-12.71875 11.378907-31.960938 0-44.679688v-66.253906c11.890626-13.445313 11.265626-33.820313-1.425781-46.515625-12.691406-12.691407-33.070312-13.316407-46.515625-1.425781h-36.324218c-13.867188-27.304688-46.140626-48.578126-86.402344-56.394532v-28.9375h8.535156c9.425781 0 17.066406-7.640625 17.066406-17.066406v-34.132812h17.066406c.5-.050782.996094-.152344 1.476563-.300782 4.03125 11.863282 16.050781 19.066406 28.414063 17.023438 12.359374-2.042969 21.425781-12.730469 21.425781-25.257813 0-12.527343-9.066407-23.214843-21.425781-25.257812-12.363282-2.039063-24.382813 5.164062-28.414063 17.023437-.480469-.148437-.976563-.246094-1.476563-.296875h-17.066406v-42.667969c0-18.851562-15.28125-34.132812-34.132812-34.132812h-51.199219c-18.851563 0-34.132813 15.28125-34.132813 34.132812v42.667969h-17.066406c-.503906.050781-.996094.152344-1.476562.296875-4.03125-11.859375-16.054688-19.0625-28.414063-17.023437-12.359375 2.042969-21.425781 12.730469-21.425781 25.257812 0 12.527344 9.066406 23.214844 21.425781 25.257813 12.359375 2.042968 24.382813-5.160156 28.414063-17.023438.480468.148438.972656.25 1.476562.300782h17.066406v34.132812c0 9.425781 7.640626 17.066406 17.066407 17.066406h8.53125v28.9375c-40.257813 7.816406-72.53125 29.011719-86.398438 56.394532h-36.328125c-13.445312-11.890626-33.820312-11.265626-46.511718 1.425781-12.695313 12.695312-13.316407 33.070312-1.425782 46.515625v66.253906c-5.46875 6.160156-8.503906 14.101562-8.535156 22.339844zm315.734375-290.132813c4.710937 0 8.53125 3.820313 8.53125 8.53125 0 4.714844-3.820313 8.535157-8.53125 8.535157-4.714844 0-8.535156-3.820313-8.535156-8.535157 0-4.710937 3.820312-8.53125 8.535156-8.53125zm-204.800781 17.066407c-4.714844 0-8.535156-3.820313-8.535156-8.535157 0-4.710937 3.820312-8.53125 8.535156-8.53125 4.710937 0 8.53125 3.820313 8.53125 8.53125 0 4.714844-3.820313 8.535157-8.53125 8.535157zm-76.800782 196.265624c2.886719-.035156 5.753907-.441406 8.535157-1.210937v45.089844c-2.78125-.769531-5.648438-1.175781-8.535157-1.210938-2.882812.035157-5.753906.441407-8.53125 1.210938v-45.089844c2.777344.769531 5.648438 1.175781 8.53125 1.210937zm-17.066406 76.800782c0-9.425782 7.640625-17.066406 17.066406-17.066406 9.425782 0 17.066407 7.640624 17.066407 17.066406 0 9.425781-7.640625 17.066406-17.066407 17.066406-9.425781 0-17.066406-7.640625-17.066406-17.066406zm153.601563 93.867187c-4.714844 0-8.535157-3.820312-8.535157-8.535156v-17.066406c0-4.710938 3.820313-8.53125 8.535157-8.53125h8.53125v34.132812zm59.730469 17.066407c0 9.425781-7.640626 17.066406-17.066407 17.066406s-17.066406-7.640625-17.066406-17.066406v-76.800782c0-9.425781 7.640625-17.066406 17.066406-17.066406s17.066407 7.640625 17.066407 17.066406zm34.136718-25.601563c0 4.714844-3.824218 8.535156-8.535156 8.535156h-8.535156v-34.132812h8.535156c4.710938 0 8.535156 3.820312 8.535156 8.53125zm34.132813-25.597656c0 4.710937-3.820313 8.53125-8.535157 8.53125h-8.53125c0-14.136719-11.464843-25.597657-25.601562-25.597657h-8.535156v-8.535156c0-18.851562-15.28125-34.132812-34.132813-34.132812-18.851562 0-34.132812 15.28125-34.132812 34.132812v8.535156h-8.53125c-14.140625 0-25.601563 11.460938-25.601563 25.597657h-8.53125c-4.714844 0-8.535156-3.820313-8.535156-8.53125v-99.839844c25.746094 15.464844 55.300781 23.445313 85.332031 23.039063 30.035157.40625 59.585938-7.574219 85.335938-23.039063zm93.867187-93.867188c-2.886718.035157-5.753906.441407-8.535156 1.210938v-45.089844c5.574219 1.617187 11.492188 1.617187 17.066406 0v45.089844c-2.78125-.769531-5.648437-1.175781-8.53125-1.210938zm-17.070312 34.132813c0-9.425782 7.644531-17.066406 17.070312-17.066406 9.425782 0 17.066406 7.640624 17.066406 17.066406 0 9.425781-7.640624 17.066406-17.066406 17.066406-9.425781 0-17.070312-7.640625-17.070312-17.066406zm34.136718-110.933594c0 9.425781-7.640624 17.066406-17.066406 17.066406-9.425781 0-17.070312-7.640625-17.070312-17.066406s7.644531-17.066406 17.070312-17.066406c9.425782 0 17.066406 7.640625 17.066406 17.066406zm-49.988281-8.535156c-1.617187 5.574218-1.617187 11.496094 0 17.070312h-18.585937c.09375-1.425781.304687-2.828125.304687-4.269531-.046875-4.304687-.539062-8.59375-1.457031-12.800781zm-188.945312-213.332032c0-9.425781 7.640625-17.066406 17.066406-17.066406h51.199219c9.425781 0 17.066406 7.640625 17.066406 17.066406v93.867188h-85.332031zm25.597656 110.933594h34.132813v26.453125c-5.597657-.519531-11.261719-.851562-17.066407-.851562-5.800781 0-11.46875.367187-17.066406.851562zm17.066406 42.667969c61.167969 0 110.933594 32.535156 110.933594 72.53125-.722656 17.242187-9.039063 33.277344-22.714844 43.800781-.171875.15625-.351562.273438-.511719.445313-25.117187 19.230469-56.089843 29.21875-87.707031 28.289062-31.617187.929688-62.589843-9.058593-87.703125-28.289062-.164062-.171875-.34375-.289063-.511718-.445313-13.675782-10.523437-21.992188-26.558594-22.71875-43.800781 0-39.996094 49.769531-72.53125 110.933593-72.53125zm-127.691406 76.800781h-18.585937c1.617187-5.574218 1.617187-11.496094 0-17.070312h19.738281c-.921875 4.207031-1.410157 8.496094-1.460938 12.800781 0 1.441406.214844 2.84375.308594 4.269531zm-51.507813-25.601562c9.425782 0 17.066407 7.640625 17.066407 17.066406s-7.640625 17.066406-17.066407 17.066406c-9.425781 0-17.066406-7.640625-17.066406-17.066406s7.640625-17.066406 17.066406-17.066406zm0 0"/><path d="m136.535156 264.535156h68.265625c4.710938 0 8.53125-3.824218 8.53125-8.535156 0-23.5625-19.101562-42.667969-42.664062-42.667969-23.566407 0-42.667969 19.105469-42.667969 42.667969 0 4.710938 3.820312 8.535156 8.535156 8.535156zm34.132813-34.136718c10.808593.046874 20.425781 6.875 24.027343 17.066406h-48.058593c3.601562-10.191406 13.21875-17.019532 24.03125-17.066406zm0 0"/><path d="m256 264.535156c14.136719 0 25.601562-11.464844 25.601562-25.601562 0-14.140625-11.464843-25.601563-25.601562-25.601563s-25.601562 11.460938-25.601562 25.601563c0 14.136718 11.464843 25.601562 25.601562 25.601562zm0-34.136718c4.710938 0 8.535156 3.820312 8.535156 8.535156 0 4.710937-3.824218 8.53125-8.535156 8.53125s-8.535156-3.820313-8.535156-8.53125c0-4.714844 3.824218-8.535156 8.535156-8.535156zm0 0"/></svg>