<svg height="504pt" viewBox="-25 0 504 504.09326" width="504pt" xmlns="http://www.w3.org/2000/svg"><path d="m218.277344 386.585938-16.789063 83.933593h-50.359375v-83.933593zm0 0" fill="#c52828"/><path d="m302.210938 386.585938v83.933593h-50.359376l-16.789062-83.933593zm0 0" fill="#c52828"/><path d="m201.488281 386.585938-16.785156 83.933593h-33.574219v-83.933593zm0 0" fill="#f44335"/><path d="m285.421875 386.585938v83.933593h-33.570313l-16.789062-83.933593zm0 0" fill="#f44335"/><path d="m318.996094 319.4375v50.359375c0 13.90625-11.273438 25.179687-25.179688 25.179687h-134.292968c-13.90625 0-25.183594-11.273437-25.183594-25.179687v-50.359375zm0 0" fill="#d84315"/><path d="m298.015625 319.4375v50.359375c0 13.90625-11.277344 25.179687-25.183594 25.179687h-113.308593c-13.90625 0-25.183594-11.273437-25.183594-25.179687v-50.359375zm0 0" fill="#ff5722"/><path d="m428.113281 210.324219v142.6875c.023438 5.53125-1.808593 10.910156-5.203125 15.277343h-20.984375c3.394531-4.367187 5.226563-9.746093 5.203125-15.277343v-142.6875c0-18.542969-15.03125-33.574219-33.574218-33.574219h20.984374c18.542969 0 33.574219 15.03125 33.574219 33.574219zm0 0" fill="#c52828"/><path d="m407.128906 210.324219v142.6875c-.003906 3.0625-.542968 6.101562-1.59375 8.980469-.648437 1.605468-1.4375 3.148437-2.351562 4.617187-.417969.585937-.839844 1.089844-1.257813 1.679687h-35.757812c-3.394531-4.367187-5.226563-9.746093-5.203125-15.277343v-50.359375h-268.589844v50.359375c.023438 5.53125-1.808594 10.910156-5.203125 15.277343h-56.742187c-3.394532-4.367187-5.226563-9.746093-5.203126-15.277343v-142.6875c0-18.542969 15.03125-33.574219 33.574219-33.574219h314.753907c18.542968 0 33.574218 15.03125 33.574218 33.574219zm0 0" fill="#f44335"/><path d="m360.964844 302.652344v8.390625c-.027344 9.261719-7.527344 16.761719-16.785156 16.789062h-4.199219v-25.179687zm0 0" fill="#f44335"/><path d="m109.160156 134.78125h235.019532c9.269531 0 16.785156 7.515625 16.785156 16.789062v159.472657c0 9.273437-7.515625 16.789062-16.785156 16.789062h-235.019532c-9.269531 0-16.785156-7.515625-16.785156-16.789062v-159.472657c0-9.273437 7.515625-16.789062 16.785156-16.789062zm0 0" fill="#c52828"/><path d="m109.160156 134.78125h209.835938c9.273437 0 16.789062 7.515625 16.789062 16.789062v159.472657c0 9.273437-7.515625 16.789062-16.789062 16.789062h-209.835938c-9.269531 0-16.785156-7.515625-16.785156-16.789062v-159.472657c0-9.273437 7.515625-16.789062 16.785156-16.789062zm0 0" fill="#f44335"/><path d="m327.390625 185.140625v92.328125c-.027344 9.261719-7.527344 16.761719-16.785156 16.789062h-167.871094c-4.167969.042969-8.199219-1.519531-11.246094-4.363281-3.527343-3.167969-5.539062-7.683593-5.539062-12.425781v-92.328125c.027343-9.257813 7.527343-16.757813 16.785156-16.785156h167.871094c.84375 0 1.6875.085937 2.515625.25 4.234375.585937 8.066406 2.820312 10.660156 6.214843 2.335938 2.933594 3.609375 6.570313 3.609375 10.320313zm0 0" fill="#0377bc"/><path d="m310.605469 185.140625v92.328125c-.027344 9.261719-7.527344 16.761719-16.789063 16.789062h-151.082031c-4.167969.042969-8.199219-1.519531-11.246094-4.363281-3.527343-3.167969-5.539062-7.683593-5.539062-12.425781v-92.328125c.027343-9.257813 7.527343-16.757813 16.785156-16.785156h151.082031c.847656 0 1.691406.085937 2.519532.25 4.230468.585937 8.0625 2.820312 10.660156 6.214843 2.332031 2.933594 3.605468 6.570313 3.609375 10.320313zm0 0" fill="#02a9f4"/><g fill="#9e9e9e"><path d="m42.015625 403.371094v25.179687c0 4.636719-3.757813 8.394531-8.394531 8.394531h-16.789063c-4.632812 0-8.390625-3.757812-8.390625-8.394531v-25.179687zm0 0"/><path d="m109.160156 403.371094v25.179687c0 4.636719-3.757812 8.394531-8.390625 8.394531h-16.789062c-4.636719 0-8.394531-3.757812-8.394531-8.394531v-25.179687zm0 0"/><path d="m444.898438 403.371094v25.179687c0 4.636719-3.757813 8.394531-8.394532 8.394531h-16.785156c-4.636719 0-8.394531-3.757812-8.394531-8.394531v-25.179687zm0 0"/><path d="m377.75 403.371094v25.179687c0 4.636719-3.757812 8.394531-8.390625 8.394531h-16.789063c-4.632812 0-8.390624-3.757812-8.390624-8.394531v-25.179687zm0 0"/></g><path d="m25.226562 403.371094v25.179687c0 4.636719-3.757812 8.394531-8.394531 8.394531-4.632812 0-8.390625-3.757812-8.390625-8.394531v-25.179687zm0 0" fill="#cfd8dc"/><path d="m92.375 403.371094v25.179687c0 4.636719-3.757812 8.394531-8.394531 8.394531s-8.394531-3.757812-8.394531-8.394531v-25.179687zm0 0" fill="#cfd8dc"/><path d="m428.113281 403.371094v25.179687c0 4.636719-3.757812 8.394531-8.394531 8.394531s-8.394531-3.757812-8.394531-8.394531v-25.179687zm0 0" fill="#cfd8dc"/><path d="m360.964844 403.371094v25.179687c0 4.636719-3.757813 8.394531-8.394532 8.394531-4.632812 0-8.390624-3.757812-8.390624-8.394531v-25.179687zm0 0" fill="#cfd8dc"/><path d="m285.421875 62.765625v75.542969h-117.507813v-75.542969c.910157-27.105469 21.359376-49.546875 48.265626-52.960937 18.703124-3.265626 37.875 2.207031 52.039062 14.855468 10.878906 9.6875 17.132812 23.539063 17.203125 38.105469zm0 0" fill="#c52828"/><path d="m264.441406 62.765625v71.34375h-96.527344v-71.34375c.910157-27.105469 21.359376-49.546875 48.265626-52.960937 11.574218 1.820312 22.371093 6.984374 31.054687 14.855468 10.878906 9.6875 17.132813 23.539063 17.207031 38.105469zm0 0" fill="#f44335"/><path d="m151.128906 25.667969c0 9.269531-7.515625 16.785156-16.789062 16.785156-9.269532 0-16.785156-7.515625-16.785156-16.785156 0-9.273438 7.515624-16.789063 16.785156-16.789063 9.273437 0 16.789062 7.515625 16.789062 16.789063zm0 0" fill="#f44335"/><path d="m335.785156 25.667969c0 9.269531-7.515625 16.785156-16.789062 16.785156-9.269532 0-16.785156-7.515625-16.785156-16.785156 0-9.273438 7.515624-16.789063 16.785156-16.789063 9.273437 0 16.789062 7.515625 16.789062 16.789063zm0 0" fill="#f44335"/><path d="m209.882812 487.304688c0 4.636718-3.757812 8.394531-8.394531 8.394531h-50.359375c-4.636718 0-8.394531-3.757813-8.394531-8.394531.015625-8.902344 3.546875-17.4375 9.820313-23.75 4.269531-4.207032 9.566406-7.214844 15.359374-8.730469 2.734376-.75 5.558594-1.117188 8.394532-1.089844 8.90625-.011719 17.453125 3.519531 23.753906 9.820313 6.296875 6.296874 9.832031 14.84375 9.820312 23.75zm0 0" fill="#37474f"/><path d="m310.605469 487.304688c0 4.636718-3.757813 8.394531-8.394531 8.394531h-50.359376c-4.636718 0-8.394531-3.757813-8.394531-8.394531.015625-8.902344 3.542969-17.4375 9.820313-23.75 4.265625-4.207032 9.5625-7.214844 15.359375-8.730469 2.734375-.75 5.558593-1.117188 8.394531-1.089844 8.90625-.011719 17.453125 3.519531 23.75 9.820313 6.300781 6.296874 9.832031 14.84375 9.824219 23.75zm0 0" fill="#37474f"/><path d="m193.097656 487.304688c0 4.636718-3.757812 8.394531-8.394531 8.394531h-33.574219c-4.636718 0-8.394531-3.757813-8.394531-8.394531.015625-8.902344 3.546875-17.4375 9.820313-23.75 4.269531-4.207032 9.566406-7.214844 15.359374-8.730469 5.796876 1.515625 11.09375 4.523437 15.363282 8.730469 6.273437 6.3125 9.800781 14.847656 9.820312 23.75zm0 0" fill="#607d8b"/><path d="m293.816406 487.304688c0 4.636718-3.757812 8.394531-8.394531 8.394531h-33.570313c-4.636718 0-8.394531-3.757813-8.394531-8.394531.015625-8.902344 3.542969-17.4375 9.820313-23.75 4.265625-4.207032 9.5625-7.214844 15.359375-8.730469 5.796875 1.515625 11.09375 4.523437 15.359375 8.730469 6.277344 6.3125 9.804687 14.847656 9.820312 23.75zm0 0" fill="#607d8b"/><path d="m109.160156 407.570312v4.195313h-16.785156v-4.195313c.023438-23.871093-18.195312-43.800781-41.96875-45.914062 1.394531-.167969 2.796875-.253906 4.199219-.25h8.390625c25.496094 0 46.164062 20.667969 46.164062 46.164062zm0 0" fill="#d84315"/><path d="m444.898438 407.570312v4.195313h-16.785157v-4.195313c.023438-23.871093-18.195312-43.800781-41.96875-45.914062 1.394531-.167969 2.792969-.253906 4.195313-.25h8.394531c12.246094 0 23.984375 4.863281 32.644531 13.519531 8.65625 8.65625 13.519532 20.398438 13.519532 32.644531zm0 0" fill="#d84315"/><path d="m92.375 407.570312v4.195313h-16.789062c-.066407-9.242187-7.542969-16.71875-16.785157-16.789063-9.269531 0-16.785156 7.519532-16.785156 16.789063h-33.574219v-4.195313c-.027344-23.871093 18.191406-43.800781 41.964844-45.914062 23.773438 2.113281 41.992188 22.042969 41.96875 45.914062zm0 0" fill="#ff5722"/><path d="m428.113281 407.570312v4.195313h-16.789062c-.003907-5.996094-3.207031-11.53125-8.398438-14.523437-5.195312-2.996094-11.589843-2.996094-16.78125.003906-1.269531.722656-2.429687 1.628906-3.441406 2.683594-3.1875 3.109374-4.976563 7.382812-4.953125 11.835937h-33.570312v-4.195313c-.027344-23.871093 18.191406-43.800781 41.964843-45.914062 23.773438 2.113281 41.992188 22.042969 41.96875 45.914062zm0 0" fill="#ff5722"/><path d="m327.390625 113.796875c0 13.90625-11.273437 25.179687-25.179687 25.179687h-151.082032c-13.90625 0-25.179687-11.273437-25.179687-25.179687s11.273437-25.179687 25.179687-25.179687h151.082032c13.90625 0 25.179687 11.273437 25.179687 25.179687zm0 0" fill="#d84315"/><path d="m306.40625 113.796875c0 13.90625-11.273438 25.179687-25.179688 25.179687h-130.097656c-13.90625 0-25.179687-11.273437-25.179687-25.179687s11.273437-25.179687 25.179687-25.179687h130.097656c13.90625 0 25.179688 11.273437 25.179688 25.179687zm0 0" fill="#ff5722"/><path d="m184.703125 361.40625c0 4.632812-3.757813 8.390625-8.394531 8.390625-4.636719 0-8.394532-3.757813-8.394532-8.390625 0-4.636719 3.757813-8.394531 8.394532-8.394531 4.636718 0 8.394531 3.757812 8.394531 8.394531zm0 0"/><path d="m218.277344 361.40625c0 4.632812-3.757813 8.390625-8.394532 8.390625-4.636718 0-8.394531-3.757813-8.394531-8.390625 0-4.636719 3.757813-8.394531 8.394531-8.394531 4.636719 0 8.394532 3.757812 8.394532 8.394531zm0 0"/><path d="m218.277344 50.847656c0 4.636719-3.757813 8.394532-8.394532 8.394532-4.636718 0-8.394531-3.757813-8.394531-8.394532 0-4.636718 3.757813-8.394531 8.394531-8.394531 4.636719 0 8.394532 3.757813 8.394532 8.394531zm0 0"/><path d="m251.851562 50.847656c0 4.636719-3.757812 8.394532-8.394531 8.394532s-8.394531-3.757813-8.394531-8.394532c0-4.636718 3.757812-8.394531 8.394531-8.394531s8.394531 3.757813 8.394531 8.394531zm0 0"/><path d="m142.734375 302.652344h167.871094c13.90625 0 25.179687-11.273438 25.179687-25.183594v-92.328125c0-13.90625-11.273437-25.179687-25.179687-25.179687h-167.871094c-13.90625 0-25.179687 11.273437-25.179687 25.179687v92.328125c0 13.910156 11.273437 25.183594 25.179687 25.183594zm-8.394531-117.511719c0-4.632813 3.757812-8.390625 8.394531-8.390625h167.871094c4.632812 0 8.390625 3.757812 8.390625 8.390625v92.328125c0 4.636719-3.757813 8.394531-8.390625 8.394531h-167.871094c-4.636719 0-8.394531-3.757812-8.394531-8.394531zm0 0"/><path d="m243.457031 369.796875h41.964844c4.636719 0 8.394531-3.757813 8.394531-8.390625 0-4.636719-3.757812-8.394531-8.394531-8.394531h-41.964844c-4.636719 0-8.394531 3.757812-8.394531 8.394531 0 4.632812 3.757812 8.390625 8.394531 8.390625zm0 0"/><path d="m159.523438 243.898438c2.222656-.003907 4.359374-.886719 5.933593-2.460938l33.574219-33.574219c3.179688-3.292969 3.132812-8.527343-.105469-11.765625-3.234375-3.238281-8.472656-3.285156-11.765625-.101562l-33.574218 33.574218c-2.398438 2.398438-3.117188 6.007813-1.816407 9.144532 1.296875 3.136718 4.359375 5.179687 7.753907 5.183594zm0 0"/><path d="m187.160156 266.617188c3.277344 3.277343 8.59375 3.277343 11.871094 0l58.753906-58.753907c3.179688-3.292969 3.132813-8.527343-.101562-11.765625-3.238282-3.238281-8.472656-3.285156-11.769532-.101562l-58.753906 58.753906c-3.273437 3.277344-3.273437 8.589844 0 11.867188zm0 0"/><path d="m16.832031 453.734375h16.789063c9.269531 0 16.785156-7.515625 16.785156-16.789063v-25.179687c0-4.636719 3.757812-8.394531 8.394531-8.394531 2.261719-.007813 4.425781.921875 5.976563 2.570312 1.566406 1.53125 2.4375 3.632813 2.417968 5.824219v25.179687c0 9.273438 7.515626 16.789063 16.785157 16.789063h16.789062c4.449219 0 8.71875-1.769531 11.867188-4.917969 3.148437-3.148437 4.917969-7.417968 4.917969-11.871094v-29.375c-.003907-16.089843-7.121094-31.355468-19.449219-41.699218 1.738281-4.066406 2.640625-8.4375 2.664062-12.859375v-18.332031c2.6875.996093 5.527344 1.515624 8.390625 1.542968h16.789063v33.574219c.035156 11.941406 6.433593 22.957031 16.785156 28.910156v63.417969.210938c-5.429687 7.191406-8.375 15.957031-8.394531 24.96875 0 9.273437 7.519531 16.789062 16.789062 16.789062h50.359375c9.273438 0 16.789063-7.515625 16.789063-16.789062-.023438-8.917969-2.914063-17.589844-8.242188-24.742188l14.796875-59.191406h3.675781l14.796876 59.191406c-5.328126 7.152344-8.21875 15.824219-8.242188 24.742188 0 9.273437 7.515625 16.789062 16.789062 16.789062h50.359376c9.269531 0 16.785156-7.515625 16.785156-16.789062-.027344-9.015626-2.988282-17.78125-8.433594-24.96875 0-.074219.042969-.132813.042969-.210938v-63.417969c10.351562-5.953125 16.746093-16.96875 16.785156-28.910156v-33.574219h16.789063c2.863281-.027344 5.703124-.546875 8.390624-1.542968v18.332031c.023438 4.421875.925782 8.792969 2.660157 12.859375-12.324219 10.34375-19.441407 25.609375-19.445313 41.699218v29.375c0 9.273438 7.515625 16.789063 16.785156 16.789063h16.789063c9.269531 0 16.785156-7.515625 16.785156-16.789063v-25.179687c-.007812-2.261719.921875-4.425781 2.570313-5.976563 1.53125-1.566406 3.632812-2.4375 5.824218-2.417968 4.636719 0 8.394532 3.757812 8.394532 8.394531v25.179687c0 9.273438 7.515625 16.789063 16.785156 16.789063h16.785156c9.273438 0 16.789063-7.515625 16.789063-16.789063v-29.375c-.003907-16.089843-7.125-31.355468-19.449219-41.699218 1.738281-4.066406 2.640625-8.4375 2.660156-12.859375v-142.6875c-.027344-23.167969-18.800781-41.941407-41.964844-41.96875h-25.179687v-16.785157c0-13.910156-11.273437-25.183593-25.179687-25.183593h-13.0625c3.019531-5.078125 4.632812-10.875 4.667968-16.785157 0-18.542968-15.03125-33.574218-33.574218-33.574218h-8.394532v-8.394532c-.003906-4.738281-.511718-9.460937-1.519531-14.089843l16.503906-11.039063c8.160157 8.90625 21.507813 10.730469 31.753907 4.339844 10.25-6.386719 14.492187-19.175781 10.089843-30.421875-4.402343-11.246094-16.195312-17.761719-28.058593-15.496094-11.863282 2.265625-20.425782 12.664063-20.375 24.742188 0 .335937.082031.652343.101562.988281l-15.839844 10.59375c-11.410156-22.550781-34.53125-36.765625-59.804687-36.765625-25.269531 0-48.394531 14.214844-59.800781 36.765625l-15.839844-10.59375c0-.335938.101562-.652344.101562-.988281.117188-12.269531-8.546875-22.871094-20.589844-25.203125-12.046874-2.332032-24.039062 4.273437-28.507812 15.695312-4.472656 11.425782-.144531 24.414063 10.28125 30.875 10.429688 6.464844 23.984375 4.558594 32.226562-4.53125l16.503907 11.039063c-1.007813 4.628906-1.515625 9.351562-1.519531 14.089843v8.394532h-8.394532c-18.542968 0-33.574218 15.03125-33.574218 33.574218.035156 5.910157 1.644531 11.707032 4.667968 16.785157h-13.0625c-13.90625 0-25.179687 11.273437-25.179687 25.183593v16.785157h-25.179688c-23.167969.027343-41.941406 18.800781-41.96875 41.96875v142.6875c.023438 4.421875.925781 8.792969 2.664063 12.859375-12.328125 10.34375-19.4453128 25.609375-19.449219 41.699218v29.375c0 9.273438 7.515625 16.789063 16.785156 16.789063zm310.558594-436.460937c4.636719 0 8.394531 3.757812 8.394531 8.394531 0 4.632812-3.757812 8.390625-8.394531 8.390625s-8.394531-3.757813-8.394531-8.390625c0-4.636719 3.757812-8.394531 8.394531-8.394531zm-201.441406 16.785156c-4.636719 0-8.394531-3.757813-8.394531-8.390625 0-4.636719 3.757812-8.394531 8.394531-8.394531 4.632812 0 8.390625 3.757812 8.390625 8.394531 0 2.226562-.882813 4.359375-2.457032 5.933593-1.574218 1.574219-3.707031 2.457032-5.933593 2.457032zm25.179687 453.246094c0-13.90625 11.273438-25.179688 25.179688-25.179688s25.179687 11.273438 25.179687 25.179688zm44.652344-36.929688c-11.1875-6.140625-24.609375-6.6875-36.257812-1.476562v-45.527344h48zm56.070312 36.929688c0-13.90625 11.273438-25.179688 25.179688-25.179688s25.179688 11.273438 25.179688 25.179688zm41.964844-38.40625c-11.648437-5.214844-25.066406-4.675782-36.257812 1.460937l-11.753906-47.003906h48.011718zm16.789063-79.101563c0 9.273437-7.515625 16.789063-16.789063 16.789063h-134.292968c-9.273438 0-16.789063-7.515626-16.789063-16.789063v-33.574219h167.871094zm125.898437 41.96875v25.179687h-16.785156v-25.179687c0-13.90625-11.273438-25.179687-25.179688-25.179687-13.878906.066406-25.113281 11.300781-25.179687 25.179687v25.179687h-16.789063v-29.375c.023438-20.851562 16.921876-37.75 37.769532-37.773437h8.394531c20.851563.023437 37.75 16.921875 37.769531 37.773437zm-41.964844-226.625c13.90625 0 25.179688 11.277344 25.179688 25.183594v142.6875c-.050781 1.34375-.269531 2.679687-.644531 3.96875-6.464844-2.617188-13.367188-3.964844-20.339844-3.96875h-8.394531c-6.96875.003906-13.875 1.351562-20.335938 3.96875-.375-1.289063-.59375-2.625-.644531-3.96875v-167.871094zm-218.230468-117.507813c0-27.8125 22.546875-50.359374 50.359375-50.359374 27.816406 0 50.363281 22.546874 50.363281 50.359374v8.394532h-100.722656zm-41.96875 41.96875c0-9.269531 7.519531-16.785156 16.789062-16.785156h151.082032c9.269531 0 16.785156 7.515625 16.785156 16.785156 0 9.269532-7.515625 16.785157-16.785156 16.785157h-151.082032c-9.269531 0-16.789062-7.515625-16.789062-16.785157zm-33.570313 41.96875c0-4.636718 3.757813-8.394531 8.390625-8.394531h235.019532c4.632812 0 8.390624 3.757813 8.390624 8.394531v159.472657c0 4.636719-3.757812 8.394531-8.390624 8.394531h-235.019532c-4.632812 0-8.390625-3.757812-8.390625-8.394531zm-67.148437 201.441407v-142.6875c0-13.90625 11.273437-25.183594 25.179687-25.183594h25.179688v167.871094c-.050781 1.34375-.269531 2.679687-.644531 3.96875-6.460938-2.617188-13.367188-3.964844-20.339844-3.96875h-8.390625c-6.972657.003906-13.878907 1.351562-20.339844 3.96875-.375-1.289063-.59375-2.625-.644531-3.96875zm-16.789063 54.558593c.023438-20.851562 16.921875-37.75 37.773438-37.773437h8.390625c20.851562.023437 37.75 16.921875 37.773437 37.773437v29.375h-16.789062v-25.179687c-.066407-13.878906-11.300781-25.113281-25.179688-25.179687-13.90625 0-25.179687 11.273437-25.179687 25.179687v25.179687h-16.789063zm0 0"/></svg>