<svg height="512pt" viewBox="-43 0 512 512.10604" width="512pt" xmlns="http://www.w3.org/2000/svg"><path d="m51.253906 332.90625c14.136719 0 25.597656 11.460938 25.597656 25.601562 0 14.136719-11.460937 25.597657-25.597656 25.597657-14.140625 0-25.601562-11.460938-25.601562-25.597657 0-14.140624 11.460937-25.601562 25.601562-25.601562zm0 0" fill="#bdc3c7"/><path d="m375.519531 384.105469c-14.136719 0-25.601562-11.460938-25.601562-25.597657 0-14.140624 11.464843-25.601562 25.601562-25.601562s25.601563 11.460938 25.601563 25.601562c0 14.136719-11.464844 25.597657-25.601563 25.597657zm0 0" fill="#cfd8dc"/><path d="m119.519531 315.839844h25.601563v93.867187h-25.601563c-9.425781 0-17.066406-7.640625-17.066406-17.066406v-59.734375c0-9.425781 7.640625-17.066406 17.066406-17.066406zm0 0" fill="#607d8b"/><path d="m281.652344 315.839844h25.601562c9.425782 0 17.066406 7.640625 17.066406 17.066406v59.734375c0 9.425781-7.640624 17.066406-17.066406 17.066406h-25.601562zm0 0" fill="#607d8b"/><path d="m238.988281 460.90625v25.601562c-.03125 9.414063-7.65625 17.035157-17.070312 17.066407h-17.066407c-9.414062-.03125-17.035156-7.652344-17.066406-17.066407v-25.601562zm0 0" fill="#424242"/><path d="m187.785156 268.199219h51.203125v64.707031h-51.203125zm0 0" fill="#95a5a5"/><path d="m290.1875 315.839844v136.53125c-.027344 9.414062-7.652344 17.039062-17.066406 17.066406h-119.46875c-9.414063-.027344-17.039063-7.652344-17.066406-17.066406v-136.53125zm0 0" fill="#9e9e9e"/><path d="m268.851562 315.839844v136.53125c-.027343 9.414062-7.652343 17.039062-17.066406 17.066406h-98.132812c-9.414063-.027344-17.039063-7.652344-17.066406-17.066406v-136.53125zm0 0" fill="#cfd8dc"/><path d="m179.253906 358.507812h17.066406c4.710938 0 8.53125 3.820313 8.53125 8.53125v17.066407c0 4.714843-3.820312 8.535156-8.53125 8.535156h-17.066406c-4.714844 0-8.535156-3.820313-8.535156-8.535156v-17.066407c0-4.710937 3.820312-8.53125 8.535156-8.53125zm0 0" fill="#ffeb3a"/><path d="m307.253906 93.972656v85.332032l-17.066406 59.734374h-153.601562l-17.066407-59.734374v-85.332032c.027344-9.414062 7.652344-17.039062 17.066407-17.066406h153.601562c9.414062.027344 17.039062 7.652344 17.066406 17.066406zm0 0" fill="#37474f"/><path d="m285.917969 85.4375v85.335938l-17.066407 59.734374h-132.265624l-17.066407-59.734374v-85.335938c.027344-9.414062 7.652344-17.035156 17.066407-17.066406h132.265624c9.414063.03125 17.039063 7.652344 17.066407 17.066406zm0 0" fill="#607d8b"/><path d="m341.386719 179.304688v85.335937c-.027344 9.414063-7.652344 17.039063-17.066407 17.066406h-21.332031c9.410157-.027343 17.035157-7.652343 17.066407-17.066406v-85.335937c-.027344-6.0625-3.234376-11.667969-8.449219-14.761719 2.597656-1.496094 5.535156-2.289063 8.53125-2.304688h4.183593c9.414063.027344 17.039063 7.652344 17.066407 17.066407zm0 0" fill="#9e9e9e"/><path d="m320.054688 179.304688v85.335937c-.03125 9.414063-7.65625 17.039063-17.066407 17.066406h-200.535156c-9.414063-.027343-17.039063-7.652343-17.066406-17.066406v-85.335937c-.019531-4.53125 1.769531-8.882813 4.976562-12.089844 3.203125-3.203125 7.558594-4.996094 12.089844-4.976563h4.179687c7.617188-.011719 14.3125 5.046875 16.386719 12.375l10.066407 34.984375c2.074218 7.332032 8.769531 12.386719 16.386718 12.375h127.828125c7.617188.011719 14.3125-5.042968 16.382813-12.375l10.070312-34.984375c1.179688-4.265625 4.003906-7.886719 7.851563-10.070312 5.214843 3.09375 8.421875 8.699219 8.449219 14.761719zm0 0" fill="#cfd8dc"/><path d="m230.453125 25.707031c0 9.425781-7.640625 17.066407-17.066406 17.066407s-17.066407-7.640626-17.066407-17.066407 7.640626-17.066406 17.066407-17.066406 17.066406 7.640625 17.066406 17.066406zm0 0" fill="#f44335"/><path d="m204.851562 162.238281c0 4.714844-3.820312 8.535157-8.53125 8.535157-4.714843 0-8.535156-3.820313-8.535156-8.535157 0-4.710937 3.820313-8.53125 8.535156-8.53125 4.710938 0 8.53125 3.820313 8.53125 8.53125zm0 0"/><path d="m238.988281 162.238281c0 4.714844-3.824219 8.535157-8.535156 8.535157-4.714844 0-8.535156-3.820313-8.535156-8.535157 0-4.710937 3.820312-8.53125 8.535156-8.53125 4.710937 0 8.535156 3.820313 8.535156 8.53125zm0 0"/><path d="m247.519531 358.507812c0 4.710938-3.820312 8.53125-8.53125 8.53125-4.714843 0-8.535156-3.820312-8.535156-8.53125 0-4.714843 3.820313-8.535156 8.535156-8.535156 4.710938 0 8.53125 3.820313 8.53125 8.535156zm0 0"/><path d="m247.519531 392.640625c0 4.710937-3.820312 8.53125-8.53125 8.53125-4.714843 0-8.535156-3.820313-8.535156-8.53125 0-4.714844 3.820313-8.535156 8.535156-8.535156 4.710938 0 8.53125 3.820312 8.53125 8.535156zm0 0"/><path d="m8.585938 367.039062h18.636718c.292969.835938.628906 1.652344 1.007813 2.449219l-.078125.050781-17.066406 17.066407c-2.21875 2.144531-3.105469 5.316406-2.328126 8.300781.78125 2.980469 3.113282 5.3125 6.097657 6.09375 2.980469.78125 6.15625-.109375 8.296875-2.328125l17.066406-17.066406.050781-.078125c3.421875 1.679687 7.175781 2.558594 10.984375 2.578125 10.921875-.046875 20.609375-7.023438 24.121094-17.363281.484375.144531.976562.246093 1.476562.296874h17.066407v25.601563c0 14.136719 11.464843 25.597656 25.601562 25.597656h8.535157v34.132813c0 14.140625 11.460937 25.601562 25.597656 25.601562h25.601562v8.535156c0 14.136719 11.460938 25.597657 25.597656 25.597657h17.066407c14.140625 0 25.601562-11.460938 25.601562-25.597657v-8.535156h25.601563c14.136718 0 25.597656-11.460937 25.597656-25.601562v-34.132813h8.535156c14.136719 0 25.597656-11.460937 25.597656-25.597656v-25.601563h17.066407c.503906-.050781.996093-.152343 1.476562-.296874 3.515625 10.339843 13.203125 17.316406 24.125 17.363281 3.808594-.015625 7.5625-.890625 10.984375-2.558594l.050782.074219 17.066406 17.070312c3.347656 3.230469 8.667968 3.1875 11.960937-.105468 3.292969-3.292969 3.339844-8.613282.105469-11.960938l-17.066406-17.066406-.078125-.054688c.378906-.800781.714843-1.625 1.007812-2.464844h18.636719c4.710938 0 8.53125-3.820312 8.53125-8.53125 0-4.714843-3.820312-8.535156-8.53125-8.535156h-18.636719c-.292969-.832031-.628906-1.652344-1.007812-2.449218l.078125-.050782 17.066406-17.066406c3.234375-3.347656 3.1875-8.671875-.105469-11.960938-3.292969-3.292968-8.613281-3.339843-11.960937-.105468l-17.066406 17.066406-.050782.078125c-3.421875-1.679687-7.175781-2.558594-10.984375-2.578125-10.921875.050781-20.609375 7.023438-24.125 17.363281-.480469-.144531-.972656-.246093-1.476562-.296875h-17.066407v-17.066406c0-14.140625-11.460937-25.601562-25.597656-25.601562h-59.734375v-17.066407h76.800781c14.136719 0 25.597657-11.460937 25.597657-25.597656v-85.335937c0-14.136719-11.460938-25.597657-25.597657-25.597657h-4.191406c-1.457031 0-2.910156.128907-4.34375.382813v-60.117188c0-14.136718-11.460937-25.601562-25.597656-25.601562h-68.269531v-18.636719c11.757812-4.15625 18.808593-16.175781 16.699219-28.464844-2.109376-12.289062-12.761719-21.269531-25.230469-21.269531s-23.125 8.980469-25.230469 21.269531c-2.109375 12.289063 4.941406 24.308594 16.695312 28.464844v18.636719h-68.265624c-14.136719 0-25.597657 11.464844-25.597657 25.601562v60.117188c-1.4375-.253906-2.890625-.382813-4.34375-.382813h-4.191406c-14.136719 0-25.601563 11.460938-25.601563 25.597657v85.335937c0 14.136719 11.464844 25.597656 25.601563 25.597656h76.800781v17.066407h-59.734375c-14.136719 0-25.601562 11.460937-25.601562 25.601562v17.066406h-17.066407c-.5.050782-.992187.152344-1.476562.296875-3.511719-10.339843-13.199219-17.3125-24.121094-17.363281-3.808594.015625-7.5625.890625-10.984375 2.558594l-.050781-.074219-17.066406-17.066406c-3.347656-3.234375-8.671875-3.1875-11.960938.101562-3.292968 3.292969-3.339844 8.613281-.105468 11.964844l17.066406 17.066406.078125.050781c-.378907.800782-.714844 1.625-1.007813 2.464844h-18.636718c-4.710938 0-8.5312505 3.820313-8.5312505 8.535156 0 4.710938 3.8203125 8.53125 8.5312505 8.53125zm366.933593-17.066406c4.714844 0 8.535157 3.820313 8.535157 8.535156 0 4.710938-3.820313 8.53125-8.535157 8.53125-4.710937 0-8.53125-3.820312-8.53125-8.53125 0-4.714843 3.820313-8.535156 8.53125-8.535156zm-162.132812-332.800781c4.710937 0 8.53125 3.820313 8.53125 8.535156 0 4.710938-3.820313 8.53125-8.53125 8.53125-4.714844 0-8.535157-3.820312-8.535157-8.53125 0-4.714843 3.820313-8.535156 8.535157-8.535156zm17.066406 469.335937c0 4.710938-3.820313 8.53125-8.535156 8.53125h-17.066407c-4.710937 0-8.53125-3.820312-8.53125-8.53125v-8.535156h34.132813zm85.332031-153.601562v59.734375c0 4.710937-3.820312 8.53125-8.53125 8.53125h-8.535156v-76.800781h8.535156c4.710938 0 8.53125 3.820312 8.53125 8.535156zm-34.132812 25.601562v93.863282c0 4.714844-3.820313 8.535156-8.53125 8.535156h-119.46875c-4.710938 0-8.53125-3.820312-8.53125-8.535156v-128h136.53125zm-145.066406-273.070312h153.601562c4.710938 0 8.53125 3.824219 8.53125 8.535156v67.070313l-3.207031 11.222656-1.621094 5.683594-8.371094 29.296875c-1.0625 3.652344-4.40625 6.167968-8.210937 6.183594h-127.84375c-3.808594-.015626-7.148438-2.53125-8.210938-6.183594l-8.371094-29.296875-1.621093-5.683594-3.207031-11.222656v-67.070313c0-4.710937 3.820312-8.535156 8.53125-8.535156zm-42.667969 179.203125v-85.335937c0-4.710938 3.820312-8.53125 8.535156-8.53125h4.191406c3.808594-.003907 7.160157 2.523437 8.207031 6.1875l5 17.492187 4.992188 17.484375 3.542969 12.375c1.042969 3.664062 4.390625 6.191406 8.199219 6.195312h153.601562c3.804688-.003906 7.152344-2.527343 8.199219-6.1875l3.542969-12.375 4.992187-17.484374 5-17.492188c1.042969-3.667969 4.394531-6.195312 8.207031-6.195312h4.191406c4.710938 0 8.53125 3.820312 8.53125 8.53125v85.335937c0 4.710937-3.820312 8.53125-8.53125 8.53125h-221.867187c-4.714844 0-8.535156-3.820313-8.535156-8.53125zm102.402343 25.597656h34.132813v17.066407h-34.132813zm-85.332031 42.667969c0-4.714844 3.820313-8.535156 8.53125-8.535156h8.535157v76.800781h-8.535157c-4.710937 0-8.53125-3.820313-8.53125-8.53125zm-59.734375 17.066406c4.710938 0 8.53125 3.820313 8.53125 8.535156 0 4.710938-3.820312 8.53125-8.53125 8.53125-4.714844 0-8.535156-3.820312-8.535156-8.53125 0-4.714843 3.820312-8.535156 8.535156-8.535156zm0 0"/><path d="m196.320312 401.171875c9.425782 0 17.066407-7.640625 17.066407-17.066406v-17.066407c0-9.425781-7.640625-17.066406-17.066407-17.066406h-17.066406c-9.425781 0-17.066406 7.640625-17.066406 17.066406v17.066407c0 9.425781 7.640625 17.066406 17.066406 17.066406zm-17.066406-34.132813h17.066406v17.066407h-17.066406zm0 0"/><path d="m170.71875 426.773438c0 4.710937 3.820312 8.53125 8.535156 8.53125h68.265625c4.714844 0 8.535157-3.820313 8.535157-8.53125 0-4.714844-3.820313-8.535157-8.535157-8.535157h-68.265625c-4.714844 0-8.535156 3.820313-8.535156 8.535157zm0 0"/></svg>