<svg height="512pt" viewBox="-43 0 512 512.07" width="512pt" xmlns="http://www.w3.org/2000/svg"><path d="m281.636719 76.800781v59.734375h-136.535157v-59.734375c-.03125-33.59375 24.414063-62.203125 57.601563-67.414062 3.523437-.585938 7.09375-.871094 10.664063-.851563 18.113281-.027344 35.492187 7.15625 48.300781 19.964844 12.808593 12.808594 19.992187 30.1875 19.96875 48.300781zm0 0" fill="#fec108"/><path d="m260.300781 76.800781v59.734375h-115.199219v-59.734375c-.03125-33.59375 24.414063-62.203125 57.601563-67.414062 33.199219 5.1875 57.65625 33.808593 57.597656 67.414062zm0 0" fill="#ffeb3a"/><path d="m110.96875 85.332031c0 9.425781-7.640625 17.066407-17.066406 17.066407-9.425782 0-17.066406-7.640626-17.066406-17.066407s7.640624-17.066406 17.066406-17.066406c9.425781 0 17.066406 7.640625 17.066406 17.066406zm0 0" fill="#ffeb3a"/><path d="m349.902344 85.332031c0 9.425781-7.640625 17.066407-17.066406 17.066407-9.425782 0-17.066407-7.640626-17.066407-17.066407s7.640625-17.066406 17.066407-17.066406c9.425781 0 17.066406 7.640625 17.066406 17.066406zm0 0" fill="#ffeb3a"/><path d="m145.101562 102.398438h136.535157v45.824218h-136.535157zm0 0" fill="#f57c00"/><path d="m145.101562 102.398438h115.199219v45.824218h-115.199219zm0 0" fill="#ff9801"/><path d="m285.304688 291.242188c13.4375 3.65625 22.566406 16.117187 22 30.035156-.566407 13.914062-10.679688 25.59375-24.371094 28.144531s-27.328125-4.699219-32.871094-17.476563h-73.386719c-5.542969 12.777344-19.183593 20.027344-32.875 17.476563-13.691406-2.550781-23.800781-14.230469-24.367187-28.144531-.566406-13.917969 8.558594-26.378906 22-30.035156zm0 0" fill="#f57c00"/><path d="m290.167969 153.941406c1.410156-.246094 2.835937-.359375 4.265625-.339844 16.496094 0 29.867187 13.371094 29.867187 29.863282 0 16.496094-13.371093 29.867187-29.867187 29.867187-1.429688.019531-2.855469-.097656-4.265625-.339843h-153.601563c-1.40625.242187-2.835937.359374-4.265625.339843-16.492187 0-29.867187-13.371093-29.867187-29.867187 0-16.492188 13.375-29.863282 29.867187-29.863282 1.429688-.019531 2.859375.09375 4.265625.339844zm0 0" fill="#f57c00"/><path d="m196.300781 452.265625c0 28.277344-22.921875 51.199219-51.199219 51.199219-3.585937.027344-7.164062-.34375-10.667968-1.109375-23.667969-5.007813-40.597656-25.898438-40.597656-50.089844s16.929687-45.082031 40.597656-50.089844c3.503906-.761719 7.082031-1.132812 10.667968-1.109375 28.277344 0 51.199219 22.921875 51.199219 51.199219zm0 0" fill="#fec108"/><path d="m162.167969 452.265625c0 9.425781-7.640625 17.066406-17.066407 17.066406-9.425781 0-17.066406-7.640625-17.066406-17.066406s7.640625-17.066406 17.066406-17.066406c9.425782 0 17.066407 7.640625 17.066407 17.066406zm0 0" fill="#f29c1f"/><path d="m289.316406 144.214844v119.464844c0 42.414062-34.386718 76.800781-76.800781 76.800781-4.289063.003906-8.570313-.335938-12.800781-1.023438-36.957032-6.277343-63.996094-38.292969-64-75.777343v-119.464844c0-4.714844 3.820312-8.535156 8.535156-8.535156h136.53125c4.714844 0 8.535156 3.820312 8.535156 8.535156zm0 0" fill="#fec108"/><path d="m263.714844 144.214844v119.464844c-.003906 37.484374-27.042969 69.5-64 75.777343-36.957032-6.277343-63.996094-38.292969-64-75.777343v-119.464844c0-4.714844 3.820312-8.535156 8.535156-8.535156h110.933594c4.710937 0 8.53125 3.820312 8.53125 8.535156zm0 0" fill="#ffeb3a"/><path d="m332.835938 452.265625c0 28.277344-22.925782 51.199219-51.199219 51.199219-3.585938.027344-7.164063-.34375-10.667969-1.109375-23.667969-5.007813-40.601562-25.898438-40.601562-50.089844s16.933593-45.082031 40.601562-50.089844c3.503906-.761719 7.082031-1.132812 10.667969-1.109375 28.273437 0 51.199219 22.921875 51.199219 51.199219zm0 0" fill="#fec108"/><path d="m170.703125 452.265625c0-27.664063-18.148437-50.089844-40.535156-50.089844s-40.53125 22.425781-40.53125 50.089844 18.144531 50.089844 40.53125 50.089844 40.535156-22.425781 40.535156-50.089844zm0 0" fill="#ffeb3a"/><path d="m307.234375 452.265625c0-27.664063-18.148437-50.089844-40.53125-50.089844-22.386719 0-40.535156 22.425781-40.535156 50.089844s18.148437 50.089844 40.535156 50.089844c22.382813 0 40.53125-22.425781 40.53125-50.089844zm0 0" fill="#ffeb3a"/><g fill="#f57c00"><path d="m298.703125 452.265625c0 9.425781-7.640625 17.066406-17.066406 17.066406s-17.070313-7.640625-17.070313-17.066406 7.644532-17.066406 17.070313-17.066406 17.066406 7.640625 17.066406 17.066406zm0 0"/><path d="m166.433594 452.265625c0 9.425781-7.640625 17.066406-17.066406 17.066406-9.425782 0-17.066407-7.640625-17.066407-17.066406s7.640625-17.066406 17.066407-17.066406c9.425781 0 17.066406 7.640625 17.066406 17.066406zm0 0"/><path d="m51.234375 285.867188c0 11.78125-9.550781 21.332031-21.332031 21.332031-2.941406.015625-5.847656-.59375-8.535156-1.792969-7.761719-3.398438-12.773438-11.066406-12.773438-19.539062 0-8.472657 5.011719-16.144532 12.773438-19.542969 2.6875-1.195313 5.59375-1.808594 8.535156-1.789063 11.78125 0 21.332031 9.550782 21.332031 21.332032zm0 0"/><path d="m418.167969 285.867188c0 11.78125-9.550781 21.332031-21.332031 21.332031-2.941407.015625-5.847657-.59375-8.535157-1.792969-7.761719-3.398438-12.773437-11.066406-12.773437-19.539062 0-8.472657 5.011718-16.144532 12.773437-19.542969 2.6875-1.195313 5.59375-1.808594 8.535157-1.789063 11.78125 0 21.332031 9.550782 21.332031 21.332032zm0 0"/></g><path d="m34.167969 285.867188c.015625 8.484374-5.015625 16.164062-12.800781 19.539062-7.761719-3.398438-12.773438-11.066406-12.773438-19.539062 0-8.472657 5.011719-16.144532 12.773438-19.542969 7.785156 3.375 12.816406 11.058593 12.800781 19.542969zm0 0" fill="#ff9801"/><path d="m401.101562 285.867188c.015626 8.484374-5.015624 16.164062-12.800781 19.539062-7.761719-3.398438-12.773437-11.066406-12.773437-19.539062 0-8.472657 5.011718-16.144532 12.773437-19.542969 7.785157 3.375 12.816407 11.058593 12.800781 19.542969zm0 0" fill="#ff9801"/><path d="m170.703125 179.199219h85.332031v85.335937h-85.332031zm0 0" fill="#ffb301"/><path d="m170.703125 179.199219h64v85.335937h-64zm0 0" fill="#fec108"/><path d="m230.433594 221.867188c0 4.710937-3.820313 8.53125-8.53125 8.53125-4.714844 0-8.535156-3.820313-8.535156-8.53125 0-4.714844 3.820312-8.535157 8.535156-8.535157 4.710937 0 8.53125 3.820313 8.53125 8.535157zm0 0"/><path d="m119.5 452.265625c0 14.140625 11.464844 25.601563 25.601562 25.601563 14.136719 0 25.601563-11.460938 25.601563-25.601563 0-14.136719-11.464844-25.597656-25.601563-25.597656-14.136718 0-25.601562 11.460937-25.601562 25.597656zm34.136719 0c0 4.714844-3.820313 8.535156-8.535157 8.535156-4.710937 0-8.535156-3.820312-8.535156-8.535156 0-4.710937 3.824219-8.53125 8.535156-8.53125 4.714844 0 8.535157 3.820313 8.535157 8.53125zm0 0"/><path d="m256.035156 452.265625c0 14.140625 11.460938 25.601563 25.601563 25.601563 14.136719 0 25.597656-11.460938 25.597656-25.601563 0-14.136719-11.460937-25.597656-25.597656-25.597656-14.140625 0-25.601563 11.460937-25.601563 25.597656zm34.132813 0c0 4.714844-3.820313 8.535156-8.53125 8.535156-4.714844 0-8.535157-3.820312-8.535157-8.535156 0-4.710937 3.820313-8.53125 8.535157-8.53125 4.710937 0 8.53125 3.820313 8.53125 8.53125zm0 0"/><path d="m29.902344 315.734375c16.496094 0 29.867187-13.371094 29.867187-29.867187-.035156-4.9375-1.308593-9.785157-3.703125-14.097657l55.875-55.875c4.875 3.039063 10.378906 4.933594 16.09375 5.535157v43.105468c.027344 7.40625 1.019532 14.777344 2.960938 21.929688-13.304688 7.175781-21.117188 21.535156-19.910156 36.605468 1.207031 15.070313 11.203124 28.007813 25.480468 32.972657v37.171875c-31.007812 4.476562-53.289062 32.148437-51.042968 63.398437 2.242187 31.25 28.25 55.457031 59.578124 55.457031 31.332032 0 57.335938-24.207031 59.578126-55.457031 2.246093-31.25-20.035157-58.921875-51.042969-63.398437v-35.128906c10.460937-1.179688 19.972656-6.621094 26.289062-15.046876 21.363281 9.125 45.523438 9.125 66.882813 0 6.316406 8.425782 15.832031 13.867188 26.292968 15.046876v35.128906c-31.007812 4.476562-53.289062 32.148437-51.046874 63.398437 2.242187 31.25 28.25 55.457031 59.582031 55.457031 31.328125 0 57.335937-24.207031 59.578125-55.457031 2.242187-31.25-20.039063-58.921875-51.046875-63.398437v-37.171875c14.277343-4.964844 24.273437-17.902344 25.480469-32.972657 1.207031-15.070312-6.601563-29.429687-19.90625-36.605468 1.9375-7.152344 2.933593-14.523438 2.960937-21.929688v-43.105468c5.714844-.601563 11.214844-2.496094 16.09375-5.535157l55.875 55.875c-2.398437 4.3125-3.671875 9.160157-3.703125 14.097657 0 16.496093 13.371094 29.867187 29.867188 29.867187 16.492187 0 29.867187-13.371094 29.867187-29.867187 0-16.496094-13.375-29.867188-29.867187-29.867188-4.9375.035156-9.78125 1.308594-14.097657 3.703125l-55.875-55.875c7.097657-11.125 7.925781-25.132813 2.1875-37.019531-5.738281-11.882813-17.222656-19.945313-30.347656-21.308594v-.433594c-.019531-6.070312-3.273437-11.667968-8.535156-14.695312v-36.503906h18.636719c4.15625 11.753906 16.175781 18.804687 28.464843 16.699218 12.289063-2.109375 21.273438-12.765625 21.273438-25.234375s-8.984375-23.121093-21.273438-25.230469c-12.289062-2.109374-24.308593 4.945313-28.464843 16.699219h-18.636719c0-42.417969-34.382813-76.800781-76.800781-76.800781-42.414063 0-76.800782 34.382812-76.800782 76.800781h-18.636718c-4.152344-11.753906-16.175782-18.808593-28.464844-16.699219-12.285156 2.109376-21.269532 12.761719-21.269532 25.230469s8.984376 23.125 21.269532 25.234375c12.289062 2.105469 24.3125-4.945312 28.464844-16.699218h18.636718v36.503906c-5.261718 3.027344-8.511718 8.625-8.53125 14.695312v.433594c-13.125 1.363281-24.609375 9.425781-30.347656 21.308594-5.738281 11.886718-4.910156 25.894531 2.1875 37.019531l-55.875 55.875c-4.316406-2.394531-9.164062-3.667969-14.097656-3.703125-16.496094 0-29.8671878 13.371094-29.8671878 29.867188 0 16.496093 13.3710938 29.867187 29.8671878 29.867187zm157.867187 136.53125c0 23.566406-19.105469 42.667969-42.667969 42.667969s-42.667968-19.101563-42.667968-42.667969c0-23.5625 19.105468-42.664063 42.667968-42.664063 23.550782.027344 42.636719 19.113282 42.667969 42.664063zm-38.402343-110.933594c-9.296876.023438-17.53125-5.996093-20.335938-14.859375-2.804688-8.863281.46875-18.523437 8.082031-23.855468 6.40625 12.777343 15.894531 23.757812 27.613281 31.941406-3.964843 4.28125-9.523437 6.734375-15.359374 6.773437zm-4.265626-76.796875v-119.46875h136.535157v119.46875c0 37.699219-30.566407 68.265625-68.269531 68.265625-37.703126 0-68.265626-30.566406-68.265626-68.265625zm8.535157-153.601562h119.464843v17.066406h-119.464843zm170.664062 341.332031c0 17.257813-10.394531 32.816406-26.339843 39.417969-15.941407 6.605468-34.292969 2.957031-46.496094-9.246094s-15.851563-30.554688-9.25-46.5c6.605468-15.941406 22.164062-26.335938 39.421875-26.335938 23.550781.027344 42.636719 19.113282 42.664062 42.664063zm-25.597656-132.265625c0 11.78125-9.550781 21.332031-21.335937 21.332031-5.835938-.039062-11.394532-2.492187-15.359376-6.773437 11.722657-8.183594 21.21875-19.160156 27.621094-31.941406 5.667969 3.980468 9.046875 10.460937 9.074219 17.382812zm110.933594-34.132812c0 7.070312-5.734375 12.800781-12.800781 12.800781-7.070313 0-12.800782-5.730469-12.800782-12.800781 0-7.070313 5.730469-12.800782 12.800782-12.800782 7.066406 0 12.800781 5.730469 12.800781 12.800782zm-93.867188-102.402344c-.003906 10.136718-7.136719 18.871094-17.066406 20.898437v-41.8125c9.9375 2.027344 17.070313 10.773438 17.066406 20.914063zm17.066407-106.664063c4.710937 0 8.53125 3.820313 8.53125 8.53125 0 4.714844-3.820313 8.535157-8.53125 8.535157-4.714844 0-8.535157-3.820313-8.535157-8.535157 0-4.710937 3.820313-8.53125 8.535157-8.53125zm-179.199219 0c0-32.992187 26.742187-59.734375 59.730469-59.734375 32.992187 0 59.734374 26.742188 59.734374 59.734375v17.066407h-119.464843zm-59.734375 17.066407c-4.714844 0-8.535156-3.820313-8.535156-8.535157 0-4.710937 3.820312-8.53125 8.535156-8.53125 4.710937 0 8.53125 3.820313 8.53125 8.53125 0 4.714844-3.820313 8.535157-8.53125 8.535157zm34.132812 68.703124v41.8125c-9.941406-2.019531-17.089844-10.761718-17.089844-20.90625 0-10.148437 7.148438-18.890624 17.089844-20.90625zm-98.132812 110.496094c7.070312 0 12.800781 5.730469 12.800781 12.800782 0 7.070312-5.730469 12.800781-12.800781 12.800781-7.070313 0-12.800782-5.730469-12.800782-12.800781 0-7.070313 5.730469-12.800782 12.800782-12.800782zm0 0"/><path d="m264.566406 264.535156v-85.335937c0-4.710938-3.820312-8.53125-8.53125-8.53125h-85.332031c-4.714844 0-8.535156 3.820312-8.535156 8.53125v85.335937c0 4.710938 3.820312 8.53125 8.535156 8.53125h85.332031c4.710938 0 8.53125-3.820312 8.53125-8.53125zm-17.066406-8.535156h-68.265625v-68.265625h68.265625zm0 0"/><path d="m204.835938 76.800781c4.710937 0 8.53125-3.820312 8.53125-8.535156v-17.066406c0-4.710938-3.820313-8.53125-8.53125-8.53125-4.714844 0-8.535157 3.820312-8.535157 8.53125v17.066406c0 4.714844 3.820313 8.535156 8.535157 8.535156zm0 0"/><path d="m238.96875 76.800781c4.710938 0 8.53125-3.820312 8.53125-8.535156v-17.066406c0-4.710938-3.820312-8.53125-8.53125-8.53125-4.714844 0-8.535156 3.820312-8.535156 8.53125v17.066406c0 4.714844 3.820312 8.535156 8.535156 8.535156zm0 0"/></svg>