<svg height="512pt" viewBox="0 0 511 512" width="512pt" xmlns="http://www.w3.org/2000/svg"><path d="m230.855469 162.132812h51.199219v132.265626h-51.199219zm0 0" fill="#6a1b9a"/><path d="m230.855469 162.132812h29.867187v132.265626h-29.867187zm0 0" fill="#9d27b0"/><path d="m333.253906 328.535156h-153.601562c0-32.992187 26.746094-59.734375 59.734375-59.734375h34.132812c32.992188 0 59.734375 26.742188 59.734375 59.734375zm0 0" fill="#ad1457"/><path d="m311.921875 328.535156h-132.269531c0-32.992187 26.746094-59.734375 59.734375-59.734375h12.800781c32.988281 0 59.734375 26.742188 59.734375 59.734375zm0 0" fill="#e91e63"/><path d="m324.722656 59.734375v41.8125h-128v-41.8125c0-4.714844 3.820313-8.535156 8.53125-8.535156h110.933594c4.710938 0 8.535156 3.820312 8.535156 8.535156zm0 0" fill="#37474f"/><path d="m303.386719 59.734375v41.8125h-106.664063v-41.8125c0-4.714844 3.820313-8.535156 8.53125-8.535156h89.601563c4.710937 0 8.53125 3.820312 8.53125 8.535156zm0 0" fill="#607d8b"/><path d="m469.789062 157.867188c0 40.058593-32.476562 72.53125-72.535156 72.53125h-67.328125c-2.878906-.003907-5.566406-1.445313-7.167969-3.839844l-9.472656-14.164063c-3.136718-4.757812-8.464844-7.613281-14.164062-7.59375h-106.667969c-5.699219-.019531-11.023437 2.835938-14.164063 7.59375l-9.472656 14.164063c-1.601562 2.394531-4.289062 3.835937-7.167968 3.839844h-43.777344c-36.675782.492187-68.167969-25.988282-73.980469-62.207032-2.398437-16.132812.792969-32.605468 9.042969-46.675781l24.320312-27.648437 32.425782-8.277344c1.964843-.171875 4.011718-.257813 5.972656-.257813h281.601562c.570313-.011719 1.140625.015625 1.707032.085938 1.449218 0 2.902343.085937 4.265624.171875h2.730469l21.164063-.257813 32.851562 36.183594c6.441406 11.03125 9.828125 23.578125 9.816406 36.351563zm0 0" fill="#ad1457"/><path d="m448.453125 157.867188c0 40.058593-32.472656 72.53125-72.53125 72.53125h-45.996094c-2.878906-.003907-5.566406-1.445313-7.167969-3.839844l-9.472656-14.164063c-3.136718-4.757812-8.464844-7.613281-14.164062-7.59375h-85.332032c-5.703124-.019531-11.027343 2.835938-14.167968 7.59375l-9.472656 14.164063c-1.597657 2.394531-4.285157 3.835937-7.167969 3.839844h-65.109375c-36.675782.492187-68.167969-25.988282-73.980469-62.207032-2.398437-16.132812.792969-32.605468 9.042969-46.675781l24.320312-27.648437 32.425782-8.277344c1.964843-.171875 4.011718-.257813 5.972656-.257813h260.269531c1.960937 0 4.007813.085938 5.972656.257813l17.066407-.171875 6.828124-.085938.167969.257813 32.683594 35.925781c6.4375 11.03125 9.828125 23.578125 9.8125 36.351563zm0 0" fill="#e91e63"/><path d="m171.121094 157.867188c.011718 10.1875-4.027344 19.964843-11.230469 27.167968-7.207031 7.203125-16.980469 11.246094-27.167969 11.230469-3.613281.011719-7.207031-.507813-10.667968-1.535156-16.382813-4.777344-27.648438-19.796875-27.648438-36.863281 0-17.066407 11.265625-32.085938 27.648438-36.863282 3.460937-1.03125 7.054687-1.546875 10.667968-1.539062 10.1875-.011719 19.960938 4.03125 27.167969 11.234375 7.203125 7.203125 11.242187 16.980469 11.230469 27.167969zm0 0" fill="#9e9e9e"/><path d="m418.585938 157.867188c.015624 10.1875-4.027344 19.964843-11.230469 27.167968s-16.980469 11.246094-27.167969 11.230469c-3.613281.011719-7.203125-.507813-10.667969-1.535156-16.382812-4.777344-27.648437-19.796875-27.648437-36.863281 0-17.066407 11.265625-32.085938 27.648437-36.863282 3.464844-1.03125 7.054688-1.546875 10.667969-1.539062 10.1875-.011719 19.964844 4.03125 27.167969 11.234375s11.246093 16.980469 11.230469 27.167969zm0 0" fill="#9e9e9e"/><path d="m154.054688 157.867188c0-20.359376-12.417969-36.863282-27.734376-36.863282-15.316406 0-27.734374 16.503906-27.734374 36.863282 0 20.359374 12.417968 36.863281 27.734374 36.863281 15.316407 0 27.734376-16.503907 27.734376-36.863281zm0 0" fill="#f5f5f5"/><path d="m401.519531 157.867188c0-20.359376-12.414062-36.863282-27.730469-36.863282-15.316406 0-27.734374 16.503906-27.734374 36.863282 0 20.359374 12.417968 36.863281 27.734374 36.863281 15.316407 0 27.730469-16.503907 27.730469-36.863281zm0 0" fill="#f5f5f5"/><path d="m107.820312 86.707031-65.050781 41.292969c-7.546875 4.761719-17.492187 2.902344-22.808593-4.265625l-.734376-.980469c-5.65625-7.542968-4.125-18.238281 3.414063-23.894531l61.535156-45.953125c3.625-2.710938 8.179688-3.871094 12.660157-3.222656 4.484374.648437 8.523437 3.050781 11.230468 6.679687l4.269532 5.742188c2.835937 3.804687 3.960937 8.617187 3.105468 13.285156-.855468 4.667969-3.617187 8.769531-7.621094 11.316406zm0 0" fill="#9d27b0"/><path d="m493.679688 122.710938-.765626 1.023437c-5.054687 6.78125-14.328124 8.820313-21.761718 4.777344-.359375-.167969-.703125-.367188-1.023438-.597657l-65.023437-41.214843c-4.027344-2.523438-6.808594-6.621094-7.667969-11.292969s.28125-9.492188 3.144531-13.285156l4.265625-5.800782c.171875-.171874.257813-.339843.429688-.511718 5.773437-7.109375 16.132812-8.386719 23.464844-2.902344l61.523437 45.996094c7.515625 5.632812 9.042969 16.289062 3.414063 23.808594zm0 0" fill="#6a1b9a"/><path d="m472.347656 126.976562-.769531 1.023438c-.167969.171875-.253906.339844-.425781.511719-.359375-.167969-.703125-.367188-1.023438-.597657l-65.023437-41.214843c-4.027344-2.523438-6.808594-6.621094-7.667969-11.292969s.28125-9.492188 3.144531-13.285156l4.265625-5.800782c.171875-.171874.257813-.339843.429688-.511718.738281.40625 1.453125.859375 2.132812 1.363281l61.523438 45.996094c7.511718 5.632812 9.039062 16.289062 3.414062 23.808593zm0 0" fill="#9d27b0"/><path d="m316.1875 46.933594c.015625 1.429687-.097656 2.859375-.339844 4.265625h-110.253906c-.242188-1.40625-.355469-2.835938-.339844-4.265625 0-18.175782 18.175782-33.367188 42.667969-37.375 4.230469-.695313 8.511719-1.039063 12.800781-1.023438 30.632813 0 55.464844 17.148438 55.464844 38.398438zm0 0" fill="#ff9801"/><path d="m290.585938 46.933594c.019531 1.429687-.09375 2.859375-.339844 4.265625h-84.652344c-.242188-1.40625-.355469-2.835938-.339844-4.265625 0-18.175782 18.175782-33.367188 42.667969-37.375 24.488281 4.007812 42.664063 19.199218 42.664063 37.375zm0 0" fill="#fec108"/><g fill="#6a1b9a"><path d="m299.121094 460.800781c0 23.5625-19.101563 42.664063-42.667969 42.664063-3.601563.027344-7.1875-.433594-10.664063-1.363282-18.820312-4.878906-31.960937-21.859374-31.960937-41.300781 0-19.441406 13.140625-36.421875 31.960937-41.300781 3.476563-.933594 7.0625-1.390625 10.664063-1.367188 23.566406 0 42.667969 19.101563 42.667969 42.667969zm0 0"/><path d="m179.652344 460.800781c0 23.5625-19.101563 42.664063-42.664063 42.664063-3.601562.027344-7.1875-.433594-10.667969-1.363282-18.816406-4.878906-31.960937-21.859374-31.960937-41.300781 0-19.441406 13.144531-36.421875 31.960937-41.300781 3.480469-.933594 7.066407-1.390625 10.667969-1.367188 23.5625 0 42.664063 19.101563 42.664063 42.667969zm0 0"/><path d="m418.585938 460.800781c0 23.5625-19.101563 42.664063-42.664063 42.664063-3.601563.027344-7.1875-.433594-10.667969-1.363282-18.816406-4.878906-31.960937-21.859374-31.960937-41.300781 0-19.441406 13.144531-36.421875 31.960937-41.300781 3.480469-.933594 7.066406-1.390625 10.667969-1.367188 23.5625 0 42.664063 19.101563 42.664063 42.667969zm0 0"/></g><path d="m277.789062 460.800781c0-22.8125-14.328124-41.300781-32-41.300781-17.675781 0-32 18.488281-32 41.300781 0 22.808594 14.324219 41.300781 32 41.300781 17.671876 0 32-18.492187 32-41.300781zm0 0" fill="#9d27b0"/><path d="m158.320312 460.800781c0-22.8125-14.328124-41.300781-32-41.300781-17.671874 0-32 18.488281-32 41.300781 0 22.808594 14.328126 41.300781 32 41.300781 17.671876 0 32-18.492187 32-41.300781zm0 0" fill="#9d27b0"/><path d="m397.253906 460.800781c0-22.8125-14.328125-41.300781-32-41.300781s-32 18.488281-32 41.300781c0 22.808594 14.328125 41.300781 32 41.300781s32-18.492187 32-41.300781zm0 0" fill="#9d27b0"/><path d="m75.121094 315.734375c.019531 12.972656-7.78125 24.675781-19.761719 29.652344-11.980469 4.972656-25.78125 2.234375-34.953125-6.9375-9.171875-9.175781-11.914062-22.972657-6.9375-34.953125 4.972656-11.980469 16.679688-19.785156 29.652344-19.761719 17.671875.003906 31.996094 14.328125 32 32zm0 0" fill="#ff9801"/><path d="m501.789062 315.734375c.019532 12.972656-7.78125 24.675781-19.765624 29.652344-11.980469 4.972656-25.777344 2.234375-34.949219-6.9375-9.175781-9.175781-11.914063-22.972657-6.941407-34.953125 4.976563-11.980469 16.683594-19.785156 29.65625-19.761719 17.667969.003906 31.992188 14.328125 32 32zm0 0" fill="#ff9801"/><path d="m49.519531 315.734375c0-16.214844-8.59375-29.355469-19.199219-29.355469-10.601562 0-19.199218 13.140625-19.199218 29.355469 0 16.210937 8.597656 29.355469 19.199218 29.355469 10.605469 0 19.199219-13.144532 19.199219-29.355469zm0 0" fill="#fec108"/><path d="m476.1875 315.734375c0-16.214844-8.597656-29.355469-19.199219-29.355469-10.605469 0-19.199219 13.140625-19.199219 29.355469 0 16.210937 8.59375 29.355469 19.199219 29.355469 10.601563 0 19.199219-13.144532 19.199219-29.355469zm0 0" fill="#fec108"/><path d="m427.121094 356.949219v9.984375c-.027344 9.414062-7.652344 17.039062-17.066406 17.066406h-307.199219c-9.414063-.027344-17.039063-7.652344-17.066407-17.066406v-9.984375c0-4.546875 1.8125-8.90625 5.03125-12.117188l15.53125-15.53125c.269532-.304687.585938-.566406.941407-.765625 3.066406-2.761718 7.050781-4.28125 11.175781-4.269531h275.96875c4.546875.003906 8.90625 1.816406 12.117188 5.035156l15.53125 15.53125c3.222656 3.210938 5.03125 7.570313 5.035156 12.117188zm0 0" fill="#ad1457"/><path d="m405.789062 361.214844v9.984375c-.003906 4.921875-2.152343 9.597656-5.890624 12.800781h-297.042969c-9.414063-.027344-17.039063-7.652344-17.066407-17.066406v-9.984375c0-4.546875 1.8125-8.90625 5.03125-12.117188l15.53125-15.53125c.269532-.304687.585938-.566406.941407-.765625h265.8125c4.546875 0 8.90625 1.8125 12.117187 5.03125l15.53125 15.53125c3.21875 3.210938 5.03125 7.570313 5.035156 12.117188zm0 0" fill="#e91e63"/><path d="m384.453125 162.132812c0 4.714844-3.820313 8.535157-8.53125 8.535157-4.714844 0-8.535156-3.820313-8.535156-8.535157 0-4.710937 3.820312-8.53125 8.535156-8.53125 4.710937 0 8.53125 3.820313 8.53125 8.53125zm0 0"/><path d="m145.519531 162.132812c0 4.714844-3.820312 8.535157-8.53125 8.535157-4.714843 0-8.535156-3.820313-8.535156-8.535157 0-4.710937 3.820313-8.53125 8.535156-8.53125 4.710938 0 8.53125 3.820313 8.53125 8.53125zm0 0"/><path d="m145.519531 460.800781c0 4.710938-3.820312 8.53125-8.53125 8.53125-4.714843 0-8.535156-3.820312-8.535156-8.53125 0-4.714843 3.820313-8.535156 8.535156-8.535156 4.710938 0 8.53125 3.820313 8.53125 8.535156zm0 0"/><path d="m264.988281 460.800781c0 4.710938-3.820312 8.53125-8.535156 8.53125-4.710937 0-8.53125-3.820312-8.53125-8.53125 0-4.714843 3.820313-8.535156 8.53125-8.535156 4.714844 0 8.535156 3.820313 8.535156 8.535156zm0 0"/><path d="m384.453125 460.800781c0 4.710938-3.820313 8.53125-8.53125 8.53125-4.714844 0-8.535156-3.820312-8.535156-8.53125 0-4.714843 3.820312-8.535156 8.535156-8.535156 4.710937 0 8.53125 3.820313 8.53125 8.535156zm0 0"/><path d="m132.722656 110.933594c-25.921875 0-46.933594 21.011718-46.933594 46.933594 0 25.921874 21.011719 46.933593 46.933594 46.933593 25.917969 0 46.929688-21.011719 46.929688-46.933593-.027344-25.910157-21.023438-46.90625-46.929688-46.933594zm0 76.800781c-16.496094 0-29.867187-13.371094-29.867187-29.867187 0-16.496094 13.371093-29.867188 29.867187-29.867188 16.492188 0 29.863282 13.371094 29.863282 29.867188 0 16.496093-13.371094 29.867187-29.863282 29.867187zm0 0"/><path d="m380.1875 204.800781c25.921875 0 46.933594-21.011719 46.933594-46.933593 0-25.921876-21.011719-46.933594-46.933594-46.933594s-46.933594 21.011718-46.933594 46.933594c.027344 25.910156 21.023438 46.90625 46.933594 46.933593zm0-76.800781c16.496094 0 29.867188 13.371094 29.867188 29.867188 0 16.496093-13.371094 29.867187-29.867188 29.867187s-29.867188-13.371094-29.867188-29.867187c0-16.496094 13.371094-29.867188 29.867188-29.867188zm0 0"/><path d="m205.253906 460.800781c0 28.277344 22.921875 51.199219 51.199219 51.199219s51.199219-22.921875 51.199219-51.199219c0-28.277343-22.921875-51.199219-51.199219-51.199219-28.265625.027344-51.171875 22.933594-51.199219 51.199219zm85.332032 0c0 18.851563-15.28125 34.132813-34.132813 34.132813s-34.132813-15.28125-34.132813-34.132813c0-18.851562 15.28125-34.132812 34.132813-34.132812s34.132813 15.28125 34.132813 34.132812zm0 0"/><path d="m85.789062 460.800781c0 28.277344 22.921876 51.199219 51.199219 51.199219 28.277344 0 51.199219-22.921875 51.199219-51.199219 0-28.277343-22.921875-51.199219-51.199219-51.199219-28.265625.027344-51.171875 22.933594-51.199219 51.199219zm85.332032 0c0 18.851563-15.28125 34.132813-34.132813 34.132813-18.851562 0-34.132812-15.28125-34.132812-34.132813 0-18.851562 15.28125-34.132812 34.132812-34.132812 18.851563 0 34.132813 15.28125 34.132813 34.132812zm0 0"/><path d="m324.722656 460.800781c0 28.277344 22.921875 51.199219 51.199219 51.199219s51.199219-22.921875 51.199219-51.199219c0-28.277343-22.921875-51.199219-51.199219-51.199219-28.265625.027344-51.171875 22.933594-51.199219 51.199219zm85.332032 0c0 18.851563-15.28125 34.132813-34.132813 34.132813s-34.132813-15.28125-34.132813-34.132813c0-18.851562 15.28125-34.132812 34.132813-34.132812s34.132813 15.28125 34.132813 34.132812zm0 0"/><path d="m17.757812 293.101562c-7.988281 8.808594-10.769531 21.164063-7.320312 32.542969 3.445312 11.382813 12.617188 20.117188 24.148438 23.011719v9.742188c0 9.425781 7.640624 17.066406 17.066406 17.066406h27.171875c3.601562 10.195312 13.21875 17.023437 24.03125 17.070312h307.199219c10.808593-.046875 20.425781-6.875 24.027343-17.070312h27.171875c9.425782 0 17.066406-7.640625 17.066406-17.066406v-9.742188c11.535157-2.894531 20.703126-11.628906 24.152344-23.011719 3.445313-11.378906.664063-23.734375-7.324218-32.542969l15.871093-23.839843c2.253907-3.382813 1.808594-7.886719-1.066406-10.761719l-17.066406-17.066406c-3.347657-3.234375-8.671875-3.1875-11.960938.105468-3.292969 3.289063-3.339843 8.613282-.105469 11.960938l12.125 12.125-11.988281 18.007812c-7.199219-2.710937-15.140625-2.710937-22.339843 0l-11.988282-18.007812 12.125-12.125c3.234375-3.347656 3.1875-8.671875-.105468-11.960938-3.289063-3.292968-8.613282-3.339843-11.960938-.105468l-17.066406 17.066406c-2.871094 2.875-3.320313 7.378906-1.066406 10.761719l15.871093 23.839843c-7.988281 8.808594-10.769531 21.164063-7.320312 32.542969 3.445312 11.382813 12.613281 20.117188 24.148437 23.011719v9.742188h-25.601562v-1.457032c.023437-6.796875-2.679688-13.316406-7.5-18.109375l-15.597656-15.597656c-4.789063-4.820313-11.304688-7.519531-18.097657-7.5h-53.257812c-3.546875-27.703125-23.582031-50.460937-50.613281-57.488281v-44.914063h8.535156c2.851562 0 5.515625 1.425781 7.097656 3.796875l9.464844 14.203125c3.15625 4.734375 8.464844 7.585938 14.15625 7.601563h67.414062c24.882813.140625 48.4375-11.214844 63.820313-30.777344 15.382812-19.558594 20.871093-45.128906 14.867187-69.277344 1.082032.148438 2.171875.226563 3.265625.230469 8.085938.023437 15.707031-3.769531 20.558594-10.238281l.777344-1.035156c4.066406-5.4375 5.804687-12.269532 4.832031-18.992188-.96875-6.722656-4.570312-12.78125-10.011719-16.847656l-61.527343-45.917969c-5.4375-4.066406-12.269532-5.804687-18.992188-4.832031-6.722656.96875-12.78125 4.574218-16.847656 10.011718l-4.265625 5.746094c-4.222657 5.671875-5.921875 12.832032-4.695313 19.796875h-55.78125v-17.066406c-.023437-6.121094-3.328125-11.757813-8.660156-14.765625-1.375-25.34375-28.886719-44.96875-63.871094-44.96875-34.988281 0-62.5 19.625-63.875 44.96875-5.332031 3.007812-8.636718 8.644531-8.660156 14.765625v17.066406h-64.316406c1.238281-6.972656-.453125-14.152343-4.683594-19.832031l-4.292969-5.769531c-4.066406-5.441407-10.125-9.042969-16.847656-10.015625-6.722656-.96875-13.554687.769531-18.992187 4.835937l-61.535157 46.003907c-5.4375 4.066406-9.035156 10.128906-10.003906 16.851562-.96875 6.71875.773437 13.550781 4.84375 18.988281l.734375.980469c4.871094 6.488281 12.527344 10.289062 20.640625 10.25 1.0625-.007812 2.128906-.082031 3.183594-.222656-2.417969 9.988281-2.921875 20.347656-1.476563 30.523437 6.460938 40.386719 41.507813 69.960938 82.40625 69.539063h65.21875c5.707032 0 11.035156-2.855469 14.199219-7.601563l9.464844-14.203125c1.574219-2.359375 4.21875-3.78125 7.058593-3.796875h8.53125v44.914063c-27.027343 7.027344-47.066406 29.785156-50.609374 57.488281h-53.257813c-6.792969-.019531-13.3125 2.679687-18.097656 7.5l-15.601563 15.597656c-4.816406 4.792969-7.515625 11.3125-7.5 18.109375v1.457032h-25.601562v-9.742188c11.535156-2.894531 20.703125-11.628906 24.152344-23.011719 3.445312-11.378906.667968-23.734375-7.324219-32.542969l15.875-23.839843c2.25-3.382813 1.804687-7.886719-1.066407-10.761719l-17.070312-17.066406c-3.347656-3.234375-8.667969-3.1875-11.960938.105468-3.292968 3.289063-3.335937 8.613282-.101562 11.960938l12.125 12.125-11.992188 18.007812c-3.578124-1.304687-7.355468-1.992187-11.167968-2.03125-3.8125.039063-7.589844.726563-11.171875 2.03125l-11.945313-18.007812 12.125-12.125c3.234375-3.347656 3.1875-8.671875-.101562-11.960938-3.292969-3.292968-8.617188-3.339843-11.964844-.105468l-17.066406 17.066406c-2.871094 2.875-3.316406 7.378906-1.066406 10.761719zm434.964844 22.632813c0-9.425781 7.640625-17.066406 17.066406-17.066406 9.425782 0 17.066407 7.640625 17.066407 17.066406s-7.640625 17.066406-17.066407 17.066406c-9.425781 0-17.066406-7.640625-17.066406-17.066406zm-45.332031-248.542969 4.269531-5.742187c2.824219-3.769531 8.175782-4.535157 11.945313-1.707031l61.523437 45.96875c3.773438 2.828124 4.535156 8.175781 1.707032 11.945312l-.785157 1.035156c-2.671875 3.566406-7.636719 4.476563-11.398437 2.089844l-65-41.277344c-2.003906-1.273437-3.390625-3.324218-3.820313-5.660156-.429687-2.339844.136719-4.75 1.558594-6.652344zm-146.667969-50.125c23.167969 0 43.066406 11.347656 46.429688 25.601563h-92.863282c3.363282-14.253907 23.265626-25.601563 46.433594-25.601563zm-55.46875 42.667969h110.933594v17.066406h-110.933594zm-178.472656 58.878906-.726562-.972656c-1.359376-1.8125-1.941407-4.085937-1.621094-6.328125.320312-2.238281 1.515625-4.261719 3.328125-5.617188l61.523437-45.960937c1.8125-1.359375 4.085938-1.941406 6.328125-1.621094 2.238281.320313 4.261719 1.515625 5.621094 3.328125l4.265625 5.742188c1.421875 1.902344 1.984375 4.316406 1.554688 6.652344-.429688 2.335937-1.816407 4.386718-3.824219 5.660156l-65.023438 41.25c-3.785156 2.367187-8.753906 1.441406-11.425781-2.132813zm165.671875 89.054688-9.386719 14.199219h-65.21875c-32.417968.46875-60.300781-22.859376-65.554687-54.851563-1.949219-13.632813.59375-27.53125 7.246093-39.585937l52.703126-33.417969c1.132812-.058594 2.277343-.144531 3.410156-.144531h281.601562c1.125 0 2.269532.085937 3.414063.144531l52.761719 33.449219c10.765624 19.804687 10.300781 43.816406-1.226563 63.1875-11.527344 19.371093-32.40625 31.234374-54.949219 31.21875h-67.414062l-9.386719-14.199219c-4.753906-7.132813-12.761719-11.410157-21.332031-11.402344h-85.332032c-8.574218-.007813-16.582031 4.269531-21.335937 11.402344zm46.933594 5.664062h34.132812v42.667969h-34.132812zm0 59.734375h34.132812c24.976563.03125 46.296875 18.046875 50.492188 42.667969h-135.117188c4.199219-24.621094 25.519531-42.636719 50.492188-42.667969zm-145.066407 83.875c0-2.265625.898438-4.441406 2.5-6.042968l15.601563-15.597657c1.601563-1.59375 3.769531-2.492187 6.03125-2.5h276.003906c2.257813.007813 4.425781.90625 6.03125 2.5l15.597657 15.597657c1.605468 1.601562 2.503906 3.777343 2.5 6.042968v9.992188c0 4.710937-3.820313 8.53125-8.53125 8.53125h-307.199219c-4.714844 0-8.535157-3.820313-8.535157-8.53125zm-34.132812-41.207031c0 9.425781-7.640625 17.066406-17.066406 17.066406-9.425782 0-17.066406-7.640625-17.066406-17.066406s7.640624-17.066406 17.066406-17.066406c9.425781 0 17.066406 7.640625 17.066406 17.066406zm0 0"/><path d="m239.386719 136.535156h34.132812c4.714844 0 8.535157-3.824218 8.535157-8.535156s-3.820313-8.535156-8.535157-8.535156h-34.132812c-4.710938 0-8.53125 3.824218-8.53125 8.535156s3.820312 8.535156 8.53125 8.535156zm0 0"/></svg>