<svg height="512pt" viewBox="0 0 512.10557 512" width="512pt" xmlns="http://www.w3.org/2000/svg"><path d="m145.066406 102.453125c0 9.425781-7.640625 17.066406-17.066406 17.066406s-17.066406-7.640625-17.066406-17.066406 7.640625-17.066406 17.066406-17.066406 17.066406 7.640625 17.066406 17.066406zm0 0" fill="#e91e63"/><path d="m503.464844 102.453125c0 9.425781-7.640625 17.066406-17.066406 17.066406-9.425782 0-17.066407-7.640625-17.066407-17.066406s7.640625-17.066406 17.066407-17.066406c9.425781 0 17.066406 7.640625 17.066406 17.066406zm0 0" fill="#e91e63"/><path d="m384 335.925781 25.515625 16.640625 25.769531-30.210937-51.285156-52.820313-4.863281-4.949218zm0 0" fill="#6a1b9a"/><path d="m384 226.015625v192.171875c-.003906 5.179688-1.582031 10.238281-4.523438 14.503906l-75.605468 11.09375h-70.144532l-83.371093-.253906c-12.789063-1.582031-22.382813-12.460938-22.355469-25.34375v-204.289062c.070312-28.53125 23.179688-51.640626 51.710938-51.710938zm0 0" fill="#4527a0"/><path d="m362.667969 226.015625v192.171875c-.007813 5.179688-1.582031 10.238281-4.523438 14.503906l-75.605469 11.09375h-48.8125l-83.371093-.253906c-12.789063-1.582031-22.382813-12.460938-22.355469-25.34375v-204.289062c-.023438-22.941407 15.101562-43.140626 37.121094-49.578126zm0 0" fill="#673ab7"/><path d="m435.199219 47.070312v106.582032c0 42.414062-34.382813 76.800781-76.800781 76.800781h-102.398438c-42.414062 0-76.800781-34.386719-76.800781-76.800781v-106.582032c.003906-21.25 17.234375-38.480468 38.484375-38.484374h179.03125c21.253906.003906 38.480468 17.234374 38.484375 38.484374zm0 0" fill="#6a1b9a"/><path d="m413.867188 47.070312v106.582032c0 42.414062-34.386719 76.800781-76.800782 76.800781h-81.066406c-42.414062 0-76.800781-34.386719-76.800781-76.800781v-106.582032c.003906-21.25 17.234375-38.480468 38.484375-38.484374h157.695312c21.253906.003906 38.484375 17.234374 38.488282 38.484374zm0 0" fill="#9d27b0"/><path d="m290.132812 98.1875c.011719 10.1875-4.027343 19.960938-11.230468 27.167969-7.207032 7.203125-16.980469 11.246093-27.167969 11.230469-2.871094-.007813-5.730469-.320313-8.535156-.9375-17.515625-3.945313-29.960938-19.507813-29.960938-37.460938 0-17.957031 12.445313-33.515625 29.960938-37.460938 2.804687-.617187 5.664062-.933593 8.535156-.941406 10.1875-.011718 19.960937 4.027344 27.167969 11.234375 7.203125 7.203125 11.242187 16.976563 11.230468 27.167969zm0 0" fill="#9e9e9e"/><path d="m401.066406 98.1875c.011719 10.1875-4.027344 19.960938-11.230468 27.167969-7.207032 7.203125-16.980469 11.246093-27.167969 11.230469-2.871094-.007813-5.730469-.320313-8.535157-.9375-17.515624-3.945313-29.960937-19.507813-29.960937-37.460938 0-17.957031 12.445313-33.515625 29.960937-37.460938 2.804688-.617187 5.664063-.933593 8.535157-.941406 10.1875-.011718 19.960937 4.027344 27.167969 11.234375 7.203124 7.203125 11.242187 16.976563 11.230468 27.167969zm0 0" fill="#9e9e9e"/><path d="m273.066406 98.1875c0-20.691406-13.371094-37.460938-29.867187-37.460938-16.496094 0-29.867188 16.769532-29.867188 37.460938 0 20.6875 13.371094 37.460938 29.867188 37.460938 16.496093 0 29.867187-16.773438 29.867187-37.460938zm0 0" fill="#f5f5f5"/><path d="m384 98.1875c0-20.691406-13.371094-37.460938-29.867188-37.460938-16.496093 0-29.867187 16.769532-29.867187 37.460938 0 20.6875 13.371094 37.460938 29.867187 37.460938 16.496094 0 29.867188-16.773438 29.867188-37.460938zm0 0" fill="#f5f5f5"/><path d="m238.933594 465.121094v4.265625h-93.867188v-4.265625c-.03125-21.8125 15.011719-40.753906 36.265625-45.65625 3.492188-.859375 7.074219-1.289063 10.667969-1.277344 25.921875 0 46.933594 21.011719 46.933594 46.933594zm0 0" fill="#ad1457"/><path d="m392.53125 465.121094v4.265625h-93.863281v-4.265625c-.035157-21.8125 15.011719-40.753906 36.265625-45.65625 3.488281-.859375 7.070312-1.289063 10.664062-1.277344 25.921875 0 46.933594 21.011719 46.933594 46.933594zm0 0" fill="#ad1457"/><path d="m217.597656 465.121094v4.265625h-72.53125v-4.265625c-.03125-21.8125 15.011719-40.753906 36.265625-45.65625 8.535157 1.941406 16.347657 6.261718 22.527344 12.460937 8.800781 8.804688 13.746094 20.746094 13.738281 33.195313zm0 0" fill="#e91e63"/><path d="m371.199219 465.121094v4.265625h-72.53125v-4.265625c-.035157-21.8125 15.011719-40.753906 36.265625-45.65625 8.535156 1.941406 16.347656 6.261718 22.527344 12.460937 8.800781 8.804688 13.742187 20.746094 13.738281 33.195313zm0 0" fill="#e91e63"/><path d="m384 264.585938v93.867187h-128c-9.414062-.027344-17.039062-7.652344-17.066406-17.066406v-59.734375c.027344-9.414063 7.652344-17.039063 17.066406-17.066406zm0 0" fill="#ad1457"/><path d="m362.667969 264.585938v93.867187h-106.667969c-9.414062-.027344-17.039062-7.652344-17.066406-17.066406v-59.734375c.027344-9.414063 7.652344-17.039063 17.066406-17.066406zm0 0" fill="#e91e63"/><path d="m87.464844 312.714844c4.59375-.304688 8.859375-2.5 11.777344-6.058594l14.761718-17.75c3.59375-4.820312 8.429688-8.566406 13.996094-10.835938 1.71875-.644531 3.539062-.960937 5.375-.941406 6.574219.632813 13.019531 2.242188 19.113281 4.78125 6.941407 2.601563 14.769531.429688 19.371094-5.378906l.769531-.9375c3.324219-4.191406 4.492188-9.703125 3.152344-14.882812-1.34375-5.179688-5.035156-9.433594-9.980469-11.484376-10.167969-4.015624-20.980469-6.15625-31.914062-6.316406-1.96875-.003906-3.933594.109375-5.886719.34375-16.101562 2.203125-30.625 10.820313-40.277344 23.890625l-14.679687 17.75c-3.507813 4.191407-4.777344 9.8125-3.410157 15.105469zm0 0" fill="#9d27b0"/><path d="m91.902344 338.398438c-8.535156 13.035156-25.25 17.984374-39.507813 11.691406-1.683593-.636719-3.289062-1.464844-4.777343-2.472656-14.757813-9.738282-18.878907-29.566407-9.21875-44.375 3.402343-5.199219 8.273437-9.269532 13.996093-11.691407 12.96875-5.691406 28.132813-2.167969 37.261719 8.65625 9.132812 10.828125 10.046875 26.371094 2.246094 38.191407zm0 0" fill="#ad1457"/><path d="m463.359375 362.035156c-7.453125 15.386719-25.726563 22.128906-41.386719 15.277344-.085937-.085938-.085937-.085938-.085937 0-.425781-.171875-.851563-.425781-1.277344-.597656-11.191406-5.496094-18.179687-16.976563-17.925781-29.4375.257812-12.460938 7.714844-23.644532 19.117187-28.675782h.085938c12.300781-5.367187 26.648437-2.480468 35.914062 7.226563 9.269531 9.707031 11.488281 24.167969 5.558594 36.207031zm0 0" fill="#ad1457"/><path d="m66.304688 338.398438c-3.371094 5.195312-8.214844 9.265624-13.910157 11.691406-1.683593-.636719-3.289062-1.464844-4.777343-2.472656-14.757813-9.738282-18.878907-29.566407-9.21875-44.375 3.402343-5.199219 8.273437-9.269532 13.996093-11.691407 1.667969.703125 3.269531 1.558594 4.777344 2.5625 7.089844 4.65625 12.035156 11.941407 13.75 20.25 1.710937 8.308594.050781 16.953125-4.617187 24.035157zm0 0" fill="#e91e63"/><path d="m437.757812 362.035156c-3.285156 6.800782-8.878906 12.214844-15.785156 15.277344-.085937-.085938-.085937-.085938-.085937 0-.425781-.171875-.851563-.425781-1.277344-.597656-11.191406-5.496094-18.179687-16.976563-17.925781-29.4375.257812-12.460938 7.714844-23.644532 19.117187-28.675782h.085938c.425781.171876.855469.425782 1.28125.597657 15.859375 7.800781 22.390625 26.980469 14.589843 42.835937zm0 0" fill="#e91e63"/><path d="m247.464844 482.1875c-.066406 9.394531-7.667969 16.996094-17.066406 17.066406h-76.800782c-9.414062-.027344-17.035156-7.652344-17.066406-17.066406.070312-9.398438 7.671875-17 17.066406-17.066406h76.800782c9.414062.027344 17.039062 7.652344 17.066406 17.066406zm0 0" fill="#6a1b9a"/><path d="m401.066406 482.1875c-.070312 9.394531-7.671875 16.996094-17.066406 17.066406h-76.800781c-9.414063-.027344-17.039063-7.652344-17.066407-17.066406.070313-9.398438 7.671876-17 17.066407-17.066406h76.800781c9.414062.027344 17.039062 7.652344 17.066406 17.066406zm0 0" fill="#6a1b9a"/><path d="m226.132812 482.1875c-.070312 9.394531-7.671874 16.996094-17.066406 17.066406h-55.46875c-9.414062-.027344-17.035156-7.652344-17.066406-17.066406.070312-9.398438 7.671875-17 17.066406-17.066406h55.46875c9.414063.027344 17.039063 7.652344 17.066406 17.066406zm0 0" fill="#9d27b0"/><path d="m379.734375 482.1875c-.070313 9.394531-7.671875 16.996094-17.066406 17.066406h-55.46875c-9.414063-.027344-17.039063-7.652344-17.066407-17.066406.070313-9.398438 7.671876-17 17.066407-17.066406h55.46875c9.414062.027344 17.035156 7.652344 17.066406 17.066406zm0 0" fill="#9d27b0"/><path d="m264.53125 102.453125c0 4.710937-3.820312 8.53125-8.53125 8.53125-4.714844 0-8.535156-3.820313-8.535156-8.53125 0-4.714844 3.820312-8.535156 8.535156-8.535156 4.710938 0 8.53125 3.820312 8.53125 8.535156zm0 0"/><path d="m366.933594 102.453125c0 4.710937-3.820313 8.53125-8.535156 8.53125-4.710938 0-8.53125-3.820313-8.53125-8.53125 0-4.714844 3.820312-8.535156 8.53125-8.535156 4.714843 0 8.535156 3.820312 8.535156 8.535156zm0 0"/><path d="m358.398438 315.785156c0 4.714844-3.820313 8.535156-8.53125 8.535156-4.714844 0-8.535157-3.820312-8.535157-8.535156 0-4.710937 3.820313-8.53125 8.535157-8.53125 4.710937 0 8.53125 3.820313 8.53125 8.53125zm0 0"/><path d="m251.734375 145.121094c25.917969 0 46.933594-21.015625 46.933594-46.933594 0-25.921875-21.015625-46.933594-46.933594-46.933594-25.921875 0-46.933594 21.011719-46.933594 46.933594.027344 25.90625 21.023438 46.902344 46.933594 46.933594zm0-76.800782c16.492187 0 29.863281 13.371094 29.863281 29.867188 0 16.492188-13.371094 29.867188-29.863281 29.867188-16.496094 0-29.867187-13.375-29.867187-29.867188 0-16.496094 13.371093-29.867188 29.867187-29.867188zm0 0"/><path d="m362.667969 145.121094c25.917969 0 46.929687-21.015625 46.929687-46.933594 0-25.921875-21.011718-46.933594-46.929687-46.933594-25.921875 0-46.933594 21.011719-46.933594 46.933594.027344 25.90625 21.023437 46.902344 46.933594 46.933594zm0-76.800782c16.492187 0 29.863281 13.371094 29.863281 29.867188 0 16.492188-13.371094 29.867188-29.863281 29.867188-16.496094 0-29.867188-13.375-29.867188-29.867188 0-16.496094 13.371094-29.867188 29.867188-29.867188zm0 0"/><path d="m290.132812 170.71875h-25.601562c-4.710938 0-8.53125 3.820312-8.53125 8.535156 0 4.710938 3.820312 8.53125 8.53125 8.53125h25.601562c4.710938 0 8.535157-3.820312 8.535157-8.53125 0-4.714844-3.824219-8.535156-8.535157-8.535156zm0 0"/><path d="m5.066406 370.261719c.957032 4.617187 5.472656 7.585937 10.089844 6.632812 4.613281-.957031 7.582031-5.472656 6.628906-10.085937l-3.472656-16.796875 19.875-8.453125c4.570312 6.195312 11.191406 10.566406 18.6875 12.335937l.136719 21.546875-16.792969 3.492188c-4.277344.890625-7.191406 4.867187-6.753906 9.210937.441406 4.347657 4.089844 7.660157 8.457031 7.675781.574219 0 1.148437-.058593 1.707031-.179687l23.640625-4.890625c3.988281-.8125 6.847657-4.332031 6.824219-8.402344l-.179688-28.632812c17.585938-4.550782 28.441407-22.171875 24.59375-39.925782 2.761719-1.515624 5.222657-3.523437 7.261719-5.921874l13.695313-16.445313v126.765625c.019531 13.144531 7.613281 25.105469 19.5 30.71875-1.609375 5.253906-2.429688 10.71875-2.433594 16.214844v2.386718c-7.910156 7.054688-10.632812 18.265626-6.84375 28.164063 3.792969 9.898437 13.3125 16.417969 23.910156 16.382813h76.800782c10.601562.035156 20.121093-6.484376 23.910156-16.382813 3.792968-9.898437 1.070312-21.109375-6.84375-28.164063v-2.386718c-.011719-4.3125-.535156-8.609375-1.550782-12.800782h45.773438c-1.019531 4.191407-1.539062 8.488282-1.554688 12.800782v2.386718c-7.910156 7.054688-10.636718 18.265626-6.84375 28.164063 3.792969 9.898437 13.3125 16.417969 23.910157 16.382813h76.800781c10.597656.035156 20.117188-6.484376 23.910156-16.382813 3.792969-9.898437 1.066406-21.109375-6.84375-28.164063v-2.386718c-.007812-12.121094-4.003906-23.902344-11.375-33.519532 1.851563-4.230468 2.816406-8.796874 2.839844-13.414062v-66.511719l9.566406 6.238281c.113282.359376.136719.726563.257813 1.078126 5.679687 17.257812 24.050781 26.875 41.472656 21.714843l14.410156 24.679688c1.523438 2.632812 4.332031 4.261719 7.375 4.265625.941407-.003906 1.878907-.15625 2.773438-.460938l22.824219-7.816406c2.914062-.964844 5.085937-3.417969 5.6875-6.429688.601562-3.011718-.460938-6.113281-2.78125-8.121093-2.320313-2.011719-5.539063-2.617188-8.433594-1.59375l-16.214844 5.554687-10.886719-18.679687c5.574219-5.304688 9.0625-12.429688 9.835938-20.085938l21.421875-2.832031 5.554687 16.210938c.9375 2.945312 3.394531 5.152343 6.425781 5.769531 3.027344.617187 6.152344-.453125 8.171876-2.792969 2.015624-2.34375 2.605468-5.59375 1.546874-8.496094l-7.816406-22.835937c-1.316406-3.84375-5.164062-6.222657-9.191406-5.691407l-28.390625 3.753907c-3.085937-7.765625-8.941406-14.113281-16.433594-17.816407-3.265625-1.546874-6.753906-2.566406-10.335937-3.023437l-46.839844-48.1875v-34.269531c31.066406-13.582032 51.160156-44.25 51.203125-78.15625v-42.667969h18.636719c4.15625 11.757813 16.175781 18.808594 28.464844 16.699219 12.289062-2.109375 21.269531-12.761719 21.269531-25.230469s-8.980469-23.125-21.269531-25.230469c-12.289063-2.109375-24.308594 4.941406-28.464844 16.695313h-18.636719v-46.8125c-.035156-25.972657-21.082031-47.0195315-47.054687-47.0507815h-178.960938c-25.972656.03125-47.019531 21.0781245-47.050781 47.0507815v46.8125h-18.636719c-4.15625-11.753907-16.179688-18.804688-28.464844-16.695313-12.289062 2.105469-21.273437 12.761719-21.273437 25.230469s8.984375 23.121094 21.273437 25.230469c12.285156 2.109375 24.308594-4.941406 28.464844-16.699219h18.636719v42.667969.75c-29.410157 4.480468-51.152344 29.746094-51.203125 59.496094v17.996093c-15.234375 4.066407-28.703125 13.046875-38.3125 25.550781l-14.59375 17.6875c-2.84375 3.441407-4.722656 7.582032-5.433594 11.988282-.941406.113281-1.886719.113281-2.824219.300781-17.730469 3.613281-29.496093 20.519531-26.71875 38.398437l-26.394531 11.222657c-3.738281 1.59375-5.835938 5.601562-5.007812 9.582031zm481.332032-276.34375c4.714843 0 8.535156 3.820312 8.535156 8.535156 0 4.710937-3.820313 8.53125-8.535156 8.53125-4.710938 0-8.53125-3.820313-8.53125-8.53125 0-4.714844 3.820312-8.535156 8.53125-8.535156zm-358.398438 17.066406c-4.714844 0-8.535156-3.820313-8.535156-8.53125 0-4.714844 3.820312-8.535156 8.535156-8.535156 4.710938 0 8.53125 3.820312 8.53125 8.535156 0 4.710937-3.820312 8.53125-8.53125 8.53125zm97.859375 336.105469c0 .109375.144531.195312.195313.304687 2.195312 4.191407 3.589843 8.757813 4.113281 13.457031h-76.339844c.523437-4.625 1.882813-9.117187 4.019531-13.25l.078125-.179687c6.582031-12.636719 19.621094-20.585937 33.867188-20.65625 14.246093-.070313 27.359375 7.753906 34.066406 20.324219zm4.539063 47.894531h-76.800782c-4.710937 0-8.53125-3.820313-8.53125-8.53125 0-4.714844 3.820313-8.535156 8.53125-8.535156h76.800782c4.714843 0 8.535156 3.820312 8.535156 8.535156 0 4.710937-3.820313 8.53125-8.535156 8.53125zm145.066406-221.863281v76.796875h-119.464844c-4.714844 0-8.535156-3.820313-8.535156-8.53125v-59.734375c0-4.710938 3.820312-8.53125 8.535156-8.53125zm8.304687 187.730468h-76.339843c.523437-4.695312 1.917968-9.25 4.105468-13.4375.050782-.121093.152344-.207031.203125-.324218 7.921875-14.832032 24.566407-22.789063 41.082031-19.632813 16.515626 3.15625 29.054688 16.6875 30.949219 33.394531zm.230469 34.132813h-76.800781c-4.710938 0-8.53125-3.820313-8.53125-8.53125 0-4.714844 3.820312-8.535156 8.53125-8.535156h76.800781c4.710938 0 8.53125 3.820312 8.53125 8.535156 0 4.710937-3.820312 8.53125-8.53125 8.53125zm66.796875-152.566406c2.632813 7.703125-.542969 16.195312-7.585937 20.28125-7.039063 4.085937-15.988282 2.628906-21.371094-3.480469-5.378906-6.109375-5.695313-15.171875-.753906-21.640625 4.941406-6.46875 13.765624-8.550781 21.078124-4.964844 4.074219 1.980469 7.183594 5.511719 8.632813 9.804688zm-31.871094-24.644531c-6.476562 3.308593-11.710937 8.621093-14.914062 15.148437-.710938 1.523437-1.300781 3.101563-1.769531 4.71875l-9.710938-6.332031v-40.695313zm-231.191406-270.667969c.015625-16.554688 13.429687-29.96875 29.984375-29.984375h178.960938c16.554687.015625 29.96875 13.429687 29.988281 29.984375v106.546875c-.042969 37.683594-30.582031 68.226562-68.269531 68.265625h-102.398438c-37.6875-.039063-68.226562-30.582031-68.265625-68.265625zm-15.171875 124.339843c8.4375 39.351563 43.191406 67.484376 83.4375 67.539063h102.398438c5.734374.007813 11.449218-.5625 17.066406-1.703125v18.773438h-119.464844c-14.140625 0-25.601562 11.460937-25.601562 25.597656v59.734375c0 14.136719 11.460937 25.597656 25.601562 25.597656h119.464844v51.203125.246094c-12.363282-7.960938-27.394532-10.664063-41.761719-7.507813-14.363281 3.15625-26.875 11.914063-34.765625 24.328125h-60.277344c-9.964844-15.652344-27.109375-25.273437-45.660156-25.617187-18.550781-.339844-36.042969 8.636719-46.578125 23.910156-6.003906-2.757813-9.863281-8.75-9.890625-15.359375v-136.371094c4.40625.886719 8.726562 2.15625 12.914062 3.796875 10.359376 4 22.117188.796875 29.011719-7.910156l.90625-1.09375c5.054688-6.378906 6.773438-14.785156 4.632813-22.640625-2.023438-7.722656-7.609375-14.015625-15.035156-16.945312-10.351563-4.066407-21.316407-6.347657-32.429688-6.757813v-16.367187c.050781-21.042969 15.273438-38.984376 36.03125-42.453126zm-78.261719 96.871094c8.304688-11.324218 20.808594-18.839844 34.707031-20.855468 1.601563-.183594 3.214844-.277344 4.828126-.28125 9.871093.144531 19.628906 2.078124 28.808593 5.707031 2.402344.957031 4.203125 3.007812 4.839844 5.511719.726563 2.582031.199219 5.359374-1.425781 7.492187l-.855469 1.066406c-2.292969 2.898438-6.195313 3.984375-9.65625 2.699219-7.0625-2.90625-14.527344-4.703125-22.136719-5.324219-2.75-.035156-5.480468.429688-8.066406 1.371094-.152344.050781-.304688.144531-.449219.195313l-.359375.164062c-6.738281 2.804688-12.621094 7.328125-17.066406 13.117188l-14.753906 17.730468c-.566406.613282-1.214844 1.144532-1.929688 1.578125-1.984375-2.355469-4.28125-4.433593-6.824218-6.167969-1.859376-1.214843-3.828126-2.246093-5.882813-3.089843.292969-1.15625.832031-2.238281 1.578125-3.164063zm-43.382812 43.160156c3.191406-4.9375 8.710937-7.867187 14.589843-7.742187 5.875.125 11.265626 3.289063 14.246094 8.355469v.0625c3.339844 5.59375 3.203125 12.601562-.351562 18.0625-5.183594 7.875-15.769532 10.058594-23.644532 4.875s-10.058593-15.773438-4.875-23.648438zm0 0"/></svg>