<svg height="512pt" viewBox="0 0 512 512" width="512pt" xmlns="http://www.w3.org/2000/svg"><path d="m213.332031 473.601562v12.796876c-.027343 9.414062-7.652343 17.039062-17.066406 17.066406h-93.867187c-9.414063-.027344-17.035157-7.652344-17.066407-17.066406v-12.796876c.003907-27.101562 17.105469-51.246093 42.667969-60.246093h42.667969c25.5625 8.996093 42.664062 33.144531 42.664062 60.246093zm0 0" fill="#c52828"/><path d="m426.667969 472.660156v12.800782c-.03125 9.414062-7.652344 17.039062-17.066407 17.066406h-93.867187c-9.414063-.027344-17.039063-7.652344-17.066406-17.066406v-12.800782c0-27.097656 17.101562-51.246094 42.664062-60.246094h42.667969c25.5625 9 42.664062 33.148438 42.667969 60.246094zm0 0" fill="#c52828"/><path d="m192 473.601562v12.796876c-.027344 9.414062-7.652344 17.039062-17.066406 17.066406h-72.535156c-9.414063-.027344-17.035157-7.652344-17.066407-17.066406v-12.796876c.003907-27.101562 17.105469-51.246093 42.667969-60.246093h21.332031c25.5625 8.996093 42.667969 33.144531 42.667969 60.246093zm0 0" fill="#f44335"/><path d="m405.332031 472.660156v12.800782c-.027343 9.414062-7.652343 17.039062-17.066406 17.066406h-72.53125c-9.414063-.027344-17.039063-7.652344-17.066406-17.066406v-12.800782c0-27.097656 17.101562-51.246094 42.664062-60.246094h21.335938c25.558593 9 42.660156 33.148438 42.664062 60.246094zm0 0" fill="#f44335"/><path d="m145.066406 136.535156v86.867188c-.007812 4.117187 1.65625 8.058594 4.609375 10.921875 2.964844 2.964843 6.988281 4.621093 11.175781 4.609375h190.296876c4.1875.011718 8.210937-1.644532 11.175781-4.609375 2.953125-2.863281 4.617187-6.804688 4.609375-10.921875v-86.867188zm0 0" fill="#d84315"/><path d="m128 8.535156h256c4.710938 0 8.535156 3.820313 8.535156 8.53125v110.933594c0 4.710938-3.824218 8.535156-8.535156 8.535156h-256c-4.710938 0-8.535156-3.824218-8.535156-8.535156v-110.933594c0-4.710937 3.824218-8.53125 8.535156-8.53125zm0 0" fill="#c52828"/><path d="m128 8.535156h234.667969c4.710937 0 8.53125 3.820313 8.53125 8.53125v110.933594c0 4.710938-3.820313 8.535156-8.53125 8.535156h-234.667969c-4.710938 0-8.535156-3.824218-8.535156-8.535156v-110.933594c0-4.710937 3.824218-8.53125 8.535156-8.53125zm0 0" fill="#f44335"/><g fill="#c52828"><path d="m85.332031 17.066406v59.734375c0 4.710938-3.820312 8.53125-8.53125 8.53125h-59.734375c-4.710937 0-8.53125-3.820312-8.53125-8.53125v-8.535156c-.027344-29.398437 21.382813-54.429687 50.429688-58.964844 3.074218-.515625 6.183594-.773437 9.300781-.765625h8.535156c4.710938 0 8.53125 3.820313 8.53125 8.53125zm0 0"/><path d="m85.332031 25.601562h34.132813v42.664063h-34.132813zm0 0"/><path d="m392.535156 25.601562h34.132813v42.664063h-34.132813zm0 0"/></g><path d="m332.800781 76.800781v128c0 23.5625-19.101562 42.664063-42.667969 42.664063h-68.265624c-23.566407 0-42.667969-19.101563-42.667969-42.664063v-128c0-4.714843 3.820312-8.535156 8.535156-8.535156h136.53125c4.714844 0 8.535156 3.820313 8.535156 8.535156zm0 0" fill="#d84315"/><path d="m311.464844 76.800781v128c0 23.5625-19.101563 42.664063-42.664063 42.664063h-46.933593c-23.566407 0-42.667969-19.101563-42.667969-42.664063v-128c0-4.714843 3.820312-8.535156 8.535156-8.535156h115.199219c4.710937 0 8.53125 3.820313 8.53125 8.535156zm0 0" fill="#ff5722"/><path d="m314.964844 293.972656-7.082032 17.066406c-.988281 2.714844-3.515624 4.566407-6.398437 4.695313h-90.96875c-2.882813-.128906-5.410156-1.980469-6.398437-4.695313l-7.082032-17.066406c-1.246094-2.460937-1.230468-5.371094.035156-7.820312 1.269532-2.453125 3.636719-4.144532 6.363282-4.550782h105.132812c2.726563.40625 5.09375 2.097657 6.363282 4.550782 1.265624 2.449218 1.28125 5.359375.035156 7.820312zm0 0" fill="#c52828"/><path d="m293.632812 293.972656-7.082031 17.066406c-.992187 2.714844-3.515625 4.566407-6.402343 4.695313h-69.632813c-2.882813-.128906-5.410156-1.980469-6.398437-4.695313l-7.082032-17.066406c-1.246094-2.460937-1.230468-5.371094.035156-7.820312 1.269532-2.453125 3.636719-4.144532 6.363282-4.550782h83.796875c2.730469.40625 5.097656 2.097657 6.363281 4.550782 1.269531 2.449218 1.28125 5.359375.039062 7.820312zm0 0" fill="#f44335"/><path d="m503.464844 72.535156v8.53125c0 4.714844-3.820313 8.535156-8.53125 8.535156h-59.734375c-4.710938 0-8.53125-3.820312-8.53125-8.535156v-59.734375c.003906-3.351562 1.976562-6.390625 5.035156-7.765625 1.09375-.511718 2.289063-.777344 3.496094-.765625h8.535156c15.839844 0 31.035156 6.292969 42.238281 17.496094 11.199219 11.199219 17.492188 26.394531 17.492188 42.238281zm0 0" fill="#c52828"/><path d="m64 17.066406v59.734375c0 4.710938-3.820312 8.53125-8.535156 8.53125h-38.398438c-4.710937 0-8.53125-3.820312-8.53125-8.53125v-8.535156c-.027344-29.398437 21.382813-54.429687 50.429688-58.964844 3.058594 1.375 5.027344 4.414063 5.035156 7.765625zm0 0" fill="#f44335"/><path d="m482.132812 68.265625v8.535156c0 4.710938-3.820312 8.53125-8.53125 8.53125h-38.402343c-4.710938 0-8.53125-3.820312-8.53125-8.53125v-59.734375c.003906-3.351562 1.976562-6.390625 5.035156-7.765625 29.046875 4.535157 50.453125 29.566407 50.429687 58.964844zm0 0" fill="#f44335"/><path d="m164.769531 446.089844-21.332031 8.53125c-7.09375 2.84375-15.4375-1.289063-15.4375-7.628906v-54.457032c.65625-5.265625 5.386719-9.050781 10.667969-8.535156h21.332031c5.28125-.515625 10.011719 3.269531 10.667969 8.535156v45.925782c-.203125 3.515624-2.546875 6.546874-5.898438 7.628906zm0 0" fill="#c52828"/><path d="m161.511719 311.167969h-22.339844l-11.171875 19.355469 11.171875 19.34375h22.339844l11.167969-19.34375zm0 0" fill="#f44335"/><path d="m347.230469 445.148438 21.332031 8.535156c7.09375 2.839844 15.4375-1.289063 15.4375-7.628906v-54.460938c-.65625-5.265625-5.386719-9.050781-10.667969-8.53125h-21.332031c-5.28125-.519531-10.011719 3.265625-10.667969 8.53125v45.925781c.203125 3.519531 2.546875 6.546875 5.898438 7.628907zm0 0" fill="#c52828"/><path d="m350.488281 310.230469h22.339844l11.171875 19.351562-11.171875 19.347657h-22.339844l-11.167969-19.347657zm0 0" fill="#f44335"/><path d="m34.132812 85.332031h34.132813v142.320313h-34.132813zm0 0" fill="#c52828"/><path d="m93.867188 226.132812-8.535157 98.132813h-59.730469l-8.535156-98.132813c-.054687-14.28125 7.886719-27.394531 20.566406-33.960937 5.476563-2.953125 11.609376-4.480469 17.832032-4.4375 21.195312.03125 38.367187 17.203125 38.402344 38.398437zm0 0" fill="#c52828"/><path d="m72.535156 230.398438-8.195312 93.867187h-38.738282l-8.535156-98.132813c-.054687-14.28125 7.886719-27.394531 20.566406-33.960937 19.753907 1.828125 34.875 18.386719 34.902344 38.226563zm0 0" fill="#f44335"/><path d="m85.332031 320c0 16.496094-13.371093 29.867188-29.867187 29.867188-3.652344.019531-7.277344-.675782-10.664063-2.046876-11.554687-4.386718-19.195312-15.460937-19.195312-27.820312s7.640625-23.433594 19.195312-27.820312c3.386719-1.371094 7.011719-2.066407 10.664063-2.046876 16.496094 0 29.867187 13.371094 29.867187 29.867188zm0 0" fill="#ff9801"/><path d="m64 320c0-15.363281-8.597656-27.820312-19.199219-27.820312-10.605469 0-19.199219 12.457031-19.199219 27.820312s8.59375 27.820312 19.199219 27.820312c10.601563 0 19.199219-12.457031 19.199219-27.820312zm0 0" fill="#fec108"/><path d="m477.867188 208.988281h-34.132813v-123.65625h34.132813zm0 0" fill="#c52828"/><path d="m494.933594 226.132812-30.976563 149.761719c-1.054687 4.824219-5.386719 8.222657-10.324219 8.097657s-9.089843-3.738282-9.898437-8.609376l-.085937-.34375-25.515626-148.90625c-.03125-10.1875 4.027344-19.964843 11.265626-27.136718 2.738281-2.730469 5.875-5.03125 9.300781-6.824219 5.476562-2.953125 11.609375-4.480469 17.835937-4.4375 10.1875-.015625 19.960938 4.027344 27.167969 11.230469 7.203125 7.203125 11.242187 16.980468 11.230469 27.167968zm0 0" fill="#37474f"/><path d="m473.601562 234.667969-29.953124 144.640625-25.515626-148.910156c-.03125-10.1875 4.027344-19.964844 11.265626-27.132813 2.738281-2.730469 5.875-5.035156 9.300781-6.828125 19.777343 1.785156 34.917969 18.371094 34.902343 38.230469zm0 0" fill="#607d8b"/><path d="m219.367188 121.96875c-3.347657-3.234375-8.671876-3.191406-11.964844.101562-3.289063 3.292969-3.335938 8.613282-.101563 11.960938l17.066407 17.070312c3.347656 3.230469 8.671874 3.1875 11.960937-.105468 3.292969-3.292969 3.339844-8.613282.105469-11.960938zm0 0"/><path d="m292.632812 121.96875-17.066406 17.066406c-2.21875 2.140625-3.105468 5.3125-2.328125 8.296875.78125 2.984375 3.113281 5.3125 6.097657 6.09375 2.980468.78125 6.15625-.109375 8.296874-2.324219l17.066407-17.070312c3.234375-3.347656 3.1875-8.667969-.101563-11.960938-3.292968-3.292968-8.617187-3.335937-11.964844-.101562zm0 0"/><path d="m221.867188 179.199219c-4.714844 0-8.535157 3.820312-8.535157 8.535156v25.597656c0 4.714844 3.820313 8.535157 8.535157 8.535157 4.710937 0 8.53125-3.820313 8.53125-8.535157v-25.597656c0-4.714844-3.820313-8.535156-8.53125-8.535156zm0 0"/><path d="m256 179.199219c-4.710938 0-8.535156 3.820312-8.535156 8.535156v25.597656c0 4.714844 3.824218 8.535157 8.535156 8.535157s8.535156-3.820313 8.535156-8.535157v-25.597656c0-4.714844-3.824218-8.535156-8.535156-8.535156zm0 0"/><path d="m290.132812 179.199219c-4.710937 0-8.53125 3.820312-8.53125 8.535156v25.597656c0 4.714844 3.820313 8.535157 8.53125 8.535157 4.714844 0 8.535157-3.820313 8.535157-8.535157v-25.597656c0-4.714844-3.820313-8.535156-8.535157-8.535156zm0 0"/><path d="m443.734375 0h-8.535156c-9.425781 0-17.066407 7.640625-17.066407 17.066406h-17.066406c0-9.425781-7.640625-17.066406-17.066406-17.066406h-256c-9.425781 0-17.066406 7.640625-17.066406 17.066406h-17.066406c0-9.425781-7.640626-17.066406-17.066407-17.066406h-8.535156c-37.683594.0429688-68.2226562 30.582031-68.265625 68.265625v8.535156c0 9.425781 7.640625 17.066407 17.066406 17.066407h8.535156v93.867187c.046876.671875.183594 1.339844.398438 1.980469-11.132812 9.113281-17.550781 22.765625-17.464844 37.152344l8.53125 98.132812c.109375.832031.351563 1.636719.71875 2.390625 3.558594 17.925781 19.265625 30.859375 37.542969 30.914063 18.28125.058593 34.066406-12.777344 37.738281-30.683594.40625-.824219.679688-1.710938.800782-2.621094l8.53125-98.867188c.125-17.621093-9.8125-33.769531-25.597657-41.597656v-90.667968c9.425781 0 17.066407-7.640626 17.066407-17.066407h17.066406v51.199219c0 9.425781 7.640625 17.066406 17.066406 17.066406h8.535156v78.335938c-.027344 6.378906 2.53125 12.5 7.097656 16.957031 4.5625 4.574219 10.761719 7.132813 17.21875 7.105469h32.769532c8.367187 5.574218 18.195312 8.542968 28.246094 8.535156h68.265624c10.050782.007812 19.878907-2.960938 28.246094-8.535156h32.769532c6.414062.035156 12.578124-2.492188 17.125-7.019532 4.621093-4.472656 7.21875-10.636718 7.191406-17.066406v-78.3125h8.535156c9.425781 0 17.066406-7.640625 17.066406-17.066406v-51.199219h17.066406c0 9.425781 7.640626 17.066407 17.066407 17.066407v90.65625c-4.355469 2.15625-8.335938 4.992187-11.800781 8.398437-8.886719 8.757813-13.859376 20.734375-13.796876 33.210937 0 .484376.042969.964844.125 1.441407l5.597657 32.648437-9.8125 5.351563c-4.136719 2.257812-5.660157 7.441406-3.402344 11.578125 2.253906 4.140625 7.441406 5.664062 11.578125 3.40625l4.683594-2.558594 3.03125 17.628906-7.40625 4.113282c-2.765625 1.425781-4.53125 4.242187-4.617188 7.351562-.082031 3.109375 1.53125 6.015625 4.210938 7.589844 2.683594 1.574218 6.007812 1.5625 8.683594-.027344l2.183593-1.210938 3.011719 17.597657-5.035156 2.882812c-3.753906 2.414063-5.011719 7.3125-2.886719 11.238281 2.121094 3.925782 6.910156 5.550782 10.984375 3.730469l4.78125 27.828125c1.457031 9.121094 9.335938 15.828125 18.574219 15.8125 8.855469-.042968 16.5-6.207031 18.417969-14.851562v-.074219l12.320312-59.570313 5.972656-3.414062c2.996094-1.722656 4.65625-5.082031 4.210938-8.507812-.449219-3.425782-2.921875-6.242188-6.257813-7.136719l4.941407-23.890625 5.546874-3.082032c2.980469-1.675781 4.675782-4.96875 4.300782-8.367187-.371094-3.398437-2.734375-6.25-6.007813-7.238281l5.007813-24.21875 5.121094-2.808594c1.988281-1.082031 3.464843-2.910156 4.105468-5.082031s.390625-4.507813-.691406-6.496094c-1.820312-3.277344-5.582031-4.957031-9.234375-4.128906-2.613281-9.4375-8.109375-17.824219-15.71875-23.988281.238281-.628907.398437-1.28125.476563-1.945313v-93.867187h8.535156c9.425781 0 17.066406-7.640626 17.066406-17.066407v-8.535156c-.042969-37.683594-30.582031-68.2226562-68.265625-68.265625zm-388.269531 341.332031c-11.78125 0-21.332032-9.550781-21.332032-21.332031s9.550782-21.332031 21.332032-21.332031c11.785156 0 21.335937 9.550781 21.335937 21.332031s-9.550781 21.332031-21.335937 21.332031zm24.246094-50.867187c-14-11.839844-34.5-11.839844-48.496094 0l-5.613282-64.332032c0-16.496093 13.371094-29.867187 29.863282-29.867187 7.945312-.039063 15.570312 3.132813 21.140625 8.800781 5.46875 5.367188 8.605469 12.671875 8.726562 20.332032zm-19.976563-111.265625h-17.066406v-85.332031h17.066406zm8.53125-102.398438h-51.199219v-8.535156c.027344-28.265625 22.933594-51.171875 51.199219-51.199219h8.535156v59.734375zm25.601563-17.066406v-25.601563h17.066406v25.601563zm61.753906 168.472656c-1.300782-1.257812-2.03125-2.996093-2.019532-4.804687v-78.335938h17.066407v59.734375c.003906 8.996094 2.394531 17.828125 6.929687 25.597657h-16.746094c-1.96875.011718-3.855468-.78125-5.230468-2.191407zm66.246094 10.726563c-18.851563 0-34.132813-15.28125-34.132813-34.132813v-128h136.53125v128c0 18.851563-15.28125 34.132813-34.132813 34.132813zm136.53125-15.53125c.003906 1.851562-.761719 3.625-2.113282 4.890625-1.355468 1.359375-3.199218 2.121093-5.121094 2.105469h-16.761718c4.535156-7.769532 6.925781-16.601563 6.929687-25.597657v-59.734375h17.066407zm25.601562-95.402344h-42.667969v-51.199219c0-9.425781-7.640625-17.066406-17.066406-17.066406h-136.53125c-9.425781 0-17.066406 7.640625-17.066406 17.066406v51.199219h-42.667969v-110.933594h256zm17.066406-68.265625v-25.601563h17.066406v25.601563zm25.601563 165.714844c.402343-16.210938 13.644531-29.15625 29.867187-29.183594 14.742188.046875 27.238282 10.863281 29.394532 25.449219l-54.773438 29.863281zm28.945312 148.644531c-.269531.757812-1.003906 1.25-1.808593 1.210938-.804688-.042969-1.484376-.609376-1.675782-1.390626l-5.835937-33.980468 18.570312-10.605469zm13.863281-67.054688-26.238281 14.992188-2.988281-17.367188 33.582031-18.652343zm8.910157-43.078124-41.191407 22.886718-2.992187-17.484375 48.542969-26.453125zm-9.054688-84.761719h-17.066406v-85.332031h17.066406zm25.601563-102.398438h-59.734375v-59.734375h8.535156c28.265625.027344 51.171875 22.933594 51.199219 51.199219zm0 0"/><path d="m138.667969 375.464844c-10-.539063-18.566407 7.078125-19.203125 17.070312v15.289063c-25.90625 11.640625-42.597656 37.375-42.664063 65.777343v12.796876c0 14.140624 11.460938 25.601562 25.597657 25.601562h93.867187c14.140625 0 25.601563-11.460938 25.601563-25.601562v-12.796876c.054687-28.480468-16.664063-54.316406-42.667969-65.929687v-15.136719c-.523438-9.171875-7.890625-16.457031-17.066407-16.878906v-17.339844c2.8125-.183594 5.347657-1.75 6.765626-4.183594l11.179687-19.34375c1.042969-1.867187 1.347656-4.054687.855469-6.136718l18.6875-9.386719c2.777344 3.113281 6.730468 4.925781 10.90625 5h90.945312c4.472656-.058594 8.6875-2.097656 11.511719-5.5625l18.039063 8.976563c-.492188 2.082031-.1875 4.269531.855468 6.136718l11.179688 19.34375c1.417968 2.433594 3.953125 4 6.765625 4.183594v17.347656c-9.171875.421875-16.539063 7.703125-17.066407 16.867188v15.140625c-26.003906 11.613281-42.722656 37.449219-42.667968 65.929687v12.796875c0 14.140625 11.460937 25.601563 25.601562 25.601563h93.910156c14.136719 0 25.597657-11.460938 25.597657-25.601563v-12.796875c-.066407-28.402344-16.757813-54.136718-42.664063-65.777344v-15.257812c-.636718-9.992188-9.203125-17.605469-19.203125-17.066406h-6.398437v-17.066406h5.894531c3.054687.003906 5.875-1.625 7.398437-4.265626l11.164063-19.347656c1.523437-2.636718 1.523437-5.890625 0-8.53125l-11.164063-19.355468c-1.523437-2.640626-4.34375-4.269532-7.398437-4.265626h-22.339844c-3.046875 0-5.863281 1.628907-7.386719 4.265626l-3.902343 6.761718-18.875-9.441406 2.558593-6.046875c2.339844-5.636719 1.742188-12.0625-1.59375-17.171875-2.757812-4.34375-7.542968-6.980469-12.691406-6.996094h-105.195312c-5.136719.027344-9.90625 2.664063-12.65625 6.996094-3.335938 5.113281-3.933594 11.542969-1.597656 17.179688l2.851562 6.824218-19.199219 9.601563-3.902343-6.757813c-1.523438-2.640625-4.339844-4.265625-7.386719-4.265625h-22.339844c-3.054687-.003906-5.875 1.621094-7.398437 4.265625l-11.164063 19.351563c-1.523437 2.640625-1.523437 5.894531 0 8.535156l11.164063 19.335937c1.523437 2.644532 4.34375 4.269532 7.398437 4.265626h5.894531v17.066406zm0 17.070312h21.332031c1.296875 0 2.140625.484375 2.132812 0l.085938 20.8125c-.019531.28125-.019531.566406 0 .851563l.09375 23.535156c-.203125.199219-.449219.351563-.714844.445313l-21.335937 8.53125c-1.128907.34375-2.324219.421874-3.488281.222656-.128907 0-.214844 0-.25.066406l-.117188-32.722656c.023438-.375.023438-.746094 0-1.117188l-.070312-19.882812c.65625-.535156 1.488281-.800782 2.332031-.742188zm49.859375 41.871094c10.4375 10.367188 16.296875 24.480469 16.273437 39.195312v12.796876c0 4.714843-3.820312 8.535156-8.535156 8.535156h-93.867187c-4.710938 0-8.53125-3.820313-8.53125-8.535156v-12.796876c.050781-18.847656 9.699218-36.367187 25.597656-46.484374v19.875c.054687 5.5 2.878906 10.601562 7.511718 13.570312 3.457032 2.304688 7.523438 3.527344 11.679688 3.503906 2.722656.003906 5.417969-.511718 7.945312-1.515625l21.335938-8.535156c6.589844-2.378906 11.058594-8.550781 11.261719-15.554687v-11.511719c3.367187 2.144531 6.496093 4.644531 9.328125 7.457031zm229.605468 38.253906v12.800782c0 4.714843-3.820312 8.535156-8.53125 8.535156h-93.867187c-4.714844 0-8.535156-3.820313-8.535156-8.535156v-12.800782c-.023438-18.90625 9.636719-36.507812 25.601562-46.640625v11.5c.1875 7.023438 4.65625 13.214844 11.261719 15.601563l21.335938 8.53125c2.527343 1.007812 5.222656 1.519531 7.945312 1.519531 4.152344.019531 8.222656-1.203125 11.679688-3.507813 4.632812-2.964843 7.457031-8.066406 7.511718-13.566406v-19.917968c15.898438 10.117187 25.546875 27.636718 25.597656 46.480468zm-42.667968-81.066406.085937 20.882812c-.011719.234376-.011719.472657 0 .707032l.121094 32.113281c-1.140625.832031-2.636719 1.003906-3.933594.449219l-21.335937-8.53125-.535156.304687-.101563-24.222656c.019531-.339844.019531-.679687 0-1.015625l-.078125-19.945312c.648438-.535157 1.480469-.800782 2.320312-.742188h21.335938c1.269531.007812 2.121094.496094 2.121094.019531zm-20.050782-72.847656h12.492188l6.246094 10.820312-6.246094 10.8125h-12.492188l-6.238281-10.8125zm-48.214843-28.613282c.003906.183594-.03125.363282-.101563.53125l-4.914062 11.773438c-.273438.296875-.519532.613281-.742188.949219-.328125.742187-.539062 1.53125-.632812 2.335937l-.613282 1.476563h-88.398437l-6.894531-16.527344c-.070313-.171875-.105469-.355469-.101563-.539063zm-169.351563 40.390626 6.246094-10.820313h12.492188l6.238281 10.820313-6.238281 10.808593h-12.492188zm0 0"/></svg>