<svg height="512pt" viewBox="-8 0 511 512" width="512pt" xmlns="http://www.w3.org/2000/svg"><path d="m9.035156 388.265625h34.132813v25.601563c0 4.710937-3.820313 8.53125-8.535157 8.53125h-17.066406c-4.710937 0-8.53125-3.820313-8.53125-8.53125zm0 0" fill="#cfd8dc"/><path d="m77.300781 388.265625h34.132813v25.601563c0 4.710937-3.820313 8.53125-8.53125 8.53125h-17.070313c-4.710937 0-8.53125-3.820313-8.53125-8.53125zm0 0" fill="#cfd8dc"/><path d="m111.433594 384h-29.867188c.015625-16.136719-7.613281-31.332031-20.566406-40.960938-4.6875-3.609374-10.011719-6.300781-15.699219-7.933593 4.824219-1.554688 9.863281-2.332031 14.933594-2.304688 11.058594-.042969 21.824219 3.554688 30.632813 10.238281 12.953124 9.628907 20.582031 24.824219 20.566406 40.960938zm0 0" fill="#c52828"/><path d="m478.367188 362.667969c0 14.136719-11.460938 25.597656-25.601563 25.597656-14.136719 0-25.597656-11.460937-25.597656-25.597656 0-14.140625 11.460937-25.601563 25.597656-25.601563 14.140625 0 25.601563 11.460938 25.601563 25.601563zm0 0" fill="#2fa8cc"/><path d="m484.765625 362.667969c0 17.671875-14.324219 32-32 32-17.671875 0-32-14.328125-32-32 0-17.675781 14.328125-32 32-32 17.675781 0 32 14.324219 32 32zm0 0" fill="#3b97d3"/><path d="m170.144531 354.132812c-8.574219 10.539063-10.078125 25.160157-3.832031 37.226563 6.242188 12.0625 19.046875 19.277344 32.605469 18.367187 13.554687-.914062 25.277343-9.777343 29.847656-22.570312zm0 0" fill="#283593"/><path d="m342.859375 354.132812c8.570313 10.539063 10.074219 25.160157 3.828125 37.226563-6.242188 12.0625-19.046875 19.277344-32.601562 18.367187-13.554688-.914062-25.28125-9.777343-29.851563-22.570312zm0 0" fill="#283593"/><path d="m357.960938 327.253906c0 33.023438-75.859376 65.28125-101.460938 65.28125-3.589844-.070312-7.164062-.5-10.667969-1.28125-31.402343-6.144531-90.792969-34.816406-90.792969-64 0-18.347656 0-26.199218 16.128907-37.121094h170.664062c16.128907 10.921876 16.128907 18.773438 16.128907 37.121094zm0 0" fill="#0377bc"/><path d="m336.628906 322.988281c0 29.183594-59.390625 57.855469-90.796875 64-31.402343-6.144531-90.792969-34.816406-90.792969-64 0-18.347656 0-26.199219 16.128907-37.121093h149.332031c16.128906 10.921874 16.128906 18.773437 16.128906 37.121093zm0 0" fill="#02a9f4"/><path d="m363.765625 207.273438-33.195313 99.5c-3.460937 10.445312-13.230468 17.496093-24.234374 17.492187h-99.671876c-11.003906.003906-20.769531-7.046875-24.234374-17.492187l-33.191407-99.5zm0 0" fill="#283593"/><g fill="#3f51b5"><path d="m342.429688 207.273438-33.191407 99.5c-3.464843 10.445312-13.230469 17.496093-24.238281 17.492187h-78.335938c-11.003906.003906-20.769531-7.046875-24.234374-17.492187l-33.191407-99.5zm0 0"/><path d="m98.546875 221.867188-18.003906 51.539062-35.582031-.339844 24.488281-73.128906.425781.167969zm0 0"/><path d="m443.125 200.105469.425781-.167969 24.492188 73.128906-35.585938.339844-18.003906-51.539062zm0 0"/></g><path d="m127.648438 199.082031c-3.085938 12.460938-13.75 21.582031-26.539063 22.699219-.824219.070312-1.648437.101562-2.476563.085938-9.292968.015624-18.050781-4.347657-23.636718-11.777344h-.085938c-5.703125-7.433594-7.566406-17.117188-5.03125-26.136719s9.175782-16.316406 17.917969-19.6875c.085937 0 .085937-.085937.171875-.085937zm0 0" fill="#283593"/><path d="m385.355469 199.082031c3.082031 12.460938 13.75 21.582031 26.535156 22.699219.824219.070312 1.652344.101562 2.476563.085938 9.292968.015624 18.054687-4.347657 23.636718-11.777344h.085938c5.703125-7.433594 7.566406-17.117188 5.03125-26.136719s-9.175782-16.316406-17.917969-19.6875c-.085937 0-.085937-.085937-.167969-.085937zm0 0" fill="#283593"/><path d="m427.167969 153.601562c0 37.714844-71.679688 68.265626-170.667969 68.265626-27.042969.195312-54.035156-2.378907-80.554688-7.679688-55.039062-11.351562-90.113281-34.21875-90.113281-60.585938 0-20.226562 23.042969-38.402343 59.734375-50.859374h221.867188c36.695312 12.457031 59.734375 30.632812 59.734375 50.859374zm0 0" fill="#1566c0"/><path d="m401.566406 149.332031c0 37.71875-71.679687 68.269531-170.664062 68.269531-18.375.046876-36.730469-1.09375-54.957032-3.414062-55.039062-11.351562-90.113281-34.21875-90.113281-60.585938 0-20.226562 23.042969-38.402343 59.734375-50.859374h207.703125c29.949219 12.117187 48.296875 28.585937 48.296875 46.589843zm0 0" fill="#2296f3"/><path d="m367.433594 107.945312c0 29.953126-44.96875 54.1875-110.933594 54.1875-3.582031 0-7.167969-.085937-10.667969-.253906-60.074219-2.390625-100.265625-25.601562-100.265625-53.933594 0-28.839843 7.9375-94.460937 100.265625-99.15625 3.414063-.171874 7-.253906 10.667969-.253906 102.402344 0 110.933594 69.460938 110.933594 99.410156zm0 0" fill="#0377bc"/><path d="m346.101562 107.945312c0 28.332032-40.191406 51.542969-100.269531 53.933594-60.074219-2.390625-100.265625-25.601562-100.265625-53.933594 0-28.839843 7.9375-94.460937 100.265625-99.15625 92.332031 4.695313 100.269531 70.316407 100.269531 99.15625zm0 0" fill="#02a9f4"/><path d="m256.5 128c-9.425781 0-17.066406-7.640625-17.066406-17.066406v-25.601563h34.132812v25.601563c0 9.425781-7.640625 17.066406-17.066406 17.066406zm0 0" fill="#00838f"/><path d="m43.167969 268.800781h34.132812c9.425781 0 17.066407 7.640625 17.066407 17.066407v34.132812c0 9.425781-7.640626 17.066406-17.066407 17.066406h-34.132812c-9.425781 0-17.066407-7.640625-17.066407-17.066406v-34.132812c0-9.425782 7.640626-17.066407 17.066407-17.066407zm0 0" fill="#1566c0"/><path d="m435.699219 268.800781h34.132812c9.425781 0 17.070313 7.640625 17.070313 17.066407v34.132812c0 9.425781-7.644532 17.066406-17.070313 17.066406h-34.132812c-9.425781 0-17.066407-7.640625-17.066407-17.066406v-34.132812c0-9.425782 7.640626-17.066407 17.066407-17.066407zm0 0" fill="#1566c0"/><path d="m43.167969 268.800781h12.800781c9.425781 0 17.066406 7.640625 17.066406 17.066407v34.132812c0 9.425781-7.640625 17.066406-17.066406 17.066406h-12.800781c-9.425781 0-17.066407-7.640625-17.066407-17.066406v-34.132812c0-9.425782 7.640626-17.066407 17.066407-17.066407zm0 0" fill="#2296f3"/><path d="m435.699219 268.800781h12.800781c9.425781 0 17.066406 7.640625 17.066406 17.066407v34.132812c0 9.425781-7.640625 17.066406-17.066406 17.066406h-12.800781c-9.425781 0-17.066407-7.640625-17.066407-17.066406v-34.132812c0-9.425782 7.640626-17.066407 17.066407-17.066407zm0 0" fill="#2296f3"/><path d="m282.101562 273.066406c-.070312 9.398438-7.671874 16.996094-17.066406 17.066406h-17.066406c-.714844-.011718-1.429688-.066406-2.136719-.171874-8.519531-1.070313-14.914062-8.308594-14.929687-16.894532-.027344-4.527344 1.792968-8.871094 5.03125-12.03125 2.636718-2.71875 6.136718-4.4375 9.898437-4.863281.707031-.105469 1.421875-.160156 2.136719-.171875h17.066406c9.414063.027344 17.039063 7.652344 17.066406 17.066406zm0 0" fill="#c52828"/><path d="m81.566406 384h-4.265625c0-9.425781-7.640625-17.066406-17.066406-17.066406s-17.066406 7.640625-17.066406 17.066406h-34.132813c-.015625-16.136719 7.613282-31.332031 20.5625-40.960938 4.6875-3.609374 10.015625-6.300781 15.703125-7.933593 5.6875 1.632812 11.011719 4.324219 15.699219 7.933593 12.953125 9.628907 20.582031 24.824219 20.566406 40.960938zm0 0" fill="#f44335"/><path d="m77.300781 384h-29.867187c.003906-2.894531-.730469-5.742188-2.132813-8.277344 3.769531-6.8125 11.667969-10.210937 19.207031-8.261718 7.535157 1.949218 12.800782 8.753906 12.792969 16.539062zm0 0" fill="#c52828"/><path d="m260.765625 273.066406c.027344 4.527344-1.792969 8.871094-5.03125 12.03125-2.636719 2.71875-6.136719 4.441406-9.902344 4.863282-8.519531-1.070313-14.914062-8.308594-14.929687-16.894532-.027344-4.527344 1.792968-8.871094 5.03125-12.03125 2.636718-2.71875 6.136718-4.4375 9.898437-4.863281 8.519531 1.070313 14.917969 8.308594 14.933594 16.894531zm0 0" fill="#f44335"/><path d="m188.234375 409.601562c14.136719 0 25.597656 11.460938 25.597656 25.597657v39.203125h-51.199219v-39.203125c0-14.136719 11.460938-25.597657 25.601563-25.597657zm0 0" fill="#3f51b5"/><path d="m324.765625 409.601562c14.140625 0 25.601563 11.460938 25.601563 25.597657v39.203125h-51.199219v-39.203125c0-14.136719 11.460937-25.597657 25.597656-25.597657zm0 0" fill="#3f51b5"/><path d="m239.433594 483.15625v11.777344c0 4.710937-3.820313 8.53125-8.53125 8.53125h-85.335938c-4.710937 0-8.53125-3.820313-8.53125-8.53125v-11.777344c-.023437-3.242188 1.792969-6.21875 4.691406-7.679688l10.582032-5.203124c.582031-.265626 1.179687-.492188 1.792968-.683594v-17.324219c0-4.710937 3.820313-8.53125 8.53125-8.53125h51.199219c4.714844 0 8.535157 3.820313 8.535157 8.53125v17.324219c.609374.191406 1.210937.417968 1.792968.683594l10.582032 5.203124c2.894531 1.460938 4.714843 4.4375 4.691406 7.679688zm0 0" fill="#37474f"/><path d="m375.96875 483.15625v11.777344c0 4.710937-3.820312 8.53125-8.535156 8.53125h-85.332032c-4.714843 0-8.535156-3.820313-8.535156-8.53125v-11.777344c-.023437-3.242188 1.796875-6.21875 4.695313-7.679688l10.578125-5.203124c.585937-.265626 1.183594-.492188 1.792968-.683594v-17.324219c0-4.710937 3.820313-8.53125 8.535157-8.53125h51.199219c4.710937 0 8.535156 3.820313 8.535156 8.53125v17.324219c.609375.191406 1.207031.417968 1.789062.683594l10.582032 5.203124c2.898437 1.460938 4.714843 4.4375 4.695312 7.679688zm0 0" fill="#37474f"/><path d="m222.367188 491.691406v11.773438h-76.800782c-4.710937 0-8.53125-3.820313-8.53125-8.53125v-11.777344c-.023437-3.242188 1.792969-6.21875 4.691406-7.679688l10.582032-5.203124c.582031-.265626 1.179687-.492188 1.792968-.683594v-17.324219h42.664063c4.714844 0 8.535156 3.820313 8.535156 8.535156v17.320313c.609375.191406 1.210938.417968 1.792969.683594l10.578125 5.207031c2.898437 1.457031 4.71875 4.433593 4.695313 7.679687zm0 0" fill="#607d8b"/><path d="m358.902344 491.691406v11.773438h-76.800782c-4.714843 0-8.535156-3.820313-8.535156-8.53125v-11.777344c-.023437-3.242188 1.796875-6.21875 4.695313-7.679688l10.578125-5.203124c.585937-.265626 1.183594-.492188 1.792968-.683594v-17.324219h42.667969c4.710938 0 8.53125 3.820313 8.53125 8.535156v17.320313c.613281.191406 1.210938.417968 1.792969.683594l10.582031 5.207031c2.898438 1.457031 4.714844 4.433593 4.695313 7.679687zm0 0" fill="#607d8b"/><path d="m324.765625 72.535156c0 11.773438-25.855469 21.332032-68.265625 21.332032-3.667969 0-7.253906-.085938-10.667969-.257813-36.09375-1.449219-57.597656-10.324219-57.597656-21.074219 0-10.753906 21.503906-19.628906 57.597656-21.078125 3.414063-.171875 7-.257812 10.667969-.257812 42.410156 0 68.265625 9.558593 68.265625 21.335937zm0 0" fill="#00838f"/><path d="m303.433594 72.535156c0 10.75-21.503906 19.625-57.601563 21.074219-36.09375-1.449219-57.597656-10.324219-57.597656-21.074219 0-10.753906 21.503906-19.628906 57.597656-21.078125 36.097657 1.449219 57.601563 10.324219 57.601563 21.078125zm0 0" fill="#00bcd4"/><path d="m230.902344 101.171875v9.761719c0 14.136718 11.460937 25.601562 25.597656 25.601562 14.140625 0 25.601562-11.464844 25.601562-25.601562v-9.761719c32.484376-3.371094 51.199219-13.550781 51.199219-28.636719 0-18.699218-28.707031-29.867187-76.800781-29.867187s-76.800781 11.167969-76.800781 29.867187c0 15.085938 18.714843 25.265625 51.203125 28.636719zm34.132812 1.226563v8.535156c0 4.710937-3.820312 8.53125-8.535156 8.53125-4.710938 0-8.53125-3.820313-8.53125-8.53125v-8.535156zm-8.535156-42.664063c41.8125 0 58.445312 9.386719 59.734375 12.800781-1.261719 3.410156-17.921875 12.796875-59.734375 12.796875-42.238281 0-58.792969-9.597656-59.734375-12.6875.941406-3.3125 17.496094-12.910156 59.734375-12.910156zm0 0"/><path d="m222.367188 273.066406c0 14.140625 11.460937 25.601563 25.601562 25.601563h17.066406c14.136719 0 25.597656-11.460938 25.597656-25.601563 0-14.136718-11.460937-25.601562-25.597656-25.601562h-17.066406c-14.140625 0-25.601562 11.464844-25.601562 25.601562zm51.199218 0c0 4.714844-3.820312 8.535156-8.53125 8.535156h-17.066406c-4.714844 0-8.535156-3.820312-8.535156-8.535156 0-4.710937 3.820312-8.53125 8.535156-8.53125h17.066406c4.710938 0 8.53125 3.820313 8.53125 8.53125zm0 0"/><path d="m17.566406 435.199219h17.066406c9.425782 0 17.066407-7.640625 17.066407-17.066407v-25.597656c0-4.714844 3.820312-8.535156 8.535156-8.535156 4.710937 0 8.53125 3.820312 8.53125 8.535156v25.597656c0 9.425782 7.640625 17.066407 17.066406 17.066407h17.070313c9.421875 0 17.066406-7.640625 17.066406-17.066407v-25.597656c.097656-18.828125-8.773438-36.574218-23.894531-47.789062-.640625-.484375-1.355469-.851563-2.015625-1.289063 5.589844-4.8125 8.816406-11.8125 8.84375-19.191406v-34.132813c-.019532-8.65625-4.410156-16.71875-11.675782-21.425781l13.601563-38.921875c11.648437-1.90625 21.769531-9.078125 27.425781-19.4375 3.320313 1.332032 6.71875 2.628906 10.292969 3.832032l23.160156 69.398437c-19.117187 13.246094-19.203125 24.75-19.203125 43.675781.636719 10.582032 5.203125 20.546875 12.800782 27.9375-9.527344 17.417969-5.617188 39.121094 9.386718 52.121094-9.125 6.355469-14.570312 16.765625-14.589844 27.886719v2.375c-5.265624 3.023437-8.515624 8.621093-8.535156 14.691406v11.8125l-7.679687 3.769531c-5.785157 2.902344-9.425781 8.835938-9.386719 15.308594v11.777344c0 9.425781 7.640625 17.066406 17.066406 17.066406h85.335938c9.421875 0 17.066406-7.640625 17.066406-17.066406v-11.777344c.03125-6.503906-3.636719-12.457031-9.457031-15.359375l-7.609375-3.703125v-11.828125c-.019532-6.070313-3.273438-11.667969-8.535156-14.691406v-2.375c-.035157-7.703125-2.699219-15.167969-7.550782-21.152344 7.832032-3.664063 14.359375-9.632813 18.703125-17.109375 7.449219 2.359375 15.175781 3.75 22.980469 4.128906 7.804688-.378906 15.53125-1.769531 22.980469-4.128906 4.34375 7.476562 10.871093 13.445312 18.707031 17.109375-4.855469 5.984375-7.519531 13.449219-7.554688 21.152344v2.375c-5.261718 3.023437-8.515624 8.621093-8.53125 14.691406v11.8125l-7.679687 3.769531c-5.789063 2.902344-9.429687 8.835938-9.386719 15.308594v11.777344c0 9.425781 7.640625 17.066406 17.066406 17.066406h85.332032c9.425781 0 17.066406-7.640625 17.066406-17.066406v-11.777344c.03125-6.503906-3.632812-12.457031-9.453125-15.359375l-7.613281-3.703125v-11.828125c-.019532-6.070313-3.269532-11.667969-8.53125-14.691406v-2.375c-.015625-11.113281-5.453125-21.523438-14.566406-27.886719 15.003906-13 18.910156-34.703125 9.386718-52.121094 7.597656-7.390625 12.160156-17.355468 12.796875-27.9375 0-18.910156-.085937-30.429687-19.199219-43.675781l23.132813-69.390625c3.578125-1.203125 6.964844-2.5 10.292969-3.832031 5.652344 10.371093 15.777344 17.546875 27.433594 19.445312l13.59375 38.914063c-7.261719 4.707031-11.652344 12.765625-11.671876 21.417968v34.132813c.035157 9.914063 5.789063 18.917969 14.769532 23.109375-9.175782 12.914062-8.113282 30.480469 2.5625 42.1875l-15.875 23.84375c-2.25 3.382812-1.804688 7.886719 1.066406 10.761719l17.066406 17.066406c3.351563 3.234375 8.671875 3.1875 11.964844-.105469 3.289062-3.292968 3.335938-8.613281.101562-11.960937l-12.125-12.125 11.988282-18.007813c7.203125 2.707032 15.140625 2.707032 22.339844 0l11.992187 18.007813-12.125 12.125c-2.21875 2.140625-3.109375 5.3125-2.328125 8.296875s3.109375 5.3125 6.09375 6.09375 6.15625-.105469 8.296875-2.324219l17.070313-17.066406c2.871093-2.875 3.316406-7.378907 1.066406-10.761719l-15.875-23.84375c10.671875-11.707031 11.738281-29.273438 2.5625-42.1875 8.960937-4.207031 14.695312-13.207031 14.71875-23.109375v-34.132813c-.023438-12.378906-8.90625-22.96875-21.09375-25.148437l-22.1875-66.292969c.40625-2.207031.609375-4.449218.613281-6.691406-.054687-13.042969-6.730469-25.164062-17.722656-32.1875.386719-2.050781.605469-4.128906.65625-6.210938 0-22.632812-21.332031-42.746093-60.160157-57.011718-3.035156-40.464844-24.320312-96.589844-119.039062-96.589844s-116 56.125-119.039062 96.589844c-38.828126 14.265625-60.160157 34.378906-60.160157 57.011718.050781 2.082032.269531 4.160157.65625 6.210938-10.992187 7.023438-17.664062 19.144531-17.722656 32.1875.011719 2.246094.226563 4.484375.640625 6.691406l-22.1875 66.292969c-12.199219 2.167969-21.09375 12.761719-21.121094 25.148437v34.132813c.027344 7.394531 3.265625 14.410156 8.875 19.226563-.632812.445312-1.332031.777343-1.945312 1.246093-15.15625 11.199219-24.070313 28.949219-23.996094 47.796875v25.597656c0 9.425782 7.640625 17.066407 17.066406 17.066407zm0-17.066407v-17.066406h17.066406v17.066406zm68.265625 0v-17.066406h17.070313v17.066406zm-13.925781-198.671874c4.300781 4.191406 9.527344 7.3125 15.257812 9.113281l-12.558593 35.960937h-17.785157zm116.328125 198.671874c9.425781 0 17.066406 7.640626 17.066406 17.066407h-34.132812c0-9.425781 7.640625-17.066407 17.066406-17.066407zm42.667969 76.800782h-85.335938l-.074218-11.792969 10.144531-5.007813s.777343-.316406.851562-.351562c.078125-.035156.28125-.171875.445313-.230469.546875-.210937 1.074218-.484375 1.5625-.808593.453125-.246094.878906-.53125 1.277344-.855469.390624-.378907.742187-.792969 1.050781-1.238281.328125-.417969.613281-.867188.855469-1.339844.207031-.472656.367187-.96875.476562-1.476563.179688-.554687.296875-1.125.347656-1.707031 0-.175781.105469-.324219.105469-.5v-17.359375h51.199219v17.324219c.03125 2.628906 1.296875 5.089844 3.414062 6.648437.144532.117188.304688.195313.449219.296875.628906.445313 1.316406.796875 2.042969 1.050782.214844.125.4375.238281.664062.339843l10.523438 5.230469zm-34.136719-93.867188c-14.136719 0-25.597656-11.460937-25.597656-25.601562-.003907-2.816406.46875-5.613282 1.390625-8.277344 13.621094 9.988281 28.523437 18.09375 44.3125 24.089844-4.847656 6.171875-12.257813 9.78125-20.105469 9.789062zm143.675781-33.878906c.925782 2.664062 1.394532 5.460938 1.390625 8.277344-.011719 10.902344-6.929687 20.59375-17.226562 24.160156-10.300781 3.5625-21.730469.214844-28.476563-8.347656 15.789063-5.996094 30.695313-14.101563 44.3125-24.089844zm-15.675781 50.945312c9.425781 0 17.066406 7.640626 17.066406 17.066407h-34.132812c0-9.425781 7.640625-17.066407 17.066406-17.066407zm42.667969 76.800782h-85.332032l-.078124-11.792969 10.144531-5.007813s.777343-.316406.855469-.351562c.078124-.035156.28125-.171875.445312-.230469.546875-.210937 1.070312-.484375 1.558594-.808593.453125-.246094.882812-.53125 1.28125-.855469.386718-.378907.738281-.792969 1.050781-1.238281.324219-.417969.609375-.867188.851563-1.339844.210937-.472656.371093-.96875.476562-1.476563.179688-.554687.296875-1.125.351562-1.707031 0-.175781.101563-.324219.101563-.5v-17.359375h51.199219v17.324219c.035156 2.628906 1.296875 5.089844 3.414062 6.648437.144532.117188.308594.195313.453125.296875.625.445313 1.3125.796875 2.039063 1.050782.214844.125.4375.238281.667968.339843l10.519532 5.230469zm-18.003906-167.679688c-1.042969 7.9375-5.175782 15.144532-11.503907 20.054688-.121093.082031-.265625.101562-.382812.195312-.121094.09375-.28125.375-.460938.546875-20.644531 18.960938-61.808593 35.949219-80.582031 35.949219s-59.9375-16.988281-80.578125-35.992188c-.179687-.171874-.265625-.394531-.460937-.546874-.199219-.152344-.265626-.113282-.386719-.195313-6.316407-4.898437-10.449219-12.089844-11.5-20.011719 0-15.359375.066406-20.300781 7.804687-26.660156l2.945313 8.832031c4.574219 13.976563 17.636719 23.417969 32.339843 23.375h99.671876c14.6875.046875 27.738281-9.367187 32.324218-23.324219l2.960938-8.882812c7.738281 6.359375 7.808594 11.316406 7.808594 26.660156zm-26.976563-23.132812c-2.285156 6.957031-8.796875 11.644531-16.117187 11.613281h-99.671876c-7.335937.027344-13.855468-4.683594-16.136718-11.65625l-28.082032-84.15625c30.816407 7.253906 62.398438 10.769531 94.054688 10.476563 31.660156.292968 63.238281-3.222657 94.054688-10.476563zm118.613281-84.660156 15.113282 45.074218h-17.78125l-12.5625-35.960937c5.730468-1.796875 10.953124-4.917969 15.25-9.113281zm-5.367187 147.472656c0-9.425782 7.640625-17.066406 17.066406-17.066406s17.066406 7.640624 17.066406 17.066406c0 9.425781-7.640625 17.066406-17.066406 17.066406s-17.066406-7.640625-17.066406-17.066406zm42.667969-42.667969c0 4.714844-3.820313 8.535156-8.535157 8.535156h-34.132812c-4.710938 0-8.53125-3.820312-8.53125-8.535156v-34.132813c0-4.710937 3.820312-8.53125 8.53125-8.53125h34.132812c4.714844 0 8.535157 3.820313 8.535157 8.53125zm-42.667969-132.265625c-.015625 4.359375-1.359375 8.609375-3.855469 12.1875-.238281.246094-.460938.507812-.664062.78125-3.988282 5.269531-10.207032 8.363281-16.8125 8.363281-.570313.019531-1.140626.003907-1.707032-.050781-6.699218-.566406-12.742187-4.25-16.324218-9.941406 12.890624-6.144532 24.003906-15.46875 32.300781-27.09375 4.476562 4.015625 7.042969 9.738281 7.0625 15.753906zm-179.199219-174.933594c84.632812 0 102.402344 49.410156 102.402344 90.855469 0 22.449219-38.300782 45.679687-102.402344 45.679687s-102.398438-23.230468-102.398438-45.679687c0-41.445313 17.765626-90.855469 102.398438-90.855469zm-118.835938 97.742188c5.933594 32.757812 54.070313 55.859375 118.835938 55.859375 64.769531 0 112.90625-23.101563 118.835938-55.859375 27.28125 11.03125 43.296874 25.136718 43.296874 38.792968 0 28.730469-61.992187 59.730469-162.132812 59.730469-100.136719 0-162.132812-31-162.132812-59.730469 0-13.65625 16.015624-27.761718 43.296874-38.792968zm-53.265624 61.4375c8.296874 11.625 19.414062 20.945312 32.300781 27.09375-3.601563 5.726562-9.6875 9.425781-16.425781 9.992187-.371094.023438-.742188.023438-1.109376 0-6.765624.046875-13.167968-3.042969-17.339843-8.363281-.199219-.269531-.414063-.527344-.648438-.765625-6.214843-8.777344-4.824219-20.824219 3.222657-27.957031zm-41.230469 156.554687c-4.714844 0-8.535157-3.820312-8.535157-8.535156v-34.132813c0-4.710937 3.820313-8.53125 8.535157-8.53125h34.132812c4.710938 0 8.53125 3.820313 8.53125 8.53125v34.132813c0 4.714844-3.820312 8.535156-8.53125 8.535156zm-8.398438 25.597657c15.164063-11.160157 35.824219-11.160157 50.988281 0 8.386719 6.234374 14.164063 15.355468 16.210938 25.601562h-17.707031c-3.558594-10.222656-13.203125-17.074219-24.027344-17.074219-10.828125 0-20.46875 6.851563-24.03125 17.074219h-17.730469c2.074219-10.257812 7.882813-19.378906 16.296875-25.601562zm0 0"/></svg>