<svg height="512pt" viewBox="0 0 512.0321 512" width="512pt" xmlns="http://www.w3.org/2000/svg"><path d="m214.785156 410.726562v-.085937l21.078125-105.132813-26.113281-7.59375-52.226562 111.957032zm0 0" fill="#424242"/><path d="m297.214844 410.726562v-.085937l-21.078125-105.132813 26.113281-7.59375 52.226562 111.957032zm0 0" fill="#424242"/><path d="m221.695312 460.816406h-25.597656l-93.699218.171875c13.910156-22.101562 52.992187-53.25 78.507812-64.34375 4.820312-2.308593 10.03125-3.695312 15.359375-4.09375 20.992187 0 24.746094 40.957031 25.429687 68.265625zm0 0" fill="#9e9e9e"/><path d="m409.601562 460.988281h-25.601562l-93.695312-.171875c.511718-22.101562 3.070312-53.078125 15.1875-64.171875 2.765624-2.625 6.429687-4.089843 10.242187-4.09375 20.992187 0 76.628906 41.128907 93.867187 68.4375zm0 0" fill="#9e9e9e"/><path d="m200.363281 460.816406-93.695312.171875c13.90625-22.101562 52.992187-53.25 78.503906-64.34375 12.117187 11.09375 14.679687 42.070313 15.191406 64.171875zm0 0" fill="#cfd8dc"/><path d="m384 460.988281-93.695312-.171875c.511718-22.101562 3.070312-53.078125 15.1875-64.171875 25.515624 11.09375 64.597656 42.242188 78.507812 64.34375zm0 0" fill="#cfd8dc"/><path d="m85.332031 460.816406h136.363281v34.132813h-136.363281zm0 0" fill="#607d8b"/><path d="m290.132812 460.816406h136.363282v34.132813h-136.363282zm0 0" fill="#607d8b"/><path d="m88.320312 333.328125c13.828126-8.121094 22.402344-22.878906 22.613282-38.910156-.527344-20.601563-14.335938-38.484375-34.132813-44.203125h-34.132812c-19.796875 5.71875-33.609375 23.601562-34.132813 44.203125.207032 16.03125 8.785156 30.789062 22.613282 38.910156zm0 0" fill="#37474f"/><path d="m480.851562 333.328125c13.828126-8.121094 22.40625-22.878906 22.613282-38.910156-.523438-20.601563-14.335938-38.484375-34.132813-44.203125h-34.132812c-19.796875 5.71875-33.605469 23.601562-34.132813 44.203125.210938 16.03125 8.785156 30.789062 22.613282 38.910156zm0 0" fill="#37474f"/><path d="m155.390625 115.8125-44.628906 25.6875-13.738281-31.402344 48.8125-28.160156v-.085938zm0 0" fill="#424242"/><path d="m366.164062 81.851562v.085938l48.8125 28.160156-13.738281 31.402344-44.628906-25.6875zm0 0" fill="#424242"/><path d="m76.800781 170.683594v132.265625h-34.132812v-132.265625zm0 0" fill="#424242"/><path d="m469.332031 170.683594v132.265625h-34.132812v-132.265625zm0 0" fill="#424242"/><path d="m375.464844 187.75c0 65.980469-53.484375 119.464844-119.464844 119.464844-11.355469 0-22.648438-1.636719-33.535156-4.863282h-.257813c-36.996093-10.898437-66.453125-38.996093-79.085937-75.4375-12.632813-36.441406-6.886719-76.742187 15.429687-108.199218l60.160157-44.457032c12.035156-3.953124 24.621093-5.96875 37.289062-5.976562 4.246094.011719 8.492188.238281 12.714844.683594 8.351562.914062 16.585937 2.6875 24.574218 5.292968l60.160157 44.457032c14.328125 20.167968 22.023437 44.296875 22.015625 69.035156zm0 0" fill="#37474f"/><path d="m354.132812 183.484375c0 65.976563-53.488281 119.464844-119.464843 119.464844-4.078125.015625-8.148438-.183594-12.203125-.597657h-.257813c-36.996093-10.898437-66.453125-38.996093-79.085937-75.4375-12.632813-36.441406-6.886719-76.742187 15.429687-108.199218l60.160157-44.457032c12.035156-3.953124 24.621093-5.96875 37.289062-5.976562 4.246094.011719 8.492188.238281 12.714844.683594 1.109375.34375 2.132812.683594 3.242187 1.023437l60.160157 44.460938c14.324218 20.167969 22.019531 44.292969 22.015624 69.035156zm0 0" fill="#607d8b"/><path d="m85.332031 456.550781h8.535157c4.710937 0 8.53125 3.820313 8.53125 8.53125v25.601563c0 4.710937-3.820313 8.53125-8.53125 8.53125h-17.066407c-4.714843 0-8.535156-3.820313-8.535156-8.53125v-17.066406c0-9.425782 7.640625-17.066407 17.066406-17.066407zm0 0" fill="#37474f"/><path d="m230.398438 499.214844h-17.066407c-4.710937 0-8.53125-3.820313-8.53125-8.53125v-25.601563c0-4.710937 3.820313-8.53125 8.53125-8.53125h8.535157c9.425781 0 17.066406 7.640625 17.066406 17.066407v17.066406c0 4.710937-3.820313 8.53125-8.535156 8.53125zm0 0" fill="#37474f"/><path d="m324.265625 204.816406c0 37.703125-30.5625 68.265625-68.265625 68.265625-3.574219.015625-7.140625-.269531-10.667969-.851562-33.128906-5.289063-57.503906-33.867188-57.503906-67.414063 0-33.550781 24.375-62.125 57.503906-67.414062 3.527344-.582032 7.09375-.871094 10.667969-.851563 37.703125 0 68.265625 30.5625 68.265625 68.265625zm0 0" fill="#9e9e9e"/><path d="m302.933594 204.816406c0-37.230468-25.789063-67.414062-57.601563-67.414062-31.808593 0-57.597656 30.183594-57.597656 67.414062 0 37.230469 25.789063 67.414063 57.597656 67.414063 31.8125 0 57.601563-30.183594 57.601563-67.414063zm0 0" fill="#cfd8dc"/><path d="m221.867188 89.617188c.011718 4.390624-.738282 8.75-2.21875 12.882812-14.546876.945312-26.886719 11.023438-30.71875 25.089844-6.941407 1.058594-14.039063.140625-20.480469-2.644532-3.617188-1.523437-6.960938-3.628906-9.898438-6.230468-8.59375-7.214844-13.535156-17.878906-13.484375-29.097656-.03125-17.105469 11.289063-32.15625 27.734375-36.863282 3.460938-1.03125 7.054688-1.546875 10.664063-1.539062 10.195312-.035156 19.984375 4 27.195312 11.207031 7.207032 7.210937 11.242188 17 11.207032 27.195313zm0 0" fill="#9e9e9e"/><path d="m366.933594 89.617188c-.121094 21.15625-17.242188 38.277343-38.398438 38.398437-1.832031-.011719-3.65625-.152344-5.464844-.425781-.253906-.855469-.511718-1.792969-.851562-2.644532-4.605469-12.757812-16.332031-21.570312-29.867188-22.445312-1.480468-4.132812-2.230468-8.492188-2.21875-12.882812-.070312-17.121094 11.265626-32.191407 27.734376-36.863282 3.460937-1.03125 7.054687-1.546875 10.667968-1.539062 10.1875-.011719 19.960938 4.027344 27.167969 11.234375 7.203125 7.203125 11.242187 16.976562 11.230469 27.167969zm0 0" fill="#9e9e9e"/><path d="m200.535156 89.617188c.011719 4.390624-.738281 8.75-2.21875 12.882812-8.152344 7.597656-4.867187 12.628906-9.386718 25.089844-10.289063-2.382813-20.429688-5.34375-30.378907-8.875-8.59375-7.214844-13.535156-17.878906-13.484375-29.097656-.03125-17.105469 11.289063-32.15625 27.734375-36.863282 16.46875 4.671875 27.804688 19.742188 27.734375 36.863282zm0 0" fill="#cfd8dc"/><path d="m345.601562 89.617188c.046876 11.21875-4.890624 21.882812-13.484374 29.097656-2.9375 2.601562-6.28125 4.707031-9.898438 6.230468-4.605469-12.757812-16.332031-21.570312-29.867188-22.445312-1.480468-4.132812-2.230468-8.492188-2.21875-12.882812-.070312-17.121094 11.265626-32.191407 27.734376-36.863282 16.441406 4.707032 27.765624 19.757813 27.734374 36.863282zm0 0" fill="#cfd8dc"/><path d="m110.933594 145.082031c0 28.277344-22.921875 51.199219-51.199219 51.199219-3.585937.027344-7.164063-.347656-10.667969-1.109375-23.667968-5.007813-40.597656-25.898437-40.597656-50.089844 0-24.191406 16.929688-45.082031 40.597656-50.089843 3.503906-.761719 7.082032-1.132813 10.667969-1.109376 28.277344 0 51.199219 22.921876 51.199219 51.199219zm0 0" fill="#37474f"/><path d="m89.601562 145.082031c0-27.664062-18.148437-50.089843-40.535156-50.089843-22.386718 0-40.53125 22.425781-40.53125 50.089843 0 27.664063 18.144532 50.089844 40.53125 50.089844 22.386719 0 40.535156-22.425781 40.535156-50.089844zm0 0" fill="#607d8b"/><path d="m503.464844 145.082031c0 28.277344-22.921875 51.199219-51.199219 51.199219-3.585937.027344-7.160156-.347656-10.664063-1.109375-23.667968-5.007813-40.601562-25.898437-40.601562-50.089844 0-24.191406 16.933594-45.082031 40.601562-50.089843 3.503907-.761719 7.078126-1.132813 10.664063-1.109376 28.277344 0 51.199219 22.921876 51.199219 51.199219zm0 0" fill="#37474f"/><path d="m482.132812 145.082031c0-27.664062-18.148437-50.089843-40.53125-50.089843-22.386718 0-40.535156 22.425781-40.535156 50.089843 0 27.664063 18.148438 50.089844 40.535156 50.089844 22.382813 0 40.53125-22.425781 40.53125-50.089844zm0 0" fill="#607d8b"/><path d="m281.601562 187.75c0 9.425781-7.640624 17.066406-17.066406 17.066406-9.425781 0-17.070312-7.640625-17.070312-17.066406s7.644531-17.066406 17.070312-17.066406c9.425782 0 17.066406 7.640625 17.066406 17.066406zm0 0" fill="#f44335"/><g fill="#37474f"><path d="m145.066406 456.550781h17.066406c4.714844 0 8.535157 3.820313 8.535157 8.53125v25.601563c0 4.710937-3.820313 8.53125-8.535157 8.53125h-17.066406c-4.710937 0-8.53125-3.820313-8.53125-8.53125v-25.601563c0-4.710937 3.820313-8.53125 8.53125-8.53125zm0 0"/><path d="m435.199219 499.214844h-17.066407c-4.710937 0-8.53125-3.820313-8.53125-8.53125v-25.601563c0-4.710937 3.820313-8.53125 8.53125-8.53125h8.535157c9.425781 0 17.066406 7.640625 17.066406 17.066407v17.066406c0 4.710937-3.820313 8.53125-8.535156 8.53125zm0 0"/><path d="m290.132812 456.550781h8.535157c4.710937 0 8.53125 3.820313 8.53125 8.53125v25.601563c0 4.710937-3.820313 8.53125-8.53125 8.53125h-17.066407c-4.714843 0-8.535156-3.820313-8.535156-8.53125v-17.066406c0-9.425782 7.640625-17.066407 17.066406-17.066407zm0 0"/><path d="m366.933594 499.214844h-17.066406c-4.714844 0-8.535157-3.820313-8.535157-8.53125v-25.601563c0-4.710937 3.820313-8.53125 8.535157-8.53125h17.066406c4.710937 0 8.53125 3.820313 8.53125 8.53125v25.601563c0 4.710937-3.820313 8.53125-8.53125 8.53125zm0 0"/><path d="m102.398438 375.484375h-85.332032l25.601563-76.800781c-.007813-5.179688 2.347656-10.082032 6.398437-13.3125 3.011719-2.449219 6.785156-3.777344 10.667969-3.753906 9.414063.027343 17.039063 7.652343 17.066406 17.066406zm0 0"/><path d="m494.933594 375.484375h-85.332032l25.597657-76.800781c-.003907-5.179688 2.351562-10.082032 6.402343-13.3125 3.011719-2.449219 6.78125-3.777344 10.664063-3.753906 9.414063.027343 17.039063 7.652343 17.066406 17.066406zm0 0"/></g><path d="m81.066406 375.484375h-64l25.601563-76.800781c-.007813-5.179688 2.347656-10.082032 6.398437-13.3125 4.050782 3.230468 6.40625 8.132812 6.398438 13.3125zm0 0" fill="#607d8b"/><path d="m473.601562 375.484375h-64l25.597657-76.800781c-.003907-5.179688 2.351562-10.082032 6.402343-13.3125 4.046876 3.230468 6.402344 8.132812 6.398438 13.3125zm0 0" fill="#607d8b"/><path d="m59.734375 379.75c0 11.78125-9.550781 21.332031-21.335937 21.332031-11.78125 0-21.332032-9.550781-21.332032-21.332031s9.550782-21.332031 21.332032-21.332031c11.785156 0 21.335937 9.550781 21.335937 21.332031zm0 0" fill="#ff9801"/><path d="m102.398438 379.75c0 11.78125-9.550782 21.332031-21.332032 21.332031s-21.332031-9.550781-21.332031-21.332031 9.550781-21.332031 21.332031-21.332031 21.332032 9.550781 21.332032 21.332031zm0 0" fill="#ff9801"/><path d="m452.265625 379.75c0 11.78125-9.550781 21.332031-21.332031 21.332031s-21.332032-9.550781-21.332032-21.332031 9.550782-21.332031 21.332032-21.332031 21.332031 9.550781 21.332031 21.332031zm0 0" fill="#ff9801"/><path d="m494.933594 379.75c0 11.78125-9.550782 21.332031-21.332032 21.332031-11.785156 0-21.335937-9.550781-21.335937-21.332031s9.550781-21.332031 21.335937-21.332031c11.78125 0 21.332032 9.550781 21.332032 21.332031zm0 0" fill="#ff9801"/><path d="m290.132812 230.417969c0 4.710937-3.820312 8.53125-8.53125 8.53125-4.714843 0-8.535156-3.820313-8.535156-8.53125 0-4.714844 3.820313-8.535157 8.535156-8.535157 4.710938 0 8.53125 3.820313 8.53125 8.535157zm0 0"/><path d="m85.332031 153.617188c0 4.710937-3.820312 8.53125-8.53125 8.53125-4.714843 0-8.535156-3.820313-8.535156-8.53125 0-4.714844 3.820313-8.535157 8.535156-8.535157 4.710938 0 8.53125 3.820313 8.53125 8.535157zm0 0"/><path d="m443.734375 153.617188c0 4.710937-3.820313 8.53125-8.535156 8.53125-4.710938 0-8.53125-3.820313-8.53125-8.53125 0-4.714844 3.820312-8.535157 8.53125-8.535157 4.714843 0 8.535156 3.820313 8.535156 8.535157zm0 0"/><path d="m0 294.417969c.109375 16.5625 7.867188 32.148437 21.019531 42.222656l-12.050781 36.144531c-.425781 1.386719-.480469 2.855469-.164062 4.269532-.082032.902343-.269532 1.78125-.269532 2.703124-.019531 12.144532 7.332032 23.085938 18.578125 27.664063 11.25 4.578125 24.152344 1.878906 32.621094-6.824219 8.46875 8.703125 21.371094 11.402344 32.621094 6.824219 11.25-4.582031 18.597656-15.527344 18.578125-27.671875 0-.921875-.1875-1.800781-.273438-2.707031.316406-1.410157.261719-2.882813-.160156-4.265625l-12.050781-36.148438c13.148437-10.070312 20.902343-25.652344 21.015625-42.210937-.433594-21.949219-13.835938-41.550781-34.132813-49.921875v-45.523438c20.378907-9.691406 33.558594-30.042968 34.066407-52.601562l20.214843-11.628906c-28.660156 62.488281-2.613281 136.445312 58.878907 167.183593l-47.75 102.304688c-20.117188 13.28125-38.007813 29.660156-53.011719 48.53125-1.265625-.308594-2.5625-.46875-3.863281-.480469h-8.535157c-14.136719 0-25.597656 11.464844-25.597656 25.601562v17.066407c0 9.425781 7.640625 17.066406 17.066406 17.066406h17.066407c6.070312-.019531 11.667968-3.269531 14.695312-8.53125h19.4375c0 4.710937 3.820312 8.53125 8.535156 8.53125h34.132813c4.710937 0 8.53125-3.820313 8.53125-8.53125h19.441406c3.023437 5.261719 8.621094 8.511719 14.691406 8.53125h17.066407c9.425781 0 17.066406-7.640625 17.066406-17.066406v-17.066407c-.035156-10.960937-7.054688-20.675781-17.449219-24.148437-.238281-14.726563-2.40625-29.359375-6.441406-43.519531l19.078125-95.148438c8.875.945313 17.820312.945313 26.695312 0l19.078125 95.128906c-4.035156 14.164063-6.203125 28.796876-6.441406 43.519532-10.402344 3.476562-17.421875 13.203125-17.449219 24.167968v17.066407c0 9.425781 7.640625 17.066406 17.066406 17.066406h17.066407c6.070312-.019531 11.667969-3.269531 14.691406-8.53125h19.441406c0 4.710937 3.820313 8.53125 8.53125 8.53125h34.132813c4.714844 0 8.535156-3.820313 8.535156-8.53125h19.4375c3.027344 5.261719 8.625 8.511719 14.695312 8.53125h17.066407c9.425781 0 17.066406-7.640625 17.066406-17.066406v-17.066407c0-14.136718-11.460937-25.601562-25.597656-25.601562h-8.535157c-1.300781.011719-2.597656.171875-3.863281.480469-15.003906-18.871094-32.894531-35.25-53.011719-48.53125l-47.71875-102.304688c61.496094-30.738281 87.542969-104.695312 58.882813-167.183593l20.214844 11.628906c.5 22.550781 13.664062 42.898437 34.03125 52.601562v45.523438c-20.296875 8.371094-33.699219 27.972656-34.132813 49.921875.109375 16.5625 7.867188 32.148437 21.015625 42.222656l-12.050781 36.144531c-.421875 1.386719-.476562 2.855469-.160156 4.269532-.085938.902343-.273438 1.78125-.273438 2.703124-.015625 12.144532 7.332032 23.085938 18.582032 27.664063 11.246093 4.578125 24.148437 1.878906 32.617187-6.824219 8.472656 8.703125 21.375 11.402344 32.625 6.824219 11.25-4.582031 18.597656-15.527344 18.574219-27.671875 0-.921875-.1875-1.800781-.269532-2.707031.316407-1.410157.261719-2.882813-.164062-4.265625l-12.050781-36.148438c13.148437-10.070312 20.90625-25.652344 21.019531-42.210937-.4375-21.949219-13.839844-41.550781-34.132812-49.921875v-45.523438c20.96875-9.917968 34.292968-31.089844 34.164062-54.285156-.128906-23.199219-13.6875-44.21875-34.765625-53.902344-21.082031-9.683594-45.859375-6.277344-63.542969 8.738282l-40.203125-23.195313c-1.441406-4.863281-3.667969-9.460937-6.585937-13.609375v-28.570312c0-4.710938-3.820313-8.53125-8.535156-8.53125-4.710938 0-8.53125 3.820312-8.53125 8.53125v13.714843c-2.726563-1.398437-5.585938-2.523437-8.535157-3.363281v-35.949219c0-4.714843-3.820312-8.535156-8.53125-8.535156-4.714843 0-8.535156 3.820313-8.535156 8.535156v34.449219c-14.359375 1.289062-27.328125 9.109375-35.171875 21.203125-21.683594-5.792969-44.503906-5.792969-66.1875 0-9.945312-15.402344-27.949219-23.605469-46.097656-21-18.152344 2.609375-33.121094 15.546875-38.328125 33.125l-40.203125 23.195313c-17.683594-14.984376-42.445313-18.371094-63.503906-8.6875-21.058594 9.683593-34.601563 30.6875-34.742188 53.863281-.136719 23.179687 13.160156 44.339843 34.101562 54.273437v45.523438c-20.292968 8.371094-33.695312 27.972656-34.132812 49.921875zm17.066406 0c.222656-12.421875 6.625-23.914063 17.066406-30.644531v26.375c.011719 1.050781.226563 2.089843.625 3.0625-.222656 1.152343-.363281 2.316406-.417968 3.484374l-7.410156 22.1875c-6.261719-6.617187-9.785157-15.359374-9.863282-24.464843zm51.199219 4.265625c.054687.449218.144531.894531.265625 1.332031.019531.457031.074219.914063.171875 1.363281l16.296875 48.90625c-1.300781-.226562-2.613281-.359375-3.933594-.402344-8.039062.003907-15.734375 3.257813-21.332031 9.027344-5.597656-5.769531-13.296875-9.023437-21.335937-9.027344-1.316407.042969-2.632813.175782-3.933594.402344l16.300781-48.90625c.09375-.449218.152344-.90625.167969-1.363281.125-.4375.210937-.882813.265625-1.332031 0-4.714844 3.820312-8.535156 8.535156-8.535156 4.710937 0 8.53125 3.820312 8.53125 8.535156zm-29.867187 93.867187c-7.066407 0-12.796876-5.730469-12.796876-12.800781s5.730469-12.800781 12.796876-12.800781c7.070312 0 12.800781 5.730469 12.800781 12.800781s-5.730469 12.800781-12.800781 12.800781zm42.667968 0c-7.070312 0-12.800781-5.730469-12.800781-12.800781s5.730469-12.800781 12.800781-12.800781c7.070313 0 12.800782 5.730469 12.800782 12.800781s-5.730469 12.800781-12.800782 12.800781zm21.332032-98.132812c-.074219 9.109375-3.601563 17.855469-9.863282 24.472656l-7.40625-22.1875c-.054687-1.167969-.195312-2.332031-.417968-3.480469.398437-.976562.609374-2.019531.621093-3.074218v-26.375c10.445313 6.730468 16.84375 18.222656 17.066407 30.644531zm40.476562-181.25-25.910156 14.917969c-1.628906-5.488282-4.050782-10.707032-7.183594-15.5l27.367188-15.785157c.863281 5.765625 2.804687 11.320313 5.726562 16.367188zm-66.074219 381.78125v-17.066407c0-4.714843 3.820313-8.535156 8.53125-8.535156h8.535157v25.601563zm68.265625 0v-25.601563h17.066406v25.601563zm17.066406-42.667969h-17.066406c-9.425781 0-17.066406 7.640625-17.066406 17.066406v17.070313h-17.066406v-17.070313c-.023438-1.574218-.265625-3.140625-.726563-4.648437 17.339844-26.523438 69.992188-63.617188 86.058594-63.617188 3.652344 0 7.519531 3.824219 10.640625 12.902344v.085937c3.648438 12.4375 5.628906 25.304688 5.890625 38.261719-9.195313.292969-16.507813 7.816407-16.53125 17.015625v17.070313h-17.066406v-17.070313c0-9.425781-7.640625-17.066406-17.066407-17.066406zm68.265626 42.667969h-17.066407v-25.601563h8.535157c4.710937 0 8.53125 3.820313 8.53125 8.535156zm-19.957032-106.042969c-4.023437-3.207031-9.027344-4.933594-14.175781-4.890625-6.914063.507813-13.65625 2.386719-19.839844 5.523437l37.761719-80.949218c3.8125 1.332031 7.699219 2.46875 11.664062 3.414062zm71.160156 106.042969v-17.066407c0-4.714843 3.820313-8.535156 8.53125-8.535156h8.535157v25.601563zm68.265626 0v-25.601563h17.066406v25.601563zm68.265624-25.601563h8.535157c4.710937 0 8.53125 3.820313 8.53125 8.535156v17.066407h-17.066407zm-16.339843-4.648437c-.460938 1.507812-.703125 3.074219-.726563 4.648437v17.070313h-17.066406v-17.070313c0-9.425781-7.640625-17.066406-17.066406-17.066406h-17.066406c-9.425782 0-17.066407 7.640625-17.066407 17.066406v17.070313h-17.066406v-17.070313c-.023437-9.210937-7.355469-16.742187-16.5625-17.015625 1.917969-37.597656 9.632813-51.25 16.5625-51.25 16.066406 0 68.71875 37.09375 86.058594 63.617188zm-66.21875-75.160157c-6.183594-3.136718-12.925781-5.015624-19.839844-5.523437-5.148437-.042969-10.152344 1.683594-14.175781 4.890625l-15.410156-76.894531c3.980468-.957031 7.871093-2.09375 11.664062-3.414063zm59.460937-261.453124-25.925781-14.925782c2.925781-5.042968 4.871094-10.59375 5.742187-16.359375l27.367188 15.785157c-3.132812 4.792968-5.554688 10.011718-7.183594 15.5zm65.765625 170.597656c.054688.449218.140625.894531.265625 1.332031.015625.457031.074219.914063.167969 1.363281l16.300781 48.90625c-1.300781-.226562-2.617187-.359375-3.933594-.402344-8.039062.003907-15.738281 3.257813-21.335937 9.027344-5.597656-5.769531-13.292969-9.023437-21.332031-9.027344-1.320313.042969-2.632813.175782-3.933594.402344l16.296875-48.90625c.097656-.449218.152344-.90625.171875-1.363281.121094-.4375.210938-.882813.265625-1.332031 0-4.714844 3.820313-8.535156 8.53125-8.535156 4.714844 0 8.535156 3.820312 8.535156 8.535156zm-51.199219-4.265625c.222657-12.421875 6.621094-23.914063 17.066407-30.644531v26.375c.011719 1.050781.222656 2.089843.621093 3.0625-.222656 1.152343-.363281 2.316406-.417968 3.484374l-7.40625 22.1875c-6.261719-6.617187-9.785156-15.359374-9.863282-24.464843zm21.332032 98.132812c-7.070313 0-12.800782-5.730469-12.800782-12.800781s5.730469-12.800781 12.800782-12.800781c7.070312 0 12.800781 5.730469 12.800781 12.800781s-5.730469 12.800781-12.800781 12.800781zm42.667968 0c-7.070312 0-12.800781-5.730469-12.800781-12.800781s5.730469-12.800781 12.800781-12.800781c7.066407 0 12.796876 5.730469 12.796876 12.800781s-5.730469 12.800781-12.796876 12.800781zm21.332032-98.132812c-.078125 9.109375-3.601563 17.855469-9.863282 24.472656l-7.410156-22.1875c-.054687-1.167969-.195312-2.332031-.417968-3.480469.402343-.976562.613281-2.019531.625-3.074218v-26.375c10.441406 6.730468 16.84375 18.222656 17.066406 30.644531zm-34.132813-19.765625c-5.496093-2.09375-11.570312-2.09375-17.066406 0v-70.519532c5.652344.910157 11.414063.910157 17.066406 0zm34.132813-129.570313c0 23.566407-19.101563 42.667969-42.667969 42.667969-23.5625 0-42.664063-19.101562-42.664063-42.667969 0-23.5625 19.101563-42.664062 42.664063-42.664062 23.554687.027343 42.640625 19.113281 42.667969 42.664062zm-166.398438-85.332031c16.492188 0 29.863282 13.371094 29.863282 29.867188-.042969 16.210937-13.046876 29.410156-29.257813 29.695312-5.511719-12.480469-16.667969-21.5625-30.003906-24.429688-.3125-1.738281-.46875-3.5-.46875-5.265624-.03125-4.109376.800781-8.179688 2.4375-11.949219 4.785156-10.878907 15.542969-17.90625 27.429687-17.917969zm-45.980468 20.324219c-.636719 3.140625-.957032 6.335937-.953126 9.542969-.011718 5.320312.894532 10.601562 2.679688 15.613281v.171875c.15625.292968.328125.578125.519531.855468.304688.695313.699219 1.34375 1.175781 1.933594.425782.410156.890626.769532 1.390626 1.078125.382812.316407.792968.601563 1.222656.851563.761718.328125 1.570312.546875 2.398437.640625.269531 0 .5.195312.773438.214843 10.90625.683594 20.167969 8.230469 23.042969 18.773438v.050781c.273437.988281.726562 1.921875 1.339843 2.746094.179688.210937.375.414063.578125.605469.472656.558594 1.019532 1.046875 1.621094 1.460937.300781.179688.613281.347657.929688.492188.628906.320312 1.292968.554687 1.980468.703125.1875.078125.382813.148437.582032.203125 10.058593 1.519531 20.335937-.367188 29.199218-5.359375 28.003906 46.5625 18.160156 106.554687-23.253906 141.726562s-102.207031 35.171875-143.621094 0c-41.414062-35.171875-51.257812-95.164062-23.253906-141.726562 8.855469 5.007812 19.132812 6.898437 29.191406 5.375.195313-.054688.390625-.121094.578125-.203125.6875-.144531 1.355469-.382813 1.980469-.699219.320312-.148438.628906-.3125.929688-.496094.605468-.410156 1.148437-.902344 1.621093-1.457031.207031-.191406.398438-.394531.582031-.609375.609376-.824219 1.066407-1.753906 1.339844-2.746094v-.050781c2.875-10.542969 12.132813-18.089844 23.039063-18.773437.378906-.074219.753906-.171876 1.117187-.296876.699219-.101562 1.378906-.289062 2.03125-.554687.53125-.304687 1.027344-.664063 1.476563-1.078125.402343-.253906.785156-.539062 1.144531-.851562.507812-.621094.925781-1.304688 1.246094-2.039063.167968-.25.324218-.503906.46875-.769531v-.171875c1.808594-5.007813 2.734375-10.289063 2.746094-15.613281.003906-3.207032-.316407-6.402344-.953126-9.542969 17.441407-4.289063 35.667969-4.289063 53.109376 0zm-99.089844-20.324219c11.882812.011719 22.636718 7.042969 27.417968 17.917969 1.640626 3.769531 2.476563 7.839843 2.449219 11.949219 0 1.765624-.15625 3.527343-.46875 5.265624-13.335937 2.867188-24.492187 11.949219-30.003906 24.429688-16.210937-.277344-29.21875-13.480469-29.257813-29.695312 0-16.496094 13.371094-29.867188 29.863282-29.867188zm-166.398438 85.332031c0-23.5625 19.101563-42.664062 42.667969-42.664062 23.5625 0 42.664063 19.101562 42.664063 42.664062 0 23.566407-19.101563 42.667969-42.664063 42.667969-23.554687-.027344-42.640625-19.113281-42.667969-42.667969zm42.667969 59.734375c2.855469-.023437 5.707031-.253906 8.53125-.683594v70.519532c-5.496094-2.09375-11.570313-2.09375-17.066406 0v-70.519532c2.824219.429688 5.675781.660157 8.535156.683594zm0 0"/><path d="m179.199219 204.816406c0 42.414063 34.386719 76.800782 76.800781 76.800782s76.800781-34.386719 76.800781-76.800782c0-42.414062-34.386719-76.800781-76.800781-76.800781-42.394531.050781-76.75 34.40625-76.800781 76.800781zm76.800781-59.734375c32.988281 0 59.734375 26.746094 59.734375 59.734375 0 32.988282-26.746094 59.734375-59.734375 59.734375s-59.734375-26.746093-59.734375-59.734375c.039063-32.972656 26.761719-59.695312 59.734375-59.734375zm0 0"/><path d="m264.535156 213.347656c10.351563 0 19.6875-6.234375 23.648438-15.800781 3.964844-9.566406 1.773437-20.578125-5.546875-27.898437-7.324219-7.324219-18.335938-9.511719-27.898438-5.550782-9.566406 3.960938-15.804687 13.296875-15.804687 23.652344 0 14.136719 11.460937 25.597656 25.601562 25.597656zm0-34.132812c4.710938 0 8.53125 3.820312 8.53125 8.535156 0 4.710938-3.820312 8.53125-8.53125 8.53125-4.714844 0-8.535156-3.820312-8.535156-8.53125 0-4.714844 3.820312-8.535156 8.535156-8.535156zm0 0"/></svg>