<svg height="504pt" viewBox="0 0 504 504.24448" width="504pt" xmlns="http://www.w3.org/2000/svg"><path d="m322.257812 314.359375 22.613282 22.613281-29.957032 29.953125-22.609374-22.613281zm0 0" fill="#cfd8dc"/><path d="m427.949219 208.652344v-51.535156h41.96875v77.898437zm0 0" fill="#424242"/><path d="m273.089844 470.03125h48.515625l2.097656-33.570312h-38.859375zm0 0" fill="#5e5f62"/><path d="m281.066406 289.574219c10.910156-.085938 42.890625-5.371094 53.632813-7.21875 12.96875-1.496094 25.488281-5.671875 36.761719-12.253907 6.808593-5.9375 11.6875-13.769531 14.019531-22.496093h42.554687c-3.945312 31.726562-13.347656 64.546875-33.660156 71.34375zm0 0" fill="#424242"/><path d="m322.042969 25.179688h70.101562l2.230469 50.359374h-75.539062zm0 0" fill="#424242"/><path d="m374.652344 134.296875c-7.445313 12.597656-16.980469 23.839844-28.203125 33.234375-13.429688 11.835938-27.699219 22.664062-41.714844 33.910156l-36.257813 32.566406c-12.589843 13.933594-23.417968 32.0625-11.332031 47.929688l-106.175781-13.347656s-.421875-.585938-1.09375-1.679688c-4.027344-7.050781-16.449219-36.257812 34.664062-65.46875 24.691407-13.351562 50.300782-24.9375 76.632813-34.664062 20.90625-8.007813 40.421875-19.25 57.832031-33.320313 5.875-4.871093 13.765625-14.1875 22.496094-20.984375 3.886719-3.207031 8.320312-5.679687 13.09375-7.304687zm0 0" fill="#37474f"/><path d="m353.667969 130.097656c-7.445313 12.601563-16.980469 23.839844-28.203125 33.238282-13.425782 11.835937-27.695313 22.664062-41.714844 33.910156l-36.257812 32.566406c-12.589844 13.933594-23.417969 32.0625-11.332032 47.925781l-86.285156-10.828125c-4.027344-7.050781-16.449219-36.257812 34.664062-65.46875 24.691407-13.351562 50.300782-24.9375 76.632813-34.664062 20.90625-8.007813 40.421875-19.25 57.832031-33.320313 5.875-4.871093 13.765625-14.1875 22.496094-20.984375zm0 0" fill="#607d8b"/><path d="m469.917969 117.257812v50.609376h-58.753907c-4.636718 0-8.394531-3.757813-8.394531-8.390626v-42.21875zm0 0" fill="#9e9e9e"/><path d="m448.933594 117.257812v50.609376h-37.769532c-4.636718 0-8.394531-3.757813-8.394531-8.390626v-42.21875zm0 0" fill="#cfd8dc"/><path d="m486.621094 134.296875h-125.566406c-4.441407-.039063-8.121094-3.464844-8.476563-7.890625-2.308594-16.691406 4.59375-33.328125 18.046875-43.480469 14.265625-9.652343 9.734375-24.84375 3.019531-36.175781-2.480469-4.097656-3.164062-9.035156-1.894531-13.65625 1.269531-4.617188 4.382812-8.511719 8.609375-10.765625l8.8125-4.535156c.09375.011719.1875-.019531.253906-.082031l14.6875-7.472657c5.351563-2.796875 11.808594-2.410156 16.785157 1.007813 13.179687 8.8125 38.527343 27.449218 50.699218 45.996094 12.167969 18.550781 19.976563 50.445312 23.332032 66.8125.519531 2.503906-.113282 5.105468-1.722657 7.09375-1.613281 1.984374-4.03125 3.140624-6.585937 3.148437zm0 0" fill="#37474f"/><path d="m478.3125 134.296875h-117.257812c-4.441407-.039063-8.121094-3.464844-8.476563-7.890625-2.308594-16.691406 4.59375-33.328125 18.046875-43.480469 14.265625-9.652343 9.734375-24.84375 3.019531-36.175781-2.480469-4.097656-3.164062-9.035156-1.894531-13.65625 1.269531-4.617188 4.382812-8.511719 8.609375-10.765625l8.8125-4.535156c.09375.011719.1875-.019531.253906-.082031 4.921875-1.742188 10.382813-1.023438 14.6875 1.929687 13.175781 8.8125 38.527344 27.445313 50.695313 45.996094 12.171875 18.550781 19.976562 50.445312 23.335937 66.8125.136719.605469.195313 1.226562.167969 1.847656zm0 0" fill="#607d8b"/><path d="m335.621094 33.574219v25.179687c0 11.128906-4.417969 21.804688-12.289063 29.675782-7.871093 7.871093-18.546875 12.292968-29.675781 12.292968h-67.148438c-23.175781 0-41.96875-18.789062-41.96875-41.96875v-25.179687c0-13.90625 11.273438-25.179688 25.183594-25.179688h100.71875c13.90625 0 25.179688 11.273438 25.179688 25.179688zm0 0" fill="#9e9e9e"/><path d="m318.835938 33.574219v25.179687c0 11.128906-4.421876 21.804688-12.292969 29.675782-7.871094 7.871093-18.542969 12.292968-29.675781 12.292968h-50.359376c-23.175781 0-41.96875-18.789062-41.96875-41.96875v-25.179687c0-13.90625 11.273438-25.179688 25.183594-25.179688h83.933594c13.90625 0 25.179688 11.273438 25.179688 25.179688zm0 0" fill="#cfd8dc"/><path d="m469.917969 201.441406v33.574219c-.027344 9.261719-7.527344 16.761719-16.785157 16.789063h-167.871093c-9.257813-.027344-16.757813-7.527344-16.785157-16.789063v-16.785156c.027344-9.261719 7.527344-16.761719 16.785157-16.789063zm0 0" fill="#9e9e9e"/><path d="m448.933594 201.441406v33.574219c-.027344 9.261719-7.527344 16.761719-16.785156 16.789063h-146.886719c-9.257813-.027344-16.757813-7.527344-16.785157-16.789063v-16.785156c.027344-9.261719 7.527344-16.761719 16.785157-16.789063zm0 0" fill="#cfd8dc"/><path d="m243.292969 50.359375c0 9.273437-7.515625 16.789063-16.785157 16.789063-9.269531 0-16.785156-7.515626-16.785156-16.789063 0-9.269531 7.515625-16.785156 16.785156-16.785156 9.269532 0 16.785157 7.515625 16.785157 16.785156zm0 0" fill="#f44335"/><path d="m310.441406 50.359375c0 9.273437-7.515625 16.789063-16.785156 16.789063-9.273438 0-16.789062-7.515626-16.789062-16.789063 0-9.269531 7.515624-16.785156 16.789062-16.785156 9.269531 0 16.785156 7.515625 16.785156 16.785156zm0 0" fill="#f44335"/><path d="m394.375 316.683594v9.570312c-.003906 2.398438-1.035156 4.675782-2.832031 6.265625-1.796875 1.585938-4.1875 2.332031-6.566407 2.042969l-192.042968-24.003906s-33.070313 0-46.414063 17.625l-115.410156 57.328125h-.085937c-10.578126-2.484375-18.96875-10.523438-21.90625-20.984375-1.136719-10.203125 1.554687-20.460938 7.554687-28.789063 16.566406-29.566406 41.707031-53.414062 72.101563-68.40625 11.402343-5.050781 24.019531-6.710937 36.339843-4.785156l254.910157 37.519531c.605468.058594 1.199218.199219 1.761718.417969 7.421875 1.867187 12.613282 8.550781 12.589844 16.199219zm0 0" fill="#9e9e9e"/><path d="m381.785156 300.484375v8.980469c-.003906 2.398437-1.035156 4.679687-2.832031 6.265625-1.796875 1.589843-4.1875 2.332031-6.566406 2.046875l-192.042969-24.007813s-33.070312 0-46.414062 17.628907l-115.410157 57.324218h-.085937c-3.273438-.992187-6.402344-2.402344-9.316406-4.195312-1.136719-10.203125 1.554687-20.460938 7.554687-28.789063 16.566406-29.566406 41.707031-53.414062 72.101563-68.40625 11.402343-5.050781 24.019531-6.710937 36.339843-4.785156l254.910157 37.519531c.605468.058594 1.199218.199219 1.761718.417969zm0 0" fill="#cfd8dc"/><path d="m280.140625 457.695312c-9.789063 23.128907-32.460937 38.164063-57.578125 38.1875h-152.003906c-16.476563-.097656-32.238282-6.742187-43.816406-18.464843-18.054688-17.976563-23.3125-45.15625-13.261719-68.574219 1.902343-4.507812 4.355469-8.765625 7.304687-12.671875 7.691406-9.429687 17.269532-17.148437 28.117188-22.664063 5.625-3.1875 11.164062-6.460937 16.789062-9.652343 6.714844-3.945313 13.511719-7.890625 20.308594-11.667969 2.101562-1.257812 4.28125-2.515625 6.464844-3.777344 6.210937-3.609375 12.925781-7.636718 20.394531-11.160156l.671875-.335938c1.679688-.757812 3.441406-1.597656 5.289062-2.351562l3.777344-1.679688c3.71875-1.515624 7.566406-2.695312 11.5-3.523437h.167969c3.925781-.773437 7.914063-1.167969 11.917969-1.175781h1.175781c8.09375-.023438 16.113281 1.574218 23.585937 4.699218l9.566407 4.113282.167969.253906c7.386718 3.523438 14.183593 7.46875 20.3125 11.078125 2.265624 1.34375 4.363281 2.601563 6.546874 3.859375 6.796876 3.863281 13.597657 7.722656 20.394532 11.667969 5.539062 3.273437 11.164062 6.464843 16.703125 9.652343 10.816406 5.492188 20.367187 13.183594 28.035156 22.578126 2.988281 3.925781 5.46875 8.210937 7.386719 12.757812 6.613281 15.605469 6.644531 33.222656.082031 48.851562zm0 0" fill="#37474f"/><path d="m254.960938 453.496094c-9.789063 23.132812-32.460938 38.167968-57.578126 38.191406h-126.824218c-16.476563-.101562-32.238282-6.742188-43.816406-18.464844-18.054688-17.980468-23.3125-45.160156-13.261719-68.574218 1.902343-4.511719 4.355469-8.769532 7.304687-12.675782 7.691406-9.429687 17.269532-17.148437 28.117188-22.660156 5.625-3.191406 11.164062-6.464844 16.789062-9.652344 6.714844-3.945312 13.511719-7.890625 20.308594-11.667968 2.101562-1.257813 4.28125-2.519532 6.464844-3.777344 6.210937-3.609375 12.925781-7.636719 20.394531-11.164063l.671875-.335937c1.679688-.753906 3.441406-1.59375 5.289062-2.347656l3.777344-1.679688c3.71875-1.515625 7.566406-2.695312 11.5-3.527344h.167969c3.929687.832032 7.777344 2.011719 11.496094 3.527344l9.570312 4.113281.167969.25c7.386719 3.527344 14.183594 7.472657 20.3125 11.082031 2.265625 1.339844 4.363281 2.601563 6.546875 3.859376 6.796875 3.859374 13.597656 7.722656 20.394531 11.667968 5.539063 3.273438 11.164063 6.460938 16.703125 9.652344 10.816407 5.488281 20.363281 13.179688 28.035157 22.578125 2.988281 3.925781 5.46875 8.210937 7.386718 12.757813 6.613282 15.605468 6.644532 33.222656.082032 48.847656zm0 0" fill="#607d8b"/><g fill="#37474f"><path d="m176.148438 389.917969c0 16.015625-12.984376 29-29 29-16.015626 0-29-12.984375-29-29s12.984374-29 29-29c16.015624 0 29 12.984375 29 29zm0 0"/><path d="m100.605469 432.640625c0 16.015625-12.984375 29-29 29s-28.996094-12.984375-28.996094-29 12.980469-29 28.996094-29 29 12.984375 29 29zm0 0"/><path d="m251.6875 432.640625c0 16.015625-12.984375 29-29 29s-28.996094-12.984375-28.996094-29 12.980469-29 28.996094-29 29 12.984375 29 29zm0 0"/><path d="m491.992188 470.871094c-2.011719 4.648437-4.855469 8.886718-8.394532 12.507812-3.679687 3.683594-8.042968 6.621094-12.839844 8.644532-4.875 2.109374-10.132812 3.195312-15.445312 3.191406h-96.945312c-5.226563-.023438-10.394532-1.109375-15.191407-3.191406-.753906-.335938-1.511719-.671876-2.179687-1.007813-3.902344-1.90625-7.449219-4.460937-10.492188-7.554687-13.945312-13.917969-15.585937-35.953126-3.863281-51.785157 4.925781-6 11.042969-10.917969 17.964844-14.4375 3.523437-2.015625 7.132812-4.113281 10.65625-6.210937 4.28125-2.433594 8.648437-4.953125 12.925781-7.386719 1.429688-.753906 2.773438-1.59375 4.113281-2.433594 3.945313-2.265625 8.3125-4.867187 13.011719-7.050781l.417969-.253906c1.175781-.5 2.265625-1.003906 3.441406-1.507813l2.433594-1.007812c4.066406-1.753907 8.417969-2.75 12.84375-2.9375.726562-.070313 1.453125-.097657 2.183593-.085938h.667969c5.164063-.035156 10.277344.992188 15.027344 3.023438l6.125 2.515625.167969.253906c4.429687 2.125 8.742187 4.476562 12.925781 7.050781 1.429687.839844 2.769531 1.59375 4.199219 2.433594 4.277344 2.433594 8.644531 4.953125 12.925781 7.46875 3.609375 2.015625 7.132813 4.113281 10.660156 6.128906 6.90625 3.503907 12.996094 8.421875 17.875 14.4375 1.933594 2.453125 3.515625 5.167969 4.703125 8.058594 4.222656 9.941406 4.25 21.171875.082032 31.136719zm0 0"/></g><path d="m471.007812 466.675781c-2.011718 4.644531-4.855468 8.882813-8.390624 12.503907-3.683594 3.6875-8.042969 6.621093-12.84375 8.648437-4.875 2.105469-10.132813 3.191406-15.445313 3.1875h-93.332031c-3.902344-1.90625-7.449219-4.460937-10.492188-7.554687-13.945312-13.917969-15.585937-35.953126-3.863281-51.785157 4.925781-6 11.042969-10.917969 17.964844-14.4375 3.523437-2.015625 7.132812-4.113281 10.65625-6.210937 4.28125-2.433594 8.648437-4.953125 12.925781-7.386719 1.429688-.753906 2.773438-1.59375 4.113281-2.433594 3.945313-2.265625 8.3125-4.867187 13.011719-7.050781l.417969-.253906c1.175781-.5 2.265625-1.003906 3.441406-1.507813l2.433594-1.007812c4.066406-1.753907 8.417969-2.75 12.84375-2.9375l3.019531 1.257812.167969.253907c4.429687 2.125 8.742187 4.476562 12.925781 7.050781 1.429688.835937 2.773438 1.59375 4.199219 2.433593 4.28125 2.433594 8.644531 4.949219 12.925781 7.46875 3.609375 2.015626 7.132812 4.113282 10.660156 6.128907 6.90625 3.503906 12.996094 8.421875 17.878906 14.433593 1.929688 2.457032 3.511719 5.167969 4.699219 8.058594 4.222657 9.945313 4.253907 21.171875.082031 31.140625zm0 0" fill="#607d8b"/><path d="m427.949219 440.65625c0 11.589844-9.394531 20.984375-20.980469 20.984375-11.589844 0-20.984375-9.394531-20.984375-20.984375s9.394531-20.984375 20.984375-20.984375c11.585938 0 20.980469 9.394531 20.980469 20.984375zm0 0" fill="#37474f"/><path d="m360.804688 461.640625c0 4.632813-3.757813 8.390625-8.394532 8.390625-4.636718 0-8.394531-3.757812-8.394531-8.390625 0-4.636719 3.757813-8.394531 8.394531-8.394531 4.636719 0 8.394532 3.757812 8.394532 8.394531zm0 0"/><path d="m469.917969 461.640625c0 4.632813-3.757813 8.390625-8.394531 8.390625-4.632813 0-8.390626-3.757812-8.390626-8.390625 0-4.636719 3.757813-8.394531 8.390626-8.394531 4.636718 0 8.394531 3.757812 8.394531 8.394531zm0 0"/><path d="m147.148438 352.523438c-20.652344 0-37.394532 16.742187-37.394532 37.394531 0 20.652343 16.742188 37.390625 37.394532 37.390625 20.652343 0 37.390624-16.738282 37.390624-37.390625-.019531-20.640625-16.75-37.371094-37.390624-37.394531zm0 57.992187c-8.335938 0-15.851563-5.023437-19.039063-12.722656-3.1875-7.703125-1.425781-16.566407 4.472656-22.457031 5.894531-5.894532 14.757813-7.652344 22.457031-4.460938 7.699219 3.191406 12.71875 10.707031 12.714844 19.042969-.015625 11.371093-9.234375 20.585937-20.605468 20.597656zm0 0"/><path d="m71.605469 395.253906c-15.125 0-28.757813 9.113282-34.546875 23.085938-5.785156 13.976562-2.585938 30.058594 8.109375 40.753906 10.699219 10.691406 26.78125 13.890625 40.753906 8.097656 13.972656-5.789062 23.082031-19.425781 23.078125-34.550781-.023438-20.640625-16.753906-37.367187-37.394531-37.386719zm0 57.992188c-11.378907 0-20.605469-9.226563-20.605469-20.605469 0-11.382813 9.226562-20.605469 20.605469-20.605469 11.382812 0 20.605469 9.222656 20.605469 20.605469-.007813 11.375-9.226563 20.597656-20.605469 20.605469zm0 0"/><path d="m222.6875 395.253906c-15.125 0-28.757812 9.113282-34.546875 23.085938-5.785156 13.976562-2.585937 30.058594 8.109375 40.753906 10.695312 10.691406 26.78125 13.890625 40.753906 8.097656 13.972656-5.789062 23.082032-19.425781 23.078125-34.550781-.023437-20.640625-16.753906-37.367187-37.394531-37.386719zm0 57.992188c-8.332031 0-15.847656-5.019532-19.035156-12.71875-3.191406-7.703125-1.425782-16.566406 4.464844-22.457032 5.894531-5.894531 14.757812-7.65625 22.457031-4.46875 7.699219 3.191407 12.71875 10.703126 12.71875 19.039063-.007813 11.375-9.226563 20.597656-20.605469 20.605469zm0 0"/><path d="m167.753906 444.851562h-41.96875c-4.632812 0-8.390625 3.757813-8.390625 8.394532 0 4.636718 3.757813 8.394531 8.390625 8.394531h41.96875c4.636719 0 8.394532-3.757813 8.394532-8.394531 0-4.636719-3.757813-8.394532-8.394532-8.394532zm0 0"/><path d="m406.96875 470.03125c16.222656 0 29.375-13.152344 29.375-29.375 0-16.226562-13.152344-29.378906-29.375-29.378906-16.226562 0-29.378906 13.152344-29.378906 29.378906 0 7.789062 3.09375 15.261719 8.605468 20.773438 5.507813 5.507812 12.980469 8.601562 20.773438 8.601562zm0-41.964844c6.953125 0 12.589844 5.636719 12.589844 12.589844s-5.636719 12.589844-12.589844 12.589844c-6.957031 0-12.59375-5.636719-12.59375-12.589844s5.636719-12.589844 12.59375-12.589844zm0 0"/><path d="m309.710938 374.347656c6.265624.011719 12.3125-2.304687 16.964843-6.503906l30.964844-28.261719 35.695313 4.457031c2.382812.296876 4.78125-.441406 6.585937-2.027343 1.804687-1.585938 2.839844-3.871094 2.847656-6.273438v-11.484375c16.335938-8.777344 27.203125-30.308594 32.441407-64.058594h17.921874c13.90625 0 25.179688-11.273437 25.179688-25.179687v-92.328125h8.390625c5.082031-.011719 9.882813-2.316406 13.078125-6.265625s4.441406-9.125 3.390625-14.097656c-3.652344-17.625-11.691406-50.148438-24.492187-69.664063-12.800782-19.515625-38.777344-38.742187-53.046876-48.386718-7.527343-5.066407-17.210937-5.65625-25.296874-1.539063l-23.777344 12.089844c-1.066406.582031-2.085938 1.238281-3.054688 1.960937h-34.15625c-5.949218-10.351562-16.964844-16.7460935-28.90625-16.785156h-100.71875c-18.542968 0-33.574218 15.03125-33.574218 33.574219v25.179687c.027343 27.800782 22.558593 50.332032 50.359374 50.359375h67.148438c17.96875-.023437 34.5625-9.617187 43.542969-25.179687h19.808593c-3.847656 4.320312-6.882812 9.308594-8.945312 14.714844-10.050781 5.292968-19.054688 12.363281-26.582031 20.867187-2.90625 2.917969-5.648438 5.679687-7.832031 7.476563-16.738282 13.507812-35.492188 24.304687-55.582032 31.988281l-2.785156 1.109375c-25.753906 9.570312-50.792969 20.957031-74.9375 34.066406-26.261719 15-40.683594 30.921875-42.882812 47.332031-.6875 4.925781-.167969 9.941407 1.519531 14.621094l-12.707031-1.871094c-13.914063-2.160156-28.152344-.265625-41.019532 5.453125-31.941406 15.691406-58.375 40.699219-75.808594 71.722656-8.796874 14.707032-11.332031 27.824219-7.511718 38.953126 2.699218 7.421874 7.886718 13.675781 14.679687 17.695312-.839843 1-1.679687 1.980469-2.519531 3.0625-3.347656 4.460938-6.144531 9.308594-8.332031 14.4375-15.285157 36.101562 1.566406 77.757812 37.652343 93.082031 8.574219 3.648438 17.792969 5.550781 27.109376 5.601563h152.066406c9.464844.003906 18.832031-1.898438 27.546875-5.601563 8.535156-3.652343 16.285156-8.914062 22.828125-15.5 1.496094-1.519531 2.898437-3.097656 4.199218-4.71875h39.363282c2.140625 4.019531 4.832031 7.722657 7.992187 11.003907 4.398438 4.40625 9.609375 7.921874 15.34375 10.359374 5.839844 2.480469 12.117188 3.777344 18.464844 3.808594h96.941406c6.4375.003906 12.8125-1.292968 18.734375-3.808594 5.8125-2.484374 11.089844-6.066406 15.539063-10.550781 13.78125-13.90625 17.773437-34.769531 10.097656-52.777343-1.5-3.507813-3.414063-6.820313-5.710937-9.863282-5.5625-6.914062-12.511719-12.585937-20.402344-16.652344l-10.601563-6.113281c-4.355469-2.515625-8.703125-5.035156-13.085937-7.511719l-4.078125-2.355468c-3.683594-2.167969-7.832031-4.585938-12.378907-6.824219-.527343-.367187-1.089843-.675781-1.679687-.925781l-6.101563-2.574219c-6.023437-2.503906-12.496093-3.746094-19.019531-3.652344-6.34375-.023437-12.625 1.234375-18.464843 3.699219l-2.277344 1.007812c-1.25.53125-2.515625 1.074219-4.195313 1.855469-5.035156 2.394531-9.542969 5.035157-13.832031 7.554688l-3.828125 2.214843c-4.355469 2.46875-8.695313 4.980469-13.027344 7.488282-3.542969 2.066406-7.085937 4.105468-10.632812 6.128906-7.910157 4.078125-14.878907 9.765625-20.457031 16.703125-.34375.460937-.628907.972656-.957032 1.441406h-25.851562c-.546875-7.757812-2.367188-15.375-5.386719-22.542969-2.210937-5.136718-5.027344-9.988281-8.394531-14.453124-.4375-.582032-.90625-1.085938-1.351563-1.679688l19.859375-18.089844c3.667969 1.96875 7.761719 3.011719 11.925782 3.03125zm-60.894532-8.167968c-5.570312-3.171876-11.113281-6.378907-16.667968-9.601563-6.808594-3.945313-13.613282-7.882813-20.445313-11.75-1.949219-1.101563-3.902344-2.25-6.4375-3.726563-5.875-3.417968-12.40625-7.269531-19.558594-10.753906-.589843-.460937-1.238281-.84375-1.929687-1.140625l-9.578125-4.046875c-1.777344-.746094-3.589844-1.375-5.421875-1.96875 7.640625-2.570312 15.613281-3.996094 23.671875-4.242187l99.527343 12.449219c-7.355468 7.191406-9.539062 18.164062-5.496093 27.621093l-20.355469 18.578125c-5.453125-4.257812-11.242188-8.066406-17.308594-11.390625zm66.578125-10.757813c-3.472656 3.089844-8.78125 2.84375-11.953125-.554687-1.402344-1.542969-2.167968-3.558594-2.148437-5.640626 0-2.355468.976562-4.601562 2.703125-6.203124l9.804687-8.898438 21.914063 2.738281zm84.679688-49.832031c-3.605469-7.4375-10.648438-12.621094-18.824219-13.851563l-29.578125-4.355469c8.695313-2.011718 16.980469-5.515624 24.484375-10.347656 6.320312-4.214844 11.414062-10.023437 14.769531-16.839844h27.355469c-3.675781 22.109376-9.863281 37.476563-18.207031 45.417969zm-138.003907-31.394532c-2.132812-3.917968-3.777343-11.128906 3.878907-23.25 4.726562 5.824219 11.816406 9.21875 19.3125 9.25h85.210937c-1.152344 1.082032-2.390625 2.066407-3.703125 2.949219-10.308593 5.867188-21.699219 9.582031-33.488281 10.910157-15.964844 1.816406-32.011719 2.796874-48.078125 2.929687-.609375.054687-1.214844.183594-1.796875.375zm191.0625-30.785156h-167.871093c-4.636719 0-8.394531-3.757812-8.394531-8.394531v-16.785156c0-4.636719 3.757812-8.394531 8.394531-8.394531h4.917969l14.328124 14.328124c3.292969 3.179688 8.527344 3.136719 11.765626-.101562 3.238281-3.238281 3.285156-8.472656.101562-11.765625l-2.457031-2.460937h18.230469l14.328124 14.328124c3.292969 3.179688 8.527344 3.136719 11.765626-.101562 3.238281-3.238281 3.28125-8.472656.101562-11.765625l-2.460938-2.460937h18.230469l14.328125 14.328124c3.292969 3.179688 8.53125 3.136719 11.765625-.101562 3.238281-3.238281 3.285157-8.472656.105469-11.765625l-2.460938-2.460937h18.230469l14.328125 14.328124c3.292969 3.179688 8.527344 3.136719 11.765625-.101562s3.285157-8.472656.101563-11.765625l-2.457032-2.460937h21.703126v25.179687c0 4.636719-3.757813 8.394531-8.390626 8.394531zm-73.59375-100.722656h14.835938v16.789062c0 9.269532 7.515625 16.785157 16.789062 16.785157h8.394532v16.789062h-90.792969c7.804687-6.210937 15.671875-12.589843 23.222656-19.214843 10.59375-9.046876 19.867188-19.53125 27.550781-31.148438zm81.984376 50.363281h-25.179688v-16.789062h25.179688zm0-33.574219h-50.359376v-16.789062h50.359376zm-53.582032-141.773437c2.640625-1.382813 5.832032-1.195313 8.292969.484375 10.660156 7.195312 36.6875 25.851562 48.363281 43.648438 11.675782 17.792968 19.34375 50.636718 22.105469 64.066406l-125.671875-.144532c-2.023438-13.664062 3.441406-27.363281 14.316406-35.878906 3.921875-2.609375 7.179688-6.101562 9.511719-10.191406.28125-.460938.519531-.945312.703125-1.453125 4.648438-11.90625 2.90625-25.363281-4.613281-35.695313-1.34375-2.28125-1.703125-5.007812-.992188-7.554687.640625-2.234375 2.175781-4.105469 4.246094-5.164063zm-114.285156 74.625h-67.148438c-18.542968 0-33.574218-15.03125-33.574218-33.574219v-25.179687c0-9.273438 7.515625-16.789063 16.789062-16.789063h100.71875c9.273438 0 16.789063 7.515625 16.789063 16.789063v25.179687c0 18.542969-15.03125 33.574219-33.574219 33.574219zm50.359375-33.574219v-25.179687h19.1875c-.957031 6.015625.183594 12.179687 3.230469 17.457031 3.3125 4.71875 5.074218 10.351562 5.039062 16.117188h-28.210937c.484375-2.773438.738281-5.582032.753906-8.394532zm-187.113281 195.507813c-2.332032-2.988281-3.332032-6.800781-2.769532-10.550781.835938-6.160157 6.417969-18.890626 34.585938-34.992188 23.453125-12.703125 47.769531-23.742188 72.773438-33.027344l2.785156-1.109375c21.722656-8.332031 41.996094-20.03125 60.082031-34.664062 2.792969-2.308594 5.824219-5.347657 9.023437-8.5625 3.195313-3.210938 6.914063-6.921875 10.660157-10.121094 0 2.105469.074219 4.089844.214843 5.875.679688 8.007813 6.890626 14.4375 14.867188 15.394531-5.5625 6.714844-11.648438 12.980469-18.199219 18.734375-9.652343 8.511719-20.023437 16.703125-30.046875 24.625-3.023437 2.386719-6.039062 4.78125-9.046875 7.1875h-16.570312c-13.90625 0-25.179688 11.273438-25.179688 25.179688v12.679687c-14.269531 16.6875-17.71875 30.21875-16.234375 40.625l-84.707031-12.464844c-.191406-1.804687-.980469-3.496093-2.238281-4.808593zm-133.027344 85.789062c15.699219-28.109375 39.542969-50.800781 68.398438-65.089843 9.925781-4.375 20.902343-5.800782 31.617187-4.113282l254.941406 37.527344c4.113281.617188 7.15625 4.152344 7.152344 8.308594v9.542968l-192.007813-23.996093c-.347656-.046875-.695312-.070313-1.042968-.066407-1.441406 0-33.675782.242188-50.410156 17.84375-8.015626.371094-15.90625 2.140626-23.308594 5.238282l-3.652344 1.613281c-1.914062.835937-3.785156 1.675781-6.320312 2.816406-7.746094 3.679688-14.753907 7.789063-21.417969 11.703125-2.023438 1.183594-4.003907 2.359375-5.976563 3.464844-6.53125 3.695312-13.027344 7.460938-19.523437 11.214844l-.839844.511718c-5.59375 3.234376-11.171875 6.445313-16.726563 9.636719-5.269531 2.890625-10.34375 6.125-15.183593 9.683594-5.253907-1.863281-9.503907-5.8125-11.753907-10.910156-1.421874-8.785157.761719-17.773438 6.054688-24.929688zm219.714844 143.132813c-6.800782 2.871094-14.117188 4.328125-21.496094 4.28125h-151.570312c-7.070313-.046875-14.066407-1.5-20.570313-4.269532-13.246094-5.59375-23.722656-16.222656-29.117187-29.546874-5.394532-13.324219-5.265626-28.25.359374-41.480469 1.652344-3.878907 3.773438-7.542969 6.3125-10.910157 6.984376-8.53125 15.6875-15.496093 25.542969-20.4375 5.605469-3.199218 11.210938-6.449218 16.785157-9.6875l.839843-.511718c6.445313-3.726563 12.898438-7.460938 19.378907-11.128906 2.050781-1.160157 4.113281-2.375 6.714843-3.886719 6.171875-3.617188 12.550781-7.363281 20.261719-11.019531 1.621094-.757813 3.28125-1.496094 5.136719-2.277344l3.675781-1.628906c6.441406-2.691407 13.359375-4.0625 20.339844-4.027344h1.105468c6.980469-.035156 13.898438 1.335937 20.339844 4.027344l8.132813 3.433593c.410156.300781.847656.5625 1.308593.78125 7.042969 3.359375 13.429688 7.117188 20.261719 11.089844 2.03125 1.191406 4.046875 2.367187 6.058594 3.507813 6.792969 3.84375 13.546875 7.753906 20.3125 11.675781 5.597656 3.234375 11.191406 6.457031 16.789063 9.667969 7.015624 3.703124 13.542968 8.273437 19.421874 13.605468l.066407.109375.09375.066407c2.128906 2.035156 4.09375 4.234374 5.875 6.582031 2.539062 3.371093 4.667969 7.03125 6.335937 10.910156 3.21875 7.601563 4.65625 15.839844 4.199219 24.082031 0 .089844-.050781.167969-.050781.257813v.160156c-.707032 13.058594-6.195313 25.402344-15.421875 34.675781-4.984375 5.050782-10.902344 9.09375-17.421875 11.898438zm44.265625-22.242188c2.152343-5.160156 3.683593-10.5625 4.558593-16.089844h19.21875c-1.214843 5.511719-1.460937 11.191407-.730468 16.789063h-23.390625c.109375-.234375.269531-.464844.34375-.699219zm60.886719-36.433594c3.582031-2.039062 7.160156-4.113281 10.726562-6.1875 4.296875-2.484374 8.589844-4.953124 12.875-7.402343l4.382812-2.519531c3.851563-2.265626 7.847657-4.605469 12.589844-6.855469.996094-.460938 2.011719-.914063 3.214844-1.425781l2.308594-1.015626c3.957031-1.625 8.203125-2.417968 12.480468-2.328124 4.03125-.015626 8.027344.773437 11.75 2.328124l4.894532 2.0625c.3125.214844.644531.402344.988281.5625 4.367187 2.082032 8.394531 4.441407 12.523437 6.847657l4.070313 2.359375c4.324219 2.453125 8.613281 4.929687 12.925781 7.429687l10.703125 6.167969c5.890625 2.949219 11.105469 7.085938 15.316407 12.15625 7.078124 9.578125 8.132812 22.332031 2.730468 32.949219-5.402344 10.613281-16.335937 17.265625-28.246094 17.183593h-96.609374c-4.101563-.042968-8.15625-.898437-11.925782-2.519531-3.726562-1.582031-7.121094-3.859375-9.996094-6.714843-9.085937-9.050782-11.746093-22.722657-6.714843-34.519532.957031-2.25 2.183593-4.375 3.652343-6.332031 4.214844-5.097656 9.445313-9.261719 15.359376-12.226563zm0 0"/><path d="m226.507812 25.179688c-13.90625 0-25.179687 11.273437-25.179687 25.179687s11.273437 25.179687 25.179687 25.179687 25.179688-11.273437 25.179688-25.179687c0-6.675781-2.652344-13.082031-7.375-17.804687-4.722656-4.722657-11.125-7.375-17.804688-7.375zm0 33.574218c-4.636718 0-8.394531-3.757812-8.394531-8.394531 0-4.632813 3.757813-8.390625 8.394531-8.390625 4.636719 0 8.394532 3.757812 8.394532 8.390625 0 4.636719-3.757813 8.394531-8.394532 8.394531zm0 0"/><path d="m293.65625 25.179688c-13.90625 0-25.179688 11.273437-25.179688 25.179687s11.273438 25.179687 25.179688 25.179687 25.179688-11.273437 25.179688-25.179687c0-6.675781-2.652344-13.082031-7.375-17.804687-4.722657-4.722657-11.128907-7.375-17.804688-7.375zm0 33.574218c-4.636719 0-8.394531-3.757812-8.394531-8.394531 0-4.632813 3.757812-8.390625 8.394531-8.390625s8.394531 3.757812 8.394531 8.390625c0 4.636719-3.757812 8.394531-8.394531 8.394531zm0 0"/></svg>