<svg height="504pt" viewBox="-37 0 504 504.37036" width="504pt" xmlns="http://www.w3.org/2000/svg"><path d="m245.929688 301.164062-16.789063 54.222657h-33.574219l-16.785156-54.222657zm0 0" fill="#37474f"/><path d="m224.945312 301.164062-16.789062 54.222657h-12.589844l-16.785156-54.222657zm0 0" fill="#607d8b"/><path d="m103.238281 419.007812v67.316407c.332031 4.976562-3.414062 9.289062-8.390625 9.652343h-33.574218c-4.976563-.363281-8.726563-4.675781-8.394532-9.652343v-67.316407zm0 0" fill="#1566c0"/><path d="m371.832031 419.007812v67.316407c.328125 4.976562-3.417969 9.289062-8.394531 9.652343h-33.574219c-4.976562-.363281-8.726562-4.675781-8.394531-9.652343v-67.316407zm0 0" fill="#1566c0"/><path d="m82.257812 419.007812v67.316407c.332032 4.976562-3.417968 9.289062-8.394531 9.652343h-12.589843c-4.976563-.363281-8.726563-4.675781-8.394532-9.652343v-67.316407zm0 0" fill="#2296f3"/><path d="m350.847656 419.007812v67.316407c.332032 4.976562-3.417968 9.289062-8.394531 9.652343h-12.589844c-4.976562-.363281-8.726562-4.675781-8.394531-9.652343v-67.316407zm0 0" fill="#2296f3"/><path d="m329.863281 130.105469c-.003906 11.640625-1.757812 23.214843-5.203125 34.332031h-224.609375c-10.441406-33.761719-5-70.433594 14.792969-99.707031 19.792969-29.273438 51.800781-47.988281 87.019531-50.871094 3.441407-.335937 6.964844-.503906 10.492188-.503906 64.683593-.195313 117.285156 52.066406 117.507812 116.75zm0 0" fill="#4c8056"/><path d="m308.878906 130.105469c-.003906 11.640625-1.757812 23.214843-5.203125 34.332031h-203.625c-10.441406-33.761719-5-70.433594 14.792969-99.707031 19.792969-29.273438 51.800781-47.988281 87.019531-50.871094 60.410157 5.15625 106.863281 55.617187 107.015625 116.246094zm0 0" fill="#4caf50"/><path d="m262.714844 252.566406v41.96875c0 4.632813-3.757813 8.394532-8.394532 8.394532h-83.933593c-4.632813 0-8.390625-3.761719-8.390625-8.394532v-41.96875zm0 0" fill="#283593"/><path d="m241.730469 252.566406v41.96875c0 4.632813-3.757813 8.394532-8.390625 8.394532h-62.953125c-4.632813 0-8.390625-3.761719-8.390625-8.394532v-41.96875zm0 0" fill="#3f51b5"/><path d="m334.144531 171.488281-27.449219 75.539063c-1.183593 3.335937-4.347656 5.558594-7.886718 5.539062h-46.667969c-12.535156 5.53125-26.085937 8.390625-39.785156 8.394532-3.527344 0-7.050781-.167969-10.492188-.503907-10.101562-1.160156-19.976562-3.816406-29.292969-7.890625h-46.667968c-3.539063.019532-6.703125-2.203125-7.890625-5.539062l-27.445313-75.539063c-.929687-2.574219-.546875-5.4375 1.023438-7.675781 1.570312-2.238281 4.132812-3.570312 6.867187-3.574219h227.796875c2.734375.003907 5.296875 1.335938 6.867188 3.574219 1.570312 2.238281 1.953125 5.101562 1.023437 7.675781zm0 0" fill="#1566c0"/><path d="m313.160156 171.488281-27.445312 75.539063c-1.1875 3.335937-4.351563 5.558594-7.890625 5.539062h-46.667969c-9.316406 4.074219-19.191406 6.730469-29.292969 7.890625-3.441406.335938-6.964843.503907-10.492187.503907-13.699219-.003907-27.25-2.863282-39.785156-8.394532h-25.683594c-3.539063.019532-6.703125-2.203125-7.890625-5.539062l-27.445313-75.539063c-.929687-2.574219-.546875-5.4375 1.023438-7.675781 1.570312-2.238281 4.132812-3.570312 6.867187-3.574219h206.8125c2.734375.003907 5.296875 1.335938 6.867188 3.574219 1.570312 2.238281 1.953125 5.101562 1.023437 7.675781zm0 0" fill="#2296f3"/><path d="m136.8125 193.8125h50.363281v32.902344s-33.574219 8.226562-50.363281-32.902344zm0 0" fill="#f44335"/><path d="m287.894531 193.8125h-50.359375v32.902344s33.574219 8.226562 50.359375-32.902344zm0 0" fill="#f44335"/><path d="m237.535156 67.910156h41.96875v92.328125h-41.96875zm0 0" fill="#00695c"/><path d="m237.535156 67.910156h20.984375v92.328125h-20.984375zm0 0" fill="#009688"/><path d="m195.566406 94.097656v66.140625h-41.964844v-62.109375l20.984376-2.015625 7.636718-.753906zm0 0" fill="#00695c"/><path d="m107.4375 365.292969c8.738281 8.566406 13.300781 20.519531 12.496094 32.730469-.808594 12.210937-6.902344 23.460937-16.695313 30.804687-14.917969 11.191406-35.4375 11.191406-50.359375 0-2.742187-2.070313-5.222656-4.464844-7.386718-7.132813zm0 0" fill="#37474f"/><path d="m380.726562 419.679688c-9.648437 13.628906-26.460937 20.238281-42.808593 16.835937-16.347657-3.40625-29.121094-16.179687-32.527344-32.527344-3.40625-16.347656 3.207031-33.160156 16.835937-42.808593zm0 0" fill="#37474f"/><path d="m109.535156 358.074219c-5.203125 15.105469-22.160156 49.269531-72.265625 66.726562-14.691406 5.121094-22.75 4.953125-26.355469 1.679688-12.59375-11.417969 27.695313-60.769531 27.695313-60.769531 9.460937-10.433594 21.925781-17.679688 35.671875-20.730469 10.046875-2.046875 20.464844-1.203125 30.050781 2.433593 4.378907 1.507813 6.707031 6.277344 5.203125 10.660157zm0 0" fill="#1566c0"/><path d="m398.773438 426.480469c-1.679688-.421875-3.441407-1.007813-5.371094-1.679688-50.109375-17.457031-67.066406-51.621093-72.269532-66.726562-1.503906-4.382813.828126-9.152344 5.203126-10.660157 2.949218-1.0625 5.984374-1.878906 9.066406-2.433593 33.824218-6.714844 56.65625 20.730469 56.65625 20.730469s63.035156 77.21875 6.714844 60.769531zm0 0" fill="#1566c0"/><path d="m88.550781 358.074219c-5.203125 15.105469-22.15625 49.269531-72.265625 66.726562-1.929687.671875-3.695312 1.257813-5.371094 1.679688-12.59375-11.417969 27.695313-60.769531 27.695313-60.769531 9.460937-10.433594 21.925781-17.679688 35.671875-20.730469 3.085938.554687 6.117188 1.371093 9.066406 2.433593 4.378906 1.507813 6.707032 6.277344 5.203125 10.660157zm0 0" fill="#2296f3"/><path d="m398.773438 426.480469c-1.679688-.421875-3.441407-1.007813-5.371094-1.679688-50.109375-17.457031-67.066406-51.621093-72.269532-66.726562-1.503906-4.382813.828126-9.152344 5.203126-10.660157 2.949218-1.0625 5.984374-1.878906 9.066406-2.433593 13.75 3.050781 26.214844 10.296875 35.671875 20.730469 0 0 40.289062 49.351562 27.699219 60.769531zm0 0" fill="#2296f3"/><path d="m287.894531 446.707031v32.484375c-.027343 9.257813-7.527343 16.757813-16.785156 16.785156h-117.507813c-9.261718-.027343-16.761718-7.527343-16.789062-16.785156v-33.828125c.035156-1.796875.65625-3.535156 1.765625-4.949219 16.285156-21.816406 19.589844-50.699218 8.644531-75.625-1.070312-2.367187-.882812-5.109374.503906-7.304687 1.464844-2.605469 4.226563-4.214844 7.21875-4.195313h114.820313c2.792969-.039062 5.417969 1.335938 6.976563 3.65625 1.558593 2.320313 1.839843 5.269532.746093 7.84375-10.941406 25.347657-7.652343 54.59375 8.644531 76.882813 1.125 1.441406 1.742188 3.210937 1.761719 5.035156zm0 0" fill="#283593"/><path d="m266.914062 450.902344v32.484375c-.003906 4.839843-2.117187 9.441406-5.792968 12.589843h-107.519532c-9.261718-.027343-16.761718-7.527343-16.789062-16.785156v-33.828125c.035156-1.796875.65625-3.535156 1.765625-4.949219 16.285156-21.816406 19.589844-50.699218 8.644531-75.625-1.070312-2.367187-.882812-5.109374.503906-7.304687h101.054688c2.796875-.039063 5.417969 1.339844 6.976562 3.660156 1.558594 2.316407 1.839844 5.269531.746094 7.839844-10.941406 25.351563-7.652344 54.597656 8.644532 76.882813 1.125 1.441406 1.742187 3.210937 1.765624 5.035156zm0 0" fill="#3f51b5"/><path d="m237.535156 420.4375c0 13.90625-11.273437 25.179688-25.179687 25.179688-2.867188.015624-5.714844-.496094-8.394531-1.511719-10.054688-3.523438-16.789063-13.015625-16.789063-23.667969 0-10.65625 6.734375-20.148438 16.789063-23.671875 2.679687-1.015625 5.527343-1.527344 8.394531-1.511719 13.90625 0 25.179687 11.273438 25.179687 25.183594zm0 0" fill="#c52828"/><path d="m220.75 420.4375c0-13.074219-7.515625-23.671875-16.789062-23.671875-9.269532 0-16.785157 10.597656-16.785157 23.671875 0 13.070312 7.515625 23.667969 16.785157 23.667969 9.273437 0 16.789062-10.597657 16.789062-23.667969zm0 0" fill="#f44335"/><path d="m203.960938 94.097656-8.394532 14.523438-6.714844 11.664062h-30.296874l-4.953126-8.558594-8.5625-14.773437-1.59375-2.855469 15.109376-26.1875h30.296874zm0 0" fill="#00695c"/><path d="m174.585938 94.097656v66.140625h-20.984376v-48.511719l-8.5625-14.773437zm0 0" fill="#00695c"/><path d="m182.976562 94.097656-.753906 1.261719-7.636718 13.261719-6.714844 11.664062h-14.269532v-8.558594l-8.5625-14.773437-1.59375-2.855469 15.109376-26.1875h9.316406zm0 0" fill="#009688"/><path d="m254.320312 311.320312c9.273438 0 16.789063-7.515624 16.789063-16.785156v-33.574218h27.699219c7.050781-.015626 13.347656-4.421876 15.769531-11.046876l31.566406-86.804687c.9375-2.574219.5625-5.441406-1.011719-7.6875-1.570312-2.242187-4.136718-3.578125-6.875-3.574219h-2.796874c1.839843-8.527344 2.777343-17.222656 2.796874-25.945312 0-69.535156-56.371093-125.902344-125.902343-125.902344-69.535157 0-125.902344 56.367188-125.902344 125.902344.019531 8.722656.957031 17.417968 2.796875 25.945312h-2.796875c-2.738281-.003906-5.304687 1.332032-6.878906 3.574219-1.570313 2.246094-1.949219 5.113281-1.011719 7.6875l31.570312 86.804687c2.421876 6.625 8.71875 11.03125 15.769532 11.046876h27.699218v33.574218c0 9.269532 7.515626 16.785156 16.785157 16.785156h2.34375l11.1875 33.574219h-43.074219c-.261719 0-.472656.125-.722656.144531-.570313.050782-1.132813.167969-1.679688.34375-.535156.15625-1.046875.375-1.535156.644532-.242188.085937-.480469.183594-.714844.292968-.226562.152344-.34375.386719-.550781.554688-.445313.363281-.851563.769531-1.210937 1.21875-.320313.40625-.601563.839844-.839844 1.300781-.5.972657-.816406 2.03125-.921875 3.121094-.089844.253906-.164063.511719-.21875.773437.039062.253907.089843.503907.152343.753907.050782.570312.164063 1.132812.335938 1.679687.15625.546875.375 1.070313.644531 1.570313.085938.238281.183594.472656.292969.703125 7.398438 11.015625 11.34375 23.988281 11.332031 37.257812.0625 15.324219-5.207031 30.191406-14.90625 42.054688-.195312.3125-.367187.636718-.519531.972656-.316406.484375-.585938.996094-.796875 1.535156-.1875.925782-.375 1.851563-.5625 2.777344v36.597656c0 13.90625 11.273437 25.179688 25.179687 25.179688h117.507813c13.90625 0 25.179687-11.273438 25.179687-25.179688v-35.335937c-.050781-.382813-.125-.761719-.226562-1.136719-.054688-.585938-.171875-1.164062-.351562-1.726562-.21875-.539063-.503907-1.054688-.839844-1.527344-.164063-.359375-.351563-.703125-.5625-1.035156-9.9375-12.15625-15.191406-27.476563-14.804688-43.175782-.019531-13.28125 3.925782-26.265625 11.328125-37.289062.113281-.230469.210938-.464844.296875-.707032.269532-.496093.488282-1.023437.644532-1.570312.171874-.542969.285156-1.105469.335937-1.675781.0625-.238281.113281-.480469.152344-.722657-.039063-.261718-.089844-.519531-.160157-.773437-.109374-1.089844-.421874-2.148437-.925781-3.121094-.238281-.460937-.519531-.894531-.835937-1.300781-.359375-.449219-.765625-.855469-1.210938-1.21875-.210937-.167969-.328125-.402344-.554687-.554688-.226563-.109374-.464844-.207031-.703125-.292968-.492188-.269532-1.015625-.484375-1.554688-.644532-.546875-.171874-1.109375-.285156-1.675781-.335937-.257813-.066406-.511719-.117187-.773437-.152344h-43.074219l11.1875-33.574219zm-41.964843-293.769531c60.023437-.140625 108.832031 48.328125 109.113281 108.351563 0 8.746094-1.066406 17.457031-3.179688 25.945312h-30.394531v-83.9375c0-4.632812-3.757812-8.390625-8.390625-8.390625h-41.96875c-4.636718 0-8.394531 3.757813-8.394531 8.390625v83.9375h-25.179687v-40.9375l7.269531-12.589844c1.5-2.597656 1.5-5.796874 0-8.394531l-15.132813-26.210937c-1.496094-2.589844-4.253906-4.1875-7.246094-4.195313h-30.28125c-3 0-5.769531 1.597657-7.269531 4.195313l-15.109375 26.210937c-1.496094 2.597657-1.496094 5.796875 0 8.394531l9.015625 15.652344v37.875h-38.785156c-2.113281-8.488281-3.183594-17.199218-3.183594-25.945312.285157-60.023438 49.09375-108.492188 109.117188-108.351563zm58.753906 134.296875h-25.179687v-75.542968h25.179687zm-87.125-39.914062h-20.570313l-10.285156-17.808594 10.285156-17.820312h20.570313l10.28125 17.820312zm-21.988281 16.789062h25.179687v23.125h-25.179687zm-63.65625 39.632813c.546875.148437 1.109375.242187 1.675781.277343h224.644531c.566406-.035156 1.128906-.128906 1.675782-.277343l-27.527344 75.816406h-46.71875c-.539063.0625-1.066406.171875-1.585938.320313-.570312.066406-1.132812.191406-1.679687.371093h-.050781c-23.203126 10.195313-49.617188 10.195313-72.820313 0h-.050781c-1.089844-.242187-2.179688-.472656-3.273438-.691406h-46.726562zm72.046875 92.605469h.671875c26.394531 11.195312 56.199218 11.195312 82.59375 0h.667968v33.574218h-83.933593zm100.722656 226.621093h-117.507813c-4.636718 0-8.394531-3.757812-8.394531-8.390625v-33.835937c18.214844-24.054688 21.902344-56.113281 9.621094-83.671875h115.054687c-12.277343 28.011718-8.605468 60.453125 9.621094 85.015625v32.492187c0 4.632813-3.757812 8.390625-8.394531 8.390625zm-48.019531-142.6875h-21.46875l-11.191406-33.574219h43.847656zm0 0"/><path d="m189.171875 234.867188c3.753906-.921876 6.394531-4.285157 6.394531-8.152344v-32.902344c0-4.636719-3.757812-8.394531-8.390625-8.394531h-50.363281c-2.792969 0-5.40625 1.394531-6.96875 3.714843-1.558594 2.320313-1.859375 5.265626-.800781 7.851563 12.589843 30.929687 35.410156 38.90625 50.980469 38.90625 3.078124.023437 6.152343-.320313 9.148437-1.023437zm-10.390625-15.789063c-11.609375-.558594-22.167969-6.890625-28.125-16.871094h28.125zm0 0"/><path d="m235.539062 234.867188c2.996094.703124 6.066407 1.046874 9.148438 1.023437 15.570312 0 38.355469-7.976563 50.980469-38.90625 1.058593-2.585937.753906-5.53125-.804688-7.851563-1.558593-2.320312-4.171875-3.714843-6.96875-3.714843h-50.359375c-4.636718 0-8.394531 3.757812-8.394531 8.394531v32.902344c.003906 3.867187 2.644531 7.230468 6.398437 8.152344zm10.390626-32.660157h28.125c-5.953126 9.984375-16.515626 16.320313-28.125 16.878907zm0 0"/><path d="m18.769531 437.222656c7.28125-.355468 14.457031-1.875 21.257813-4.5 1.085937-.375 2.03125-.839844 3.089844-1.222656.429687.410156.925781.769531 1.367187 1.164062v54.917969c0 9.273438 7.515625 16.789063 16.789063 16.789063h33.574218c9.269532 0 16.785156-7.515625 16.785156-16.789063v-54.882812c10.625-9.554688 16.722657-23.152344 16.789063-37.445313.011719-11.804687-4.152344-23.238281-11.753906-32.269531 1.382812-3.570313 2.453125-7.253906 3.207031-11.003906.625-3.636719-1.203125-7.257813-4.496094-8.914063-28.425781-14.199218-62.882812-7.039062-83.296875 17.304688-15.664062 19.207031-40.289062 53.804687-29.050781 69.816406 3.703125 4.875 9.636719 7.527344 15.738281 7.035156zm42.503907 50.359375v-44.871093c10.855468 3.867187 22.714843 3.867187 33.574218 0v44.871093zm50.359374-92.328125c.019532 12.148438-6.539062 23.351563-17.140624 29.277344-10.601563 5.925781-23.582032 5.640625-33.914063-.738281 19.5-9.785157 35.933594-24.746094 47.496094-43.25 2.304687 4.5625 3.523437 9.597656 3.558593 14.710937zm-66.601562-24.171875c1.023438-1.199219 23.988281-27.699219 56.613281-15.71875-4.546875 13.429688-19.941406 45.054688-67.148437 61.515625-5.527344 2.558594-11.601563 3.710938-17.683594 3.355469-.941406-6.511719 12.179688-29.46875 28.21875-49.152344zm0 0"/><path d="m313.078125 495.976562c0 4.636719 3.757813 8.394532 8.390625 8.394532h41.96875c9.269531 0 16.785156-7.515625 16.785156-16.789063v-54.992187c1.015625-.921875 2.050782-1.8125 2.980469-2.796875 2.449219.992187 4.816406 2.023437 7.4375 2.9375 6.800781 2.621093 13.980469 4.140625 21.261719 4.492187 6.09375.476563 12.011718-2.175781 15.710937-7.042968 11.214844-16.011719-13.386719-50.613282-29.117187-69.882813-20.417969-24.300781-54.835938-31.429687-83.230469-17.238281-3.296875 1.660156-5.125 5.28125-4.496094 8.921875.414063 2.167969.960938 4.3125 1.625 6.417969-10.386719 9.605468-16.238281 23.152343-16.109375 37.300781.132813 14.148437 6.226563 27.585937 16.792969 37zm33.570313-8.394531h-16.785157v-44.871093c10.855469 3.875 22.71875 3.875 33.574219 0v44.871093zm38.90625-116.59375c16.132812 19.769531 29.25 42.714844 28.292968 49.269531-6.082031.359376-12.15625-.792968-17.683594-3.355468-47.1875-16.460938-62.589843-48.050782-67.148437-61.515625 32.667969-11.984375 55.589844 14.488281 56.539063 15.601562zm-18.761719 51.125c-10.171875 7.632813-23.785157 8.859375-35.15625 3.171875-11.375-5.6875-18.558594-17.3125-18.558594-30.03125.023437-7.136718 2.324219-14.082031 6.570313-19.824218 10.851562 19.804687 27.234374 36.027343 47.144531 46.683593zm0 0"/><path d="m212.355469 386.863281c-18.542969 0-33.574219 15.03125-33.574219 33.574219 0 18.539062 15.03125 33.570312 33.574219 33.570312 4.640625-.003906 9.230469-.984374 13.472656-2.867187.339844-.15625.671875-.335937.988281-.539063 14.160156-6.726562 21.757813-22.375 18.289063-37.660156s-17.074219-26.121094-32.75-26.078125zm-16.789063 33.574219c0-9.273438 7.515625-16.789062 16.789063-16.789062 9.269531 0 16.785156 7.515624 16.785156 16.789062 0 9.269531-7.515625 16.785156-16.785156 16.785156-9.273438 0-16.789063-7.515625-16.789063-16.785156zm0 0"/></svg>