<svg height="508pt" viewBox="-22 0 508 508.49724" width="508pt" xmlns="http://www.w3.org/2000/svg"><path d="m234.335938 260.949219h58.84375v168.53125h-58.84375zm0 0" fill="#e64c3c"/><path d="m118.878906 245.503906-15.277344 26.453125c-2.234374 4.640625-7.765624 6.648438-12.457031 4.523438l-13.140625-7.597657-1.621094-.9375c-4.21875-3.023437-5.242187-8.863281-2.304687-13.140624l14.675781-25.34375.597656-1.023438zm0 0" fill="#9e9e9e"/><path d="m58.375 213.757812-14.164062 24.578126c-2.300782 4.433593-7.746094 6.183593-12.203126 3.925781l-13.054687-7.511719-1.707031-1.023438c-4.148438-2.726562-5.328125-8.28125-2.644532-12.457031l13.652344-23.554687.597656-1.023438zm0 0" fill="#9e9e9e"/><path d="m101.8125 236.96875-15.277344 26.453125c-1.742187 3.144531-4.949218 5.195313-8.53125 5.460937l-1.621094-.9375c-4.21875-3.023437-5.242187-8.863281-2.304687-13.140624l14.675781-25.34375zm0 0" fill="#cfd8dc"/><path d="m41.308594 205.226562-14.164063 24.574219c-1.652343 2.992188-4.773437 4.878907-8.191406 4.949219l-1.707031-1.023438c-4.148438-2.726562-5.328125-8.28125-2.644532-12.457031l13.652344-23.554687zm0 0" fill="#cfd8dc"/><path d="m117.769531 247.464844-2.132812 3.753906-16.386719-9.472656-13.226562-7.679688c2.289062-3.910156 2.917968-8.570312 1.746093-12.945312-1.167969-4.375-4.042969-8.101563-7.972656-10.347656-3.902344-2.257813-8.550781-2.84375-12.886719-1.621094-2.296875.542968-4.433594 1.625-6.230468 3.15625-1.691407 1.269531-3.113282 2.867187-4.179688 4.691406l-12.542969-7.253906-16.984375-9.8125 2.132813-3.667969c12.984375-22.402344 41.648437-30.074219 64.085937-17.152344l7.425782 4.265625c22.421874 12.96875 30.097656 41.652344 17.152343 64.085938zm0 0" fill="#d84315"/><path d="m99.25 241.746094-13.226562-7.679688c2.289062-3.910156 2.917968-8.570312 1.746093-12.945312-1.167969-4.375-4.042969-8.101563-7.972656-10.347656-3.902344-2.257813-8.550781-2.84375-12.886719-1.621094-2.296875.542968-4.433594 1.625-6.230468 3.15625-.683594-.589844-1.425782-1.105469-2.21875-1.535156-3.898438-2.257813-8.546876-2.84375-12.882813-1.621094-.558594.144531-1.101563.34375-1.621094.59375l-16.984375-9.8125 2.132813-3.667969c6.433593-11.269531 17.300781-19.320313 29.953125-22.1875 4.492187 1.035156 8.808594 2.730469 12.800781 5.035156l7.425781 4.265625c20.320313 11.722656 28.851563 36.65625 19.964844 58.367188zm0 0" fill="#ff5722"/><path d="m405 371.882812v25.597657l-51.199219 51.199219h-170.667969l-51.199218-51.199219v-25.597657c0-4.714843 3.820312-8.535156 8.535156-8.535156h256c4.710938 0 8.53125 3.820313 8.53125 8.535156zm0 0" fill="#c52828"/><path d="m387.933594 371.882812v25.597657l-51.199219 51.199219h-153.601563l-51.199218-51.199219v-25.597657c0-4.714843 3.820312-8.535156 8.535156-8.535156h238.933594c4.710937 0 8.53125 3.820313 8.53125 8.535156zm0 0" fill="#f44335"/><path d="m234.335938 329.214844h59.730468c9.425782 0 17.066406 7.640625 17.066406 17.066406s-7.640624 17.066406-17.066406 17.066406h-59.730468c-9.425782 0-17.070313-7.640625-17.070313-17.066406s7.644531-17.066406 17.070313-17.066406zm0 0" fill="#c52828"/><path d="m200.199219 260.949219h128c9.425781 0 17.066406 7.640625 17.066406 17.066406v34.132813c0 9.425781-7.640625 17.066406-17.066406 17.066406h-128c-9.425781 0-17.066407-7.640625-17.066407-17.066406v-34.132813c0-9.425781 7.640626-17.066406 17.066407-17.066406zm0 0" fill="#c52828"/><path d="m200.199219 260.949219h110.933593c9.425782 0 17.066407 7.640625 17.066407 17.066406v34.132813c0 9.425781-7.640625 17.066406-17.066407 17.066406h-110.933593c-9.425781 0-17.066407-7.640625-17.066407-17.066406v-34.132813c0-9.425781 7.640626-17.066406 17.066407-17.066406zm0 0" fill="#f44335"/><path d="m388.957031 78.335938-6.910156 15.699218c-.066406.152344-.152344.296875-.257813.425782l-3.242187 7.339843-63.144531 136.535157-15.445313-3.585938-15.875-3.667969-2.300781-1.023437 65.621094-142.167969 22.527344-5.203125zm0 0" fill="#d84315"/><path d="m369.929688 82.6875-4.949219 11.347656c-.066407.152344-.152344.296875-.257813.425782l-3.242187 7.339843-61.523438 132.949219-15.875-3.667969-2.300781-1.023437 65.621094-142.167969zm0 0" fill="#ff5722"/><path d="m122.121094 103.933594 125.019531-94.328125 7.246094 36.898437-104.414063 79.15625zm0 0" fill="#f44335"/><path d="m153.265625 131.839844-34.21875 59.050781c-1.105469 1.972656-2.957031 3.417969-5.140625 4.011719-2.179688.59375-4.511719.285156-6.464844-.855469l-12.710937-7.339844h-.085938l-16.726562-9.726562c-1.976563-1.125-3.417969-2.992188-4.011719-5.1875-.59375-2.195313-.285156-4.535157.855469-6.503907l34.21875-59.050781c1.457031-2.648437 4.226562-4.3125 7.253906-4.351562h.082031c1.503906.023437 2.972656.4375 4.269532 1.195312l29.523437 17.066407c1.976563 1.125 3.417969 2.992187 4.011719 5.1875.59375 2.195312.285156 4.535156-.855469 6.503906zm0 0" fill="#37474f"/><path d="m136.199219 123.304688-34.21875 59.050781c-1.457031 2.652343-4.226563 4.3125-7.25 4.351562h-.085938l-16.726562-9.726562c-1.976563-1.125-3.417969-2.992188-4.011719-5.1875-.59375-2.195313-.285156-4.535157.855469-6.503907l34.21875-59.050781c1.457031-2.648437 4.226562-4.3125 7.253906-4.351562h.082031l16.726563 9.726562c1.976562 1.128907 3.417969 2.996094 4.011719 5.191407.59375 2.191406.285156 4.535156-.855469 6.5zm0 0" fill="#607d8b"/><path d="m388.957031 78.335938-6.910156 15.699218c-1.941406 4.28125-6.976563 6.191406-11.265625 4.265625l-9.898438-4.351562-13.480468-6.058594-93.015625-41.386719-13.480469-5.972656c-2.074219-.914062-3.695312-2.617188-4.511719-4.730469-.816406-2.113281-.761719-4.460937.15625-6.53125l6.914063-15.703125c1.9375-4.28125 6.976562-6.1875 11.265625-4.265625l106.578125 47.445313 23.296875 10.324218c2.074219.914063 3.695312 2.617188 4.511719 4.730469.816406 2.113281.757812 4.464844-.160157 6.535157zm0 0" fill="#c52828"/><path d="m371.890625 74.066406-6.910156 15.703125c-.832031 1.832031-2.28125 3.3125-4.097657 4.179688l-13.480468-6.058594-93.015625-41.386719-13.480469-5.972656c-2.074219-.914062-3.695312-2.617188-4.511719-4.730469-.816406-2.113281-.761719-4.460937.15625-6.53125l6.914063-15.703125c.828125-1.832031 2.28125-3.3125 4.097656-4.179687l96.679688 43.09375 23.296874 10.324219c2.070313.914062 3.695313 2.617187 4.511719 4.730468.816407 2.113282.757813 4.460938-.160156 6.53125zm0 0" fill="#f44335"/><g fill="#ff9801"><path d="m183.132812 448.679688c0 28.277343-22.921874 51.203124-51.199218 51.203124-2.863282.003907-5.71875-.253906-8.53125-.769531-24.625-4.140625-42.660156-25.460937-42.660156-50.433593 0-24.96875 18.035156-46.289063 42.660156-50.429688 2.8125-.519531 5.667968-.773438 8.53125-.769531 13.578125 0 26.601562 5.394531 36.203125 14.996093 9.601562 9.601563 14.996093 22.625 14.996093 36.203126zm0 0"/><path d="m319.667969 448.679688c0 28.277343-22.921875 51.203124-51.199219 51.203124-2.863281.003907-5.71875-.253906-8.535156-.769531-24.625-4.140625-42.65625-25.460937-42.65625-50.433593 0-24.96875 18.03125-46.289063 42.65625-50.429688 2.816406-.519531 5.671875-.773438 8.535156-.769531 28.277344 0 51.199219 22.921875 51.199219 51.199219zm0 0"/><path d="m456.199219 448.679688c0 28.277343-22.921875 51.203124-51.199219 51.203124-2.859375.003907-5.71875-.253906-8.53125-.769531-24.625-4.140625-42.660156-25.460937-42.660156-50.433593 0-24.96875 18.035156-46.289063 42.660156-50.429688 2.8125-.519531 5.671875-.773438 8.53125-.769531 28.277344 0 51.199219 22.921875 51.199219 51.199219zm0 0"/></g><path d="m166.066406 448.679688c0-27.851563-19.101562-50.429688-42.664062-50.429688-23.566406 0-42.667969 22.578125-42.667969 50.429688 0 27.855468 19.101563 50.433593 42.667969 50.433593 23.5625 0 42.664062-22.578125 42.664062-50.433593zm0 0" fill="#fec108"/><path d="m302.601562 448.679688c0-27.851563-19.101562-50.429688-42.667968-50.429688-23.5625 0-42.667969 22.578125-42.667969 50.429688 0 27.855468 19.105469 50.433593 42.667969 50.433593 23.566406 0 42.667968-22.578125 42.667968-50.433593zm0 0" fill="#fec108"/><path d="m439.132812 448.679688c0-27.851563-19.101562-50.429688-42.664062-50.429688-23.566406 0-42.667969 22.578125-42.667969 50.429688 0 27.855468 19.101563 50.433593 42.667969 50.433593 23.5625 0 42.664062-22.578125 42.664062-50.433593zm0 0" fill="#fec108"/><path d="m311.132812 260.949219h-40.269531c-2.625 0-5.109375-1.210938-6.726562-3.285157-1.617188-2.070312-2.1875-4.773437-1.550781-7.324218l4.269531-17.066406c.949219-3.796876 4.363281-6.457032 8.277343-6.457032h36c4.714844 0 8.535157 3.820313 8.535157 8.53125v17.066406c0 4.714844-3.820313 8.535157-8.535157 8.535157zm0 0" fill="#c52828"/><path d="m140.46875 448.679688c0 4.714843-3.820312 8.535156-8.535156 8.535156-4.710938 0-8.53125-3.820313-8.53125-8.535156 0-4.710938 3.820312-8.53125 8.53125-8.53125 4.714844 0 8.535156 3.820312 8.535156 8.53125zm0 0"/><path d="m277 448.679688c0 4.714843-3.820312 8.535156-8.53125 8.535156-4.714844 0-8.535156-3.820313-8.535156-8.535156 0-4.710938 3.820312-8.53125 8.535156-8.53125 4.710938 0 8.53125 3.820312 8.53125 8.53125zm0 0"/><path d="m413.535156 448.679688c0 4.714843-3.820312 8.535156-8.535156 8.535156-4.710938 0-8.53125-3.820313-8.53125-8.535156 0-4.710938 3.820312-8.53125 8.53125-8.53125 4.714844 0 8.535156 3.820312 8.535156 8.53125zm0 0"/><path d="m234.335938 295.082031c0 4.710938-3.824219 8.53125-8.535157 8.53125-4.714843 0-8.535156-3.820312-8.535156-8.53125 0-4.714843 3.820313-8.535156 8.535156-8.535156 4.710938 0 8.535157 3.820313 8.535157 8.535156zm0 0"/><path d="m285.535156 295.082031c0 4.710938-3.820312 8.53125-8.535156 8.53125-4.710938 0-8.53125-3.820312-8.53125-8.53125 0-4.714843 3.820312-8.535156 8.53125-8.535156 4.714844 0 8.535156 3.820313 8.535156 8.535156zm0 0"/><path d="m413.535156 389.628906v-17.746094c0-9.425781-7.640625-17.066406-17.066406-17.066406h-78.371094c2.09375-5.5 2.09375-11.574218 0-17.070312h10.101563c14.140625 0 25.601562-11.460938 25.601562-25.597656v-34.132813c0-14.140625-11.460937-25.601563-25.601562-25.601563v-16.527343l61.175781-137.492188c.1875-.324219.351562-.636719.480469-.917969l3.351562-7.621093 3.566407-8.003907c1.84375-4.140624 1.96875-8.839843.34375-13.070312-1.625-4.226562-4.863282-7.636719-9.003907-9.476562l-129.886719-57.828126c-4.132812-1.84375-8.832031-1.964843-13.054687-.34375-1.589844.625-3.074219 1.488282-4.402344 2.5625-.460937.183594-.902343.410157-1.316406.679688l-118.484375 89.730469c-7.5-2.136719-15.496094 1.082031-19.421875 7.824219l-34.132813 59.101562c-1.316406 2.300781-2.066406 4.878906-2.195312 7.527344-4.738281.015625-9.457031.628906-14.042969 1.832031-14.234375 3.769531-26.367187 13.074219-33.699219 25.839844l-2.132812 3.6875-12.800781 22.1875c-2.265625 3.917969-2.882813 8.574219-1.714844 12.949219s4.023437 8.105468 7.945313 10.371093l14.769531 8.535157c2.59375 1.503906 5.539062 2.292968 8.535156 2.285156 6.109375.011718 11.757813-3.242188 14.8125-8.535156l12.800781-22.183594c1.148438-1.996094 3.074219-3.425782 5.316406-3.953125 2.144532-.589844 4.4375-.28125 6.347657.855469 1.960937 1.132812 3.390625 2.996093 3.976562 5.1875.582031 2.1875.273438 4.515624-.863281 6.476562l-12.796875 22.1875c-2.269531 3.917969-2.886719 8.578125-1.71875 12.949219 1.167969 4.375 4.027344 8.105469 7.945313 10.371093l14.78125 8.535157c8.15625 4.714843 18.59375 1.925781 23.3125-6.230469l12.800781-22.1875 2.125-3.6875c7.40625-12.71875 9.417969-27.875 5.582031-42.085938-1.242188-4.585937-3.066406-9-5.429688-13.125 2.234376-1.417968 4.101563-3.34375 5.453126-5.621093l34.132812-59.09375c1.667969-2.886719 2.449219-6.203125 2.246094-9.53125l92.613281-70.214844 80.605469 35.894531-56.074219 126.027344h-4.914063c-7.835937-.003906-14.664062 5.328125-16.5625 12.929688l-4.269531 17.066406c-.328125 1.351562-.492187 2.742187-.484375 4.136718h-53.617187c-14.136719 0-25.597657 11.460938-25.597657 25.601563v34.132813c0 14.136718 11.460938 25.597656 25.597657 25.597656h10.105469c-2.09375 5.496094-2.09375 11.570312 0 17.070312h-69.835938c-9.425781 0-17.066406 7.640625-17.066406 17.066406v17.746094c-30.496094 4.359375-52.671875 31.191406-51.214844 61.960938 1.457031 30.765625 26.070312 55.382812 56.839844 56.839844 30.769531 1.457031 57.597656-20.722657 61.957031-51.214844h18.433594c4.214843 29.371094 29.378906 51.175781 59.050781 51.175781 29.667969 0 54.832031-21.804687 59.050781-51.175781h18.429688c4.359375 30.492187 31.191406 52.671875 61.957031 51.214844 30.769531-1.457032 55.386719-26.074219 56.84375-56.839844 1.457031-30.769532-20.722656-57.601563-51.214844-61.960938zm-32.375-314.707031-2.765625 6.289063-4.15625 9.386718-23.246093-10.410156c-.035157-.03125-.078126-.0625-.117188-.085938-.050781-.003906-.105469-.003906-.15625 0l-106.390625-47.402343 6.960937-15.632813zm-304.796875 189.875 12.800781-22.1875c3.398438-5.882813 4.320313-12.875 2.558594-19.4375-1.761718-6.5625-6.058594-12.15625-11.945312-15.546875-12.261719-7-27.871094-2.8125-34.984375 9.382812l-12.800781 22.1875-14.773438-8.53125 12.800781-22.1875 2.132813-3.6875c5.089844-8.824218 13.484375-15.261718 23.324218-17.890624 9.84375-2.628907 20.328126-1.238282 29.140626 3.871093l7.390624 4.265625c8.816407 5.101563 15.246094 13.496094 17.871094 23.335938 2.628906 9.839844 1.242188 20.320312-3.859375 29.136718l-2.132812 3.695313-12.800781 22.1875zm35.347657-78.140625-29.550782-17.066406 34.132813-59.101563 29.550781 17.066407zm41.8125-74.394531-16.027344-9.265625 89.953125-68.140625c.664062 5.945312 4.460937 11.074219 9.949219 13.449219l.347656.164062zm198.203124-13.070313 15.546876 6.917969-50.386719 113.238281c-1.84375-.6875-3.789063-1.046875-5.753907-1.066406h-12.40625zm-76.59375 136.15625h36v17.066406h-40.277343zm-83.464843 76.800782v-34.132813c0-4.714844 3.820312-8.535156 8.53125-8.535156h128c4.714843 0 8.535156 3.820312 8.535156 8.535156v34.132813c0 4.710937-3.820313 8.53125-8.535156 8.53125h-128c-4.710938 0-8.53125-3.820313-8.53125-8.53125zm34.132812 34.132812c0-4.710938 3.820313-8.535156 8.535157-8.535156h59.730468c4.714844 0 8.535156 3.824218 8.535156 8.535156s-3.820312 8.535156-8.535156 8.535156h-59.730468c-4.714844 0-8.535157-3.824218-8.535157-8.535156zm8.535157 25.601562h162.132812v17.746094c-26.164062 3.804688-46.714844 24.355469-50.519531 50.519532h-18.429688c-4.21875-29.371094-29.382812-51.175782-59.050781-51.175782-29.671875 0-54.835938 21.804688-59.050781 51.175782h-18.433594c-3.804687-26.164063-24.355469-46.714844-50.515625-50.519532v-17.746094zm-102.402344 119.464844c-23.5625 0-42.667969-19.101562-42.667969-42.667968 0-23.5625 19.105469-42.664063 42.667969-42.664063 23.566406 0 42.667968 19.101563 42.667968 42.664063-.027343 23.554687-19.113281 42.640624-42.667968 42.667968zm136.535156 0c-23.566406 0-42.667969-19.101562-42.667969-42.667968 0-23.5625 19.101563-42.664063 42.667969-42.664063 23.5625 0 42.664062 19.101563 42.664062 42.664063-.027343 23.554687-19.113281 42.640624-42.664062 42.667968zm136.53125 0c-23.5625 0-42.664062-19.101562-42.664062-42.667968 0-23.5625 19.101562-42.664063 42.664062-42.664063 23.566406 0 42.667969 19.101563 42.667969 42.664063-.027344 23.554687-19.113281 42.640624-42.667969 42.667968zm0 0"/></svg>