<svg height="512pt" viewBox="-85 0 512 512.23738" width="512pt" xmlns="http://www.w3.org/2000/svg"><path d="m128.121094 8.640625h85.332031c37.703125 0 68.269531 30.5625 68.269531 68.265625v110.933594c0 37.703125-30.566406 68.265625-68.269531 68.265625h-85.332031c-37.703125 0-68.265625-30.5625-68.265625-68.265625v-110.933594c0-37.703125 30.5625-68.265625 68.265625-68.265625zm0 0" fill="#558b30"/><path d="m128.121094 8.640625h64c37.703125 0 68.265625 30.5625 68.265625 68.265625v110.933594c0 37.703125-30.5625 68.265625-68.265625 68.265625h-64c-37.703125 0-68.265625-30.5625-68.265625-68.265625v-110.933594c0-37.703125 30.5625-68.265625 68.265625-68.265625zm0 0" fill="#8bc34a"/><path d="m59.855469 102.507812v76.796876h-25.601563c-14.136718 0-25.597656-11.460938-25.597656-25.597657v-25.601562c0-14.136719 11.460938-25.597657 25.597656-25.597657zm0 0" fill="#2e7d32"/><path d="m332.921875 128.105469v25.601562c0 14.136719-11.460937 25.597657-25.601563 25.597657h-25.597656v-76.796876h25.597656c14.140626 0 25.601563 11.460938 25.601563 25.597657zm0 0" fill="#2e7d32"/><path d="m38.519531 102.507812v76.796876h-4.265625c-14.136718 0-25.597656-11.460938-25.597656-25.597657v-25.601562c0-14.136719 11.460938-25.597657 25.597656-25.597657zm0 0" fill="#4caf50"/><path d="m311.585938 128.105469v25.601562c0 14.136719-11.460938 25.597657-25.597657 25.597657h-4.265625v-76.796876h4.265625c14.136719 0 25.597657 11.460938 25.597657 25.597657zm0 0" fill="#4caf50"/><path d="m42.789062 25.707031c0 9.425781-7.640624 17.066407-17.066406 17.066407-9.425781 0-17.066406-7.640626-17.066406-17.066407s7.640625-17.066406 17.066406-17.066406c9.425782 0 17.066406 7.640625 17.066406 17.066406zm0 0" fill="#ffeb3a"/><path d="m239.054688 119.574219c0 9.425781-7.640626 17.066406-17.066407 17.066406s-17.066406-7.640625-17.066406-17.066406 7.640625-17.066407 17.066406-17.066407 17.066407 7.640626 17.066407 17.066407zm0 0" fill="#cfd8dc"/><path d="m239.054688 192.105469c-.078126 16.460937-13.40625 29.789062-29.867188 29.867187h-76.800781c-7.921875 0-15.515625-3.148437-21.117188-8.746094-5.601562-5.601562-8.75-13.199218-8.75-21.121093.082031-16.460938 13.40625-29.785157 29.867188-29.867188h76.800781c16.496094 0 29.867188 13.371094 29.867188 29.867188zm0 0" fill="#9e9e9e"/><path d="m221.988281 192.105469c-.078125 16.460937-13.40625 29.789062-29.867187 29.867187h-59.734375c-7.921875 0-15.515625-3.148437-21.117188-8.746094-5.601562-5.601562-8.75-13.199218-8.75-21.121093.082031-16.460938 13.40625-29.785157 29.867188-29.867188h59.734375c16.496094 0 29.867187 13.371094 29.867187 29.867188zm0 0" fill="#ecf0f1"/><path d="m119.585938 256.105469h102.402343v34.132812h-102.402343zm0 0" fill="#2e7d32"/><path d="m119.585938 256.105469h81.070312v34.132812h-81.070312zm0 0" fill="#4caf50"/><path d="m230.519531 443.839844c0 15.84375-6.292969 31.035156-17.492187 42.238281-11.203125 11.203125-26.398438 17.496094-42.238282 17.496094-3.582031.007812-7.15625-.335938-10.667968-1.027344-28.40625-5.121094-49.066406-29.84375-49.066406-58.707031 0-28.863282 20.660156-53.585938 49.066406-58.710938 3.511718-.691406 7.085937-1.03125 10.667968-1.023437 32.988282 0 59.730469 26.742187 59.730469 59.734375zm0 0" fill="#2e7d32"/><path d="m209.1875 443.839844c0-32.425782-21.96875-58.710938-49.066406-58.710938s-49.066406 26.285156-49.066406 58.710938c0 32.421875 21.96875 58.707031 49.066406 58.707031s49.066406-26.285156 49.066406-58.707031zm0 0" fill="#4caf50"/><path d="m187.855469 452.371094c0 9.425781-7.640625 17.066406-17.066407 17.066406-9.425781 0-17.066406-7.640625-17.066406-17.066406 0-9.425782 7.640625-17.066406 17.066406-17.066406 9.425782 0 17.066407 7.640624 17.066407 17.066406zm0 0" fill="#ffeb3a"/><path d="m179.320312 93.972656c0 23.5625-19.101562 42.667969-42.664062 42.667969-2.839844.019531-5.671875-.265625-8.449219-.855469h-.171875c-19.886718-4.035156-34.175781-21.519531-34.175781-41.8125 0-20.292968 14.289063-37.773437 34.175781-41.8125h.171875c2.777344-.589844 5.609375-.875 8.449219-.855468 11.3125 0 22.167969 4.496093 30.167969 12.5 8 8 12.496093 18.851562 12.496093 30.167968zm0 0" fill="#9e9e9e"/><path d="m162.253906 93.972656c-.019531 20.242188-14.230468 37.691406-34.046875 41.8125h-.171875c-19.886718-4.035156-34.175781-21.519531-34.175781-41.8125 0-20.292968 14.289063-37.773437 34.175781-41.8125h.171875c19.816407 4.121094 34.027344 21.574219 34.046875 41.8125zm0 0" fill="#f5f5f5"/><path d="m68.386719 338.113281v80.125h-42.664063v-77.3125l21.332032-1.363281zm0 0" fill="#558b30"/><path d="m315.855469 340.925781v77.3125h-42.15625l-.511719-78.675781v-1.449219zm0 0" fill="#558b30"/><path d="m47.054688 339.5625v78.675781h-21.332032v-77.3125zm0 0" fill="#4caf50"/><path d="m294.519531 340.925781v77.3125h-20.820312l-.511719-78.675781zm0 0" fill="#4caf50"/><path d="m76.921875 439.574219c0 16.492187-13.371094 29.863281-29.867187 29.863281-3.65625.023438-7.28125-.671875-10.667969-2.046875-11.554688-4.386719-19.195313-15.457031-19.195313-27.816406s7.640625-23.433594 19.195313-27.820313c3.386719-1.375 7.011719-2.070312 10.667969-2.046875 16.496093 0 29.867187 13.371094 29.867187 29.867188zm0 0" fill="#2e7d32"/><path d="m324.386719 439.574219c0 16.492187-13.371094 29.863281-29.867188 29.863281-3.652343.023438-7.277343-.671875-10.664062-2.046875-11.554688-4.386719-19.195313-15.457031-19.195313-27.816406s7.640625-23.433594 19.195313-27.820313c3.386719-1.375 7.011719-2.070312 10.664062-2.046875 7.921875 0 15.519531 3.144531 21.121094 8.746094s8.746094 13.199219 8.746094 21.121094zm0 0" fill="#2e7d32"/><path d="m324.386719 320.105469c0 16.496093-13.371094 29.867187-29.867188 29.867187-3.679687.023438-7.332031-.671875-10.75-2.046875-3.238281-1.191406-6.222656-2.984375-8.789062-5.292969l-3.839844-41.042968c3.3125-4.199219 7.707031-7.417969 12.714844-9.300782 3.386719-1.375 7.011719-2.070312 10.664062-2.050781 16.496094 0 29.867188 13.371094 29.867188 29.867188zm0 0" fill="#2e7d32"/><g fill="#4caf50"><path d="m55.585938 439.574219c0-15.367188-8.59375-27.820313-19.199219-27.820313-10.601563 0-19.199219 12.453125-19.199219 27.820313 0 15.363281 8.597656 27.816406 19.199219 27.816406 10.605469 0 19.199219-12.453125 19.199219-27.816406zm0 0"/><path d="m55.585938 320.105469c0-15.363281-8.59375-27.816407-19.199219-27.816407-10.601563 0-19.199219 12.453126-19.199219 27.816407s8.597656 27.820312 19.199219 27.820312c10.605469 0 19.199219-12.457031 19.199219-27.820312zm0 0"/><path d="m303.054688 439.574219c0-15.367188-8.597657-27.820313-19.199219-27.820313-10.605469 0-19.199219 12.453125-19.199219 27.820313 0 15.363281 8.59375 27.816406 19.199219 27.816406 10.601562 0 19.199219-12.453125 19.199219-27.816406zm0 0"/><path d="m61.9375 301.589844-4.875 41.042968c-3.390625 2.375-7.160156 4.164063-11.144531 5.292969-13.417969-2.824219-23.375-14.148437-24.464844-27.820312 1.066406-13.640625 10.976563-24.957031 24.355469-27.816407 6.0625 1.714844 11.605468 4.914063 16.128906 9.300782zm0 0"/><path d="m303.054688 320.105469c.003906 12.386719-7.683594 23.476562-19.285157 27.820312-3.238281-1.191406-6.222656-2.984375-8.789062-5.292969l-3.839844-41.042968c3.3125-4.199219 7.707031-7.417969 12.714844-9.300782 11.566406 4.371094 19.214843 15.453126 19.199219 27.816407zm0 0"/></g><path d="m276.855469 338.539062-11.605469 25.597657c-5.59375 12.164062-17.757812 19.960937-31.144531 19.96875h-126.636719c-13.386719-.007813-25.546875-7.804688-31.144531-19.96875l-11.605469-25.597657c-4.820312-10.566406-3.9375-22.859374 2.347656-32.628906 6.28125-9.769531 17.097656-15.671875 28.714844-15.671875h150.015625c11.613281 0 22.429687 5.902344 28.714844 15.671875 6.28125 9.769532 7.164062 22.0625 2.34375 32.628906zm0 0" fill="#558b30"/><path d="m255.523438 338.539062-11.605469 25.597657c-5.597657 12.164062-17.757813 19.960937-31.144531 19.96875h-105.304688c-13.386719-.007813-25.546875-7.804688-31.144531-19.96875l-11.605469-25.597657c-4.820312-10.566406-3.9375-22.859374 2.347656-32.628906 6.28125-9.769531 17.097656-15.671875 28.714844-15.671875h128.679688c11.617187 0 22.433593 5.902344 28.714843 15.671875 6.285157 9.769532 7.167969 22.0625 2.347657 32.628906zm0 0" fill="#8bc34a"/><path d="m145.1875 93.972656c0 4.710938-3.820312 8.535156-8.53125 8.535156-4.714844 0-8.535156-3.824218-8.535156-8.535156 0-4.710937 3.820312-8.535156 8.535156-8.535156 4.710938 0 8.53125 3.824219 8.53125 8.535156zm0 0"/><path d="m119.585938 332.90625c0 4.710938-3.820313 8.53125-8.53125 8.53125-4.714844 0-8.535157-3.820312-8.535157-8.53125 0-4.714844 3.820313-8.535156 8.535157-8.535156 4.710937 0 8.53125 3.820312 8.53125 8.535156zm0 0"/><path d="m153.722656 332.90625c0 4.710938-3.820312 8.53125-8.535156 8.53125-4.710938 0-8.53125-3.820312-8.53125-8.53125 0-4.714844 3.820312-8.535156 8.53125-8.535156 4.714844 0 8.535156 3.820312 8.535156 8.535156zm0 0"/><path d="m.121094 128.105469v25.601562c0 18.851563 15.28125 34.132813 34.132812 34.132813h17.066406c.058594 35.804687 24.828126 66.832031 59.734376 74.820312v19.046875h-15.257813c-9.03125-.011719-17.828125 2.851563-25.121094 8.175781-6.730469-5.308593-15.050781-8.191406-23.621093-8.175781-21.199219.023438-38.375 17.199219-38.398438 38.398438.035156 8.691406 3.046875 17.105469 8.53125 23.84375v71.78125c-11.386719 13.855469-11.386719 33.828125 0 47.683593v23.09375c0 4.710938 3.820312 8.53125 8.535156 8.53125 4.710938 0 8.53125-3.820312 8.53125-8.53125v-10.890624c8.246094 3.140624 17.355469 3.140624 25.601563 0v10.890624c0 4.710938 3.820312 8.53125 8.53125 8.53125 4.714843 0 8.535156-3.820312 8.535156-8.53125v-23.09375c11.386719-13.855468 11.386719-33.828124 0-47.683593v-36.097657c8 8.273438 19.003906 12.964844 30.515625 13.007813h18.34375c-21.375 18.738281-28.898438 48.765625-18.886719 75.371094 10.011719 26.609375 35.464844 44.226562 63.894531 44.226562 28.425782 0 53.878907-17.617187 63.890626-44.226562 10.011718-26.605469 2.488281-56.632813-18.886719-75.371094h18.347656c11.507813-.042969 22.511719-4.734375 30.515625-13.007813v36.097657c-11.390625 13.855469-11.390625 33.828125 0 47.683593v23.09375c0 4.710938 3.820312 8.53125 8.53125 8.53125 4.714844 0 8.535156-3.820312 8.535156-8.53125v-10.890624c8.242188 3.140624 17.355469 3.140624 25.597656 0v10.890624c0 4.710938 3.820313 8.53125 8.535157 8.53125 4.710937 0 8.53125-3.820312 8.53125-8.53125v-23.09375c11.390625-13.855468 11.390625-33.828124 0-47.683593v-71.78125c5.488281-6.738281 8.5-15.152344 8.535156-23.84375-.023437-21.199219-17.203125-38.375-38.402344-38.398438-8.566406-.015625-16.890625 2.867188-23.617187 8.175781-7.296875-5.324218-16.09375-8.1875-25.125-8.175781h-15.257813v-19.046875c34.90625-7.988281 59.675781-39.015625 59.734375-74.820312h17.066406c18.851563 0 34.132813-15.28125 34.132813-34.132813v-25.601562c0-18.851563-15.28125-34.132813-34.132813-34.132813h-17.066406v-17.066406c-.050781-42.394531-34.40625-76.75-76.800781-76.800781h-85.332031c-42.394532.050781-76.75 34.40625-76.800782 76.800781v17.066406h-17.066406v-44.238281c11.753906-4.15625 18.808594-16.175781 16.699219-28.464844-2.109375-12.289062-12.765625-21.269531-25.230469-21.269531-12.46875 0-23.125 8.980469-25.234375 21.269531-2.105469 12.289063 4.945313 24.308594 16.699219 28.464844v48.984375c-10.523438 6.046875-17.027344 17.246094-17.066406 29.386719zm25.601562-110.933594c4.710938 0 8.53125 3.820313 8.53125 8.535156 0 4.710938-3.820312 8.53125-8.53125 8.53125-4.714844 0-8.535156-3.820312-8.535156-8.53125 0-4.714843 3.820312-8.535156 8.535156-8.535156zm21.332032 384c-4.371094.042969-8.699219.839844-12.800782 2.355469v-47.375c8.246094 3.105468 17.332032 3.140625 25.601563.101562v47.273438c-4.101563-1.515625-8.429688-2.3125-12.800781-2.355469zm0-102.398437c4.335937.023437 8.554687 1.390624 12.082031 3.90625-6.601563 11.105468-7.773438 24.617187-3.183594 36.695312-8.148437 3.871094-17.859375 2.101562-24.121094-4.394531l-.136719-.113281c-5.910156-6.164063-7.574218-15.257813-4.230468-23.113282 3.34375-7.859375 11.050781-12.964844 19.589844-12.980468zm-21.332032 140.800781c0-11.785157 9.550782-21.335938 21.332032-21.335938s21.332031 9.550781 21.332031 21.335938c0 11.78125-9.550781 21.332031-21.332031 21.332031s-21.332032-9.550781-21.332032-21.332031zm196.265625 4.265625c0 28.277344-22.921875 51.199218-51.199219 51.199218-28.277343 0-51.203124-22.921874-51.203124-51.199218s22.925781-51.199219 51.203124-51.199219c28.265626.027344 51.171876 22.933594 51.199219 51.199219zm72.53125-42.667969c-4.367187.042969-8.699219.839844-12.796875 2.355469v-47.273438c8.265625 3.039063 17.355469 3.003906 25.597656-.101562v47.375c-4.097656-1.515625-8.429687-2.3125-12.800781-2.355469zm-21.332031 38.402344c0-11.785157 9.550781-21.335938 21.332031-21.335938 11.785157 0 21.335938 9.550781 21.335938 21.335938 0 11.78125-9.550781 21.332031-21.335938 21.332031-11.78125 0-21.332031-9.550781-21.332031-21.332031zm42.667969-119.46875c-.003907 5.507812-2.144531 10.800781-5.972657 14.761719l-.121093.148437c-6.261719 6.496094-15.972657 8.265625-24.125 4.394531 4.59375-12.078125 3.421875-25.589844-3.183594-36.695312 3.519531-2.527344 7.734375-3.902344 12.066406-3.941406 11.785157 0 21.335938 9.550781 21.335938 21.332031zm-48.546875-9.589844c4.792968 7.289063 5.464844 16.539063 1.78125 24.445313l-11.636719 25.601562c-4.167969 9.132812-13.277344 14.996094-23.3125 15.011719h-126.703125c-10.039062-.015625-19.148438-5.878907-23.3125-15.011719l-11.640625-25.601562c-3.601563-7.921876-2.929687-17.132813 1.785156-24.453126 4.714844-7.316406 12.824219-11.738281 21.527344-11.734374h149.980469c8.726562-.085938 16.875 4.359374 21.53125 11.742187zm-53.855469-28.808594h-85.332031v-17.066406h85.332031zm93.867187-170.667969c9.425782 0 17.066407 7.640626 17.066407 17.066407v25.601562c0 9.425781-7.640625 17.066407-17.066407 17.066407h-17.066406v-59.734376zm-238.933593-34.132812c.039062-32.972656 26.761719-59.695312 59.734375-59.734375h85.332031c32.976563.039063 59.695313 26.761719 59.734375 59.734375v110.933594c-.039062 32.972656-26.757812 59.695312-59.734375 59.734375h-85.332031c-32.972656-.039063-59.695313-26.761719-59.734375-59.734375zm-17.066407 34.132812v59.734376h-17.066406c-9.425781 0-17.066406-7.640626-17.066406-17.066407v-25.601562c0-9.425781 7.640625-17.066407 17.066406-17.066407zm0 0"/><path d="m221.988281 145.171875c14.136719 0 25.597657-11.460937 25.597657-25.597656 0-14.140625-11.460938-25.601563-25.597657-25.601563-14.140625 0-25.601562 11.460938-25.601562 25.601563 0 14.136719 11.460937 25.597656 25.601562 25.597656zm0-34.132813c4.710938 0 8.53125 3.820313 8.53125 8.535157 0 4.710937-3.820312 8.53125-8.53125 8.53125-4.714843 0-8.535156-3.820313-8.535156-8.53125 0-4.714844 3.820313-8.535157 8.535156-8.535157zm0 0"/><path d="m209.1875 153.707031h-76.800781c-21.207031 0-38.398438 17.191407-38.398438 38.398438s17.191407 38.402343 38.398438 38.402343h76.800781c21.207031 0 38.398438-17.195312 38.398438-38.402343s-17.191407-38.398438-38.398438-38.398438zm-64.289062 17.066407h17.355468v42.664062h-17.066406v-41.238281c-.050781-.484375-.148438-.960938-.289062-1.425781zm34.421874 0h17.066407v42.664062h-17.066407zm-68.265624 21.332031c.007812-10.207031 7.25-18.980469 17.269531-20.921875-.085938.332031-.15625.671875-.203125 1.015625v40.804687c-9.929688-2.027344-17.066406-10.761718-17.066406-20.898437zm102.398437 20.898437v-41.8125c9.945313 2.019532 17.089844 10.761719 17.089844 20.90625 0 10.144532-7.144531 18.886719-17.089844 20.90625zm0 0"/><path d="m170.789062 477.972656c14.136719 0 25.597657-11.460937 25.597657-25.601562 0-14.136719-11.460938-25.597656-25.597657-25.597656-14.140624 0-25.601562 11.460937-25.601562 25.597656 0 14.140625 11.460938 25.601562 25.601562 25.601562zm0-34.132812c4.710938 0 8.53125 3.820312 8.53125 8.53125 0 4.714844-3.820312 8.535156-8.53125 8.535156-4.714843 0-8.535156-3.820312-8.535156-8.535156 0-4.710938 3.820313-8.53125 8.535156-8.53125zm0 0"/><path d="m136.65625 145.171875c28.273438 0 51.199219-22.921875 51.199219-51.199219s-22.925781-51.199218-51.199219-51.199218c-28.277344 0-51.203125 22.921874-51.203125 51.199218.03125 28.265625 22.9375 51.171875 51.203125 51.199219zm0-85.332031c18.847656 0 34.132812 15.28125 34.132812 34.132812 0 18.851563-15.285156 34.132813-34.132812 34.132813-18.851562 0-34.136719-15.28125-34.136719-34.132813 0-18.851562 15.285157-34.132812 34.136719-34.132812zm0 0"/><path d="m170.789062 332.90625c0 4.710938 3.820313 8.53125 8.53125 8.53125h59.734376c4.710937 0 8.53125-3.820312 8.53125-8.53125 0-4.714844-3.820313-8.535156-8.53125-8.535156h-59.734376c-4.710937 0-8.53125 3.820312-8.53125 8.535156zm0 0"/></svg>