<svg height="512pt" viewBox="0 0 512.13632 512" width="512pt" xmlns="http://www.w3.org/2000/svg"><path d="m221.871094 239.109375h68.265625v99.199219h-68.265625zm0 0" fill="#f0c419"/><path d="m298.671875 119.640625-42.667969 4.265625-10.664062-1.023438-32-3.242187c-.082032-19.480469 13.113281-36.511719 32-41.300781 3.476562-.929688 7.0625-1.390625 10.664062-1.367188 11.328125-.03125 22.199219 4.453125 30.207032 12.460938 8.011718 8.007812 12.496093 18.882812 12.460937 30.207031zm0 0" fill="#f57c00"/><path d="m277.339844 119.640625-32 3.242187-32-3.242187c-.082032-19.480469 13.113281-36.511719 32-41.300781 18.882812 4.789062 32.078125 21.820312 32 41.300781zm0 0" fill="#ff9801"/><path d="m273.070312 25.773438c0 9.425781-7.640624 17.066406-17.066406 17.066406-9.425781 0-17.066406-7.640625-17.066406-17.066406 0-9.425782 7.640625-17.066407 17.066406-17.066407 9.425782 0 17.066406 7.640625 17.066406 17.066407zm0 0" fill="#ffeb3a"/><path d="m187.738281 343.898438-62.039062 41.726562 27.820312 38.484375 38.144531-25.683594zm0 0" fill="#ff9801"/><path d="m140.804688 450.222656v23.550782c0 14.140624-11.460938 25.601562-25.601563 25.601562-3.6875.007812-7.332031-.808594-10.664063-2.390625-9.109374-4.125-14.957031-13.210937-14.933593-23.210937v-25.597657h5.800781zm0 0" fill="#fec108"/><path d="m153.605469 422.574219c.011719 10.1875-4.027344 19.964843-11.234375 27.167969-7.203125 7.203124-16.976563 11.246093-27.167969 11.230468-3.609375.011719-7.203125-.503906-10.664063-1.535156-16.386718-4.777344-27.648437-19.796875-27.648437-36.863281 0-17.066407 11.261719-32.085938 27.648437-36.863281 3.460938-1.03125 7.054688-1.546876 10.664063-1.535157 10.191406-.015625 19.964844 4.027344 27.167969 11.230469 7.207031 7.203125 11.246094 16.980469 11.234375 27.167969zm0 0" fill="#f57c00"/><path d="m324.269531 343.898438 62.039063 41.726562-27.820313 38.484375-38.140625-25.683594zm0 0" fill="#ff9801"/><path d="m422.40625 448.175781v25.597657c0 14.140624-11.464844 25.601562-25.601562 25.601562-2.914063.015625-5.808594-.503906-8.535157-1.535156-10.253906-3.539063-17.117187-13.21875-17.066406-24.066406v-23.550782l34.136719-1.535156 11.261718-.511719zm0 0" fill="#fec108"/><path d="m119.472656 450.222656v23.550782c.019532 10-5.824218 19.085937-14.933594 23.210937-9.109374-4.125-14.957031-13.210937-14.933593-23.210937v-24.917969zm0 0" fill="#ffeb3a"/><path d="m409.605469 448.6875v25.085938c.050781 10.847656-6.8125 20.527343-17.066407 24.066406-10.257812-3.539063-17.121093-13.21875-17.066406-24.066406v-23.550782zm0 0" fill="#ffeb3a"/><path d="m435.203125 422.574219c.015625 10.1875-4.027344 19.964843-11.230469 27.167969-7.203125 7.203124-16.980468 11.246093-27.167968 11.230468-3.613282.011719-7.203126-.503906-10.667969-1.535156-16.382813-4.777344-27.648438-19.796875-27.648438-36.863281 0-17.066407 11.265625-32.085938 27.648438-36.863281 3.464843-1.03125 7.054687-1.546876 10.667969-1.535157 10.1875-.015625 19.964843 4.027344 27.167968 11.230469s11.246094 16.980469 11.230469 27.167969zm0 0" fill="#f57c00"/><path d="m132.269531 422.574219c0-20.359375-12.414062-36.863281-27.730469-36.863281-15.316406 0-27.734374 16.503906-27.734374 36.863281s12.417968 36.863281 27.734374 36.863281c15.316407 0 27.730469-16.503906 27.730469-36.863281zm0 0" fill="#ff9801"/><path d="m413.871094 422.574219c0-20.359375-12.417969-36.863281-27.734375-36.863281-15.316407 0-27.730469 16.503906-27.730469 36.863281s12.414062 36.863281 27.730469 36.863281c15.316406 0 27.734375-16.503906 27.734375-36.863281zm0 0" fill="#ff9801"/><path d="m290.136719 452.441406c0 14.164063-15.273438 25.597656-34.132813 25.597656-3.601562.039063-7.191406-.421874-10.664062-1.363281-12.476563-1.703125-22.167969-11.714843-23.46875-24.234375.066406-5.464844 2.234375-10.691406 6.058594-14.59375h56.148437c3.824219 3.902344 5.996094 9.128906 6.058594 14.59375zm0 0" fill="#f57c00"/><path d="m268.804688 452.441406c-1.300782 12.519532-10.992188 22.53125-23.464844 24.234375-12.476563-1.703125-22.167969-11.714843-23.46875-24.234375.066406-5.464844 2.234375-10.691406 6.058594-14.59375h34.816406c3.824218 3.902344 5.992187 9.128906 6.058594 14.59375zm0 0" fill="#ff9801"/><path d="m131.957031 138.414062c-26.371093 1.945313-46.773437 23.90625-46.773437 50.347657 0 26.441406 20.402344 48.402343 46.773437 50.347656zm0 0" fill="#ff9801"/><path d="m46.9375 187.90625c0 9.425781-7.640625 17.066406-17.066406 17.066406-9.425782 0-17.066406-7.640625-17.066406-17.066406s7.640624-17.066406 17.066406-17.066406c9.425781 0 17.066406 7.640625 17.066406 17.066406zm0 0" fill="#ffeb3a"/><path d="m426.328125 188.761719c.015625 26.378906-20.289063 48.320312-46.589844 50.347656v-100.695313c26.289063 2.050782 46.582031 23.976563 46.589844 50.347657zm0 0" fill="#f57c00"/><path d="m409.261719 188.761719c.003906 19.765625-11.539063 37.710937-29.523438 45.910156v-91.820313c5.507813 2.480469 10.511719 5.949219 14.761719 10.238282 9.464844 9.457031 14.777344 22.292968 14.761719 35.671875zm0 0" fill="#ff9801"/><path d="m499.203125 187.90625c0 9.425781-7.640625 17.066406-17.066406 17.066406s-17.066407-7.640625-17.066407-17.066406 7.640626-17.066406 17.066407-17.066406 17.066406 7.640625 17.066406 17.066406zm0 0" fill="#ffeb3a"/><path d="m159.152344 119.640625h193.707031c17.199219 0 31.144531 13.945313 31.144531 31.148437v74.238282c0 17.203125-13.945312 31.148437-31.144531 31.148437h-193.707031c-17.203125 0-31.148438-13.945312-31.148438-31.148437v-74.238282c0-17.203124 13.945313-31.148437 31.148438-31.148437zm0 0" fill="#fec108"/><path d="m159.152344 119.640625h172.371094c17.203124 0 31.148437 13.945313 31.148437 31.148437v74.238282c0 17.203125-13.945313 31.148437-31.148437 31.148437h-172.371094c-17.203125 0-31.148438-13.945312-31.148438-31.148437v-74.238282c0-17.203124 13.945313-31.148437 31.148438-31.148437zm0 0" fill="#ffeb3a"/><path d="m290.136719 187.90625c0 18.851562-15.28125 34.132812-34.132813 34.132812-2.882812.027344-5.753906-.34375-8.53125-1.109374-15.023437-3.925782-25.503906-17.496094-25.503906-33.023438s10.480469-29.097656 25.503906-33.023438c2.777344-.761718 5.648438-1.132812 8.53125-1.109374 18.851563 0 34.132813 15.28125 34.132813 34.132812zm0 0" fill="#37474f"/><path d="m273.070312 187.90625c0-18.238281-11.460937-33.023438-25.597656-33.023438-14.140625 0-25.601562 14.785157-25.601562 33.023438s11.460937 33.023438 25.601562 33.023438c14.136719 0 25.597656-14.785157 25.597656-33.023438zm0 0" fill="#607d8b"/><path d="m221.871094 256.175781h68.265625c9.425781 0 17.066406 7.640625 17.066406 17.066407 0 9.425781-7.640625 17.066406-17.066406 17.066406h-68.265625c-9.425782 0-17.066406-7.640625-17.066406-17.066406 0-9.425782 7.640624-17.066407 17.066406-17.066407zm0 0" fill="#ff5722"/><path d="m315.738281 307.375c-.070312 9.394531-7.671875 16.996094-17.066406 17.066406h-85.332031c-9.414063-.027344-17.039063-7.652344-17.070313-17.066406.070313-9.398438 7.671875-16.996094 17.070313-17.066406h85.332031c9.414063.027344 17.039063 7.652344 17.066406 17.066406zm0 0" fill="#f57c00"/><path d="m294.40625 307.375c-.070312 9.394531-7.671875 16.996094-17.066406 17.066406h-64c-9.414063-.027344-17.039063-7.652344-17.070313-17.066406.070313-9.398438 7.671875-16.996094 17.070313-17.066406h64c9.414062.027344 17.035156 7.652344 17.066406 17.066406zm0 0" fill="#ff9801"/><path d="m324.269531 332.972656v42.667969c0 37.703125-30.5625 68.265625-68.265625 68.265625-8.160156.015625-16.257812-1.457031-23.890625-4.351562-26.691406-9.941407-44.386719-35.429688-44.375-63.914063v-42.667969c0-4.710937 3.820313-8.53125 8.53125-8.53125h119.46875c4.710938 0 8.53125 3.820313 8.53125 8.53125zm0 0" fill="#fec108"/><path d="m302.9375 328.707031v42.667969c0 37.703125-30.5625 68.265625-68.265625 68.265625-.855469 0-1.707031 0-2.558594-.085937-26.691406-9.941407-44.386719-35.429688-44.375-63.914063v-42.667969c0-4.710937 3.820313-8.53125 8.53125-8.53125h105.472657c.78125 1.285156 1.195312 2.761719 1.195312 4.265625zm0 0" fill="#ffeb3a"/><path d="m273.070312 375.640625c0 9.425781-7.640624 17.066406-17.066406 17.066406-9.425781 0-17.066406-7.640625-17.066406-17.066406s7.640625-17.066406 17.066406-17.066406c9.425782 0 17.066406 7.640625 17.066406 17.066406zm0 0" fill="#37474f"/><path d="m256.003906 230.574219c23.566406 0 42.667969-19.101563 42.667969-42.667969 0-23.5625-19.101563-42.664062-42.667969-42.664062-23.5625 0-42.664062 19.101562-42.664062 42.664062.027344 23.554688 19.113281 42.640625 42.664062 42.667969zm0-68.265625c14.140625 0 25.601563 11.460937 25.601563 25.597656 0 14.140625-11.460938 25.601562-25.601563 25.601562-14.136718 0-25.597656-11.460937-25.597656-25.601562 0-14.136719 11.460938-25.597656 25.597656-25.597656zm0 0"/><path d="m168.113281 219.917969c3.550781 2.914062 8.773438 2.488281 11.8125-.960938 3.039063-3.449219 2.796875-8.683593-.542969-11.839843-5.542968-4.839844-8.722656-11.839844-8.722656-19.199219s3.179688-14.363281 8.722656-19.203125c3.339844-3.15625 3.582032-8.390625.542969-11.839844-3.039062-3.449219-8.261719-3.875-11.8125-.957031-9.214843 8.078125-14.5 19.742187-14.5 32 0 12.253906 5.285157 23.917969 14.5 32zm0 0"/><path d="m331.859375 219.140625c3.109375 3.539063 8.5 3.886719 12.039063.777344 9.214843-8.082031 14.496093-19.746094 14.496093-32 0-12.257813-5.28125-23.921875-14.496093-32-3.554688-2.917969-8.777344-2.492188-11.816407.957031-3.035156 3.449219-2.796875 8.683594.542969 11.839844 5.542969 4.839844 8.726562 11.84375 8.726562 19.203125s-3.183593 14.359375-8.726562 19.199219c-3.523438 3.109374-3.867188 8.488281-.765625 12.023437zm0 0"/><path d="m25.605469 213.507812c10.808593-.046874 20.425781-6.875 24.027343-17.066406h23.757813c3.660156 27.296875 25.660156 48.460938 53.078125 51.0625 7.378906 10.765625 19.589844 17.199219 32.640625 17.203125h38.730469c-2.617188 6.945313-1.933594 14.703125 1.851562 21.085938-10.574218 6.617187-14.796875 19.921875-9.972656 31.429687-6.363281 2.644532-10.511719 8.859375-10.515625 15.75v6.375l-55.21875 37.148438c-18.898437-3.644532-38.101563 4.648437-48.414063 20.898437-10.316406 16.25-9.636718 37.15625 1.703126 52.707031-.269532.753907-.425782 1.542969-.46875 2.339844v25.597656c0 18.851563 15.28125 34.136719 34.132812 34.136719s34.132812-15.285156 34.132812-34.136719v-19.292968c9.078126-7.507813 15-18.152344 16.589844-29.824219l26.332032-17.730469c6.4375 12.234375 16.042968 22.511719 27.8125 29.761719-1.613282 3.617187-2.453126 7.527344-2.464844 11.488281 0 19.140625 18.773437 34.132813 42.664062 34.132813 23.894532 0 42.667969-14.992188 42.667969-34.132813-.011719-3.960937-.851563-7.871094-2.464844-11.488281 11.765625-7.25 21.371094-17.527344 27.808594-29.761719l26.332031 17.730469c1.59375 11.671875 7.515625 22.316406 16.589844 29.824219v19.292968c0 18.851563 15.28125 34.136719 34.132812 34.136719 18.851563 0 34.132813-15.285156 34.132813-34.136719v-25.597656c-.039063-.796875-.199219-1.585937-.46875-2.339844 11.363281-15.546874 12.050781-36.464843 1.730469-52.722656-10.316406-16.257812-29.535156-24.542968-48.441406-20.882812l-55.21875-37.148438v-6.375c-.003907-6.890625-4.148438-13.105468-10.511719-15.75 4.824219-11.503906.601562-24.808594-9.96875-31.429687 3.785156-6.382813 4.464843-14.140625 1.84375-21.085938h38.734375c13.039062-.011719 25.238281-6.445312 32.613281-17.203125 27.425781-2.589844 49.441406-23.757812 53.101563-51.0625h23.785156c4.152344 11.753906 16.175781 18.804688 28.464844 16.699219 12.285156-2.109375 21.269531-12.765625 21.269531-25.234375s-8.984375-23.121094-21.269531-25.230469c-12.289063-2.109375-24.3125 4.941407-28.464844 16.699219h-24.058594c-4.085938-26.207031-25.304688-46.371094-51.683594-49.117188-7.132812-11.847656-19.933594-19.109374-33.757812-19.148437h-46.464844c-3.664062-21.441406-20.460938-38.234375-41.898438-41.902344v-19.402343c11.753907-4.15625 18.804688-16.175782 16.695313-28.464844-2.105469-12.289063-12.761719-21.2734378-25.230469-21.2734378s-23.121094 8.9843748-25.230468 21.2734378c-2.109376 12.289062 4.941406 24.308594 16.699218 28.464844v19.402343c-21.441406 3.667969-38.234375 20.460938-41.898437 41.902344h-46.464844c-13.828125.039063-26.628906 7.300781-33.757813 19.148437-26.378906 2.746094-47.601562 22.910157-51.6875 49.117188h-24.03125c-4.359374-12.242188-17.210937-19.261719-29.867187-16.316406-12.660156 2.945312-21.089844 14.921875-19.59375 27.832031 1.492187 12.90625 12.4375 22.640625 25.433594 22.617187zm460.800781-34.132812c4.710938 0 8.53125 3.820312 8.53125 8.53125 0 4.714844-3.820312 8.535156-8.53125 8.535156-4.714844 0-8.535156-3.820312-8.535156-8.535156 0-4.710938 3.820312-8.53125 8.535156-8.53125zm-187.734375 119.464844c4.710937 0 8.53125 3.820312 8.53125 8.535156 0 4.710938-3.820313 8.53125-8.53125 8.53125h-85.332031c-4.714844 0-8.535156-3.820312-8.535156-8.53125 0-4.714844 3.820312-8.535156 8.535156-8.535156zm-170.667969 179.199218c0 9.425782-7.640625 17.070313-17.066406 17.070313s-17.066406-7.644531-17.066406-17.070313v-13.710937c10.527344 5.445313 22.746094 6.648437 34.132812 3.363281zm-12.800781-25.597656c-16.492187 0-29.863281-13.371094-29.863281-29.867187 0-16.496094 13.371094-29.867188 29.863281-29.867188 16.496094 0 29.867187 13.371094 29.867187 29.867188 0 16.496093-13.371093 29.867187-29.867187 29.867187zm44.996094-43.121094c-2.964844-9.96875-9.15625-18.671874-17.601563-24.746093l36.605469-24.652344v15.71875c.035156 6.476563.894531 12.921875 2.5625 19.183594zm121.40625 43.121094c0 9.25-11.726563 17.066406-25.601563 17.066406s-25.597656-7.816406-25.597656-17.066406c.011719-1.429687.300781-2.84375.851562-4.164062 16.03125 5.554687 33.464844 5.554687 49.492188 0 .550781 1.320312.839844 2.734375.855469 4.164062zm-25.601563-17.066406c-32.972656-.039062-59.695312-26.761719-59.734375-59.734375v-42.667969h119.46875v42.667969c-.039062 32.972656-26.757812 59.695313-59.734375 59.734375zm145.066406 59.734375c-9.425781 0-17.066406-7.644531-17.066406-17.070313v-10.347656c11.390625 3.285156 23.605469 2.082032 34.132813-3.363281v13.710937c0 9.425782-7.640625 17.070313-17.066407 17.070313zm25.601563-72.535156c0 16.496093-13.371094 29.867187-29.867187 29.867187-16.496094 0-29.867188-13.371094-29.867188-29.867187 0-16.496094 13.371094-29.867188 29.867188-29.867188 16.496093 0 29.867187 13.371094 29.867187 29.867188zm-57.257813-38.023438c-8.445312 6.074219-14.636718 14.777344-17.605468 24.746094l-21.53125-14.507813c1.652344-6.25 2.5-12.683593 2.527344-19.148437v-15.71875zm-70.742187-111.308593c0 4.710937-3.820313 8.53125-8.535156 8.53125h-68.265625c-4.710938 0-8.53125-3.820313-8.53125-8.53125 0-4.714844 3.820312-8.535157 8.53125-8.535157h68.265625c4.714843 0 8.535156 3.820313 8.535156 8.535157zm111.128906-114.167969c10.433594 10.4375 14.609375 25.597656 10.992188 39.90625-3.617188 14.308593-14.496094 25.660156-28.640625 29.886719.121094-1.28125.386718-2.558594.386718-3.824219v-74.324219c0-.683594-.171874-1.3125-.207031-1.988281 6.578125 1.972656 12.574219 5.523437 17.46875 10.34375zm-153.796875-141.832031c4.714844 0 8.535156 3.820312 8.535156 8.53125 0 4.714843-3.820312 8.535156-8.535156 8.535156-4.710937 0-8.53125-3.820313-8.53125-8.535156 0-4.710938 3.820313-8.53125 8.53125-8.53125zm0 68.265624c15.558594.019532 29.144532 10.539063 33.050782 25.601563h-66.101563c3.910156-15.0625 17.492187-25.582031 33.050781-25.601563zm-119.464844 65.238282c.019532-12.457032 10.113282-22.554688 22.570313-22.570313h193.792969c12.457031.015625 22.550781 10.113281 22.570312 22.570313v74.324218c-.019531 12.457032-10.113281 22.550782-22.570312 22.570313h-193.792969c-12.457031-.019531-22.550781-10.113281-22.570313-22.570313zm-34.382812 8.371094c4.914062-4.824219 10.925781-8.382813 17.519531-10.359376 0 .671876-.203125 1.304688-.203125 1.988282v74.324218c0 1.304688.261719 2.558594.382813 3.824219-14.140625-4.222656-25.019531-15.5625-28.648438-29.867187-3.628906-14.304688.53125-29.460938 10.949219-39.910156zm-76.550781 20.257812c4.710937 0 8.53125 3.820312 8.53125 8.53125 0 4.714844-3.820313 8.535156-8.53125 8.535156-4.714844 0-8.535157-3.820312-8.535157-8.535156 0-4.710938 3.820313-8.53125 8.535157-8.53125zm0 0"/><path d="m256.003906 350.039062c-14.136718 0-25.597656 11.464844-25.597656 25.601563 0 14.140625 11.460938 25.601563 25.597656 25.601563 14.140625 0 25.601563-11.460938 25.601563-25.601563 0-14.136719-11.460938-25.601563-25.601563-25.601563zm0 34.136719c-4.710937 0-8.53125-3.820312-8.53125-8.535156 0-4.710937 3.820313-8.53125 8.53125-8.53125 4.714844 0 8.535156 3.820313 8.535156 8.53125 0 4.714844-3.820312 8.535156-8.535156 8.535156zm0 0"/></svg>