<svg height="512pt" viewBox="0 0 512.02608 512" width="512pt" xmlns="http://www.w3.org/2000/svg"><g fill="#9d27b0"><path d="m184.089844 291.253906c-13.4375 3.660156-22.566406 16.121094-22 30.035156.566406 13.917969 10.679687 25.59375 24.371094 28.144532 13.691406 2.554687 27.328124-4.695313 32.871093-17.472656zm0 0"/><path d="m179.226562 264.203125c-1.410156.246094-2.835937.359375-4.265624.34375-16.496094 0-29.867188-13.371094-29.867188-29.867187 0-16.496094 13.371094-29.867188 29.867188-29.867188 1.429687-.015625 2.855468.097656 4.265624.34375zm0 0"/><path d="m292.71875 331.960938c5.542969 12.777343 19.179688 20.027343 32.875 17.472656 13.691406-2.550782 23.800781-14.226563 24.367188-28.144532.566406-13.914062-8.558594-26.375-22-30.035156zm0 0"/><path d="m332.824219 205.15625c1.410156-.246094 2.839843-.359375 4.269531-.34375 16.492188 0 29.867188 13.371094 29.867188 29.867188 0 16.496093-13.375 29.867187-29.867188 29.867187-1.429688.015625-2.859375-.097656-4.269531-.34375zm0 0"/></g><path d="m332.824219 187.746094v76.800781c0 20.367187-8.089844 39.902344-22.492188 54.304687-14.402343 14.402344-33.9375 22.496094-54.304687 22.496094-3.570313 0-7.136719-.257812-10.667969-.769531-37.914063-5.316406-66.121094-37.746094-66.132813-76.03125v-76.800781c0-4.710938 3.820313-8.53125 8.53125-8.53125h136.535157c4.710937 0 8.53125 3.820312 8.53125 8.53125zm0 0" fill="#ad1457"/><path d="m311.492188 187.746094v76.800781c-.011719 38.285156-28.21875 70.714844-66.132813 76.03125-37.914063-5.316406-66.121094-37.746094-66.132813-76.03125v-76.800781c0-4.710938 3.820313-8.53125 8.53125-8.53125h115.203126c4.710937 0 8.53125 3.820312 8.53125 8.53125zm0 0" fill="#e91e63"/><path d="m187.757812 145.078125h136.535157v34.136719h-136.535157zm0 0" fill="#6a1b9a"/><path d="m281.625 401.078125v76.800781c0 14.140625-11.460938 25.601563-25.597656 25.601563-3.691406.007812-7.335938-.808594-10.667969-2.390625-9.109375-4.125-14.953125-13.210938-14.933594-23.210938v-76.800781c-.019531-10 5.824219-19.082031 14.933594-23.210937 3.332031-1.578126 6.976563-2.394532 10.667969-2.386719 14.136718 0 25.597656 11.460937 25.597656 25.597656zm0 0" fill="#37474f"/><path d="m260.292969 401.078125v76.800781c.019531 10-5.824219 19.085938-14.933594 23.210938-9.109375-4.125-14.953125-13.210938-14.933594-23.210938v-76.800781c-.019531-10 5.824219-19.082031 14.933594-23.210937 2.78125 1.214843 5.300781 2.953124 7.425781 5.121093 4.804688 4.792969 7.507813 11.304688 7.507813 18.089844zm0 0" fill="#607d8b"/><path d="m213.359375 418.144531h17.066406v51.203125h-17.066406c-9.425781 0-17.066406-7.640625-17.066406-17.066406v-17.066406c0-9.425782 7.640625-17.070313 17.066406-17.070313zm0 0" fill="#ad1457"/><path d="m298.691406 469.347656h-17.066406v-51.203125h17.066406c9.425782 0 17.066406 7.644531 17.066406 17.070313v17.066406c0 9.425781-7.640624 17.066406-17.066406 17.066406zm0 0" fill="#ad1457"/><path d="m102.425781 345.613281c0 16.496094-13.371093 29.867188-29.867187 29.867188-2.890625.011719-5.769532-.421875-8.53125-1.28125-12.652344-3.761719-21.324219-15.390625-21.324219-28.585938 0-13.195312 8.671875-24.824219 21.324219-28.585937 2.761718-.859375 5.640625-1.292969 8.53125-1.28125 16.496094 0 29.867187 13.371094 29.867187 29.867187zm0 0" fill="#0377bc"/><path d="m358.425781 110.945312v17.066407c-.027343 9.414062-7.652343 17.039062-17.066406 17.066406h-170.667969c-9.414062-.027344-17.039062-7.652344-17.066406-17.066406v-17.066407c.011719-52.367187 39.496094-96.300781 91.5625-101.886718h.34375c3.496094-.339844 6.910156-.511719 10.496094-.511719 27.167968-.035156 53.234375 10.738281 72.445312 29.953125 19.210938 19.210938 29.988282 45.277344 29.953125 72.445312zm0 0" fill="#ad1457"/><path d="m337.09375 110.945312v17.066407c-.027344 9.414062-7.652344 17.039062-17.066406 17.066406h-149.335938c-9.414062-.027344-17.039062-7.652344-17.066406-17.066406v-17.066407c.011719-52.367187 39.496094-96.300781 91.5625-101.886718h.34375c52.085938 5.542968 91.59375 49.503906 91.5625 101.886718zm0 0" fill="#e91e63"/><path d="m247.492188 85.347656c0 14.136719-11.460938 25.597656-25.597657 25.597656-2.164062.023438-4.320312-.265624-6.402343-.851562-11.296876-2.902344-19.195313-13.082031-19.195313-24.746094 0-11.664062 7.898437-21.847656 19.195313-24.746094 2.082031-.589843 4.238281-.875 6.402343-.855468 14.136719 0 25.597657 11.460937 25.597657 25.601562zm0 0" fill="#9e9e9e"/><path d="m234.691406 85.347656c.03125 11.671875-7.882812 21.875-19.199218 24.746094-11.296876-2.902344-19.195313-13.082031-19.195313-24.746094 0-11.664062 7.898437-21.847656 19.195313-24.746094 11.316406 2.871094 19.230468 13.070313 19.199218 24.746094zm0 0" fill="#f5f5f5"/><path d="m315.757812 93.878906c0 9.425782-7.640624 17.066406-17.066406 17.066406-9.425781 0-17.066406-7.640624-17.066406-17.066406 0-9.425781 7.640625-17.066406 17.066406-17.066406 9.425782 0 17.066406 7.640625 17.066406 17.066406zm0 0" fill="#f5f5f5"/><path d="m469.359375 345.613281c0 16.496094-13.371094 29.867188-29.867187 29.867188-2.894532.011719-5.769532-.421875-8.53125-1.28125-12.652344-3.761719-21.324219-15.390625-21.324219-28.585938 0-13.195312 8.671875-24.824219 21.324219-28.585937 2.761718-.859375 5.636718-1.292969 8.53125-1.28125 16.496093 0 29.867187 13.371094 29.867187 29.867187zm0 0" fill="#0377bc"/><path d="m85.359375 345.613281c-.035156 13.1875-8.699219 24.800781-21.332031 28.585938-12.652344-3.761719-21.324219-15.390625-21.324219-28.585938 0-13.195312 8.671875-24.824219 21.324219-28.585937 12.632812 3.785156 21.296875 15.398437 21.332031 28.585937zm0 0" fill="#2fa8cc"/><path d="m452.292969 345.613281c-.035157 13.1875-8.699219 24.800781-21.332031 28.585938-12.652344-3.761719-21.324219-15.390625-21.324219-28.585938 0-13.195312 8.671875-24.824219 21.324219-28.585937 12.632812 3.785156 21.296874 15.398437 21.332031 28.585937zm0 0" fill="#2fa8cc"/><path d="m46.960938 61.171875c0 9.425781-7.640626 17.066406-17.066407 17.066406s-17.070312-7.640625-17.070312-17.066406 7.644531-17.066406 17.070312-17.066406 17.066407 7.640625 17.066407 17.066406zm0 0" fill="#02a9f4"/><path d="m499.226562 61.171875c0 9.425781-7.640624 17.066406-17.066406 17.066406-9.425781 0-17.066406-7.640625-17.066406-17.066406s7.640625-17.066406 17.066406-17.066406c9.425782 0 17.066406 7.640625 17.066406 17.066406zm0 0" fill="#02a9f4"/><path d="m221.894531 119.480469c18.847657 0 34.132813-15.28125 34.132813-34.132813 0-18.851562-15.285156-34.132812-34.132813-34.132812-18.851562 0-34.136719 15.28125-34.136719 34.132812 0 18.851563 15.285157 34.132813 34.136719 34.132813zm0-51.199219c9.425781 0 17.066407 7.640625 17.066407 17.066406 0 9.425782-7.640626 17.066406-17.066407 17.066406s-17.070312-7.640624-17.070312-17.066406c0-9.425781 7.644531-17.066406 17.070312-17.066406zm0 0"/><path d="m298.691406 119.480469c14.140625 0 25.601563-11.460938 25.601563-25.601563 0-14.136718-11.460938-25.597656-25.601563-25.597656-14.136718 0-25.597656 11.460938-25.597656 25.597656 0 14.140625 11.460938 25.601563 25.597656 25.601563zm0-34.132813c4.714844 0 8.535156 3.820313 8.535156 8.53125 0 4.714844-3.820312 8.535156-8.535156 8.535156-4.710937 0-8.53125-3.820312-8.53125-8.535156 0-4.710937 3.820313-8.53125 8.53125-8.53125zm0 0"/><path d="m25.625 86.769531c4.296875-.027343 8.515625-1.152343 12.253906-3.265625l122.820313 115.59375c-10.589844 4.171875-18.761719 12.859375-22.277344 23.683594-3.515625 10.828125-2.007813 22.660156 4.109375 32.257812l-60.902344 60.902344c-.203125.273438-.386718.558594-.554687.855469-15.882813-3.722656-32.378907 3.0625-41.050781 16.882813-8.667969 13.824218-7.597657 31.628906 2.667968 44.308593v23.089844c0 4.714844 3.820313 8.535156 8.535156 8.535156 4.710938 0 8.53125-3.820312 8.53125-8.535156v-10.886719c8.246094 3.140625 17.355469 3.140625 25.601563 0v10.886719c0 4.714844 3.820313 8.535156 8.535156 8.535156 4.710938 0 8.53125-3.820312 8.53125-8.535156v-23.089844c6.363281-7.773437 9.363281-17.765625 8.335938-27.761719-1.023438-9.992187-5.996094-19.167968-13.804688-25.484374l57.640625-57.636719c4.996094 3.117187 10.644532 5.027343 16.503906 5.582031.46875 4.660156 1.328126 9.273438 2.5625 13.789062-13.308593 7.175782-21.117187 21.535157-19.914062 36.605469 1.207031 15.070313 11.199219 28.003907 25.476562 32.976563v70.621094c.007813 7.222656 3.117188 14.097656 8.53125 18.875v6.726562c0 14.136719 11.464844 25.597656 25.601563 25.597656h8.535156c0 18.851563 15.28125 34.132813 34.132813 34.132813 18.851562 0 34.132812-15.28125 34.132812-34.132813h8.53125c14.140625 0 25.601563-11.460937 25.601563-25.597656v-6.726562c5.417969-4.777344 8.523437-11.652344 8.53125-18.875v-70.621094c14.28125-4.96875 24.277343-17.902344 25.484375-32.972656 1.207031-15.070313-6.605469-29.429688-19.910156-36.609376 1.234374-4.515624 2.089843-9.128906 2.558593-13.789062 5.859375-.554688 11.511719-2.464844 16.503907-5.582031l57.644531 57.636719c-7.8125 6.316406-12.785157 15.488281-13.8125 25.484374-1.027344 9.992188 1.96875 19.984376 8.332031 27.761719v23.089844c0 4.714844 3.820312 8.535156 8.535156 8.535156 4.710938 0 8.53125-3.820312 8.53125-8.535156v-10.886719c8.246094 3.140625 17.355469 3.140625 25.601563 0v10.886719c0 4.714844 3.820312 8.535156 8.53125 8.535156 4.714843 0 8.535156-3.820312 8.535156-8.535156v-23.089844c5.484375-6.738281 8.496094-15.152343 8.535156-23.84375.082031-11.707031-5.21875-22.804687-14.378906-30.097656-9.160156-7.296875-21.164063-9.976563-32.554687-7.277344-.167969-.292969-.347657-.578125-.546876-.851562l-60.894531-60.878907c6.121094-9.597656 7.628907-21.429687 4.113281-32.257812-3.519531-10.824219-11.691406-19.511719-22.28125-23.683594l122.820313-115.59375c3.742187 2.113282 7.957031 3.238282 12.253906 3.265625 14.140625 0 25.601563-11.460937 25.601563-25.597656 0-14.140625-11.460938-25.601563-25.601563-25.601563-14.136719 0-25.601562 11.460938-25.601562 25.601563.007812 3.308594.660156 6.582031 1.921875 9.640625l-121.632813 114.484375c-.75-5.132813-3.800781-9.640625-8.289062-12.246094v-19.4375h8.535156c14.136719 0 25.601563-11.460937 25.601563-25.601562v-17.066407c0-61.265624-49.667969-110.9335932-110.933594-110.9335932-61.269532 0-110.933594 49.6679692-110.933594 110.9335932v17.066407c0 6.789062 2.695312 13.300781 7.496094 18.101562 4.800781 4.800781 11.3125 7.5 18.101562 7.5h8.535156v19.4375c-4.484374 2.605469-7.535156 7.113281-8.285156 12.246094l-121.636718-114.457031c4.257812-10.429688 1.191406-22.417969-7.546876-29.527344-8.738281-7.109375-21.097656-7.667969-30.445312-1.382812-9.347656 6.289062-13.484375 17.949218-10.191406 28.722656 3.292968 10.773437 13.238281 18.128906 24.503906 18.117187zm25.601562 267.375c0-11.78125 9.550782-21.332031 21.332032-21.332031s21.335937 9.550781 21.335937 21.332031c0 11.785157-9.554687 21.335938-21.335937 21.335938-5.65625 0-11.082032-2.25-15.085938-6.25-4-4-6.246094-9.425781-6.246094-15.085938zm409.597657 0c0 11.785157-9.550781 21.335938-21.332031 21.335938s-21.332032-9.550781-21.332032-21.335938c0-11.78125 9.550782-21.332031 21.332032-21.332031s21.332031 9.550781 21.332031 21.332031zm-145.066407-200.53125v17.066407h-119.464843v-17.066407zm8.535157 34.132813v76.800781c0 37.703125-30.5625 68.265625-68.265625 68.265625s-68.269532-30.5625-68.269532-68.265625v-76.800781zm-8.535157 170.351562v58.171875c-4.664062-4.261719-10.746093-6.632812-17.066406-6.65625h-8.53125v-8.535156c0-18.851563-15.28125-34.132813-34.132812-34.132813-18.851563 0-34.132813 15.28125-34.132813 34.132813v8.535156h-8.535156c-6.316406.023438-12.402344 2.394531-17.066406 6.65625v-58.171875c10.460937-1.179687 19.976562-6.621094 26.289062-15.042968 21.363281 9.125 45.523438 9.125 66.886719 0 6.316406 8.421874 15.828125 13.863281 26.289062 15.042968zm-145.066406-144.316406v41.8125c-9.941406-2.019531-17.085937-10.761719-17.085937-20.90625s7.144531-18.886719 17.085937-20.90625zm0 106.230469c.027344-6.921875 3.414063-13.402344 9.082032-17.382813 6.402343 12.78125 15.894531 23.757813 27.613281 31.941406-3.964844 4.28125-9.523438 6.734376-15.359375 6.777344-5.660156 0-11.085938-2.25-15.085938-6.25s-6.25-9.425781-6.25-15.085937zm42.667969 140.800781c-4.710937 0-8.535156-3.820312-8.535156-8.53125v-17.066406c0-4.714844 3.824219-8.535156 8.535156-8.535156h8.535156v34.132812zm59.734375 17.066406c0 9.425782-7.640625 17.066406-17.066406 17.066406-9.425782 0-17.066406-7.640624-17.066406-17.066406v-76.800781c0-9.425781 7.640624-17.066406 17.066406-17.066406 9.425781 0 17.066406 7.640625 17.066406 17.066406zm34.132812-25.597656c0 4.710938-3.820312 8.53125-8.535156 8.53125h-8.53125v-34.132812h8.53125c4.714844 0 8.535156 3.820312 8.535156 8.535156zm34.132813-132.269531c0 11.785156-9.550781 21.335937-21.332031 21.335937-5.835938-.042968-11.394532-2.496094-15.359375-6.777344 11.71875-8.179687 21.214843-19.160156 27.621093-31.941406 5.664063 3.980469 9.046876 10.460938 9.070313 17.382813zm17.066406-85.332031c0 10.136718-7.136719 18.871093-17.066406 20.898437v-41.8125c9.9375 2.027344 17.074219 10.773437 17.066406 20.914063zm128-182.042969c4.714844 0 8.535157 3.820312 8.535157 8.535156 0 4.710937-3.820313 8.53125-8.535157 8.53125-4.710937 0-8.53125-3.820313-8.53125-8.53125 0-4.714844 3.820313-8.535156 8.53125-8.535156zm-324.265625 75.375v-17.066407c0-51.839843 42.023438-93.867187 93.867188-93.867187 51.839844 0 93.867187 42.027344 93.867187 93.867187v17.066407c0 4.714843-3.824219 8.535156-8.535156 8.535156h-170.667969c-4.710937 0-8.53125-3.820313-8.53125-8.535156zm-136.535156-75.375c4.714844 0 8.535156 3.820312 8.535156 8.535156 0 4.710937-3.820312 8.53125-8.535156 8.53125-4.710938 0-8.53125-3.820313-8.53125-8.53125 0-4.714844 3.820312-8.535156 8.53125-8.535156zm0 0"/><path d="m221.894531 273.078125c4.710938 0 8.53125-3.820313 8.53125-8.53125v-42.667969c0-4.710937-3.820312-8.53125-8.53125-8.53125-4.714843 0-8.535156 3.820313-8.535156 8.53125v42.667969c0 4.710937 3.820313 8.53125 8.535156 8.53125zm0 0"/><path d="m256.027344 273.078125c4.710937 0 8.53125-3.820313 8.53125-8.53125v-42.667969c0-4.710937-3.820313-8.53125-8.53125-8.53125-4.714844 0-8.535156 3.820313-8.535156 8.53125v42.667969c0 4.710937 3.820312 8.53125 8.535156 8.53125zm0 0"/><path d="m290.160156 273.078125c4.710938 0 8.53125-3.820313 8.53125-8.53125v-42.667969c0-4.710937-3.820312-8.53125-8.53125-8.53125-4.714844 0-8.535156 3.820313-8.535156 8.53125v42.667969c0 4.710937 3.820312 8.53125 8.535156 8.53125zm0 0"/><path d="m238.960938 307.214844h34.132812c4.710938 0 8.53125-3.824219 8.53125-8.535156 0-4.710938-3.820312-8.535157-8.53125-8.535157h-34.132812c-4.714844 0-8.535157 3.824219-8.535157 8.535157 0 4.710937 3.820313 8.535156 8.535157 8.535156zm0 0"/></svg>