<svg height="512pt" viewBox="-51 0 512 512.10604" width="512pt" xmlns="http://www.w3.org/2000/svg"><path d="m315.789062 239.039062v34.132813l-76.800781 110.933594h-68.265625l-5.886718-8.53125-70.914063-102.402344v-34.132813zm0 0" fill="#c52828"/><path d="m294.457031 239.039062 14.753907 4.285157-91.554688 132.25h-52.820312l-70.914063-102.402344v-34.132813zm0 0" fill="#f44335"/><path d="m132.320312 25.707031c0 9.425781-7.640624 17.066407-17.066406 17.066407-9.425781 0-17.066406-7.640626-17.066406-17.066407s7.640625-17.066406 17.066406-17.066406c9.425782 0 17.066406 7.640625 17.066406 17.066406zm0 0" fill="#8bc34a"/><path d="m311.523438 25.707031c0 9.425781-7.640626 17.066407-17.066407 17.066407s-17.066406-7.640626-17.066406-17.066407 7.640625-17.066406 17.066406-17.066406 17.066407 7.640625 17.066407 17.066406zm0 0" fill="#8bc34a"/><path d="m298.296875 197.226562c-4.847656 47.96875-45.226563 84.476563-93.441406 84.480469-3.5625.015625-7.125-.183593-10.667969-.597656-43.875-5.035156-78.324219-39.945313-82.773438-83.882813-.210937-2.414062.601563-4.808593 2.242188-6.59375 1.636719-1.785156 3.953125-2.800781 6.378906-2.792968h169.640625c2.425781-.007813 4.742188 1.007812 6.378907 2.792968 1.640624 1.785157 2.453124 4.179688 2.242187 6.59375zm0 0" fill="#c52828"/><path d="m276.960938 197.226562c-4.449219 43.9375-38.894532 78.847657-82.773438 83.882813-43.875-5.035156-78.324219-39.945313-82.773438-83.882813-.210937-2.414062.601563-4.808593 2.242188-6.59375 1.636719-1.785156 3.953125-2.800781 6.378906-2.792968h148.308594c2.425781-.007813 4.738281 1.007812 6.378906 2.792968 1.640625 1.785157 2.453125 4.179688 2.238282 6.59375zm0 0" fill="#f44335"/><path d="m273.121094 119.574219v68.265625h-136.53125v-68.265625c-.035156-33.59375 24.410156-62.203125 57.597656-67.414063 3.527344-.585937 7.09375-.871094 10.667969-.855468 18.113281-.023438 35.492187 7.160156 48.300781 19.96875 12.804688 12.808593 19.992188 30.1875 19.964844 48.300781zm0 0" fill="#c52828"/><path d="m251.789062 119.574219v68.265625h-115.199218v-68.265625c-.035156-33.59375 24.410156-62.203125 57.597656-67.414063 33.203125 5.1875 57.660156 33.808594 57.601562 67.414063zm0 0" fill="#f44335"/><path d="m238.988281 119.574219c0 18.851562-15.28125 34.132812-34.132812 34.132812-18.851563 0-34.132813-15.28125-34.132813-34.132812 0-18.851563 15.28125-34.136719 34.132813-34.136719 18.851562 0 34.132812 15.285156 34.132812 34.136719zm0 0" fill="#fff"/><path d="m196.320312 315.839844h17.070313c4.710937 0 8.53125 3.820312 8.53125 8.53125v17.066406c0 4.714844-3.820313 8.535156-8.53125 8.535156h-17.070313c-4.710937 0-8.53125-3.820312-8.53125-8.535156v-17.066406c0-4.710938 3.820313-8.53125 8.53125-8.53125zm0 0" fill="#607d8b"/><path d="m128.054688 418.238281v59.734375c0 14.136719-11.460938 25.601563-25.597657 25.601563-3.691406.007812-7.335937-.808594-10.667969-2.390625-9.109374-4.125-14.953124-13.210938-14.933593-23.210938v-59.734375c-.019531-10 5.824219-19.082031 14.933593-23.210937 3.332032-1.582032 6.976563-2.398438 10.667969-2.386719 14.136719 0 25.597657 11.460937 25.597657 25.597656zm0 0" fill="#37474f"/><path d="m332.855469 418.238281v59.734375c0 14.136719-11.460938 25.601563-25.601563 25.601563-3.6875.007812-7.332031-.808594-10.664062-2.390625-9.109375-4.125-14.957032-13.210938-14.933594-23.210938v-59.734375c-.023438-10 5.824219-19.082031 14.933594-23.210937 3.332031-1.582032 6.976562-2.398438 10.664062-2.386719 14.140625 0 25.601563 11.460937 25.601563 25.597656zm0 0" fill="#37474f"/><path d="m106.722656 418.238281v59.734375c.019532 10-5.824218 19.085938-14.933594 23.210938-9.109374-4.125-14.953124-13.210938-14.933593-23.210938v-59.734375c-.019531-10 5.824219-19.082031 14.933593-23.210937 2.78125 1.214844 5.300782 2.953125 7.421876 5.121094 4.808593 4.792968 7.511718 11.300781 7.511718 18.089843zm0 0" fill="#607d8b"/><path d="m311.523438 418.238281v59.734375c.019531 10-5.824219 19.085938-14.933594 23.210938-9.109375-4.125-14.957032-13.210938-14.933594-23.210938v-59.734375c-.023438-10 5.824219-19.082031 14.933594-23.210937 2.78125 1.214844 5.300781 2.953125 7.421875 5.121094 4.808593 4.792968 7.511719 11.300781 7.511719 18.089843zm0 0" fill="#607d8b"/><path d="m128.054688 426.773438h153.601562v42.664062h-153.601562zm0 0" fill="#d84315"/><path d="m64.054688 426.773438h12.800781v42.664062h-12.800781c-11.78125 0-21.332032-9.550781-21.332032-21.332031s9.550782-21.332031 21.332032-21.332031zm0 0" fill="#f44335"/><path d="m345.65625 469.4375h-12.800781v-42.664062h12.800781c11.78125 0 21.332031 9.550781 21.332031 21.332031s-9.550781 21.332031-21.332031 21.332031zm0 0" fill="#f44335"/><path d="m106.722656 256.105469-14.761718 25.601562h-29.613282l-14.761718-25.601562 14.761718-25.597657h29.613282zm0 0" fill="#d84315"/><path d="m362.125 256.105469-14.761719 25.601562h-29.613281l-14.761719-25.601562 14.761719-25.597657h29.613281zm0 0" fill="#d84315"/><path d="m81.121094 256.105469-14.761719 25.601562h-4.011719l-14.761718-25.601562 14.761718-25.597657h4.011719zm0 0" fill="#ff5722"/><path d="m345.058594 256.105469-14.761719 25.601562h-12.546875l-14.761719-25.601562 14.761719-25.597657h12.546875zm0 0" fill="#ff5722"/><g fill="#c52828"><path d="m46.988281 367.039062c0 9.425782-7.640625 17.066407-17.066406 17.066407s-17.066406-7.640625-17.066406-17.066407c0-9.425781 7.640625-17.066406 17.066406-17.066406s17.066406 7.640625 17.066406 17.066406zm0 0"/><path d="m396.855469 367.039062c0 9.425782-7.640625 17.066407-17.066407 17.066407-9.425781 0-17.066406-7.640625-17.066406-17.066407 0-9.425781 7.640625-17.066406 17.066406-17.066406 9.425782 0 17.066407 7.640625 17.066407 17.066406zm0 0"/><path d="m281.65625 426.773438h-145.066406l10.632812-26.574219c3.886719-9.71875 13.296875-16.089844 23.765625-16.09375h76.269531c10.464844.003906 19.878907 6.375 23.765626 16.09375zm0 0"/></g><path d="m213.390625 119.574219c0 4.710937-3.824219 8.53125-8.535156 8.53125-4.710938 0-8.535157-3.820313-8.535157-8.53125 0-4.714844 3.824219-8.535157 8.535157-8.535157 4.710937 0 8.535156 3.820313 8.535156 8.535157zm0 0"/><path d="m204.855469 76.90625c-23.5625 0-42.667969 19.101562-42.667969 42.667969 0 23.5625 19.105469 42.664062 42.667969 42.664062s42.667969-19.101562 42.667969-42.664062c-.03125-23.554688-19.117188-42.640625-42.667969-42.667969zm0 68.265625c-14.136719 0-25.601563-11.460937-25.601563-25.597656 0-14.140625 11.464844-25.601563 25.601563-25.601563s25.601562 11.460938 25.601562 25.601563c0 14.136719-11.464843 25.597656-25.601562 25.597656zm0 0"/><path d="m187.789062 358.507812h34.132813c4.714844 0 8.535156-3.824218 8.535156-8.535156v-34.132812c0-4.714844-3.820312-8.535156-8.535156-8.535156h-34.132813c-4.714843 0-8.535156 3.820312-8.535156 8.535156v34.132812c0 4.710938 3.820313 8.535156 8.535156 8.535156zm8.53125-34.136718h17.070313v17.066406h-17.070313zm0 0"/><path d="m409.65625 367.039062c-.046875-10.808593-6.875-20.425781-17.066406-24.03125v-18.636718c.328125-21.09375-8.203125-41.359375-23.519532-55.867188l4.695313-8.132812c1.523437-2.636719 1.523437-5.890625 0-8.53125l-14.773437-25.601563c-1.519532-2.632812-4.324219-4.257812-7.363282-4.265625h-29.59375c-3.046875 0-5.867187 1.625-7.390625 4.265625l-2.464843 4.269531h-14.3125c6.183593-13.375 9.386718-27.933593 9.386718-42.667968 0-4.714844-3.820312-8.535156-8.53125-8.535156h-17.066406v-59.730469c-.023438-8.867188-1.585938-17.664063-4.625-25.992188 17.175781-1.949219 30.167969-16.457031 30.222656-33.742187v-10.105469c11.757813-4.15625 18.808594-16.175781 16.699219-28.464844-2.109375-12.289062-12.761719-21.269531-25.230469-21.269531s-23.125 8.980469-25.230468 21.269531c-2.109376 12.289063 4.941406 24.308594 16.695312 28.464844v10.105469c0 9.425781-7.640625 17.066406-17.066406 17.066406h-4.453125c-14.230469-21.328125-38.175781-34.132812-63.8125-34.132812s-49.582031 12.804687-63.8125 34.132812h-4.453125c-9.425782 0-17.066406-7.640625-17.066406-17.066406v-10.105469c11.753906-4.15625 18.804687-16.175781 16.695312-28.464844-2.105469-12.289062-12.761719-21.269531-25.230469-21.269531s-23.121093 8.980469-25.230469 21.269531c-2.109374 12.289063 4.941407 24.308594 16.699219 28.464844v10.105469c.054688 17.285156 13.046875 31.792968 30.222657 33.742187-3.039063 8.328125-4.601563 17.125-4.625 25.992188v59.730469h-17.066407c-4.710937 0-8.53125 3.820312-8.53125 8.535156.011719 14.738281 3.230469 29.296875 9.425781 42.667968h-14.351562l-2.464844-4.269531c-1.523437-2.640625-4.34375-4.265625-7.390625-4.265625h-29.59375c-3.046875 0-5.867187 1.625-7.390625 4.265625l-14.777344 25.601563c-1.527343 2.640625-1.527343 5.894531 0 8.53125l4.691407 8.132812c-15.304688 14.515625-23.820313 34.78125-23.484375 55.867188v18.636718c-11.753906 4.15625-18.804688 16.179688-16.695313 28.464844 2.105469 12.289063 12.761719 21.273438 25.230469 21.273438s23.121094-8.984375 25.230469-21.273438c2.109375-12.285156-4.941407-24.308594-16.699219-28.464844v-18.636718c-.242188-14.96875 5.226562-29.46875 15.292969-40.546875l1.246093 2.148437c1.523438 2.640625 4.339844 4.265625 7.390626 4.265625h29.558593c2.234375-.003906 4.382813-.886719 5.972657-2.457031l62.96875 90.957031c-7.90625 3.652344-14.109376 10.195313-17.332032 18.289063l-4.421875 11.089844c-4.996093-16.066407-20.984375-26.070313-37.621093-23.539063-16.632813 2.527344-28.925782 16.835937-28.921876 33.660156h-4.265624c-16.496094 0-29.867188 13.371094-29.867188 29.867188 0 16.496093 13.371094 29.867187 29.867188 29.867187h4.265624c0 18.851563 15.285157 34.132813 34.136719 34.132813 18.851563 0 34.132813-15.28125 34.132813-34.132813h136.53125c0 18.851563 15.28125 34.132813 34.132812 34.132813 18.851563 0 34.136719-15.28125 34.136719-34.132813h4.265625c16.492188 0 29.867188-13.371094 29.867188-29.867187 0-16.496094-13.375-29.867188-29.867188-29.867188h-4.265625c.027344-14.84375-9.558594-27.996093-23.699219-32.515625-14.140625-4.515625-29.578125.640625-38.160156 12.753906l-.582031-1.441406c-4.164063-10.476562-13.273438-18.1875-24.292969-20.566406l61.441406-88.6875c1.589844 1.570312 3.734375 2.453125 5.972656 2.457031h29.558594c3.050782.003907 5.871094-1.621093 7.398438-4.265625l1.238281-2.148437c10.054687 11.085937 15.507813 25.582031 15.257813 40.546875v18.636718c-12.242188 4.363282-19.261719 17.214844-16.316407 29.871094 2.945313 12.65625 14.921875 21.089844 27.832031 19.59375 12.90625-1.496094 22.640626-12.4375 22.617188-25.433594zm-110.933594-349.867187c4.710938 0 8.53125 3.820313 8.53125 8.535156 0 4.710938-3.820312 8.53125-8.53125 8.53125-4.714844 0-8.535156-3.820312-8.535156-8.53125 0-4.714843 3.820312-8.535156 8.535156-8.535156zm-187.734375 0c4.714844 0 8.535157 3.820313 8.535157 8.535156 0 4.710938-3.820313 8.53125-8.535157 8.53125-4.710937 0-8.53125-3.820312-8.53125-8.53125 0-4.714843 3.820313-8.535156 8.53125-8.535156zm-85.332031 358.402344c-4.714844 0-8.535156-3.820313-8.535156-8.535157 0-4.710937 3.820312-8.53125 8.535156-8.53125 4.710938 0 8.53125 3.820313 8.53125 8.53125 0 4.714844-3.820312 8.535157-8.53125 8.535157zm94.300781-179.203125h169.8125c-4.375 43.609375-41.078125 76.8125-84.90625 76.8125s-80.527343-33.203125-84.90625-76.8125zm25.164063-76.796875c0-32.992188 26.746094-59.734375 59.734375-59.734375s59.734375 26.742187 59.734375 59.734375v59.730469h-119.46875zm-23.269532 128c19.164063 26.777343 50.074219 42.667969 83.003907 42.667969 32.929687 0 63.839843-15.890626 83.003906-42.667969h14.507813l-2.46875 4.265625c-1.523438 2.640625-1.523438 5.894531 0 8.53125l6.554687 11.351562-71.9375 103.851563h-59.320313l-71.886718-103.851563 6.554687-11.351562c1.523438-2.636719 1.523438-5.890625 0-8.53125l-2.46875-4.265625zm-58.8125 25.597656-9.847656-17.066406 9.847656-17.066407h19.703126l9.867187 17.066407-9.867187 17.066406zm1.015626 187.734375c-7.070313 0-12.800782-5.730469-12.800782-12.800781 0-7.070313 5.730469-12.800781 12.800782-12.800781h4.265624v25.601562zm55.46875 17.066406c0 9.425782-7.640626 17.066406-17.066407 17.066406s-17.066406-7.640624-17.066406-17.066406v-59.734375c0-9.425781 7.640625-17.066406 17.066406-17.066406s17.066407 7.640625 17.066407 17.066406zm17.066406-17.066406v-25.601562h136.53125v25.601562zm209.066406-25.601562c7.070312 0 12.800781 5.730468 12.800781 12.800781 0 7.070312-5.730469 12.800781-12.800781 12.800781h-4.265625v-25.601562zm-55.46875-17.066407c0-9.425781 7.640625-17.066406 17.066406-17.066406 9.425782 0 17.066406 7.640625 17.066406 17.066406v59.734375c0 9.425782-7.640624 17.066406-17.066406 17.066406-9.425781 0-17.066406-7.640624-17.066406-17.066406zm-27.09375-14.871093 5.976562 14.871093h-119.871093l5.976562-14.871093c2.5625-6.488282 8.835938-10.742188 15.8125-10.726563h76.269531c6.984376-.027344 13.269532 4.230469 15.835938 10.726563zm63.875-130.195313-9.867188-17.066406 9.867188-17.066407h19.703125l9.847656 17.066407-9.847656 17.066406zm57.085938 102.402344c-4.710938 0-8.53125-3.820313-8.53125-8.535157 0-4.710937 3.820312-8.53125 8.53125-8.53125 4.714843 0 8.535156 3.820313 8.535156 8.53125 0 4.714844-3.820313 8.535157-8.535156 8.535157zm0 0"/></svg>