<svg height="512pt" viewBox="-60 0 512 512.00228" width="512pt" xmlns="http://www.w3.org/2000/svg"><path d="m173.332031 50.398438c0 25.480468-20.65625 46.132812-46.132812 46.132812-25.476563 0-46.132813-20.652344-46.132813-46.132812 0-25.476563 20.65625-46.128907 46.132813-46.128907 25.476562 0 46.132812 20.652344 46.132812 46.128907zm0 0" fill="#fff"/><path d="m309.863281 50.398438c0 25.480468-20.652343 46.132812-46.132812 46.132812-25.476563 0-46.128907-20.652344-46.128907-46.132812 0-25.476563 20.652344-46.128907 46.128907-46.128907 25.480469 0 46.132812 20.652344 46.132812 46.128907zm0 0" fill="#fff"/><path d="m128 102.402344c-28.277344 0-51.199219-22.921875-51.199219-51.199219s22.921875-51.19921875 51.199219-51.19921875 51.199219 22.92187475 51.199219 51.19921875c-.027344 28.265625-22.933594 51.171875-51.199219 51.199219zm0-85.332032c-18.851562 0-34.132812 15.28125-34.132812 34.132813s15.28125 34.132813 34.132812 34.132813 34.132812-15.28125 34.132812-34.132813c0-9.054687-3.59375-17.734375-9.996093-24.136719-6.402344-6.402344-15.082031-9.996094-24.136719-9.996094zm0 0" fill="#7f8c8d"/><path d="m264.535156 102.402344c-28.277344 0-51.199218-22.921875-51.199218-51.199219s22.921874-51.19921875 51.199218-51.19921875 51.199219 22.92187475 51.199219 51.19921875c-.027344 28.265625-22.933594 51.171875-51.199219 51.199219zm0-85.332032c-18.851562 0-34.132812 15.28125-34.132812 34.132813s15.28125 34.132813 34.132812 34.132813c18.851563 0 34.132813-15.28125 34.132813-34.132813 0-9.054687-3.597657-17.734375-9.996094-24.136719-6.402344-6.402344-15.085937-9.996094-24.136719-9.996094zm0 0" fill="#7f8c8d"/><path d="m85.335938 170.667969h93.863281v68.269531h-93.863281c-4.714844 0-8.535157-3.824219-8.535157-8.535156v-51.199219c0-4.714844 3.820313-8.535156 8.535157-8.535156zm0 0" fill="#9e9e9e"/><path d="m238.933594 170.667969h68.265625c4.714843 0 8.535156 3.820312 8.535156 8.535156v51.199219c0 4.710937-3.820313 8.535156-8.535156 8.535156h-68.265625zm0 0" fill="#9e9e9e"/><path d="m179.199219 366.9375h34.136719v59.730469h-34.136719zm0 0" fill="#424242"/><path d="m68.269531 418.136719h256v34.132812h-256zm0 0" fill="#37474f"/><path d="m68.269531 418.136719h234.664063v34.132812h-234.664063zm0 0" fill="#607d8b"/><path d="m25.601562 332.800781h34.132813c9.425781 0 17.066406 7.640625 17.066406 17.066407v136.535156c0 9.425781-7.640625 17.066406-17.066406 17.066406h-34.132813c-9.425781 0-17.066406-7.640625-17.066406-17.066406v-136.535156c0-9.425782 7.640625-17.066407 17.066406-17.066407zm0 0" fill="#4e342e"/><path d="m332.800781 332.800781h34.132813c9.425781 0 17.066406 7.640625 17.066406 17.066407v136.535156c0 9.425781-7.640625 17.066406-17.066406 17.066406h-34.132813c-9.425781 0-17.066406-7.640625-17.066406-17.066406v-136.535156c0-9.425782 7.640625-17.066407 17.066406-17.066407zm0 0" fill="#4e342e"/><path d="m25.601562 332.800781h4.265626c9.425781 0 17.066406 7.640625 17.066406 17.066407v136.535156c0 9.425781-7.640625 17.066406-17.066406 17.066406h-4.265626c-9.425781 0-17.066406-7.640625-17.066406-17.066406v-136.535156c0-9.425782 7.640625-17.066407 17.066406-17.066407zm0 0" fill="#795548"/><path d="m332.800781 332.800781h4.265625c9.425782 0 17.066406 7.640625 17.066406 17.066407v136.535156c0 9.425781-7.640624 17.066406-17.066406 17.066406h-4.265625c-9.425781 0-17.066406-7.640625-17.066406-17.066406v-136.535156c0-9.425782 7.640625-17.066407 17.066406-17.066407zm0 0" fill="#795548"/><path d="m281.601562 170.667969v162.132812c0 28.277344-22.921874 51.203125-51.199218 51.203125h-68.269532c-28.273437 0-51.199218-22.925781-51.199218-51.203125v-162.132812c0-4.710938 3.820312-8.53125 8.535156-8.53125h153.597656c4.714844 0 8.535156 3.820312 8.535156 8.53125zm0 0" fill="#fec108"/><path d="m256 170.667969v162.132812c0 28.277344-22.921875 51.203125-51.199219 51.203125h-46.933593c-28.277344 0-51.199219-22.925781-51.199219-51.203125v-162.132812c0-4.710938 3.820312-8.53125 8.53125-8.53125h132.269531c4.710938 0 8.53125 3.820312 8.53125 8.53125zm0 0" fill="#fdd834"/><path d="m247.46875 264.535156v59.734375c0 14.136719-11.460938 25.597657-25.601562 25.597657h-51.199219c-14.136719 0-25.601563-11.460938-25.601563-25.597657v-59.734375zm0 0" fill="#f57c00"/><path d="m221.867188 264.535156v59.734375c0 14.136719-11.460938 25.597657-25.597657 25.597657h-25.601562c-14.136719 0-25.601563-11.460938-25.601563-25.597657v-59.734375zm0 0" fill="#ff9801"/><path d="m179.199219 264.535156h34.136719v34.132813h-34.136719zm0 0" fill="#d84315"/><path d="m145.066406 196.269531h34.132813v34.132813h-34.132813zm0 0" fill="#d84315"/><path d="m136.535156 51.203125c0 4.710937-3.820312 8.53125-8.535156 8.53125-4.710938 0-8.53125-3.820313-8.53125-8.53125 0-4.714844 3.820312-8.535156 8.53125-8.535156 4.714844 0 8.535156 3.820312 8.535156 8.535156zm0 0"/><path d="m273.066406 51.203125c0 4.710937-3.820312 8.53125-8.53125 8.53125-4.714844 0-8.535156-3.820313-8.535156-8.53125 0-4.714844 3.820312-8.535156 8.535156-8.535156 4.710938 0 8.53125 3.820312 8.53125 8.535156zm0 0"/><path d="m221.867188 213.335938c0 4.710937-3.820313 8.53125-8.53125 8.53125-4.714844 0-8.535157-3.820313-8.535157-8.53125 0-4.714844 3.820313-8.535157 8.535157-8.535157 4.710937 0 8.53125 3.820313 8.53125 8.535157zm0 0"/><path d="m256 213.335938c0 4.710937-3.820312 8.53125-8.53125 8.53125-4.714844 0-8.535156-3.820313-8.535156-8.53125 0-4.714844 3.820312-8.535157 8.535156-8.535157 4.710938 0 8.53125 3.820313 8.53125 8.535157zm0 0"/><path d="m170.667969 358.402344h51.199219c18.851562 0 34.132812-15.28125 34.132812-34.132813v-59.734375c0-4.710937-3.820312-8.53125-8.53125-8.53125h-102.402344c-4.710937 0-8.53125 3.820313-8.53125 8.53125v59.734375c0 18.851563 15.28125 34.132813 34.132813 34.132813zm34.132812-85.332032v17.066407h-17.066406v-17.066407zm-51.199219 0h17.066407v25.597657c0 4.714843 3.820312 8.535156 8.53125 8.535156h34.136719c4.710937 0 8.53125-3.820313 8.53125-8.535156v-25.597657h17.066406v51.199219c0 9.425781-7.640625 17.066407-17.066406 17.066407h-51.199219c-9.425781 0-17.066407-7.640626-17.066407-17.066407zm0 0"/><path d="m0 264.535156v17.066406c0 4.714844 3.820312 8.535157 8.535156 8.535157 4.710938 0 8.53125-3.820313 8.53125-8.535157v-17.066406h17.066406v17.066406c0 4.714844 3.820313 8.535157 8.535157 8.535157 4.710937 0 8.53125-3.820313 8.53125-8.535157v-17.066406c0-9.425781-7.640625-17.066406-17.066407-17.066406v-34.132812h34.136719v17.066406c0 9.425781 7.640625 17.066406 17.066407 17.066406h17.066406v85.332031c.035156 32.976563 26.757812 59.695313 59.730468 59.734375h8.535157v17.066406h-93.867188v-59.734374c0-14.136719-11.460937-25.597657-25.601562-25.597657h-17.066407c-14.136718 0-25.597656 11.460938-25.597656 25.597657v136.535156c0 14.136718 11.460938 25.601562 25.597656 25.601562h17.066407c14.140625 0 25.601562-11.464844 25.601562-25.601562v-25.601563h238.933594v25.601563c0 14.136718 11.460937 25.601562 25.601563 25.601562h17.066406c14.136718 0 25.597656-11.464844 25.597656-25.601562v-136.535156c0-14.136719-11.460938-25.597657-25.597656-25.597657h-17.066406c-14.140626 0-25.601563 11.460938-25.601563 25.597657v59.734374h-93.867187v-17.066406h8.535156c32.972656-.039062 59.695312-26.757812 59.730468-59.734375v-85.332031h17.066407c9.425781 0 17.070312-7.640625 17.070312-17.066406v-17.066406h34.132813v34.132812c-9.425782 0-17.066406 7.640625-17.066406 17.066406v17.066406c0 4.714844 3.820312 8.535157 8.53125 8.535157 4.714843 0 8.535156-3.820313 8.535156-8.535157v-17.066406h17.066406v17.066406c0 4.714844 3.820312 8.535157 8.53125 8.535157 4.714844 0 8.535156-3.820313 8.535156-8.535157v-17.066406c0-9.425781-7.640625-17.066406-17.066406-17.066406v-34.132812c0-9.425782-7.640625-17.066407-17.066406-17.066407h-34.132813v-17.066406c0-9.425781-7.644531-17.066406-17.070312-17.066406h-19.4375c-3.023438-5.265625-8.625-8.515625-14.695313-8.535157h-68.265625v-93.867187h9.300781c4.4375 26.246094 28.242188 44.714844 54.765626 42.488281 26.523437-2.226562 46.917968-24.402344 46.917968-51.019531s-20.394531-48.796875-46.917968-51.023437c-26.523438-2.222657-50.328126 16.246093-54.765626 42.488281h-35.667968c-4.4375-26.242188-28.242188-44.710938-54.765625-42.488281-26.523438 2.226562-46.917969 24.40625-46.917969 51.023437s20.394531 48.792969 46.917969 51.019531c26.523437 2.226563 50.328125-16.242187 54.765625-42.488281h9.300781v93.867187h-68.265625c-6.070312.019532-11.671875 3.269532-14.695312 8.535157h-19.4375c-9.425782 0-17.066407 7.640625-17.066407 17.066406v17.066406h-34.136719c-9.425781 0-17.066406 7.640625-17.066406 17.066407v34.132812c-9.425781 0-17.066406 7.640625-17.066406 17.066406zm264.535156-247.464844c18.851563 0 34.132813 15.28125 34.132813 34.132813s-15.28125 34.132813-34.132813 34.132813c-18.851562 0-34.132812-15.28125-34.132812-34.132813s15.28125-34.132813 34.132812-34.132813zm-136.535156 68.265626c-18.851562 0-34.132812-15.28125-34.132812-34.132813s15.28125-34.132813 34.132812-34.132813 34.132812 15.28125 34.132812 34.132813c0 9.050781-3.59375 17.734375-9.996093 24.136719-6.402344 6.398437-15.082031 9.996094-24.136719 9.996094zm-68.265625 366.933593v8.53125h-34.132813v-17.066406h34.132813zm0-59.734375h-34.132813v-17.066406h34.132813zm0 25.601563v8.53125h-34.132813v-17.066407h34.132813zm-25.601563-76.800781h17.066407c4.714843 0 8.535156 3.820312 8.535156 8.53125v8.535156h-34.132813v-8.535156c0-4.710938 3.820313-8.53125 8.53125-8.53125zm17.066407 153.601562h-17.066407c-4.710937 0-8.53125-3.824219-8.53125-8.535156v-8.535156h34.132813v8.535156c0 4.710937-3.820313 8.535156-8.535156 8.535156zm281.601562-42.667969v-8.535156h34.132813v17.066406h-34.132813zm34.132813-59.734375h-34.132813v-17.066406h34.132813zm-34.132813 25.601563v-8.535157h34.132813v17.066407h-34.132813zm25.601563 76.800781h-17.066406c-4.714844 0-8.535157-3.824219-8.535157-8.535156v-8.535156h34.132813v8.535156c0 4.710937-3.820313 8.535156-8.53125 8.535156zm-17.066406-153.601562h17.066406c4.710937 0 8.53125 3.820312 8.53125 8.53125v8.535156h-34.132813v-8.535156c0-4.710938 3.820313-8.53125 8.535157-8.53125zm-25.601563 102.398437h-238.933594v-17.066406h238.933594zm-110.933594-34.132813h-17.066406v-17.066406h17.066406zm102.398438-204.800781v25.601563h-17.066407v-51.199219h17.066407zm-34.132813-34.132812v162.132812c-.027344 23.554688-19.113281 42.640625-42.664062 42.667969h-68.269532c-23.550781-.027344-42.636718-19.113281-42.664062-42.667969v-162.132812zm-187.730468 8.535156h17.066406v51.199219h-17.066406zm0 0"/><path d="m145.066406 238.9375h34.132813c4.714843 0 8.535156-3.824219 8.535156-8.535156v-34.132813c0-4.714843-3.820313-8.535156-8.535156-8.535156h-34.132813c-4.710937 0-8.53125 3.820313-8.53125 8.535156v34.132813c0 4.710937 3.820313 8.535156 8.53125 8.535156zm8.535156-34.136719h17.066407v17.066407h-17.066407zm0 0"/></svg>