<svg height="511pt" viewBox="-21 0 511 511.7732" width="511pt" xmlns="http://www.w3.org/2000/svg"><path d="m461.1875 209.097656v209.066406c-.027344 9.414063-7.652344 17.035157-17.066406 17.066407h-281.597656c-9.414063-.03125-17.039063-7.652344-17.066407-17.066407v-209.066406c-.011719-10.203125.992188-20.378906 2.984375-30.378906l65.707032-10.925781c21.640624-3.617188 41.050781-15.445313 54.1875-33.023438l22.101562-29.355469c1.808594-2.410156 2.210938-5.601562 1.054688-8.386718-1.160157-2.789063-3.699219-4.757813-6.6875-5.179688l-74.15625-10.496094c23.875-17.410156 52.1875-27.707031 81.664062-29.695312 3.671875-.257812 7.339844-.425781 11.007812-.425781 8.753907 0 17.488282.742187 26.113282 2.21875l76.117187 35.410156c3.242188 2.734375 6.398438 5.632813 9.386719 8.621094 29.675781 29.554687 46.324219 69.734375 46.25 111.617187zm0 0" fill="#4527a0"/><path d="m439.855469 209.097656v209.066406c-.027344 9.414063-7.652344 17.035157-17.066407 17.066407h-260.265624c-9.414063-.03125-17.039063-7.652344-17.066407-17.066407v-209.066406c-.011719-10.203125.992188-20.378906 2.984375-30.378906l65.707032-10.925781c21.640624-3.617188 41.050781-15.445313 54.1875-33.023438l22.101562-29.355469c1.808594-2.410156 2.210938-5.601562 1.054688-8.386718-1.160157-2.789063-3.699219-4.757813-6.6875-5.179688l-74.15625-10.496094c23.875-17.410156 52.1875-27.707031 81.664062-29.695312 5.292969.289062 10.566406.886719 15.789062 1.792969l76.117188 35.410156c3.242188 2.734375 6.398438 5.632813 9.386719 8.621094 29.675781 29.554687 46.324219 69.734375 46.25 111.617187zm0 0" fill="#673ab7"/><path d="m443.355469 435.230469c-.359375-7.058594-1.980469-13.992188-4.78125-20.480469-1.96875-4.566406-4.460938-8.890625-7.421875-12.886719-7.800782-9.574219-17.503906-17.421875-28.503906-23.039062-5.714844-3.242188-11.347657-6.484375-17.066407-9.726563-6.824219-4.011718-13.738281-8.023437-20.648437-11.949218l-6.65625-3.839844c-6.316406-3.667969-13.226563-7.679688-20.652344-11.261719l-.253906-.34375-9.730469-4.09375c-7.589844-3.1875-15.746094-4.8125-23.976563-4.78125h-1.109374c-4.070313.007813-8.125.410156-12.117188 1.195313h-.257812c-3.996094.84375-7.90625 2.042968-11.691407 3.585937l-3.839843 1.707031c-1.789063.765625-3.582032 1.535156-5.375 2.386719l-.683594.34375c-7.59375 3.582031-14.421875 7.59375-20.734375 11.261719-2.21875 1.367187-4.4375 2.644531-6.570313 3.839844-6.914062 3.925781-13.738281 7.9375-20.652344 11.863281-5.714843 3.328125-11.347656 6.570312-17.066406 9.8125-10.996094 5.617187-20.703125 13.464843-28.5 23.039062-3.007812 4.011719-5.527344 8.367188-7.511718 12.972657-10.039063 23.824218-4.714844 51.351562 13.484374 69.714843 5.835938 5.804688 12.730469 10.441407 20.308594 13.65625 7.660156 3.28125 15.902344 4.992188 24.234375 5.03125h154.539063c8.503906.011719 16.921875-1.699219 24.746094-5.03125 7.671874-3.253906 14.628906-7.980469 20.480468-13.910156 5.675782-5.710937 10.195313-12.460937 13.3125-19.882813 3.921875-9.199218 5.535156-19.21875 4.695313-29.183593zm0 0" fill="#424242"/><path d="m417.753906 435.230469c-.359375-7.058594-1.976562-13.992188-4.777344-20.480469-1.972656-4.566406-4.464843-8.890625-7.425781-12.886719-7.796875-9.574219-17.503906-17.421875-28.5-23.039062-5.71875-3.242188-11.351562-6.484375-17.066406-9.726563-6.828125-4.011718-13.738281-8.023437-20.652344-11.949218l-6.65625-3.839844c-6.3125-3.667969-13.226562-7.679688-20.648437-11.261719l-.257813-.34375-9.726562-4.09375c-3.753907-1.542969-7.636719-2.742187-11.605469-3.585937h-.257812c-3.996094.84375-7.90625 2.042968-11.691407 3.585937l-3.839843 1.707031c-1.789063.765625-3.582032 1.535156-5.375 2.386719l-.683594.34375c-7.59375 3.582031-14.421875 7.59375-20.734375 11.261719-2.21875 1.367187-4.4375 2.644531-6.570313 3.839844-6.914062 3.925781-13.738281 7.9375-20.652344 11.863281-5.714843 3.328125-11.347656 6.570312-17.066406 9.8125-10.996094 5.617187-20.703125 13.464843-28.5 23.039062-3.007812 4.011719-5.527344 8.367188-7.511718 12.972657-10.039063 23.824218-4.714844 51.351562 13.484374 69.714843 5.835938 5.804688 12.730469 10.441407 20.308594 13.65625 7.660156 3.28125 15.902344 4.992188 24.234375 5.03125h128.941407c8.503906.011719 16.921874-1.699219 24.746093-5.03125 7.667969-3.253906 14.628907-7.980469 20.480469-13.910156 5.671875-5.710937 10.191406-12.460937 13.308594-19.882813 3.925781-9.199218 5.535156-19.21875 4.695312-29.183593zm0 0" fill="#9e9e9e"/><g fill="#37474f"><path d="m332.933594 395.550781c.011718 7.808594-3.085938 15.304688-8.609375 20.832031-5.523438 5.523438-13.019531 8.621094-20.832031 8.605469-2.886719 0-5.757813-.402343-8.53125-1.195312-12.460938-3.753907-20.992188-15.230469-20.992188-28.242188 0-13.015625 8.53125-24.492187 20.992188-28.246093 2.773437-.792969 5.644531-1.195313 8.53125-1.195313 7.8125-.015625 15.308593 3.082031 20.832031 8.609375 5.523437 5.523438 8.621093 13.019531 8.609375 20.832031zm0 0"/><path d="m255.621094 439.070312c-.003906 16.304688-13.222656 29.519532-29.527344 29.523438-2.890625.019531-5.769531-.414062-8.53125-1.277344-12.421875-3.773437-20.910156-15.226562-20.910156-28.203125 0-12.980469 8.488281-24.433593 20.910156-28.203125 2.761719-.867187 5.640625-1.300781 8.53125-1.28125 16.277344-.003906 29.484375 13.164063 29.527344 29.441406zm0 0"/><path d="m409.734375 438.984375c.015625 7.820313-3.078125 15.328125-8.601563 20.863281-5.523437 5.539063-13.019531 8.65625-20.839843 8.660156-2.894531.011719-5.773438-.417968-8.535157-1.277343-12.457031-3.730469-20.992187-15.199219-20.992187-28.203125 0-13.007813 8.535156-24.472656 20.992187-28.203125 2.761719-.859375 5.640626-1.292969 8.535157-1.28125 7.8125-.011719 15.308593 3.085937 20.832031 8.609375 5.523438 5.523437 8.621094 13.019531 8.609375 20.832031zm0 0"/></g><path d="m315.867188 395.550781c.007812 12.988281-8.480469 24.460938-20.90625 28.242188-12.460938-3.753907-20.992188-15.230469-20.992188-28.242188 0-13.015625 8.53125-24.492187 20.992188-28.246093 12.425781 3.785156 20.914062 15.253906 20.90625 28.246093zm0 0" fill="#607d8b"/><path d="m238.554688 439.070312c-.023438 13.007813-8.542969 24.472657-20.992188 28.246094-12.421875-3.773437-20.910156-15.226562-20.910156-28.203125 0-12.980469 8.488281-24.433593 20.910156-28.203125 12.421875 3.753906 20.9375 15.179688 20.992188 28.160156zm0 0" fill="#607d8b"/><path d="m392.664062 438.984375c.011719 12.992187-8.476562 24.460937-20.90625 28.246094-12.457031-3.730469-20.992187-15.199219-20.992187-28.203125 0-13.007813 8.535156-24.472656 20.992187-28.203125 12.4375 3.722656 20.941407 15.179687 20.90625 28.160156zm0 0" fill="#607d8b"/><path d="m356.3125 235.976562-184.488281 101.460938-.085938.085938-7.339843-18.175782-15.273438-37.546875 170.75-93.867187 7.679688-4.265625zm0 0" fill="#6a1b9a"/><path d="m339.246094 223.175781-174.847656 96.171875-15.273438-37.546875 170.75-93.867187zm0 0" fill="#9d27b0"/><path d="m117.464844 296.304688v38.914062l-26.707032 26.710938c-3.210937 3.21875-7.570312 5.03125-12.117187 5.03125h-51.714844c-9.066406.175781-16.800781-6.527344-17.917969-15.527344-.070312-.769532-.097656-1.535156-.085937-2.304688 1.6875.515625 3.441406.773438 5.207031.765625h51.710938c4.546875 0 8.90625-1.8125 12.117187-5.035156l26.707031-26.707031v-34.644532zm0 0" fill="#424242"/><path d="m112.386719 293.722656-7.679688 24.429688-26.707031 26.707031c-3.222656 3.234375-7.597656 5.046875-12.160156 5.035156h-51.710938c-1.765625.007813-3.519531-.25-5.207031-.765625.15625-4.265625 1.960937-8.304687 5.035156-11.265625 3.160157-3.242187 7.503907-5.058593 12.03125-5.035156h34.132813l17.066406-17.066406-17.066406-17.066407h-33.195313c-9.066406.175782-16.800781-6.527343-17.917969-15.53125-.070312-.765624-.097656-1.535156-.085937-2.304687.15625-4.261719 1.960937-8.300781 5.035156-11.261719 3.160157-3.242187 7.503907-5.058594 12.03125-5.035156h52.652344c4.546875.003906 8.90625 1.8125 12.117187 5.035156zm0 0" fill="#9e9e9e"/><path d="m290.4375 105.414062-22.101562 29.355469c-13.136719 17.578125-32.546876 29.40625-54.1875 33.023438l-65.707032 10.925781c1.007813-5.242188 2.289063-10.425781 3.839844-15.53125 9.945312-32.949219 30.457031-61.707031 58.367188-81.835938l67.925781 9.644532 6.230469.851562c2.988281.421875 5.527343 2.390625 6.6875 5.179688 1.15625 2.785156.753906 5.976562-1.054688 8.386718zm0 0" fill="#0377bc"/><path d="m278.574219 90.996094c-.226563.582031-.542969 1.128906-.9375 1.621094l-22.101563 29.351562c-13.132812 17.578125-32.546875 29.40625-54.1875 33.027344l-49.066406 8.191406c9.945312-32.949219 30.457031-61.707031 58.367188-81.835938zm0 0" fill="#02a9f4"/><path d="m417.667969 43.976562c-2.472657 5.289063-10.070313 7.507813-19.625 6.484376-5.4375-.621094-10.757813-2.03125-15.789063-4.179688-.9375-.34375-1.789062-.683594-2.730468-1.109375-17.066407-7.9375-27.730469-21.335937-23.808594-29.867187 2.390625-5.121094 9.386718-7.339844 18.347656-6.570313 6.863281.609375 13.566406 2.429687 19.796875 5.375 17.152344 7.9375 27.820313 21.332031 23.808594 29.867187zm0 0" fill="#c52828"/><path d="m417.667969 43.976562-10.070313 42.324219c-3.410156 7.339844-19.371094 7.507813-37.460937 1.023438-2.871094-.988281-5.691407-2.128907-8.445313-3.414063-21.421875-9.898437-35.5-24.914062-31.574218-33.449218l15.359374-21.164063 10.238282-13.992187c-3.921875 8.53125 6.742187 21.929687 23.808594 29.867187.941406.425781 1.792968.765625 2.730468 1.109375 5.03125 2.148438 10.351563 3.558594 15.789063 4.179688 9.554687 1.023437 17.152343-1.195313 19.625-6.484376zm0 0" fill="#c52828"/><path d="m400.601562 39.710938c-2.390624 5.03125-9.386718 7.335937-18.347656 6.570312-6.863281-.621094-13.5625-2.441406-19.796875-5.378906-6.316406-2.808594-12.066406-6.742188-16.980469-11.605469l10.238282-13.992187c2.390625-5.121094 9.386718-7.339844 18.347656-6.570313.9375.339844 1.792969.679687 2.730469 1.109375 17.152343 7.933594 27.820312 21.332031 23.808593 29.867188zm0 0" fill="#f44335"/><path d="m400.601562 39.710938-2.558593 10.75-7.511719 31.574218c-2.304688 4.863282-10.066406 6.570313-20.394531 5.289063-2.871094-.988281-5.691407-2.128907-8.445313-3.414063-21.421875-9.898437-35.5-24.914062-31.574218-33.449218l15.359374-21.164063c4.914063 4.863281 10.664063 8.796875 16.980469 11.605469 6.234375 2.9375 12.933594 4.757812 19.796875 5.378906 8.960938.765625 15.957032-1.539062 18.347656-6.570312zm0 0" fill="#f44335"/><path d="m461.1875 273.097656v68.265625h-42.664062c-14.140626 0-25.601563-11.460937-25.601563-25.601562v-17.066407c0-14.136718 11.460937-25.597656 25.601563-25.597656zm0 0" fill="#6a1b9a"/><path d="m439.855469 273.097656v68.265625h-21.332031c-14.140626 0-25.601563-11.460937-25.601563-25.601562v-17.066407c0-14.136718 11.460937-25.597656 25.601563-25.597656zm0 0" fill="#9d27b0"/><path d="m409.5625 207.046875c-6.414062 22.199219-29.363281 35.230469-51.710938 29.355469l-1.109374-.253906c-18.511719-5.332032-31.152344-22.40625-30.855469-41.664063.300781-19.261719 13.46875-35.929687 32.132812-40.683594 7.402344-1.933593 15.191407-1.816406 22.527344.339844 10.863281 3.167969 20.023437 10.523437 25.464844 20.445313 5.441406 9.921874 6.71875 21.597656 3.550781 32.460937zm0 0" fill="#37474f"/><path d="m388.226562 207.046875c-4.148437 14.515625-15.730468 25.707031-30.375 29.355469l-1.109374-.253906c-18.511719-5.332032-31.152344-22.40625-30.855469-41.664063.300781-19.261719 13.46875-35.929687 32.132812-40.683594.425781.085938.769531.253907 1.195313.339844 22.621094 6.597656 35.613281 30.285156 29.011718 52.90625zm0 0" fill="#607d8b"/><path d="m179.589844 315.761719c0 18.851562-15.285156 34.132812-34.132813 34.132812-2.882812.027344-5.753906-.347656-8.535156-1.109375-15.023437-3.925781-25.503906-17.496094-25.503906-33.023437 0-15.527344 10.480469-29.097657 25.503906-33.023438 2.78125-.761719 5.652344-1.136719 8.535156-1.109375 18.847657 0 34.132813 15.28125 34.132813 34.132813zm0 0" fill="#37474f"/><path d="m162.523438 315.761719c0-18.238281-11.464844-33.023438-25.601563-33.023438s-25.601563 14.785157-25.601563 33.023438 11.464844 33.023437 25.601563 33.023437 25.601563-14.785156 25.601563-33.023437zm0 0" fill="#607d8b"/><path d="m435.589844 307.230469c0 4.710937-3.820313 8.53125-8.535156 8.53125-4.710938 0-8.53125-3.820313-8.53125-8.53125 0-4.714844 3.820312-8.535157 8.53125-8.535157 4.714843 0 8.535156 3.820313 8.535156 8.535157zm0 0"/><path d="m303.484375 357.574219c-20.996094 0-38.015625 17.023437-38.015625 38.019531 0 20.992188 17.019531 38.015625 38.015625 38.015625s38.015625-17.023437 38.015625-38.015625c-.027344-20.984375-17.03125-37.988281-38.015625-38.019531zm0 58.957031c-8.472656 0-16.113281-5.105469-19.355469-12.933594-3.242187-7.828125-1.449218-16.839844 4.542969-22.832031 5.996094-5.988281 15.007813-7.78125 22.835937-4.535156 7.828126 3.246093 12.929688 10.886719 12.925782 19.363281-.058594 11.53125-9.417969 20.851562-20.949219 20.863281zm0 0"/><path d="m264.351562 434.179688v-.09375c-2.457031-18.933594-18.585937-33.101563-37.675781-33.101563-19.09375 0-35.21875 14.167969-37.675781 33.101563v.128906c-.214844 1.578125-.320312 3.171875-.324219 4.769531 0 20.996094 17.019531 38.015625 38.015625 38.015625s38.015625-17.019531 38.015625-38.015625c0-1.597656-.109375-3.191406-.324219-4.769531zm-37.660156 25.796874c-11.585937-.015624-20.976562-9.40625-20.992187-20.992187 0-.886719.0625-1.773437.179687-2.65625v-.050781c1.371094-10.417969 10.253906-18.207032 20.761719-18.207032s19.390625 7.789063 20.761719 18.207032v.050781c.121094.882813.179687 1.769531.179687 2.65625.003907 11.554687-9.335937 20.941406-20.890625 20.992187zm0 0"/><path d="m380.285156 400.976562c-15.378906 0-29.242187 9.261719-35.125 23.46875-5.882812 14.207032-2.628906 30.558594 8.246094 41.429688 10.875 10.875 27.226562 14.125 41.433594 8.238281 14.203125-5.886719 23.464844-19.753906 23.460937-35.128906-.027343-20.984375-17.035156-37.984375-38.015625-38.007813zm0 58.957032c-11.570312 0-20.949218-9.378906-20.949218-20.949219s9.378906-20.949219 20.949218-20.949219c11.570313 0 20.949219 9.378906 20.949219 20.949219.003906 5.5625-2.199219 10.898437-6.125 14.835937-3.929687 3.9375-9.261719 6.152344-14.824219 6.15625zm0 0"/><path d="m324.433594 451.441406h-42.667969c-4.710937 0-8.53125 3.820313-8.53125 8.535156 0 4.710938 3.820313 8.53125 8.53125 8.53125h42.667969c4.710937 0 8.53125-3.820312 8.53125-8.53125 0-4.714843-3.820313-8.535156-8.53125-8.535156zm0 0"/><path d="m25.988281 324.296875c-6.753906-.050781-13.242187 2.640625-17.980469 7.457031-5.445312 5.3125-8.207031 12.792969-7.515624 20.367188 1.480468 13.445312 12.929687 23.5625 26.453124 23.375h51.710938c6.792969.019531 13.3125-2.683594 18.097656-7.5l20.480469-20.480469c5.558594 5.035156 12.351563 8.507813 19.6875 10.058594v60.589843c.035156 10.859376 6.945313 20.507813 17.21875 24.035157.5625 18.214843 8.039063 35.53125 20.90625 48.429687 6.601563 6.558594 14.398437 11.796875 22.964844 15.425782 8.71875 3.722656 18.09375 5.664062 27.570312 5.71875h154.539063c9.640625.007812 19.183594-1.929688 28.058594-5.699219 8.683593-3.695313 16.5625-9.042969 23.203124-15.746094 6.449219-6.476563 11.585938-14.140625 15.128907-22.570313 3.410156-8.039062 5.285156-16.648437 5.527343-25.378906 10.511719-3.398437 17.648438-13.167968 17.683594-24.214844v-209.066406c.148438-44.160156-17.40625-86.535156-48.742187-117.652344-1.535157-1.527343-3.210938-2.941406-4.8125-4.417968l9.835937-41.097656c0-.179688 0-.339844 0-.519532 1.988282-7.800781-.15625-16.070312-5.679687-21.921875-12.859375-14.617187-31.285157-23.136719-50.75-23.4609372-8.039063-.3984378-15.722657 3.3398442-20.367188 9.9101562-.113281.136719-.273437.210938-.386719.355469l-24.675781 33.878906c-86.621093-11.042969-167.007812 46.84375-183.988281 132.496094v.09375l-.070312.265625c-2.105469 10.558594-3.164063 21.300781-3.164063 32.070312v64.851563c-7.335937 1.550781-14.128906 5.019531-19.6875 10.050781l-20.480469-20.480469c-4.789062-4.8125-11.304687-7.511719-18.097656-7.492187h-52.667969c-6.753906-.046875-13.242187 2.640625-17.980469 7.460937-5.445312 5.308594-8.207031 12.792969-7.515624 20.367188 1.480468 13.441406 12.929687 23.558593 26.453124 23.375h29.644532l8.53125 8.53125-8.53125 8.535156zm404.820313 136.769531c-2.6875 6.417969-6.589844 12.257813-11.492188 17.195313-5.082031 5.144531-11.117187 9.25-17.765625 12.085937-6.777343 2.882813-14.066406 4.363282-21.429687 4.359375h-154.539063c-7.195312-.050781-14.308593-1.535156-20.921875-4.371093-6.542968-2.773438-12.496094-6.769532-17.546875-11.773438-11.238281-11.296875-17.011719-26.921875-15.820312-42.8125.363281-6.054688 1.753906-12 4.113281-17.585938 1.707031-3.96875 3.878906-7.722656 6.46875-11.179687 7.109375-8.613281 15.917969-15.671875 25.875-20.738281 5.742188-3.265625 11.398438-6.519532 17.066406-9.8125 3.480469-1.980469 6.9375-3.976563 10.402344-5.972656l10.238281-5.863282c2.226563-1.246094 4.558594-2.558594 6.691407-3.898437l.851562-.511719c6.042969-3.515625 12.304688-7.152344 19.925781-10.769531 1.613281-.769531 3.21875-1.460938 5.164063-2.296875l3.695312-1.636719c6.574219-2.753906 13.640625-4.15625 20.769532-4.121094h1.109374c7.09375-.027343 14.121094 1.371094 20.667969 4.113281l8.300781 3.488282c.402344.292968.832032.550781 1.28125.761718 7.289063 3.523438 14.378907 7.679688 20.105469 10.980469l6.707031 3.867188c6.871094 3.902343 13.75 7.882812 20.640626 11.945312l17.066406 9.710938c9.960937 5.066406 18.773437 12.125 25.890625 20.734375 2.566406 3.457031 4.722656 7.195312 6.425781 11.144531 2.402344 5.554687 3.789062 11.496094 4.097656 17.539063v.304687c.71875 8.578125-.667968 17.199219-4.039062 25.113281zm21.847656-128.238281h-34.132812c-9.425782 0-17.066407-7.640625-17.066407-17.066406v-17.066407c0-9.425781 7.640625-17.066406 17.066407-17.066406h34.132812zm-99.578125-297.035156c6.25 7.351562 14.082031 13.183593 22.914063 17.066406 2.289062 1.058594 4.636718 1.996094 7.023437 2.816406.453125.152344.894531.246094 1.347656.390625 1.902344.625 3.804688 1.1875 5.691407 1.621094.554687.128906 1.09375.199219 1.648437.308594 1.707031.351562 3.410156.675781 5.117187.851562.777344.085938 1.503907.09375 2.261719.148438 1.128907.074218 2.277344.21875 3.363281.21875h1.390626c.496093 0 .972656 0 1.441406-.074219l-5.527344 23.328125c-2.851562 1.707031-15.941406 2.195312-34.449219-6.339844-18.511719-8.53125-26.558593-18.773437-27.1875-22.074218l14.136719-19.398438c.230469.359375.566406.761719.828125 1.136719zm17.066406-18.6875c6.992188.121093 13.871094 1.757812 20.167969 4.792969 6.40625 2.796874 12.113281 6.984374 16.699219 12.265624 3.011719 3.761719 3.0625 5.972657 2.941406 6.226563-.117187.257813-1.832031 1.648437-6.644531 1.800781-6.992188-.101562-13.875-1.734375-20.164063-4.777344-6.417969-2.792968-12.128906-6.972656-16.726562-12.246093-3.011719-3.761719-3.0625-5.972657-2.945313-6.230469.121094-.253906 1.835938-1.671875 6.648438-1.839844zm-47.597656 44.054687c1.820313 4.246094 4.425781 8.109375 7.679687 11.386719 8.050782 8.019531 17.515626 14.484375 27.914063 19.070313 10.234375 4.941406 21.292969 7.949218 32.621094 8.867187.941406.050781 1.835937.074219 2.699219.074219 3.578124.042968 7.136718-.480469 10.554687-1.542969 1.644531 1.484375 3.335937 2.925781 4.898437 4.488281 28.125 27.921875 43.882813 65.957032 43.742188 105.59375v55.464844h-34.132812c-18.851563 0-34.136719 15.28125-34.136719 34.132812v17.066407c0 18.851562 15.285156 34.132812 34.136719 34.132812h34.132812v68.269531c-.019531 2.089844-.839844 4.089844-2.289062 5.597657-.929688-4.25-2.257813-8.398438-3.957032-12.398438-2.242187-5.195312-5.082031-10.109375-8.457031-14.644531-8.5-10.5-19.085937-19.117188-31.085937-25.308594l-16.964844-9.671875c-6.828125-4.035156-13.808594-8.0625-20.703125-11.945312l-6.640625-3.824219c-5.605469-3.265625-12.5-7.277344-19.898438-10.921875-.601562-.480469-1.269531-.875-1.980468-1.175781l-9.734376-4.097656c-8.636718-3.628907-17.914062-5.492188-27.28125-5.476563h-1.109374c-9.453126-.03125-18.8125 1.84375-27.519532 5.511719l-4.003906 1.773437c-1.808594.777344-3.617188 1.554688-6.082031 2.75-7.578125 3.574219-14.441407 7.566407-20.480469 11.09375l-1.058594.621094c-2.117187 1.296875-4.265625 2.558594-6.324218 3.679687l-10.351563 5.972657c-3.414063 1.980469-6.824219 3.957031-10.367187 5.972656-5.691407 3.3125-11.308594 6.535156-17.015626 9.777344-12.007812 6.214843-22.601562 14.847656-31.113281 25.355469-3.410156 4.566406-6.277343 9.519531-8.53125 14.753906-1.605469 3.816406-2.871093 7.765625-3.789062 11.800781-1.214844-1.464844-1.894531-3.296875-1.929688-5.195313v-60.589843c8.824219-1.847657 16.835938-6.457031 22.871094-13.15625l180.71875-99.398438c12.109375 2.90625 24.871094 1.117188 35.71875-5 20.097656-10.847656 30.578125-33.695312 25.691406-56.003906-4.882812-22.308594-23.953125-38.683594-46.742187-40.144531-22.792969-1.457032-43.792969 12.351562-51.480469 33.855468l-166.777344 91.65625v-60.285156c.058594-7.703125.714844-15.386718 1.972657-22.980468l59.5625-9.917969c23.820312-3.933594 45.191406-16.933594 59.636718-36.273438l22.027344-29.371093c3.617188-4.828126 4.421875-11.203126 2.113281-16.777344-2.3125-5.570313-7.390625-9.511719-13.363281-10.359375l-50.761719-7.203125c21.070313-10.863282 44.441407-16.503906 68.144531-16.453125 6.433594.042969 12.855469.511719 19.226563 1.398437zm-153.199219 219.265625 148.265625-81.570312c1.117188 14.835937 8.605469 28.460937 20.53125 37.351562l-150.339843 82.6875c.078124-1.058593.316406-2.074219.316406-3.148437-.007813-14.160156-7.042969-27.390625-18.773438-35.320313zm189.773438-52.488281c-15.640625-4.539062-25.894532-19.492188-24.496094-35.714844 1.402344-16.222656 14.066406-29.199218 30.25-30.992187 16.1875-1.792969 31.382812 8.097656 36.300781 23.621093 4.914063 15.523438-1.820312 32.359376-16.085937 40.210938-7.941406 4.363281-17.285156 5.398438-25.984375 2.875zm-146.046875-137.625 70.5 10-22.066407 29.371094c-11.824218 15.835937-29.320312 26.472656-48.820312 29.679687l-52.921875 8.773438c8.78125-31.074219 27.503906-58.410157 53.308594-77.824219zm-67.617188 199.851562c14.136719 0 25.597657 11.460938 25.597657 25.597657 0 14.140625-11.460938 25.601562-25.597657 25.601562-14.140625 0-25.601562-11.460937-25.601562-25.601562 0-14.136719 11.460937-25.597657 25.601562-25.597657zm-79.300781 48.699219 17.066406-17.066406c3.332032-3.332031 3.332032-8.734375 0-12.066406l-17.066406-17.066407c-1.601562-1.601562-3.769531-2.5-6.035156-2.5h-33.175782c-4.667968.183594-8.738281-3.140624-9.488281-7.75-.238281-2.546874.703125-5.0625 2.558594-6.828124 1.5625-1.617188 3.722656-2.519532 5.972656-2.488282h52.667969c2.261719.007813 4.429688.90625 6.03125 2.5l22.1875 22.183594c-5.472656 11.351562-5.472656 24.578125 0 35.925781l-22.1875 22.1875c-1.601562 1.59375-3.769531 2.492188-6.03125 2.5h-51.710938c-4.65625.1875-8.722656-3.117187-9.488281-7.714843-.238281-2.546876.703125-5.0625 2.558594-6.824219 1.5625-1.617188 3.722656-2.519531 5.972656-2.492188h34.132813c2.265625 0 4.433594-.902343 6.035156-2.5zm0 0"/></svg>