<svg height="512pt" viewBox="0 0 512.13407 512" width="512pt" xmlns="http://www.w3.org/2000/svg"><path d="m342.617188 66.457031-43.863282 23.550781h-85.332031l-43.863281-23.550781 3.328125-29.953125c9.960937-6.785156 21.148437-11.566406 32.9375-14.078125h100.523437c11.789063 2.511719 22.976563 7.292969 32.941406 14.078125zm0 0" fill="#9e9e9e"/><path d="m322.816406 65.578125-42.238281 24.429687h-62.890625l-43.863281-23.550781 3.328125-29.953125c9.964844-6.785156 21.152344-11.566406 32.941406-14.078125h74.238281c9.210938 2.925781 17.5625 8.066407 24.320313 14.972657zm0 0" fill="#cfd8dc"/><path d="m340.761719 126.882812-22.382813-38.25c-3.527344-5.949218-9.925781-9.601562-16.84375-9.617187l-25.597656-.101563-39.050781-.160156-25.597657-.101562c-6.917968-.050782-13.351562 3.542968-16.933593 9.460937l-22.707031 38.066407-16.210938 27.214843 10.238281 20.480469 9.976563 19.683594c3.183594 6.097656 2.699218 13.457031-1.253906 19.082031l39.527343 26.207031c6.921875-2.550781 14.0625-4.46875 21.332031-5.734375 13.582032-2.230469 27.441407-2.171875 41.003907.167969 7.246093 1.328125 14.359375 3.304688 21.253906 5.90625l38.488281-27.980469c-2.730468-5.347656-2.664062-11.691406.167969-16.980469l10.136719-19.628906 10.472656-20.367187zm0 0" fill="#e57e25"/><path d="m170.753906 170.734375h170.667969v110.933594h-170.667969zm0 0" fill="#37474f"/><g fill="#9e9e9e"><path d="m68.4375 393.710938-1.449219 8.019531-11.859375 67.667969h34.730469l.511719-2.984376 10.238281-58.796874zm0 0"/><path d="m443.734375 393.710938 1.453125 8.019531 11.859375 67.667969h-34.730469l-.511718-2.984376-10.238282-58.796874zm0 0"/><path d="m324.355469 448.066406c0 21.207032-30.566407 38.402344-68.269531 38.402344-37.699219 0-68.265626-17.195312-68.265626-38.402344 0-12.125-7.074218-31.359375 8.535157-38.398437 11.6875-5.273438 43.585937 0 59.730469 0 16.144531 0 48.042968-5.273438 59.734374 0 15.609376 7.039062 8.535157 26.273437 8.535157 38.398437zm0 0"/><path d="m358.488281 324.332031c0 56.554688-45.847656 102.402344-102.402343 102.402344-3.582032 0-6.996094-.171875-10.496094-.511719h-.339844c-52.078125-5.566406-91.578125-49.511718-91.578125-101.890625 0-52.375 39.5-96.320312 91.578125-101.886719h.339844c3.5-.339843 6.914062-.511718 10.496094-.511718 56.554687 0 102.402343 45.847656 102.402343 102.398437zm0 0"/></g><path d="m337.152344 324.332031c-.007813 52.367188-39.492188 96.304688-91.5625 101.890625h-.339844c-52.078125-5.566406-91.578125-49.511718-91.578125-101.890625 0-52.375 39.5-96.320312 91.578125-101.886719h.339844c52.070312 5.585938 91.554687 49.523438 91.5625 101.886719zm0 0" fill="#cfd8dc"/><path d="m98.519531 372.5625 7.988281 1.390625 46.566407 8.132813-5.871094 33.621093-46.566406-8.121093-33.632813-5.871094 1.402344-7.988282 12.902344-16.484374zm0 0" fill="#424242"/><path d="m93.179688 345.027344 9.8125 13.964844c2.710937 3.855468 1.78125 9.179687-2.074219 11.886718l-34.910157 24.535156c-3.855468 2.707032-9.179687 1.78125-11.886718-2.078124l-9.8125-13.960938c-2.710938-3.855469-1.78125-9.179688 2.074218-11.890625l34.90625-24.53125c3.859376-2.710937 9.179688-1.78125 11.890626 2.074219zm0 0" fill="#9e9e9e"/><path d="m206.824219 424.039062 18.773437 26.691407c2.710938 3.855469 1.78125 9.175781-2.074218 11.886719l-13.976563 9.820312c-3.855469 2.710938-9.175781 1.78125-11.886719-2.074219l-22.921875-32.613281zm0 0" fill="#424242"/><path d="m212.824219 409.835938c-3.253907 18.570312-20.941407 30.988281-39.511719 27.734374-.851562-.171874-1.789062-.339843-2.644531-.597656-17.914063-4.625-28.878907-22.683594-24.722657-40.714844s21.921876-29.464843 40.054688-25.785156c18.128906 3.683594 30.027344 21.140625 26.824219 39.363282zm0 0" fill="#37474f"/><path d="m413.65625 372.5625-7.988281 1.390625-46.566407 8.132813 5.871094 33.621093 46.566406-8.121093 33.628907-5.871094-1.398438-7.988282.050781-22.28125zm0 0" fill="#424242"/><path d="m467.910156 379.289062-9.8125 13.960938c-2.710937 3.855469-8.03125 4.785156-11.886718 2.074219l-34.902344-24.535157c-3.855469-2.707031-4.78125-8.03125-2.070313-11.886718l9.808594-13.957032c2.710937-3.855468 8.035156-4.785156 11.890625-2.074218l34.898438 24.53125c3.855468 2.710937 4.785156 8.03125 2.074218 11.886718zm0 0" fill="#9e9e9e"/><path d="m337.460938 437.75-22.921876 32.613281c-2.707031 3.855469-8.03125 4.785157-11.886718 2.074219l-13.976563-9.820312c-3.855469-2.710938-4.78125-8.03125-2.074219-11.886719l18.773438-26.691407zm0 0" fill="#424242"/><path d="m338.859375 437.570312c-17.964844 2.992188-35.117187-8.648437-38.96875-26.449218-3.851563-17.800782 6.953125-35.492188 24.546875-40.195313.855469-.257812 1.792969-.425781 2.648438-.597656 18.523437-3.160156 36.121093 9.246094 39.363281 27.757813 3.242187 18.511718-9.089844 36.164062-27.589844 39.484374zm0 0" fill="#37474f"/><path d="m195.757812 409.835938c-2.277343 13.207031-12.105468 23.835937-25.089843 27.136718-15.023438-3.925781-25.5-17.496094-25.5-33.023437 0-15.527344 10.476562-29.097657 25.5-33.023438 17.265625 4.394531 28.210937 21.371094 25.089843 38.910157zm0 0" fill="#607d8b"/><path d="m324.4375 436.972656c-15.019531-3.925781-25.5-17.496094-25.5-33.023437 0-15.527344 10.480469-29.097657 25.5-33.023438 15.023438 3.925781 25.503906 17.496094 25.503906 33.023438 0 15.527343-10.480468 29.097656-25.503906 33.023437zm0 0" fill="#607d8b"/><path d="m238.167969 223.46875c-6.347657 1.164062-12.574219 2.90625-18.601563 5.207031l-34.648437-23.296875c3.441406-5.074218 3.832031-11.617187 1.023437-17.066406l-8.789062-17.578125h44.800781zm0 0" fill="#ff9801"/><path d="m290.21875 170.734375-16.210938 52.734375c-11.859374-2.046875-23.980468-2.046875-35.839843 0l-16.214844-52.734375zm0 0" fill="#ff9801"/><path d="m326.230469 188.3125c-2.457031 4.757812-2.488281 10.40625-.085938 15.1875l-33.535156 25.175781c-3.316406-1.285156-6.707031-2.371093-10.152344-3.242187-2.816406-.769532-5.632812-1.453125-8.449219-1.964844l14.589844-47.53125 1.621094-5.203125h44.800781zm0 0" fill="#f57c00"/><path d="m307.289062 315.800781c0 28.277344-22.925781 51.199219-51.203124 51.199219-2.859376.007812-5.71875-.25-8.53125-.769531-24.625-4.140625-42.660157-25.460938-42.660157-50.429688 0-24.972656 18.035157-46.289062 42.660157-50.433593 2.8125-.515626 5.671874-.773438 8.53125-.765626 13.582031 0 26.601562 5.394532 36.207031 14.996094 9.601562 9.601563 14.996093 22.625 14.996093 36.203125zm0 0" fill="#00838f"/><path d="m290.21875 315.800781c0-27.851562-19.101562-50.433593-42.664062-50.433593-23.566407 0-42.667969 22.582031-42.667969 50.433593 0 27.851563 19.101562 50.429688 42.667969 50.429688 23.5625 0 42.664062-22.578125 42.664062-50.429688zm0 0" fill="#00bcd4"/><path d="m273.152344 315.800781c0 9.425781-7.640625 17.066407-17.066406 17.066407-9.425782 0-17.066407-7.640626-17.066407-17.066407s7.640625-17.066406 17.066407-17.066406c9.425781 0 17.066406 7.640625 17.066406 17.066406zm0 0" fill="#424242"/><path d="m184.917969 205.378906c-1.65625 2.464844-3.917969 4.464844-6.570313 5.804688l-7.59375 3.839844-83.96875 41.980468c-8.460937 4.183594-18.710937.753906-22.953125-7.679687l-.085937-.167969-30.464844-60.84375c-4.179688-8.460938-.75-18.710938 7.679688-22.953125l91.5625-45.742187c.597656-.253907 1.109374-.511719 1.707031-.765626 8.179687-3.058593 17.347656.550782 21.25 8.363282l12.628906 25.257812 9.042969 18.261719 8.789062 17.578125c2.808594 5.449219 2.417969 11.992188-1.023437 17.066406zm0 0" fill="#37474f"/><path d="m478.894531 188.3125-30.550781 61.011719c-4.242188 8.433593-14.492188 11.863281-22.953125 7.679687l-17.070313-8.53125-74.496093-37.289062c-3.324219-1.664063-6.019531-4.359375-7.679688-7.683594-2.402343-4.78125-2.371093-10.429688.085938-15.1875l8.789062-17.578125 9.046875-18.261719 12.628906-25.257812c2.09375-4.203125 5.832032-7.351563 10.324219-8.707032 4.199219-1.246093 8.714844-.851562 12.628907 1.109376l74.496093 37.207031c.023438 0 .046875.007812.0625.023437.015625.019532.023438.039063.023438.0625l16.980469 8.449219c8.433593 4.242187 11.863281 14.492187 7.683593 22.953125zm0 0" fill="#37474f"/><path d="m159.320312 196.84375c-1.65625 2.46875-3.921874 4.464844-6.570312 5.804688l-7.597656 3.839843-83.964844 41.984375c-.554688.265625-1.125.492188-1.707031.683594l-30.464844-60.84375c-4.179687-8.460938-.753906-18.710938 7.679687-22.953125l91.5625-45.742187c.597657-.253907 1.109376-.511719 1.707032-.765626l12.542968 25.085938 9.046876 18.261719 8.789062 17.578125c2.808594 5.449218 2.414062 11.996094-1.023438 17.066406zm0 0" fill="#607d8b"/><path d="m461.824219 179.777344-30.546875 61.015625c-4.242188 8.429687-14.492188 11.859375-22.957032 7.679687l-74.496093-37.289062c-3.324219-1.664063-6.019531-4.359375-7.679688-7.683594-2.402343-4.78125-2.371093-10.429688.085938-15.1875l8.789062-17.578125 9.046875-18.261719 12.628906-25.257812c2.09375-4.203125 5.832032-7.351563 10.324219-8.707032 4.199219-1.246093 8.714844-.851562 12.628907 1.109376l74.496093 37.207031c.023438 0 .046875.007812.0625.023437.015625.019532.023438.039063.023438.0625 8.378906 4.246094 11.765625 14.453125 7.59375 22.867188zm0 0" fill="#607d8b"/><path d="m162.21875 294.46875c0 11.78125-9.550781 21.332031-21.332031 21.332031s-21.332031-9.550781-21.332031-21.332031c0-11.785156 9.550781-21.335938 21.332031-21.335938s21.332031 9.550782 21.332031 21.335938zm0 0" fill="#f57c00"/><path d="m392.621094 294.46875c0 11.78125-9.550782 21.332031-21.332032 21.332031-1.433593-.011719-2.863281-.152343-4.269531-.425781-9.941406-2.019531-17.085937-10.761719-17.085937-20.90625 0-10.148438 7.144531-18.890625 17.085937-20.910156 1.40625-.269532 2.835938-.414063 4.269531-.425782 11.78125 0 21.332032 9.550782 21.332032 21.335938zm0 0" fill="#f57c00"/><path d="m136.621094 294.46875c0-9.425781-3.820313-17.070312-8.535156-17.070312-4.710938 0-8.53125 7.644531-8.53125 17.070312s3.820312 17.066406 8.53125 17.066406c4.714843 0 8.535156-7.640625 8.535156-17.066406zm0 0" fill="#ff9801"/><path d="m384.085938 294.46875c0-11.546875-7.640626-20.910156-17.066407-20.910156s-17.066406 9.363281-17.066406 20.910156c0 11.542969 7.640625 20.90625 17.066406 20.90625s17.066407-9.363281 17.066407-20.90625zm0 0" fill="#ff9801"/><path d="m239.019531 85.398438-8.53125 42.667968h-48.300781l19.714844-34.132812c3.042968-5.273438 8.671875-8.527344 14.761718-8.535156zm0 0" fill="#ff9801"/><path d="m221.953125 128.066406v42.667969h-44.800781l-9.042969-18.261719 14.078125-24.40625zm0 0" fill="#ff9801"/><path d="m344.066406 152.472656-9.046875 18.261719h-44.800781v-42.667969h39.765625zm0 0" fill="#f57c00"/><path d="m281.6875 128.066406h-51.199219l8.53125-42.667968h34.132813zm0 0" fill="#ff9801"/><path d="m329.984375 128.066406h-48.296875l-8.535156-42.667968h22.359375c6.089843.007812 11.714843 3.261718 14.761719 8.535156zm0 0" fill="#f57c00"/><path d="m304.898438 193.519531c-2.460938 4.726563-2.492188 10.347657-.085938 15.101563l-22.355469 16.8125c-2.816406-.769532-5.632812-1.453125-8.449219-1.964844l14.589844-47.53125h25.089844zm0 0" fill="#ff9801"/><path d="m322.734375 152.472656-9.046875 18.261719h-23.46875v-42.667969h18.433594zm0 0" fill="#ff9801"/><path d="m308.652344 128.066406h-26.964844l-8.535156-42.667968h1.027344c6.089843.007812 11.714843 3.261718 14.761718 8.535156zm0 0" fill="#ff9801"/><path d="m221.953125 128.066406h68.265625v42.667969h-68.265625zm0 0" fill="#ff9801"/><path d="m216.664062 85.398438c-6.089843.007812-11.71875 3.261718-14.761718 8.535156l-19.714844 34.132812-14.078125 24.40625-7.9375-15.871094-4.691406-9.386718c-2.09375-4.203125-5.832031-7.351563-10.328125-8.707032v-42.238281h17.066406l3.5-6.144531 3.839844-6.65625 43.863281 21.929688zm0 0" fill="#37474f"/><path d="m367.019531 76.269531v42.238281c-4.492187 1.355469-8.230469 4.503907-10.324219 8.707032l-12.628906 25.257812-9.132812-15.871094-4.949219-8.535156-19.710937-34.132812c-3.046876-5.273438-8.671876-8.527344-14.761719-8.535156h3.242187l30.636719-15.273438 13.226563-6.65625 7.335937 12.800781zm0 0" fill="#37474f"/><path d="m199.597656 85.398438c-6.09375.007812-11.71875 3.261718-14.761718 8.535156l-19.714844 34.132812-4.949219 8.535156-4.691406-9.386718c-2.09375-4.203125-5.832031-7.351563-10.328125-8.707032v-42.238281h17.066406l3.5-6.144531 30.636719 15.273438zm0 0" fill="#607d8b"/><path d="m349.953125 76.269531v55.039063c0 9.558594-8.105469 17.152344-10.324219 21.503906l-4.695312-16.210938-4.949219-8.535156-19.710937-34.132812c-3.046876-5.273438-8.671876-8.527344-14.761719-8.535156h3.242187l30.636719-15.273438 7.5-2.054688zm0 0" fill="#607d8b"/><path d="m111.875 48.109375-93.953125 33.964844c-7.183594 2.644531-10.96875 10.515625-8.546875 17.78125 2.421875 7.261719 10.171875 11.289062 17.507812 9.097656l105.214844-32.683594zm0 0" fill="#ff9801"/><path d="m503.554688 95.300781c.027343 4.511719-2.097657 8.773438-5.71875 11.46875-3.621094 2.695313-8.3125 3.503907-12.628907 2.183594l-13.566406-4.183594-91.5625-28.5 18.261719-25.429687 1.960937-2.730469 93.867188 33.964844c5.628906 1.957031 9.398437 7.265625 9.386719 13.226562zm0 0" fill="#f57c00"/><path d="m482.21875 91.03125c.054688 6.46875-4.3125 12.136719-10.578125 13.738281l-91.5625-28.5 18.261719-25.429687 74.496094 26.964844c5.625 1.957031 9.394531 7.269531 9.382812 13.226562zm0 0" fill="#ff9801"/><path d="m307.289062 25.667969c0-9.425781-22.925781-17.066407-51.203124-17.066407-28.277344 0-51.199219 7.640626-51.199219 17.066407s22.921875 17.066406 51.199219 17.066406c28.277343 0 51.203124-7.640625 51.203124-17.066406zm0 0" fill="#00bcd4"/><path d="m179.289062 46.660156-9.730468 16.808594-7.339844 12.800781h-34.132812l-16.210938-28.160156-.855469-1.449219 17.066407-29.527344h34.132812l10.667969 18.433594zm0 0" fill="#9e9e9e"/><path d="m401.152344 46.660156-.851563 1.449219-16.214843 28.160156h-34.132813l-7.335937-12.800781-9.730469-16.808594 6.402343-11.09375 10.664063-18.433594h34.132813zm0 0" fill="#9e9e9e"/><path d="m157.953125 46.660156-9.726563 16.808594-7.339843 12.800781h-12.800781l-16.210938-28.160156-.855469-1.449219 17.066407-29.527344h12.800781l10.667969 18.433594zm0 0" fill="#cfd8dc"/><path d="m379.820312 46.660156-.851562 1.449219-16.214844 28.160156h-12.800781l-7.335937-12.800781-9.730469-16.808594 6.402343-11.09375 10.664063-18.433594h12.800781zm0 0" fill="#cfd8dc"/><path d="m46.015625 503.535156h-23.589844c-2.953125-.003906-5.699219-1.535156-7.253906-4.050781s-1.695313-5.652344-.375-8.296875l8.535156-17.066406c1.445313-2.890625 4.398438-4.71875 7.628907-4.722656h37.394531l-14.714844 29.417968c-1.441406 2.890625-4.394531 4.714844-7.625 4.71875zm0 0" fill="#37474f"/><path d="m90.695312 503.535156h23.585938c2.957031-.003906 5.699219-1.535156 7.253906-4.050781 1.554688-2.515625 1.695313-5.652344.375-8.296875l-8.535156-17.066406c-1.445312-2.890625-4.398438-4.71875-7.628906-4.722656h-37.390625l14.710937 29.417968c1.445313 2.890625 4.398438 4.714844 7.628906 4.71875zm0 0" fill="#37474f"/><path d="m466.160156 503.535156h23.585938c2.957031-.003906 5.703125-1.535156 7.257812-4.050781 1.550782-2.515625 1.695313-5.652344.371094-8.296875l-8.53125-17.066406c-1.445312-2.890625-4.398438-4.71875-7.628906-4.722656h-37.394532l14.710938 29.417968c1.445312 2.890625 4.398438 4.714844 7.628906 4.71875zm0 0" fill="#37474f"/><path d="m421.480469 503.535156h-23.585938c-2.957031-.003906-5.703125-1.535156-7.253906-4.050781-1.554687-2.515625-1.695313-5.652344-.375-8.296875l8.53125-17.066406c1.445313-2.890625 4.398437-4.71875 7.628906-4.722656h37.394531l-14.710937 29.417968c-1.445313 2.890625-4.398437 4.714844-7.628906 4.71875zm0 0" fill="#37474f"/><path d="m80.019531 188.277344c0 4.714844-3.820312 8.535156-8.535156 8.535156-4.710937 0-8.53125-3.820312-8.53125-8.535156 0-4.710938 3.820313-8.53125 8.53125-8.53125 4.714844 0 8.535156 3.820312 8.535156 8.53125zm0 0"/><path d="m110.542969 173.011719c0 4.714843-3.820313 8.535156-8.535157 8.535156-4.710937 0-8.53125-3.820313-8.53125-8.535156 0-4.710938 3.820313-8.53125 8.53125-8.53125 4.714844 0 8.535157 3.820312 8.535157 8.53125zm0 0"/><path d="m141.074219 157.746094c0 4.710937-3.820313 8.535156-8.53125 8.535156-4.714844 0-8.535157-3.824219-8.535157-8.535156 0-4.714844 3.820313-8.535156 8.535157-8.535156 4.710937 0 8.53125 3.820312 8.53125 8.535156zm0 0"/><path d="m156.339844 188.277344c0 4.714844-3.820313 8.535156-8.53125 8.535156-4.714844 0-8.535156-3.820312-8.535156-8.535156 0-4.710938 3.820312-8.53125 8.535156-8.53125 4.710937 0 8.53125 3.820312 8.53125 8.53125zm0 0"/><path d="m125.808594 203.542969c0 4.714843-3.820313 8.535156-8.53125 8.535156-4.714844 0-8.535156-3.820313-8.535156-8.535156 0-4.710938 3.820312-8.53125 8.535156-8.53125 4.710937 0 8.53125 3.820312 8.53125 8.53125zm0 0"/><path d="m95.277344 218.800781c0 4.714844-3.820313 8.535157-8.535156 8.535157-4.710938 0-8.53125-3.820313-8.53125-8.535157 0-4.710937 3.820312-8.53125 8.53125-8.53125 4.714843 0 8.535156 3.820313 8.535156 8.53125zm0 0"/><path d="m449.222656 188.277344c0 4.714844-3.820312 8.535156-8.535156 8.535156-4.710938 0-8.53125-3.820312-8.53125-8.535156 0-4.710938 3.820312-8.53125 8.53125-8.53125 4.714844 0 8.535156 3.820312 8.535156 8.53125zm0 0"/><path d="m418.699219 173.011719c0 4.714843-3.820313 8.535156-8.535157 8.535156-4.710937 0-8.53125-3.820313-8.53125-8.535156 0-4.710938 3.820313-8.53125 8.53125-8.53125 4.714844 0 8.535157 3.820312 8.535157 8.53125zm0 0"/><path d="m388.167969 157.746094c0 4.710937-3.820313 8.535156-8.535157 8.535156-4.710937 0-8.53125-3.824219-8.53125-8.535156 0-4.714844 3.820313-8.535156 8.53125-8.535156 4.714844 0 8.535157 3.820312 8.535157 8.535156zm0 0"/><path d="m372.898438 188.277344c0 4.714844-3.820313 8.535156-8.53125 8.535156-4.714844 0-8.535157-3.820312-8.535157-8.535156 0-4.710938 3.820313-8.53125 8.535157-8.53125 4.710937 0 8.53125 3.820312 8.53125 8.53125zm0 0"/><path d="m403.433594 203.542969c0 4.714843-3.820313 8.535156-8.535156 8.535156-4.710938 0-8.53125-3.820313-8.53125-8.535156 0-4.710938 3.820312-8.53125 8.53125-8.53125 4.714843 0 8.535156 3.820312 8.535156 8.53125zm0 0"/><path d="m433.964844 218.800781c0 4.714844-3.820313 8.535157-8.535156 8.535157-4.710938 0-8.53125-3.820313-8.53125-8.535157 0-4.710937 3.820312-8.53125 8.53125-8.53125 4.714843 0 8.535156 3.820313 8.535156 8.53125zm0 0"/><path d="m256.085938 256.066406c-32.988282 0-59.730469 26.746094-59.730469 59.734375s26.742187 59.734375 59.730469 59.734375c32.992187 0 59.734374-26.746094 59.734374-59.734375-.039062-32.976562-26.757812-59.695312-59.734374-59.734375zm0 102.402344c-23.5625 0-42.664063-19.105469-42.664063-42.667969 0-23.566406 19.101563-42.667969 42.664063-42.667969 23.566406 0 42.667968 19.101563 42.667968 42.667969-.027344 23.550781-19.113281 42.636719-42.667968 42.667969zm0 0"/><path d="m256.085938 290.199219c-14.136719 0-25.597657 11.460937-25.597657 25.601562 0 14.136719 11.460938 25.597657 25.597657 25.597657 14.140624 0 25.601562-11.460938 25.601562-25.597657 0-14.140625-11.460938-25.601562-25.601562-25.601562zm0 34.132812c-4.710938 0-8.53125-3.820312-8.53125-8.53125 0-4.714843 3.820312-8.535156 8.53125-8.535156 4.714843 0 8.535156 3.820313 8.535156 8.535156 0 4.710938-3.820313 8.53125-8.535156 8.53125zm0 0"/><path d="m9.140625 113.601562c3.898437 2.929688 8.640625 4.515626 13.515625 4.523438 2.292969-.003906 4.570312-.347656 6.761719-1.023438l104.027343-32.316406h3.175782v24.832032c-2.75.34375-5.421875 1.144531-7.910156 2.363281l-91.597657 45.765625c-12.574219 6.40625-17.664062 21.730468-11.425781 34.390625l30.558594 61.039062c5.453125 11.109375 18.152344 16.628907 29.992187 13.039063l21.992188 10.835937c-8.101563 11.039063-7.605469 26.1875 1.199219 36.671875 8.804687 10.488282 23.636718 13.597656 35.910156 7.53125 0 1.03125-.152344 2.039063-.152344 3.078125.023438 15.417969 3.28125 30.65625 9.566406 44.734375-1.589844 1.179688-3.101562 2.46875-4.515625 3.855469l-33.945312-5.921875c.285156-2.097656-.21875-4.226562-1.414063-5.972656l-14.710937-20.933594c-2.605469-3.703125-6.570313-6.226562-11.03125-7.003906-4.460938-.78125-9.046875.246094-12.753907 2.847656l-34.910156 24.570312c-7.703125 5.417969-9.558594 16.054688-4.144531 23.765626l14.710937 20.949218c1.230469 1.710938 3.054688 2.902344 5.121094 3.34375l-9.191406 52.300782h-22.28125c-3.234375 0-6.191406 1.824218-7.636719 4.71875l-17.066406 34.132812c-1.324219 2.644531-1.179687 5.789062.375 8.304688 1.554687 2.515624 4.304687 4.046874 7.261719 4.042968h42.667968c3.234376.003906 6.191407-1.824218 7.636719-4.71875l9.429688-18.867187 9.429687 18.867187c1.445313 2.894532 4.402344 4.722656 7.636719 4.71875h42.664063c2.960937.003906 5.707031-1.527344 7.261718-4.042968 1.558594-2.515626 1.699219-5.660157.378906-8.304688l-17.070312-34.132812c-1.179688-2.308594-3.347656-3.953126-5.886719-4.472657l37.164063-26.121093c5.519531 5.171874 12.332031 8.761718 19.71875 10.394531l21 29.867187c2.59375 3.714844 6.5625 6.234375 11.027344 6.996094.628906.09375 1.265624.148438 1.902343.171875 11.273438 9.164063 33.867188 12.578125 52.503907 12.578125 18.636718 0 41.234374-3.414062 52.507812-12.5625.636719-.019531 1.269531-.078125 1.902344-.167969 4.464844-.765625 8.433594-3.285156 11.023437-7l21-29.863281c7.390625-1.632812 14.199219-5.222656 19.722657-10.394531l37.207031 26.101562c-2.542969.519531-4.707031 2.164063-5.890625 4.472657l-17.066406 34.132812c-1.316407 2.640625-1.179688 5.773438.367187 8.285156 1.542969 2.511719 4.277344 4.050782 7.226563 4.0625h42.667968c3.25.019532 6.226563-1.8125 7.679688-4.71875l9.386718-18.867187 9.386719 18.867187c1.453125 2.90625 4.429688 4.738282 7.679688 4.71875h42.667969c2.964843.015625 5.726562-1.507812 7.292968-4.027344 1.566406-2.515624 1.710938-5.667968.386719-8.320312l-17.066406-34.132812c-1.453125-2.90625-4.429688-4.738282-7.679688-4.71875h-22.28125l-9.191406-52.300782c2.0625-.441406 3.890625-1.632812 5.121094-3.34375l14.710937-20.941406c2.605469-3.707031 3.628906-8.292969 2.851563-12.753906-.78125-4.460938-3.300781-8.425782-7.007813-11.03125l-34.890625-24.523438c-3.703125-2.605468-8.292969-3.628906-12.75-2.851562-4.460937.777344-8.429687 3.292968-11.035156 7l-14.71875 20.90625c-1.195313 1.746094-1.703125 3.875-1.417969 5.972656l-33.917968 5.921875c-1.414063-1.390625-2.921876-2.679687-4.515626-3.855469 6.292969-14.074218 9.554688-29.316406 9.574219-44.734375 0-1.039062-.125-2.046875-.152343-3.078125 4.027343 2 8.457031 3.050782 12.953124 3.078125 11.21875.042969 21.507813-6.226562 26.609376-16.214843 5.105468-9.992188 4.15625-22-2.449219-31.066407l21.988281-10.835937c2.253906.679687 4.59375 1.046875 6.945312 1.082031 9.734376 0 18.640626-5.46875 23.042969-14.148437l30.53125-61.011719c6.214844-12.679688 1.085938-27.996094-11.511719-34.375l-91.476562-45.761719c-2.5-1.222656-5.183594-2.027344-7.945312-2.375v-24.839844h3.164062l103.972656 32.316406c6.917969 2.160157 14.453125.859376 20.25-3.5 6.707032-4.988281 10.128906-13.265624 8.902344-21.535156-1.230469-8.273437-6.90625-15.195312-14.773438-18.023437l-88.824218-32.164063-16.769532-29.011718c-1.523437-2.640626-4.339843-4.265626-7.390624-4.265626h-34.132813c-3.046875 0-5.863281 1.625-7.390625 4.265626l-6.339844 10.972656c-7.953125-3.894532-16.320312-6.890625-24.941406-8.925782-9.445312-10.164062-32.375-14.8476558-55.195312-14.8476558-22.816407 0-45.746094 4.6835938-55.191407 14.8476558-8.621093 2.035157-16.988281 5.03125-24.945312 8.925782l-6.339844-10.972656c-1.523437-2.640626-4.339844-4.265626-7.390625-4.265626h-34.132812c-3.046876 0-5.863282 1.625-7.386719 4.265626l-16.769531 29.011718-88.816407 32.136719c-8.984375 3.203125-15.0156248 11.667969-15.10937475 21.207031-.09765625 7.242188 3.30468775 14.085938 9.13671875 18.378906zm153.078125-28.816406c3.050781 0 5.867188-1.625 7.390625-4.265625l3.355469-5.804687 23.894531 11.949218c-.855469.941407-1.632813 1.949219-2.332031 3.011719l-19.710938 34.132813-6.160156 10.675781-5.539062-11.09375c-2.210938-4.339844-5.609376-7.960937-9.804688-10.4375.203125-.632813.332031-1.289063.375-1.953125v-26.214844zm83.800781 9.148438h20.136719l5.121094 25.601562h-30.378906zm49.492188 0c3.042969.007812 5.851562 1.632812 7.371093 4.265625l12.324219 21.335937h-26.523437l-5.117188-25.601562zm37.375 150.535156c-7.101563-6.867188-15.089844-12.761719-23.746094-17.527344l15.621094-11.714844c1.589843 1.410157 3.351562 2.613282 5.242187 3.582032l2.882813 1.417968zm-14.257813-60.039062c-2.472656 4.875-3.289062 10.421874-2.320312 15.804687l-25.234375 18.917969c-2.398438-.800782-4.847657-1.476563-7.3125-2.109375l12.613281-37.777344h24.832031zm-140.84375-31.617188 9.328125-16.210938h26.308594v25.597657h-30.960937l-1.636719-3.285157zm103.902344-16.210938v25.597657h-51.199219v-25.597657zm-102.398438 83.625 2.875-1.433593c1.890626-.972657 3.65625-2.179688 5.246094-3.59375l15.625 11.71875c-8.660156 4.769531-16.644531 10.671875-23.746094 17.550781zm41.8125-1.101562-25.21875-18.917969c.96875-5.351562.167969-10.878906-2.285156-15.734375l-2.628906-5.207031h24.832031l12.597657 37.777344c-2.46875.625-4.917969 1.308593-7.296876 2.109375zm24.269532-5.203125-11.582032-34.65625h44.597657l-11.5625 34.679687c-3.535157-.339843-7.109375-.546874-10.738281-.546874-3.625 0-7.199219.207031-10.734376.546874zm84.34375-51.722656h-30.960938v-25.597657h26.308594l9.328125 16.210938-3.097656 6.257812zm-106.226563-42.664063h-26.519531l12.3125-21.335937c1.523438-2.636719 4.335938-4.261719 7.382812-4.265625h11.945313zm-152.027343 125.96875-30.53125-60.980468c-2.078126-4.25-.367188-9.378907 3.847656-11.527344l91.597656-45.78125c2.023438-1.019532 4.367188-1.195313 6.519531-.480469 2.152344.710937 3.933594 2.25 4.949219 4.277344l17.917969 35.839843 3.78125 7.636719.09375.136719 8.746093 17.535156c1.003907 2.007813 1.171876 4.328125.460938 6.457032-.710938 2.128906-2.242188 3.886718-4.25 4.882812l-91.597656 45.859375c-4.253906 2.070313-9.382813.355469-11.535156-3.855469zm60.894531 61.761719c-7.070313 0-12.800781-5.730469-12.800781-12.796875 0-7.070312 5.730468-12.800781 12.800781-12.800781 7.066406 0 12.796875 5.730469 12.796875 12.800781 0 7.066406-5.730469 12.796875-12.796875 12.796875zm0-42.664063c-2.855469.042969-5.691407.5-8.414063 1.355469-.222656-.136719-.375-.359375-.617187-.476562l-17.339844-8.535157 56.234375-28.183593v36.691406c-2.246094 3.578125-4.285156 7.28125-6.109375 11.09375-5.59375-7.5-14.398437-11.925781-23.753906-11.945313zm-31.8125 116.972657 4.488281.785156 34.464844 6.015625c-1.050782 2.671875-1.828125 5.441406-2.320313 8.269531-.488281 2.816407-.691406 5.675781-.613281 8.535157l-55.777344-9.71875zm37.171875 41.140625-35.398438 24.875 5.238282-30.140625zm-86.425782-48.246094 34.90625-24.535156 9.816407 13.960937-2.390625 1.707031-30.113282 21.136719-2.390624 1.707031zm22.671876 37.117188 16.785156 2.929687-8.066406 46.351563h-17.390626zm-27.945313 83.414062h-23.589844l8.535157-17.066406h23.585937zm44.679687 0-8.535156-17.066406h23.585938l8.535156 17.066406zm67.582032-76.304688c-5.492188-7.808593-6.183594-18.027343-1.792969-26.503906 4.390625-8.476562 13.136719-13.804687 22.683594-13.824218 1.496093 0 2.988281.128906 4.460937.382812 6.691406 1.167969 12.640625 4.945312 16.546875 10.503906 3.902344 5.554688 5.4375 12.4375 4.269531 19.125-.265624 1.425782-.652343 2.828125-1.164062 4.191406-.050781.109376 0 .21875-.082031.332032-3.324219 8.894531-11.296875 15.21875-20.710938 16.433594-9.417969 1.210937-18.734375-2.886719-24.203125-10.648438zm31.976562 26.324219c5.621094-1.480469 10.882813-4.09375 15.460938-7.679687l12.878906 18.332031-13.980469 9.820313zm32.671875 28.433594 5.488281-3.855469c7.691407-5.433594 9.546876-16.066406 4.148438-23.785156l-11.425781-16.210938c22.679687 7.609376 47.230469 7.609376 69.910156 0l-11.433594 16.265626c-5.417969 7.710937-3.554687 18.355468 4.15625 23.773437l5.476563 3.855469c-10.757813 3.171875-21.941406 4.667968-33.160156 4.4375-11.214844.21875-22.402344-1.292969-33.160157-4.480469zm84.632813-7.996094-13.976563-9.820312 12.851563-18.332031c4.578125 3.585937 9.839844 6.199218 15.460937 7.683593zm29.792968-36.257812c-12.148437 2.128906-24.078124-4.722657-28.359374-16.289063-.050782-.113281 0-.222656-.082032-.332031-.511718-1.359375-.898437-2.761719-1.160156-4.191406-1.171875-6.6875.363281-13.566407 4.269531-19.125 3.902344-5.554688 9.851563-9.335938 16.542969-10.503907 1.472656-.253906 2.964844-.382812 4.460938-.382812 13.304687-.011719 24.398437 10.164062 25.53125 23.421875 1.132812 13.253906-8.074219 25.167969-21.1875 27.410156zm69.777344-46.839844 4.488282-.785156 19.753906 13.886719-55.792969 9.734374c.078125-2.859374-.125-5.714843-.613281-8.53125-.492188-2.828124-1.269532-5.597656-2.320313-8.269531zm-2.511718 35.089844 5.242187 30.140625-35.398437-24.875zm16.863281 77.550781h-23.585938l8.53125-17.066406h23.589844zm68.265625 0h-23.585938l-8.53125-17.066406h23.585938zm-45.925782-34.132812h-14.328124l-8.0625-46.351563 16.785156-2.929687 8.667968 49.28125zm-17.84375-110.933594 34.910157 24.535156-9.8125 13.957031-2.328125-1.628906-.121094-.085937-29.996094-21.074219-.117187-.085938-2.347657-1.65625zm-100.367187 12.015625c-23.195313 4.074219-38.714844 26.160156-34.6875 49.363281v.070312c-22.390625 8.847657-47.3125 8.847657-69.703125 0v-.070312c4.027344-23.203125-11.492188-45.289062-34.6875-49.363281-5.375-.9375-10.882812-.820313-16.210938.339843-17.558593-39.371093-6.039062-85.636718 27.925782-112.183593s81.640625-26.546875 115.605468 0c33.964844 26.546875 45.484376 72.8125 27.925782 112.183593-5.316406-1.152343-10.808594-1.269531-16.167969-.339843zm24.34375-96.496094v-36.691406l56.234375 28.160156-17.339844 8.53125c-.238281.121094-.390625.34375-.613281.476563-11.890625-3.78125-24.867187.5-32.171875 10.617187-1.824219-3.8125-3.863281-7.515625-6.109375-11.09375zm29.867187 41.8125c-7.070312 0-12.800781-5.730469-12.800781-12.796875 0-7.070312 5.730469-12.800781 12.800781-12.800781 7.070313 0 12.800782 5.730469 12.800782 12.800781 0 7.066406-5.730469 12.796875-12.800782 12.796875zm87.542969-134.289063c4.226563 2.140626 5.957031 7.269532 3.890625 11.53125l-30.523437 60.96875c-2.132813 4.222657-7.257813 5.957032-11.519531 3.898438l-91.597657-45.839844c-2.019531-1.003906-3.554687-2.777344-4.261719-4.917968-.703124-2.144532-.519531-4.480469.507813-6.492188l8.714844-17.472656.09375-.128906 3.71875-7.511719 17.921875-35.949219c1.015625-2.042969 2.808594-3.597656 4.972656-4.316406.863281-.285156 1.765625-.429688 2.671875-.4375 1.347656.007812 2.671875.328125 3.875.9375zm-108.484375-60.03125c-4.203125 2.472657-7.609375 6.101563-9.8125 10.453126l-5.53125 11.09375-6.160156-10.691407-19.71875-34.132812c-.695312-1.058594-1.472656-2.058594-2.320312-2.996094l.542968-.273437h.128906c.09375-.050782.1875-.109376.273438-.171876l22.929688-11.457031 3.351562 5.800781c1.527344 2.640626 4.34375 4.265626 7.390625 4.265626h8.535156v26.164062c.050781.664062.183594 1.316406.390625 1.945312zm136.140625-17.570312c.011719 1.792969-.835937 3.480469-2.277343 4.539062-1.429688 1.074219-3.292969 1.394532-5 .855469l-91.546876-28.425781 7.953126-13.761719 87.210937 31.570313c2.207031.785156 3.675781 2.882812 3.660156 5.222656zm-140.140625-69.707031h24.285156l12.132813 21.023437-12.132813 21.027344h-24.285156l-4.609375-7.976562v-.085938c0-.050781-.078125-.085938-.101562-.136719l-7.40625-12.800781zm-56.902344 0c-4.007812 3.15625-18.304687 8.53125-41.890624 8.53125-23.585938 0-37.878907-5.375-41.890626-8.53125 4.011719-3.160157 18.304688-8.535157 41.890626-8.535157 23.585937 0 37.882812 5.375 41.890624 8.535157zm-99.480468 7.535156c7.246094 12.398437 32.496094 18.0625 57.589844 18.0625 25.097656 0 50.347656-5.664063 57.59375-18.0625 4.808593 1.421875 9.488281 3.242187 13.992187 5.441406l-2.175781 3.78125c-1.523438 2.640625-1.523438 5.894531 0 8.535157l5.121094 8.941406-22.785157 11.390625-.082031.042969-11.316406 5.660156c-.238282-.007813-.589844-.128906-.921875-.128906h-78.847657c-.332031 0-.640624.121093-.964843.128906l-34.183594-17.066406 5.160156-8.945313c1.527344-2.640625 1.527344-5.890625 0-8.53125l-2.175781-3.78125c4.507812-2.207031 9.1875-4.039063 13.996094-5.46875zm-65.484375-7.535156h24.285156l12.132813 21.023437-7.40625 12.800782c0 .050781-.074219.078124-.101563.128906v.085937l-4.609375 7.976563h-24.300781l-12.136719-20.992188zm-112.1875 64.425781 87.203125-31.523438 7.953125 13.773438-91.617188 28.417969c-2.84375.679687-5.738281-.933594-6.660156-3.710938-.921875-2.777343.433594-5.800781 3.121094-6.957031zm0 0"/></svg>