<svg height="511pt" viewBox="-25 1 511 511.99875" width="511pt" xmlns="http://www.w3.org/2000/svg"><path d="m136.929688 366.933594h-34.136719c-4.710938 0-8.53125-3.820313-8.53125-8.535156 0-4.710938 3.820312-8.53125 8.53125-8.53125h34.136719c4.710937 0 8.53125 3.820312 8.53125 8.53125 0 4.714843-3.820313 8.535156-8.53125 8.535156zm0 0" fill="#5e5f62"/><path d="m358.792969 366.933594h-34.132813c-4.710937 0-8.53125-3.820313-8.53125-8.535156 0-4.710938 3.820313-8.53125 8.53125-8.53125h34.132813c4.714843 0 8.535156 3.820312 8.535156 8.53125 0 4.714843-3.820313 8.535156-8.535156 8.535156zm0 0" fill="#5e5f62"/><path d="m128.394531 34.132812c0 14.136719-11.460937 25.597657-25.601562 25.597657-2.914063.019531-5.804688-.5-8.53125-1.535157-10.222657-3.582031-17.070313-13.230468-17.070313-24.0625 0-10.832031 6.847656-20.484374 17.070313-24.066406 2.726562-1.03125 5.617187-1.550781 8.53125-1.535156 14.140625 0 25.601562 11.460938 25.601562 25.601562zm0 0" fill="#fec108"/><path d="m384.394531 34.132812c0 14.136719-11.460937 25.597657-25.601562 25.597657-2.914063.019531-5.804688-.5-8.53125-1.535157-10.222657-3.582031-17.070313-13.230468-17.070313-24.0625 0-10.832031 6.847656-20.484374 17.070313-24.066406 2.726562-1.03125 5.617187-1.550781 8.53125-1.535156 14.140625 0 25.601562 11.460938 25.601562 25.601562zm0 0" fill="#fec108"/><path d="m111.328125 34.132812c0-13.289062-7.640625-24.066406-17.066406-24.066406s-17.066407 10.777344-17.066407 24.066406c0 13.289063 7.640626 24.0625 17.066407 24.0625s17.066406-10.773437 17.066406-24.0625zm0 0" fill="#ffeb3a"/><path d="m367.328125 34.132812c0-13.289062-7.640625-24.066406-17.066406-24.066406s-17.066407 10.777344-17.066407 24.066406c0 13.289063 7.640626 24.0625 17.066407 24.0625s17.066406-10.773437 17.066406-24.0625zm0 0" fill="#ffeb3a"/><path d="m395.148438 149.332031v51.199219c0 42.417969-34.386719 76.800781-76.800782 76.800781h-170.667968c-42.414063 0-76.800782-34.382812-76.800782-76.800781v-51.199219c.027344-9.414062 7.652344-17.039062 17.066406-17.066406h290.132813c9.425781 0 17.070313 7.640625 17.070313 17.066406zm0 0" fill="#558b30"/><path d="m369.546875 149.332031v51.199219c0 42.417969-34.386719 76.800781-76.800781 76.800781h-145.066406c-42.414063 0-76.800782-34.382812-76.800782-76.800781v-51.199219c.027344-9.414062 7.652344-17.039062 17.066406-17.066406h264.535157c9.425781 0 17.066406 7.640625 17.066406 17.066406zm0 0" fill="#8bc34a"/><path d="m171.0625 204.796875c0 14.140625-11.460938 25.601563-25.601562 25.601563-2.914063.019531-5.808594-.503907-8.53125-1.535157-10.226563-3.582031-17.070313-13.230469-17.070313-24.066406 0-10.832031 6.84375-20.480469 17.070313-24.0625 2.722656-1.03125 5.617187-1.554687 8.53125-1.535156 14.140624 0 25.601562 11.460937 25.601562 25.597656zm0 0" fill="#9e9e9e"/><path d="m341.726562 204.796875c0 14.140625-11.460937 25.601563-25.597656 25.601563-2.914062.019531-5.808594-.503907-8.535156-1.535157-10.222656-3.582031-17.066406-13.230469-17.066406-24.066406 0-10.832031 6.84375-20.480469 17.066406-24.0625 2.726562-1.03125 5.621094-1.554687 8.535156-1.535156 14.136719 0 25.597656 11.460937 25.597656 25.597656zm0 0" fill="#9e9e9e"/><path d="m153.996094 204.796875c0-13.289063-7.644532-24.0625-17.066406-24.0625-9.425782 0-17.070313 10.773437-17.070313 24.0625 0 13.292969 7.644531 24.066406 17.070313 24.066406 9.421874 0 17.066406-10.773437 17.066406-24.066406zm0 0" fill="#f5f5f5"/><path d="m324.660156 204.796875c0-13.289063-7.640625-24.0625-17.066406-24.0625s-17.066406 10.773437-17.066406 24.0625c0 13.292969 7.640625 24.066406 17.066406 24.066406s17.066406-10.773437 17.066406-24.066406zm0 0" fill="#f5f5f5"/><path d="m324.660156 366.933594c-.042968 28.257812-22.941406 51.15625-51.199218 51.199218h-85.332032c-28.277344 0-51.199218-22.921874-51.199218-51.199218.039062-28.261719 22.9375-51.160156 51.199218-51.203125h85.332032c28.277343 0 51.199218 22.925781 51.199218 51.203125zm0 0" fill="#558b30"/><path d="m303.328125 366.933594c-.042969 28.257812-22.941406 51.15625-51.199219 51.199218h-64c-28.277344 0-51.199218-22.921874-51.199218-51.199218.039062-28.261719 22.9375-51.160156 51.199218-51.203125h64c28.277344 0 51.199219 22.925781 51.199219 51.203125zm0 0" fill="#8bc34a"/><path d="m205.195312 460.796875v34.136719c0 4.710937-3.820312 8.53125-8.535156 8.53125h-76.800781c-4.710937 0-8.53125-3.820313-8.53125-8.53125v-17.066406c0-14.140626 11.460937-25.601563 25.601563-25.601563h59.730468c4.714844 0 8.535156 3.820313 8.535156 8.53125zm0 0" fill="#2e7d32"/><path d="m350.261719 477.867188v17.066406c0 4.710937-3.820313 8.53125-8.535157 8.53125h-76.796874c-4.714844 0-8.535157-3.820313-8.535157-8.53125v-34.136719c0-4.710937 3.820313-8.53125 8.535157-8.53125h59.730468c14.140625 0 25.601563 11.460937 25.601563 25.601563zm0 0" fill="#2e7d32"/><path d="m183.859375 460.796875v34.136719c0 4.710937-3.820313 8.53125-8.53125 8.53125h-55.46875c-4.710937 0-8.53125-3.820313-8.53125-8.53125v-17.066406c0-14.140626 11.460937-25.601563 25.601563-25.601563h38.398437c4.710937 0 8.53125 3.820313 8.53125 8.53125zm0 0" fill="#4caf50"/><path d="m328.929688 477.867188v17.066406c0 4.710937-3.824219 8.53125-8.535157 8.53125h-55.464843c-4.714844 0-8.535157-3.820313-8.535157-8.53125v-34.136719c0-4.710937 3.820313-8.53125 8.535157-8.53125h38.398437c14.136719 0 25.601563 11.460937 25.601563 25.601563zm0 0" fill="#4caf50"/><path d="m77.195312 324.265625c-18.851562 0-34.132812 15.28125-34.132812 34.132813 0 18.851562 15.28125 34.132812 34.132812 34.132812 18.851563 0 34.132813-15.28125 34.132813-34.132812 0-18.851563-15.28125-34.132813-34.132813-34.132813zm0 0" fill="#2e7d32"/><path d="m384.394531 324.265625c-18.851562 0-34.132812 15.28125-34.132812 34.132813 0 18.851562 15.28125 34.132812 34.132812 34.132812 18.851563 0 34.132813-15.28125 34.132813-34.132812 0-18.851563-15.28125-34.132813-34.132813-34.132813zm0 0" fill="#2e7d32"/><g fill="#4caf50"><path d="m62.261719 327.765625c-11.742188 5.6875-19.199219 17.585937-19.199219 30.632813 0 13.046874 7.457031 24.945312 19.199219 30.636718 11.742187-5.691406 19.199219-17.589844 19.199219-30.636718 0-13.046876-7.457032-24.945313-19.199219-30.632813zm0 0"/><path d="m369.460938 327.765625c-11.742188 5.6875-19.199219 17.585937-19.199219 30.632813 0 13.046874 7.457031 24.945312 19.199219 30.636718 11.742187-5.691406 19.199218-17.589844 19.199218-30.636718 0-13.046876-7.457031-24.945313-19.199218-30.632813zm0 0"/><path d="m240.660156 349.847656h-19.730468l-9.855469 17.085938 9.855469 17.082031h19.730468l9.855469-17.082031zm0 0"/></g><path d="m145.460938 170.664062c-18.851563 0-34.132813 15.285157-34.132813 34.132813 0 18.851563 15.28125 34.136719 34.132813 34.136719 18.851562 0 34.132812-15.285156 34.132812-34.136719 0-18.847656-15.28125-34.132813-34.132812-34.132813zm0 51.203126c-9.425782 0-17.066407-7.644532-17.066407-17.070313 0-9.421875 7.640625-17.066406 17.066407-17.066406 9.425781 0 17.066406 7.644531 17.066406 17.066406 0 9.425781-7.640625 17.070313-17.066406 17.070313zm0 0"/><path d="m316.128906 238.933594c18.851563 0 34.132813-15.285156 34.132813-34.136719 0-18.847656-15.28125-34.132813-34.132813-34.132813-18.851562 0-34.132812 15.285157-34.132812 34.132813 0 18.851563 15.28125 34.136719 34.132812 34.136719zm0-51.203125c9.425782 0 17.066406 7.644531 17.066406 17.066406 0 9.425781-7.640624 17.070313-17.066406 17.070313-9.425781 0-17.066406-7.644532-17.066406-17.070313 0-9.421875 7.640625-17.066406 17.066406-17.066406zm0 0"/><path d="m256.394531 221.867188c0-4.714844-3.820312-8.535157-8.535156-8.535157h-34.132813c-4.710937 0-8.53125 3.820313-8.53125 8.535157 0 4.710937 3.820313 8.53125 8.53125 8.53125h34.132813c4.714844 0 8.535156-3.820313 8.535156-8.53125zm0 0"/><path d="m446.628906 347.363281c3.347656 3.234375 8.667969 3.191407 11.960938-.101562 3.292968-3.292969 3.339844-8.613281.105468-11.960938l-17.066406-17.070312c-2.875-2.875-7.375-3.324219-10.761718-1.074219l-23.851563 15.882812c-8.804687-7.988281-21.160156-10.765624-32.535156-7.316406-11.378907 3.445313-20.113281 12.613282-23.007813 24.144532h-20.796875c-7.566406-25.292969-30.816406-42.632813-57.214843-42.667969h-34.132813v-17.066407h76.800781c47.105469-.050781 85.28125-38.226562 85.332032-85.335937v-51.199219c0-14.136718-11.460938-25.597656-25.601563-25.597656h-8.53125v-60.945312c16.679687-4.261719 27.558594-20.300782 25.34375-37.375-2.210937-17.074219-16.816406-29.8125-34.035156-29.679688-17.214844.132812-31.625 13.09375-33.574219 30.199219l-26 26-28.101562-28.101563c-3.332032-3.328125-8.734376-3.328125-12.066407 0l-28.101562 28.101563-28.097657-28.101563c-3.332031-3.328125-8.734374-3.328125-12.066406 0l-28.101562 28.101563-26-26c-1.960938-17.089844-16.363282-30.03125-33.566406-30.1601565-17.199219-.125-31.792969 12.5976565-34.007813 29.6562495-2.214844 17.058594 8.644531 33.089844 25.308594 37.359376v60.945312h-8.535157c-14.136718 0-25.597656 11.460938-25.597656 25.597656v51.199219c.050782 47.109375 38.226563 85.285156 85.332032 85.335937h76.800781v17.066407h-34.132813c-26.382812.054687-49.613281 17.390625-57.175781 42.667969h-20.835937c-2.894532-11.53125-11.628907-20.699219-23.007813-24.144532-11.378906-3.449218-23.730469-.671875-32.535156 7.316406l-23.851563-15.882812c-3.386718-2.25-7.886718-1.800781-10.761718 1.074219l-17.066407 17.070312c-3.234375 3.347657-3.1875 8.667969.105469 11.960938 3.289062 3.292969 8.613281 3.335937 11.960938.101562l12.125-12.117187 18.007812 11.949218c-2.710938 7.199219-2.710938 15.140626 0 22.339844l-18.007812 11.945313-12.125-12.117188c-3.347657-3.234375-8.671876-3.1875-11.960938.105469-3.292969 3.289062-3.339844 8.613281-.105469 11.960938l17.066407 17.066406c2.875 2.875 7.375 3.328125 10.761718 1.074218l23.894532-15.878906c8.796874 7.964844 21.125 10.738282 32.484374 7.304688 11.363282-3.429688 20.09375-12.5625 23.015626-24.0625h18.277343c.050781 28.84375 20.683594 53.542968 49.058594 58.726562l-4.523437 18.070313h-36c-18.851563 0-34.136719 15.285156-34.136719 34.136719v17.066406c0 9.425781 7.640625 17.066406 17.066406 17.066406h76.800781c9.425782 0 17.066406-7.640625 17.066406-17.066406v-34.136719c0-9.421875-7.640624-17.066406-17.066406-17.066406h-6.132812l4.265625-17.066407h72.003906l4.265625 17.066407h-6.132812c-9.425782 0-17.070313 7.644531-17.070313 17.066406v34.136719c0 9.425781 7.644531 17.066406 17.070313 17.066406h76.796874c9.425782 0 17.066407-7.640625 17.066407-17.066406v-17.066406c0-18.851563-15.28125-34.136719-34.132813-34.136719h-36l-4.523437-18.070313c28.375-5.183594 49.007812-29.882812 49.058593-58.726562h18.277344c2.894532 11.53125 11.628906 20.695312 23.007813 24.140625 11.375 3.449219 23.730469.671875 32.535156-7.3125l23.851563 15.878906c3.386718 2.25 7.886718 1.800781 10.761718-1.074219l17.066406-17.066406c3.234376-3.351562 3.1875-8.671875-.105468-11.964844-3.292969-3.289062-8.613282-3.335937-11.960938-.101562l-12.125 12.117187-18.007812-11.949219c2.707031-7.199218 2.707031-15.136718 0-22.339843l18.007812-11.945313zm-87.835937-330.296875c9.425781 0 17.066406 7.640625 17.066406 17.066406 0 9.425782-7.640625 17.066407-17.066406 17.066407s-17.066407-7.640625-17.066407-17.066407c0-9.425781 7.640626-17.066406 17.066407-17.066406zm-273.066407 17.066406c0-9.425781 7.640626-17.066406 17.066407-17.066406s17.066406 7.640625 17.066406 17.066406c0 9.425782-7.640625 17.066407-17.066406 17.066407s-17.066407-7.640625-17.066407-17.066407zm25.601563 32.921876c9.082031-2.378907 16.785156-8.398438 21.28125-16.640626l23.894531 23.894532c3.332032 3.328125 8.734375 3.328125 12.066406 0l28.089844-28.109375 28.101563 28.097656c3.332031 3.332031 8.734375 3.332031 12.066406 0l28.101563-28.097656 28.097656 28.097656c3.332031 3.332031 8.734375 3.332031 12.066406 0l23.894531-23.890625c4.492188 8.242188 12.191407 14.265625 21.273438 16.648438v60.945312h-238.933594zm-34.132813 137.742187v-51.199219c0-4.710937 3.820313-8.53125 8.53125-8.53125h290.132813c4.714844 0 8.535156 3.820313 8.535156 8.53125v51.199219c-.042969 37.6875-30.582031 68.226563-68.265625 68.269531h-170.667968c-37.683594-.042968-68.222657-30.582031-68.265626-68.269531zm0 170.667969c-9.425781 0-17.066406-7.640625-17.066406-17.066406 0-9.425782 7.640625-17.066407 17.066406-17.066407 9.425782 0 17.066407 7.640625 17.066407 17.066407 0 9.425781-7.640625 17.066406-17.066407 17.066406zm119.464844 119.46875h-76.800781v-17.066406c0-9.425782 7.644531-17.070313 17.070313-17.070313h59.730468zm145.066406-17.066406v17.066406h-76.796874v-34.136719h59.730468c9.425782 0 17.066406 7.644531 17.066406 17.070313zm-68.265624-68.269532h-85.332032c-23.566406 0-42.667968-19.101562-42.667968-42.664062 0-23.566406 19.101562-42.667969 42.667968-42.667969h85.332032c23.5625 0 42.667968 19.101563 42.667968 42.667969 0 23.5625-19.105468 42.664062-42.667968 42.664062zm110.933593-34.132812c-9.425781 0-17.066406-7.640625-17.066406-17.066406 0-9.425782 7.640625-17.066407 17.066406-17.066407s17.066407 7.640625 17.066407 17.066407c0 9.425781-7.640626 17.066406-17.066407 17.066406zm0 0"/><path d="m248.050781 345.597656c-1.527343-2.640625-4.34375-4.265625-7.390625-4.265625h-19.730468c-3.046876 0-5.867188 1.625-7.390626 4.265625l-9.863281 17.066406c-1.523437 2.640626-1.523437 5.894532 0 8.535157l9.863281 17.066406c1.523438 2.640625 4.34375 4.265625 7.390626 4.265625h19.730468c3.046875 0 5.863282-1.625 7.390625-4.265625l9.863281-17.066406c1.523438-2.640625 1.523438-5.894531 0-8.535157zm-12.316406 29.867188h-9.878906l-4.933594-8.53125 4.933594-8.535156h9.878906l4.933594 8.535156zm0 0"/></svg>