<svg height="512pt" viewBox="-1 0 512 512.12058" width="512pt" xmlns="http://www.w3.org/2000/svg"><path d="m227.128906 469.367188h-113.066406v-34.132813h79.480469zm0 0" fill="#c52828"/><path d="m327.105469 435.234375h69.980469v34.132813h-99.558594zm0 0" fill="#c52828"/><path d="m347.109375 429.34375c-8.195313 48.46875-46.335937 74.15625-92.246094 74.15625-11.199219.089844-22.34375-1.582031-33.023437-4.949219-31.601563-9.46875-54.753906-36.523437-59.222656-69.207031-.773438-4.933594.652343-9.960938 3.902343-13.75 3.25-3.792969 8-5.972656 12.992188-5.960938h150.699219c4.996093-.011718 9.742187 2.167969 12.996093 5.960938 3.25 3.789062 4.675781 8.816406 3.902344 13.75zm0 0" fill="#c52828"/><path d="m325.773438 425.078125c-8.191407 48.46875-46.335938 74.15625-92.246094 74.15625-3.90625.027344-7.8125-.199219-11.6875-.683594-31.601563-9.46875-54.753906-36.523437-59.222656-69.207031-.773438-4.933594.652343-9.960938 3.902343-13.75 3.25-3.792969 8-5.972656 12.992188-5.960938h140.628906c4.46875 3.796876 6.609375 9.664063 5.632813 15.445313zm0 0" fill="#f44335"/><path d="m365.367188 110.113281c.242187 2.40625-.546876 4.804688-2.175782 6.59375-1.625 1.789063-3.9375 2.804688-6.355468 2.792969h-25.429688c-4.042969-.011719-7.519531 2.855469-8.277344 6.824219-3.640625 13.84375-12.929687 25.515625-25.601562 32.171875-5.386719 3.203125-11.109375 5.808594-17.066406 7.765625-2.78125 1.003906-5.632813 1.804687-8.53125 2.390625-2.804688.6875-5.65625 1.175781-8.535157 1.449218-5.660156.796876-11.40625.796876-17.066406 0-2.875-.273437-5.726563-.761718-8.53125-1.449218-2.902344-.683594-5.71875-1.453125-8.535156-2.390625-5.972657-1.949219-11.699219-4.585938-17.066407-7.851563-8.246093-4.691406-15.265624-11.273437-20.480468-19.199218 1.109375.769531 2.21875 1.453124 3.414062 2.132812 5.367188 3.265625 11.09375 5.902344 17.066406 7.851562 2.816407.9375 5.632813 1.707032 8.535157 2.390626 2.804687.6875 5.65625 1.175781 8.53125 1.449218 5.660156.796875 11.40625.796875 17.066406 0 2.875-.273437 5.730469-.761718 8.535156-1.449218 2.898438-.585938 5.75-1.386719 8.53125-2.390626 5.957031-1.957031 11.679688-4.5625 17.066407-7.765624 12.671874-6.65625 21.960937-18.328126 25.601562-32.171876.757812-3.96875 4.234375-6.835937 8.277344-6.824218h25.429687c2.417969.011718 4.730469-1.003906 6.355469-2.792969 1.628906-1.789063 2.417969-4.1875 2.175781-6.59375-1.785156-21.910156-10.109375-42.78125-23.890625-59.90625 23.628906 18.957031 38.433594 46.785156 40.957032 76.972656zm0 0" fill="#c52828"/><path d="m352.570312 93.046875c.242188 2.40625-.550781 4.804687-2.175781 6.59375-1.628906 1.789063-3.941406 2.804687-6.359375 2.792969h-25.429687c-4.039063-.011719-7.515625 2.855468-8.277344 6.824218-3.640625 13.84375-12.929687 25.515626-25.597656 32.171876-5.390625 3.203124-11.113281 5.808593-17.066407 7.765624-2.785156 1.003907-5.636718 1.804688-8.535156 2.390626-2.804687.6875-5.65625 1.175781-8.53125 1.449218-2.902344.425782-9.984375.597656-12.800781.597656-2.855469.011719-5.707031-.1875-8.535156-.597656-2.875-.273437-5.726563-.761718-8.53125-1.449218-2.902344-.683594-5.71875-1.453126-8.535157-2.390626-5.972656-1.949218-11.699218-4.585937-17.066406-7.851562-1.195312-.679688-2.304687-1.363281-3.414062-2.132812-2.558594-4.011719 0-8.363282-.851563-12.886719-.761719-3.96875-4.238281-6.835938-8.277343-6.824219h-25.429688c-2.417969.011719-4.730469-1.003906-6.359375-2.792969-1.625-1.789062-2.417969-4.1875-2.175781-6.59375.257812-2.558593.511718-5.207031.941406-7.679687 6.0625-39.164063 32.574219-72.109375 69.53125-86.40625 36.960938-14.296875 78.742188-7.773438 109.582031 17.113281 13.785157 17.125 22.105469 37.996094 23.894531 59.90625zm0 0" fill="#f44335"/><path d="m191.714844 139.210938c-7.679688-4.96875-14.035156-11.734376-18.515625-19.710938h5.121093c4.039063-.011719 7.515626 2.855469 8.277344 6.824219.863282 4.585937 2.601563 8.960937 5.117188 12.886719zm0 0" fill="#c52828"/><path d="m229.261719 76.832031c0 9.425781-7.640625 17.066407-17.066407 17.066407-9.425781 0-17.066406-7.640626-17.066406-17.066407s7.640625-17.066406 17.066406-17.066406c9.425782 0 17.066407 7.640625 17.066407 17.066406zm0 0" fill="#607d8b"/><path d="m314.597656 76.832031c0 9.425781-7.644531 17.066407-17.070312 17.066407-9.425782 0-17.066406-7.640626-17.066406-17.066407s7.640624-17.066406 17.066406-17.066406c9.425781 0 17.070312 7.640625 17.070312 17.066406zm0 0" fill="#607d8b"/><path d="m128.824219 238.964844h61.695312v34.132812h-61.695312zm0 0" fill="#c52828"/><path d="m319.203125 238.964844h61.695313v34.132812h-61.695313zm0 0" fill="#c52828"/><path d="m237.796875 168.652344h34.132813v37.886718h-34.132813zm0 0" fill="#c52828"/><path d="m280.460938 452.300781c0 9.386719-11.433594 17.066407-25.597657 17.066407-2.878906.015624-5.742187-.328126-8.535156-1.023438-9.984375-2.304688-17.066406-8.621094-17.066406-16.042969 0-7.425781 7.082031-13.738281 17.066406-16.042969 2.792969-.699218 5.65625-1.042968 8.535156-1.023437 14.164063 0 25.597657 7.679687 25.597657 17.066406zm0 0" fill="#37474f"/><path d="m263.394531 452.300781c0-8.863281-7.640625-16.042969-17.066406-16.042969s-17.066406 7.179688-17.066406 16.042969c0 8.859375 7.640625 16.042969 17.066406 16.042969s17.066406-7.183594 17.066406-16.042969zm0 0" fill="#607d8b"/><path d="m323.128906 256.03125c0 28.246094-30.550781 51.203125-68.265625 51.203125-2.902343 0-5.71875-.171875-8.535156-.429687-33.707031-3.15625-59.730469-24.660157-59.730469-50.773438 0-26.109375 26.023438-47.613281 59.730469-50.773438 2.816406-.253906 5.632813-.425781 8.535156-.425781 37.714844 0 68.265625 22.957031 68.265625 51.199219zm0 0" fill="#c52828"/><path d="m301.796875 256.03125c0-28.039062-26.746094-50.773438-59.734375-50.773438s-59.734375 22.734376-59.734375 50.773438c0 28.042969 26.746094 50.773438 59.734375 50.773438s59.734375-22.730469 59.734375-50.773438zm0 0" fill="#f44335"/><g fill="#c52828"><path d="m135.394531 256.03125c0 14.140625-11.460937 25.601562-25.597656 25.601562-2.914063.019532-5.808594-.503906-8.535156-1.535156-10.222657-3.582031-17.066407-13.230468-17.066407-24.066406 0-10.832031 6.84375-20.480469 17.066407-24.0625 2.726562-1.035156 5.621093-1.554688 8.535156-1.535156 14.136719 0 25.597656 11.460937 25.597656 25.597656zm0 0"/><path d="m425.527344 256.03125c0 14.140625-11.460938 25.601562-25.597656 25.601562-2.914063.019532-5.808594-.503906-8.535157-1.535156-10.222656-3.582031-17.066406-13.230468-17.066406-24.066406 0-10.832031 6.84375-20.480469 17.066406-24.0625 2.726563-1.035156 5.621094-1.554688 8.535157-1.535156 14.136718 0 25.597656 11.460937 25.597656 25.597656zm0 0"/><path d="m68.324219 151.925781c0 14.140625-11.460938 25.601563-25.601563 25.601563-2.914062.015625-5.808594-.503906-8.53125-1.539063-10.226562-3.578125-17.070312-13.230469-17.070312-24.0625s6.84375-20.484375 17.070312-24.0625c2.722656-1.035156 5.617188-1.554687 8.53125-1.539062 6.789063 0 13.300782 2.699219 18.101563 7.5s7.5 11.3125 7.5 18.101562zm0 0"/><path d="m493.796875 151.925781c0 14.140625-11.460937 25.601563-25.601563 25.601563-2.914062.015625-5.808593-.503906-8.53125-1.539063-10.226562-3.578125-17.070312-13.230469-17.070312-24.0625s6.84375-20.484375 17.070312-24.0625c2.722657-1.035156 5.617188-1.554687 8.53125-1.539062 14.140626 0 25.601563 11.464843 25.601563 25.601562zm0 0"/></g><path d="m118.328125 256.03125c0-13.289062-7.640625-24.0625-17.066406-24.0625s-17.066407 10.773438-17.066407 24.0625c0 13.292969 7.640626 24.066406 17.066407 24.066406s17.066406-10.773437 17.066406-24.066406zm0 0" fill="#f44335"/><path d="m408.460938 256.03125c0-13.289062-7.640626-24.0625-17.066407-24.0625s-17.066406 10.773438-17.066406 24.0625c0 13.292969 7.640625 24.066406 17.066406 24.066406s17.066407-10.773437 17.066407-24.066406zm0 0" fill="#f44335"/><path d="m51.257812 151.925781c0-13.289062-7.640624-24.0625-17.066406-24.0625-9.425781 0-17.066406 10.773438-17.066406 24.0625 0 13.289063 7.640625 24.0625 17.066406 24.0625 9.425782 0 17.066406-10.773437 17.066406-24.0625zm0 0" fill="#f44335"/><path d="m476.730469 151.925781c0-13.289062-7.640625-24.0625-17.066407-24.0625-9.425781 0-17.066406 10.773438-17.066406 24.0625 0 13.289063 7.640625 24.0625 17.066406 24.0625 9.425782 0 17.066407-10.773437 17.066407-24.0625zm0 0" fill="#f44335"/><path d="m109.796875 409.632812c9.425781 0 17.066406 7.640626 17.066406 17.066407v59.734375c0 9.425781-7.640625 17.066406-17.066406 17.066406s-17.066406-7.640625-17.066406-17.066406v-59.734375c0-9.425781 7.640625-17.066407 17.066406-17.066407zm0 0" fill="#424242"/><path d="m399.929688 409.632812c9.425781 0 17.066406 7.640626 17.066406 17.066407v59.734375c0 9.425781-7.640625 17.066406-17.066406 17.066406-9.425782 0-17.066407-7.640625-17.066407-17.066406v-59.734375c0-9.425781 7.640625-17.066407 17.066407-17.066407zm0 0" fill="#424242"/><path d="m237.796875 76.832031c0-14.136719-11.460937-25.597656-25.601563-25.597656-14.136718 0-25.597656 11.460937-25.597656 25.597656 0 14.140625 11.460938 25.601563 25.597656 25.601563 14.140626 0 25.601563-11.460938 25.601563-25.601563zm-34.132813 0c0-4.710937 3.820313-8.53125 8.53125-8.53125 4.714844 0 8.535157 3.820313 8.535157 8.53125 0 4.714844-3.820313 8.535157-8.535157 8.535157-4.710937 0-8.53125-3.820313-8.53125-8.535157zm0 0"/><path d="m297.527344 102.433594c14.140625 0 25.601562-11.460938 25.601562-25.601563 0-14.136719-11.460937-25.597656-25.601562-25.597656-14.136719 0-25.597656 11.460937-25.597656 25.597656 0 14.140625 11.460937 25.601563 25.597656 25.601563zm0-34.132813c4.714844 0 8.535156 3.820313 8.535156 8.53125 0 4.714844-3.820312 8.535157-8.535156 8.535157-4.710938 0-8.53125-3.820313-8.53125-8.535157 0-4.710937 3.820312-8.53125 8.53125-8.53125zm0 0"/><path d="m17.363281 129.296875c-8.21875 9.082031-10.90625 21.886719-7.03125 33.507813 3.875 11.621093 13.710938 20.25 25.734375 22.582031l5.820313 105.742187c.339843 6.125 3.941406 11.59375 9.429687 14.332032 5.488282 2.734374 12.023438 2.3125 17.117188-1.105469l26.625-17.671875c12.226562 6.082031 26.925781 4.078125 37.078125-5.050782h53.445312c13.898438 20.085938 36.351563 32.554688 60.746094 33.742188v17.457031h-25.597656c-4.714844 0-8.535157 3.820313-8.535157 8.535157 0 4.710937 3.820313 8.53125 8.535157 8.53125h25.597656v17.066406h-17.066406c-4.710938 0-8.53125 3.820312-8.53125 8.535156 0 4.710938 3.820312 8.53125 8.53125 8.53125h17.066406v17.066406h-66.804687c-7.570313.011719-14.75 3.351563-19.628907 9.140625-3.882812 4.601563-5.984375 10.441407-5.921875 16.460938h-18.578125c0-14.136719-11.460937-25.601563-25.597656-25.601563-14.140625 0-25.601563 11.464844-25.601563 25.601563v59.734375c0 14.136718 11.460938 25.597656 25.601563 25.597656 14.136719 0 25.597656-11.460938 25.597656-25.597656v-8.535156h39.765625c20.035156 22.855468 49.339844 35.402343 79.703125 34.132812 30.363281 1.269531 59.667969-11.277344 79.699219-34.132812h39.765625v8.535156c0 14.136718 11.460937 25.597656 25.601563 25.597656 14.136718 0 25.597656-11.460938 25.597656-25.597656v-59.734375c0-14.136719-11.460938-25.601563-25.597656-25.601563-14.140626 0-25.601563 11.464844-25.601563 25.601563h-18.574219c.070313-6.015625-2.019531-11.855469-5.890625-16.460938-4.882812-5.796875-12.078125-9.140625-19.660156-9.140625h-66.808594v-17.066406h17.066407c4.714843 0 8.535156-3.820312 8.535156-8.53125 0-4.714844-3.820313-8.535156-8.535156-8.535156h-17.066407v-17.066406h25.601563c4.710937 0 8.53125-3.820313 8.53125-8.53125 0-4.714844-3.820313-8.535157-8.53125-8.535157h-25.601563v-17.457031c24.398438-1.1875 46.851563-13.65625 60.75-33.742188h53.445313c10.359375 9.324219 25.433594 11.195313 37.757812 4.683594l27.144532 18.050782c5.113281 3.429687 11.675781 3.839843 17.175781 1.074218 5.496093-2.761718 9.082031-8.273437 9.382812-14.421875l5.808594-105.675781c12.027344-2.332031 21.863281-10.960938 25.738281-22.582031 3.875-11.621094 1.1875-24.425781-7.03125-33.507813l15.878906-23.84375c2.25-3.382812 1.800782-7.886718-1.074218-10.761718l-17.066406-17.066407c-3.347657-3.230469-8.671876-3.1875-11.960938.105469-3.292969 3.292969-3.339844 8.613281-.105469 11.960938l12.117188 12.128906-11.945313 18.003906c-7.203125-2.707031-15.140625-2.707031-22.34375 0l-11.945312-18.003906 12.117187-12.128906c3.234375-3.347657 3.1875-8.667969-.101562-11.960938-3.292969-3.292969-8.617188-3.335938-11.964844-.105469l-17.066406 17.066407c-2.875 2.875-3.324219 7.378906-1.074219 10.761718l15.878906 23.84375c-7.757812 8.546875-10.617187 20.460938-7.582031 31.597656 3.035156 11.136719 11.546875 19.953126 22.566406 23.382813l-5.964843 105.933594-23.421876-15.574219c3.621094-5.511719 5.554688-11.964844 5.554688-18.5625.066406-13.390625-7.742188-25.570312-19.941406-31.101562-12.195313-5.527344-26.503906-3.375-36.53125 5.503906h-53.445313c-10.207031-15.328125-25.796875-26.269532-43.683593-30.652344v-24.480469c24.527343-7.367187 46.859374-24.570312 50.972656-47.269531h25.4375c4.765625-.003906 9.316406-2.003906 12.542968-5.511719 3.265626-3.5625 4.894532-8.324219 4.496094-13.140625-5.242187-61.847656-56.96875-109.378906-119.039062-109.378906-62.070313 0-113.800782 47.53125-119.039063 109.378906-.402343 4.816406 1.230469 9.578125 4.496094 13.140625 3.226563 3.507813 7.777344 5.507813 12.542969 5.511719l25.351562-.160156c4.183594 22.816406 26.53125 40.054687 51.058594 47.417968v24.492188c-17.894531 4.378906-33.492188 15.320312-43.699219 30.652344h-53.445312c-12.882813-11.289063-32.144531-11.246094-44.976563.097656-12.832031 11.34375-15.238281 30.453125-5.617187 44.625l-22.613281 14.96875-5.828126-105.816406c11.019532-3.425782 19.53125-12.242188 22.566407-23.378906 3.035156-11.136719.175781-23.054688-7.582031-31.601563l15.878906-23.839844c2.25-3.386719 1.800781-7.886719-1.074219-10.761719l-17.066406-17.066406c-3.347657-3.234375-8.671875-3.1875-11.964844.105469-3.289063 3.289063-3.335937 8.613281-.101563 11.960937l12.125 12.125-11.988281 18.007813c-3.582031-1.316406-7.355469-2.015625-11.171875-2.066406-3.808594.039062-7.582031.726562-11.160156 2.03125l-11.945312-18.003907 12.117187-12.128906c2.152344-2.160156 2.992187-5.308594 2.195313-8.257812-.792969-2.949219-3.101563-5.25-6.054688-6.035156-2.949219-.785157-6.09375.066406-8.25 2.226562l-17.066406 17.066406c-2.875 2.875-3.320313 7.378906-1.066406 10.761719zm100.964844 357.136719c0 4.710937-3.820313 8.53125-8.53125 8.53125-4.714844 0-8.535156-3.820313-8.535156-8.53125v-59.734375c0-4.710938 3.820312-8.53125 8.535156-8.53125 4.710937 0 8.53125 3.820312 8.53125 8.53125zm17.066406-25.601563v-17.066406h21.898438c1.722656 5.882813 3.980469 11.597656 6.75 17.066406zm256-34.132812c0-4.710938 3.820313-8.53125 8.535157-8.53125 4.710937 0 8.53125 3.820312 8.53125 8.53125v59.734375c0 4.710937-3.820313 8.53125-8.53125 8.53125-4.714844 0-8.535157-3.820313-8.535157-8.53125zm-17.066406 34.132812h-28.644531c2.765625-5.46875 5.027344-11.183593 6.75-17.066406h21.894531zm-44.125-42.664062c2.554687.003906 4.976563 1.132812 6.621094 3.085937 1.582031 1.832032 2.269531 4.269532 1.871093 6.65625-6.980468 41.363282-39.101562 67.054688-83.832031 67.054688-44.734375 0-76.851562-25.691406-83.832031-67.054688-.398438-2.386718.285156-4.824218 1.867188-6.65625 1.644531-1.953125 4.070312-3.082031 6.625-3.085937h66.804687v9.386719c-14.855469 2.789062-25.597656 12.601562-25.597656 24.746093 0 14.351563 14.992187 25.597657 34.132812 25.597657s34.132813-11.246094 34.132813-25.597657c0-12.128906-10.742188-21.941406-25.601563-24.746093v-9.386719zm-75.339844 25.597656c10.417969 0 17.066407 5.050781 17.066407 8.535156 0 3.480469-6.648438 8.53125-17.066407 8.53125-10.421875 0-17.066406-5.050781-17.066406-8.53125 0-3.484375 6.644531-8.535156 17.066406-8.535156zm196.265625-291.839844c0-9.425781 7.640625-17.066406 17.066406-17.066406 9.425782 0 17.066407 7.640625 17.066407 17.066406s-7.640625 17.066407-17.066407 17.066407c-9.425781 0-17.066406-7.640626-17.066406-17.066407zm-34.132812 104.105469c0 9.425781-7.640625 17.066406-17.066406 17.066406-9.425782 0-17.066407-7.640625-17.066407-17.066406s7.640625-17.066406 17.066407-17.066406c9.425781 0 17.066406 7.640625 17.066406 17.066406zm-49.988282-8.53125c-1.617187 5.574219-1.617187 11.492188 0 17.066406h-36.199218c1.171875-5.628906 1.171875-11.4375 0-17.066406zm-172.015624-122.703125c-1.496094-8.035156-8.523438-13.859375-16.699219-13.832031l-25.472657-.160156c4.589844-52.960938 48.941407-93.601563 102.097657-93.558594 53.160156.042968 97.445312 40.753906 101.953125 93.71875h-25.4375c-8.175782-.027344-15.203125 5.792968-16.691406 13.832031-2.566407 9.738281-8.714844 18.148437-17.214844 23.546875v-20.3125c0-4.710938-3.820313-8.53125-8.53125-8.53125-4.714844 0-8.535156 3.820312-8.535156 8.53125v25.601562c.011718 1.175782.265624 2.339844.753906 3.414063-5.738282 2.222656-11.71875 3.742187-17.820313 4.53125v-25.011719c0-4.714844-3.820312-8.535156-8.53125-8.535156-4.714843 0-8.535156 3.820312-8.535156 8.535156v25.011719c-6.097656-.78125-12.082031-2.292969-17.816406-4.507813.488281-1.078124.746093-2.25.75-3.4375v-25.601562c0-4.710938-3.820313-8.53125-8.53125-8.53125-4.714844 0-8.535157 3.820312-8.535157 8.53125v20.3125c-8.496093-5.402344-14.640624-13.808594-17.203124-23.546875zm51.335937 53.925781c5.667969.679688 11.398437.679688 17.066406 0v17.96875c-2.804687-.246094-5.648437-.390625-8.53125-.390625-2.886719 0-5.726562.144531-8.535156.390625zm8.535156 34.644532c26.171875 0 48.417969 12.109374 56.472657 28.875l.058593.128906c4.261719 8.601562 4.261719 18.703125 0 27.304687l-.058593.128907c-8.054688 16.785156-30.300782 28.894531-56.472657 28.894531s-48.417969-12.109375-56.472656-28.875l-.0625-.128907c-4.261719-8.605468-4.261719-18.703124 0-27.308593l.0625-.125c8.054687-16.785157 30.300781-28.894531 56.472656-28.894531zm-75.949219 51.199218h-36.195312c1.613281-5.574218 1.613281-11.492187 0-17.066406h36.195312c-1.171874 5.628906-1.171874 11.4375 0 17.066406zm-69.117187-25.601562c9.425781 0 17.066406 7.640625 17.066406 17.066406s-7.640625 17.066406-17.066406 17.066406-17.066406-7.640625-17.066406-17.066406 7.640625-17.066406 17.066406-17.066406zm-50.007813-87.039063c0 9.425781-7.640624 17.066407-17.066406 17.066407-9.425781 0-17.066406-7.640626-17.066406-17.066407s7.640625-17.066406 17.066406-17.066406c9.425782 0 17.066406 7.640625 17.066406 17.066406zm0 0"/></svg>