<svg height="512pt" viewBox="-54 0 512 512" width="512pt" xmlns="http://www.w3.org/2000/svg"><path d="m183.546875 430.933594v55.464844c-.027344 9.414062-7.652344 17.039062-17.066406 17.066406h-42.664063c-9.414062-.027344-17.039062-7.652344-17.066406-17.066406l17.066406-55.464844zm0 0" fill="#1566c0"/><path d="m294.480469 486.398438c-.027344 9.414062-7.652344 17.039062-17.066407 17.066406h-42.664062c-9.414062-.027344-17.039062-7.652344-17.066406-17.066406v-55.464844h59.730468zm0 0" fill="#1566c0"/><path d="m166.480469 430.933594v55.464844c-.027344 9.414062-7.652344 17.039062-17.066407 17.066406h-21.332031c-9.414062-.027344-17.039062-7.652344-17.066406-17.066406l17.066406-55.464844zm0 0" fill="#2296f3"/><path d="m277.414062 486.398438c-.027343 9.414062-7.652343 17.039062-17.066406 17.066406h-21.332031c-9.414063-.027344-17.039063-7.652344-17.066406-17.066406v-55.464844h38.398437zm0 0" fill="#2296f3"/><path d="m128.507812 349.867188h-60.246093c-4.710938 0-8.53125 3.820312-8.53125 8.53125v15.105468h-34.132813v-32.171875c0-14.136719 11.460938-25.597656 25.597656-25.597656h81.238282zm0 0" fill="#3f51b5"/><path d="m266.578125 315.734375h68.609375c4.710938 0 8.53125-3.820313 8.53125-8.535156v-15.101563h34.132812v32.167969c0 14.140625-11.460937 25.601563-25.597656 25.601563h-81.75zm0 0" fill="#3f51b5"/><path d="m285.949219 132.265625v30.292969h-59.734375v-30.292969c.027344-9.414063 7.652344-17.039063 17.066406-17.066406h25.601562c9.414063.027343 17.039063 7.652343 17.066407 17.066406zm0 0" fill="#283593"/><path d="m268.882812 132.265625v30.292969h-42.667968v-30.292969c.027344-9.414063 7.652344-17.039063 17.066406-17.066406h8.535156c9.414063.027343 17.039063 7.652343 17.066406 17.066406zm0 0" fill="#3f51b5"/><path d="m283.644531 425.644531c.292969 2.433594-.472656 4.875-2.105469 6.707031-1.632812 1.828126-3.976562 2.867188-6.425781 2.847657h-151.296875c-2.4375-.007813-4.757812-1.054688-6.371094-2.882813-1.613281-1.824218-2.371093-4.253906-2.078124-6.671875l14.933593-128c.515625-4.277343 4.140625-7.5 8.449219-7.511719h121.429688c4.320312.019532 7.964843 3.226563 8.53125 7.511719zm0 0" fill="#283593"/><path d="m266.578125 425.644531c.292969 2.433594-.472656 4.875-2.105469 6.707031-1.632812 1.828126-3.976562 2.867188-6.429687 2.847657h-129.960938c-2.4375-.007813-4.753906-1.054688-6.371093-2.882813-1.613282-1.824218-2.371094-4.253906-2.078126-6.671875l14.933594-128c.519532-4.277343 4.140625-7.5 8.449219-7.511719h100.097656c4.320313.019532 7.964844 3.226563 8.53125 7.511719zm0 0" fill="#3f51b5"/><path d="m232.53125 366.933594h-66.050781c-2.640625.003906-5.136719-1.214844-6.753907-3.300782-1.621093-2.089843-2.183593-4.808593-1.523437-7.367187 4.074219-15.789063 16.792969-27.878906 32.769531-31.144531 2.804688-.589844 5.667969-.875 8.535156-.855469 19.449219.003906 36.4375 13.167969 41.300782 32 .636718 2.558594.066406 5.265625-1.546875 7.347656-1.617188 2.078125-4.097657 3.304688-6.730469 3.320313zm0 0" fill="#9e9e9e"/><path d="m215.464844 366.933594h-48.984375c-2.640625.003906-5.136719-1.214844-6.753907-3.300782-1.621093-2.089843-2.183593-4.808593-1.523437-7.367187 4.074219-15.789063 16.792969-27.878906 32.769531-31.144531 15.960938 3.300781 28.660156 15.375 32.769532 31.144531.636718 2.558594.066406 5.265625-1.546876 7.347656-1.617187 2.078125-4.097656 3.304688-6.730468 3.320313zm0 0" fill="#cfd8dc"/><path d="m173.878906 401.066406c0 4.714844-3.820312 8.535156-8.53125 8.535156-4.714844 0-8.535156-3.820312-8.535156-8.535156 0-4.710937 3.820312-8.53125 8.535156-8.53125 4.710938 0 8.53125 3.820313 8.53125 8.53125zm0 0" fill="#71c285"/><path d="m208.015625 401.066406c0 4.714844-3.824219 8.535156-8.535156 8.535156-4.710938 0-8.535157-3.820312-8.535157-8.535156 0-4.710937 3.824219-8.53125 8.535157-8.53125 4.710937 0 8.535156 3.820313 8.535156 8.53125zm0 0" fill="#f3d55b"/><path d="m242.148438 401.066406c0 4.714844-3.820313 8.535156-8.535157 8.535156-4.710937 0-8.53125-3.820312-8.53125-8.535156 0-4.710937 3.820313-8.53125 8.53125-8.53125 4.714844 0 8.535157 3.820313 8.535157 8.53125zm0 0" fill="#f3d55b"/><path d="m386.386719 273.066406c0 14.140625-11.460938 25.601563-25.601563 25.601563-2.914062.015625-5.808594-.503907-8.53125-1.539063-10.226562-3.578125-17.070312-13.230468-17.070312-24.0625 0-10.832031 6.84375-20.484375 17.070312-24.0625 2.722656-1.035156 5.617188-1.554687 8.53125-1.539062 14.140625 0 25.601563 11.464844 25.601563 25.601562zm0 0" fill="#1566c0"/><path d="m68.261719 392.535156c0 14.136719-11.460938 25.597656-25.597657 25.597656-2.914062.019532-5.808593-.503906-8.535156-1.535156-10.222656-3.582031-17.066406-13.230468-17.066406-24.0625 0-10.835937 6.84375-20.484375 17.066406-24.066406 2.726563-1.03125 5.621094-1.554688 8.535156-1.535156 6.789063 0 13.300782 2.695312 18.101563 7.496094 4.800781 4.800781 7.496094 11.3125 7.496094 18.105468zm0 0" fill="#1566c0"/><path d="m369.320312 273.066406c0-13.289062-7.640624-24.0625-17.066406-24.0625-9.425781 0-17.066406 10.773438-17.066406 24.0625 0 13.289063 7.640625 24.0625 17.066406 24.0625 9.425782 0 17.066406-10.773437 17.066406-24.0625zm0 0" fill="#2296f3"/><path d="m51.195312 392.535156c0-13.292968-7.640624-24.066406-17.066406-24.066406-9.425781 0-17.066406 10.773438-17.066406 24.066406 0 13.289063 7.640625 24.0625 17.066406 24.0625 9.425782 0 17.066406-10.773437 17.066406-24.0625zm0 0" fill="#2296f3"/><path d="m303.015625 157.78125-23.382813 128.9375c-.386718 4.402344-4.113281 7.757812-8.53125 7.679688h-140.117187c-4.441406.136718-8.203125-3.246094-8.535156-7.679688l-24.234375-128.9375c-.046875-2.269531.839844-4.460938 2.453125-6.058594 1.613281-1.59375 3.8125-2.460937 6.082031-2.390625h187.730469c2.269531-.070312 4.46875.796875 6.082031 2.390625 1.613281 1.597656 2.5 3.789063 2.453125 6.058594zm0 0" fill="#0377bc"/><path d="m285.949219 157.78125-23.382813 128.9375c-.386718 4.402344-4.113281 7.757812-8.53125 7.679688h-118.785156c-4.441406.136718-8.203125-3.246094-8.535156-7.679688l-24.234375-128.9375c-.046875-2.269531.839843-4.460938 2.453125-6.058594 1.613281-1.59375 3.8125-2.460937 6.082031-2.390625h166.398437c2.269532-.070312 4.46875.796875 6.082032 2.390625 1.613281 1.597656 2.5 3.789063 2.453125 6.058594zm0 0" fill="#02a9f4"/><path d="m175.015625 103.851562v45.480469h-34.132813v-26.367187zm0 0" fill="#283593"/><path d="m173.648438 105.300781c-17.917969 17.835938-41.386719 23.296875-52.5625 12.117188-2.015626-2.015625-3.53125-4.46875-4.4375-7.167969-4.351563-12.371094 1.960937-30.804688 16.554687-45.398438 10.152344-11.363281 24.695313-17.828124 39.933594-17.746093 4.734375.363281 9.195312 2.351562 12.628906 5.628906 11.179687 11.179687 5.71875 34.648437-12.117187 52.566406zm0 0" fill="#00838f"/><path d="m156.582031 92.5c-10.171875 11.339844-24.699219 17.796875-39.933593 17.75-4.351563-12.371094 1.960937-30.804688 16.554687-45.398438 10.152344-11.363281 24.695313-17.828124 39.933594-17.746093 4.351562 12.371093-1.960938 30.71875-16.554688 45.394531zm0 0" fill="#00bcd4"/><path d="m115.28125 29.867188c0 9.425781-7.640625 17.066406-17.066406 17.066406-9.425782 0-17.066406-7.640625-17.066406-17.066406 0-9.425782 7.640624-17.066407 17.066406-17.066407 9.425781 0 17.066406 7.640625 17.066406 17.066407zm0 0" fill="#f44335"/><path d="m173.878906 401.066406c0 4.714844-3.820312 8.535156-8.53125 8.535156-4.714844 0-8.535156-3.820312-8.535156-8.535156 0-4.710937 3.820312-8.53125 8.535156-8.53125 4.710938 0 8.53125 3.820313 8.53125 8.53125zm0 0"/><path d="m208.015625 401.066406c0 4.714844-3.824219 8.535156-8.535156 8.535156-4.710938 0-8.535157-3.820312-8.535157-8.535156 0-4.710937 3.824219-8.53125 8.535157-8.53125 4.710937 0 8.535156 3.820313 8.535156 8.53125zm0 0"/><path d="m242.148438 401.066406c0 4.714844-3.820313 8.535156-8.535157 8.535156-4.710937 0-8.53125-3.820312-8.53125-8.535156 0-4.710937 3.820313-8.53125 8.53125-8.53125 4.714844 0 8.535157 3.820313 8.535157 8.53125zm0 0"/><path d="m156.8125 375.464844h85.335938c4.710937 0 8.53125-3.820313 8.53125-8.53125 0-28.277344-22.921876-51.199219-51.199219-51.199219-28.277344 0-51.199219 22.921875-51.199219 51.199219 0 4.710937 3.820312 8.53125 8.53125 8.53125zm75.589844-17.066406h-25.925782l-5.117187-25.402344c14.769531.820312 27.316406 11.085937 31.042969 25.402344zm-47.785156-22.066407 4.453124 22.066407h-22.511718c2.515625-9.648438 9.128906-17.710938 18.097656-22.066407zm0 0"/><path d="m166.882812 230.398438c4.714844 0 8.535157-3.820313 8.535157-8.53125v-25.601563c0-4.710937-3.820313-8.53125-8.535157-8.53125-4.710937 0-8.53125 3.820313-8.53125 8.53125v25.601563c0 4.710937 3.820313 8.53125 8.53125 8.53125zm0 0"/><path d="m235.148438 230.398438c4.714843 0 8.535156-3.820313 8.535156-8.53125v-25.601563c0-4.710937-3.820313-8.53125-8.535156-8.53125-4.710938 0-8.53125 3.820313-8.53125 8.53125v25.601563c0 4.710937 3.820312 8.53125 8.53125 8.53125zm0 0"/><path d="m2.496094 449.765625 17.066406 17.066406c3.332031 3.339844 8.742188 3.347657 12.082031.015625 3.335938-3.332031 3.34375-8.742187.011719-12.082031l-12.152344-12.125 11.945313-18.003906c7.203125 2.707031 15.140625 2.707031 22.339843 0l11.992188 18.003906-12.125 12.125c-3.332031 3.351563-3.320312 8.769531.03125 12.101563 3.351562 3.332031 8.769531 3.316406 12.101562-.035157l17.066407-17.066406c2.875-2.871094 3.324219-7.375 1.074219-10.757813l-15.878907-23.851562c11.601563-12.707031 11.707031-32.132812.238281-44.964844v-11.792968h46.335938l-7.679688 66.152343c-.839843 5.910157 1.585938 11.816407 6.339844 15.429688l-14.574218 43.722656c-.308594.867187-.476563 1.777344-.496094 2.695313 0 14.140624 11.460937 25.601562 25.601562 25.601562h42.664063c14.140625 0 25.601562-11.460938 25.601562-25.601562v-42.664063h17.066407v42.664063c0 14.140624 11.460937 25.601562 25.601562 25.601562h42.664062c14.140626 0 25.601563-11.460938 25.601563-25.601562 0-.914063-.144531-1.824219-.433594-2.695313l-15.105469-45.3125c.144532-.152344.324219-.273437.460938-.425781 3.226562-3.652344 4.738281-8.507813 4.15625-13.347656l-7.722656-66.21875h67.882812c18.851563 0 34.132813-15.28125 34.132813-34.132813v-28.859375c11.464843-12.828125 11.363281-32.253906-.238281-44.960938l15.878906-23.894531c2.25-3.382812 1.800781-7.886719-1.074219-10.761719l-17.066406-17.066406c-2.144531-2.214844-5.316407-3.105468-8.300781-2.324218-2.980469.78125-5.3125 3.109374-6.09375 6.09375-.78125 2.984374.109374 6.15625 2.328124 8.296874l12.117188 12.128907-11.945312 18.003906c-7.203126-2.707031-15.140626-2.707031-22.34375 0l-11.945313-18.003906 12.117187-12.128907c3.234376-3.347656 3.1875-8.667968-.101562-11.960937-3.292969-3.292969-8.617188-3.335937-11.964844-.105469l-17.066406 17.066406c-2.871094 2.878907-3.320312 7.378907-1.066406 10.761719l15.871094 23.894531c-11.601563 12.707032-11.703126 32.132813-.238282 44.960938v11.792969h-56.855468l-1.128907-9.660157c6.003907-2.203124 10.210938-7.652343 10.828125-14.019531l23.304688-128.496093c.070312-.363282.113281-.734376.128906-1.109376.222656-4.46875-1.414062-8.832031-4.523438-12.054687-3.273437-3.410156-7.796874-5.332031-12.527343-5.324219v-8.535156c-.050781-11.503906-7.765625-21.558594-18.867188-24.585938l7-10.496093 73.453125-16.324219c3.527344-.78125 6.179688-3.703125 6.621094-7.289062.441406-3.585938-1.425781-7.0625-4.65625-8.675782l-85.335938-42.667968c-2.839843-1.417969-6.234374-1.144532-8.808593.714843s-3.90625 4.992188-3.453125 8.136719l8.074218 56.5-12.722656 19.085938h-12.503906c-14.136719 0-25.597656 11.464843-25.597656 25.601562v8.535156h-34.136719v-33.9375c18.058594-20.847656 21.976563-46.421875 8.238281-60.160156-13.289062-13.289062-37.703125-10.097656-58.171875 6.492188l-12.296875-12.296876-.0625-.050781c1.671875-3.421875 2.546875-7.175781 2.5625-10.980469 0-14.140624-11.460937-25.601562-25.601562-25.601562-14.136719 0-25.597656 11.460938-25.597656 25.601562 0 14.136719 11.460937 25.597657 25.597656 25.597657 3.808594-.015625 7.5625-.890625 10.984375-2.558594l.050781.078125 12.296875 12.292969c-16.589844 20.480469-19.796875 44.871093-6.496094 58.171875 4.691407 4.550781 10.792969 7.359375 17.296875 7.964844v9.386718h-25.597656c-4.726562-.007812-9.253906 1.914063-12.527344 5.324219-3.113281 3.21875-4.757812 7.582031-4.539062 12.054687.019531.390626.0625.777344.136718 1.164063l24.105469 128.476563c.503907 5.226562 3.464844 9.90625 7.96875 12.601562 0 .15625-.085937.300781-.101562.460938l-1.21875 10.582031h-69.378907c-18.851562 0-34.132812 15.28125-34.132812 34.132812v28.859375c-11.464844 12.832032-11.363281 32.257813.238281 44.964844l-15.871093 23.851562c-2.25 3.382813-1.804688 7.882813 1.066406 10.757813zm95.71875-415.632813c-4.710938 0-8.53125-3.820312-8.53125-8.53125 0-4.714843 3.820312-8.535156 8.53125-8.535156 4.714844 0 8.535156 3.820313 8.535156 8.535156 0 2.261719-.898438 4.433594-2.5 6.03125-1.601562 1.601563-3.769531 2.5-6.035156 2.5zm-72.617188 358.402344c0-9.425781 7.640625-17.070312 17.066406-17.070312 9.425782 0 17.066407 7.644531 17.066407 17.070312 0 9.425782-7.640625 17.066406-17.066407 17.066406-9.425781 0-17.066406-7.640624-17.066406-17.066406zm234.625-93.867187 14.941406 128-151.347656-.070313 14.933594-127.929687zm-85.207031 187.730469c0 4.714843-3.820313 8.535156-8.535156 8.535156h-42.664063c-4.269531 0-7.882812-3.152344-8.457031-7.382813l14.609375-43.816406h45.046875zm102.398437 8.535156h-42.664062c-4.714844 0-8.535156-3.820313-8.535156-8.535156v-42.664063h45.046875l14.609375 43.816406c-.574219 4.230469-4.1875 7.382813-8.457032 7.382813zm100.4375-221.867188c0 9.425782-7.640624 17.066406-17.066406 17.066406-9.425781 0-17.066406-7.640624-17.066406-17.066406 0-9.425781 7.640625-17.066406 17.066406-17.066406 9.425782 0 17.066406 7.640625 17.066406 17.066406zm-42.664062 51.199219c9.425781 0 17.066406-7.640625 17.066406-17.066406v-1.210938c5.574219 1.617188 11.492188 1.617188 17.066406 0v18.277344c0 9.425781-7.640624 17.066406-17.066406 17.066406h-69.871094l-1.996093-17.066406zm-6.28125-259.113281-44.375 9.855468-4.898438-34.492187zm-94.15625 62.847656c0-4.710938 3.820312-8.535156 8.53125-8.535156h25.601562c4.710938 0 8.53125 3.824218 8.53125 8.535156v8.535156h-42.664062zm-101.121094-54.921875 9.753906 9.753906c3.347657 3.234375 8.671876 3.1875 11.960938-.101562 3.292969-3.292969 3.339844-8.617188.105469-11.964844l-9.746094-9.742187c6.890625-5.757813 15.421875-9.195313 24.378906-9.824219 3.519531-.222657 6.984375.960937 9.636719 3.285156 6.707031 6.699219 3.410156 24.976563-12.128906 40.472656-15.539063 15.5-33.773438 18.84375-40.472656 12.128907-5.792969-5.777344-4.050782-20.199219 6.511718-34.007813zm15.785156 52.457031c6.046876-1.773437 11.796876-4.433594 17.066407-7.886718v18.886718h-17.066407zm-42.484374 28.066406h187.382812l-23.21875 128h-10.53125c-.121094 0-.230469 0-.351562 0h-121.460938c-1.203125.007813-2.398438.144532-3.566406.40625h-4.269532c-.015624-.386718-.058593-.769531-.136718-1.148437zm-55.734376 170.664063h67.414063l-1.996094 17.066406h-48.351562c-9.425781 0-17.066407 7.640625-17.066407 17.066407v1.214843c-5.574218-1.617187-11.492187-1.617187-17.066406 0v-18.28125c0-9.425781 7.640625-17.066406 17.066406-17.066406zm0 0"/></svg>