<svg height="512pt" viewBox="-62 0 512 512.00853" width="512pt" xmlns="http://www.w3.org/2000/svg"><path d="m177.316406 311.039062v98.5625c0 59.730469 8.53125 68.265626 8.53125 68.265626h17.066406s8.535157-8.535157 8.535157-68.265626v-98.5625" fill="#9e9e9e"/><path d="m204.28125 329.472656c.707031 3.316406 1.589844 6.589844 2.644531 9.8125 1.28125 3.925782 2.730469 8.105469 4.523438 12.375 9.386719 22.527344 26.367187 47.359375 51.199219 47.359375 18.027343.882813 34.417968-10.40625 40.023437-27.5625l-16.898437-20.394531c-1.824219 1.992188-3.824219 3.820312-5.972657 5.460938-3.03125 2.566406-6.355469 4.773437-9.898437 6.570312-3.03125 1.429688-6.515625 1.550781-9.640625.339844-2.054688-.984375-3.820313-2.484375-5.121094-4.351563-4.976563-7.699219-8.453125-16.269531-10.242187-25.257812-2.816407-10.15625-4.691407-20.566407-6.738282-30.890625zm0 0" fill="#37474f"/><path d="m235.171875 117.503906c-1.039063-1.367187-2.148437-2.675781-3.328125-3.925781 7.835938-16.835937 17.386719-32.824219 28.5-47.699219 2-2.710937 2.265625-6.328125.683594-9.304687-16.980469-29.695313-40.53125-48.039063-66.644532-48.039063-3.585937-.015625-7.160156.355469-10.667968 1.109375-21.84375 4.179688-41.386719 21.332031-55.976563 46.929688-1.582031 2.976562-1.316406 6.59375.679688 9.304687 11.117187 14.875 20.667969 30.863282 28.503906 47.699219-1.179687 1.25-2.289063 2.558594-3.328125 3.925781-16.640625 21.761719-27.476562 56.574219-27.476562 95.828125 0 59.648438 24.917968 109.058594 57.597656 118.015625 3.476562.949219 7.0625 1.4375 10.667968 1.453125 37.71875 0 68.265626-53.503906 68.265626-119.46875 0-39.253906-10.835938-74.066406-27.476563-95.828125zm-40.789063 53.164063c18.851563 0 34.132813 15.28125 34.132813 34.132812 0 18.851563-15.28125 34.132813-34.132813 34.132813-3.625.007812-7.226562-.566406-10.667968-1.707032-14.007813-4.605468-23.472656-17.683593-23.472656-32.425781 0-14.746093 9.464843-27.824219 23.472656-32.425781 3.441406-1.140625 7.042968-1.71875 10.667968-1.707031zm0 0" fill="#9e9e9e"/><path d="m213.839844 117.503906c-1.039063-1.367187-2.148438-2.675781-3.328125-3.925781 7.835937-16.835937 17.386719-32.824219 28.5-47.699219 1.996093-2.710937 2.261719-6.328125.683593-9.304687-14.59375-25.597657-34.132812-42.75-55.980468-46.929688-21.84375 4.179688-41.386719 21.332031-55.976563 46.929688-1.582031 2.976562-1.316406 6.59375.679688 9.304687 11.117187 14.875 20.667969 30.863282 28.503906 47.699219-1.179687 1.25-2.289063 2.558594-3.328125 3.925781-16.640625 21.761719-27.476562 56.574219-27.476562 95.828125 0 59.648438 24.917968 109.058594 57.597656 118.015625 32.683594-8.957031 57.601562-58.367187 57.601562-118.015625 0-39.253906-10.835937-74.066406-27.476562-95.828125zm-40.789063 121.429688c-18.851562 0-34.136719-15.28125-34.136719-34.132813 0-18.851562 15.285157-34.132812 34.136719-34.132812 3.621094-.011719 7.226563.566406 10.664063 1.707031 14.007812 4.601562 23.476562 17.679688 23.476562 32.425781 0 14.742188-9.46875 27.820313-23.476562 32.425781-3.4375 1.140626-7.042969 1.714844-10.664063 1.707032zm0 0" fill="#cfd8dc"/><path d="m184.484375 329.472656c-.707031 3.316406-1.589844 6.589844-2.644531 9.8125-1.28125 3.925782-2.730469 8.105469-4.523438 12.375-9.386718 22.527344-26.367187 47.359375-51.199218 47.359375-3.152344.03125-6.296876-.253906-9.386719-.855469 20.648437-4.4375 35.15625-26.367187 43.519531-46.503906 1.792969-4.269531 3.242188-8.449218 4.523438-12.375 1.054687-3.222656 1.9375-6.496094 2.644531-9.8125l-19.117188-14.933594c.769531-3.839843 1.539063-7.765624 2.304688-11.605468zm0 0" fill="#37474f"/><path d="m167.417969 329.472656c-.707031 3.316406-1.589844 6.589844-2.644531 9.8125-1.28125 3.925782-2.730469 8.105469-4.523438 12.375-8.363281 20.136719-22.871094 42.066406-43.519531 46.503906-14.371094-2.542968-26.15625-12.820312-30.636719-26.707031l9.8125-11.863281 7.085938-8.53125c1.824218 1.992188 3.820312 3.820312 5.972656 5.460938 1.875 1.449218 3.839844 2.984374 5.972656 4.351562 1.242188.851562 2.554688 1.59375 3.925781 2.21875 3.03125 1.429688 6.515625 1.550781 9.640625.339844 2.054688-.984375 3.816406-2.484375 5.121094-4.351563 4.976562-7.699219 8.449219-16.269531 10.242188-25.257812 1.789062-6.398438 3.15625-12.800781 4.433593-19.285157zm0 0" fill="#607d8b"/><path d="m77.902344 367.105469c-6.3125 21.160156-6.828125 79.015625-6.828125 88.148437-.015625.867188-.160157 1.730469-.425781 2.558594l-11.179688 35.414062c-1.121094 3.574219-4.445312 5.996094-8.191406 5.972657h-22.867188c0-19.96875.597656-37.632813 1.449219-53.246094v-.257813c.042969-.339843.042969-.683593 0-1.023437 1.023437-16.554687 2.390625-30.71875 3.925781-42.835937 0-.085938.085938-.171876 0-.257813 1.023438-7.933594 2.132813-14.933594 3.242188-21.078125-.023438-.019531-.035156-.050781-.035156-.085938 0-.03125.011718-.0625.035156-.082031 1.28125-7.167969 2.476562-13.144531 3.667968-17.921875.257813-1.363281.597657-2.558594.855469-3.753906zm0 0" fill="#9e9e9e"/><path d="m360.355469 499.199219h-22.867188c-3.746093.023437-7.070312-2.398438-8.195312-5.972657l-11.175781-35.414062c-.265626-.828125-.410157-1.691406-.429688-2.558594 0-9.132812-.511719-66.988281-6.824219-88.148437l20.136719-4.695313 16.214844-3.753906c1.363281 5.375 2.902344 12.542969 4.523437 21.675781.023438.019531.035157.050781.035157.082031 0 .035157-.011719.066407-.035157.085938 1.109375 6.144531 2.21875 13.144531 3.242188 21.078125-.085938.085937 0 .171875 0 .257813 1.535156 12.117187 2.902343 26.28125 3.925781 42.835937-.042969.339844-.042969.683594 0 1.023437v.257813c.851562 15.613281 1.449219 33.277344 1.449219 53.246094zm0 0" fill="#9e9e9e"/><path d="m60.835938 367.105469c-6.316407 21.160156-6.828126 79.015625-6.828126 88.148437-.015624.867188-.160156 1.730469-.425781 2.558594l-11.179687 35.414062c-1.121094 3.574219-4.445313 5.996094-8.191406 5.972657h-5.800782c0-19.96875.597656-37.632813 1.449219-53.246094v-.257813c.042969-.339843.042969-.683593 0-1.023437 1.023437-16.554687 2.390625-30.71875 3.925781-42.835937 0-.085938.085938-.171876 0-.257813 1.023438-7.933594 2.132813-14.933594 3.242188-21.078125-.023438-.019531-.035156-.050781-.035156-.085938 0-.03125.011718-.0625.035156-.082031 1.28125-7.167969 2.476562-13.144531 3.667968-17.921875zm0 0" fill="#cfd8dc"/><path d="m343.289062 499.199219h-5.800781c-3.746093.023437-7.070312-2.398438-8.195312-5.972657l-11.175781-35.414062c-.265626-.828125-.410157-1.691406-.429688-2.558594 0-9.132812-.511719-66.988281-6.824219-88.148437l20.136719-4.695313c1.195312 4.777344 2.390625 10.753906 3.671875 17.921875.023437.019531.035156.050781.035156.082031 0 .035157-.011719.066407-.035156.085938 1.109375 6.144531 2.21875 13.144531 3.242187 21.078125-.085937.085937 0 .171875 0 .257813 1.535157 12.117187 2.902344 26.28125 3.925782 42.835937-.042969.339844-.042969.683594 0 1.023437v.257813c.851562 15.613281 1.449218 33.277344 1.449218 53.246094zm0 0" fill="#cfd8dc"/><path d="m52.816406 162.132812h15.1875c13.238282.011719 23.96875 10.738282 23.980469 23.980469v37.375c-.011719 13.238281-10.742187 23.96875-23.980469 23.976563h-19.371094zm0 0" fill="#424242"/><path d="m348.664062 247.464844h-27.902343c-13.238281-.007813-23.96875-10.738282-23.980469-23.976563v-37.375c.011719-13.242187 10.742188-23.96875 23.980469-23.980469h23.722656zm0 0" fill="#424242"/><path d="m202.914062 204.800781c0 4.710938-3.820312 8.53125-8.53125 8.53125-4.714843 0-8.535156-3.820312-8.535156-8.53125 0-4.714843 3.820313-8.535156 8.535156-8.535156 4.710938 0 8.53125 3.820313 8.53125 8.535156zm0 0"/><path d="m82.167969 114.773438c-20.648438 47.957031-29.011719 89.171874-20.136719 136.449218 2.328125 10.074219 5.613281 19.902344 9.8125 29.351563.9375 2.21875 7.425781 12.714843 6.65625 14.933593-3.753906 11.351563-3.585938 18.175782-7.765625 29.441407-.085937.257812-.339844.769531-.597656 1.449219l-21.078125 14.335937-.765625-1.023437c-2.21875-2.816407-4.351563-5.632813-6.402344-8.617188-37.203125-53.503906-38.738281-126.804688-26.367187-188.585938 3.429687-17.890624 8.488281-35.425781 15.105468-52.394531.765625-1.878906 4.007813-11.4375 6.910156-19.796875.085938-.257812.171876-.429687.257813-.683594.839844-2.433593 2.738281-4.351562 5.160156-5.214843 2.425781-.863281 5.109375-.578125 7.296875.777343l10.324219 6.144532c1.269531.78125 2.324219 1.867187 3.074219 3.15625l18.175781 32.769531c1.257813 2.316406 1.386719 5.085937.339844 7.507813zm0 0" fill="#9e9e9e"/><path d="m60.835938 114.773438c-20.652344 47.957031-29.011719 89.171874-20.140626 136.449218 2.332032 10.074219 5.617188 19.902344 9.816407 29.351563.9375 2.21875 7.421875 12.714843 6.65625 14.933593-3.757813 11.351563-3.585938 18.175782-7.765625 29.441407-.085938.257812-.34375.769531-.597656 1.449219l-6.914063 4.695312c-37.203125-53.503906-38.738281-126.804688-26.367187-188.585938 3.429687-17.890624 8.488281-35.425781 15.105468-52.394531.765625-1.878906 4.007813-11.4375 6.910156-19.796875l1.707032 1.023438c1.269531.78125 2.324218 1.867187 3.074218 3.15625l18.175782 32.769531c1.257812 2.316406 1.382812 5.085937.339844 7.507813zm0 0" fill="#cfd8dc"/><path d="m111.4375 331.347656c-1.609375 1.726563-3.347656 3.324219-5.203125 4.78125-1.667969 1.425782-3.238281 2.964844-4.695313 4.605469-3.054687 3.859375-5.632812 8.070313-7.679687 12.546875-2.285156 7.105469-5.019531 14.0625-8.191406 20.820312-1.023438 1.621094-1.28125 2.558594-2.902344 1.109376-1.378906-1.253907-2.832031-2.421876-4.351563-3.5-2.933593-1.957032-6.121093-3.507813-9.472656-4.605469-.386718-.15625-.785156-.269531-1.195312-.34375-5.707032-1.972657-11.640625-3.234375-17.664063-3.753907-2.882812-.398437-5.804687-.457031-8.703125-.171874-1.613281.246093-3.222656-.453126-4.148437-1.796876s-1.003907-3.09375-.203125-4.515624c1.976562-3.550782 4.261718-6.917969 6.828125-10.070313 1.921875-2.4375 4.035156-4.71875 6.3125-6.828125 9.003906-8.496094 20.15625-14.367188 32.257812-16.980469 8.78125-2 17.945313-1.496093 26.453125 1.453125 1.148438.355469 2.195313.96875 3.070313 1.789063 1.34375 1.660156 1.113281 4.082031-.511719 5.460937zm0 0" fill="#cfd8dc"/><path d="m228.515625 204.800781c0 18.851563-15.28125 34.132813-34.132813 34.132813-2.882812.027344-5.753906-.347656-8.535156-1.109375-15.019531-3.925781-25.5-17.496094-25.5-33.023438 0-15.527343 10.480469-29.097656 25.5-33.023437 2.78125-.761719 5.652344-1.136719 8.535156-1.109375 18.851563 0 34.132813 15.28125 34.132813 34.132812zm0 0" fill="#c52828"/><path d="m211.449219 204.800781c0-18.238281-11.460938-33.023437-25.601563-33.023437-14.136718 0-25.597656 14.785156-25.597656 33.023437s11.460938 33.023438 25.597656 33.023438c14.140625 0 25.601563-14.785157 25.601563-33.023438zm0 0" fill="#f44335"/><path d="m160.25 204.800781c0 18.851563 15.28125 34.132813 34.132812 34.132813v93.867187c-7.511718-.089843-14.867187-2.148437-21.332031-5.972656-27.308593-15.703125-46.933593-60.589844-46.933593-113.496094 0-39.253906 10.835937-74.066406 27.476562-95.828125 1.039062-1.367187 2.148438-2.675781 3.328125-3.925781-7.835937-16.835937-17.386719-32.824219-28.503906-47.699219-1.996094-2.710937-2.261719-6.328125-.679688-9.304687 9.769531-19.257813 25.726563-34.671875 45.3125-43.773438 6.761719-2.8125 14.007813-4.261719 21.332031-4.265625v162.132813c-18.851562 0-34.132812 15.28125-34.132812 34.132812zm0 0" fill="#cfd8dc"/><path d="m202.914062 204.800781c0 4.710938-3.820312 8.53125-8.53125 8.53125-4.714843 0-8.535156-3.820312-8.535156-8.53125 0-4.714843 3.820313-8.535156 8.535156-8.535156 4.710938 0 8.53125 3.820313 8.53125 8.535156zm0 0" fill="#802d40"/><path d="m340.472656 339.710938-.765625 1.023437-14.167969-9.640625-6.910156-4.695312c-.257812-.679688-.511718-1.191407-.597656-1.449219-4.183594-11.265625-4.011719-18.089844-7.765625-29.441407-.769531-2.21875 5.71875-12.714843 6.65625-14.933593 4.195313-9.449219 7.484375-19.277344 9.8125-29.351563 8.875-47.277344.511719-88.492187-20.136719-136.449218-1.046875-2.421876-.917968-5.191407.339844-7.507813l18.175781-32.769531c.75-1.289063 1.804688-2.375 3.070313-3.15625l1.707031-1.023438 8.621094-5.121094c2.1875-1.355468 4.871093-1.640624 7.296875-.777343 2.421875.863281 4.320312 2.78125 5.160156 5.214843 2.988281 8.53125 6.402344 18.515626 7.167969 20.480469 6.617187 16.96875 11.675781 34.503907 15.105469 52.394531 13.054687 65.195313 10.664062 143.101563-32.769532 197.203126zm0 0" fill="#9e9e9e"/><path d="m325.539062 331.09375-6.910156-4.695312c-.257812-.679688-.511718-1.191407-.597656-1.449219-4.183594-11.265625-4.011719-18.089844-7.765625-29.441407-.769531-2.21875 5.71875-12.714843 6.65625-14.933593 4.195313-9.449219 7.484375-19.277344 9.8125-29.351563 8.875-47.277344.511719-88.492187-20.136719-136.449218-1.046875-2.421876-.917968-5.191407.339844-7.507813l18.175781-32.769531c.75-1.289063 1.804688-2.375 3.070313-3.15625l1.707031-1.023438c2.902344 8.359375 6.144531 17.917969 6.914063 19.796875 6.617187 16.96875 11.671874 34.503907 15.101562 52.394531 12.375 61.78125 10.839844 135.082032-26.367188 188.585938zm0 0" fill="#cfd8dc"/><path d="m347.386719 362.835938c-2.898438-.285157-5.820313-.226563-8.707031.171874-6.429688.582032-12.765626 1.957032-18.855469 4.097657-3.351563 1.097656-6.539063 2.648437-9.472657 4.605469-1.519531 1.078124-2.976562 2.246093-4.351562 3.5-1.621094 1.449218-1.878906.511718-2.902344-1.109376-1.394531-2.320312-2.539062-4.777343-3.414062-7.339843-1.621094-4.4375-2.730469-9.128907-4.777344-13.480469-2.046875-4.476562-4.625-8.6875-7.679688-12.546875-1.457031-1.640625-3.027343-3.179687-4.695312-4.605469-1.855469-1.457031-3.59375-3.054687-5.203125-4.78125-1.625-1.378906-1.855469-3.800781-.511719-5.460937.871094-.820313 1.921875-1.433594 3.070313-1.789063 1.695312-.613281 3.4375-1.097656 5.207031-1.453125 19.527344-3.292969 39.445312 3.027344 53.503906 16.980469 2.277344 2.109375 4.390625 4.390625 6.3125 6.828125 2.566406 3.152344 4.851563 6.519531 6.828125 10.070313.800781 1.421874.722657 3.171874-.203125 4.515624-.925781 1.34375-2.535156 2.042969-4.148437 1.796876zm0 0" fill="#cfd8dc"/><path d="m90.105469 331.347656c-1.609375 1.726563-3.351563 3.324219-5.207031 4.78125-1.667969 1.425782-3.234376 2.964844-4.691407 4.605469-3.054687 3.859375-5.636719 8.070313-7.679687 12.546875-2.046875 4.351562-3.15625 9.042969-4.78125 13.480469-5.707032-1.972657-11.640625-3.234375-17.664063-3.753907-2.882812-.398437-5.804687-.457031-8.703125-.171874-1.613281.246093-3.222656-.453126-4.148437-1.796876s-1.003907-3.09375-.203125-4.515624c1.976562-3.550782 4.261718-6.917969 6.828125-10.070313 1.921875-2.4375 4.035156-4.71875 6.3125-6.828125 9.003906-8.496094 20.15625-14.367188 32.257812-16.980469 1.738281.367188 3.449219.851563 5.121094 1.453125 1.144531.355469 2.195313.96875 3.070313 1.789063 1.339843 1.660156 1.113281 4.082031-.511719 5.460937zm0 0" fill="#f5f5f5"/><path d="m326.050781 362.835938c-2.898437-.285157-5.816406-.226563-8.703125.171874-6.019531.519532-11.953125 1.78125-17.664062 3.753907-1.621094-4.4375-2.730469-9.128907-4.777344-13.480469-2.046875-4.476562-4.625-8.6875-7.679688-12.546875-1.457031-1.640625-3.027343-3.179687-4.695312-4.605469-1.855469-1.457031-3.59375-3.054687-5.203125-4.78125-1.625-1.378906-1.855469-3.800781-.511719-5.460937.871094-.820313 1.921875-1.433594 3.070313-1.789063 1.695312-.613281 3.4375-1.097656 5.207031-1.453125 12.074219 2.613281 23.199219 8.488281 32.167969 16.980469 2.28125 2.109375 4.394531 4.390625 6.316406 6.828125 2.566406 3.152344 4.847656 6.519531 6.824219 10.070313.800781 1.421874.722656 3.171874-.203125 4.515624s-2.535157 2.042969-4.148438 1.796876zm0 0" fill="#f5f5f5"/><path d="m202.914062 204.800781c0 4.710938-3.820312 8.53125-8.53125 8.53125-4.714843 0-8.535156-3.820312-8.535156-8.53125 0-4.714843 3.820313-8.535156 8.535156-8.535156 4.710938 0 8.53125 3.820313 8.53125 8.535156zm0 0"/><path d="m202.914062 204.800781c0 4.710938-3.820312 8.53125-8.53125 8.53125-4.714843 0-8.535156-3.820312-8.535156-8.53125 0-4.714843 3.820313-8.535156 8.535156-8.535156 4.710938 0 8.53125 3.820313 8.53125 8.535156zm0 0"/><path d="m381.628906 140.800781c-3.507812-18.355469-8.695312-36.351562-15.496094-53.761719-.988281-2.558593-7.679687-21.785156-10.480468-30.078124-.828125-2.441407-2.71875-4.375-5.140625-5.261719s-5.113281-.632813-7.324219.695312l-21.335938 12.800781c-1.277343.769532-2.335937 1.859376-3.0625 3.164063l-21.332031 38.402344c-1.296875 2.332031-1.425781 5.140625-.351562 7.585937 5.867187 13.179688 10.929687 26.703125 15.15625 40.5-12.105469 3.277344-21.238281 13.25-23.441407 25.597656-7.9375.554688-15.746093-2.230468-21.546874-7.679687-3.742188-21.789063-12.382813-42.449219-25.265626-60.414063l-.078124-.085937c7.957031-16.128906 17.503906-31.417969 28.503906-45.644531.207031-.359375.390625-.734375.542968-1.121094.355469-.546875.640626-1.132812.855469-1.746094.113281-.539062.175781-1.089844.179688-1.640625.085937-.503906.121093-1.015625.109375-1.527343-.109375-.660157-.296875-1.304688-.554688-1.917969-.082031-.394531-.199218-.777344-.339844-1.152344l-.113281-.195313c-19.183593-36.457031-47.136719-57.320312-76.730469-57.320312s-57.550781 20.863281-76.714843 57.234375l-.085938.238281c-.144531.375-.257812.757813-.339843 1.152344-.261719.613281-.445313 1.257812-.554688 1.917969-.023438.539062.011719 1.082031.101562 1.613281.003907.550781.0625 1.101562.179688 1.640625.210938.613281.5 1.199219.851562 1.746094.15625.386719.339844.761719.546876 1.121093 10.996093 14.222657 20.542968 29.511719 28.5 45.632813-12.90625 17.988281-21.566407 38.667969-25.324219 60.484375-5.796875 5.453125-13.609375 8.238281-21.546875 7.683594-2.203125-12.351563-11.335938-22.320313-23.441406-25.601563 4.210937-13.800781 9.253906-27.328125 15.105468-40.515625 1.074219-2.445312.945313-5.253906-.351562-7.585937l-21.332032-38.402344c-.726562-1.304687-1.785156-2.394531-3.066406-3.164063l-21.332031-12.800781c-2.210937-1.328125-4.902344-1.582031-7.324219-.695312s-4.3125 2.820312-5.144531 5.261719c-2.917969 8.53125-9.488281 27.492187-10.425781 29.949218-6.824219 17.449219-12.03125 35.488282-15.546875 53.890625-9.429688 47.085938-17.460938 134.59375 30.90625 199.335938-.273438.328125-.597657.609375-.851563.941406-5.519531 6.441406-9.621094 13.972656-12.042968 22.101563-1.101563 4.246093 1.199218 8.640624 5.316406 10.152343-.613282 3.066407-1.226563 6.273438-1.84375 9.738281 0 .203126-.066406.410157-.09375.613282-1.097656 6.152344-2.199219 13.132812-3.214844 21.035156-.035156.253906-.058594.503906-.070312.757812-1.644532 13.050782-2.960938 27.480469-3.914063 42.898438-.027344.378906-.027344.757812 0 1.136719v.203125c-.984375 17.996094-1.46875 35.566406-1.46875 53.761718 0 4.710938 3.820313 8.53125 8.53125 8.53125h22.929687c7.453126 0 14.046876-4.835937 16.28125-11.945312l11.207032-35.464844c.515625-1.625.785156-3.320312.792968-5.027344-.046874-24.15625 1.238282-48.296874 3.847657-72.3125 9.230469 14.515626 25.480469 23.023438 42.667969 22.34375 17.183593-.761718 33-9.589843 42.664062-23.816406v23.816406c0 57.101563 7.679688 70.980469 11.035156 74.296876 1.601563 1.601562 3.769532 2.5 6.03125 2.5h17.066406c2.265626 0 4.433594-.898438 6.035157-2.5 3.351562-3.316407 11.035156-17.195313 11.035156-74.296876v-23.828124c9.664063 14.230468 25.480469 23.0625 42.664063 23.828124 17.1875.679688 33.4375-7.828124 42.667968-22.34375 2.617188 24.023438 3.90625 48.175782 3.863282 72.339844.011718 1.703125.277343 3.394532.796874 5.015625l11.195313 35.441407c2.234375 7.109374 8.828125 11.945312 16.28125 11.945312h22.929687c4.710938 0 8.53125-3.820312 8.53125-8.535156 0-18.0625-.476562-35.632813-1.449218-53.503906 0-.175782 0-.355469 0-.535157.023437-.339843.023437-.679687 0-1.015625-.949219-15.359375-2.269532-29.867187-3.925782-42.898437-.007812-.25-.027343-.5-.058593-.75-.992188-7.722657-2.074219-14.574219-3.148438-20.632813-.039062-.511718-.117187-1.015625-.242187-1.511718-.585938-3.292969-1.183594-6.28125-1.78125-9.234376.796875-.285156 1.542968-.691406 2.21875-1.203124 2.761718-2.078126 3.996094-5.621094 3.121094-8.96875-2.417969-8.125-6.519532-15.652344-12.039063-22.089844-.273437-.34375-.597656-.617188-.851563-.949219 48.324219-64.953125 40.300782-152.308594 30.871094-199.371094zm-48.859375 205.03125c1.976563 1.863281 3.828125 3.859375 5.535157 5.972657.667968.851562 1.308593 1.636718 1.894531 2.449218-.851563.058594-1.707031.144532-2.472657.222656-7.082031.703126-14.054687 2.226563-20.789062 4.53125-3.265625 1.148438-6.410156 2.621094-9.386719 4.394532-.46875-1.339844-.902343-2.734375-1.355469-4.15625-.949218-3.25-2.105468-6.433594-3.464843-9.53125-2.351563-5.144532-5.347657-9.96875-8.917969-14.355469-1.464844-1.773437-3.085938-3.414063-4.839844-4.90625 16.167969-1.707031 32.246094 3.941406 43.796875 15.378906zm-23.09375-70.042969-.5625 1.398438c-.246093.546875-.777343 1.484375-1.398437 2.621094-4.652344 8.53125-7.203125 13.542968-5.53125 18.378906 1.355468 4.226562 2.453125 8.53125 3.285156 12.886719.195312.945312.402344 1.917969.613281 2.894531-9.726562-1.882812-19.777343-1.152344-29.132812 2.113281-2.410157.792969-4.601563 2.140625-6.390625 3.945313-4.421875 4.824218-4.265625 12.273437.351562 16.910156 1.699219 1.863281 3.523438 3.601562 5.46875 5.207031l6.136719-5.972656-5.582031 6.457031c1.304687 1.0625 2.515625 2.238282 3.617187 3.507813.070313.085937.128907.1875.199219.28125-.460938.269531-.890625.582031-1.28125.941406-1.46875 1.597656-3.074219 3.066406-4.796875 4.382813l-1.636719 1.246093c-1.980468 1.65625-4.132812 3.085938-6.425781 4.269531-.941406.503907-2.035156.628907-3.0625.347657-.675781-.453125-1.253906-1.03125-1.707031-1.707031-3.925782-6.132813-6.6875-12.933594-8.140625-20.070313l-.632813-2.242187c-2.269531-8.203126-3.960937-16.855469-5.597656-25.234376l-.300781-1.519531c14.054687-23.683593 22.082031-50.457031 23.375-77.96875 5.125 1.890625 10.546875 2.859375 16.007812 2.859375 1.007813 0 1.886719-.078125 2.800781-.128906 3.367188 12.90625 14.292969 22.433594 27.535157 24.015625-2.027344 6.855469-4.433594 13.589844-7.210938 20.179687zm-4.359375-89.675781c.019532-6.925781 4.65625-12.984375 11.332032-14.816406 5.222656 22.125 6.339843 45.023437 3.300781 67.550781-8.183594-.417968-14.613281-7.164062-14.632813-15.359375zm-18.773437 11.511719c.605469 0 1.101562-.0625 1.707031-.078125v17.066406c-6.066406.3125-12.078125-1.296875-17.179688-4.597656-.078124-5.195313-.335937-10.316406-.773437-15.363281 5.1875 1.96875 10.695313 2.972656 16.246094 2.972656zm-33.042969-136.722656c-11.476562 15.308594-21.335938 31.769531-29.414062 49.117187-.46875 1.023438-.730469 2.128907-.765626 3.25.03125.578125.121094 1.152344.273438 1.707031.058594 1.664063.777344 3.238282 1.996094 4.371094.984375 1.042969 1.914062 2.140625 2.78125 3.285156 16.128906 21.121094 25.746094 54.996094 25.746094 90.699219 0 54.75-22.699219 101.632813-51.203126 109.613281v-76.332031c19.886719-4.039062 34.179688-21.523437 34.179688-41.8125 0-20.292969-14.292969-37.777343-34.179688-41.8125v-145.066406c18.859376 3.488281 36.753907 18.769531 50.585938 42.980469zm-59.117188 118.296875c14.136719 0 25.601563 11.460937 25.601563 25.601562 0 14.136719-11.464844 25.597657-25.601563 25.597657-14.140624 0-25.601562-11.460938-25.601562-25.597657 0-14.140625 11.460938-25.601562 25.601562-25.601562zm-33.953124-56.582031c.851562-1.121094 1.765624-2.195313 2.730468-3.21875 1.21875-1.132813 1.9375-2.707032 1.996094-4.367188.148438-.558594.242188-1.132812.273438-1.707031-.039063-1.125-.300782-2.230469-.769532-3.253907-8.078125-17.34375-17.933594-33.804687-29.414062-49.117187 13.851562-24.261719 31.746094-39.542969 50.601562-43.03125v145.066406c-19.882812 4.035157-34.175781 21.519531-34.175781 41.8125 0 20.289063 14.292969 37.773438 34.175781 41.8125v76.339844c-28.5-7.988281-51.199218-54.871094-51.199218-109.621094 0-35.703125 9.617187-69.578125 25.78125-90.714843zm-111.863282 231.660156c.597656-.851563 1.226563-1.621094 1.894532-2.457032 1.710937-2.109374 3.558593-4.105468 5.535156-5.972656 11.558594-11.359375 27.585937-16.960937 43.699218-15.273437-1.714843 1.472656-3.300781 3.09375-4.742187 4.835937-3.558594 4.382813-6.542969 9.203125-8.882813 14.335938-1.359374 3.09375-2.519531 6.269531-3.472656 9.507812-.453125 1.425782-.855468 2.816406-1.359375 4.15625-2.988281-1.773437-6.148437-3.25-9.429687-4.402344-6.730469-2.300781-13.707032-3.820312-20.785156-4.523437-.769532-.0625-1.597657-.144531-2.457032-.207031zm57.683594-18.105469 6.136719 5.972656c1.941406-1.601562 3.765625-3.339843 5.460937-5.199219 4.625-4.640624 4.777344-12.097656.347656-16.929687-1.789062-1.800781-3.984374-3.152344-6.398437-3.941406-9.347656-3.265625-19.394531-3.992188-29.117187-2.105469.214843-.976562.417968-1.949219.617187-2.894531.824219-4.328125 1.910156-8.601563 3.25-12.800781 1.707031-4.949219-.851563-9.992188-5.496094-18.492188-.621093-1.132812-1.152343-2.074219-1.3125-2.414062l-.648437-1.605469c-2.792969-6.582031-5.21875-13.316407-7.261719-20.171875 13.242187-1.578125 24.167969-11.105469 27.535156-24.011719.914063.050781 1.792969.128906 2.800781.128906 5.460938-.003906 10.882813-.96875 16.007813-2.859375 1.292969 27.511719 9.316406 54.28125 23.371094 77.96875l-.296875 1.519532c-1.640625 8.378906-3.328125 17.066406-5.597656 25.207031l-.632813 2.269531c-1.460937 7.15625-4.234375 13.976562-8.183594 20.121094-.460937.746094-1.109375 1.355468-1.886719 1.765625-.929687.15625-1.882812.007812-2.71875-.425781-2.324218-1.1875-4.503906-2.632813-6.503906-4.308594l-1.597656-1.210938c-1.738281-1.332031-3.355469-2.808594-4.835938-4.421875-.394531-.355469-.824218-.671875-1.28125-.9375.078126-.09375.128907-.195312.195313-.28125 1.101563-1.273437 2.3125-2.445312 3.621094-3.507812zm-4.027344-138.546875c5.5625.003906 11.078125-1 16.28125-2.972656-.433594 5.058594-.691406 10.179687-.777344 15.363281-5.097656 3.304687-11.109374 4.917969-17.175781 4.605469v-17.066406c.535157.007812 1.03125.070312 1.671875.070312zm-18.773437-11.511719v37.375c-.019531 8.195313-6.449219 14.941407-14.632813 15.359375-3.035156-22.527344-1.917968-45.421875 3.300782-67.550781 6.675781 1.832031 11.3125 7.890625 11.332031 14.816406zm-59.578125-41.898437c3.320312-17.425782 8.242187-34.507813 14.703125-51.03125.851562-2.175782 4.339843-12.238282 7.261719-20.683594l10.308593 6.175781 18.175781 32.71875c-6.652343 15.347657-12.15625 31.164063-16.472656 47.324219-.109375.257812-.125.546875-.210937.855469-8.414063 30.402343-9.773438 62.320312-3.984375 93.328125 2.261718 10.058594 5.488281 19.878906 9.632812 29.320312l.699219 1.707032c.316406.742187 1.109375 2.261718 2.117187 4.105468.851563 1.601563 2.730469 4.972656 3.609376 6.996094-1.460938 4.761719-2.289063 8.730469-3.089844 12.585938-.847656 4.390624-1.988282 8.71875-3.414063 12.953124-4.460937 2.160157-8.707031 4.730469-12.6875 7.679688-43.015625-59.519531-35.421875-140.285156-26.648437-184.035156zm38.65625 315.28125-11.214844 35.4375h-14.351562c.117187-14.855469.585937-29.464844 1.398437-44.621094.023437-.40625.023437-.8125 0-1.21875.9375-15.019531 2.226563-29.015625 3.824219-41.703125.058594-.351563.09375-.703125.101562-1.058594.980469-7.535156 2.039063-14.183593 3.097656-20.054687 0-.238282.074219-.484375.101563-.722656.9375-5.25 1.878906-9.941407 2.800781-14.148438.3125 0 .5625 0 .851563.066406 5.757812.558594 11.433593 1.777344 16.914062 3.636719.691407.238281 1.304688.546875 1.953125.851563-3.832031 27.667968-5.664062 55.578124-5.476562 83.507812zm63.589844-66.960938c-13.15625.824219-25.425782-6.652344-30.722657-18.722656 1.347657-3.054688 2.503907-6.191406 3.457031-9.386719.265626-.855469.546876-1.707031.855469-2.5625 1.320313 1.246094 2.703125 2.425781 4.144531 3.535157l1.496094 1.132812c3.125 2.585938 6.566406 4.765625 10.238282 6.488281 2.816406 1.199219 5.84375 1.835938 8.910156 1.867188 2.515625.023437 5.007812-.496094 7.304687-1.527344 3.425781-1.539063 6.386719-3.957031 8.582031-7.007813 5.359376-7.847656 9.125-16.667968 11.09375-25.964843l.613282-2.234375c1.296875-4.667969 2.390625-9.386719 3.414062-14.066406 5.453125 5.347656 11.808594 9.679687 18.773438 12.800781-.1875.625-.28125 1.167969-.484375 1.800781-1.203125 3.703125-2.5625 7.679688-4.269531 11.691406-5.367188 12.707032-20.144532 42.15625-43.40625 42.15625zm71.421874 76.796875h-6.3125c-1.972656-6.117187-5.378906-22.117187-5.378906-59.730469v-54.308593c.753906-1.859375 1.488282-3.71875 2.101563-5.425781h12.867187c.613282 1.707031 1.347656 3.566406 2.097656 5.425781v54.308593c0 37.613282-3.410156 53.613282-5.375 59.730469zm65.109376-76.796875c-23.261719 0-38.039063-29.449218-43.332032-42.132812-1.707031-4.027344-3.054687-7.976563-4.265625-11.628906-.207031-.664063-.308593-1.210938-.503906-1.859376 6.96875-3.121093 13.324219-7.453124 18.773437-12.800781 1.007813 4.691407 2.097657 9.386719 3.414063 14.089844l.613281 2.207031c1.960938 9.273438 5.714844 18.074219 11.050782 25.910156 2.136718 3.003907 5.019531 5.398438 8.363281 6.945313 2.394531 1.085937 4.996093 1.640625 7.628906 1.621094 3.074219-.03125 6.109375-.667969 8.933594-1.878907 3.640625-1.714843 7.054687-3.882812 10.15625-6.449218l1.535156-1.167969c1.425781-1.097656 2.796875-2.265625 4.105469-3.5.273437.851563.554687 1.707031.851562 2.558594.960938 3.199219 2.117188 6.332031 3.464844 9.386719-5.3125 12.085937-17.617188 19.558593-30.789062 18.699218zm74.804687 102.398438-11.214844-35.414063c.175781-27.972656-1.671875-55.921875-5.527343-83.625.648437-.273437 1.253906-.574219 1.9375-.855469 5.484374-1.855468 11.164062-3.074218 16.929687-3.632812.304687 0 .554687 0 .851563-.0625.941406 4.269531 1.886718 8.875 2.824218 14.140625 0 .238281.0625.488281.105469.726563 1.054687 5.871093 2.121094 12.519531 3.097656 20.042968.011719.359375.042969.714844.101563 1.066406 1.601562 12.578126 2.882812 26.453126 3.8125 41.371094-.042969.640625-.042969 1.28125 0 1.917969.855468 14.917969 1.273437 29.476563 1.398437 44.253906zm.851563-166.699219c-3.980469-2.949219-8.234376-5.523437-12.695313-7.679687-1.425781-4.234376-2.566406-8.558594-3.414063-12.945313-.800781-3.832031-1.621093-7.78125-3.089843-12.578125.855469-2.03125 2.722656-5.394531 3.609375-7.003906 1.007812-1.84375 1.800781-3.363282 2.175781-4.269532l.640625-1.59375c4.15625-9.460937 7.382812-19.300781 9.644531-29.382812 5.785157-30.996094 4.417969-62.90625-4.003906-93.292969-.070313-.261719-.15625-.515625-.257813-.769531-4.324218-16.160156-9.847656-31.972656-16.519531-47.316406l18.226563-32.726563 10.335937-6.203125c2.96875 8.59375 6.46875 18.636719 7.3125 20.8125 6.421875 16.492188 11.320313 33.539063 14.625 50.929688 8.765625 43.699218 16.367188 124.347656-26.597656 184.019531zm0 0"/></svg>