<svg height="503pt" viewBox="-58 0 503 503.9303" width="503pt" xmlns="http://www.w3.org/2000/svg"><path d="m153.914062 81.183594v.085937h-130.769531v-.085937c.335938-1.59375.839844-3.105469 1.257813-4.613282.125-.296874.207031-.609374.253906-.925781 7.660156-23.175781 27.296875-40.371093 51.28125-44.902343 4.144531-.84375 8.363281-1.265626 12.59375-1.261719 29.363281.003906 55.332031 19.070312 64.125 47.089843.417969 1.507813.921875 3.019532 1.257812 4.613282zm0 0" fill="#37474f"/><path d="m170.03125 235.121094h4.195312v58.753906h-4.195312c-16.226562 0-29.378906-13.152344-29.378906-29.378906 0-16.222656 13.152344-29.375 29.378906-29.375zm0 0" fill="#283593"/><path d="m114.96875 166.292969c0 13.910156-11.273438 25.183593-25.179688 25.183593-3.628906.007813-7.214843-.796874-10.492187-2.351562-8.945313-4.074219-14.6875-13-14.6875-22.832031 0-9.828125 5.742187-18.753907 14.6875-22.828125 3.277344-1.554688 6.863281-2.359375 10.492187-2.351563 6.675782 0 13.082032 2.652344 17.804688 7.375 4.722656 4.722657 7.375 11.128907 7.375 17.804688zm0 0" fill="#283593"/><path d="m93.984375 166.292969c.023437 9.839843-5.726563 18.773437-14.6875 22.832031-8.945313-4.074219-14.6875-13-14.6875-22.832031 0-9.828125 5.742187-18.753907 14.6875-22.828125 8.960937 4.058594 14.710937 12.992187 14.6875 22.828125zm0 0" fill="#3f51b5"/><path d="m164.070312 92.433594c-.019531 4.445312-1.800781 8.699218-4.953124 11.832031-3.109376 3.191406-7.378907 4.976563-11.832032 4.953125h-117.511718c-9.257813-.027344-16.757813-7.527344-16.785157-16.785156.011719-4.136719 1.566407-8.117188 4.363281-11.164063.171876-.246093.371094-.46875.589844-.671875 1.78125-1.867187 4.003906-3.25 6.460938-4.027344 1.726562-.605468 3.542968-.917968 5.371094-.925781h117.511718c1.828125.007813 3.644532.320313 5.371094.925781 6.808594 2.296876 11.398438 8.675782 11.414062 15.863282zm0 0" fill="#37474f"/><path d="m128.734375 81.183594v.085937h-111.382813c.171876-.246093.371094-.46875.589844-.671875 1.78125-1.867187 4.003906-3.25 6.460938-4.027344.125-.296874.207031-.609374.253906-.925781 7.660156-23.175781 27.296875-40.371093 51.28125-44.902343 23.988281 4.53125 43.625 21.726562 51.285156 44.902343.046875.316407.128906.628907.253906.925781.417969 1.507813.921876 3.019532 1.257813 4.613282zm0 0" fill="#9e9e9e"/><path d="m138.890625 92.433594c-.019531 4.445312-1.800781 8.699218-4.953125 11.832031-3.109375 3.191406-7.382812 4.976563-11.835938 4.953125h-92.328124c-9.257813-.027344-16.757813-7.527344-16.785157-16.785156.011719-4.136719 1.566407-8.117188 4.363281-11.164063.171876-.246093.371094-.46875.589844-.671875 1.78125-1.867187 4.003906-3.25 6.460938-4.027344.125-.296874.207031-.609374.253906-.925781h97.445312c1.832032.007813 3.648438.320313 5.375.925781 2.734376.886719 5.175782 2.511719 7.050782 4.699219 2.796875 3.046875 4.351562 7.027344 4.363281 11.164063zm0 0" fill="#607d8b"/><path d="m333.703125 235.121094h4.195313c16.222656 0 29.378906 13.152344 29.378906 29.375 0 16.226562-13.15625 29.378906-29.378906 29.378906h-4.195313zm0 0" fill="#283593"/><path d="m237.175781 361.023438h33.574219v58.753906h-33.574219zm0 0" fill="#283593"/><path d="m280.824219 478.53125h46.046875c.632812.035156 1.269531-.039062 1.878906-.210938l9.148438-41.757812h-176.261719l9.140625 41.757812c.605468.171876 1.238281.242188 1.871094.210938zm0 0" fill="#37474f"/><path d="m337.898438 167.972656c-.070313 9.242188-7.542969 16.71875-16.785157 16.789063h-134.296875c-4.0625.03125-7.988281-1.46875-10.996094-4.199219-3.675781-3.148438-5.789062-7.75-5.789062-12.589844-.027344-26.402344 12.421875-51.261718 33.570312-67.0625v-.085937h100.722657v.085937c3.183593 2.34375 6.183593 4.925782 8.980469 7.722656 15.765624 15.71875 24.617187 37.074219 24.59375 59.339844zm0 0" fill="#1566c0"/><path d="m321.113281 163.777344c-.070312 9.242187-7.546875 16.71875-16.789062 16.785156h-128.503907c-3.675781-3.148438-5.789062-7.75-5.789062-12.589844-.027344-26.402344 12.421875-51.261718 33.570312-67.0625v-.085937h88.972657c1.375 1.136719 2.691406 2.339843 3.945312 3.609375 15.765625 15.722656 24.617188 37.078125 24.59375 59.34375zm0 0" fill="#2296f3"/><path d="m270.75 25.285156c0 9.269532-7.515625 16.785156-16.785156 16.785156-9.273438 0-16.789063-7.515624-16.789063-16.785156 0-9.273437 7.515625-16.789062 16.789063-16.789062 9.269531 0 16.785156 7.515625 16.785156 16.789062zm0 0" fill="#ffeb3a"/><path d="m364.503906 444.957031h-224.605468c-2.925782.019531-5.648438-1.484375-7.191407-3.96875s-1.679687-5.589843-.363281-8.203125l8.394531-16.785156c1.433594-2.851562 4.363281-4.640625 7.550781-4.617188h207.824219c3.191407-.023437 6.117188 1.765626 7.554688 4.617188l8.390625 16.785156c1.316406 2.613282 1.179687 5.71875-.363282 8.203125-1.542968 2.484375-4.265624 3.988281-7.191406 3.96875zm0 0" fill="#283593"/><path d="m343.523438 444.957031h-203.625c-2.925782.019531-5.648438-1.484375-7.191407-3.96875s-1.679687-5.589843-.363281-8.203125l8.394531-16.785156c1.433594-2.851562 4.363281-4.640625 7.550781-4.617188h186.839844c3.191406-.023437 6.117188 1.765626 7.554688 4.617188l8.394531 16.785156c1.3125 2.613282 1.175781 5.71875-.367187 8.203125-1.539063 2.484375-4.265626 3.988281-7.1875 3.96875zm0 0" fill="#3f51b5"/><g fill="#37474f"><path d="m193.449219 470.136719c0 13.90625-11.277344 25.179687-25.183594 25.179687-3.628906.007813-7.210937-.792968-10.492187-2.347656-8.945313-4.078125-14.683594-13-14.683594-22.832031 0-9.828125 5.738281-18.753907 14.683594-22.828125 3.28125-1.558594 6.863281-2.359375 10.492187-2.351563 13.90625 0 25.183594 11.273438 25.183594 25.179688zm0 0"/><path d="m277.382812 470.136719c0 13.90625-11.273437 25.179687-25.179687 25.179687-3.628906.007813-7.214844-.792968-10.492187-2.347656-8.945313-4.078125-14.6875-13-14.6875-22.832031 0-9.828125 5.742187-18.753907 14.6875-22.828125 3.277343-1.558594 6.863281-2.359375 10.492187-2.351563 13.90625 0 25.179687 11.273438 25.179687 25.179688zm0 0"/><path d="m361.316406 470.136719c0 13.90625-11.273437 25.179687-25.179687 25.179687-3.628907.007813-7.214844-.792968-10.492188-2.347656-8.945312-4.078125-14.6875-13-14.6875-22.832031 0-9.828125 5.742188-18.753907 14.6875-22.828125 3.277344-1.558594 6.863281-2.359375 10.492188-2.351563 13.90625 0 25.179687 11.273438 25.179687 25.179688zm0 0"/></g><path d="m172.464844 470.136719c.019531 9.835937-5.730469 18.773437-14.691406 22.832031-8.945313-4.078125-14.683594-13-14.683594-22.832031 0-9.828125 5.738281-18.753907 14.683594-22.828125 8.960937 4.054687 14.710937 12.992187 14.691406 22.828125zm0 0" fill="#607d8b"/><path d="m256.398438 470.136719c.019531 9.835937-5.726563 18.773437-14.6875 22.832031-8.945313-4.078125-14.6875-13-14.6875-22.832031 0-9.828125 5.742187-18.753907 14.6875-22.828125 8.960937 4.054687 14.707031 12.992187 14.6875 22.828125zm0 0" fill="#607d8b"/><path d="m340.332031 470.136719c.019531 9.835937-5.726562 18.773437-14.6875 22.832031-8.945312-4.078125-14.6875-13-14.6875-22.832031 0-9.828125 5.742188-18.753907 14.6875-22.828125 8.960938 4.054687 14.707031 12.992187 14.6875 22.828125zm0 0" fill="#607d8b"/><path d="m337.898438 235.121094v93.753906c0 4.472656-1.785157 8.761719-4.953126 11.917969l-23.667968 23.671875c-3.15625 3.167968-7.445313 4.949218-11.917969 4.949218h-86.789063c-4.472656 0-8.761718-1.78125-11.917968-4.949218l-23.671875-23.671875c-3.167969-3.15625-4.949219-7.445313-4.949219-11.917969v-93.753906c.027344-9.261719 7.527344-16.757813 16.785156-16.789063h134.296875c9.257813.03125 16.757813 7.527344 16.785157 16.789063zm0 0" fill="#1566c0"/><path d="m321.113281 226.726562v93.753907c-.003906 4.472656-1.785156 8.761719-4.953125 11.921875l-23.671875 23.667968c-3.15625 3.167969-7.445312 4.949219-11.917969 4.953126h-85.359374l-20.230469-20.230469c-3.167969-3.15625-4.949219-7.445313-4.949219-11.917969v-93.753906c.027344-9.261719 7.527344-16.757813 16.785156-16.789063h132.027344c1.480469 2.550781 2.261719 5.445313 2.269531 8.394531zm0 0" fill="#2296f3"/><path d="m295.929688 302.269531v67.144531h-83.933594v-67.144531c.027344-9.261719 7.527344-16.761719 16.789062-16.789062h50.359375c9.257813.027343 16.757813 7.527343 16.785157 16.789062zm0 0" fill="#283593"/><path d="m279.144531 302.269531v67.144531h-62.949219v-67.144531c.027344-9.261719 7.527344-16.761719 16.785157-16.789062h29.378906c9.257813.027343 16.757813 7.527343 16.785156 16.789062zm0 0" fill="#3f51b5"/><path d="m304.324219 100.824219c.011719 8.910156-3.523438 17.457031-9.820313 23.753906-6.300781 6.296875-14.84375 9.832031-23.753906 9.820313h-33.574219c-18.539062 0-33.574219-15.03125-33.574219-33.574219 0-18.539063 15.035157-33.574219 33.574219-33.574219h33.574219c18.542969 0 33.574219 15.035156 33.574219 33.574219zm0 0" fill="#9e9e9e"/><path d="m287.539062 100.824219c.011719 8.910156-3.523437 17.457031-9.824218 23.753906-6.296875 6.296875-14.84375 9.832031-23.75 9.820313h-16.789063c-18.539062 0-33.574219-15.03125-33.574219-33.574219 0-18.539063 15.035157-33.574219 33.574219-33.574219h16.789063c18.542968 0 33.574218 15.035156 33.574218 33.574219zm0 0" fill="#f5f5f5"/><path d="m279.144531 100.824219c0 4.636719-3.757812 8.394531-8.394531 8.394531-4.632812 0-8.390625-3.757812-8.390625-8.394531 0-4.632813 3.757813-8.390625 8.390625-8.390625 4.636719 0 8.394531 3.757812 8.394531 8.390625zm0 0" fill="#464f5d"/><path d="m211.996094 251.90625c0 4.636719-3.757813 8.394531-8.394532 8.394531-4.632812 0-8.390624-3.757812-8.390624-8.394531 0-4.632812 3.757812-8.390625 8.390624-8.390625 4.636719 0 8.394532 3.757813 8.394532 8.390625zm0 0" fill="#c03a2b"/><path d="m245.570312 251.90625c0 4.636719-3.757812 8.394531-8.394531 8.394531-4.632812 0-8.390625-3.757812-8.390625-8.394531 0-4.632812 3.757813-8.390625 8.390625-8.390625 4.636719 0 8.394531 3.757813 8.394531 8.390625zm0 0" fill="#f0c419"/><path d="m279.144531 100.824219c0 4.636719-3.757812 8.394531-8.394531 8.394531-4.632812 0-8.390625-3.757812-8.390625-8.394531 0-4.632813 3.757813-8.390625 8.390625-8.390625 4.636719 0 8.394531 3.757812 8.394531 8.390625zm0 0"/><path d="m92.726562 8.496094c0 4.636718-3.757812 8.394531-8.394531 8.394531s-8.394531-3.757813-8.394531-8.394531c0-4.632813 3.757812-8.390625 8.394531-8.390625s8.394531 3.757812 8.394531 8.390625zm0 0"/><path d="m211.996094 251.90625c0 4.636719-3.757813 8.394531-8.394532 8.394531-4.632812 0-8.390624-3.757812-8.390624-8.394531 0-4.632812 3.757812-8.390625 8.390624-8.390625 4.636719 0 8.394532 3.757813 8.394532 8.390625zm0 0"/><path d="m245.570312 251.90625c0 4.636719-3.757812 8.394531-8.394531 8.394531-4.632812 0-8.390625-3.757812-8.390625-8.394531 0-4.632812 3.757813-8.390625 8.390625-8.390625 4.636719 0 8.394531 3.757813 8.394531 8.390625zm0 0"/><path d="m237.175781 58.859375c-21.484375.066406-39.4375 16.386719-41.546875 37.769531-21.570312 17.390625-34.078125 43.636719-33.992187 71.34375 0 13.90625 11.273437 25.179688 25.179687 25.179688h134.296875c13.90625 0 25.179688-11.273438 25.179688-25.179688.058593-24.496094-9.679688-48-27.054688-65.273437-2.203125-2.136719-4.519531-4.148438-6.941406-6.035157-2.09375-21.398437-20.046875-37.734374-41.546875-37.804687h-8.390625v-9.9375c11.558594-4.089844 18.496094-15.914063 16.421875-28s-12.554688-20.921875-24.816406-20.921875c-12.265625 0-22.746094 8.835938-24.820313 20.921875-2.070312 12.085937 4.863281 23.910156 16.425781 28v9.9375zm92.328125 109.113281c0 4.636719-3.757812 8.394532-8.390625 8.394532h-134.296875c-4.636718 0-8.394531-3.757813-8.394531-8.394532-.039063-18.933594 7.117187-37.171875 20.027344-51.023437 6.523437 15.632812 21.789062 25.820312 38.726562 25.84375h33.574219c16.957031-.011719 32.242188-10.230469 38.738281-25.894531 12.886719 13.882812 20.039063 32.132812 20.015625 51.074218zm-33.574218-67.148437c0 13.90625-11.273438 25.183593-25.179688 25.183593h-33.574219c-13.90625 0-25.179687-11.277343-25.179687-25.183593s11.273437-25.179688 25.179687-25.179688h33.574219c13.90625 0 25.179688 11.273438 25.179688 25.179688zm-41.964844-83.933594c4.636718 0 8.394531 3.757813 8.394531 8.394531 0 4.636719-3.757813 8.394532-8.394531 8.394532-4.636719 0-8.394532-3.757813-8.394532-8.394532 0-4.636718 3.757813-8.394531 8.394532-8.394531zm0 0"/><path d="m156.859375 71.398438c-9.390625-32.246094-38.941406-54.417969-72.527344-54.417969-33.585937 0-63.136719 22.171875-72.527343 54.417969-9.28125 6.109374-13.460938 17.578124-10.289063 28.226562 3.175781 10.648438 12.953125 17.957031 24.0625 17.988281h18.257813c.203124 1.054688.609374 2.066407 1.191406 2.96875l15.609375 23.453125c-8.085938 8.929688-10.730469 21.527344-6.917969 32.957032 3.8125 11.429687 13.488281 19.914062 25.316406 22.203124l5.734375 104.019532c.546875 8.882812 7.890625 15.816406 16.785157 15.855468 3.273437.003907 6.472656-.96875 9.191406-2.785156l32.996094-21.261718c5.269531 3.789062 11.4375 6.136718 17.894531 6.816406v27.042968c-.015625 6.683594 2.640625 13.097657 7.378906 17.8125l23.734375 23.734376c4.710938 4.742187 11.121094 7.398437 17.804688 7.378906h18.230468v25.179687h-80.511718c-6.355469-.03125-12.175782 3.550781-15.015626 9.234375l-8.394531 16.785156c-2.574219 5.121094-2.347656 11.203126.597657 16.117188 2.945312 4.917969 8.203124 7.980469 13.933593 8.125-3.054687 5.105469-4.675781 10.9375-4.703125 16.886719-.050781 15.179687 10.121094 28.496093 24.785156 32.433593 14.660157 3.941407 30.132813-2.484374 37.699219-15.644531h26.117188c5.921875 10.378907 16.957031 16.789063 28.910156 16.789063 11.949219 0 22.984375-6.410156 28.90625-16.789063h26.121094c5.917969 10.496094 17.03125 16.992188 29.082031 17.003907 12.054688.011718 23.179688-6.464844 29.121094-16.949219s5.777344-23.355469-.425782-33.6875c5.730469-.148438 10.984376-3.214844 13.929688-8.128907 2.945312-4.914062 3.171875-10.992187.601562-16.113281l-8.394531-16.785156c-2.828125-5.703125-8.652343-9.300781-15.015625-9.277344h-76.984375v-25.179687h18.230469c6.683594.019531 13.09375-2.636719 17.800781-7.378906l23.738281-23.734376c2.71875-2.761718 4.761719-6.113281 5.96875-9.796874l27.546876-1.492188c6.023437-.335938 11.40625-3.882812 14.09375-9.285156 2.6875-5.40625 2.265624-11.835938-1.101563-16.84375l-14.101563-21.152344c8.941407-10.839844 11.050782-25.777344 5.460938-38.667969-5.585938-12.890625-17.925781-21.5625-31.949219-22.453125-3.460937-10.164062-12.984375-17.015625-23.71875-17.0625h-134.296875c-10.734375.046875-20.257812 6.898438-23.71875 17.0625-19.695312 1.394532-34.980468 17.75-35.035156 37.492188.042969 6.082031 1.570312 12.054687 4.449219 17.410156l-2.03125 1.183594c-.90625.527344-1.707031 1.21875-2.359375 2.039062l-26.597656 17.097656-5.734376-104.078124c10.839844-3.371094 19.210938-12.042969 22.195313-22.992188 2.988281-10.953125.179687-22.671875-7.449219-31.078125l15.605469-23.453125c.59375-.914062 1-1.9375 1.199219-3.011719h15.746094c11.113281-.03125 20.890624-7.339843 24.0625-17.988281 3.175781-10.648438-1.007813-22.117188-10.289063-28.226562zm11.40625 415.527343c-9.269531 0-16.785156-7.515625-16.785156-16.789062 0-9.269531 7.515625-16.785157 16.785156-16.785157 9.273437 0 16.789063 7.515626 16.789063 16.785157 0 9.273437-7.515626 16.789062-16.789063 16.789062zm33.574219-16.789062c-.035156-5.910157-1.644532-11.707031-4.664063-16.785157h26.117188c-3.019531 5.078126-4.628907 10.875-4.664063 16.785157zm50.363281 16.789062c-9.273437 0-16.789063-7.515625-16.789063-16.789062 0-9.269531 7.515626-16.785157 16.789063-16.785157 9.269531 0 16.785156 7.515626 16.785156 16.785157 0 9.273437-7.515625 16.789062-16.785156 16.789062zm33.570313-16.789062c-.03125-5.910157-1.644532-11.707031-4.664063-16.785157h26.121094c-3.023438 5.078126-4.632813 10.875-4.667969 16.785157zm50.363281 16.789062c-9.273438 0-16.789063-7.515625-16.789063-16.789062 0-9.269531 7.515625-16.785157 16.789063-16.785157 9.269531 0 16.785156 7.515626 16.785156 16.785157 0 9.273437-7.515625 16.789062-16.785156 16.789062zm28.429687-50.363281h-224.6875l8.394532-16.785156h207.855468zm-102.207031-33.574219h-16.789063v-25.179687h16.789063zm8.390625-41.964843h-50.359375v-58.753907c0-4.636719 3.757813-8.394531 8.394531-8.394531h50.359375c4.636719 0 8.394531 3.757812 8.394531 8.394531v58.753907zm75.542969-41.011719v-18.171875c4.085937-.429688 8.078125-1.53125 11.808593-3.257813l13.371094 20.070313zm16.785156-55.515625c.003906 9.972656-7.015625 18.570312-16.785156 20.566406v-41.128906c9.769531 1.996094 16.789062 10.589844 16.785156 20.5625zm-176.261719-37.769532h134.296875c4.632813 0 8.390625 3.757813 8.390625 8.394532v93.761718c.003906 2.230469-.882812 4.367188-2.457031 5.945313l-22.722656 22.71875v-55.277344c0-13.90625-11.273438-25.179687-25.179688-25.179687h-50.359375c-13.90625 0-25.183594 11.273437-25.183594 25.179687v55.277344l-22.71875-22.71875c-1.578124-1.578125-2.460937-3.714844-2.460937-5.945313v-93.761718c0-4.636719 3.757813-8.394532 8.394531-8.394532zm-25.179687 17.207032v41.128906c-9.78125-1.988281-16.808594-10.585938-16.808594-20.566406 0-9.976563 7.027344-18.578125 16.808594-20.5625zm-77.304688-210.253906c22.691407-.054688 43.363281 13.035156 53.011719 33.570312h-106.007812c9.644531-20.53125 30.308593-33.625 52.996093-33.570312zm1.25 149.402343c-9.269531 0-16.785156-7.515625-16.785156-16.789062 0-9.269531 7.515625-16.785157 16.785156-16.785157 9.273438 0 16.789063 7.515626 16.789063 16.785157 0 9.273437-7.515625 16.789062-16.789063 16.789062zm10.996094-48.355469c-7.082031-2.675781-14.898437-2.675781-21.980469 0l-11.382812-17.113281h44.746094zm46.507813-33.902343h-117.507813c-4.636719 0-8.394531-3.757813-8.394531-8.390625 0-4.636719 3.757812-8.394532 8.394531-8.394532h117.507813c4.636718 0 8.394531 3.757813 8.394531 8.394532 0 4.632812-3.757813 8.390625-8.394531 8.390625zm0 0"/><path d="m270.75 260.300781h33.574219c4.636719 0 8.394531-3.757812 8.394531-8.394531 0-4.632812-3.757812-8.390625-8.394531-8.390625h-33.574219c-4.632812 0-8.390625 3.757813-8.390625 8.390625 0 4.636719 3.757813 8.394531 8.390625 8.394531zm0 0"/><path d="m262.359375 319.054688h-16.789063c-4.636718 0-8.394531 3.757812-8.394531 8.394531s3.757813 8.394531 8.394531 8.394531h16.789063c4.632813 0 8.390625-3.757812 8.390625-8.394531s-3.757812-8.394531-8.390625-8.394531zm0 0"/></svg>