<svg height="504pt" viewBox="-62 0 504 504.58621" width="504pt" xmlns="http://www.w3.org/2000/svg"><path d="m164.980469 193.976562h50.359375v125.902344h-50.359375zm0 0" fill="#37474f"/><path d="m160.785156 193.976562h33.574219v125.902344h-33.574219zm0 0" fill="#607d8b"/><path d="m123.011719 51.289062c0 23.179688-18.789063 41.96875-41.964844 41.96875-3.542969.023438-7.070313-.429687-10.492187-1.34375-18.511719-4.796874-31.4375-21.503906-31.4375-40.625 0-19.121093 12.925781-35.824218 31.4375-40.625 3.421874-.914062 6.949218-1.367187 10.492187-1.339843 23.175781 0 41.964844 18.789062 41.964844 41.964843zm0 0" fill="#b2b2b2"/><path d="m341.242188 51.289062c0 11.132813-4.421876 21.804688-12.292969 29.675782-7.867188 7.871094-18.542969 12.292968-29.671875 12.292968-3.542969.023438-7.070313-.429687-10.492188-1.34375-18.511718-4.796874-31.4375-21.503906-31.4375-40.625 0-19.121093 12.925782-35.824218 31.4375-40.625 3.421875-.914062 6.949219-1.367187 10.492188-1.339843 11.128906 0 21.804687 4.421875 29.671875 12.289062 7.871093 7.871094 12.292969 18.546875 12.292969 29.675781zm0 0" fill="#b2b2b2"/><path d="m102.03125 51.289062c0-22.433593-14.09375-40.625-31.476562-40.625-17.382813 0-31.476563 18.191407-31.476563 40.625 0 22.4375 14.09375 40.625 31.476563 40.625 17.382812 0 31.476562-18.1875 31.476562-40.625zm0 0" fill="#f5f5f5"/><path d="m320.257812 51.289062c0-22.433593-14.089843-40.625-31.472656-40.625-17.382812 0-31.476562 18.191407-31.476562 40.625 0 22.4375 14.09375 40.625 31.476562 40.625 17.382813 0 31.472656-18.1875 31.472656-40.625zm0 0" fill="#f5f5f5"/><path d="m274.09375 181.386719c-.078125 16.195312-13.183594 29.300781-29.375 29.378906h-109.113281c-7.792969 0-15.265625-3.09375-20.773438-8.605469-5.511719-5.507812-8.605469-12.980468-8.605469-20.773437.078126-16.191407 13.183594-29.296875 29.378907-29.375h109.113281c16.222656 0 29.375 13.152343 29.375 29.375zm0 0" fill="#0377bc"/><path d="m257.308594 181.386719c-.078125 16.195312-13.183594 29.300781-29.378906 29.378906h-92.324219c-16.226563 0-29.378907-13.152344-29.378907-29.378906.078126-16.191407 13.183594-29.296875 29.378907-29.375h92.324219c16.226562 0 29.378906 13.152343 29.378906 29.375zm0 0" fill="#02a9f4"/><path d="m81.03125 51.289062c0 4.636719-3.757812 8.394532-8.394531 8.394532s-8.394531-3.757813-8.394531-8.394532c0-4.632812 3.757812-8.390624 8.394531-8.390624s8.394531 3.757812 8.394531 8.390624zm0 0" fill="#464f5d"/><path d="m316.046875 51.289062c0 4.636719-3.757813 8.394532-8.394531 8.394532-4.636719 0-8.394532-3.757813-8.394532-8.394532 0-4.632812 3.757813-8.390624 8.394532-8.390624 4.636718 0 8.394531 3.757812 8.394531 8.390624zm0 0" fill="#464f5d"/><path d="m206.949219 210.765625h33.574219v25.179687c0 9.273438-7.515626 16.789063-16.789063 16.789063-9.269531 0-16.785156-7.515625-16.785156-16.789063zm0 0" fill="#f5f5f5"/><path d="m139.800781 210.765625h33.574219v25.179687c0 9.273438-7.515625 16.789063-16.789062 16.789063-9.269532 0-16.785157-7.515625-16.785157-16.789063zm0 0" fill="#f5f5f5"/><path d="m257.308594 328.273438v41.96875c0 37.082031-30.0625 67.144531-67.148438 67.144531-4.222656-.003907-8.4375-.394531-12.589844-1.171875-31.664062-6.046875-54.566406-33.738282-54.558593-65.972656v-41.96875c0-4.636719 3.757812-8.394532 8.394531-8.394532h117.507812c4.636719 0 8.394532 3.757813 8.394532 8.394532zm0 0" fill="#1566c0"/><path d="m232.128906 328.273438v41.96875c.007813 32.234374-22.894531 59.925781-54.558594 65.972656-31.664062-6.046875-54.566406-33.738282-54.558593-65.972656v-41.96875c0-4.636719 3.757812-8.394532 8.394531-8.394532h92.328125c4.636719 0 8.394531 3.757813 8.394531 8.394532zm0 0" fill="#2296f3"/><path d="m223.734375 353.453125v16.789063c-.023437 18.53125-15.039063 33.550781-33.574219 33.574218-3.5625.007813-7.105468-.558594-10.492187-1.679687-13.773438-4.53125-23.082031-17.394531-23.082031-31.894531v-16.789063zm0 0" fill="#37474f"/><path d="m202.75 353.453125v16.789063c-.019531 14.492187-9.320312 27.34375-23.082031 31.894531-13.773438-4.53125-23.082031-17.394531-23.082031-31.894531v-16.789063zm0 0" fill="#607d8b"/><path d="m122.996094 339.015625-58.921875 39.617187 14.855469 46.25 47.929687-32.230468zm0 0" fill="#607d8b"/><path d="m72.652344 435.792969v35.167969c0 13.90625-11.273438 25.179687-25.179688 25.179687-2.867187.019531-5.710937-.492187-8.394531-1.507813-10.085937-3.480468-16.835937-13-16.785156-23.671874v-35.167969zm0 0" fill="#37474f"/><path d="m217.757812 431.429688c3.769532 3.835937 5.910157 8.976562 5.976563 14.351562 0 13.933594-15.023437 25.179688-33.574219 25.179688-18.546875 0-33.574218-11.246094-33.574218-25.179688.066406-5.371094 2.199218-10.515625 5.960937-14.351562zm0 0" fill="#424242"/><path d="m86.25 412.207031-19.390625 33.574219h-38.777344l-19.386719-33.574219 19.386719-33.574219h38.777344zm0 0" fill="#9e9e9e"/><path d="m257.324219 339.066406 58.921875 39.617188-14.855469 46.25-47.925781-32.230469zm0 0" fill="#37474f"/><path d="m358.03125 435.878906v35.167969c0 8.996094-4.800781 17.308594-12.589844 21.804687-7.792968 4.5-17.390625 4.5-25.183594 0-7.789062-4.496093-12.589843-12.808593-12.589843-21.804687v-35.167969zm0 0" fill="#37474f"/><path d="m55.867188 435.792969v35.167969c.050781 10.671874-6.699219 20.191406-16.789063 23.671874-10.085937-3.480468-16.835937-13-16.785156-23.671874v-35.167969zm0 0" fill="#607d8b"/><path d="m341.242188 435.878906v35.167969c.03125 10.683594-6.703126 20.214844-16.785157 23.753906-10.082031-3.539062-16.820312-13.070312-16.789062-23.753906v-35.167969zm0 0" fill="#607d8b"/><path d="m371.628906 412.292969-19.390625 33.574219h-38.777343l-19.390626-33.574219 19.390626-33.574219h38.777343zm0 0" fill="#9e9e9e"/><path d="m65.265625 412.207031-19.386719 33.574219h-17.796875l-19.386719-33.574219 19.386719-33.574219h17.796875zm0 0" fill="#cfd8dc"/><path d="m350.644531 412.292969-19.390625 33.574219h-17.792968l-19.390626-33.574219 19.390626-33.574219h17.792968zm0 0" fill="#cfd8dc"/><path d="m81.03125 51.289062c0 4.636719-3.757812 8.394532-8.394531 8.394532s-8.394531-3.757813-8.394531-8.394532c0-4.632812 3.757812-8.390624 8.394531-8.390624s8.394531 3.757812 8.394531 8.390624zm0 0"/><path d="m316.046875 51.289062c0 4.636719-3.757813 8.394532-8.394531 8.394532-4.636719 0-8.394532-3.757813-8.394532-8.394532 0-4.632812 3.757813-8.390624 8.394532-8.390624 4.636718 0 8.394531 3.757812 8.394531 8.390624zm0 0"/><path d="m223.734375 345.058594h-67.148437c-4.632813 0-8.390626 3.757812-8.390626 8.394531v16.789063c0 23.175781 18.789063 41.964843 41.964844 41.964843 23.179688 0 41.96875-18.789062 41.96875-41.964843v-16.789063c0-4.636719-3.757812-8.394531-8.394531-8.394531zm-8.394531 25.183594c0 13.90625-11.273438 25.179687-25.179688 25.179687s-25.179687-11.273437-25.179687-25.179687v-8.394532h50.359375zm0 0"/><path d="m332.847656 504.585938c18.542969 0 33.574219-15.03125 33.574219-33.574219v-32.960938l12.464844-21.597656c1.5-2.59375 1.5-5.792969 0-8.390625l-19.378907-33.574219c-1.5-2.597656-4.269531-4.195312-7.269531-4.195312h-33.4375l-53.097656-35.714844v-6.304687c0-9.269532-7.515625-16.785157-16.789063-16.785157h-25.179687v-50.363281c13.90625 0 25.179687-11.273438 25.179687-25.179688v-17.214843c19.894532-2.191407 34.601563-19.558594 33.488282-39.542969-1.117188-19.984375-17.667969-35.609375-37.683594-35.570312h-4.195312v-26.597657c.027343-11.785156 6.199218-22.699219 16.28125-28.796875l5.230468-3.140625c17.511719 19.054688 46.695313 21.527344 67.164063 5.691407 20.464843-15.835938 25.398437-44.707032 11.347656-66.441407-14.046875-21.734375-42.398437-29.089843-65.242187-16.929687s-32.570313 39.789062-22.386719 63.578125l-4.75 2.847656c-15.125 9.144531-24.386719 25.515625-24.433594 43.191406v26.597657h-67.148437v-26.597657c-.050782-17.675781-9.320313-34.046875-24.449219-43.183593l-4.75-2.847657c10.488281-24.265625.617187-52.519531-22.695313-64.980469-23.3125-12.460937-52.289062-4.96875-66.636718 17.230469-14.351563 22.199219-9.289063 51.695313 11.644531 67.839844 20.9375 16.140625 50.75 13.539063 68.570312-5.988281l5.230469 3.140625c10.085938 6.089843 16.265625 17.003906 16.300781 28.789062v26.597657h-4.195312c-20.015625-.039063-36.566407 15.585937-37.683594 35.570312s13.589844 37.351562 33.484375 39.542969v17.214843c0 13.90625 11.273438 25.179688 25.179688 25.179688v50.363281h-25.179688c-9.269531 0-16.785156 7.515625-16.785156 16.785157v6.269531l-53.097656 35.699219h-33.457032c-3 0-5.769531 1.597656-7.269531 4.195312l-19.378906 33.574219c-1.5000002 2.597656-1.5000002 5.796875 0 8.394531l12.480469 21.59375v32.960938c0 18.542968 15.03125 33.574218 33.574218 33.574218 18.542969 0 33.574219-15.03125 33.574219-33.574218v-32.960938l4.195313-7.226562 38.039062-25.582032c6.335938 12.035156 15.785156 22.152344 27.363281 29.292969-1.59375 3.554687-2.425781 7.402344-2.449219 11.296875 0 18.828125 18.464844 33.574219 41.964844 33.574219 23.503906 0 41.96875-14.746094 41.96875-33.574219-.011718-3.894531-.839844-7.742188-2.425781-11.296875 11.570313-7.136719 21.015625-17.242187 27.355469-29.269531l38.078125 25.617187 4.199219 7.21875v32.960938c0 18.519531 14.996093 33.542969 33.511718 33.574219zm-33.570312-486.871094c18.539062 0 33.570312 15.03125 33.570312 33.574218 0 18.542969-15.03125 33.574219-33.570312 33.574219-18.542969 0-33.574219-15.03125-33.574219-33.574219 0-18.542968 15.03125-33.574218 33.574219-33.574218zm-218.230469 67.148437c-18.542969 0-33.574219-15.03125-33.574219-33.574219 0-18.542968 15.03125-33.574218 33.574219-33.574218s33.574219 15.03125 33.574219 33.574218c0 8.90625-3.539063 17.445313-9.835938 23.742188s-14.835937 9.832031-23.738281 9.832031zm251.800781 402.9375c-9.269531 0-16.785156-7.515625-16.785156-16.789062v-16.785157h33.574219v16.785157c0 9.273437-7.515625 16.789062-16.789063 16.789062zm29.085938-75.542969-14.546875 25.179688h-29.058594l-14.546875-25.179688 14.546875-25.179687h29.074219zm-129.804688-176.3125c0 4.636719-3.757812 8.394532-8.394531 8.394532s-8.394531-3.757813-8.394531-8.394532v-16.785156h16.789062zm-117.507812-54.558593c0-11.585938 9.394531-20.980469 20.984375-20.980469h4.195312v16.785156c0 4.636719 3.757813 8.394532 8.394531 8.394532 4.632813 0 8.390626-3.757813 8.390626-8.394532v-16.785156h67.148437v16.785156c0 4.636719 3.757813 8.394532 8.394531 8.394532 4.636719 0 8.394532-3.757813 8.394532-8.394532v-16.785156h4.195312c11.589844 0 20.984375 9.394531 20.984375 20.980469 0 11.589843-9.394531 20.984375-20.984375 20.984375h-109.113281c-5.566407 0-10.90625-2.210938-14.839844-6.144532-3.933594-3.9375-6.144531-9.273437-6.144531-14.839843zm33.574218 54.558593v-16.785156h16.785157v16.785156c0 4.636719-3.757813 8.394532-8.394531 8.394532-4.632813 0-8.390626-3.757813-8.390626-8.394532zm25.179688 18.632813c5.316406-4.734375 8.371094-11.511719 8.390625-18.632813v-16.785156h16.789063v16.785156c.023437 7.121094 3.074218 13.898438 8.394531 18.632813v56.910156h-33.574219zm-140.457031 132.449219h29.074219l14.546874 25.179687-14.546874 25.179688h-29.074219l-14.546875-25.179688zm14.554687 100.722656c-9.269531 0-16.785156-7.515625-16.785156-16.789062v-16.785157h33.570312v16.785157c0 9.273437-7.515624 16.789062-16.785156 16.789062zm44.777344-81.929688-14.980469-25.933593 37.351563-25.113281v15.46875c.035156 6.371093.882812 12.710937 2.515625 18.867187zm123.089844 39.960938c0 9.097656-11.53125 16.789062-25.179688 16.789062-13.648437 0-25.179687-7.691406-25.179687-16.789062.019531-1.40625.300781-2.796875.839843-4.09375 15.765626 5.464844 32.914063 5.464844 48.679688 0 .542969 1.296875.828125 2.6875.839844 4.09375zm-25.179688-16.785156c-32.433594-.039063-58.714844-26.320313-58.753906-58.753906v-41.96875h117.507812v41.96875c-.035156 32.433593-26.320312 58.714843-58.753906 58.753906zm75.542969-58.753906v-15.4375l37.375 25.140624-14.972656 25.933594-24.894531-16.785156c1.625-6.152344 2.460937-12.488281 2.492187-18.851562zm0 0"/></svg>