<svg height="512pt" viewBox="0 0 512.51923 512" width="512pt" xmlns="http://www.w3.org/2000/svg"><path d="m59.992188 343.214844 9.558593 2.558594 109.910157 29.953124v17.066407l-89.089844 12.375zm0 0" fill="#424242"/><path d="m422.148438 405.175781-89.089844-12.375v-17.066406l109.910156-29.953125 9.558594-2.558594zm0 0" fill="#424242"/><path d="m264.792969 222.125c0 23.566406-19.101563 42.667969-42.667969 42.667969-2.835938.019531-5.667969-.265625-8.445312-.851563h-.171876c-19.886718-4.039062-34.175781-21.523437-34.175781-41.816406 0-20.289062 14.289063-37.773438 34.175781-41.8125h.171876c2.777343-.585938 5.609374-.875 8.445312-.851562 23.566406 0 42.667969 19.101562 42.667969 42.664062zm0 0" fill="#00838f"/><path d="m247.726562 222.125c-.019531 20.242188-14.230468 37.695312-34.046874 41.816406h-.171876c-19.886718-4.039062-34.175781-21.523437-34.175781-41.816406 0-20.289062 14.289063-37.773438 34.175781-41.8125h.171876c19.816406 4.121094 34.027343 21.574219 34.046874 41.8125zm0 0" fill="#00bcd4"/><path d="m432.730469 254.46875-137.472657 106.238281c-.757812.621094-1.625 1.082031-2.5625 1.367188h-72.875c-.933593-.285157-1.804687-.746094-2.558593-1.367188l-3.753907-2.902343h49.324219c.933594-.28125 1.804688-.746094 2.558594-1.363282l137.472656-106.242187c3.449219-2.5625 4.375-7.335938 2.132813-11.007813h22.527344c3.640624.011719 6.875 2.335938 8.050781 5.78125 1.175781 3.449219.03125 7.261719-2.84375 9.496094zm0 0" fill="#37474f"/><path d="m402.863281 250.199219-137.472656 106.242187c-.753906.617188-1.625 1.082032-2.558594 1.363282h-49.324219l-133.71875-103.335938c-2.875-2.234375-4.019531-6.046875-2.84375-9.496094 1.175782-3.445312 4.40625-5.769531 8.050782-5.78125h62.207031c5.960937 25.570313 24.460937 46.382813 49.152344 55.296875 32.6875 11.628907 69.113281-.125 88.832031-28.671875 2.816406-3.980468 5.21875-8.242187 7.167969-12.714844 11.363281 14.984376 30.035156 22.519532 48.613281 19.613282 18.582031-2.90625 34.0625-15.785156 40.304688-33.523438h23.722656c2.242187 3.671875 1.316406 8.445313-2.132813 11.007813zm0 0" fill="#607d8b"/><path d="m311.726562 170.925781c3.558594-.019531 7.105469.351563 10.582032 1.109375-11.9375 2.609375-22.558594 9.386719-29.953125 19.113282-1.949219-4.46875-4.351563-8.730469-7.167969-12.710938 7.96875-4.9375 17.164062-7.539062 26.539062-7.511719zm0 0" fill="#424242"/><path d="m426.925781 205.058594h-21.332031c2.582031-.011719 5.023438-1.199219 6.632812-3.222656 1.609376-2.023438 2.210938-4.664063 1.644532-7.1875l-21.589844-93.867188c-.882812-3.90625-4.359375-6.671875-8.363281-6.65625h21.332031c4.003906-.015625 7.484375 2.75 8.363281 6.65625l21.589844 93.867188c.570313 2.523437-.035156 5.164062-1.644531 7.1875-1.609375 2.023437-4.046875 3.210937-6.632813 3.222656zm0 0" fill="#424242"/><path d="m405.59375 205.058594h-24.320312c-7.183594-20.464844-26.523438-34.15625-48.214844-34.132813-3.609375.019531-7.210938.390625-10.75 1.109375-3.476563-.757812-7.023438-1.128906-10.582032-1.109375-9.375-.027343-18.570312 2.574219-26.539062 7.511719-14.304688-20.726562-37.878906-33.101562-63.0625-33.109375-3.511719-.007813-7.019531.25-10.496094.765625-31.609375 4.421875-57.226562 27.867188-64.425781 58.964844h-61.609375c-2.585938-.011719-5.023438-1.199219-6.632812-3.222656-1.609376-2.023438-2.214844-4.664063-1.644532-7.1875l21.589844-93.867188c.878906-3.90625 4.355469-6.671875 8.359375-6.65625h276.652344c4.003906-.015625 7.480469 2.75 8.363281 6.65625l21.589844 93.867188c.566406 2.523437-.035156 5.164062-1.644532 7.1875-1.609374 2.023437-4.050781 3.210937-6.632812 3.222656zm0 0" fill="#9e9e9e"/><path d="m350.125 222.125c0 9.425781-7.640625 17.066406-17.066406 17.066406-9.425782 0-17.066406-7.640625-17.066406-17.066406s7.640624-17.066406 17.066406-17.066406c9.425781 0 17.066406 7.640625 17.066406 17.066406zm0 0" fill="#f44335"/><path d="m94.808594 392.792969c-5.972656 22.785156-54.953125 115.113281-71.421875 110.761719-3.160157-.851563-5.804688-5.375-7.851563-12.285157-8.703125-29.269531-8.109375-101.632812-3.242187-120.066406 4.597656-17.246094 20.382812-29.121094 38.226562-28.757813 4.664063-.058593 9.316407.515626 13.824219 1.707032 10.683594 2.070312 20.027344 8.480468 25.800781 17.703125 5.777344 9.21875 7.464844 20.421875 4.664063 30.9375zm0 0" fill="#37474f"/><path d="m73.476562 388.527344c-4.695312 18.175781-36.78125 80.382812-57.941406 102.742187-8.703125-29.269531-8.109375-101.632812-3.242187-120.066406 4.597656-17.246094 20.382812-29.121094 38.226562-28.757813 18.339844 7.199219 28.257813 27.105469 22.957031 46.082032zm0 0" fill="#607d8b"/><path d="m489.132812 503.554688c-3.582031.941406-8.703124-2.644532-14.503906-9.128907-24.050781-30.773437-43.246094-65.050781-56.917968-101.632812-2.800782-10.515625-1.113282-21.71875 4.664062-30.9375 5.773438-9.222657 15.117188-15.632813 25.800781-17.703125.644531-.183594 1.296875-.324219 1.960938-.425782 10.285156-3.011718 21.347656-1.804687 30.746093 3.347657 9.394532 5.15625 16.355469 13.835937 19.34375 24.128906 5.972657 22.871094 5.460938 128.085937-11.09375 132.351563zm0 0" fill="#37474f"/><path d="m474.628906 494.425781c-24.050781-30.773437-43.246094-65.050781-56.917968-101.632812-2.800782-10.515625-1.113282-21.71875 4.664062-30.9375 5.773438-9.222657 15.117188-15.632813 25.800781-17.703125.644531-.183594 1.296875-.324219 1.960938-.425782 14.074219 2.863282 25.253906 13.550782 28.757812 27.476563 5.035157 19.199219 5.460938 96.34375-4.265625 123.222656zm0 0" fill="#607d8b"/><path d="m288.199219 401.328125h34.988281c3.761719-.097656 7.261719-1.964844 9.4375-5.035156.167969-.183594.3125-.382813.433594-.597657l-1.808594-25.089843c-2.136719-2.128907-5.011719-3.351563-8.03125-3.414063h-133.921875c-3.015625.0625-5.890625 1.285156-8.027344 3.414063l-1.808593 25.089843c2.136718 3.394532 5.824218 5.507813 9.835937 5.632813zm0 0" fill="#9e9e9e"/><path d="m298.925781 384.257812c0 23.554688-25.597656 119.46875-42.667969 119.46875-3.328124 0-6.996093-3.667968-10.664062-9.726562-15.445312-25.003906-32-90.796875-32-109.742188-.023438-19.460937 13.148438-36.460937 32-41.300781 3.476562-.929687 7.066406-1.390625 10.664062-1.363281 23.566407 0 42.667969 19.101562 42.667969 42.664062zm0 0" fill="#37474f"/><path d="m277.59375 384.257812c0 18.945313-16.554688 84.738282-32 109.742188-15.445312-25.003906-32-90.796875-32-109.742188-.023438-19.460937 13.148438-36.460937 32-41.300781 18.847656 4.839844 32.023438 21.839844 32 41.300781zm0 0" fill="#607d8b"/><path d="m222.125 170.925781c-28.277344 0-51.199219 22.921875-51.199219 51.199219s22.921875 51.203125 51.199219 51.203125 51.203125-22.925781 51.203125-51.203125c-.03125-28.265625-22.9375-51.171875-51.203125-51.199219zm0 85.332031c-18.851562 0-34.132812-15.28125-34.132812-34.132812s15.28125-34.132812 34.132812-34.132812 34.132812 15.28125 34.132812 34.132812-15.28125 34.132812-34.132812 34.132812zm0 0"/><path d="m373.21875 207.867188c0 .09375.109375.171874.144531.265624.136719.292969.289063.578126.460938.851563.3125.617187.699219 1.191406 1.160156 1.707031.230469.25.476563.484375.734375.707032.515625.453124 1.089844.84375 1.707031 1.152343.273438.160157.558594.300781.851563.417969.953125.390625 1.96875.601562 2.996094.625h45.652343c5.199219-.003906 10.117188-2.375 13.351563-6.445312 3.238281-4.070313 4.441406-9.394532 3.273437-14.460938l-21.660156-93.867188c-1.761719-7.761718-8.671875-13.257812-16.628906-13.226562h-217.269531v-51.199219c0-4.714843-3.820313-8.535156-8.53125-8.535156-4.714844 0-8.535157 3.820313-8.535157 8.535156v51.199219h-25.597656v-76.800781c0-4.710938-3.824219-8.535157-8.535156-8.535157-4.714844 0-8.535157 3.824219-8.535157 8.535157v76.800781h-21c-7.957031-.03125-14.867187 5.464844-16.628906 13.226562l-21.660156 93.867188c-1.167969 5.066406.035156 10.390625 3.273438 14.460938 3.234374 4.070312 8.148437 6.441406 13.351562 6.445312h61.617188c1.050781-.011719 2.09375-.222656 3.066406-.625.320312-.144531.632812-.316406.929687-.511719.589844-.296875 1.144531-.671875 1.644531-1.109375.292969-.261718.558594-.546875.804688-.851562.683594-.800782 1.207031-1.722656 1.535156-2.722656.125-.253907.230469-.511719.324219-.777344 7.285156-30.957032 34.808594-52.910156 66.609375-53.136719 27.039062.019531 51.515625 15.992187 62.421875 40.730469.070313.136718.1875.230468.257813.359375.605468.960937 1.308593 1.855469 2.105468 2.667969.121094.105468.171875.242187.300782.335937.3125.179687.636718.335937.972656.46875.507812.316406 1.054687.582031 1.621094.785156.507812.140625 1.027343.234375 1.550781.28125.542969.082031 1.09375.113281 1.640625.085938.582031-.0625 1.152344-.1875 1.707031-.378907.367187-.050781.734375-.125 1.089844-.226562.148437-.070312.230469-.199219.378906-.265625.488281-.277344.949219-.605469 1.371094-.972656.464843-.332031.894531-.714844 1.28125-1.136719.101562-.117188.238281-.167969.332031-.289062 9.460938-12.480469 25.011719-18.753907 40.484375-16.339844 15.472656 2.414062 28.371094 13.132812 33.578125 27.902344zm-78.882812-31.15625c-15.609376-24.832032-42.878907-39.90625-72.210938-39.917969-37.179688.265625-69.996094 24.347656-81.40625 59.734375h-55.125l21.65625-93.867188h298.011719l21.664062 93.867188h-40.105469c-7.902343-16.792969-23.191406-28.929688-41.335937-32.816406-18.144531-3.890626-37.0625.921874-51.148437 13zm0 0"/><path d="m307.460938 222.125c0 14.140625 11.460937 25.601562 25.597656 25.601562 14.140625 0 25.601562-11.460937 25.601562-25.601562 0-14.136719-11.460937-25.597656-25.601562-25.597656-14.136719 0-25.597656 11.460937-25.597656 25.597656zm34.132812 0c0 4.714844-3.820312 8.535156-8.535156 8.535156-4.710938 0-8.53125-3.820312-8.53125-8.535156 0-4.710938 3.820312-8.53125 8.53125-8.53125 4.714844 0 8.535156 3.820312 8.535156 8.53125zm0 0"/><path d="m484.328125 339.273438c-10.070313-4.777344-21.375-6.3125-32.355469-4.394532-.554687-.023437-1.109375.011719-1.65625.101563l-1.878906.511719c-.800781.179687-1.601562.203124-2.40625.417968-1.902344.496094-3.726562 1.082032-5.511719 1.707032l-87.398437 23.816406c-3.570313-1.820313-7.519532-2.769532-11.527344-2.773438h-29.730469l126.035157-97.410156c5.789062-4.453125 8.101562-12.089844 5.753906-19.003906-2.34375-6.917969-8.828125-11.574219-16.128906-11.585938h-46.25c-.09375 0-.171876.050782-.265626.050782-.609374.058593-1.210937.179687-1.792968.367187-.496094.085937-.984375.214844-1.457032.382813-.449218.246093-.875.53125-1.273437.855468-.488281.292969-.949219.636719-1.371094 1.023438-.292969.367187-.554687.753906-.785156 1.160156-.382813.511719-.710937 1.0625-.972656 1.648438 0 .082031-.105469.144531-.136719.226562-5.207031 14.769531-18.105469 25.488281-33.578125 27.902344-15.472656 2.417968-31.023437-3.859375-40.484375-16.335938-.09375-.121094-.230469-.171875-.332031-.292968-.386719-.417969-.816407-.800782-1.28125-1.132813-.425781-.371094-.890625-.695313-1.382813-.972656-.136718-.070313-.21875-.199219-.367187-.265625-.351563-.101563-.710938-.179688-1.074219-.230469-.554688-.1875-1.125-.3125-1.707031-.375-.542969-.027344-1.085938 0-1.621094.085937-1.140625.058594-2.242187.425782-3.191406 1.066407-.332031.132812-.65625.289062-.964844.46875-.117187.085937-.179687.230469-.289063.324219-.421874.390624-.804687.820312-1.144531 1.289062-.367187.429688-.691406.890625-.972656 1.382812-.066406.136719-.1875.21875-.253906.367188-10.910157 24.75-35.398438 40.726562-62.449219 40.738281-31.792969-.222656-59.3125-22.164062-66.609375-53.113281-.085937-.230469-.1875-.457031-.300781-.675781-.179688-.542969-.417969-1.066407-.707032-1.558594-.253906-.472656-.554687-.914063-.894531-1.324219-.351562-.402344-.738281-.769531-1.160156-1.09375-.417969-.339844-.867187-.644531-1.339844-.902344-.988281-.480468-2.050781-.789062-3.140625-.914062-.253906-.0625-.511718-.113281-.769531-.152344h-62.207031c-7.292969.015625-13.769532 4.65625-16.121094 11.558594-2.351562 6.898438-.0625 14.535156 5.703125 19l126.078125 97.441406h-29.730469c-4 0-7.941406.949219-11.503906 2.765625l-87.660156-23.894531c-1.707031-.613281-3.460938-1.15625-5.257813-1.628906-.785156-.207032-1.570312-.238282-2.347656-.410156l-1.9375-.519532c-.5625-.097656-1.132812-.132812-1.707031-.105468-10.972657-1.910157-22.265625-.375-32.332031 4.394531-12.046876 5.902343-20.894532 16.800781-24.183594 29.808593-3.886719 25.027344-4.941406 50.410157-3.148438 75.671876 3.074219 62.566406 14.738282 65.621093 20.34375 67.082031.871094.230469 1.765625.34375 2.664063.339843 22.183593 0 56.976562-65.347656 72.0625-99.148437l59.734375-8.300781c4.390625 3.339844 9.757812 5.148437 15.273437 5.144531h38.050781c7.679688 37.957031 25.898438 102.398437 47.28125 102.398437 21.386719 0 39.597657-64.441406 47.285157-102.398437h38.050781c5.492188.003906 10.832031-1.796875 15.207031-5.121094l59.800781 8.3125c15.085938 33.800781 49.867188 99.148438 72.0625 99.148438.898438.003906 1.792969-.109375 2.664063-.332031 5.605469-1.46875 17.269531-4.515626 20.34375-67.082032 1.792969-25.261718.738281-50.644531-3.148437-75.671875-3.285157-13.023437-12.132813-23.9375-24.195313-29.839843zm-74.929687 55.515624-54.152344-7.527343c-.128906 0-.257813 0-.390625-.050781l-13.261719-1.84375v-3.113282l70.324219-19.164062c-4.492188 9.953125-5.382813 21.160156-2.519531 31.699218zm-268.679688-147.0625c11.410156 35.386719 44.226562 59.464844 81.40625 59.734376 29.332031-.011719 56.601562-15.089844 72.210938-39.921876 14.085937 12.082032 33.003906 16.890626 51.148437 13.003907s33.433594-16.027344 41.335937-32.816407h40.6875l-132.804687 102.828126c-9.664063-11.101563-23.65625-17.484376-38.375-17.507813-14.71875-.019531-28.730469 6.320313-38.425781 17.394531l-132.90625-102.714844zm-40.105469 115.386719 70.3125 19.132813v3.113281l-67.804687 9.386719c2.851562-10.515625 1.96875-21.695313-2.5-31.632813zm-74.933593 131.304688c-8.703126-15.019531-11.289063-97.613281-5.121094-121.03125 2.007812-8.226563 7.578125-15.128907 15.199218-18.824219 4.90625-2.390625 10.296876-3.617188 15.753907-3.582031 2.53125.03125 5.058593.292969 7.542969.785156l6.144531 1.707031c7.769531 2.078125 14.386719 7.167969 18.390625 14.144532 4.007812 6.976562 5.0625 15.257812 2.941406 23.015624-1.085938 3.933594-2.425781 7.789063-4.011719 11.546876-.148437.3125-.28125.628906-.398437.957031-12.554688 30.085937-44.117188 83.445312-56.441406 91.28125zm162.3125-101.625v-17.066407h17.835937c-.496094 2.816407-.75 5.671876-.769531 8.53125.109375 2.859376.394531 5.710938.855468 8.535157zm68.265624 101.691406c-9.792968-9.054687-26.519531-61.386719-32.175781-93.105469v-.050781c0-.171875-.085937-.316406-.09375-.480469-1.066406-5.46875-1.6875-11.015625-1.863281-16.589844.035156-6.0625 1.699219-12.003906 4.824219-17.203124.167969-.273438.316406-.558594.449219-.851563 8.03125-12.941406 23.679687-18.976563 38.320312-14.78125 14.644531 4.199219 24.71875 17.605469 24.675781 32.835937-.179687 5.574219-.804687 11.121094-1.871093 16.589844 0 .164063-.09375.308594-.09375.480469v.050781c-5.648438 31.71875-22.375 84.050782-32.171876 93.105469zm50.433594-118.757813h17.835938v17.066407h-17.921875c.460937-2.824219.746093-5.675781.855469-8.535157-.019532-2.859374-.277344-5.714843-.769532-8.53125zm180.148438 118.699219c-12.324219-7.835937-43.886719-61.195312-56.441406-91.308593-.117188-.324219-.25-.644532-.398438-.953126-1.59375-3.746093-2.945312-7.585937-4.046875-11.503906-2.132813-7.839844-1.027344-16.207031 3.066406-23.21875 4.097657-7.015625 10.84375-12.089844 18.71875-14.082031l4.957031-1.332031c8.085938-1.832032 16.550782-.933594 24.066407 2.5625 7.636719 3.683594 13.226562 10.589844 15.238281 18.824218 6.128906 23.398438 3.542969 105.992188-5.160156 121.011719zm0 0"/><path d="m153.859375 119.726562h-25.601563c-4.054687 0-7.550781 2.851563-8.359374 6.828126l-8.535157 42.664062c-.453125 2.21875-.007812 4.527344 1.242188 6.414062 1.25 1.890626 3.195312 3.203126 5.414062 3.65625.5625.117188 1.132813.175782 1.707031.171876 4.050782-.003907 7.542969-2.859376 8.355469-6.828126l7.15625-35.839843h18.621094c4.714844 0 8.535156-3.820313 8.535156-8.535157 0-4.710937-3.820312-8.53125-8.535156-8.53125zm0 0"/><path d="m333.058594 119.726562h-51.199219c-4.710937 0-8.53125 3.820313-8.53125 8.53125 0 4.714844 3.820313 8.535157 8.53125 8.535157h51.199219c4.714844 0 8.535156-3.820313 8.535156-8.535157 0-4.710937-3.820312-8.53125-8.535156-8.53125zm0 0"/><path d="m392.792969 128.257812c0-4.710937-3.820313-8.53125-8.535157-8.53125h-17.066406c-4.710937 0-8.53125 3.820313-8.53125 8.53125 0 4.714844 3.820313 8.535157 8.53125 8.535157h17.066406c4.714844 0 8.535157-3.820313 8.535157-8.535157zm0 0"/></svg>