<svg height="512pt" viewBox="0 0 512 512" width="512pt" xmlns="http://www.w3.org/2000/svg"><g fill="#424242"><path d="m140.714844 202.070312-79.617188 79.613282 24.148438 24.152344 70.402344-70.402344zm0 0"/><path d="m356.351562 235.433594 70.402344 70.402344 24.148438-24.152344-79.617188-79.613282zm0 0"/><path d="m42.667969 326.230469h34.132812v87.976562h-34.132812zm0 0"/><path d="m435.199219 326.230469h34.132812v87.976562h-34.132812zm0 0"/><path d="m85.332031 307.199219c0 14.140625-11.460937 25.601562-25.597656 25.601562-2.914063.015625-5.808594-.503906-8.535156-1.535156-10.222657-3.582031-17.066407-13.234375-17.066407-24.066406s6.84375-20.480469 17.066407-24.0625c2.726562-1.035157 5.621093-1.554688 8.535156-1.535157 14.136719 0 25.597656 11.460938 25.597656 25.597657zm0 0"/><path d="m477.867188 307.199219c0 14.140625-11.460938 25.601562-25.601563 25.601562-2.914063.015625-5.808594-.503906-8.53125-1.535156-10.226563-3.582031-17.070313-13.234375-17.070313-24.066406s6.84375-20.480469 17.070313-24.0625c2.722656-1.035157 5.617187-1.554688 8.53125-1.535157 14.140625 0 25.601563 11.460938 25.601563 25.597657zm0 0"/></g><path d="m375.464844 170.667969c-.042969 46.203125-26.679688 88.253906-68.433594 108.03125h-102.0625c-20.160156-9.527344-37.246094-24.515625-49.320312-43.265625-6.683594-10.277344-11.722657-21.53125-14.933594-33.363282-9.167969-33.753906-3.097656-69.832031 16.617187-98.722656 19.714844-28.890625 51.09375-47.699218 85.867188-51.464844 4.253906-.445312 8.523437-.671874 12.800781-.683593 65.980469 0 119.464844 53.488281 119.464844 119.46875zm0 0" fill="#37474f"/><path d="m349.867188 170.667969c-.042969 46.203125-26.683594 88.253906-68.4375 108.03125h-76.460938c-20.160156-9.527344-37.246094-24.515625-49.320312-43.265625-6.683594-10.277344-11.722657-21.53125-14.933594-33.363282-9.167969-33.753906-3.097656-69.832031 16.617187-98.722656 19.714844-28.890625 51.09375-47.699218 85.867188-51.464844 60.675781 6.539063 106.671875 57.757813 106.667969 118.785157zm0 0" fill="#607d8b"/><path d="m281.601562 157.867188c0 30.632812-24.835937 55.464843-55.46875 55.464843-3.578124.011719-7.152343-.332031-10.667968-1.023437-26.050782-5.074219-44.855469-27.898438-44.855469-54.441406 0-26.542969 18.804687-49.367188 44.855469-54.441407 3.515625-.691406 7.089844-1.035156 10.667968-1.027343 30.632813 0 55.46875 24.835937 55.46875 55.46875zm0 0" fill="#00838f"/><path d="m260.265625 157.867188c0-30.070313-20.054687-54.441407-44.800781-54.441407-24.742188 0-44.796875 24.371094-44.796875 54.441407 0 30.066406 20.054687 54.441406 44.796875 54.441406 24.746094 0 44.800781-24.375 44.800781-54.441406zm0 0" fill="#00bcd4"/><path d="m238.933594 162.132812c0 9.425782-7.640625 17.066407-17.066406 17.066407-9.425782 0-17.066407-7.640625-17.066407-17.066407 0-9.425781 7.640625-17.066406 17.066407-17.066406 9.425781 0 17.066406 7.640625 17.066406 17.066406zm0 0" fill="#f44335"/><path d="m238.933594 297.472656c-18.859375-2.816406-32.769532-10.070312-33.964844-18.773437-.136719-.441407-.195312-.902344-.167969-1.367188 0-11.773437 22.953125-21.332031 51.199219-21.332031s51.199219 9.558594 51.199219 21.332031c.027343.464844-.03125.925781-.167969 1.367188-1.195312 8.703125-15.105469 15.957031-33.964844 18.773437" fill="#37474f"/><path d="m238.933594 296.960938v44.371093h34.132812v-44.371093c-.566406-4.242188-4.402344-7.265626-8.660156-6.828126h-16.8125c-4.257812-.4375-8.09375 2.585938-8.660156 6.828126zm0 0" fill="#424242"/><path d="m238.933594 368.894531h34.132812v45.3125h-34.132812zm0 0" fill="#424242"/><path d="m281.601562 349.867188c0 14.136718-11.464843 25.597656-25.601562 25.597656-2.914062.019531-5.808594-.5-8.535156-1.535156-10.222656-3.582032-17.066406-13.230469-17.066406-24.0625 0-10.832032 6.84375-20.484376 17.066406-24.066407 2.726562-1.03125 5.621094-1.550781 8.535156-1.535156 14.136719 0 25.601562 11.460937 25.601562 25.601563zm0 0" fill="#424242"/><path d="m68.265625 307.199219c0-13.289063-7.640625-24.0625-17.066406-24.0625s-17.066407 10.773437-17.066407 24.0625c0 13.289062 7.640626 24.066406 17.066407 24.066406s17.066406-10.777344 17.066406-24.066406zm0 0" fill="#9e9e9e"/><path d="m460.800781 307.199219c0-13.289063-7.640625-24.0625-17.066406-24.0625s-17.066406 10.773437-17.066406 24.0625c0 13.289062 7.640625 24.066406 17.066406 24.066406s17.066406-10.777344 17.066406-24.066406zm0 0" fill="#9e9e9e"/><path d="m264.535156 349.867188c0-13.289063-7.644531-24.066407-17.070312-24.066407-9.425782 0-17.066406 10.777344-17.066406 24.066407 0 13.289062 7.640624 24.0625 17.066406 24.0625 9.425781 0 17.070312-10.773438 17.070312-24.0625zm0 0" fill="#9e9e9e"/><path d="m91.902344 455.082031c1.308594-3.640625 1.972656-7.480469 1.964844-11.347656 0-18.851563-15.28125-34.132813-34.132813-34.132813s-34.132813 15.28125-34.132813 34.132813c-.007812 3.867187.65625 7.707031 1.960938 11.347656zm0 0" fill="#607d8b"/><path d="m484.4375 455.082031c1.304688-3.640625 1.96875-7.480469 1.960938-11.347656 0-18.851563-15.28125-34.132813-34.132813-34.132813s-34.132813 15.28125-34.132813 34.132813c-.007812 3.867187.65625 7.707031 1.964844 11.347656zm0 0" fill="#607d8b"/><path d="m110.933594 494.933594c0 4.710937-3.820313 8.53125-8.535156 8.53125h-85.332032c-4.710937 0-8.53125-3.820313-8.53125-8.53125-.042968-13.585938 5.367188-26.617188 15.015625-36.179688 1.28125-1.28125 2.648438-2.476562 4.011719-3.671875 6.265625-5.050781 13.632812-8.558593 21.503906-10.238281 3.503906-.761719 7.082032-1.136719 10.667969-1.109375 11.707031-.015625 23.0625 3.992187 32.167969 11.347656 1.367187 1.195313 2.730468 2.390625 4.011718 3.671875 9.648438 9.5625 15.058594 22.59375 15.019532 36.179688zm0 0" fill="#9e9e9e"/><path d="m503.464844 494.933594c0 4.710937-3.820313 8.53125-8.53125 8.53125h-85.332032c-4.714843 0-8.535156-3.820313-8.535156-8.53125-.039062-13.585938 5.371094-26.617188 15.019532-36.179688 6.941406-7.058594 15.820312-11.898437 25.515624-13.910156 3.503907-.761719 7.078126-1.136719 10.664063-1.109375 28.261719.042969 51.160156 22.941406 51.199219 51.199219zm0 0" fill="#9e9e9e"/><path d="m51.199219 486.398438v17.066406h-17.066407v-17.066406c0-4.710938 3.820313-8.53125 8.535157-8.53125 4.710937 0 8.53125 3.820312 8.53125 8.53125zm0 0" fill="#5e5f62"/><path d="m68.265625 503.464844v-17.066406c0-4.710938 3.820313-8.53125 8.535156-8.53125 4.710938 0 8.53125 3.820312 8.53125 8.53125v17.066406zm0 0" fill="#5e5f62"/><path d="m426.667969 503.464844v-17.066406c0-4.710938 3.820312-8.53125 8.53125-8.53125 4.714843 0 8.535156 3.820312 8.535156 8.53125v17.066406zm0 0" fill="#5e5f62"/><path d="m460.800781 503.464844v-17.066406c0-4.710938 3.820313-8.53125 8.53125-8.53125 4.714844 0 8.535157 3.820312 8.535157 8.53125v17.066406zm0 0" fill="#5e5f62"/><path d="m288.171875 455.082031c1.304687-3.640625 1.96875-7.480469 1.960937-11.347656 0-18.851563-15.28125-34.132813-34.132812-34.132813s-34.132812 15.28125-34.132812 34.132813c-.007813 3.867187.65625 7.707031 1.960937 11.347656zm0 0" fill="#607d8b"/><path d="m307.199219 494.933594c0 4.710937-3.820313 8.53125-8.53125 8.53125h-85.335938c-4.710937 0-8.53125-3.820313-8.53125-8.53125-.042969-13.585938 5.367188-26.617188 15.019531-36.179688 6.941407-7.058594 15.820313-11.898437 25.511719-13.910156 3.503907-.761719 7.082031-1.136719 10.667969-1.109375 28.257812.042969 51.15625 22.941406 51.199219 51.199219zm0 0" fill="#9e9e9e"/><path d="m89.601562 494.933594c0 4.710937-3.820312 8.53125-8.535156 8.53125h-64c-4.710937 0-8.53125-3.820313-8.53125-8.53125-.042968-13.585938 5.367188-26.617188 15.015625-36.179688 1.28125-1.28125 2.648438-2.476562 4.011719-3.671875 6.265625-5.050781 13.632812-8.558593 21.503906-10.238281 7.871094 1.679688 15.238282 5.1875 21.503906 10.238281 1.367188 1.195313 2.730469 2.390625 4.011719 3.671875 9.648438 9.5625 15.058594 22.59375 15.019531 36.179688zm0 0" fill="#cfd8dc"/><path d="m482.132812 494.933594c0 4.710937-3.820312 8.53125-8.53125 8.53125h-64c-4.714843 0-8.535156-3.820313-8.535156-8.53125-.039062-13.585938 5.371094-26.617188 15.019532-36.179688 6.941406-7.058594 15.820312-11.898437 25.515624-13.910156 9.691407 2.011719 18.570313 6.851562 25.511719 13.910156 9.652344 9.5625 15.0625 22.59375 15.019531 36.179688zm0 0" fill="#cfd8dc"/><path d="m285.867188 494.933594c0 4.710937-3.820313 8.53125-8.535157 8.53125h-64c-4.710937 0-8.53125-3.820313-8.53125-8.53125-.042969-13.585938 5.367188-26.617188 15.019531-36.179688 6.941407-7.058594 15.820313-11.898437 25.511719-13.910156 9.695313 2.011719 18.570313 6.851562 25.515625 13.910156 9.648438 9.5625 15.058594 22.59375 15.019532 36.179688zm0 0" fill="#cfd8dc"/><path d="m230.398438 503.464844v-17.066406c0-4.710938 3.820312-8.53125 8.535156-8.53125 4.710937 0 8.53125 3.820312 8.53125 8.53125v17.066406zm0 0" fill="#5e5f62"/><path d="m264.535156 503.464844v-17.066406c0-4.710938 3.820313-8.53125 8.53125-8.53125 4.714844 0 8.535156 3.820312 8.535156 8.53125v17.066406zm0 0" fill="#5e5f62"/><path d="m493.96875 452.265625c.613281-2.804687.9375-5.664063.964844-8.53125-.039063-13.359375-6.359375-25.921875-17.066406-33.914063v-80.28125c8.601562-9.6875 10.921874-23.4375 5.964843-35.40625-4.953125-11.972656-16.3125-20.0625-29.246093-20.835937l-73.886719-73.871094c11.320312-48.796875-6.894531-99.703125-46.59375-130.246093-39.703125-30.539063-93.582031-35.085938-137.839844-11.632813v-49.011719c0-4.714844-3.820313-8.535156-8.53125-8.535156-4.714844 0-8.535156 3.820312-8.535156 8.535156v59.96875c-6.136719 4.625-11.847657 9.789063-17.066407 15.429688v-32.734375c0-4.710938-3.820312-8.53125-8.53125-8.53125-4.714843 0-8.535156 3.820312-8.535156 8.53125v55.886719c-16.15625 27.902343-21.078125 60.917968-13.753906 92.320312l-73.898438 73.890625c-12.933593.773437-24.292968 8.863281-29.246093 20.835937-4.957031 11.96875-2.636719 25.71875 5.964843 35.40625v80.28125c-10.707031 7.992188-17.027343 20.554688-17.066406 33.914063.027344 2.867187.351563 5.726563.964844 8.53125-11.527344 11.203125-18.03125 26.59375-18.03125 42.667969 0 9.425781 7.640625 17.066406 17.066406 17.066406h85.332032c9.425781 0 17.066406-7.640625 17.066406-17.066406 0-16.074219-6.503906-31.464844-18.027344-42.667969.609375-2.804687.933594-5.664063.960938-8.53125-.039063-13.359375-6.359376-25.921875-17.066407-33.914063v-80.28125c4.890625-5.582031 7.808594-12.613281 8.304688-20.019531l60.910156-60.917969c11.597656 15.117188 26.4375 27.4375 43.425781 36.0625 3.984375 9.085938 15.558594 16.171876 32.46875 19.875v22.988282c-11.375 12.71875-11.375 31.960937 0 44.679687v37.613281c-10.71875 7.984376-17.058594 20.546876-17.109375 33.914063.03125 2.867187.351563 5.726563.964844 8.53125-11.523437 11.203125-18.027344 26.59375-18.03125 42.667969 0 9.425781 7.640625 17.066406 17.066406 17.066406h85.335938c9.425781 0 17.066406-7.640625 17.066406-17.066406-.003906-16.074219-6.507813-31.464844-18.03125-42.667969.613281-2.804687.933594-5.664063.964844-8.53125-.039063-13.359375-6.363281-25.921875-17.066407-33.914063v-37.613281c11.375-12.71875 11.375-31.960937 0-44.679687v-22.988282c16.910157-3.703124 28.484376-10.789062 32.46875-19.875 16.972657-8.628906 31.796876-20.953124 43.382813-36.0625l60.910156 60.917969c.496094 7.40625 3.414063 14.4375 8.304688 20.019531v80.28125c-10.707031 7.992188-17.027344 20.554688-17.066407 33.914063.027344 2.867187.351563 5.726563.960938 8.53125-11.523438 11.203125-18.027344 26.59375-18.027344 42.667969 0 9.425781 7.640625 17.066406 17.066406 17.066406h85.332032c9.425781 0 17.066406-7.640625 17.066406-17.066406 0-16.074219-6.503906-31.464844-18.03125-42.667969zm-24.636719-145.066406c0 9.425781-7.640625 17.066406-17.066406 17.066406s-17.066406-7.640625-17.066406-17.066406 7.640625-17.066407 17.066406-17.066407 17.066406 7.640626 17.066406 17.066407zm-34.285156-29.300781c-4.988281 2.9375-9.144531 7.09375-12.082031 12.082031l-55.878906-55.878907c3-5.242187 5.628906-10.691406 7.859374-16.304687zm-358.09375 0 60.117187-60.109376c2.226563 5.613282 4.855469 11.058594 7.859376 16.296876l-55.894532 55.894531c-2.9375-4.988281-7.09375-9.144531-12.082031-12.082031zm-17.21875 12.234374c9.425781 0 17.066406 7.640626 17.066406 17.066407s-7.640625 17.066406-17.066406 17.066406-17.066406-7.640625-17.066406-17.066406 7.640625-17.066407 17.066406-17.066407zm42.664063 204.800782h-17.066407v-8.535156c0-4.710938-3.820312-8.53125-8.53125-8.53125-4.714843 0-8.535156 3.820312-8.535156 8.53125v8.535156h-17.066406v-8.535156c0-4.710938-3.820313-8.53125-8.53125-8.53125-4.714844 0-8.535157 3.820312-8.535157 8.53125v8.535156h-17.066406c0-23.5625 19.101563-42.667969 42.667969-42.667969 23.5625 0 42.664063 19.105469 42.664063 42.667969zm-42.664063-59.734375c-8.757813.007812-17.40625 1.960937-25.320313 5.710937 1.386719-12.941406 12.308594-22.75 25.320313-22.75s23.929687 9.808594 25.316406 22.75c-7.914062-3.75-16.558593-5.703125-25.316406-5.710937zm0-34.132813c-2.867187-.003906-5.726563.285156-8.535156.855469v-61.800781c2.78125.769531 5.648437 1.175781 8.535156 1.210937 2.882813-.035156 5.75-.441406 8.53125-1.210937v61.800781c-2.808594-.570313-5.667969-.859375-8.53125-.855469zm179.199219-51.199218c0-9.425782 7.640625-17.066407 17.066406-17.066407s17.066406 7.640625 17.066406 17.066407c0 9.425781-7.640625 17.066406-17.066406 17.066406s-17.066406-7.640625-17.066406-17.066406zm25.601562-32.921876c-5.574218-1.617187-11.496094-1.617187-17.070312 0v-18.578124c2.859375.1875 5.71875.300781 8.535156.300781s5.675781-.113281 8.535156-.300781zm34.132813 177.988282h-17.066407v-8.535156c0-4.710938-3.820312-8.53125-8.535156-8.53125-4.710937 0-8.53125 3.820312-8.53125 8.53125v8.535156h-17.070312v-8.535156c0-4.710938-3.820313-8.53125-8.53125-8.53125-4.714844 0-8.535156 3.820312-8.535156 8.53125v8.535156h-17.066407c0-23.5625 19.105469-42.667969 42.667969-42.667969s42.667969 19.105469 42.667969 42.667969zm-42.667969-59.734375c-8.757812.007812-17.40625 1.960937-25.320312 5.710937 1.390624-12.941406 12.308593-22.75 25.320312-22.75s23.929688 9.808594 25.320312 22.75c-7.914062-3.75-16.5625-5.703125-25.320312-5.710937zm0-34.132813c-2.867188-.003906-5.726562.285156-8.535156.855469v-19.132813c5.574218 1.613282 11.496094 1.613282 17.070312 0v19.132813c-2.808594-.570313-5.667968-.859375-8.535156-.855469zm25.265625-114.011718c0-.113282-.082031-.207032-.109375-.316407-.132812-.566406-.324219-1.113281-.570312-1.640625-.246094-.457031-.53125-.890625-.855469-1.296875-.613281-.890625-1.4375-1.613281-2.398438-2.105469-.476562-.300781-.980469-.550781-1.507812-.742187-.53125-.164063-1.074219-.269531-1.621094-.324219-.375-.101562-.753906-.175781-1.136719-.222656-.203125 0-.375.101562-.578125.117188-.207031.019531-.394531-.066407-.597656-.042969-10.542969 1.488281-21.238281 1.488281-31.78125 0-.203125 0-.390625.054687-.597656.042969-.203125-.007813-.375-.117188-.578125-.117188-.382813.046875-.761719.121094-1.136719.230469-.539063.054687-1.074219.160156-1.59375.316406-.527344.191406-1.035156.441406-1.511719.742187-.457031.238282-.894531.527344-1.296875.851563-.402343.363281-.765625.765625-1.082031 1.203125-.351562.414062-.652344.863281-.90625 1.339844-.238281.515625-.425781 1.054687-.5625 1.605468 0 .109376-.085938.210938-.109375.332032-12.210937-3.25-17.066406-7.917969-17.316406-9.523438 0-.136718-.042969-.273437-.066407-.410156.597657-3.472656 15.230469-12.585938 42.664063-12.585938 27.25 0 41.875 9.011719 42.667969 12.65625l-.050782.339844c-.273437 1.628906-5.164062 6.296875-17.367187 9.550782zm30.660156-20.867188c-8.941406-12.3125-32.511719-18.722656-55.925781-18.722656s-46.984375 6.410156-55.925781 18.722656c-43.476563-25.28125-64.585938-76.582031-51.496094-125.140625 13.09375-48.558594 57.128906-82.292969 107.421875-82.292969s94.328125 33.734375 107.421875 82.292969c13.089844 48.558594-8.019531 99.859375-51.496094 125.140625zm131.808594 73.933594c5.574219 1.617187 11.492187 1.617187 17.066406 0v61.800781c-5.632812-1.152344-11.4375-1.152344-17.066406 0zm8.53125 78.011718c13.007813.039063 23.90625 9.847657 25.320313 22.777344-16.023438-7.613281-34.617188-7.613281-50.636719 0 1.410156-12.929687 12.3125-22.738281 25.316406-22.777344zm25.601563 76.800782v-8.535156c0-4.710938-3.820313-8.53125-8.535157-8.53125-4.710937 0-8.53125 3.820312-8.53125 8.53125v8.535156h-17.066406v-8.535156c0-4.710938-3.820313-8.53125-8.535156-8.53125-4.710938 0-8.53125 3.820312-8.53125 8.53125v8.535156h-17.066407c0-23.5625 19.101563-42.667969 42.664063-42.667969 23.566406 0 42.667969 19.105469 42.667969 42.667969zm0 0"/><path d="m226.132812 93.867188c-35.34375 0-64 28.652343-64 64 0 35.34375 28.65625 64 64 64 35.347657 0 64-28.65625 64-64-.035156-35.332032-28.667968-63.964844-64-64zm0 110.933593c-25.921874 0-46.933593-21.011719-46.933593-46.933593 0-25.921876 21.011719-46.933594 46.933593-46.933594 25.921876 0 46.933594 21.011718 46.933594 46.933594-.027344 25.910156-21.023437 46.90625-46.933594 46.933593zm0 0"/><path d="m221.867188 136.535156c-14.140626 0-25.601563 11.460938-25.601563 25.597656 0 14.140626 11.460937 25.601563 25.601563 25.601563 14.136718 0 25.597656-11.460937 25.597656-25.601563 0-14.136718-11.460938-25.597656-25.597656-25.597656zm0 34.132813c-4.714844 0-8.535157-3.820313-8.535157-8.535157 0-4.710937 3.820313-8.53125 8.535157-8.53125 4.710937 0 8.53125 3.820313 8.53125 8.53125 0 4.714844-3.820313 8.535157-8.53125 8.535157zm0 0"/><path d="m340.480469 132.71875c-2.105469-4.21875-7.234375-5.929688-11.453125-3.824219-4.21875 2.109375-5.929688 7.234375-3.820313 11.453125 22.398438 44.800782-13.707031 82.234375-15.464843 84.019532-2.21875 2.140624-3.105469 5.316406-2.328126 8.296874.78125 2.984376 3.113282 5.316407 6.097657 6.097657 2.980469.777343 6.15625-.109375 8.296875-2.328125.425781-.46875 46.652344-47.660156 18.671875-103.714844zm0 0"/></svg>