<svg height="512pt" viewBox="-17 0 512 512" width="512pt" xmlns="http://www.w3.org/2000/svg"><path d="m98.132812 153.601562c0 4.710938-3.820312 8.53125-8.53125 8.53125h-68.269531c-3.035156.011719-5.84375-1.621093-7.335937-4.265624-.78125-1.285157-1.195313-2.761719-1.195313-4.265626v-17.066406c0-28.277344 22.921875-51.203125 51.199219-51.203125h17.066406c4.714844 0 8.535156 3.820313 8.535156 8.535157zm0 0" fill="#37474f"/><path d="m76.800781 149.332031c0 4.714844-3.820312 8.535157-8.535156 8.535157h-54.269531c-.78125-1.285157-1.195313-2.761719-1.195313-4.265626v-17.066406c0-28.277344 22.921875-51.203125 51.199219-51.203125h3.070312c.78125 1.289063 1.195313 2.761719 1.195313 4.269531zm0 0" fill="#607d8b"/><path d="m89.601562 247.464844-42.667968-17.066406-8.535156-68.265626h51.203124zm0 0" fill="#424242"/><path d="m97.367188 321.878906-8.707032 14.933594-38.226562 4.179688-1.28125-2.21875-11.09375-19.625c-5.308594-13.328126-6.296875-27.984376-2.816406-41.902344l9.726562-39.082032 1.964844-7.765624 42.667968 17.066406 9.128907 27.480468c5.109375 15.3125 4.625 31.941407-1.363281 46.933594zm0 0" fill="#37474f"/><path d="m76.03125 321.878906-8.703125 14.933594-18.175781 1.960938-11.09375-19.625c-5.308594-13.328126-6.296875-27.984376-2.816406-41.902344l9.726562-39.082032 23.296875 9.300782 9.132813 27.480468c5.105468 15.3125 4.625 31.941407-1.367188 46.933594zm0 0" fill="#607d8b"/><path d="m98.132812 153.601562h32.425782l-6.824219-59.734374h-34.132813zm0 0" fill="#424242"/><path d="m107.734375 366.933594c-.011719 20.613281-16.71875 37.324218-37.335937 37.332031-4.460938.011719-8.890626-.796875-13.0625-2.386719-14.59375-5.4375-24.273438-19.371094-24.273438-34.945312 0-15.574219 9.679688-29.507813 24.273438-34.945313 4.171874-1.589843 8.601562-2.398437 13.0625-2.386719 20.617187.007813 37.324218 16.71875 37.335937 37.332032zm0 0" fill="#9e9e9e"/><path d="m83.199219 366.933594c0-22.054688-12.414063-39.9375-27.734375-39.9375-15.316406 0-27.730469 17.882812-27.730469 39.9375 0 22.054687 12.414063 39.9375 27.730469 39.9375 15.320312 0 27.734375-17.882813 27.734375-39.9375zm0 0" fill="#cfd8dc"/><path d="m465.066406 136.535156v17.066406c0 4.710938-3.820312 8.53125-8.53125 8.53125h-68.269531c-4.710937 0-8.53125-3.820312-8.53125-8.53125l8.53125-59.734374c0-4.714844 3.820313-8.535157 8.535156-8.535157h17.066407c28.277343 0 51.199218 22.925781 51.199218 51.203125zm0 0" fill="#37474f"/><path d="m452.265625 136.535156v17.066406c0 4.710938-3.820313 8.53125-8.53125 8.53125h-55.46875c-4.710937 0-8.53125-3.820312-8.53125-8.53125l8.53125-59.734374c0-4.714844 3.820313-8.535157 8.535156-8.535157h4.265625c28.277344 0 51.199219 22.925781 51.199219 51.203125zm0 0" fill="#607d8b"/><path d="m388.265625 247.464844 42.667969-17.066406 8.53125-68.265626h-51.199219zm0 0" fill="#424242"/><path d="m439.808594 319.148438-8.875 22.183593h-42.667969l-7.765625-19.453125c-5.988281-14.992187-6.472656-31.621094-1.363281-46.933594l9.128906-27.480468 31.0625-12.371094 11.605469-4.695312 11.691406 46.847656c3.476562 13.917968 2.492188 28.574218-2.816406 41.902344zm0 0" fill="#37474f"/><path d="m427.007812 319.148438-8.875 22.183593h-29.867187l-7.765625-19.453125c-5.988281-14.992187-6.472656-31.621094-1.363281-46.933594l9.128906-27.480468 31.0625-12.371094 10.496094 42.152344c3.480469 13.917968 2.492187 28.574218-2.816407 41.902344zm0 0" fill="#607d8b"/><path d="m379.734375 153.601562h-32.425781l6.824218-59.734374h34.132813zm0 0" fill="#424242"/><path d="m449.960938 369.238281c.003906 9.257813-3.671876 18.132813-10.21875 24.679688-6.546876 6.546875-15.421876 10.222656-24.679688 10.21875-4.386719.023437-8.738281-.820313-12.800781-2.472657-13.332031-5.238281-22.097657-18.105468-22.097657-32.425781 0-14.324219 8.765626-27.1875 22.097657-32.425781 4.0625-1.65625 8.414062-2.496094 12.800781-2.476562 9.257812-.003907 18.132812 3.675781 24.679688 10.21875 6.546874 6.546874 10.222656 15.425781 10.21875 24.683593zm0 0" fill="#9e9e9e"/><path d="m424.363281 369.238281c.03125 14.332031-8.746093 27.214844-22.101562 32.425781-13.332031-5.238281-22.097657-18.105468-22.097657-32.425781 0-14.324219 8.765626-27.1875 22.097657-32.425781 13.355469 5.207031 22.132812 18.089844 22.101562 32.425781zm0 0" fill="#fff"/><g fill="#9e9e9e"><path d="m157.867188 368.894531h34.132812v45.3125h-34.132812zm0 0"/><path d="m157.867188 330.835938v-37.144532c0-2.953125 1.527343-5.695312 4.035156-7.253906l21.5625-13.371094 8.535156 15.871094v41.898438zm0 0"/><path d="m320 330.835938v-37.144532c0-2.953125-1.527344-5.695312-4.035156-7.253906l-21.566406-13.371094-8.53125 15.871094v41.898438zm0 0"/><path d="m285.867188 368.894531h34.132812v45.3125h-34.132812zm0 0"/></g><path d="m328.535156 349.867188c0 14.136718-11.464844 25.597656-25.601562 25.597656-2.164063.023437-4.320313-.265625-6.398438-.851563-11.300781-2.898437-19.199218-13.082031-19.199218-24.746093 0-11.664063 7.898437-21.847657 19.199218-24.746094 2.078125-.589844 4.234375-.875 6.398438-.855469 14.136718 0 25.601562 11.460937 25.601562 25.601563zm0 0" fill="#37474f"/><path d="m290.132812 85.332031h-110.933593c-.027344-9.816406 1.351562-19.585937 4.097656-29.011719 6.996094-23.636718 22.1875-41.386718 40.703125-46.25 3.460938-1.03125 7.054688-1.546874 10.667969-1.535156 23.210937 0 43.09375 19.710938 51.371093 47.785156 2.742188 9.425782 4.121094 19.195313 4.09375 29.011719zm0 0" fill="#37474f"/><path d="m268.800781 85.332031h-89.601562c-.027344-9.816406 1.351562-19.585937 4.097656-29.011719 6.996094-23.636718 22.1875-41.386718 40.703125-46.25 18.515625 4.863282 33.707031 22.613282 40.703125 46.25 2.746094 9.425782 4.125 19.195313 4.097656 29.011719zm0 0" fill="#607d8b"/><path d="m311.980469 229.972656-20.542969 56.566406c-.828125 2.285157-2.597656 4.109376-4.855469 5.011719l-30.582031 12.234375h-34.132812l-30.585938-12.234375c-2.257812-.902343-4.023438-2.726562-4.855469-5.011719l-20.539062-56.566406 38.914062-16.640625h68.265625zm0 0" fill="#424242"/><path d="m215.039062 154.027344c1.019532 2.953125 2.644532 5.65625 4.78125 7.933594-4.738281-.300782-9.277343-1.992188-13.058593-4.863282zm0 0" fill="#424242"/><path d="m349.867188 170.667969-24.234376 24.234375c-.914062.882812-1.613281 1.960937-2.046874 3.15625l-11.605469 31.914062-35.671875-15.273437c-2.128906-.917969-4.421875-1.382813-6.742188-1.367188h-22.101562c0-4.710937-3.820313-8.53125-8.53125-8.53125h13.566406c2.320312-.019531 4.613281.445313 6.742188 1.363281l35.667968 15.277344 11.605469-31.917968c.4375-1.191407 1.136719-2.269532 2.050781-3.15625l15.699219-15.699219zm0 0" fill="#424242"/><path d="m324.265625 170.667969-15.699219 15.699219c-.914062.886718-1.613281 1.964843-2.050781 3.15625l-11.605469 31.917968-35.667968-15.277344c-2.128907-.917968-4.421876-1.382812-6.742188-1.363281h-13.566406c-4.714844 0-8.535156 3.820313-8.535156 8.53125h-22.101563c-2.316406-.015625-4.613281.449219-6.738281 1.367188l-35.671875 15.273437-4.949219-13.738281-6.65625-18.175781c-.433594-1.195313-1.132812-2.273438-2.046875-3.15625l-24.234375-24.234375h42.667969l36.09375-13.570313c3.78125 2.871094 8.320312 4.5625 13.058593 4.863282 4.773438 5.582031 11.769532 8.769531 19.113282 8.707031 10.675781.042969 20.234375-6.613281 23.894531-16.640625l44.371094 16.640625zm0 0" fill="#9e9e9e"/><path d="m332.800781 162.132812-8.535156 8.535157h-17.066406l-44.371094-16.640625c-3.660156 10.027344-13.21875 16.683594-23.894531 16.640625-7.34375.0625-14.339844-3.125-19.113282-8.707031.671876.144531 1.359376.199218 2.046876.171874 10.675781.046876 20.234374-6.609374 23.894531-16.640624l44.371093 16.640624zm0 0" fill="#424242"/><path d="m348.929688 85.332031h-17.066407c2.417969.011719 4.722657 1.046875 6.332031 2.855469 1.613282 1.804688 2.378907 4.210938 2.113282 6.617188l-5.800782 58.796874-1.707031 17.066407h17.066407l1.707031-17.066407 5.800781-58.796874c.265625-2.40625-.5-4.8125-2.113281-6.617188-1.609375-1.808594-3.914063-2.84375-6.332031-2.855469zm0 0" fill="#9e9e9e"/><path d="m179.199219 110.933594h-17.066407c4.714844 0 8.535157 3.820312 8.535157 8.53125 0 4.714844-3.820313 8.535156-8.535157 8.535156h17.066407c4.714843 0 8.535156-3.820312 8.535156-8.535156 0-4.710938-3.820313-8.53125-8.535156-8.53125zm125.097656 58.625-41.46875-15.53125c1.136719-2.851563 1.71875-5.890625 1.707031-8.960938 0-14.136718-11.464844-25.601562-25.601562-25.601562-2.914063-.015625-5.808594.503906-8.535156 1.539062 10.257812 3.535156 17.121093 13.214844 17.066406 24.0625.011718 3.070313-.566406 6.109375-1.703125 8.960938l41.46875 15.53125c1.902343.75 3.929687 1.128906 5.976562 1.109375h17.066407c-2.046876.019531-4.074219-.359375-5.976563-1.109375zm0 0" fill="#9e9e9e"/><path d="m331.863281 85.332031h-202.925781c-2.417969.011719-4.722656 1.046875-6.332031 2.855469-1.613281 1.804688-2.382813 4.210938-2.113281 6.617188l5.800781 58.796874 1.707031 17.066407h39.59375c2.046875.019531 4.074219-.359375 5.972656-1.109375l41.472656-15.53125c-1.136718-2.851563-1.71875-5.890625-1.707031-8.960938-.050781-10.847656 6.8125-20.527344 17.066407-24.0625 2.726562-1.035156 5.621093-1.554687 8.535156-1.539062 14.136718 0 25.601562 11.464844 25.601562 25.601562.011719 3.070313-.570312 6.109375-1.707031 8.960938l41.46875 15.53125c1.902344.75 3.929687 1.128906 5.976563 1.109375h22.527343l1.707031-17.066407 5.800782-58.796874c.265625-2.40625-.5-4.8125-2.113282-6.617188-1.609374-1.808594-3.914062-2.84375-6.332031-2.855469zm-169.730469 25.601563h17.066407c4.714843 0 8.535156 3.820312 8.535156 8.53125 0 4.714844-3.820313 8.535156-8.535156 8.535156h-17.066407c-4.710937 0-8.53125-3.820312-8.53125-8.535156 0-4.710938 3.820313-8.53125 8.53125-8.53125zm0 0" fill="#cfd8dc"/><path d="m264.535156 145.066406c.011719 3.070313-.570312 6.109375-1.707031 8.960938-3.660156 10.027344-13.21875 16.683594-23.894531 16.640625-2.90625.003906-5.792969-.488281-8.535156-1.453125-7.148438-2.484375-12.792969-8.066406-15.359376-15.1875-1.136718-2.851563-1.71875-5.890625-1.707031-8.960938-.050781-10.847656 6.8125-20.527344 17.066407-24.0625 2.726562-1.035156 5.621093-1.554687 8.535156-1.539062 14.136718 0 25.601562 11.464844 25.601562 25.601562zm0 0" fill="#c52828"/><path d="m247.464844 145.066406c.011718 3.070313-.566406 6.109375-1.703125 8.960938-2.566407 7.121094-8.210938 12.703125-15.363281 15.1875-7.148438-2.484375-12.792969-8.066406-15.359376-15.1875-1.136718-2.851563-1.71875-5.890625-1.707031-8.960938-.050781-10.847656 6.8125-20.527344 17.066407-24.0625 10.257812 3.535156 17.121093 13.214844 17.066406 24.0625zm0 0" fill="#f44335"/><path d="m183.296875 56.320312c-2.746094 9.425782-4.125 19.195313-4.097656 29.011719h-33.621094l-17.152344-17.492187 33.367188-33.363282zm0 0" fill="#9e9e9e"/><path d="m161.792969 34.476562-33.367188 33.363282-4.265625-4.265625-18.433594-18.859375c-1.757812-1.773438-2.738281-4.175782-2.722656-6.675782.015625-2.496093 1.027344-4.886718 2.808594-6.636718l13.484375-13.226563 6.742187-6.570312c1.796876-1.757813 4.21875-2.730469 6.730469-2.699219 2.515625.035156 4.914063 1.066406 6.664063 2.871094zm0 0" fill="#9e9e9e"/><path d="m144.726562 43.007812-20.566406 20.566407-18.433594-18.859375c-1.757812-1.773438-2.738281-4.175782-2.722656-6.675782.015625-2.496093 1.027344-4.886718 2.808594-6.636718l13.484375-13.226563c1.144531.523438 2.183594 1.246094 3.070313 2.132813zm0 0" fill="#cfd8dc"/><path d="m340.90625 67.839844-17.152344 17.492187h-33.621094c.027344-9.816406-1.351562-19.585937-4.09375-29.011719l21.503907-21.84375zm0 0" fill="#9e9e9e"/><path d="m363.605469 44.714844-18.433594 18.859375-4.265625 4.265625-33.363281-33.363282 22.355469-22.699218c1.75-1.804688 4.148437-2.835938 6.664062-2.871094 2.511719-.03125 4.9375.941406 6.734375 2.699219l6.742187 6.570312 13.480469 13.226563c1.785157 1.75 2.796875 4.140625 2.8125 6.636718.015625 2.5-.964843 4.902344-2.726562 6.675782zm0 0" fill="#9e9e9e"/><path d="m363.605469 44.714844-18.433594 18.859375-20.5625-20.566407 22.355469-22.699218c.886718-.886719 1.929687-1.609375 3.074218-2.132813l13.480469 13.226563c1.785157 1.75 2.796875 4.140625 2.8125 6.636718.015625 2.5-.964843 4.902344-2.726562 6.675782zm0 0" fill="#cfd8dc"/><path d="m200.535156 349.867188c0 14.136718-11.464844 25.597656-25.601562 25.597656-3.691406.011718-7.332032-.804688-10.667969-2.386719-9.09375-4.144531-14.929687-13.21875-14.929687-23.210937 0-9.996094 5.835937-19.066407 14.929687-23.210938 3.335937-1.582031 6.976563-2.398438 10.667969-2.390625 14.136718 0 25.601562 11.460937 25.601562 25.601563zm0 0" fill="#37474f"/><path d="m315.734375 349.867188c.027344 11.675781-7.882813 21.875-19.199219 24.746093-11.300781-2.898437-19.199218-13.082031-19.199218-24.746093 0-11.664063 7.898437-21.847657 19.199218-24.746094 11.316406 2.871094 19.226563 13.070312 19.199219 24.746094zm0 0" fill="#607d8b"/><path d="m179.199219 349.867188c.023437 10-5.824219 19.085937-14.933594 23.210937-9.09375-4.144531-14.929687-13.21875-14.929687-23.210937 0-9.996094 5.835937-19.066407 14.929687-23.210938 9.109375 4.125 14.957031 13.210938 14.933594 23.210938zm0 0" fill="#607d8b"/><path d="m207.105469 455.082031c1.304687-3.640625 1.96875-7.480469 1.960937-11.347656 0-18.851563-15.28125-34.132813-34.132812-34.132813-18.851563 0-34.132813 15.28125-34.132813 34.132813-.007812 3.867187.65625 7.707031 1.960938 11.347656zm0 0" fill="#424242"/><path d="m335.105469 455.082031c1.304687-3.640625 1.96875-7.480469 1.960937-11.347656 0-18.851563-15.28125-34.132813-34.132812-34.132813-18.851563 0-34.132813 15.28125-34.132813 34.132813-.007812 3.867187.65625 7.707031 1.960938 11.347656zm0 0" fill="#424242"/><path d="m226.132812 494.933594c0 4.710937-3.820312 8.53125-8.53125 8.53125h-85.335937c-4.710937 0-8.53125-3.820313-8.53125-8.53125-.042969-13.585938 5.367187-26.617188 15.019531-36.179688 6.941406-7.058594 15.820313-11.898437 25.511719-13.910156 3.503906-.761719 7.082031-1.136719 10.667969-1.109375 28.257812.042969 51.15625 22.941406 51.199218 51.199219zm0 0" fill="#9e9e9e"/><path d="m354.132812 494.933594c0 4.710937-3.820312 8.53125-8.53125 8.53125h-85.335937c-4.710937 0-8.53125-3.820313-8.53125-8.53125-.042969-13.585938 5.367187-26.617188 15.019531-36.179688 7.984375-8.101562 18.484375-13.246094 29.78125-14.59375 2.121094-.269531 4.257813-.410156 6.398438-.425781 28.257812.042969 51.15625 22.941406 51.199218 51.199219zm0 0" fill="#9e9e9e"/><path d="m204.800781 494.933594c0 4.710937-3.820312 8.53125-8.535156 8.53125h-64c-4.710937 0-8.53125-3.820313-8.53125-8.53125-.042969-13.585938 5.367187-26.617188 15.019531-36.179688 6.941406-7.058594 15.820313-11.898437 25.511719-13.910156 9.691406 2.011719 18.570313 6.851562 25.515625 13.910156 9.648438 9.5625 15.058594 22.59375 15.019531 36.179688zm0 0" fill="#cfd8dc"/><path d="m341.332031 494.933594c0 4.710937-3.820312 8.53125-8.53125 8.53125h-72.535156c-4.710937 0-8.53125-3.820313-8.53125-8.53125-.042969-13.585938 5.367187-26.617188 15.019531-36.179688 7.984375-8.101562 18.484375-13.246094 29.78125-14.59375 11.292969 1.347656 21.792969 6.492188 29.78125 14.59375 9.648438 9.5625 15.058594 22.59375 15.015625 36.179688zm0 0" fill="#cfd8dc"/><path d="m247.464844 332.800781h-17.066406c-4.710938 0-8.53125-3.820312-8.53125-8.535156v-51.199219c0-4.710937 3.820312-8.53125 8.53125-8.53125h17.066406c4.714844 0 8.535156 3.820313 8.535156 8.53125v51.199219c0 4.714844-3.820312 8.535156-8.535156 8.535156zm0 0" fill="#9e9e9e"/><path d="m76.800781 366.933594c0 4.710937-3.820312 8.53125-8.535156 8.53125-4.710937 0-8.53125-3.820313-8.53125-8.53125 0-4.714844 3.820313-8.535156 8.53125-8.535156 4.714844 0 8.535156 3.820312 8.535156 8.535156zm0 0"/><path d="m0 153.601562c0 9.425782 7.640625 17.066407 17.066406 17.066407h9.53125l7.398438 59.195312-11.296875 45.300781c-3.953125 15.652344-2.847657 32.15625 3.15625 47.140626.152343.359374.320312.710937.511719 1.050781l9.292968 16.398437c-2.785156 3.226563-5.0625 6.859375-6.757812 10.769532l-8.003906-4.019532c-4.214844-2.121094-9.347657-.425781-11.46875 3.789063-2.121094 4.214843-.425782 9.347656 3.789062 11.46875l12.476562 6.265625c.105469 5.183594 1.164063 10.300781 3.121094 15.101562l-8.53125 2.851563c-3.988281 1.324219-6.417968 5.351562-5.730468 9.492187.6875 4.144532 4.285156 7.171875 8.484374 7.136719.925782 0 1.839844-.152344 2.714844-.449219l13.15625-4.40625c3.765625 3.609375 8.15625 6.503906 12.957032 8.535156l-4.03125 8.003907c-2.117188 4.214843-.421876 9.347656 3.789062 11.46875 4.214844 2.121093 9.351562.425781 11.46875-3.789063l6.265625-12.476562c5.183594-.105469 10.300781-1.164063 15.105469-3.121094l2.839844 8.53125c1.496093 4.480469 6.339843 6.894531 10.816406 5.398438 4.476562-1.496094 6.894531-6.339844 5.398437-10.816407l-4.414062-13.15625c3.609375-3.761719 6.5-8.148437 8.535156-12.945312l8.003906 4.019531c2.726563 1.371094 5.976563 1.183594 8.527344-.492188 2.550781-1.671874 4.011719-4.582031 3.839844-7.625-.175781-3.046874-1.960938-5.769531-4.6875-7.140624l-12.476563-6.265626c-.109375-5.183593-1.167968-10.300781-3.121094-15.101562l8.53125-2.851562c4.476563-1.496094 6.894532-6.339844 5.398438-10.816407-1.496094-4.476562-6.339844-6.894531-10.816406-5.398437l-13.160156 4.40625c-.621094-.589844-1.328126-1.078125-1.988282-1.632813l4.839844-8.300781c.214844-.367188.398438-.75.554688-1.144531 6.726562-16.859375 7.273437-35.554688 1.542968-52.777344l-8.761718-26.191406v-77.78125c2.546874-1.488281 4.667968-3.609375 6.160156-6.160157h18.585937l.929688 9.386719c.09375.585938.253906 1.15625.46875 1.707031.101562.316407.128906.640626.257812.9375.417969.921876.996094 1.765626 1.707031 2.484376l.066407.085937 24.253906 24.25 24.480469 67.328125-17.570313 10.898438c-5.035156 3.097656-8.09375 8.59375-8.070312 14.507812v33.832031c-11.378907 12.722657-11.378907 31.960938 0 44.683594v37.613281c-10.726563 7.96875-17.074219 20.523438-17.136719 33.886719.027344 2.867187.351562 5.726563.964844 8.53125-11.527344 11.203125-18.03125 26.59375-18.03125 42.667969 0 9.425781 7.640625 17.066406 17.066406 17.066406h85.332031c9.425781 0 17.066407-7.640625 17.066407-17.066406 0-16.074219-6.503907-31.464844-18.03125-42.667969.613281-2.804687.9375-5.664063.964843-8.53125-.039062-13.359375-6.359375-25.921875-17.066406-33.914063v-37.613281c11.378906-12.71875 11.378906-31.960937 0-44.679687v-24.789063l17.066406 6.824219v14.703125c0 9.425781 7.640625 17.066406 17.066407 17.066406h17.066406c4.527344 0 8.871094-1.796875 12.070312-4.996093 3.199219-3.203126 5-7.542969 5-12.070313v-14.703125l17.066406-6.824219v24.789063c-11.378906 12.71875-11.378906 31.960937 0 44.679687v37.613281c-10.707031 7.992188-17.03125 20.554688-17.066406 33.914063.027344 2.867187.347656 5.726563.960938 8.53125-11.523438 11.203125-18.027344 26.59375-18.03125 42.667969 0 9.425781 7.644531 17.066406 17.070312 17.066406h85.332032c9.425781 0 17.066406-7.640625 17.066406-17.066406-.003906-16.074219-6.503906-31.464844-18.03125-42.667969.613281-2.804687.9375-5.664063.964844-8.53125-.039063-13.359375-6.363282-25.921875-17.066407-33.914063v-37.613281c11.375-12.71875 11.375-31.960937 0-44.679687v-32.828125c0-5.707031-2.855469-11.035157-7.605469-14.199219l-18.089843-12.066406 24.535156-67.472656 24.25-24.253907.070313-.085937c.710937-.71875 1.289062-1.558594 1.707031-2.480469.101562-.308594.1875-.621094.253906-.941406.21875-.539063.378906-1.105469.476563-1.679688l.855468-9.386719h18.550782c1.492187 2.550782 3.613281 4.671876 6.160156 6.160157v77.800781l-8.675782 26.121094c-5.742187 17.230468-5.199218 35.941406 1.535157 52.8125l7.78125 19.453125c.410156.949219.988281 1.816406 1.707031 2.5625-11.039062 13.945312-10.175781 33.878906 2.023438 46.820312l-17.640626 26.453125c-2.25 3.382813-1.804687 7.886719 1.066407 10.761719l18.621093 18.621094c3.347657 3.234375 8.671876 3.1875 11.960938-.105469 3.292969-3.292969 3.339844-8.613281.105469-11.960938l-13.652344-13.652343 13.746094-20.652344c8.050781 3.128906 16.980469 3.128906 25.027343 0l13.75 20.652344-13.65625 13.652343c-2.21875 2.140626-3.105468 5.3125-2.324218 8.296876.777344 2.984374 3.109375 5.316406 6.09375 6.09375 2.980468.78125 6.15625-.105469 8.296875-2.324219l18.621093-18.621094c2.871094-2.875 3.320313-7.378906 1.066407-10.761719l-17.628907-26.453125c12.722657-13.488281 13.054688-34.453125.765626-48.339843.230468-.339844.441406-.691407.625-1.058594l8.863281-22.1875c6.03125-14.980469 7.148437-31.488282 3.203125-47.144532l-11.332032-45.304687 7.355469-59.160156h9.53125c9.425781 0 17.066407-7.640625 17.066407-17.066407v-17.066406c-.039063-32.976562-26.757813-59.699218-59.734376-59.734375h-17.066406c-6.066406.015625-11.664062 3.269531-14.6875 8.53125h-22.707031c-3.046875-5.277343-8.675781-8.527343-14.769531-8.53125h-4.796875l25.601562-26.128906c3.335938-3.390625 5.191407-7.96875 5.152344-12.726563-.042969-4.757812-1.972656-9.300781-5.367187-12.636718l-20.144532-19.746094c-3.335937-3.34375-7.871094-5.214844-12.597656-5.195312h-.117188c-4.820312.007812-9.4375 1.957031-12.800781 5.410156l-22.289062 22.65625-12.324219 12.527344c-11.253906-24.515626-31.460938-40.960938-54.550781-40.960938-23.09375 0-43.289063 16.425781-54.546875 40.960938l-34.578125-35.148438c-3.359375-3.460938-7.972657-5.421875-12.796875-5.4375h-.136719c-4.699219-.03125-9.21875 1.8125-12.554687 5.121094l-20.214844 19.796875c-3.414063 3.3125-5.351563 7.863281-5.375 12.621093-.070313 4.777344 1.773437 9.386719 5.121094 12.800782l25.964843 26.453125c-4.78125.964843-8.917969 3.941406-11.359375 8.164062h-22.707031c-3.019531-5.261719-8.617187-8.515625-14.683594-8.53125h-17.066406c-32.976563.035157-59.6953125 26.757813-59.734375 59.734375zm76.800781 81.261719-26.292969-10.523437-6.707031-53.671875h33zm-34.132812 132.070313c0-14.140625 11.460937-25.601563 25.597656-25.601563 14.140625 0 25.601563 11.460938 25.601563 25.601563 0 14.136718-11.460938 25.601562-25.601563 25.601562-14.136719 0-25.597656-11.464844-25.597656-25.601562zm25.597656-42.667969c-6.648437.046875-13.191406 1.664063-19.097656 4.71875l-7.679688-13.515625c-4.496093-11.523438-5.277343-24.164062-2.234375-36.15625l9.308594-37.359375 29.867188 11.949219 7.894531 23.738281c4.394531 13.199219 4.050781 27.515625-.972657 40.492187l-4.769531 8.164063c-3.980469-1.289063-8.132812-1.972656-12.316406-2.03125zm33.007813-179.199219-6.101563-42.667968h17.46875l4.265625 42.667968zm120.59375 0c0-9.425781 7.640624-17.066406 17.066406-17.066406 9.425781 0 17.066406 7.640625 17.066406 17.066406-.015625 2-.390625 3.984375-1.101562 5.855469l-.066407.109375v.214844c-2.527343 6.5625-8.832031 10.890625-15.863281 10.890625s-13.339844-4.328125-15.863281-10.890625c0-.070313 0-.144532 0-.214844l-.070313-.109375c-.734375-1.867187-1.128906-3.851563-1.167968-5.855469zm17.066406 34.132813c11.109375-.023438 21.515625-5.453125 27.886718-14.558594l37.375 14.023437c.960938.355469 1.980469.535157 3.003907.535157h22.066406l-11.03125 11.035156c-.886719.875-1.5625 1.941406-1.980469 3.113281l-9.183594 25.25-30.640624-13.105468c-1.0625-.457032-2.207032-.695313-3.363282-.691407h-68.265625c-1.15625-.003906-2.300781.234375-3.363281.691407l-30.644531 13.105468-9.179688-25.25c-.417969-1.171875-1.09375-2.238281-1.980469-3.113281l-11.035156-11.035156h22.070313c1.023437 0 2.042969-.179688 3.003906-.535157l37.375-14.023437c6.371094 9.105469 16.777344 14.535156 27.886719 14.558594zm-85.332032 170.667969c0-9.425782 7.640626-17.066407 17.066407-17.066407s17.066406 7.640625 17.066406 17.066407c0 9.425781-7.640625 17.066406-17.066406 17.066406s-17.066407-7.640625-17.066407-17.066406zm23.039063-65.1875 2.558594 6.945312v25.320312c-5.574219-1.617187-11.492188-1.617187-17.066407 0v-23.253906zm36.691406 210.253906h-85.332031c0-23.5625 19.101562-42.667969 42.667969-42.667969 23.5625 0 42.664062 19.105469 42.664062 42.667969zm-42.664062-59.734375c-8.757813.007812-17.40625 1.960937-25.320313 5.710937 1.386719-12.941406 12.304688-22.75 25.320313-22.75 13.011719 0 23.929687 9.808594 25.316406 22.75-7.914063-3.75-16.558594-5.703125-25.316406-5.710937zm0-34.132813c-2.867188-.003906-5.726563.285156-8.535157.855469v-19.132813c5.574219 1.613282 11.492188 1.613282 17.066407 0v19.132813c-2.808594-.570313-5.667969-.859375-8.53125-.855469zm23.78125-117.433594-17.808594-48.964843 29.867187-12.800781h23.890626v34.132812c-9.425782 0-17.066407 7.640625-17.066407 17.066406v18.117188zm35.949219 40.632813v-51.199219h17.066406v51.199219zm17.066406-68.265625v-34.132812h23.894531l29.867187 12.800781-17.808593 48.972656-18.882813 7.542969v-18.117188c0-9.425781-7.644531-17.066406-17.070312-17.066406zm76.800781 93.867188c0 9.425781-7.640625 17.066406-17.066406 17.066406s-17.066407-7.640625-17.066407-17.066406c0-9.425782 7.640626-17.066407 17.066407-17.066407s17.066406 7.640625 17.066406 17.066407zm25.601563 145.066406h-85.332032c0-23.5625 19.101563-42.667969 42.664063-42.667969 23.566406 0 42.667969 19.105469 42.667969 42.667969zm-42.667969-59.734375c-8.757813.007812-17.402344 1.960937-25.316407 5.710937 1.386719-12.941406 12.304688-22.75 25.316407-22.75s23.933593 9.808594 25.320312 22.75c-7.914062-3.75-16.5625-5.703125-25.320312-5.710937zm0-34.132813c-2.863281-.003906-5.722657.285156-8.53125.855469v-19.132813c5.574219 1.613282 11.492187 1.613282 17.066406 0v19.132813c-2.808594-.570313-5.667969-.859375-8.535156-.855469zm8.535156-106.367187v22.246093c-5.574219-1.617187-11.492187-1.617187-17.066406 0v-25.320312l2.429687-6.679688zm49.492187-192.300781h17.492188l-6.101562 42.667968h-15.65625zm33.109376 230.402343-5.632813-14.082031c-5.242187-13.121094-5.671875-27.671875-1.210937-41.078125l7.910156-23.722656 29.917968-11.945313 9.292969 37.339844c3.074219 12.1875 2.203125 25.035156-2.492187 36.695312l-6.699219 16.792969zm-2.679688 36.460938c-.003906-10.710938 8.675781-19.398438 19.386719-19.402344 10.714843-.007813 19.402343 8.675781 19.40625 19.386719.003906 10.710937-8.675781 19.398437-19.386719 19.40625-10.71875.003906-19.414062-8.671875-19.429688-19.390625zm31.703125-144.921875-26.292969 10.523437v-64.195312h33zm-9.226563-130.472656c23.554688.027343 42.640626 19.113281 42.667969 42.667968v17.066406h-68.183593l8.363281-58.523437c.058593-.402344.085937-.804687.085937-1.210937zm-75.996093 68.265624h-33.382813l-36.046875-13.515624c.183594-1.175782.304688-2.363282.359375-3.550782 0-18.851562-15.28125-34.132812-34.132812-34.132812-18.851563 0-34.132813 15.28125-34.132813 34.132812.054688 1.1875.171875 2.375.359375 3.550782l-36.046875 13.515624h-33.382812l-6.765625-68.265624 219.929687.066406zm-6.128907-144.367187 1.347657-.066406 20.191406 19.847656c.160156.167969.246094.390625.238281.625-.007812.230469-.109375.449219-.28125.605469l-16.621094 16.945312-21.335937-21.289062zm-28.390624 28.828125 21.335937 21.332031-8.757813 8.875h-21.851562c-.453125-6.042969-1.40625-12.035156-2.851562-17.921875zm-72.949219-29.527344c23.890625 0 43.621093 26.113282 46.523437 59.734375h-93.015625c2.867188-33.621093 22.597657-59.734375 46.492188-59.734375zm-63.675781 59.734375h-21.839844l-8.71875-8.902343 21.332031-21.332032 12.082031 12.3125c-1.449218 5.882813-2.402344 11.878906-2.855468 17.921875zm-59.207032-39.296875 20.21875-19.804687c.203125 0 1.304688.074219 1.3125.066406l16.417969 16.667969-21.289063 21.332031-16.617187-17.007813c-.3125-.351562-.332031-.878906-.042969-1.253906zm-94.71875 99.03125c.027344-23.554687 19.113282-42.640625 42.667969-42.667968h17.066406c-.003906.40625.027344.808593.085938 1.210937l8.359375 58.523437h-68.179688zm0 0"/><path d="m221.867188 59.734375h25.597656c4.714844 0 8.535156-3.820313 8.535156-8.535156 0-4.710938-3.820312-8.53125-8.535156-8.53125h-25.597656c-4.714844 0-8.535157 3.820312-8.535157 8.53125 0 4.714843 3.820313 8.535156 8.535157 8.535156zm0 0"/><path d="m162.132812 128h17.066407c4.714843 0 8.535156-3.820312 8.535156-8.535156 0-4.710938-3.820313-8.53125-8.535156-8.53125h-17.066407c-4.710937 0-8.53125 3.820312-8.53125 8.53125 0 4.714844 3.820313 8.535156 8.53125 8.535156zm0 0"/></svg>