<svg height="511pt" viewBox="-6 0 511 511.99" width="511pt" xmlns="http://www.w3.org/2000/svg"><path d="m480.445312 411.125c0 14.140625-11.460937 25.601562-25.597656 25.601562-14.140625 0-25.601562-11.460937-25.601562-25.601562 0-14.136719 11.460937-25.597656 25.601562-25.597656 14.136719 0 25.597656 11.460937 25.597656 25.597656zm0 0" fill="#71c285"/><path d="m486.847656 428.191406c.019532 12.972656-7.78125 24.679688-19.761718 29.652344-11.984376 4.976562-25.78125 2.238281-34.953126-6.9375-9.175781-9.171875-11.914062-22.96875-6.9375-34.953125 4.972657-11.980469 16.679688-19.78125 29.652344-19.761719 17.671875.007813 31.996094 14.332032 32 32zm0 0" fill="#283593"/><path d="m445.203125 252.832031.425781-.171875 24.492188 73.132813-35.582032.339843-18.007812-51.539062zm0 0" fill="#2296f3"/><path d="m394.773438 265.121094c5.566406 6.066406 13.4375 9.507812 21.671874 9.472656h.085938c13.347656-.035156 25.050781-8.917969 28.671875-21.761719.722656-2.640625 1.09375-5.367187 1.109375-8.105469.011719-8.847656-3.933594-17.234374-10.75-22.871093l-40.023438 40.023437c-.292968.304688-.605468.589844-.9375.851563zm0 0" fill="#37474f"/><path d="m437.78125 330.058594h34.132812c9.425782 0 17.066407 7.640625 17.066407 17.066406v34.132812c0 9.425782-7.640625 17.066407-17.066407 17.066407h-34.132812c-9.425781 0-17.066406-7.640625-17.066406-17.066407v-34.132812c0-9.425781 7.640625-17.066406 17.066406-17.066406zm0 0" fill="#37474f"/><path d="m70.847656 411.125c0 14.140625-11.460937 25.601562-25.601562 25.601562-14.136719 0-25.597656-11.460937-25.597656-25.601562 0-14.136719 11.460937-25.597656 25.597656-25.597656 14.140625 0 25.601562 11.460937 25.601562 25.597656zm0 0" fill="#71c285"/><path d="m77.246094 428.191406c.019531 12.972656-7.78125 24.679688-19.761719 29.652344-11.980469 4.976562-25.78125 2.238281-34.953125-6.9375-9.171875-9.171875-11.910156-22.96875-6.9375-34.953125 4.972656-11.980469 16.679688-19.78125 29.652344-19.761719 17.671875.007813 31.996094 14.332032 32 32zm0 0" fill="#283593"/><path d="m461.246094 428.191406c0-16.210937-8.59375-29.351562-19.199219-29.351562s-19.199219 13.140625-19.199219 29.351562c0 16.214844 8.59375 29.355469 19.199219 29.355469s19.199219-13.140625 19.199219-29.355469zm0 0" fill="#3f51b5"/><path d="m51.648438 428.191406c0-16.210937-8.597657-29.351562-19.203126-29.351562-10.601562 0-19.199218 13.140625-19.199218 29.351562 0 16.214844 8.597656 29.355469 19.199218 29.355469 10.605469 0 19.203126-13.140625 19.203126-29.355469zm0 0" fill="#3f51b5"/><path d="m54.890625 252.832031-.429687-.171875-24.488282 73.132813 35.582032.339843 18.007812-51.539062zm0 0" fill="#2296f3"/><path d="m105.492188 262.730469c-.332032-.261719-.644532-.546875-.9375-.851563l-40.023438-40.023437c-6.816406 5.636719-10.761719 14.023437-10.75 22.871093.015625 2.738282.386719 5.464844 1.109375 8.105469 3.621094 12.84375 15.324219 21.726563 28.671875 21.761719h.085938c8.234374.035156 16.105468-3.40625 21.671874-9.472656zm0 0" fill="#37474f"/><path d="m28.179688 330.058594h34.132812c9.425781 0 17.066406 7.640625 17.066406 17.066406v34.132812c0 9.425782-7.640625 17.066407-17.066406 17.066407h-34.132812c-9.425782 0-17.066407-7.640625-17.066407-17.066407v-34.132812c0-9.425781 7.640625-17.066406 17.066407-17.066406zm0 0" fill="#37474f"/><path d="m437.78125 330.058594h12.796875c9.425781 0 17.070313 7.640625 17.070313 17.066406v34.132812c0 9.425782-7.644532 17.066407-17.070313 17.066407h-12.796875c-9.425781 0-17.066406-7.640625-17.066406-17.066407v-34.132812c0-9.425781 7.640625-17.066406 17.066406-17.066406zm0 0" fill="#607d8b"/><path d="m28.179688 330.058594h12.800781c9.425781 0 17.066406 7.640625 17.066406 17.066406v34.132812c0 9.425782-7.640625 17.066407-17.066406 17.066407h-12.800781c-9.425782 0-17.066407-7.640625-17.066407-17.066407v-34.132812c0-9.425781 7.640625-17.066406 17.066407-17.066406zm0 0" fill="#607d8b"/><path d="m198.847656 220.789062-111.4375-35.453124c-14.082031-14.222657-28.332031-28.332032-42.753906-42.328126l-2.21875-2.21875c9.542969-14.433593 21.839844-26.84375 36.183594-36.523437h.171875c9.300781 9.21875 18.429687 18.347656 27.5625 27.5625 9.128906 9.21875 18.257812 18.433594 27.304687 27.734375v-.425781l.425782.425781zm0 0" fill="#4c8056"/><path d="m78.621094 104.265625c-14.34375 9.679687-26.640625 22.089844-36.183594 36.523437l-.253906-.253906c-8.191406-7.9375-16.46875-15.875-24.832032-23.808594-3.28125-3.140624-5.164062-7.464843-5.226562-12.003906-.066406-4.539062 1.695312-8.914062 4.886719-12.144531l12.285156-12.289063c6.414063-6.3125 16.535156-6.828124 23.554687-1.195312l.679688.683594c0 .085937.085938.085937.171875.171875 2.132813 2.132812 4.351563 4.179687 6.570313 6.3125l.257812.257812c1.960938 1.875 3.925781 3.839844 5.800781 5.714844 4.183594 4.011719 8.191407 8.023437 12.289063 12.03125zm0 0" fill="#00695c"/><path d="m176.320312 206.070312c-17.152343-17.578124-77.3125-77.824218-94.976562-95.148437-.855469-.851563-1.707031-1.621094-2.5625-2.386719h-.167969c-4.097656-4.269531-8.023437-8.109375-12.117187-12.03125-1.964844-1.964844-3.925782-3.925781-5.890625-5.804687 3.882812-5.984375 8.21875-11.660157 12.972656-16.980469 8.707031-9.851562 18.695313-18.488281 29.695313-25.6875l.171874.171875c2.132813 2.046875 4.179688 4.097656 6.226563 6.144531 10.753906 10.582032 21.390625 21.191406 31.917969 31.828125-1.707032 16.554688 14.335937 50.945313 25.171875 80.214844 5.734375 12.480469 8.980469 25.957031 9.558593 39.679687zm0 0" fill="#4c8056"/><path d="m166.761719 166.390625c-24.917969-25.089844-59.820313-59.988281-72.617188-72.535156-.855469-.851563-1.707031-1.621094-2.5625-2.386719h-.171875c-4.09375-4.269531-8.019531-8.109375-12.117187-12.035156l-5.714844-5.714844c8.707031-9.851562 18.695313-18.488281 29.695313-25.6875l.171874.171875c2.132813 2.046875 4.179688 4.097656 6.226563 6.144531 10.753906 10.582032 21.390625 21.191406 31.917969 31.828125-1.707032 16.554688 14.335937 50.945313 25.171875 80.214844zm0 0" fill="#4caf50"/><path d="m103.273438 48.03125c-17.03125 11.105469-31.566407 25.636719-42.667969 42.667969l-.253907-.257813-6.570312-6.3125c-.085938-.085937-.171875-.085937-.171875-.171875-.234375-.222656-.492187-.425781-.769531-.597656-7.167969-6.910156-14.417969-13.824219-21.585938-20.648437-3.886718-3.082032-6.359375-7.605469-6.859375-12.539063-.496093-4.9375 1.023438-9.863281 4.210938-13.660156 2.816406-2.816407 5.71875-5.632813 8.621093-8.53125l9.984376-9.730469c8.167968-6.730469 20.183593-5.867188 27.304687 1.964844 8.277344 7.851562 16.46875 15.785156 24.578125 23.808594 1.449219 1.277343 2.8125 2.644531 4.179688 4.007812zm0 0" fill="#00695c"/><path d="m99.09375 44.023438c-9.871094 8.65625-18.511719 18.617187-25.6875 29.609374l-.253906-.257812-6.574219-6.3125c-.082031-.085938-.167969-.085938-.167969-.171875-.234375-.222656-.492187-.425781-.769531-.597656-7.167969-6.910157-14.421875-13.824219-21.589844-20.648438-5.035156-4.410156-7.585937-11.011719-6.824219-17.664062l9.984376-9.730469c8.167968-6.730469 20.183593-5.867188 27.304687 1.964844 8.277344 7.851562 16.46875 15.785156 24.578125 23.808594zm0 0" fill="#009688"/><path d="m302.253906 220.789062 111.4375-35.453124c14.078125-14.222657 28.328125-28.332032 42.75-42.328126l2.21875-2.21875c-9.542968-14.433593-21.835937-26.84375-36.179687-36.523437h-.171875c-9.300782 9.21875-18.429688 18.347656-27.5625 27.5625-9.128906 9.21875-18.261719 18.433594-27.304688 27.734375v-.425781l-.429687.425781zm0 0" fill="#4c8056"/><path d="m422.480469 104.265625c14.34375 9.679687 26.636719 22.089844 36.179687 36.523437l.257813-.253906c8.191406-7.9375 16.46875-15.875 24.832031-23.808594 3.277344-3.140624 5.160156-7.464843 5.226562-12.003906.0625-4.539062-1.695312-8.914062-4.886718-12.144531l-12.289063-12.289063c-6.410156-6.3125-16.53125-6.828124-23.550781-1.195312l-.683594.683594c0 .085937-.085937.085937-.167968.171875-2.132813 2.132812-4.351563 4.179687-6.570313 6.3125l-.257813.257812c-1.960937 1.875-3.925781 3.839844-5.800781 5.714844-4.183593 4.011719-8.195312 8.023437-12.289062 12.03125zm0 0" fill="#00695c"/><path d="m440.511719 90.699219c-1.964844 1.878906-3.925781 3.839843-5.890625 5.804687-4.09375 3.921875-8.019532 7.761719-12.117188 12.03125h-.167968c-.855469.765625-1.707032 1.535156-2.5625 2.386719-17.664063 17.324219-77.824219 77.570313-94.976563 95.148437.253906-11.355468 2.660156-22.5625 7.085937-33.023437 10.75-30.464844 29.523438-69.035156 27.648438-86.871094 10.492188-10.664062 21.132812-21.277343 31.914062-31.828125 2.046876-2.046875 4.09375-4.097656 6.226563-6.144531l.171875-.171875c16.988281 11.15625 31.511719 25.679688 42.667969 42.667969zm0 0" fill="#4c8056"/><path d="m427.710938 73.632812c-1.964844 1.878907-3.925782 3.839844-5.886719 5.800782-4.097657 3.925781-8.023438 7.765625-12.117188 12.035156h-.171875c-.855468.765625-1.707031 1.535156-2.558594 2.386719-13.230468 12.972656-50.09375 49.835937-75.09375 74.925781 10.75-30.464844 29.523438-69.035156 27.648438-86.871094 10.492188-10.667968 21.132812-21.277344 31.914062-31.828125 2.046876-2.050781 4.09375-4.097656 6.226563-6.144531l.171875-.171875c6.042969 3.941406 11.773438 8.332031 17.152344 13.140625 4.640625 5.257812 8.890625 10.847656 12.714844 16.726562zm0 0" fill="#4caf50"/><path d="m469.867188 62.710938c-7.167969 6.824218-14.421876 13.738281-21.589844 20.648437-.277344.171875-.535156.375-.769532.597656 0 .085938-.085937.085938-.171874.171875l-6.570313 6.3125-.253906.257813c-11.101563-17.03125-25.632813-31.5625-42.667969-42.667969 2.816406-2.730469 5.632812-5.546875 8.535156-8.277344 6.65625-6.570312 13.480469-13.054687 20.222656-19.539062 7.121094-7.832032 19.136719-8.695313 27.304688-1.964844l13.570312 13.3125c1.707032 1.621094 3.414063 3.328125 5.035157 4.949219 3.1875 3.796875 4.707031 8.722656 4.210937 13.660156-.5 4.933594-2.972656 9.457031-6.855468 12.539063zm0 0" fill="#00695c"/><path d="m467.476562 31.5625c-1.140624 3.757812-3.261718 7.148438-6.144531 9.8125-7.167969 6.828125-14.421875 13.742188-21.589843 20.652344-.277344.171875-.53125.371094-.765626.597656 0 .085938-.085937.085938-.171874.171875l-6.570313 6.3125-.257813.257813c-7.144531-10.992188-15.757812-20.953126-25.597656-29.613282 6.65625-6.570312 13.480469-13.054687 20.222656-19.539062 7.121094-7.832032 19.136719-8.695313 27.304688-1.964844zm0 0" fill="#009688"/><path d="m443.839844 220.578125-48.300782 48.296875c-.292968.304688-.605468.589844-.9375.855469h-25.601562c.332031-.265625.648438-.550781.941406-.855469l48.296875-48.296875c3.308594-3.328125 3.308594-8.707031 0-12.035156l-12.117187-12.03125c-6.4375-6.480469-14.523438-11.082031-23.382813-13.3125 17.535157-4.640625 36.210938.433593 48.984375 13.3125l12.117188 12.03125c3.308594 3.328125 3.308594 8.707031 0 12.035156zm0 0" fill="#1566c0"/><path d="m418.238281 220.578125-48.296875 48.296875c-.292968.304688-.609375.589844-.941406.855469h-263.507812c-.332032-.265625-.644532-.550781-.9375-.855469l-48.300782-48.296875c-3.308594-3.328125-3.308594-8.707031 0-12.035156l12.117188-12.03125c18.214844-18.144531 47.058594-19.96875 67.414062-4.265625h228.523438c5.445312-4.269532 11.722656-7.347656 18.429687-9.046875 8.859375 2.230469 16.945313 6.832031 23.382813 13.3125l12.117187 12.03125c3.308594 3.328125 3.308594 8.707031 0 12.035156zm0 0" fill="#2296f3"/><path d="m382.738281 183.199219c-6.707031 1.699219-12.984375 4.777343-18.429687 9.046875h-25.601563c12.453125-9.742188 28.75-13.089844 44.03125-9.046875zm0 0" fill="#1566c0"/><path d="m356.714844 383.988281c-.683594 66.136719-48.214844 119.46875-106.667969 119.46875-3.507813.011719-7.011719-.1875-10.496094-.597656h-.339843c-53.335938-6.144531-95.148438-56.832031-95.832032-118.871094zm0 0" fill="#37474f"/><path d="m335.378906 383.988281c-.679687 62.039063-42.496094 112.726563-95.828125 118.871094h-.339843c-53.335938-6.144531-95.148438-56.832031-95.832032-118.871094zm0 0" fill="#607d8b"/><path d="m284.179688 430.921875c-1.261719 17.632813-16.492188 30.957031-34.132813 29.867187-3.613281.023438-7.207031-.492187-10.667969-1.535156-13.277344-3.128906-22.863281-14.699218-23.464844-28.332031-.011718-2.753906.417969-5.488281 1.277344-8.105469h65.707032c.863281 2.617188 1.292968 5.351563 1.28125 8.105469zm0 0" fill="#c52828"/><path d="m262.847656 430.921875c-.601562 13.632813-10.1875 25.203125-23.46875 28.332031-13.277344-3.128906-22.863281-14.699218-23.464844-28.332031-.011718-2.753906.417969-5.488281 1.277344-8.105469h44.375c.859375 2.617188 1.292969 5.351563 1.28125 8.105469zm0 0" fill="#f44335"/><path d="m395.113281 281.589844c.0625 23.820312-5.800781 47.28125-17.066406 68.265625l-25.257813 34.132812c-19.15625 19.296875-43.390624 32.757813-69.890624 38.828125-10.757813 2.578125-21.789063 3.867188-32.851563 3.839844-3.585937 0-7.167969-.171875-10.667969-.425781-7.476562-.519531-14.898437-1.664063-22.1875-3.414063-26.5-6.070312-50.730468-19.53125-69.886718-38.828125l-25.257813-34.132812c-11.265625-20.984375-17.128906-44.445313-17.066406-68.265625 0-3.15625.085937-6.316406.339843-9.472656.015626-.796876.074219-1.59375.171876-2.386719.75-10.074219 2.609374-20.035157 5.546874-29.699219 5.140626-17.355469 13.539063-33.574219 24.746094-47.785156.339844-.511719.769532-.9375 1.109375-1.449219.597657-.683594 1.195313-1.453125 1.792969-2.136719l51.96875 5.71875 16.722656 1.878906 42.667969-17.066406 38.058594 15.1875 4.609375 1.878906 49.152344-5.460937 19.539062-2.136719c1.023438 1.195313 1.964844 2.390625 2.902344 3.585938 11.207031 14.210937 19.605468 30.429687 24.746094 47.785156 2.9375 9.664062 4.796874 19.625 5.546874 29.699219.097657.792969.15625 1.589843.171876 2.386719.253906 3.15625.339843 6.316406.339843 9.472656zm0 0" fill="#283593"/><path d="m373.78125 281.589844c.0625 23.820312-5.804688 47.28125-17.066406 68.265625l-25.261719 34.132812c-19.152344 19.296875-43.386719 32.757813-69.886719 38.828125-7.289062 1.75-14.707031 2.894532-22.1875 3.414063-7.476562-.519531-14.898437-1.664063-22.1875-3.414063-26.5-6.070312-50.730468-19.53125-69.886718-38.828125l-25.257813-34.132812c-11.265625-20.984375-17.128906-44.445313-17.066406-68.265625 0-3.15625.085937-6.316406.339843-9.472656.015626-.796876.074219-1.59375.171876-2.386719.75-10.074219 2.609374-20.035157 5.546874-29.699219 5.140626-17.355469 13.539063-33.574219 24.746094-47.785156.339844-.511719.769532-.9375 1.109375-1.449219l49.152344 5.460937 4.609375-1.878906 38.058594-15.1875 42.664062 17.066406 16.726563-1.878906 51.96875-5.71875c.597656.683594 1.195312 1.453125 1.792969 2.136719.339843.511719.765624.9375 1.109374 1.449219 11.207032 14.210937 19.605469 30.429687 24.746094 47.785156 2.933594 9.664062 4.792969 19.625 5.546875 29.699219.097657.792969.15625 1.589843.167969 2.386719.257812 3.15625.34375 6.316406.34375 9.472656zm0 0" fill="#3f51b5"/><path d="m369.34375 161.269531c-2.4375 12.910157-7.585938 25.152344-15.105469 35.925781-20.734375 30.039063-59.050781 75.863282-102.828125 75.863282h-2.730468c-8.125-.082032-16.175782-1.554688-23.804688-4.355469-33.621094-12.199219-62.125-47.101563-79.019531-71.507813-7.519531-10.773437-12.667969-23.015624-15.105469-35.925781-.542969-2.675781.253906-5.445312 2.132812-7.421875.617188-.738281 1.371094-1.347656 2.21875-1.792968 2.421876-1.382813 5.375-1.445313 7.851563-.171876l61.78125 34.304688 11.179687 6.230469c4.195313 2.105469 9.304688.429687 11.433594-3.757813l2.390625-4.777344c1.425781-2.886718 4.375-4.707031 7.59375-4.691406h25.429688c3.21875-.015625 6.167969 1.804688 7.59375 4.691406v.085938l2.390625 4.691406c2.128906 4.1875 7.238281 5.863282 11.433594 3.757813l63.828124-35.414063v-.085937l9.132813-5.035157c2.476563-1.273437 5.429687-1.210937 7.851563.171876 3.308593 1.789062 5.070312 5.523437 4.351562 9.214843zm0 0" fill="#1566c0"/><path d="m348.007812 156.917969v.085937c-2.433593 12.90625-7.582031 25.152344-15.101562 35.925782-20.738281 30.035156-59.050781 75.859374-102.828125 75.859374h-2.730469c-.824218.015626-1.652344-.011718-2.472656-.085937-33.621094-12.199219-62.125-47.101563-79.019531-71.507813-7.519531-10.773437-12.667969-23.015624-15.105469-35.925781-.542969-2.675781.253906-5.445312 2.132812-7.421875l61.695313 34.300782c3.4375 1.742187 7.617187.933593 10.15625-1.960938.519531-.523438.953125-1.128906 1.28125-1.792969l2.386719-4.777343c1.429687-2.886719 4.375-4.707032 7.597656-4.695313h25.429688c3.035156-.003906 5.839843 1.628906 7.335937 4.269531.105469.128906.191406.273438.257813.425782l2.386718 4.777343c2.132813 4.183594 7.242188 5.863281 11.4375 3.753907l7.507813-4.179688 65.453125-36.351562c2.476562-1.273438 5.429687-1.210938 7.847656.171874 3.304688 1.75 5.074219 5.457032 4.351562 9.128907zm0 0" fill="#2296f3"/><path d="m369.511719 118.433594h-238.933594c-.761719-37.511719 20.882813-71.871094 55.042969-87.382813 3.105468-1.59375 6.296875-3.019531 9.554687-4.265625h109.742188c39.148437 13.277344 65.25 50.3125 64.59375 91.648438zm0 0" fill="#1566c0"/><path d="m348.007812 118.433594h-217.429687c-.761719-37.511719 20.882813-71.871094 55.042969-87.382813h97.960937c37.667969 12.742188 63.390625 47.628907 64.425781 87.382813zm0 0" fill="#2296f3"/><path d="m369.511719 118.433594v1.023437c-.003907 11.019531-1.527344 21.988281-4.519531 32.597657-2.421876-1.382813-5.375-1.445313-7.851563-.171876l-72.960937 40.535157c-4.195313 2.105469-9.304688.429687-11.433594-3.757813l-2.390625-4.777344c-1.425781-2.886718-4.375-4.707031-7.59375-4.691406h-25.429688c-3.21875-.015625-6.167969 1.804688-7.59375 4.691406l-2.390625 4.777344c-2.128906 4.1875-7.238281 5.863282-11.433594 3.757813l-72.960937-40.535157c-2.476563-1.273437-5.429687-1.210937-7.851563.171876-1.304687-4.507813-2.304687-9.097657-2.984374-13.738282-1.03125-6.234375-1.546876-12.542968-1.539063-18.859375v-1.023437c16.042969-12.546875 53.25-21.847656 98.390625-24.066406h42.15625c27.617188.671874 54.964844 5.625 81.066406 14.679687 6.191406 2.285156 12.023438 5.445313 17.320313 9.386719zm0 0" fill="#4c8056"/><path d="m352.191406 109.046875c-.449218 8.777344-1.882812 17.480469-4.265625 25.941406-2.421875-1.382812-5.375-1.445312-7.851562-.171875l-72.960938 40.535156c-4.179687 2.132813-9.300781 8.957032-11.433593 4.777344l-2.390626-4.777344c-1.425781-2.886718-4.375-4.710937-7.59375-4.695312l-12.628906 8.535156c-3.222656-.015625-6.167968 1.804688-7.597656 4.691406l-2.386719 4.777344c-2.132812 4.183594-20.054687 5.890625-24.234375 3.757813l-66.730468-54.101563c-1.03125-6.234375-1.546876-12.542968-1.539063-18.859375v-1.023437c16.042969-12.546875 53.25-21.847656 98.390625-24.066406h42.15625c27.617188.671874 54.964844 5.625 81.066406 14.679687zm0 0" fill="#4caf50"/><path d="m139.113281 315.722656h221.867188c9.425781 0 17.066406 7.640625 17.066406 17.066406v34.132813c0 9.425781-7.640625 17.066406-17.066406 17.066406h-221.867188c-9.425781 0-17.066406-7.640625-17.066406-17.066406v-34.132813c0-9.425781 7.640625-17.066406 17.066406-17.066406zm0 0" fill="#1566c0"/><path d="m139.113281 315.722656h200.535157c9.425781 0 17.066406 7.640625 17.066406 17.066406v34.132813c0 9.425781-7.640625 17.066406-17.066406 17.066406h-200.535157c-9.425781 0-17.066406-7.640625-17.066406-17.066406v-34.132813c0-9.425781 7.640625-17.066406 17.066406-17.066406zm0 0" fill="#2296f3"/><path d="m304.574219 27.382812-37.460938 75.007813h-34.132812l-37.460938-75.007813c-1.238281-2.414062-1.242187-5.277343-.007812-7.695312s3.554687-4.09375 6.234375-4.507812l31.320312-5.292969c2.132813-.339844 4.179688-.59375 6.3125-.765625 3.542969-.414063 7.101563-.613282 10.667969-.597656 5.6875-.015626 11.367187.441406 16.980469 1.363281l31.316406 5.292969c2.683594.414062 5.003906 2.089843 6.238281 4.507812s1.230469 5.28125-.007812 7.695312zm0 0" fill="#283593"/><path d="m283.242188 27.382812-37.460938 75.007813h-12.800781l-37.460938-75.007813c-1.238281-2.414062-1.242187-5.277343-.007812-7.695312s3.554687-4.09375 6.234375-4.507812l31.320312-5.292969c2.132813-.339844 4.179688-.59375 6.3125-.765625 2.132813.171875 4.183594.425781 6.316406.765625l31.316407 5.292969c2.683593.414062 5.003906 2.089843 6.234375 4.507812 1.234375 2.417969 1.234375 5.28125-.003906 7.695312zm0 0" fill="#3f51b5"/><path d="m164.714844 349.855469c0 4.714843-3.820313 8.535156-8.535156 8.535156-4.710938 0-8.53125-3.820313-8.53125-8.535156 0-4.710938 3.820312-8.53125 8.53125-8.53125 4.714843 0 8.535156 3.820312 8.535156 8.53125zm0 0"/><path d="m198.847656 349.855469c0 4.714843-3.820312 8.535156-8.535156 8.535156-4.710938 0-8.53125-3.820313-8.53125-8.535156 0-4.710938 3.820312-8.53125 8.53125-8.53125 4.714844 0 8.535156 3.820312 8.535156 8.53125zm0 0"/><path d="m232.980469 349.855469c0 4.714843-3.820313 8.535156-8.535157 8.535156-4.710937 0-8.53125-3.820313-8.53125-8.535156 0-4.710938 3.820313-8.53125 8.53125-8.53125 4.714844 0 8.535157 3.820312 8.535157 8.53125zm0 0"/><path d="m215.914062 162.125c2.261719-.003906 4.433594-.902344 6.03125-2.5l17.066407-17.070312c3.234375-3.347657 3.1875-8.667969-.101563-11.960938-3.292968-3.292969-8.613281-3.335938-11.964844-.101562l-17.066406 17.066406c-2.4375 2.4375-3.167968 6.109375-1.847656 9.296875s4.429688 5.265625 7.882812 5.269531zm0 0"/><path d="m181.78125 145.058594c2.261719-.003906 4.433594-.902344 6.03125-2.503906l8.535156-8.53125c3.234375-3.347657 3.1875-8.671876-.105468-11.960938-3.292969-3.292969-8.613282-3.339844-11.960938-.105469l-8.535156 8.535157c-2.4375 2.4375-3.167969 6.109374-1.847656 9.296874 1.320312 3.1875 4.429687 5.265626 7.882812 5.269532zm0 0"/><path d="m7.914062 86.578125c-4.839843 4.84375-7.511718 11.4375-7.417968 18.285156.097656 6.84375 2.957031 13.359375 7.929687 18.066407 8.289063 7.886718 16.539063 15.796874 24.746094 23.730468l2.507813 2.441406c11.761718 11.453126 23.347656 23.039063 34.894531 34.558594-2.925781 2.027344-5.664063 4.3125-8.183594 6.828125l-12.167969 12.023438c-6.640625 6.660156-6.640625 17.4375 0 24.097656l2.515625 2.558594c-4.835937 6.527343-7.460937 14.429687-7.492187 22.554687.03125 2.222656.25 4.4375.65625 6.621094l-22.183594 66.363281c-12.207031 2.164063-21.109375 12.753907-21.140625 25.148438v34.132812c.035156 9.914063 5.789063 18.917969 14.773437 23.109375-9.179687 12.910156-8.113281 30.476563 2.558594 42.179688l-15.90625 23.851562c-2.25 3.386719-1.800781 7.886719 1.078125 10.761719l17.066407 17.066406c2.140624 2.21875 5.3125 3.105469 8.296874 2.328125 2.984376-.78125 5.3125-3.113281 6.09375-6.097656.78125-2.980469-.109374-6.15625-2.324218-8.296875l-12.117188-12.125 11.945313-18.007813c3.59375 1.308594 7.382812 1.996094 11.203125 2.03125 3.8125-.039062 7.589844-.726562 11.171875-2.03125l11.945312 18.007813-12.117187 12.125c-2.21875 2.140625-3.109375 5.316406-2.328125 8.296875.78125 2.984375 3.113281 5.316406 6.09375 6.097656 2.984375.777344 6.15625-.109375 8.300781-2.328125l17.066406-17.066406c2.875-2.875 3.324219-7.375 1.074219-10.761719l-15.84375-23.851562c10.671875-11.703125 11.738281-29.269532 2.558594-42.179688 8.972656-4.199218 14.714843-13.199218 14.746093-23.109375v-34.132812c-.019531-8.65625-4.410156-16.714844-11.675781-21.425781l13.605469-38.953126c2.324219-.390624 4.609375-.996093 6.824219-1.8125.851562 22.371094 6.601562 44.285157 16.84375 64.1875v15.070313c.050781 12.625 9.292969 23.332031 21.777343 25.21875 4.429688 66.773437 54.382813 119.847656 114.757813 119.847656s110.328125-53.074219 114.757813-119.847656c12.480468-1.886719 21.726562-12.59375 21.773437-25.21875v-15.070313c10.261719-19.902343 16.023437-41.816406 16.878906-64.195312 2.214844.816406 4.503907 1.421875 6.828125 1.820312l13.609375 38.953126c-7.277343 4.699218-11.6875 12.761718-11.714843 21.425781v34.132812c.035156 9.914063 5.789062 18.917969 14.773437 23.109375-9.183594 12.910156-8.117187 30.476563 2.558594 42.179688l-15.882813 23.851562c-2.25 3.386719-1.796875 7.886719 1.078125 10.761719l17.066407 17.066406c3.347656 3.234375 8.667968 3.1875 11.960937-.105469 3.292969-3.289062 3.339844-8.613281.105469-11.960937l-12.117188-12.125 11.945313-18.007813c7.199219 2.707032 15.140625 2.707032 22.339843 0l11.945313 18.007813-12.117187 12.125c-2.214844 2.140625-3.105469 5.316406-2.324219 8.296875.78125 2.984375 3.109375 5.316406 6.09375 6.097656 2.984375.777344 6.15625-.109375 8.296875-2.328125l17.066406-17.066406c2.878906-2.875 3.328125-7.375 1.078125-10.761719l-15.882813-23.851562c10.675782-11.703125 11.742188-29.269532 2.5625-42.179688 8.988282-4.1875 14.75-13.191406 14.785157-23.109375v-34.132812c-.023438-12.378907-8.90625-22.96875-21.09375-25.148438l-22.1875-66.351562c.398437-2.191407.601562-4.410157.617187-6.632813-.019531-8.136718-2.648437-16.058594-7.492187-22.59375l2.558593-2.5625c6.65625-6.664062 6.65625-17.460937 0-24.125l-12.132812-11.960937c-2.527344-2.515625-5.269531-4.800781-8.203125-6.828125 11.554687-11.5625 23.136719-23.109375 34.910156-34.578125l2.492188-2.421875c8.1875-7.964844 16.4375-15.878906 24.746093-23.738282 4.964844-4.710937 7.816407-11.226562 7.910157-18.066406.09375-6.84375-2.574219-13.433594-7.40625-18.277344l-12.347657-12.296874c-2.058593-2.003907-4.441406-3.644532-7.046874-4.855469 1.644531-1.578125 3.292968-3.175781 4.949218-4.746094 5.933594-5.410156 9.429688-12.988281 9.683594-21.015625.175781-6.515625-2.328125-12.8125-6.929688-17.425781-6.160156-6.117188-12.34375-12.222657-18.550781-18.320313-11.472656-9.992187-28.777343-9.171875-39.253906 1.859375-9.742187 9.328125-19.414063 18.695313-29.011719 28.101563l-6.222656 6.117187c-7.585938 7.464844-15.066406 14.992188-22.570312 22.503907-11.015626-19.433594-27.945313-34.84375-48.324219-43.992188l.855469-1.628906c1.207031-2.421875 1.195312-5.273438-.03125-7.683594-1.230469-2.414062-3.53125-4.097656-6.199219-4.542969l-42.828125-7.136719c-12.148438-2.011718-24.546875-2.011718-36.695313 0l-42.785156 7.136719c-2.667969.445313-4.96875 2.128907-6.199219 4.542969-1.226562 2.410156-1.238281 5.261719-.03125 7.683594l.855469 1.628906c-20.382813 9.148438-37.3125 24.558594-48.332031 43.992188-7.503906-7.519532-14.984375-15.039063-22.570313-22.511719l-6.222656-6.109375c-9.597656-9.40625-19.269531-18.769532-29.011719-28.09375-10.457031-11.066406-27.78125-11.910156-39.261718-1.910156-6.230469 6.125-12.433594 12.246093-18.605469 18.363281-4.59375 4.617187-7.09375 10.917969-6.917969 17.433593.253906 8 3.726562 15.5625 9.632812 20.964844 1.648438 1.5625 3.320313 3.191406 4.964844 4.761719-2.589844 1.230469-4.957031 2.878906-7.011718 4.882813zm42.734376 53.359375c6.777343-9.3125 14.984374-17.488281 24.320312-24.234375 15.949219 15.742187 31.90625 31.777344 47.5625 47.835937.9375 4.699219 2.21875 9.324219 3.832031 13.832032-12.589843-4.992188-26.511719-5.523438-39.449219-1.5-11.984374-12.042969-24.074218-24.023438-36.265624-35.933594zm174.695312-33.722656c1.445312 2.886718 4.402344 4.710937 7.636719 4.707031h34.132812c3.25.019531 6.226563-1.808594 7.679688-4.71875l1.484375-2.976563c36.933594 2.347657 68.992187 9.789063 84.625 19.625-.1875 6.710938-.980469 13.394532-2.371094 19.960938-1.90625.257812-3.761719.816406-5.496094 1.65625l-8.320312 4.625h-.058594l-64.222656 35.746094-2.390625-4.769532c-2.871094-5.804687-8.804688-9.460937-15.28125-9.414062h-25.429688c-6.449219-.023438-12.351562 3.613281-15.222656 9.386719l-2.046875 4.898437-64.582031-35.839844-8.6875-4.855468c-1.628907-.78125-3.371094-1.296875-5.164063-1.527344-1.386718-6.550781-2.179687-13.214844-2.363281-19.910156 15.632813-9.792969 47.695313-17.234375 84.625-19.582032zm26.066406 158.308594h-2.730468c-40.003907 0-77.191407-45.226563-95.8125-72.183594-6.535157-9.464844-11.171876-20.109375-13.652344-31.34375.125-.417969.210937-.847656.265625-1.277344l72.53125 40.292969c4.042969 2.042969 8.726562 2.398437 13.03125.988281 4.300781-1.410156 7.867187-4.476562 9.910156-8.515625l2.378906-4.761719h25.394531l2.425782 4.832032c2.085937 4.058593 5.707031 7.117187 10.058594 8.492187 4.351562 1.378906 9.074218.960937 13.117187-1.15625l72.292969-39.976563c0 .230469.101562.425782.128906.648438-2.257812 11.425781-6.863281 22.253906-13.535156 31.804688-18.609375 26.929687-55.796875 72.15625-95.804688 72.15625zm-177.003906-61.976563c12.96875-13 32.816406-16.203125 49.21875-7.945313-9.160156 13.121094-16.167969 27.617188-20.753906 42.949219-1.398438 4.625-2.570313 9.3125-3.515625 14.0625l-28.789063-28.792969c-.0625-.058593-.136718-.078124-.199218-.136718l-8.054688-8.089844zm-32.574219 121.710937 15.105469-45.117187c4.300781 4.195313 9.523438 7.328125 15.25 9.148437l-12.570312 35.96875zm-22.183593 25.597657c0-4.710938 3.820312-8.53125 8.53125-8.53125h34.132812c4.714844 0 8.535156 3.820312 8.535156 8.53125v34.132812c0 4.714844-3.820312 8.535157-8.535156 8.535157h-34.132812c-4.710938 0-8.53125-3.820313-8.53125-8.535157zm8.53125 76.800781c0-9.425781 7.640624-17.066406 17.066406-17.066406 9.425781 0 17.066406 7.640625 17.066406 17.066406s-7.640625 17.066406-17.066406 17.066406c-4.527344 0-8.867188-1.796875-12.066406-4.996094-3.203126-3.203124-5-7.542968-5-12.070312zm55.382812-153.597656c-9.460938-.070313-17.753906-6.34375-20.394531-15.429688-.542969-1.921875-.828125-3.910156-.855469-5.90625 0-3.613281.925781-7.167968 2.6875-10.324218l29.015625 28.96875c-3.195313 1.78125-6.796875 2.707031-10.453125 2.691406zm166.484375 119.464844h79.488281c-14.582031 10.503906-31.121094 17.984374-48.640625 22-20.320312 4.816406-41.484375 4.816406-61.808593 0-17.480469-4.019532-33.980469-11.5-48.527344-22zm0 59.734374c-12.058594.808594-22.871094-7.390624-25.34375-19.21875 16.773437 2.863282 33.914063 2.863282 50.6875 0-2.476563 11.828126-13.285156 20.027344-25.34375 19.21875zm0 42.664063c-48.445313 0-89.011719-40.957031-96.707031-94.113281 15.949218 13.007812 34.390625 22.625 54.183594 28.261718 0 .625-.144532 1.222657-.144532 1.851563 1.261719 22.347656 20.3125 39.492187 42.667969 38.402344 22.355469 1.089843 41.402344-16.054688 42.667969-38.402344 0-.628906-.113282-1.226563-.148438-1.851563 19.796875-5.644531 38.230469-15.261718 54.1875-28.261718-7.695312 53.199218-48.261718 94.113281-96.707031 94.113281zm119.464844-128c0 4.714844-3.820313 8.535156-8.53125 8.535156h-221.867188c-4.710937 0-8.535156-3.820312-8.535156-8.535156v-34.132813c0-4.710937 3.824219-8.53125 8.535156-8.53125h221.867188c4.710937 0 8.53125 3.820313 8.53125 8.53125zm12.179687-49.058594c-4.785156-6.679687-12.492187-10.652343-20.710937-10.671875h-221.867188c-8.21875.019532-15.925781 3.992188-20.710937 10.671875-3.25-11.816406-4.894532-24.015625-4.890625-36.273437 0-2.925782.078125-5.855469.34375-9.472656.019531-.585938.066406-1.167969.144531-1.75.710938-9.464844 2.460938-18.828126 5.222656-27.910157 4.308594-14.390625 11.015625-27.949219 19.832032-40.109375 25.0625 36.226563 64.347656 79.242188 109.625 79.242188h2.730468c45.28125 0 84.585938-43.023438 109.636719-79.25 8.832031 12.175781 15.539063 25.753906 19.839844 40.167968 2.777343 9.164063 4.53125 18.609376 5.234375 28.160157.089844.703125.136718 1.414062.144531 2.125.238281 2.917969.3125 5.84375.3125 8.769531.011719 12.265625-1.632813 24.476562-4.886719 36.300781zm61.4375-38.738281 15.132813 45.132812h-17.785157l-12.5625-35.960937c5.726563-1.824219 10.945313-4.964844 15.234376-9.171875zm-5.347656 147.53125c0-9.425781 7.640625-17.066406 17.066406-17.066406 9.425782 0 17.066406 7.640625 17.066406 17.066406s-7.640624 17.066406-17.066406 17.066406c-9.425781 0-17.066406-7.640625-17.066406-17.066406zm42.664062-42.667969c0 4.714844-3.820312 8.535157-8.53125 8.535157h-34.132812c-4.714844 0-8.535156-3.820313-8.535156-8.535157v-34.132812c0-4.710938 3.820312-8.53125 8.535156-8.53125h34.132812c4.710938 0 8.53125 3.820312 8.53125 8.53125zm-45.351562-142.589843c1.761719 3.15625 2.6875 6.710937 2.6875 10.324218-.011719 1.945313-.273438 3.882813-.777344 5.761719-2.625 9.1875-11.003906 15.535156-20.558594 15.574219-3.617187 0-7.175781-.925782-10.332031-2.691406l6.828125-6.824219zm2.6875-26.855469-8.253906 8.261719-28.789063 28.832031c-.90625-4.605469-2.058593-9.164063-3.414062-13.652344 0-.128906-.058594-.253906-.09375-.375v-.078125c-4.59375-15.320312-11.597657-29.808594-20.753907-42.921875 16.410157-8.265625 36.273438-5.058594 49.246094 7.953125zm-64.078125-37.171875c1.613281-4.511719 2.898437-9.140625 3.839844-13.839844 15.582031-15.992188 31.574219-32.027344 47.554687-47.835938 9.347656 6.746094 17.566406 14.925782 24.355469 24.242188-12.214844 11.945312-24.308594 23.921875-36.285156 35.933594-12.929688-4.023438-26.851563-3.492188-39.4375 1.5zm94.140625-91.007813 12.246094 12.253907c1.589844 1.578124 2.472656 3.734374 2.4375 5.972656-.027344 2.261718-.96875 4.417968-2.609375 5.976562-6.074219 5.757813-12.082031 11.570313-18.109375 17.371094-6.96875-9.199219-15.164063-17.402344-24.363282-24.378906l5.351563-5.238282 12.636719-12.230468.316406-.296875c3.601562-2.878907 8.78125-2.632813 12.09375.570312zm-33.28125-64.273437c3.898438-4.492188 10.539062-5.363282 15.460938-2.03125 6.1875 6.070312 12.34375 12.160156 18.476562 18.273437 1.304688 1.351563 1.992188 3.183594 1.902344 5.058594-.195313 3.417969-1.757813 6.613281-4.335938 8.867187-7.25 6.894532-14.453125 13.800782-21.605468 20.71875-.253907.210938-.546876.367188-.792969.597657-8.660157-11.667969-19.015625-21.980469-30.71875-30.59375 7.191406-6.972657 14.351562-13.976563 21.597656-20.890625zm-35.070312 34.058594 1.109374-1.09375c11.878907 8.359374 22.265626 18.667968 30.71875 30.480468l-.5625.539063c-4.121093 4.019531-8.234374 8.039062-12.238281 11.945312l-2.628906 2.5c-13.269531 13.058594-26.453125 26.320313-39.550781 39.578125 1.125-6.824218 1.695312-13.726562 1.707031-20.640625 0-.675781-.058594-1.332031-.070313-2.003906v-.078125c-.128906-11.601562-2.046874-23.117188-5.679687-34.132812 9.003906-9.050782 18.0625-18.082032 27.175781-27.09375zm-46.292969 24.839843c-.339844 2.570313.523437 5.152344 2.34375 6.996094.15625.144531.351562.199219.511719.335937 1.609374 4.785157 2.816406 9.699219 3.609374 14.683594-24.023437-9.414062-49.402343-14.917968-75.167968-16.296875l24.472656-48.941406c19.582031 8.441406 35.339844 23.839844 44.230469 43.222656zm-118.699219-62.644531c10.292969-1.707031 20.800781-1.707031 31.09375 0l31.386719 5.230469-33.535157 67.074219-1.605468 3.207031h-23.585938l-35.140625-70.28125zm-43.332031 19.421875 24.472656 48.941406c-25.765625 1.378907-51.144531 6.882813-75.171875 16.296875.796875-4.984375 2.003906-9.898437 3.609375-14.683594.164063-.136718.359375-.191406.511719-.335937 1.820312-1.84375 2.6875-4.425781 2.347656-6.996094 8.890625-19.382812 24.648438-34.78125 44.230469-43.222656zm-63.371094 45.492187c-3.636719 11.019532-5.550781 22.53125-5.683594 34.132813v.078125c0 .671875-.066406 1.332031-.066406 2.003906.023437 6.921875.609375 13.832032 1.75 20.660156-13.082031-13.269531-26.308594-26.546874-39.65625-39.679687l-2.429687-2.304687c-4.097657-4.023438-8.210938-8.039063-12.339844-12.058594l-.554688-.535156c8.453125-11.816407 18.839844-22.121094 30.71875-30.480469l1.109375 1.089843c9.148438 8.984376 18.199219 18.015626 27.152344 27.09375zm-96.203125-44.925781c6.144531-6.113281 12.304688-12.203125 18.550781-18.3125 4.929688-3.300781 11.542969-2.410156 15.421875 2.082031 7.234375 6.925782 14.394532 13.90625 21.554688 20.878907-11.703125 8.609375-22.058594 18.914062-30.722656 30.574219l-.167969-.179688c-.257813-.238281-.554688-.390625-.855469-.613281-7.097656-6.824219-14.246094-13.675781-21.445312-20.546875-2.542969-2.25-4.082032-5.425782-4.265626-8.816406-.078124-1.882813.617188-3.714844 1.929688-5.066407zm13.125 47.785157 12.628906 12.226562c1.773438 1.707031 3.542969 3.4375 5.308594 5.191406-9.199219 6.972656-17.394531 15.175782-24.363281 24.378906-6.015625-5.804687-12.042969-11.59375-18.089844-17.367187-1.648437-1.554687-2.597656-3.707031-2.628906-5.972656-.035157-2.238281.847656-4.398438 2.4375-5.972657l12.246093-12.253906c3.296876-3.183594 8.433594-3.449218 12.042969-.625zm0 0"/><path d="m343.914062 341.324219h-76.800781c-4.710937 0-8.535156 3.820312-8.535156 8.53125 0 4.714843 3.824219 8.535156 8.535156 8.535156h76.800781c4.710938 0 8.53125-3.820313 8.53125-8.535156 0-4.710938-3.820312-8.53125-8.53125-8.53125zm0 0"/><path d="m232.980469 213.324219c-4.714844 0-8.535157 3.820312-8.535157 8.53125v8.535156c0 4.710937 3.820313 8.53125 8.535157 8.53125 4.710937 0 8.53125-3.820313 8.53125-8.53125v-8.535156c0-4.710938-3.820313-8.53125-8.53125-8.53125zm0 0"/><path d="m267.113281 213.324219c-4.710937 0-8.535156 3.820312-8.535156 8.53125v8.535156c0 4.710937 3.824219 8.53125 8.535156 8.53125 4.714844 0 8.535157-3.820313 8.535157-8.53125v-8.535156c0-4.710938-3.820313-8.53125-8.535157-8.53125zm0 0"/></svg>