<svg height="512pt" viewBox="0 0 512.00655 512" width="512pt" xmlns="http://www.w3.org/2000/svg"><path d="m85.335938 93.863281v23.980469h-51.199219v-23.980469c.019531-8.585937 6.414062-15.820312 14.933593-16.894531.707032-.101562 1.417969-.160156 2.132813-.171875h17.066406c9.414063.027344 17.039063 7.652344 17.066407 17.066406zm0 0" fill="#37474f"/><path d="m76.121094 25.9375c0 9.238281-7.488282 16.726562-16.726563 16.726562s-16.722656-7.488281-16.722656-16.726562c0-9.234375 7.484375-16.722656 16.722656-16.722656s16.726563 7.488281 16.726563 16.722656zm0 0" fill="#ffeb3a"/><path d="m477.871094 93.179688v23.980468h-51.199219v-23.980468c.015625-8.585938 6.410156-15.820313 14.929687-16.894532.707032-.101562 1.421876-.160156 2.136719-.171875h17.066407c9.414062.03125 17.039062 7.65625 17.066406 17.066407zm0 0" fill="#37474f"/><path d="m64.003906 93.863281v23.980469h-29.867187v-23.980469c.019531-8.585937 6.414062-15.820312 14.933593-16.894531 8.519532 1.074219 14.914063 8.308594 14.933594 16.894531zm0 0" fill="#607d8b"/><path d="m456.535156 93.179688v23.980468h-29.863281v-23.980468c-.707031-5.769532 1.976563-11.425782 6.886719-14.535157 4.914062-3.109375 11.175781-3.109375 16.089844 0 4.910156 3.109375 7.59375 8.765625 6.886718 14.535157zm0 0" fill="#607d8b"/><path d="m469.335938 25.257812c0 9.234376-7.488282 16.722657-16.726563 16.722657-9.234375 0-16.722656-7.488281-16.722656-16.722657 0-9.238281 7.488281-16.726562 16.722656-16.726562 9.238281 0 16.726563 7.488281 16.726563 16.726562zm0 0" fill="#ffeb3a"/><path d="m469.335938 209.660156v52.226563l-34.132813 28.246093v-80.472656zm0 0" fill="#2e7d32"/><path d="m353.453125 215.207031 115.882813 57.855469-40.617188 17.835938-70.742188-35.242188zm0 0" fill="#2e7d32"/><path d="m477.871094 280.914062c0 14.140626-11.460938 25.601563-25.601563 25.601563-2.914062.015625-5.808593-.503906-8.53125-1.535156-10.226562-3.582031-17.070312-13.234375-17.070312-24.066407 0-10.832031 6.84375-20.480468 17.070312-24.0625 2.722657-1.035156 5.617188-1.554687 8.53125-1.535156 6.789063 0 13.300781 2.695313 18.101563 7.496094 4.800781 4.800781 7.5 11.3125 7.5 18.101562zm0 0" fill="#558b30"/><path d="m76.804688 210.34375v62.71875l-17.066407-5.203125-17.066406-5.292969v-52.222656zm0 0" fill="#2e7d32"/><path d="m452.269531 209.660156v52.226563l-17.066406 14.164062v-66.390625zm0 0" fill="#4caf50"/><path d="m59.738281 210.34375v57.515625l-17.066406-5.292969v-52.222656zm0 0" fill="#4caf50"/><path d="m158.550781 215.890625-98.8125 48.640625 23.550781 27.050781 70.742188-35.242187zm0 0" fill="#2e7d32"/><path d="m85.335938 281.597656c0 14.136719-11.460938 25.601563-25.597657 25.601563-2.917969.015625-5.808593-.503907-8.535156-1.539063-10.222656-3.578125-17.066406-13.230468-17.066406-24.0625 0-10.832031 6.84375-20.484375 17.066406-24.0625 2.726563-1.035156 5.617187-1.554687 8.535156-1.539062 14.136719 0 25.597657 11.464844 25.597657 25.601562zm0 0" fill="#558b30"/><path d="m460.804688 280.914062c0-13.289062-7.640626-24.0625-17.066407-24.0625s-17.066406 10.773438-17.066406 24.0625c0 13.292969 7.640625 24.066407 17.066406 24.066407s17.066407-10.773438 17.066407-24.066407zm0 0" fill="#8bc34a"/><path d="m68.269531 281.597656c0-13.289062-7.640625-24.0625-17.066406-24.0625s-17.066406 10.773438-17.066406 24.0625c0 13.289063 7.640625 24.0625 17.066406 24.0625s17.066406-10.773437 17.066406-24.0625zm0 0" fill="#8bc34a"/><path d="m238.9375 366.929688h34.132812v59.734374h-34.132812zm0 0" fill="#37474f"/><path d="m128.003906 418.132812h256v34.132813h-256zm0 0" fill="#607d8b"/><path d="m85.335938 332.796875h34.132812c9.425781 0 17.066406 7.640625 17.066406 17.066406v136.535157c0 9.425781-7.640625 17.066406-17.066406 17.066406h-34.132812c-9.425782 0-17.066407-7.640625-17.066407-17.066406v-136.535157c0-9.425781 7.640625-17.066406 17.066407-17.066406zm0 0" fill="#606060"/><path d="m392.535156 332.796875h34.136719c9.421875 0 17.066406 7.640625 17.066406 17.066406v136.535157c0 9.425781-7.644531 17.066406-17.066406 17.066406h-34.136719c-9.425781 0-17.066406-7.640625-17.066406-17.066406v-136.535157c0-9.425781 7.640625-17.066406 17.066406-17.066406zm0 0" fill="#606060"/><path d="m85.335938 332.796875h4.265624c9.425782 0 17.070313 7.640625 17.070313 17.066406v136.535157c0 9.425781-7.644531 17.066406-17.070313 17.066406h-4.265624c-9.425782 0-17.066407-7.640625-17.066407-17.066406v-136.535157c0-9.425781 7.640625-17.066406 17.066407-17.066406zm0 0" fill="#9e9e9e"/><path d="m392.535156 332.796875h4.269532c9.425781 0 17.066406 7.640625 17.066406 17.066406v136.535157c0 9.425781-7.640625 17.066406-17.066406 17.066406h-4.269532c-9.425781 0-17.066406-7.640625-17.066406-17.066406v-136.535157c0-9.425781 7.640625-17.066406 17.066406-17.066406zm0 0" fill="#9e9e9e"/><path d="m307.203125 344.230469v14.167969c0 14.136718-11.460937 25.597656-25.601563 25.597656h-51.199218c-14.136719 0-25.597656-11.460938-25.597656-25.597656v-14.167969zm0 0" fill="#558b30"/><path d="m285.871094 344.230469v14.167969c0 14.136718-11.460938 25.597656-25.601563 25.597656h-29.867187c-14.136719 0-25.597656-11.460938-25.597656-25.597656v-14.167969zm0 0" fill="#8bc34a"/><path d="m324.269531 332.796875c-.070312 9.398437-7.667969 16.996094-17.066406 17.066406h-102.398437c-9.414063-.027343-17.039063-7.652343-17.066407-17.066406.066407-9.394531 7.667969-16.996094 17.066407-17.066406h102.398437c9.414063.027343 17.039063 7.652343 17.066406 17.066406zm0 0" fill="#2e7d32"/><path d="m302.9375 332.796875c-.070312 9.398437-7.671875 16.996094-17.066406 17.066406h-81.066406c-9.414063-.027343-17.039063-7.652343-17.066407-17.066406.066407-9.394531 7.667969-16.996094 17.066407-17.066406h81.066406c9.414062.027343 17.039062 7.652343 17.066406 17.066406zm0 0" fill="#4caf50"/><path d="m358.402344 243.199219c.015625 29.957031-13.082032 58.421875-35.839844 77.90625h-133.121094c-31.074218-26.605469-43.359375-69.140625-31.246094-108.21875 12.109376-39.074219 46.292969-67.210938 86.96875-71.578125h.34375c3.5-.339844 6.910157-.511719 10.496094-.511719 27.15625 0 53.203125 10.789063 72.40625 29.992187 19.203125 19.203126 29.992188 45.25 29.992188 72.410157zm0 0" fill="#558b30"/><path d="m337.070312 243.199219c.011719 29.957031-13.082031 58.421875-35.839843 77.90625h-111.789063c-31.074218-26.605469-43.359375-69.140625-31.246094-108.21875 12.109376-39.074219 46.292969-67.210938 86.96875-71.578125h.34375c52.066407 5.585937 91.550782 49.523437 91.5625 101.890625zm0 0" fill="#8bc34a"/><path d="m110.9375 162.132812c0 28.273438-22.925781 51.199219-51.199219 51.199219-2.863281.003907-5.71875-.253906-8.535156-.769531-24.625-4.140625-42.660156-25.460938-42.660156-50.429688 0-24.972656 18.035156-46.292968 42.660156-50.433593 2.816406-.515625 5.671875-.773438 8.535156-.769531 28.273438 0 51.199219 22.925781 51.199219 51.203124zm0 0" fill="#558b30"/><path d="m93.871094 162.132812c0-27.855468-19.105469-50.433593-42.667969-50.433593s-42.667969 22.578125-42.667969 50.433593c0 27.851563 19.105469 50.429688 42.667969 50.429688s42.667969-22.578125 42.667969-50.429688zm0 0" fill="#8bc34a"/><path d="m76.804688 162.132812c0 9.421876-7.640626 17.066407-17.066407 17.066407s-17.066406-7.644531-17.066406-17.066407c0-9.425781 7.640625-17.070312 17.066406-17.070312s17.066407 7.644531 17.066407 17.070312zm0 0" fill="#2e7d32"/><path d="m503.46875 161.449219c0 28.277343-22.921875 51.199219-51.199219 51.199219-2.863281.007812-5.71875-.25-8.53125-.769532-24.625-4.140625-42.660156-25.460937-42.660156-50.429687 0-24.972657 18.035156-46.292969 42.660156-50.433594 2.8125-.515625 5.667969-.773437 8.53125-.765625 13.578125 0 26.601563 5.390625 36.203125 14.996094 9.601563 9.601562 14.996094 22.625 14.996094 36.203125zm0 0" fill="#558b30"/><path d="m486.402344 161.449219c0-27.855469-19.101563-50.433594-42.664063-50.433594-23.566406 0-42.667969 22.578125-42.667969 50.433594 0 27.851562 19.101563 50.429687 42.667969 50.429687 23.5625 0 42.664063-22.578125 42.664063-50.429687zm0 0" fill="#8bc34a"/><path d="m469.335938 161.449219c0 9.425781-7.640626 17.066406-17.066407 17.066406s-17.066406-7.640625-17.066406-17.066406 7.640625-17.066407 17.066406-17.066407 17.066407 7.640626 17.066407 17.066407zm0 0" fill="#2e7d32"/><path d="m298.671875 230.398438c0 23.5625-19.105469 42.664062-42.667969 42.664062-2.839844.023438-5.671875-.265625-8.449218-.851562h-.171876c-19.882812-4.039063-34.175781-21.523438-34.175781-41.8125 0-20.292969 14.292969-37.777344 34.175781-41.8125h.171876c2.777343-.589844 5.609374-.875 8.449218-.855469 23.5625 0 42.667969 19.101562 42.667969 42.667969zm0 0" fill="#9e9e9e"/><path d="m281.601562 230.398438c-.019531 20.238281-14.230468 37.691406-34.046874 41.8125h-.171876c-19.882812-4.039063-34.175781-21.523438-34.175781-41.8125 0-20.292969 14.292969-37.777344 34.175781-41.8125h.171876c19.816406 4.117187 34.027343 21.570312 34.046874 41.8125zm0 0" fill="#f5f5f5"/><path d="m264.535156 230.398438c0 4.710937-3.820312 8.53125-8.53125 8.53125-4.714844 0-8.535156-3.820313-8.535156-8.53125 0-4.714844 3.820312-8.535157 8.535156-8.535157 4.710938 0 8.53125 3.820313 8.53125 8.535157zm0 0"/><path d="m34.136719 216.019531v43.238281c-8.648438 9.785157-10.925781 23.664063-5.855469 35.699219 5.066406 12.039063 16.582031 20.109375 29.625 20.765625 13.046875.65625 25.3125-6.222656 31.558594-17.691406l57.847656-28.816406c4.519531 22.414062 15.84375 42.886718 32.429688 58.625-2.523438 12.4375 4.539062 24.824218 16.527343 28.988281v1.570313c0 18.851562 15.28125 34.132812 34.132813 34.132812v17.066406h-93.867188v-59.734375c0-14.136719-11.460937-25.597656-25.597656-25.597656h-17.066406c-14.140625 0-25.601563 11.460937-25.601563 25.597656v136.535157c0 14.136718 11.460938 25.597656 25.601563 25.597656h17.066406c14.136719 0 25.597656-11.460938 25.597656-25.597656v-25.601563h238.933594v25.601563c0 14.136718 11.460938 25.597656 25.601562 25.597656h17.066407c14.136719 0 25.601562-11.460938 25.601562-25.597656v-136.535157c0-14.136719-11.464843-25.597656-25.601562-25.597656h-17.066407c-14.140624 0-25.601562 11.460937-25.601562 25.597656v59.734375h-93.867188v-17.066406c18.851563 0 34.136719-15.28125 34.136719-34.132812v-1.570313c12.011719-4.152344 19.09375-16.558594 16.5625-29.015625 16.722657-15.894531 28.078125-36.605469 32.492188-59.253906l57.746093 28.773437c6.25 11.46875 18.515626 18.34375 31.558594 17.691407 13.046875-.65625 24.5625-8.726563 29.628906-20.765626 5.066407-12.035156 2.792969-25.914062-5.855468-35.699218v-43.222656c19.238281-9.089844 32.171875-27.75 33.929687-48.957032 1.761719-21.203125-7.917969-41.742187-25.398437-53.878906v-19.320312c0-14.136719-11.460938-25.597657-25.597656-25.597657v-18.542969c11.558593-3.988281 18.585937-15.699218 16.671874-27.777343-1.917968-12.074219-12.222656-21.035157-24.445312-21.2539065-12.226562-.2187505-22.847656 8.3671875-25.191406 20.3671875l-28.417969 20.378906-28.527344-19.789062c-.066406-.113282-.074219-.238282-.152343-.34375-2.503907-3.433594-7.175782-4.46875-10.898438-2.414063-.707031.289063-1.375.679688-1.976562 1.152344l-28.382813 20.351563-29.023437-33.738282c-.59375-1.988281-1.898438-3.683594-3.667969-4.761718-2.269531-1.316407-5.019531-1.5-7.441407-.496094-.449218.167968-.886718.375-1.304687.613281-.273437.136719-.539063.28125-.792969.445313-.390625.179687-.765625.390624-1.121094.628906-1.222656 1.105468-2.089843 2.554687-2.480468 4.15625l-27.027344 45.226562-27.21875-44.371094c-.332031-2.847656-2.101562-5.328124-4.6875-6.566406-2.585938-1.242187-5.625-1.070312-8.054688.457032-.289062.082031-.574218.179687-.851562.296874-1.269531.824219-2.289062 1.976563-2.953125 3.335938l-29.082031 34.808594-29.046875-20.121094c-2.890625-2.894531-7.445313-3.28125-10.785157-.921875l-30.816406 22.050781-29.074218-20.164062c-2.535157-11.929688-13.242188-20.335938-25.429688-19.972656-12.191406.363281-22.375 9.394531-24.199219 21.453124-1.820312 12.054688 5.238281 23.691407 16.777344 27.640626v18.554687c-14.136719 0-25.601563 11.460937-25.601563 25.597656v19.320313c-17.476562 12.136718-27.15625 32.671875-25.398437 53.878906 1.761719 21.207031 14.695313 39.867188 33.933594 48.957031zm25.601562 5.84375c2.855469-.023437 5.707031-.25 8.53125-.683593v27.496093c-2.78125-.769531-5.648437-1.175781-8.53125-1.210937-2.886719.035156-5.753906.441406-8.535156 1.210937v-27.496093c2.824219.433593 5.675781.660156 8.535156.683593zm0 76.800781c-9.425781 0-17.066406-7.640624-17.066406-17.066406 0-9.425781 7.640625-17.066406 17.066406-17.066406s17.066407 7.640625 17.066407 17.066406c0 9.425782-7.640626 17.066406-17.066407 17.066406zm33.671875-21.65625c-.773437-5.746093-3.011718-11.199218-6.496094-15.832031l59.4375-29.660156c-.8125 5.277344-1.242187 10.609375-1.28125 15.949219 0 1.246094.160157 2.464844.203126 3.703125zm26.058594 175.257813v8.53125h-34.132812v-17.066406h34.132812zm0-59.734375h-34.132812v-17.066406h34.132812zm0 25.601562v8.53125h-34.132812v-17.066406h34.132812zm-25.597656-76.800781h17.066406c4.710938 0 8.53125 3.820313 8.53125 8.53125v8.535157h-34.132812v-8.535157c0-4.710937 3.820312-8.53125 8.535156-8.53125zm17.066406 153.597657h-17.066406c-4.714844 0-8.535156-3.820313-8.535156-8.53125v-8.535157h34.132812v8.535157c0 4.710937-3.820312 8.53125-8.53125 8.53125zm281.597656-42.664063v-8.535156h34.136719v17.066406h-34.136719zm34.136719-59.734375h-34.136719v-17.066406h34.136719zm-34.136719 25.601562v-8.535156h34.136719v17.066406h-34.136719zm25.601563 76.796876h-17.066407c-4.714843 0-8.535156-3.820313-8.535156-8.53125v-8.535157h34.136719v8.535157c0 4.710937-3.824219 8.53125-8.535156 8.53125zm-17.066407-153.597657h17.066407c4.710937 0 8.535156 3.820313 8.535156 8.53125v8.535157h-34.136719v-8.535157c0-4.710937 3.820313-8.53125 8.535156-8.53125zm-25.601562 102.398438h-238.933594v-17.066407h238.933594zm-110.933594-34.132813h-17.066406v-17.066406h17.066406zm17.066406-34.132812h-51.199218c-9.425782 0-17.066406-7.640625-17.066406-17.066406h85.335937c0 9.425781-7.644531 17.066406-17.070313 17.066406zm25.601563-34.132813h-102.398437c-4.714844 0-8.535157-3.820312-8.535157-8.535156 0-4.710937 3.820313-8.53125 8.535157-8.53125h102.398437c4.714844 0 8.535156 3.820313 8.535156 8.53125 0 4.714844-3.820312 8.535156-8.535156 8.535156zm15.992187-28.367187c-4.507812-3.703125-10.15625-5.742188-15.992187-5.765625h-102.398437c-5.835938.023437-11.484376 2.0625-15.992188 5.765625-35.988281-36.890625-35.5-95.898438 1.09375-132.191406 36.589844-36.292969 95.601562-36.292969 132.195312 0 36.59375 36.292968 37.082032 95.300781 1.09375 132.191406zm42.351563-82.183594 59.542969 29.714844c-3.484375 4.632812-5.71875 10.082031-6.492188 15.828125l-51.824218-25.8125c0-1.023438.164062-2.023438.164062-3.046875-.042969-5.589844-.507812-11.164063-1.390625-16.683594zm86.722656 67.199219c-9.425781 0-17.066406-7.640625-17.066406-17.066407 0-9.425781 7.640625-17.066406 17.066406-17.066406s17.066407 7.640625 17.066407 17.066406c0 9.425782-7.640626 17.066407-17.066407 17.066407zm8.535157-49.988281c-5.574219-1.613282-11.492188-1.613282-17.066407 0v-27.484376c5.652344.898438 11.410157.898438 17.066407 0zm34.132812-86.542969c0 23.5625-19.101562 42.664062-42.667969 42.664062-23.5625 0-42.667969-19.101562-42.667969-42.664062 0-23.566407 19.105469-42.667969 42.667969-42.667969 23.554688.027344 42.640625 19.113281 42.667969 42.667969zm-25.601562-68.269531v11.09375c-11.128907-3.355469-23.003907-3.355469-34.132813 0v-11.09375c0-4.710938 3.820313-8.53125 8.535156-8.53125h17.066407c4.710937 0 8.53125 3.820312 8.53125 8.53125zm-16.726563-76.117188c4.527344 0 8.195313 3.667969 8.195313 8.195312 0 4.523438-3.667969 8.191407-8.195313 8.191407-4.523437 0-8.191406-3.667969-8.191406-8.191407.011719-4.523437 3.671875-8.183593 8.191406-8.195312zm-393.214844.683594c4.523438 0 8.191407 3.667968 8.191407 8.191406 0 4.527344-3.667969 8.195312-8.191407 8.195312-4.523437 0-8.191406-3.667968-8.191406-8.195312 0-2.171875.863281-4.253906 2.398437-5.792969 1.539063-1.535156 3.621094-2.398437 5.792969-2.398437zm8.875 31.746094c5.21875-1.976563 9.640625-5.621094 12.570313-10.371094l27.535156 19.089844c2.964844 2.054687 6.902344 2.023437 9.832031-.074219l30.566407-21.921875 31.710937 21.996094c3.625 2.519531 8.574219 1.851562 11.40625-1.535157l27.546875-32.929687 30.027344 48.972656c1.546875 2.523438 4.289062 4.066406 7.246094 4.078125h.050781c2.988281-.015625 5.746093-1.589844 7.28125-4.15625l29.207031-48.878906 28.390625 33c2.882813 3.351562 7.851563 3.949219 11.445313 1.375l30.207031-21.675781 31.351562 21.75c2.964844 2.058593 6.90625 2.027343 9.839844-.074219l26.894531-19.296875c2.941406 4.570312 7.273438 8.070312 12.359375 9.984375v18.773437c-14.140625 0-25.601562 11.460938-25.601562 25.601563v19.320312c-17.476563 12.136719-27.160157 32.671875-25.398438 53.878907 1.757813 21.203124 14.691407 39.863281 33.933594 48.953124v26.875l-66.800781-33.332031c-16.128906-43.628906-57.804688-72.527343-104.320313-72.335937s-87.949219 29.429687-103.722656 73.1875l-66.492187 33.136718v-26.863281c19.238281-9.089843 32.171874-27.75 33.933593-48.957031 1.757813-21.207031-7.921875-41.742188-25.398437-53.878906v-19.320313c0-6.789062-2.699219-13.300781-7.5-18.101562-4.800782-4.800781-11.3125-7.496094-18.101563-7.496094zm-25.597656 44.371093c0-4.710937 3.820313-8.53125 8.53125-8.53125h17.066406c4.714844 0 8.535157 3.820313 8.535157 8.53125v11.09375c-11.132813-3.355469-23.003907-3.355469-34.132813 0zm17.066406 25.601563c23.5625 0 42.664063 19.101562 42.664063 42.667968 0 23.5625-19.101563 42.664063-42.664063 42.664063-23.566406 0-42.667969-19.101563-42.667969-42.664063.027344-23.554687 19.113282-42.640624 42.667969-42.667968zm0 0"/><path d="m59.738281 187.730469c14.136719 0 25.597657-11.460938 25.597657-25.597657 0-14.140624-11.460938-25.601562-25.597657-25.601562-14.140625 0-25.601562 11.460938-25.601562 25.601562 0 14.136719 11.460937 25.597657 25.601562 25.597657zm0-34.132813c4.710938 0 8.53125 3.820313 8.53125 8.535156 0 4.710938-3.820312 8.53125-8.53125 8.53125-4.714843 0-8.535156-3.820312-8.535156-8.53125 0-4.714843 3.820313-8.535156 8.535156-8.535156zm0 0"/><path d="m452.269531 135.847656c-14.136719 0-25.597656 11.460938-25.597656 25.601563 0 14.136719 11.460937 25.597656 25.597656 25.597656 14.140625 0 25.601563-11.460937 25.601563-25.597656 0-14.140625-11.460938-25.601563-25.601563-25.601563zm0 34.132813c-4.710937 0-8.53125-3.820313-8.53125-8.53125 0-4.714844 3.820313-8.535157 8.53125-8.535157 4.714844 0 8.535157 3.820313 8.535157 8.535157 0 4.710937-3.820313 8.53125-8.535157 8.53125zm0 0"/><path d="m256.003906 179.199219c-28.277344 0-51.199218 22.921875-51.199218 51.199219 0 28.277343 22.921874 51.199218 51.199218 51.199218s51.199219-22.921875 51.199219-51.199218c-.027344-28.265626-22.933594-51.171876-51.199219-51.199219zm0 85.332031c-18.851562 0-34.132812-15.28125-34.132812-34.132812 0-18.851563 15.28125-34.132813 34.132812-34.132813 18.851563 0 34.132813 15.28125 34.132813 34.132813 0 18.851562-15.28125 34.132812-34.132813 34.132812zm0 0"/></svg>