<svg height="512pt" viewBox="-4 0 512 512.10604" width="512pt" xmlns="http://www.w3.org/2000/svg"><path d="m422.46875 465.171875v25.601563c0 4.710937-3.820312 8.53125-8.535156 8.53125h-68.265625c-4.710938 0-8.53125-3.820313-8.53125-8.53125v-25.601563c.027343-9.414063 7.652343-17.039063 17.066406-17.066406h51.199219c9.414062.027343 17.039062 7.652343 17.066406 17.066406zm0 0" fill="#f57c00"/><path d="m166.46875 465.171875v25.601563c0 4.710937-3.820312 8.53125-8.535156 8.53125h-68.265625c-4.710938 0-8.53125-3.820313-8.53125-8.53125v-25.601563c.027343-9.414063 7.652343-17.039063 17.066406-17.066406h51.199219c9.414062.027343 17.039062 7.652343 17.066406 17.066406zm0 0" fill="#f57c00"/><path d="m405.402344 465.171875v25.601563c0 4.710937-3.820313 8.53125-8.535156 8.53125h-51.199219c-4.710938 0-8.53125-3.820313-8.53125-8.53125v-25.601563c.027343-9.414063 7.652343-17.039063 17.066406-17.066406h34.132813c9.414062.027343 17.039062 7.652343 17.066406 17.066406zm0 0" fill="#ff9801"/><path d="m140.867188 465.171875v25.601563c0 4.710937-3.820313 8.53125-8.53125 8.53125h-42.667969c-4.710938 0-8.53125-3.820313-8.53125-8.53125v-25.601563c.027343-9.414063 7.652343-17.039063 17.066406-17.066406h25.597656c9.414063.027343 17.039063 7.652343 17.066407 17.066406zm0 0" fill="#ff9801"/><path d="m373.316406 360.46875c-.171875.425781-.257812.851562-.425781 1.28125-3.773437 11.242188-11.972656 20.457031-22.699219 25.511719-8.523437 4.0625-18.238281 4.851562-27.308594 2.21875l24.578126-81.664063h.085937c21.648437 7.429688 33.183594 30.996094 25.769531 52.652344zm0 0" fill="#ffeb3a"/><path d="m396.867188 405.269531v42.835938c-.066407 9.398437-7.667969 16.996093-17.066407 17.066406-9.414062-.027344-17.039062-7.652344-17.066406-17.066406v-41.214844c0-4.546875-1.8125-8.90625-5.035156-12.117187l-7.507813-7.511719c10.726563-5.054688 18.925782-14.269531 22.699219-25.511719l10.238281 10.238281c8.789063 8.847657 13.726563 20.808594 13.738282 33.28125zm0 0" fill="#424242"/><path d="m180.71875 389.480469c-9.066406 2.632812-18.78125 1.84375-27.304688-2.21875-10.726562-5.054688-18.925781-14.269531-22.699218-25.511719-.171875-.429688-.257813-.855469-.425782-1.28125-7.417968-21.65625 4.117188-45.222656 25.769532-52.652344h.085937zm0 0" fill="#ffeb3a"/><path d="m153.414062 387.261719-7.511718 7.511719c-3.21875 3.210937-5.03125 7.570312-5.035156 12.117187v41.214844c-.027344 9.414062-7.652344 17.039062-17.066407 17.066406-9.394531-.070313-16.996093-7.667969-17.066406-17.066406v-42.835938c.015625-12.472656 4.953125-24.433593 13.738281-33.28125l10.242188-10.238281c3.773437 11.242188 11.972656 20.457031 22.699218 25.511719zm0 0" fill="#424242"/><g fill="#ffeb3a"><path d="m132.675781 230.507812h-30.207031c-9.414062-.03125-17.039062-7.65625-17.066406-17.070312v-17.066406c.027344-9.414063 7.652344-17.035156 17.066406-17.066406h30.207031zm0 0"/><path d="m370.925781 179.304688h30.210938c9.414062.03125 17.035156 7.652343 17.066406 17.066406v17.066406c-.03125 9.414062-7.652344 17.039062-17.066406 17.070312h-30.210938zm0 0"/><path d="m42.734375 324.371094c-14.136719 0-25.597656-11.460938-25.597656-25.597656 0-14.140626 11.460937-25.601563 25.597656-25.601563 14.140625 0 25.601563 11.460937 25.601563 25.601563 0 14.136718-11.460938 25.597656-25.601563 25.597656zm0 0"/><path d="m460.867188 324.371094c-14.136719 0-25.597657-11.460938-25.597657-25.597656 0-14.140626 11.460938-25.601563 25.597657-25.601563 14.140624 0 25.601562 11.460937 25.601562 25.601563 0 14.136718-11.460938 25.597656-25.601562 25.597656zm0 0"/></g><path d="m179.269531 25.707031c0 9.425781-7.640625 17.066407-17.066406 17.066407s-17.066406-7.640626-17.066406-17.066407 7.640625-17.066406 17.066406-17.066406 17.066406 7.640625 17.066406 17.066406zm0 0" fill="#f44335"/><path d="m367 145.171875v25.601563h-230.398438v-25.601563c0-14.136719 11.460938-25.597656 25.601563-25.597656h179.199219c14.136718 0 25.597656 11.460937 25.597656 25.597656zm0 0" fill="#ffb301"/><path d="m345.667969 145.171875v25.601563h-209.066407v-25.601563c0-14.136719 11.460938-25.597656 25.601563-25.597656h157.867187c14.136719 0 25.597657 11.460937 25.597657 25.597656zm0 0" fill="#fec108"/><path d="m324.335938 396.90625-48.554688 33.28125c-1.734375.574219-3.550781.859375-5.375.851562h-37.207031c-1.828125.007813-3.640625-.277343-5.375-.851562l-4.949219-3.414062-43.605469-29.867188s-42.242187-108.542969-32.769531-154.367188h210.601562c9.472657 45.824219-32.765624 154.367188-32.765624 154.367188zm0 0" fill="#ffb301"/><path d="m307.269531 392.640625-48.554687 33.277344c-1.734375.574219-3.550782.863281-5.378906.855469h-30.460938l-43.605469-29.867188s-42.242187-108.542969-32.769531-154.367188h194.21875c6.316406 47.871094-33.449219 150.101563-33.449219 150.101563zm0 0" fill="#fec108"/><path d="m384.070312 196.371094v17.066406c-.046874 18.832031-15.304687 34.089844-34.136718 34.136719h-196.265625c-18.832031-.046875-34.085938-15.304688-34.132813-34.136719v-17.066406c.007813-5.992188 1.597656-11.882813 4.609375-17.066406 2.96875-5.1875 7.269531-9.488282 12.457031-12.457032h230.398438c5.191406 2.96875 9.492188 7.269532 12.460938 12.457032 3.011718 5.183593 4.601562 11.074218 4.609374 17.066406zm0 0" fill="#f57c00"/><path d="m362.734375 196.371094v17.066406c-.046875 18.832031-15.300781 34.089844-34.132813 34.136719h-174.933593c-18.832031-.046875-34.085938-15.304688-34.132813-34.136719v-17.066406c.007813-5.992188 1.597656-11.882813 4.609375-17.066406 2.96875-5.1875 7.269531-9.488282 12.457031-12.457032h209.066407c5.1875 2.96875 9.488281 7.269532 12.460937 12.457032 3.011719 5.183593 4.601563 11.074218 4.605469 17.066406zm0 0" fill="#ff9801"/><path d="m290.203125 324.371094c.011719 10.191406-4.027344 19.964844-11.234375 27.167968-7.203125 7.207032-16.976562 11.246094-27.167969 11.234376-2.867187-.007813-5.730469-.324219-8.53125-.9375-17.519531-3.949219-29.960937-19.507813-29.960937-37.464844 0-17.953125 12.441406-33.515625 29.960937-37.460938 2.800781-.613281 5.664063-.929687 8.53125-.9375 10.191407-.011718 19.964844 4.027344 27.167969 11.230469 7.207031 7.207031 11.246094 16.980469 11.234375 27.167969zm0 0" fill="#fec108"/><path d="m273.136719 324.371094c0-20.6875-13.375-37.460938-29.867188-37.460938-16.496093 0-29.867187 16.773438-29.867187 37.460938 0 20.691406 13.371094 37.464844 29.867187 37.464844 16.492188 0 29.867188-16.773438 29.867188-37.464844zm0 0" fill="#ffeb3a"/><path d="m307.269531 132.371094c-.078125 30.523437-24.855469 55.21875-55.375 55.195312-30.523437-.027344-55.261719-24.761718-55.285156-55.285156-.027344-30.523438 24.671875-55.300781 55.191406-55.375 30.632813 0 55.46875 24.832031 55.46875 55.464844zm0 0" fill="#d84315"/><path d="m290.203125 132.371094c0-30.253906-21.015625-54.78125-46.933594-54.78125-25.921875 0-46.933593 24.527344-46.933593 54.78125 0 30.257812 21.011718 54.785156 46.933593 54.785156 25.917969 0 46.933594-24.527344 46.933594-54.785156zm0 0" fill="#ff5722"/><path d="m273.136719 132.371094c0 11.785156-9.554688 21.335937-21.335938 21.335937s-21.332031-9.550781-21.332031-21.335937c0-11.78125 9.550781-21.332032 21.332031-21.332032s21.335938 9.550782 21.335938 21.332032zm0 0" fill="#cfd8dc"/><path d="m162.203125 204.90625c0 4.710938-3.820313 8.53125-8.535156 8.53125-4.710938 0-8.53125-3.820312-8.53125-8.53125 0-4.714844 3.820312-8.535156 8.53125-8.535156 4.714843 0 8.535156 3.820312 8.535156 8.535156zm0 0"/><path d="m196.335938 204.90625c0 4.710938-3.820313 8.53125-8.535157 8.53125-4.710937 0-8.53125-3.820312-8.53125-8.53125 0-4.714844 3.820313-8.535156 8.53125-8.535156 4.714844 0 8.535157 3.820312 8.535157 8.535156zm0 0"/><path d="m251.800781 281.707031c-25.917969 0-46.933593 21.011719-46.933593 46.933594 0 25.917969 21.015624 46.933594 46.933593 46.933594 25.921875 0 46.933594-21.015625 46.933594-46.933594-.027344-25.910156-21.023437-46.90625-46.933594-46.933594zm0 76.800781c-16.492187 0-29.867187-13.375-29.867187-29.867187 0-16.496094 13.375-29.867187 29.867187-29.867187 16.496094 0 29.867188 13.371093 29.867188 29.867187 0 16.492187-13.371094 29.867187-29.867188 29.867187zm0 0"/><path d="m251.800781 162.238281c16.496094 0 29.867188-13.371093 29.867188-29.867187 0-16.492188-13.371094-29.863282-29.867188-29.863282-16.492187 0-29.867187 13.371094-29.867187 29.863282 0 16.496094 13.375 29.867187 29.867187 29.867187zm0-42.664062c7.070313 0 12.800781 5.730469 12.800781 12.796875 0 7.070312-5.730468 12.800781-12.800781 12.800781-7.066406 0-12.800781-5.730469-12.800781-12.800781 0-7.066406 5.734375-12.796875 12.800781-12.796875zm0 0"/><path d="m8.601562 341.4375c2.261719 0 4.433594-.898438 6.035157-2.5l17.066406-17.066406.050781-.074219c.796875.378906 1.613282.714844 2.449219 1.003906v18.636719c0 4.714844 3.820313 8.535156 8.53125 8.535156 4.714844 0 8.535156-3.820312 8.535156-8.535156v-18.636719c.832031-.289062 1.648438-.625 2.449219-1.003906l.050781.074219 17.066407 17.066406c3.347656 3.234375 8.671874 3.1875 11.960937-.101562 3.292969-3.292969 3.339844-8.613282.105469-11.964844l-17.066406-17.066406-.0625-.050782c1.671874-3.417968 2.546874-7.175781 2.5625-10.980468-.046876-10.8125-6.875-20.425782-17.066407-24.03125v-44.234376c0-9.425781 7.640625-17.070312 17.066407-17.070312h8.53125c0 14.140625 11.460937 25.601562 25.601562 25.601562h17.132812c4.519532 6.011719 10.546876 10.722657 17.46875 13.652344-.867187 18.234375.8125 36.496094 4.992188 54.265625-8.875 4.46875-16.132812 11.605469-20.742188 20.410157-5.722656 11.125-7.28125 23.925781-4.394531 36.097656l-6.761719 6.773437c-10.40625 10.410157-16.242187 24.535157-16.210937 39.253907v34.347656c-14.140625 0-25.601563 11.460937-25.601563 25.597656v25.601562c0 9.425782 7.640626 17.066407 17.066407 17.066407h68.269531c9.421875 0 17.066406-7.640625 17.066406-17.066407v-25.601562c0-14.136719-11.464844-25.597656-25.601562-25.597656v-32.699219c.007812-2.261719.90625-4.429687 2.5-6.035156l3.636718-3.625c4.683594 1.523437 9.578126 2.308593 14.503907 2.328125 1.738281-.023438 3.472656-.144532 5.199219-.367188l.324218.855469c.621094 1.597656 1.714844 2.972656 3.128906 3.941406l48.574219 33.28125c.65625.445313 1.371094.796875 2.125 1.046875 2.609375.871094 5.34375 1.316406 8.097657 1.316406h37.121093c2.75 0 5.484375-.445312 8.097657-1.316406.753906-.25 1.46875-.601562 2.125-1.046875l48.570312-33.28125c1.417969-.96875 2.507812-2.34375 3.132812-3.941406l.324219-.855469c1.722657.222656 3.457031.34375 5.195313.367188 4.929687-.019532 9.820312-.804688 14.507812-2.328125l3.636719 3.625c1.589844 1.605469 2.488281 3.773437 2.5 6.035156v32.699219c-14.140625 0-25.601563 11.460937-25.601563 25.597656v25.601562c0 9.425782 7.640626 17.066407 17.066407 17.066407h68.265625c9.425781 0 17.066406-7.640625 17.066406-17.066407v-25.601562c0-14.136719-11.460938-25.597656-25.597656-25.597656v-34.289063c.03125-14.71875-5.804688-28.84375-16.214844-39.25l-6.730469-6.75c2.886719-12.183593 1.316407-24.996093-4.421875-36.125-4.613281-8.800781-11.867187-15.941406-20.746094-20.410156 4.183594-17.765625 5.863282-36.03125 4.992188-54.261719 6.933594-2.949218 12.957031-7.683594 17.46875-13.714844h17.136719c14.136719 0 25.597656-11.460937 25.597656-25.601562h8.535156c9.425781 0 17.066407 7.644531 17.066407 17.070312v44.234376c-10.191407 3.605468-17.023438 13.21875-17.066407 24.03125.011719 3.804687.886719 7.5625 2.558594 10.980468l-.078125.050782-17.066406 17.066406c-2.21875 2.144531-3.105469 5.316406-2.324219 8.300781s3.109375 5.3125 6.09375 6.09375 6.15625-.109375 8.296875-2.328125l17.066406-17.066406.050782-.074219c.800781.378906 1.617187.714844 2.449218 1.003906v18.636719c0 4.714844 3.820313 8.535156 8.535156 8.535156 4.710938 0 8.535157-3.820312 8.535157-8.535156v-18.636719c.832031-.289062 1.648437-.625 2.445312-1.003906l.054688.074219 17.066406 17.066406c3.347656 3.234375 8.667969 3.1875 11.960937-.101562 3.292969-3.292969 3.335938-8.613282.105469-11.964844l-17.066406-17.066406-.078125-.050782c1.683594-3.417968 2.570312-7.171875 2.59375-10.980468-.046875-10.8125-6.875-20.425782-17.066406-24.03125v-44.234376c0-18.851562-15.28125-34.136718-34.132813-34.136718h-8.535156c0-14.136719-11.460937-25.597656-25.597656-25.597656h-17.128907c-2.402343-3.214844-5.257812-6.070313-8.472656-8.472657v-17.128906c0-18.851563-15.28125-34.132813-34.132812-34.132813h-29.328125c-9.007813-25.5625-33.164063-42.664062-60.269531-42.664062-27.101563 0-51.257813 17.101562-60.265626 42.664062h-20.804687v-61.304687c11.757813-4.15625 18.808594-16.175781 16.699219-28.464844-2.109375-12.289062-12.761719-21.269531-25.230469-21.269531s-23.125 8.980469-25.234375 21.269531c-2.105469 12.289063 4.945312 24.308594 16.699219 28.464844v62.515625c-15.023438 3.878906-25.542969 17.40625-25.597657 32.921875v17.128906c-3.214843 2.40625-6.070312 5.257813-8.476562 8.472657h-17.125c-14.140625 0-25.601562 11.460937-25.601562 25.597656h-8.53125c-18.851563 0-34.132813 15.285156-34.132813 34.136718v44.234376c-10.191406 3.605468-17.023437 13.21875-17.066406 24.03125.011719 3.804687.886719 7.5625 2.558593 10.980468l-.078124.050782-17.066407 17.066406c-2.441406 2.445312-3.167969 6.117187-1.84375 9.308594 1.324219 3.1875 4.441407 5.265624 7.894531 5.257812zm452.265626-51.199219c4.714843 0 8.535156 3.820313 8.535156 8.535157 0 4.710937-3.820313 8.53125-8.535156 8.53125-4.710938 0-8.53125-3.820313-8.53125-8.53125 0-4.714844 3.820312-8.535157 8.53125-8.535157zm-349.867188 119.3125c-.027344-10.214843 4.023438-20.019531 11.257812-27.238281l1.875-1.882812c3.09375 4.800781 6.949219 9.066406 11.417969 12.628906-4.804687 4.789062-7.5 11.296875-7.480469 18.082031v41.230469c0 4.714844-3.824218 8.535156-8.535156 8.535156-4.710937 0-8.535156-3.820312-8.535156-8.535156zm42.667969 59.886719v25.601562h-68.265625v-25.601562c0-4.710938 3.820312-8.53125 8.53125-8.53125h1.570312c3.5625 10.222656 13.203125 17.074219 24.03125 17.074219s20.46875-6.851563 24.03125-17.074219h1.570313c4.710937 0 8.53125 3.820312 8.53125 8.53125zm-.851563-85.628906c-8.601562-4.109375-15.167968-11.53125-18.203125-20.566406v-.1875c-.117187-.261719-.246093-.515626-.390625-.761719l.152344-.066407c-2.816406-8.90625-2.003906-18.5625 2.261719-26.871093 2.300781-4.332031 5.597656-8.054688 9.617187-10.863281 5.972656 24.082031 13.507813 47.0625 18.773438 62.164062-4.222656-.09375-8.382813-1.066406-12.210938-2.847656zm119.328125 42.785156c-.558593.117188-1.132812.175781-1.707031.179688h-37.117188c-.574218-.003907-1.148437-.0625-1.707031-.179688l-45.226562-30.949219c-5.703125-15.183593-35.621094-97.222656-32.429688-139.539062h195.789063c3.183594 42.316406-26.734375 124.355469-32.425782 139.539062zm146.058594 42.84375v25.601562h-68.269531v-25.601562c0-4.710938 3.820312-8.53125 8.535156-8.53125h1.570312c3.5625 10.222656 13.203126 17.074219 24.03125 17.074219 10.824219 0 20.464844-6.851563 24.027344-17.074219h1.570313c4.714843 0 8.535156 3.820312 8.535156 8.53125zm-25.601563-17.066406c0 4.714844-3.820312 8.535156-8.53125 8.535156-4.714843 0-8.535156-3.820312-8.535156-8.535156v-41.230469c.015625-6.785156-2.675781-13.292969-7.484375-18.082031 4.46875-3.5625 8.324219-7.828125 11.417969-12.628906l1.878906 1.882812c7.230469 7.21875 11.285156 17.023438 11.253906 27.238281zm-25.421874-117.042969c4.195312 8.089844 5.085937 17.488281 2.492187 26.222656-.164063.402344-.300781.8125-.417969 1.230469v.203125c0 .070313-.085937.105469-.101562.171875-3.035156 9.035156-9.601563 16.457031-18.203125 20.566406-3.792969 1.753906-7.902344 2.714844-12.082031 2.824219 5.308593-15.105469 12.851562-38.09375 18.773437-62.164063 4.003906 2.839844 7.273437 6.59375 9.539063 10.945313zm-17.246094-96.289063h-196.265625c-14.117188-.050781-25.546875-11.484374-25.597657-25.601562v-17.066406c-.050781-6.484375 2.453126-12.726563 6.96875-17.378906.511719.15625 1.03125.261718 1.5625.3125h71.832032c24.4375 22.753906 62.300781 22.753906 86.734375 0h71.832031c.53125-.050782 1.054688-.15625 1.5625-.3125 1.339844 1.382812 2.511719 2.917968 3.5 4.570312 2.273438 3.886719 3.472656 8.308594 3.472656 12.808594v17.066406c-.050781 14.117188-11.484375 25.550781-25.601562 25.601562zm59.734375-42.667968v17.066406c0 4.714844-3.820313 8.535156-8.53125 8.535156h-9.507813c.617188-2.804687.945313-5.664062.972656-8.535156v-17.066406c-.03125-2.867188-.351562-5.726563-.964843-8.53125h9.5c4.710937 0 8.53125 3.820312 8.53125 8.53125zm-68.265625-68.265625c9.425781 0 17.066406 7.640625 17.066406 17.066406v17.066406h-50.109375c4.894531-9.195312 7.449219-19.449219 7.441406-29.867187 0-1.441406-.117187-2.847656-.210937-4.265625zm-89.601563-42.667969c25.921875 0 46.933594 21.015625 46.933594 46.933594 0 25.921875-21.011719 46.933594-46.933594 46.933594-25.917969 0-46.933593-21.011719-46.933593-46.933594.03125-25.90625 21.027343-46.902344 46.933593-46.933594zm-89.597656-68.265625c4.710937 0 8.53125 3.820313 8.53125 8.535156 0 4.710938-3.820313 8.53125-8.53125 8.53125-4.714844 0-8.535156-3.820312-8.535156-8.53125 0-4.714843 3.820312-8.535156 8.535156-8.535156zm-17.066406 128c0-9.425781 7.640625-17.066406 17.066406-17.066406h25.8125c-.09375 1.417969-.214844 2.824219-.214844 4.265625-.003906 10.417968 2.550781 20.671875 7.441407 29.867187h-50.105469zm-51.203125 51.199219c0-4.710938 3.820312-8.53125 8.535156-8.53125h9.507812c-.621093 2.804687-.945312 5.664062-.976562 8.53125v17.066406c.03125 2.871094.355469 5.730469.964844 8.535156h-9.496094c-4.714844 0-8.535156-3.820312-8.535156-8.535156zm-51.199219 93.867187c4.714844 0 8.535156 3.820313 8.535156 8.535157 0 4.710937-3.820312 8.53125-8.535156 8.53125-4.710937 0-8.53125-3.820313-8.53125-8.53125 0-4.714844 3.820313-8.535157 8.53125-8.535157zm0 0"/><path d="m349.933594 196.371094h-34.132813c-4.710937 0-8.53125 3.820312-8.53125 8.535156 0 4.710938 3.820313 8.53125 8.53125 8.53125h34.132813c4.714844 0 8.535156-3.820312 8.535156-8.53125 0-4.714844-3.820312-8.535156-8.535156-8.535156zm0 0"/></svg>