<svg height="512pt" viewBox="0 0 512.01626 512" width="512pt" xmlns="http://www.w3.org/2000/svg"><path d="m460.816406 233.050781h34.132813v107.007813h-34.132813zm0 0" fill="#607d8b"/><path d="m17.082031 232.367188h34.132813v107.007812h-34.132813zm0 0" fill="#607d8b"/><path d="m486.414062 76.804688c.019532 5.664062-2.222656 11.101562-6.226562 15.105468s-9.441406 6.246094-15.105469 6.226563h-42.667969c-1.496093.011719-2.890624-.765625-3.667968-2.046875l11.605468-40.617188h34.730469c11.78125 0 21.332031 9.550782 21.332031 21.332032zm0 0" fill="#6a1b9a"/><path d="m469.347656 76.804688c.019532 5.664062-2.222656 11.101562-6.226562 15.105468s-9.441406 6.246094-15.105469 6.226563h-25.601563c-1.496093.011719-2.890624-.765625-3.667968-2.046875l11.605468-40.617188h17.664063c11.78125 0 21.332031 9.550782 21.332031 21.332032zm0 0" fill="#9d27b0"/><path d="m93.285156 96.089844c-.777344 1.28125-2.171875 2.058594-3.667968 2.046875h-42.667969c-11.78125 0-21.332031-9.550781-21.332031-21.332031s9.550781-21.332032 21.332031-21.332032h34.730469zm0 0" fill="#6a1b9a"/><path d="m67.683594 96.089844c-.777344 1.28125-2.171875 2.058594-3.667969 2.046875h-17.066406c-11.78125 0-21.332031-9.550781-21.332031-21.332031s9.550781-21.332032 21.332031-21.332032h9.128906zm0 0" fill="#9d27b0"/><path d="m76.21875 93.871094-23.125 102.316406-34.21875-3.328125v-.085937l22.613281-99.585938zm0 0" fill="#607d8b"/><path d="m435.8125 94.554688 23.125 102.316406 34.21875-3.328125v-.085938l-22.613281-99.585937zm0 0" fill="#607d8b"/><path d="m323.429688 244.777344c-1.132813 2.101562-3.023438 3.695312-5.292969 4.453125l-40.871094 14.695312c-1.148437.417969-2.363281.625-3.585937.613281h-35.328126c-1.222656.011719-2.4375-.195312-3.582031-.613281l-40.875-14.695312c-2.269531-.757813-4.160156-2.351563-5.292969-4.453125l-.597656-67.707032h136.023438zm0 0" fill="#37474f"/><path d="m145.082031 291.5625v-88.890625h59.734375l-34.132812 88.890625zm0 0" fill="#6a1b9a"/><path d="m341.347656 291.5625-34.132812-88.890625h59.734375v88.890625zm0 0" fill="#6a1b9a"/><path d="m298.683594 460.804688h25.597656v34.132812h-34.132812c-4.710938 0-8.53125-3.820312-8.53125-8.53125v-8.535156c0-9.425782 7.640624-17.066406 17.066406-17.066406zm0 0" fill="#424242"/><path d="m221.882812 494.9375h-37.914062v-34.132812h29.378906c9.425782 0 17.066406 7.640624 17.066406 17.066406v8.535156c0 4.710938-3.820312 8.53125-8.53125 8.53125zm0 0" fill="#424242"/><path d="m136.550781 362.671875 15.527344 85.332031h27.136719v-85.332031zm0 0" fill="#e91e63"/><path d="m196.28125 452.273438v42.664062h-88.574219l3.242188-34.132812c5.195312-10.46875 15.875-17.082032 27.5625-17.066407h49.238281c4.710938 0 8.53125 3.820313 8.53125 8.535157zm0 0" fill="#6a1b9a"/><path d="m93.882812 460.804688h17.066407v34.132812h-25.601563c-4.710937 0-8.53125-3.820312-8.53125-8.53125v-8.535156c0-9.425782 7.640625-17.066406 17.066406-17.066406zm0 0" fill="#424242"/><path d="m375.480469 362.671875-15.527344 85.332031h-27.136719v-85.332031zm0 0" fill="#e91e63"/><path d="m404.324219 494.9375h-88.574219v-42.664062c0-4.714844 3.820312-8.535157 8.53125-8.535157h49.238281c11.6875-.015625 22.371094 6.597657 27.5625 17.066407zm0 0" fill="#6a1b9a"/><path d="m174.949219 452.273438v42.664062h-67.242188l3.242188-34.132812c5.195312-10.46875 15.875-17.082032 27.5625-17.066407h27.902343c4.714844 0 8.535157 3.820313 8.535157 8.535157zm0 0" fill="#9d27b0"/><path d="m382.992188 494.9375h-67.242188v-42.664062c0-4.714844 3.820312-8.535157 8.53125-8.535157h27.90625c11.691406 0 26.621094 4.4375 31.828125 14.933594zm0 0" fill="#9d27b0"/><path d="m426.683594 494.9375h-25.601563v-34.132812h17.066407c9.425781 0 17.066406 7.640624 17.066406 17.066406v8.535156c0 4.710938-3.820313 8.53125-8.53125 8.53125zm0 0" fill="#424242"/><path d="m307.214844 93.871094h76.800781l-15.359375 51.199218-78.761719 34.136719h-67.757812l-78.761719-34.136719-15.359375-51.199218zm0 0" fill="#6a1b9a"/><path d="m213.347656 98.136719h-128l-.597656-2.046875-11.605469-40.617188-1.789062-6.230468c-.722657-2.566407-.199219-5.324219 1.40625-7.449219 1.609375-2.125 4.117187-3.378907 6.785156-3.386719h116.734375zm0 0" fill="#ad1457"/><path d="m440.675781 49.242188-1.789062 6.230468-11.605469 40.617188-.597656 2.046875h-128l17.066406-59.730469h116.734375c2.667969.007812 5.175781 1.261719 6.785156 3.386719 1.605469 2.125 2.128907 4.882812 1.40625 7.449219zm0 0" fill="#ad1457"/><path d="m183.480469 98.136719h-98.132813l-.597656-2.046875-11.605469-40.617188-1.789062-6.230468c-.722657-2.566407-.199219-5.324219 1.40625-7.449219 1.609375-2.125 4.117187-3.378907 6.785156-3.386719h86.867187zm0 0" fill="#e91e63"/><path d="m419.34375 49.242188-1.792969 6.230468-11.605469 40.617188-.597656 2.046875h-106.664062l17.066406-59.730469h95.402344c2.664062.007812 5.175781 1.261719 6.78125 3.386719 1.609375 2.125 2.128906 4.882812 1.410156 7.449219zm0 0" fill="#e91e63"/><path d="m324.28125 38.40625-17.066406 59.730469h-20.308594c-3.242188-.019531-6.21875 1.796875-7.679688 4.695312l-15.617187 31.230469c-1.417969 2.902344-4.367187 4.738281-7.59375 4.738281s-6.175781-1.835937-7.59375-4.738281l-8.703125-17.492188c1.976562.980469 4.265625 1.125 6.347656.402344 2.085938-.71875 3.796875-2.25 4.742188-4.242187l15.617187-31.230469c1.460938-2.898438 4.4375-4.71875 7.679688-4.695312h20.308593l11.007813-38.398438zm0 0" fill="#6a1b9a"/><path d="m305.421875 38.40625-11.007813 38.398438h-20.308593c-3.242188-.023438-6.21875 1.796874-7.679688 4.695312l-15.617187 31.230469c-.945313 1.992187-2.65625 3.523437-4.742188 4.242187-2.082031.722656-4.371094.578125-6.347656-.402344l-6.914062-13.738281c-.859376-1.699219-2.273438-3.054687-4.011719-3.839843-1.132813-.582032-2.394531-.875-3.667969-.855469h-20.308594l-6.058594-21.332031-11.007812-38.398438h40.105469c1.671875.007812 3.308593.511719 4.695312 1.449219l18.773438 12.460937c2.847656 1.875 6.535156 1.875 9.386719 0l18.769531-12.460937c1.386719-.9375 3.023437-1.441407 4.695312-1.449219zm0 0" fill="#9d27b0"/><path d="m239.71875 116.570312c-1.816406-.699218-3.285156-2.074218-4.097656-3.839843l-6.828125-13.738281c1.738281.785156 3.152343 2.140624 4.011719 3.839843zm0 0" fill="#6a1b9a"/><path d="m145.082031 38.40625c0 11.78125-9.550781 21.332031-21.332031 21.332031s-21.335938-9.550781-21.335938-21.332031 9.554688-21.335938 21.335938-21.335938 21.332031 9.554688 21.332031 21.335938zm0 0" fill="#ff9801"/><path d="m187.75 38.40625c0 11.78125-9.550781 21.332031-21.335938 21.332031-11.78125 0-21.332031-9.550781-21.332031-21.332031s9.550781-21.335938 21.332031-21.335938c11.785157 0 21.335938 9.554688 21.335938 21.335938zm0 0" fill="#ffeb3a"/><path d="m366.949219 38.40625c0 11.78125-9.550781 21.332031-21.332031 21.332031-11.785157 0-21.335938-9.550781-21.335938-21.332031s9.550781-21.335938 21.335938-21.335938c11.78125 0 21.332031 9.554688 21.332031 21.335938zm0 0" fill="#ffeb3a"/><path d="m409.617188 38.40625c0 11.78125-9.554688 21.332031-21.335938 21.332031s-21.332031-9.550781-21.332031-21.332031 9.550781-21.335938 21.332031-21.335938c5.660156 0 11.085938 2.25 15.085938 6.25s6.25 9.425782 6.25 15.085938zm0 0" fill="#ff9801"/><path d="m128.015625 29.871094c0 5.660156-2.246094 11.085937-6.25 15.085937-4 4-9.425781 6.25-15.082031 6.25-4.847656-6.464843-5.628906-15.113281-2.015625-22.34375 3.613281-7.226562 11-11.792969 19.082031-11.792969 2.769531 3.695313 4.265625 8.1875 4.265625 12.800782zm0 0" fill="#ffb301"/><path d="m392.550781 29.871094c0 5.660156-2.25 11.085937-6.25 15.085937s-9.425781 6.25-15.085937 6.25c-4.847656-6.464843-5.628906-15.113281-2.011719-22.34375 3.613281-7.226562 11-11.792969 19.078125-11.792969 2.769531 3.695313 4.269531 8.1875 4.269531 12.800782zm0 0" fill="#ffb301"/><path d="m59.75 213.339844c0 14.136718-11.460938 25.597656-25.601562 25.597656-2.914063.019531-5.808594-.5-8.53125-1.535156-10.226563-3.582032-17.070313-13.230469-17.070313-24.0625 0-10.832032 6.84375-20.484375 17.070313-24.066406 2.722656-1.03125 5.617187-1.554688 8.53125-1.535157 14.140624 0 25.601562 11.460938 25.601562 25.601563zm0 0" fill="#ad1457"/><path d="m58.214844 375.472656h-48.128906c-3.523438-.003906-6.683594-2.167968-7.953126-5.453125-1.421874-3.707031-2.1406245-7.644531-2.117187-11.613281 0-18.851562 15.28125-34.132812 34.132813-34.132812 18.851562 0 34.132812 15.28125 34.132812 34.132812.023438 3.96875-.691406 7.90625-2.113281 11.613281-1.273438 3.285157-4.433594 5.449219-7.953125 5.453125zm0 0" fill="#e91e63"/><path d="m58.214844 375.472656h-48.128906c-4.714844 0-8.535157-3.820312-8.535157-8.535156 0-4.710938 3.820313-8.53125 8.535157-8.53125h48.128906c4.710937 0 8.53125 3.820312 8.53125 8.53125 0 4.714844-3.820313 8.535156-8.53125 8.535156zm0 0" fill="#804169"/><path d="m503.480469 214.019531c0 14.140625-11.460938 25.601563-25.597657 25.601563-2.914062.019531-5.808593-.503906-8.535156-1.535156-10.222656-3.582032-17.066406-13.230469-17.066406-24.066407 0-10.832031 6.84375-20.480469 17.066406-24.0625 2.726563-1.03125 5.621094-1.554687 8.535156-1.535156 6.789063 0 13.300782 2.695313 18.101563 7.496094s7.496094 11.3125 7.496094 18.101562zm0 0" fill="#ad1457"/><g fill="#e91e63"><path d="m42.683594 213.339844c0-13.292969-7.640625-24.066406-17.066406-24.066406-9.425782 0-17.066407 10.773437-17.066407 24.066406 0 13.289062 7.640625 24.0625 17.066407 24.0625 9.425781 0 17.066406-10.773438 17.066406-24.0625zm0 0"/><path d="m486.414062 214.019531c.054688 10.851563-6.808593 20.527344-17.066406 24.066407-10.222656-3.582032-17.066406-13.230469-17.066406-24.066407 0-10.832031 6.84375-20.480469 17.066406-24.0625 10.257813 3.539063 17.121094 13.214844 17.066406 24.0625zm0 0"/><path d="m501.945312 376.15625h-48.125c-3.523437-.003906-6.683593-2.167969-7.953124-5.453125-1.425782-3.707031-2.140626-7.644531-2.117188-11.613281 0-18.851563 15.28125-34.136719 34.132812-34.136719 18.851563 0 34.132813 15.285156 34.132813 34.136719.023437 3.96875-.695313 7.90625-2.117187 11.613281-1.269532 3.285156-4.429688 5.449219-7.953126 5.453125zm0 0"/></g><path d="m501.945312 376.15625h-48.125c-4.714843 0-8.535156-3.820312-8.535156-8.535156 0-4.710938 3.820313-8.53125 8.535156-8.53125h48.125c4.714844 0 8.535157 3.820312 8.535157 8.53125 0 4.714844-3.820313 8.535156-8.535157 8.535156zm0 0" fill="#804169"/><path d="m187.75 309.253906v38.570313c-.007812 1.335937-.332031 2.652343-.941406 3.839843l-5.203125 10.582032c-1.460938 2.894531-4.4375 4.714844-7.679688 4.691406h-32.085937c-3.246094.023438-6.21875-1.796875-7.679688-4.691406l-5.207031-10.582032c-.609375-1.1875-.929687-2.503906-.9375-3.839843v-38.570313c.007813-1.335937.328125-2.652344.9375-3.839844l5.207031-10.582031c1.460938-2.898437 4.433594-4.714843 7.679688-4.695312h32.085937c3.242188-.019531 6.21875 1.796875 7.679688 4.695312l5.203125 10.582031c.609375 1.1875.933594 2.503907.941406 3.839844zm0 0" fill="#6a1b9a"/><path d="m207.289062 204.804688h-83.539062c-16.496094 0-29.867188-13.371094-29.867188-29.867188.078126-16.460938 13.40625-29.785156 29.867188-29.867188h72.53125c6.820312.023438 12.980469 4.074219 15.703125 10.328126l10.921875 25.597656c2.261719 5.265625 1.734375 11.3125-1.40625 16.101562-3.144531 4.792969-8.480469 7.6875-14.210938 7.707032zm0 0" fill="#ad1457"/><path d="m384.015625 309.253906v38.570313c-.007813 1.335937-.328125 2.652343-.9375 3.839843l-5.207031 10.582032c-1.460938 2.894531-4.433594 4.714844-7.679688 4.691406h-32.085937c-3.242188.023438-6.21875-1.796875-7.679688-4.691406l-5.203125-10.582032c-.609375-1.1875-.933594-2.503906-.941406-3.839843v-38.570313c.007812-1.335937.332031-2.652344.941406-3.839844l5.203125-10.582031c1.460938-2.898437 4.4375-4.714843 7.679688-4.695312h32.085937c3.246094-.019531 6.21875 1.796875 7.679688 4.695312l5.207031 10.582031c.609375 1.1875.929687 2.503907.9375 3.839844zm0 0" fill="#6a1b9a"/><path d="m170.683594 309.253906v38.570313c-.007813 1.335937-.332032 2.652343-.941406 3.839843l-5.203126 10.582032c-1.460937 2.894531-4.4375 4.714844-7.679687 4.691406h-15.019531c-3.246094.023438-6.21875-1.796875-7.679688-4.691406l-5.207031-10.582032c-.609375-1.1875-.929687-2.503906-.9375-3.839843v-38.570313c.007813-1.335937.328125-2.652344.9375-3.839844l5.207031-10.582031c1.460938-2.898437 4.433594-4.714843 7.679688-4.695312h15.019531c3.242187-.019531 6.21875 1.796875 7.679687 4.695312l5.203126 10.582031c.609374 1.1875.933593 2.503907.941406 3.839844zm0 0" fill="#9d27b0"/><path d="m366.949219 309.253906v38.570313c-.007813 1.335937-.328125 2.652343-.9375 3.839843l-5.207031 10.582032c-1.460938 2.894531-4.4375 4.714844-7.679688 4.691406h-15.019531c-3.242188.023438-6.21875-1.796875-7.679688-4.691406l-5.203125-10.582032c-.609375-1.1875-.933594-2.503906-.941406-3.839843v-38.570313c.007812-1.335937.332031-2.652344.941406-3.839844l5.203125-10.582031c1.460938-2.898437 4.4375-4.714843 7.679688-4.695312h15.019531c3.242188-.019531 6.21875 1.796875 7.679688 4.695312l5.207031 10.582031c.609375 1.1875.929687 2.503907.9375 3.839844zm0 0" fill="#9d27b0"/><path d="m418.148438 174.9375c0 16.496094-13.371094 29.867188-29.867188 29.867188h-83.539062c-5.730469-.019532-11.066407-2.914063-14.210938-7.707032-3.140625-4.789062-3.667969-10.835937-1.40625-16.101562l10.921875-25.597656c2.722656-6.253907 8.882813-10.304688 15.703125-10.328126h72.53125c16.464844.082032 29.789062 13.40625 29.867188 29.867188zm0 0" fill="#ad1457"/><path d="m185.957031 204.804688h-62.207031c-16.496094 0-29.867188-13.371094-29.867188-29.867188.078126-16.460938 13.40625-29.785156 29.867188-29.867188h51.199219c6.820312.023438 12.980469 4.074219 15.699219 10.328126l10.925781 25.597656c2.261719 5.265625 1.734375 11.3125-1.410157 16.101562-3.140624 4.792969-8.476562 7.6875-14.207031 7.707032zm0 0" fill="#e91e63"/><path d="m396.816406 174.9375c0 16.496094-13.371094 29.867188-29.867187 29.867188h-62.207031c-5.730469-.019532-11.066407-2.914063-14.210938-7.707032-3.140625-4.789062-3.667969-10.835937-1.40625-16.101562l10.921875-25.597656c2.722656-6.253907 8.882813-10.304688 15.703125-10.328126h51.199219c16.460937.082032 29.785156 13.40625 29.867187 29.867188zm0 0" fill="#e91e63"/><path d="m264.550781 290.136719h-17.070312c-4.710938 0-8.53125-3.820313-8.53125-8.53125v-51.199219c0-4.714844 3.820312-8.535156 8.53125-8.535156h17.070312c4.710938 0 8.53125 3.820312 8.53125 8.535156v51.199219c0 4.710937-3.820312 8.53125-8.53125 8.53125zm0 0" fill="#e91e63"/><path d="m512.015625 214.019531c-.015625-9.535156-4.039063-18.625-11.09375-25.042969l-20.648437-90.839843c11.566406-6.835938 17.128906-20.570313 13.578124-33.53125-3.546874-12.960938-15.332031-21.945313-28.769531-21.933594h-15.632812c.03125-4.523437-1.75-8.875-4.945313-12.078125-3.195312-3.207031-7.535156-5.003906-12.0625-4.988281h-14.726562c-1.578125-11.242188-9.417969-20.605469-20.210938-24.128907-10.792968-3.523437-22.648437-.589843-30.554687 7.558594-7.90625-8.148437-19.761719-11.082031-30.554688-7.558594-10.792969 3.523438-18.632812 12.886719-20.210937 24.128907h-32.007813c-3.371093 0-6.667969.996093-9.472656 2.867187l-18.6875 12.492188-18.714844-12.492188c-2.796875-1.867187-6.082031-2.863281-9.445312-2.867187h-32.007813c-1.578125-11.242188-9.417968-20.605469-20.210937-24.128907-10.792969-3.523437-22.648438-.589843-30.554688 7.558594-7.90625-8.148437-19.761719-11.082031-30.554687-7.558594-10.792969 3.523438-18.632813 12.886719-20.210938 24.128907h-14.726562c-4.527344-.015625-8.867188 1.78125-12.0625 4.988281-3.195313 3.203125-4.976563 7.554688-4.945313 12.078125h-15.632812c-13.515625-.191406-25.457031 8.753906-29.066407 21.78125-3.609374 13.023437 2.019532 26.84375 13.707032 33.632813l-20.480469 90.207031c-13.746094 12.398437-14.890625 33.578125-2.558594 47.386719v100.386718c-5.46875 6.160156-8.503906 14.101563-8.535156 22.339844-.0039062 2.003906.171875 4 .527344 5.972656-.308594.820313-.4882815 1.683594-.527344 2.558594v34.132812c0 1.324219.304687 2.632813.894531 3.816407l8.535156 17.066406c1.363282 2.726563 4.078126 4.523437 7.121094 4.707031 3.046875.183594 5.957032-1.269531 7.636719-3.816406 1.683594-2.542969 1.878906-5.789062.515625-8.519531l-7.636719-15.265625v-23.585938h34.132813v23.585938l-7.636719 15.265625c-2.105469 4.21875-.394531 9.34375 3.824219 11.453125 4.21875 2.105468 9.34375.394531 11.449218-3.824219l8.535157-17.066406c.589843-1.183594.898437-2.492188.894531-3.816407v-34.132812c-.039062-.875-.21875-1.738281-.527344-2.558594.355469-1.972656.53125-3.96875.527344-5.972656-.03125-8.238281-3.0625-16.179688-8.53125-22.339844v-100.386718c10.328125-11.609376 11.386719-28.777344 2.558594-41.566407l20.789062-91.964843c.125 0 .261719 0 .390625-.050782.605469.171875 1.230469.277344 1.859375.308594h36.320313l10.238281 34.132812h-8.15625c-21.207031 0-38.402344 17.191407-38.402344 38.398438s17.195313 38.402344 38.402344 38.402344h12.800781v69.117187c-4.34375 1.386719-7.945312 4.460938-9.996093 8.535157l-5.273438 10.554687c-1.179688 2.371094-1.796875 4.980469-1.800781 7.628906v38.640625c.003906 2.648438.621093 5.257813 1.800781 7.628906l5.273438 10.554688c.472656.8125 1.007812 1.589844 1.597656 2.320312v.101563l13.695312 75.316406h-3.371094c-12.972656-.058593-25.128906 6.339844-32.425781 17.066407h-12.167969c-14.140624 0-25.601562 11.460937-25.601562 25.601562v8.53125c0 9.425781 7.640625 17.066406 17.066406 17.066406h136.535156c9.425782 0 17.066407-7.640625 17.066407-17.066406v-8.53125c0-14.140625-11.460938-25.601562-25.601563-25.601562h-8.53125c0-9.425782-7.640625-17.066407-17.066406-17.066407v-75.578125c.539062-.667968 1.027344-1.375 1.457031-2.117187l5.273438-10.554688c1.183593-2.371093 1.800781-4.980469 1.800781-7.628906v-38.640625c0-2.648438-.617188-5.257812-1.800781-7.628906l-5.273438-10.597656c-1.515625-3-3.894531-5.484376-6.824219-7.132813l10.238282-25.6875 37.792968 13.289063v10.144531c0 9.425781 7.644532 17.066406 17.066407 17.066406h17.070312c9.425781 0 17.066407-7.640625 17.066407-17.066406v-10.144531l37.765624-13.253907 10.242188 25.695313c-2.933594 1.648437-5.308594 4.128906-6.828125 7.132812l-5.273437 10.554688c-1.179688 2.371094-1.796876 4.980468-1.800782 7.628906v38.640625c.003906 2.648437.621094 5.257813 1.800782 7.628906l5.273437 10.554688c.433594.742187.917969 1.449219 1.460937 2.117187v75.578125c-9.425781 0-17.066406 7.640625-17.066406 17.066407h-8.507812c-14.140625 0-25.601563 11.460937-25.601563 25.601562v8.53125c0 9.425781 7.640625 17.066406 17.066407 17.066406h136.535156c9.425781 0 17.066406-7.640625 17.066406-17.066406v-8.53125c0-14.140625-11.460938-25.601562-25.601562-25.601562h-12.203126c-7.296874-10.726563-19.449218-17.125-32.425781-17.066407h-3.414062l13.695312-75.273437s0-.066406 0-.101563c.59375-.730469 1.125-1.507812 1.597657-2.320312l5.273437-10.554688c1.207031-2.363281 1.851563-4.976562 1.878906-7.628906v-38.640625c-.003906-2.648438-.621093-5.257812-1.800781-7.628906l-5.273438-10.597656c-2.050781-4.074219-5.652343-7.148438-9.996093-8.535157v-69.117187h12.800781c21.207031 0 38.402344-17.195313 38.402344-38.402344s-17.195313-38.398438-38.402344-38.398438h-8.15625l10.238281-34.132812h36.320313c.632812-.035156 1.257812-.136719 1.867187-.308594h.222657l20.949218 92.699219c-8.835937 12.792969-7.78125 29.96875 2.558594 41.582031v100.367188c-5.46875 6.160156-8.5 14.105468-8.53125 22.34375.007812 1.824218.171875 3.648437.484375 5.449218-.277344.773438-.441406 1.582032-.484375 2.398438v34.132812c-.015625 1.320313.277344 2.628907.851562 3.816407l8.535157 17.066406c2.105469 4.21875 7.234375 5.929687 11.449219 3.824219 4.21875-2.109375 5.929687-7.234375 3.824218-11.453125l-7.59375-15.265625v-22.902344h34.132813v22.902344l-7.679688 15.265625c-2.105469 4.21875-.394531 9.34375 3.824219 11.453125 4.214844 2.105468 9.34375.394531 11.449219-3.824219l8.535156-17.066406c.605469-1.179688.925781-2.488281.9375-3.816407v-34.132812c-.042969-.816406-.207031-1.625-.484375-2.398438.3125-1.800781.472656-3.625.484375-5.449218-.03125-8.238282-3.066406-16.183594-8.535156-22.34375v-100.367188c5.472656-6.164062 8.507812-14.113281 8.535156-22.359375zm-51.199219 145.070313c0-9.425782 7.640625-17.070313 17.066406-17.070313 9.425782 0 17.066407 7.644531 17.066407 17.070313zm17.066406-34.136719c-2.886718.042969-5.753906.449219-8.535156 1.214844v-79.226563c5.574219 1.617188 11.492188 1.617188 17.066406 0v79.226563c-2.78125-.765625-5.648437-1.171875-8.53125-1.214844zm17.066407-110.933594c0 9.425781-7.640625 17.070313-17.066407 17.070313-9.425781 0-17.066406-7.644532-17.066406-17.070313s7.640625-17.066406 17.066406-17.066406c9.425782 0 17.066407 7.640625 17.066407 17.066406zm-17.066407-34.132812c-4.609374-.003907-9.171874.9375-13.40625 2.765625l-18.167968-80.246094h17.398437l17.675781 77.839844c-1.160156-.183594-2.328124-.300782-3.5-.359375zm0-107.347657c.019532 3.398438-1.324218 6.667969-3.730468 9.070313-2.402344 2.40625-5.667969 3.746094-9.070313 3.730469h-27.085937l7.316406-25.601563h19.769531c7.070313 0 12.800781 5.730469 12.800781 12.800781zm-57.625 12.800782h-101.726562l9.078125-31.796875c11.914063 9.242187 28.875 8.019531 39.339844-2.832031 6.789062 7.003906 16.585937 10.222656 26.210937 8.621093 9.621094-1.605469 17.84375-7.832031 21.992188-16.660156h17.289062zm-31.976562-68.269532c7.070312 0 12.800781 5.734376 12.800781 12.800782 0 7.070312-5.730469 12.800781-12.800781 12.800781-7.066406 0-12.800781-5.730469-12.800781-12.800781 0-7.066406 5.734375-12.800782 12.800781-12.800782zm-42.664062 0c7.066406 0 12.796874 5.734376 12.796874 12.800782 0 7.070312-5.730468 12.800781-12.796874 12.800781-7.070313 0-12.800782-5.730469-12.800782-12.800781 0-7.066406 5.730469-12.800782 12.800782-12.800782zm-117.761719 25.601563 18.722656 12.484375c5.726563 3.832031 13.199219 3.832031 18.925781 0l18.671875-12.484375h28.765625l-12.183594 42.667969h-19.140624c-3.964844.03125-7.363282 2.828125-8.167969 6.707031-.707031.835937-1.332031 1.742187-1.859375 2.703125l-15.574219 31.234375-15.582031-31.257813c-.527344-.957031-1.148438-1.859374-1.851563-2.699218-.8125-3.871094-4.210937-6.652344-8.167969-6.6875h-19.164062l-12.1875-42.667969zm-61.441407-25.601563c7.070313 0 12.800782 5.734376 12.800782 12.800782 0 7.070312-5.730469 12.800781-12.800782 12.800781-7.066406 0-12.796874-5.730469-12.796874-12.800781 0-7.066406 5.730468-12.800782 12.796874-12.800782zm-42.664062 0c7.066406 0 12.800781 5.734376 12.800781 12.800782 0 7.070312-5.734375 12.800781-12.800781 12.800781-7.070312 0-12.800781-5.730469-12.800781-12.800781 0-7.066406 5.730469-12.800782 12.800781-12.800782zm-26.871094 25.601563c4.148438 8.828125 12.371094 15.054687 21.992188 16.660156 9.625 1.601563 19.421875-1.617187 26.210937-8.621093 10.464844 10.851562 27.425781 12.074218 39.339844 2.832031l9.078125 31.796875h-101.726562l-12.183594-42.667969zm-49.929687 17.066406h19.773437l7.3125 25.601563h-27.085937c-7.070313 0-12.800781-5.730469-12.800781-12.800782 0-7.070312 5.730468-12.800781 12.800781-12.800781zm1.195312 42.667969h17.398438l-17.980469 79.5625c-4.234375-1.824219-8.800781-2.765625-13.414062-2.761719-1.179688.054688-2.355469.171875-3.523438.355469zm-31.0625 256c0-9.425781 7.640625-17.066406 17.066407-17.066406 9.425781 0 17.066406 7.640625 17.066406 17.066406zm17.066407-34.132812c-2.882813.035156-5.753907.441406-8.53125 1.210937v-79.222656c2.777343.765625 5.648437 1.175781 8.53125 1.210937 2.886718-.035156 5.753906-.445312 8.535156-1.210937v79.222656c-2.78125-.769531-5.648438-1.175781-8.535156-1.210937zm17.066406-110.933594c0 9.425781-7.640625 17.066406-17.066406 17.066406-9.425782 0-17.066407-7.640625-17.066407-17.066406 0-9.425782 7.640625-17.066406 17.066407-17.066406 4.527343 0 8.867187 1.796874 12.070312 4.996093 3.199219 3.203125 4.996094 7.542969 4.996094 12.070313zm51.199218-38.402344c0-11.78125 9.554688-21.332031 21.335938-21.332031h72.53125c3.414062 0 6.5 2.035156 7.84375 5.171875l10.121094 23.609375.109375.265625.742187 1.707031c1.136719 2.636719.871094 5.671875-.707031 8.070313-1.582031 2.402343-4.261719 3.84375-7.132813 3.84375h-83.507812c-11.78125 0-21.335938-9.550782-21.335938-21.335938zm89.796876 38.402344-27.304688 68.265625h-11.289062v-68.265625zm-55.660157 95.878906 5.273438-10.546875h32.117187l5.273438 10.546875v38.640625l-5.273438 10.546875h-32.117187l-5.273438-10.546875zm-51.203125 177.1875c0-4.714844 3.820313-8.535156 8.535156-8.535156h8.53125v17.066406h-17.066406zm102.402344 8.53125h-68.269531v-23.105469c3.90625-6.808593 11.148437-11.011719 18.996093-11.027343h49.273438zm25.597656-17.066406c4.714844 0 8.535156 3.820312 8.535156 8.535156v8.53125h-17.066406v-17.066406zm-54.152344-34.132813-12.40625-68.265625h23.894532v68.265625zm39.800782-201.386719 11.777344-29.429687c12.683593-1.523437 22.15625-12.40625 21.914062-25.183594h14.792969v25.601563c-9.421875 0-17.066407 7.640625-17.066407 17.066406v22.679688zm48.484375 39.253907v-51.199219h17.070312v51.199219zm34.136719-28.355469v-22.84375c0-9.425781-7.640626-17.066406-17.066407-17.066406v-25.601563h14.796875c-.238281 12.761719 9.222656 23.636719 21.894532 25.164063l11.777343 29.441406zm88.589843 45.421875 5.273438 10.546875v38.640625l-5.273438 10.546875h-32.117187l-5.273438-10.546875v-38.640625l5.273438-10.546875zm-80.058593 196.265625v-8.53125c0-4.714844 3.820312-8.535156 8.535156-8.535156h8.53125v17.066406zm119.46875-17.066406h8.53125c4.714843 0 8.535156 3.820312 8.535156 8.535156v8.53125h-17.066406zm-17.066407-6.039063v23.105469h-68.269531v-34.132812h49.273438c7.847656.015624 15.089843 4.21875 18.996093 11.027343zm-51.203125-28.09375v-68.265625h23.894532l-12.425782 68.265625zm17.066406-162.132812h-11.289062l-27.304688-68.265625h38.59375zm51.203126-106.667969c0 5.660156-2.25 11.085938-6.25 15.085938s-9.425782 6.25-15.085938 6.25h-83.507812c-2.867188 0-5.542969-1.441407-7.121094-3.839844-1.578125-2.394532-1.847656-5.421875-.71875-8.058594l.742187-1.707031.109375-.261719 10.121094-23.613281c1.339844-3.144531 4.425781-5.183594 7.84375-5.1875h72.53125c5.660156 0 11.085938 2.246093 15.085938 6.25 4 4 6.25 9.425781 6.25 15.082031zm-93.867188-38.398438c-10.238281 0-19.492188 6.101563-23.527344 15.511719l-7.980468 18.621094h-56.453126l-7.980468-18.621094c-4.035156-9.410156-13.289063-15.511719-23.527344-15.511719h-46.558594l-10.238281-34.132812h85.699219l15.558594 31.121094c2.84375 5.820312 8.746093 9.519531 15.226562 9.539062 6.476562.015625 12.402344-3.648437 15.277344-9.453125l15.660156-31.207031h85.640625l-10.238281 34.132812zm0 0"/></svg>