<svg height="512pt" viewBox="-34 0 512 512" width="512pt" xmlns="http://www.w3.org/2000/svg"><path d="m64 166.398438c0 9.425781-7.640625 17.066406-17.066406 17.066406-9.425782 0-17.066406-7.640625-17.066406-17.066406 0-9.425782 7.640624-17.066407 17.066406-17.066407 9.425781 0 17.066406 7.640625 17.066406 17.066407zm0 0" fill="#f44335"/><path d="m132.265625 190.464844c-2.722656 1.03125-5.617187 1.554687-8.53125 1.535156-14.140625 0-25.601563-11.460938-25.601563-25.601562 0-14.136719 11.460938-25.597657 25.601563-25.597657 2.914063-.019531 5.808594.5 8.53125 1.535157zm0 0" fill="#283593"/><path d="m413.867188 166.398438c0 9.425781-7.640626 17.066406-17.066407 17.066406s-17.066406-7.640625-17.066406-17.066406c0-9.425782 7.640625-17.066407 17.066406-17.066407s17.066407 7.640625 17.066407 17.066407zm0 0" fill="#f44335"/><path d="m311.464844 142.335938c2.726562-1.035157 5.621094-1.554688 8.535156-1.535157 14.136719 0 25.601562 11.460938 25.601562 25.597657 0 14.140624-11.464843 25.601562-25.601562 25.601562-2.914062.019531-5.808594-.503906-8.535156-1.535156zm0 0" fill="#283593"/><path d="m315.734375 106.667969v204.796875h-187.734375v-204.796875c-.054688-47.722657 35.777344-87.855469 83.199219-93.183594 3.535156-.488281 7.101562-.714844 10.667969-.683594 24.898437-.015625 48.78125 9.871094 66.386718 27.476563 17.609375 17.605468 27.492188 41.488281 27.480469 66.390625zm0 0" fill="#0377bc"/><path d="m294.398438 106.667969v204.796875h-166.398438v-204.796875c-.054688-47.722657 35.777344-87.855469 83.199219-93.183594 47.425781 5.320313 83.265625 45.457031 83.199219 93.183594zm0 0" fill="#2296f3"/><path d="m213.332031 166.398438c0 14.140624-11.460937 25.601562-25.597656 25.601562-5.148437.023438-10.179687-1.527344-14.421875-4.4375-8.859375-6.058594-13-17-10.371094-27.40625 2.632813-10.402344 11.472656-18.066406 22.148438-19.1875.851562-.082031 1.789062-.167969 2.644531-.167969 6.789063 0 13.300781 2.695313 18.101563 7.496094 4.800781 4.800781 7.496093 11.3125 7.496093 18.101563zm0 0" fill="#9e9e9e"/><path d="m196.265625 162.132812c.03125 13.121094-9.898437 24.121094-22.953125 25.429688-8.859375-6.058594-13-17-10.371094-27.40625 2.632813-10.402344 11.472656-18.066406 22.148438-19.1875 6.996094 4.773438 11.179687 12.695312 11.175781 21.164062zm0 0" fill="#f5f5f5"/><path d="m281.601562 174.933594c0 9.425781-7.640624 17.066406-17.066406 17.066406-9.425781 0-17.070312-7.640625-17.070312-17.066406 0-9.425782 7.644531-17.066406 17.070312-17.066406 9.425782 0 17.066406 7.640624 17.066406 17.066406zm0 0" fill="#fff"/><path d="m332.800781 341.332031-4.4375 64.769531c-2.398437 11.953126-12.894531 20.558594-25.089843 20.566407h-162.816407c-12.191406-.007813-22.6875-8.613281-25.085937-20.566407l-4.4375-64.769531zm0 0" fill="#c52828"/><path d="m311.464844 341.332031-4.433594 64.769531c-2.398438 11.953126-12.898438 20.558594-25.089844 20.566407h-141.484375c-12.191406-.007813-22.6875-8.613281-25.085937-20.566407l-4.4375-64.769531zm0 0" fill="#f44335"/><path d="m358.398438 324.265625c-.066407 9.398437-7.667969 16.996094-17.066407 17.066406h-238.933593c-9.414063-.027343-17.035157-7.652343-17.066407-17.066406.070313-9.394531 7.671875-16.996094 17.066407-17.066406h238.933593c9.414063.027343 17.039063 7.652343 17.066407 17.066406zm0 0" fill="#c52828"/><path d="m337.066406 324.265625c-.070312 9.398437-7.667968 16.996094-17.066406 17.066406h-217.601562c-9.414063-.027343-17.035157-7.652343-17.066407-17.066406.070313-9.394531 7.671875-16.996094 17.066407-17.066406h217.601562c9.414062.027343 17.039062 7.652343 17.066406 17.066406zm0 0" fill="#f44335"/><path d="m196.265625 486.398438c-.070313 9.398437-7.667969 17-17.066406 17.066406h-51.199219c-9.414062-.027344-17.039062-7.652344-17.066406-17.066406.070312-9.394532 7.667968-16.996094 17.066406-17.066407h51.199219c9.414062.03125 17.039062 7.652344 17.066406 17.066407zm0 0" fill="#c52828"/><path d="m332.800781 486.398438c-.070312 9.398437-7.671875 17-17.066406 17.066406h-51.199219c-9.414062-.027344-17.039062-7.652344-17.070312-17.066406.070312-9.394532 7.671875-16.996094 17.070312-17.066407h51.199219c9.414063.03125 17.039063 7.652344 17.066406 17.066407zm0 0" fill="#c52828"/><path d="m174.933594 486.398438c-.070313 9.398437-7.671875 17-17.066406 17.066406h-29.867188c-9.414062-.027344-17.039062-7.652344-17.066406-17.066406.070312-9.394532 7.667968-16.996094 17.066406-17.066407h29.867188c9.414062.03125 17.039062 7.652344 17.066406 17.066407zm0 0" fill="#f44335"/><path d="m311.464844 486.398438c-.066406 9.398437-7.667969 17-17.066406 17.066406h-29.863282c-9.414062-.027344-17.039062-7.652344-17.070312-17.066406.070312-9.394532 7.671875-16.996094 17.070312-17.066407h29.863282c9.414062.03125 17.039062 7.652344 17.066406 17.066407zm0 0" fill="#f44335"/><path d="m145.40625 426.667969c-.242188-1.410157-.355469-2.839844-.339844-4.269531 0-16.492188 13.371094-29.863282 29.867188-29.863282s29.867187 13.371094 29.867187 29.863282c.015625 1.429687-.097656 2.859374-.34375 4.269531zm0 0" fill="#c52828"/><path d="m239.273438 426.667969c-.242188-1.410157-.355469-2.839844-.339844-4.269531 0-16.492188 13.371094-29.863282 29.867187-29.863282 16.492188 0 29.867188 13.371094 29.867188 29.863282.015625 1.429687-.097657 2.859374-.34375 4.269531zm0 0" fill="#c52828"/><g fill="#f44335"><path d="m55.464844 358.398438c0 9.425781-7.640625 17.066406-17.066406 17.066406-9.425782 0-17.066407-7.640625-17.066407-17.066406 0-9.425782 7.640625-17.066407 17.066407-17.066407 9.425781 0 17.066406 7.640625 17.066406 17.066407zm0 0"/><path d="m14.320312 448.222656c-1.507812-4.222656-1.90625-8.757812-1.152343-13.175781 2.246093-13.128906 14.183593-22.339844 27.449219-21.1875 13.269531 1.15625 23.4375 12.289063 23.382812 25.605469.003906 2.691406-.414062 5.367187-1.238281 7.929687-2.394531 6.761719-8.851563 11.234375-16.023438 11.09375h-16.761719c-6.847656.179688-13.09375-3.910156-15.65625-10.265625zm0 0"/><path d="m422.398438 358.398438c0 9.425781-7.640626 17.066406-17.066407 17.066406s-17.066406-7.640625-17.066406-17.066406c0-9.425782 7.640625-17.066407 17.066406-17.066407s17.066407 7.640625 17.066407 17.066407zm0 0"/><path d="m381.253906 448.222656c-1.507812-4.222656-1.90625-8.757812-1.152344-13.175781 2.246094-13.128906 14.179688-22.339844 27.449219-21.1875 13.269531 1.15625 23.4375 12.289063 23.382813 25.605469.003906 2.691406-.414063 5.367187-1.238282 7.929687-2.394531 6.761719-8.851562 11.234375-16.023437 11.09375h-16.761719c-6.851562.179688-13.09375-3.910156-15.65625-10.265625zm0 0"/></g><path d="m187.734375 128c-18.851563 0-34.132813 15.28125-34.132813 34.132812 0 18.851563 15.28125 34.132813 34.132813 34.132813s34.132813-15.28125 34.132813-34.132813c0-18.851562-15.28125-34.132812-34.132813-34.132812zm0 51.199219c-9.425781 0-17.066406-7.640625-17.066406-17.066407 0-9.425781 7.640625-17.066406 17.066406-17.066406s17.066406 7.640625 17.066406 17.066406c0 9.425782-7.640625 17.066407-17.066406 17.066407zm0 0"/><path d="m264.535156 145.066406c-14.140625 0-25.601562 11.460938-25.601562 25.601563 0 14.136719 11.460937 25.597656 25.601562 25.597656 14.136719 0 25.597656-11.460937 25.597656-25.597656 0-14.140625-11.460937-25.601563-25.597656-25.601563zm0 34.132813c-4.714844 0-8.535156-3.820313-8.535156-8.53125 0-4.714844 3.820312-8.535157 8.535156-8.535157 4.710938 0 8.53125 3.820313 8.53125 8.535157 0 4.710937-3.820312 8.53125-8.53125 8.53125zm0 0"/><path d="m238.933594 247.464844h-8.535156c-4.710938 0-8.53125 3.824218-8.53125 8.535156s3.820312 8.535156 8.53125 8.535156h8.535156c4.710937 0 8.53125-3.824218 8.53125-8.535156s-3.820313-8.535156-8.53125-8.535156zm0 0"/><path d="m162.132812 102.398438c4.714844 0 8.535157-3.820313 8.535157-8.53125 1.234375-14.636719 9.320312-27.824219 21.800781-35.566407 3.921875-2.617187 4.980469-7.914062 2.363281-11.835937-2.613281-3.921875-7.914062-4.980469-11.835937-2.363282-17.21875 10.910157-28.152344 29.417969-29.394532 49.765626 0 4.710937 3.820313 8.53125 8.53125 8.53125zm0 0"/><path d="m0 443.734375c.0273438 8.222656 3.0625 16.148437 8.535156 22.289063v11.84375c0 4.710937 3.820313 8.53125 8.53125 8.53125 4.714844 0 8.535156-3.820313 8.535156-8.53125v-17.066407h17.066407v17.066407c0 4.710937 3.820312 8.53125 8.53125 8.53125 4.714843 0 8.535156-3.820313 8.535156-8.53125v-11.84375c5.46875-6.140626 8.503906-14.066407 8.53125-22.289063-.054687-15.609375-10.6875-29.195313-25.828125-32.992187.101562-.375.179688-.757813.230469-1.140626v-27.171874c12.539062-4.222657 19.636719-17.46875 16.210937-30.25l21.785156-14.507813c4.636719 7.5625 12.867188 12.179687 21.734376 12.195313h.566406l3.871094 56.796874c.019531.367188.066406.734376.144531 1.09375 3.222656 15.933594 17.210937 27.402344 33.46875 27.441407h15.496093c-3.128906 8.246093-3.128906 17.355469 0 25.601562h-27.945312c-14.136719 0-25.601562 11.460938-25.601562 25.597657 0 14.140624 11.464843 25.601562 25.601562 25.601562h51.199219c14.140625 0 25.601562-11.460938 25.601562-25.601562 0-14.136719-11.460937-25.597657-25.601562-25.597657h-4.710938c-5.097656-7.773437-5.097656-17.828125 0-25.601562h94.722657c5.097656 7.773437 5.097656 17.828125 0 25.601562h-4.675782c-14.140625 0-25.601562 11.460938-25.601562 25.597657 0 14.140624 11.460937 25.601562 25.601562 25.601562h51.199219c14.136719 0 25.597656-11.460938 25.597656-25.601562 0-14.136719-11.460937-25.597657-25.597656-25.597657h-27.949219c3.128906-8.246093 3.128906-17.355469 0-25.601562h15.496094c16.261719-.039063 30.246094-11.507813 33.46875-27.441407.078125-.359374.128906-.726562.144531-1.09375l3.875-56.796874h.5625c8.878907-.023438 17.105469-4.652344 21.734375-12.230469l21.785156 14.507812c-3.445312 12.792969 3.65625 26.058594 16.214844 30.285157v27.171874c.050782.382813.128906.765626.230469 1.140626-15.140625 3.796874-25.777344 17.382812-25.832031 32.992187.027344 8.222656 3.0625 16.148437 8.535156 22.289063v11.84375c0 4.710937 3.820312 8.53125 8.535156 8.53125 4.710938 0 8.53125-3.820313 8.53125-8.53125v-17.066407h17.066406v17.066407c0 4.710937 3.820313 8.53125 8.535157 8.53125 4.710937 0 8.53125-3.820313 8.53125-8.53125v-11.84375c5.472656-6.140626 8.507812-14.066407 8.535156-22.289063-.054687-15.609375-10.691406-29.195313-25.832031-32.992187.101562-.375.179687-.757813.230468-1.140626v-27.171874c9.515626-3.316407 16.191407-11.921876 17.035157-21.964844.84375-10.042969-4.300781-19.640625-13.128907-24.5-8.828124-4.855469-19.691406-4.066406-27.722656 2.023437l-27.878906-18.609375c-2.335938-12.019531-12.859375-20.699218-25.105469-20.710937h-17.066406v-102.402344c15.519531-.058594 29.042969-10.574219 32.921875-25.597656h19.847656c4.15625 11.753906 16.179688 18.804687 28.464844 16.695312 12.289062-2.105469 21.273438-12.761719 21.273438-25.230469s-8.984376-23.121093-21.273438-25.230468c-12.285156-2.109375-24.308594 4.941406-28.464844 16.699218h-19.847656c-3.878906-15.027343-17.402344-25.542968-32.921875-25.601562v-25.601562c0-56.550782-45.84375-102.398438-102.398437-102.398438-56.554688 0-102.402344 45.847656-102.402344 102.398438v25.601562c-15.515625.058594-29.039063 10.574219-32.917969 25.601562h-19.851563c-4.15625-11.757812-16.175781-18.808593-28.464843-16.699218-12.289063 2.109375-21.269531 12.761718-21.269531 25.230468s8.980468 23.125 21.269531 25.230469c12.289062 2.109375 24.308593-4.941406 28.464843-16.695312h19.851563c3.878906 15.023437 17.402344 25.539062 32.917969 25.597656v102.402344h-17.066406c-12.242188.011719-22.765626 8.691406-25.101563 20.710937l-27.878906 18.609375c-4.394531-3.351562-9.761719-5.171875-15.285157-5.1875-12.453124-.023437-23.109374 8.9375-25.21875 21.210938-2.109374 12.273437 4.9375 24.28125 16.6875 28.417969v27.171874c.050782.382813.125.765626.230469 1.140626-15.140625 3.796874-25.7773435 17.382812-25.832031 32.992187zm187.734375 42.664063c0 4.714843-3.820313 8.535156-8.535156 8.535156h-51.199219c-4.710938 0-8.535156-3.820313-8.535156-8.535156 0-4.710938 3.824218-8.53125 8.535156-8.53125h51.199219c4.714843 0 8.535156 3.820312 8.535156 8.53125zm136.53125 0c0 4.714843-3.820313 8.535156-8.53125 8.535156h-51.199219c-4.714844 0-8.535156-3.820313-8.535156-8.535156 0-4.710938 3.820312-8.53125 8.535156-8.53125h51.199219c4.710937 0 8.53125 3.820312 8.53125 8.53125zm-170.230469-68.265626c2.019532-9.941406 10.761719-17.085937 20.90625-17.085937 10.144532 0 18.886719 7.144531 20.90625 17.085937zm93.867188 0c2.019531-9.941406 10.761718-17.085937 20.90625-17.085937 10.144531 0 18.886718 7.144531 20.90625 17.085937zm72.003906-13.234374c-1.511719 6.484374-6.65625 11.496093-13.175781 12.84375-2.269531-19.308594-18.683594-33.832032-38.121094-33.730469-19.441406.101562-35.703125 14.789062-37.773437 34.121093h-17.921876c-2.066406-19.332031-18.332031-34.019531-37.769531-34.121093-19.441406-.101563-35.855469 14.421875-38.125 33.730469-6.519531-1.347657-11.664062-6.359376-13.175781-12.84375l-3.78125-55.03125h203.605469zm106.761719 38.835937c-.03125.75-.105469 1.5-.230469 2.242187-2.53125-1.449218-5.390625-2.222656-8.304688-2.242187h-17.066406c-2.914062.019531-5.773437.792969-8.300781 2.242187-.125-.742187-.203125-1.492187-.230469-2.242187 0-9.425781 7.640625-17.066406 17.066406-17.066406 9.425782 0 17.066407 7.640625 17.066407 17.066406zm-8.535157-85.335937c0 4.714843-3.820312 8.535156-8.53125 8.535156-4.714843 0-8.535156-3.820313-8.535156-8.535156 0-4.710938 3.820313-8.53125 8.535156-8.53125 4.710938 0 8.53125 3.820312 8.53125 8.53125zm-17.066406-204.796876c4.714844 0 8.535156 3.820313 8.535156 8.53125 0 4.714844-3.820312 8.535157-8.535156 8.535157-4.710937 0-8.53125-3.820313-8.53125-8.535157 0-4.710937 3.820313-8.53125 8.53125-8.53125zm-59.734375 8.53125c0 9.425782-7.640625 17.066407-17.066406 17.066407v-34.132813c9.425781 0 17.066406 7.640625 17.066406 17.066406zm-298.664062 8.535157c-4.714844 0-8.535157-3.820313-8.535157-8.535157 0-4.710937 3.820313-8.53125 8.535157-8.53125 4.710937 0 8.53125 3.820313 8.53125 8.53125 0 4.714844-3.820313 8.535157-8.53125 8.535157zm59.730469-8.535157c0-9.425781 7.640624-17.066406 17.066406-17.066406v34.132813c-9.425782 0-17.066406-7.640625-17.066406-17.066407zm34.136718-59.734374c0-47.125 38.203125-85.332032 85.332032-85.332032 47.128906 0 85.332031 38.207032 85.332031 85.332032v196.269531h-170.664063zm-34.136718 213.335937h238.933593c4.714844 0 8.535157 3.820313 8.535157 8.53125 0 4.714844-3.820313 8.535156-8.535157 8.535156h-238.933593c-4.710938 0-8.53125-3.820312-8.53125-8.535156 0-4.710937 3.820312-8.53125 8.53125-8.53125zm-68.265626 34.132813c4.714844 0 8.535157 3.820312 8.535157 8.53125 0 4.714843-3.820313 8.535156-8.535157 8.535156-4.710937 0-8.53125-3.820313-8.53125-8.535156 0-4.710938 3.820313-8.53125 8.53125-8.53125zm0 76.800781c9.425782 0 17.066407 7.640625 17.066407 17.066406-.027344.75-.105469 1.5-.230469 2.242187-2.527344-1.449218-5.386719-2.222656-8.300781-2.242187h-17.066407c-2.917968.019531-5.777343.792969-8.304687 2.242187-.125-.742187-.203125-1.492187-.230469-2.242187 0-9.425781 7.640625-17.066406 17.066406-17.066406zm0 0"/></svg>