<svg height="512pt" viewBox="0 0 512.0233 512" width="512pt" xmlns="http://www.w3.org/2000/svg"><path d="m290.167969 281.617188v93.867187c0 4.714844-3.820313 8.535156-8.535157 8.535156h-51.199218c-4.714844 0-8.535156-3.820312-8.535156-8.535156v-93.867187zm0 0" fill="#fec108"/><path d="m273.101562 281.617188v93.867187c0 4.714844-3.824218 8.535156-8.535156 8.535156h-34.132812c-4.714844 0-8.535156-3.820312-8.535156-8.535156v-93.867187zm0 0" fill="#ffeb3a"/><path d="m418.167969 409.617188c-9.527344.457031-17.878907 6.523437-21.25 15.445312-2.890625 5.804688-4.378907 12.207031-4.351563 18.6875v4.269531c0 7.066407-5.730468 12.800781-12.800781 12.800781h-19.371094v34.132813h23.636719c23.566406 0 42.667969-19.105469 42.667969-42.667969v-3.667968c-.023438-1.335938.179687-2.660157.597656-3.925782h.085937c.253907-.769531.511719-1.535156.851563-2.304687zm0 0" fill="#424242"/><path d="m482.335938 387.859375c-7.9375-7.875-18.683594-12.265625-29.867188-12.203125h-.339844c-4.992187-.003906-9.9375.921875-14.59375 2.730469-5.871094 2.097656-11.183594 5.511719-15.527344 9.984375-16.515624 16.800781-16.289062 43.808594.511719 60.328125 7.960938 7.851562 18.683594 12.265625 29.867188 12.289062h.425781c17.269531-.140625 32.75-10.675781 39.21875-26.691406 6.464844-16.015625 2.636719-34.347656-9.695312-46.4375zm0 0" fill="#9e9e9e"/><path d="m141.34375 287.933594-12.371094 46.078125 30.976563 14.082031 15.699219-53.25zm0 0" fill="#9e9e9e"/><path d="m370.722656 287.933594 12.371094 46.078125-30.976562 14.082031-15.699219-53.25zm0 0" fill="#9e9e9e"/><path d="m341.367188 211.046875v37.972656l-15.53125 32.597657h-139.605469l-15.53125-32.597657v-37.972656zm0 0" fill="#37474f"/><path d="m320.03125 211.046875v70.570313h-133.800781l-15.53125-32.597657v-37.972656zm0 0" fill="#607d8b"/><path d="m341.367188 180.839844v.683594h-170.667969v-.683594c0-13.855469 3.367187-27.503906 9.8125-39.765625h.085937c18.320313-34.644531 57.882813-52.355469 95.925782-42.945313 38.042968 9.410156 64.785156 43.523438 64.84375 82.710938zm0 0" fill="#37474f"/><path d="m320.03125 180.839844v.683594h-149.332031v-.683594c0-13.855469 3.367187-27.503906 9.8125-39.765625h.085937c12.992188-24.652344 37.203125-41.410157 64.855469-44.886719 42.625 5.414062 74.578125 41.683594 74.578125 84.652344zm0 0" fill="#607d8b"/><path d="m149.367188 68.796875c0 16.46875-16.46875 26.878906-33.195313 33.367187-11.351563 4.148438-23.105469 7.09375-35.070313 8.789063v-25.089844c0-8.53125 0-17.066406 17.066407-17.066406zm0 0" fill="#424242"/><path d="m349.898438 196.285156c-.070313 9.398438-7.667969 16.996094-17.066407 17.066406h-153.597656c-9.414063-.027343-17.039063-7.652343-17.066406-17.066406.066406-9.398437 7.667969-16.996094 17.066406-17.066406h153.597656c9.414063.027344 17.039063 7.652344 17.066407 17.066406zm0 0" fill="#9e9e9e"/><path d="m328.566406 196.285156c-.070312 9.398438-7.671875 16.996094-17.066406 17.066406h-132.265625c-9.414063-.027343-17.039063-7.652343-17.066406-17.066406.066406-9.398437 7.667969-16.996094 17.066406-17.066406h132.265625c9.414062.027344 17.039062 7.652344 17.066406 17.066406zm0 0" fill="#cfd8dc"/><path d="m273.101562 264.550781h-34.136718l-8.53125-51.199219h51.199218zm0 0" fill="#424242"/><path d="m187.765625 273.085938c0 14.136718-11.460937 25.597656-25.597656 25.597656-2.917969.019531-5.808594-.5-8.535157-1.535156-10.222656-3.582032-17.066406-13.230469-17.066406-24.0625 0-10.832032 6.84375-20.484376 17.066406-24.066407 2.726563-1.03125 5.617188-1.550781 8.535157-1.535156 14.136719 0 25.597656 11.460937 25.597656 25.601563zm0 0" fill="#9e9e9e"/><path d="m170.699219 273.085938c0-13.292969-7.640625-24.066407-17.066407-24.066407-9.425781 0-17.066406 10.773438-17.066406 24.066407 0 13.289062 7.640625 24.0625 17.066406 24.0625 9.425782 0 17.066407-10.773438 17.066407-24.0625zm0 0" fill="#cfd8dc"/><path d="m93.898438 409.617188c9.527343.457031 17.875 6.523437 21.25 15.445312 2.886718 5.804688 4.378906 12.207031 4.351562 18.6875v4.269531c0 7.066407 5.730469 12.800781 12.800781 12.800781h19.371094v34.132813h-23.640625c-23.5625 0-42.664062-19.105469-42.664062-42.667969v-3.667968c.023437-1.335938-.179688-2.660157-.597657-3.925782h-.085937c-.257813-.769531-.511719-1.535156-.851563-2.304687zm0 0" fill="#424242"/><g fill="#9e9e9e"><path d="m153.632812 458.855469v-32.171875c-.003906-2.386719-.683593-4.722656-1.960937-6.738282l-19.457031-36.355468 28.925781-18.089844 24.664063 44.628906c1.277343 2.050782 1.957031 4.414063 1.960937 6.828125v41.898438zm0 0"/><path d="m162.167969 358.417969c0 14.140625-11.464844 25.601562-25.601563 25.601562-2.914062.015625-5.808594-.503906-8.535156-1.535156-10.222656-3.582031-17.066406-13.234375-17.066406-24.066406s6.84375-20.480469 17.066406-24.0625c2.726562-1.035157 5.621094-1.554688 8.535156-1.535157 14.136719 0 25.601563 11.460938 25.601563 25.597657zm0 0"/><path d="m196.300781 477.886719c0 14.136719-11.460937 25.597656-25.601562 25.597656-2.914063.019531-5.808594-.5-8.53125-1.535156-10.226563-3.582031-17.070313-13.230469-17.070313-24.0625 0-10.835938 6.84375-20.484375 17.070313-24.066407 2.722656-1.03125 5.617187-1.554687 8.53125-1.535156 14.140625 0 25.601562 11.460938 25.601562 25.601563zm0 0"/><path d="m90.058594 388.371094c-16.574219-16.664063-43.472656-16.894532-60.328125-.511719-8.074219 7.957031-12.675781 18.785156-12.800781 30.121094-.085938 17.929687 11.019531 34.011719 27.816406 40.277343 4.648437 1.726563 9.554687 2.648438 14.507812 2.730469h.425782c11.191406.03125 21.9375-4.390625 29.867187-12.289062 16.800781-16.519531 17.027344-43.527344.511719-60.328125zm0 0"/></g><path d="m452.46875 387.859375c-4.222656-4.210937-9.320312-7.445313-14.933594-9.472656-5.871094 2.097656-11.183594 5.511719-15.527344 9.984375-16.515624 16.800781-16.289062 43.808594.511719 60.328125 4.242188 4.210937 9.332031 7.46875 14.933594 9.558593 16.796875-6.265624 27.902344-22.347656 27.816406-40.277343-.125-11.335938-4.726562-22.164063-12.800781-30.121094zm0 0" fill="#cfd8dc"/><path d="m60.191406 388.371094c-4.351562-4.421875-9.625-7.832032-15.445312-9.984375-5.617188 2.058593-10.738282 5.285156-15.015625 9.472656-8.074219 7.957031-12.675781 18.785156-12.800781 30.121094-.085938 17.929687 11.019531 34.011719 27.816406 40.277343 5.601562-2.089843 10.691406-5.347656 14.933594-9.558593 16.800781-16.519531 17.027343-43.527344.511718-60.328125zm0 0" fill="#cfd8dc"/><path d="m375.5 273.085938c0 14.136718-11.460938 25.597656-25.601562 25.597656-2.914063.019531-5.804688-.5-8.53125-1.535156-10.222657-3.582032-17.070313-13.230469-17.070313-24.0625 0-10.832032 6.847656-20.484376 17.070313-24.066407 2.726562-1.03125 5.617187-1.550781 8.53125-1.535156 14.140624 0 25.601562 11.460937 25.601562 25.601563zm0 0" fill="#9e9e9e"/><path d="m358.433594 273.085938c0-13.292969-7.640625-24.066407-17.066406-24.066407-9.425782 0-17.066407 10.773438-17.066407 24.066407 0 13.289062 7.640625 24.0625 17.066407 24.0625 9.425781 0 17.066406-10.773438 17.066406-24.0625zm0 0" fill="#cfd8dc"/><path d="m358.433594 458.855469v-32.171875c.003906-2.386719.683594-4.722656 1.960937-6.738282l19.457031-36.355468-28.929687-18.089844-24.660156 44.628906c-1.277344 2.050782-1.957031 4.414063-1.960938 6.828125v41.898438zm0 0" fill="#9e9e9e"/><path d="m401.101562 358.417969c0 14.140625-11.464843 25.601562-25.601562 25.601562-2.914062.015625-5.808594-.503906-8.535156-1.535156-10.222656-3.582031-17.066406-13.234375-17.066406-24.066406s6.84375-20.480469 17.066406-24.0625c2.726562-1.035157 5.621094-1.554688 8.535156-1.535157 14.136719 0 25.601562 11.460938 25.601562 25.597657zm0 0" fill="#9e9e9e"/><path d="m366.964844 477.886719c0 14.136719-11.460938 25.597656-25.597656 25.597656-2.914063.019531-5.808594-.5-8.535157-1.535156-10.222656-3.582031-17.066406-13.230469-17.066406-24.0625 0-10.835938 6.84375-20.484375 17.066406-24.066407 2.726563-1.03125 5.621094-1.554687 8.535157-1.535156 14.136718 0 25.597656 11.460938 25.597656 25.601563zm0 0" fill="#9e9e9e"/><path d="m145.101562 358.417969c0-13.289063-7.644531-24.0625-17.070312-24.0625s-17.066406 10.773437-17.066406 24.0625c0 13.289062 7.640625 24.066406 17.066406 24.066406s17.070312-10.777344 17.070312-24.066406zm0 0" fill="#cfd8dc"/><path d="m179.234375 477.886719c0-13.292969-7.640625-24.066407-17.066406-24.066407s-17.066407 10.773438-17.066407 24.066407c0 13.289062 7.640626 24.0625 17.066407 24.0625s17.066406-10.773438 17.066406-24.0625zm0 0" fill="#cfd8dc"/><path d="m384.03125 358.417969c0-13.289063-7.640625-24.0625-17.066406-24.0625-9.425782 0-17.066406 10.773437-17.066406 24.0625 0 13.289062 7.640624 24.066406 17.066406 24.066406 9.425781 0 17.066406-10.777344 17.066406-24.066406zm0 0" fill="#cfd8dc"/><path d="m349.898438 477.886719c0-13.292969-7.640626-24.066407-17.066407-24.066407s-17.066406 10.773438-17.066406 24.066407c0 13.289062 7.640625 24.0625 17.066406 24.0625s17.066407-10.773438 17.066407-24.0625zm0 0" fill="#cfd8dc"/><path d="m256.03125 375.484375c9.425781 0 17.070312 7.640625 17.070312 17.066406v34.132813c0 9.425781-7.644531 17.066406-17.070312 17.066406s-17.066406-7.640625-17.066406-17.066406v-34.132813c0-9.425781 7.640625-17.066406 17.066406-17.066406zm0 0" fill="#f57c00"/><path d="m290.167969 281.617188c-.070313 9.398437-7.671875 17-17.066407 17.066406h-34.136718c-9.414063-.027344-17.035156-7.652344-17.066406-17.066406.070312-9.394532 7.671874-16.996094 17.066406-17.066407h34.136718c9.410157.027344 17.035157 7.652344 17.066407 17.066407zm0 0" fill="#f57c00"/><path d="m273.101562 281.617188c-.070312 9.398437-7.671874 17-17.070312 17.066406h-8.53125c-9.414062-.027344-17.039062-7.652344-17.066406-17.066406.070312-9.394532 7.667968-16.996094 17.066406-17.066407h8.53125c9.414062.027344 17.039062 7.652344 17.070312 17.066407zm0 0" fill="#ff9801"/><path d="m171.125 55.742188c-.054688 9.609374-7.882812 17.359374-17.492188 17.320312h-51.199218c-17.066406 0-17.066406 8.535156-17.066406 17.066406v47.957032c-.023438 7.105468-5.523438 12.984374-12.609376 13.480468-7.085937.492188-13.351562-4.570312-14.355468-11.601562l-2.902344-20.136719-4.265625-29.699219v-68.265625l7.59375-5.546875c1.988281-1.515625 4.292969-2.566406 6.742187-3.070312.085938 0 .085938.085937.167969 0 .84375-.171875 1.703125-.257813 2.5625-.257813 26.792969-.851562 102.3125 0 102.824219 42.753907zm0 0" fill="#37474f"/><path d="m141.257812 55.742188c-.054687 9.609374-7.882812 17.359374-17.492187 17.320312l-34.082031-3.242188c-17.066406 0-19.054688 66.730469-19.054688 75.265626l-15.429687-6.230469-3.964844-48.726563v-68.265625l7.59375-5.546875c1.988281-1.515625 4.292969-2.566406 6.742187-3.070312.085938 0 .085938.085937.167969 0 32.511719 1.960937 75.179688 10.410156 75.519531 42.496094zm0 0" fill="#607d8b"/><path d="m51.234375 90.148438-27.675781-6.914063c-3.796875-.949219-6.457032-4.363281-6.457032-8.277344v-37.878906c0-3.914063 2.660157-7.324219 6.457032-8.277344l27.675781-6.921875zm0 0" fill="#9e9e9e"/><path d="m68.164062 418.289062c0 4.710938-3.820312 8.53125-8.535156 8.53125-4.710937 0-8.53125-3.820312-8.53125-8.53125 0-4.714843 3.820313-8.535156 8.53125-8.535156 4.714844 0 8.535156 3.820313 8.535156 8.535156zm0 0"/><path d="m460.96875 418.289062c0 4.710938-3.820312 8.53125-8.53125 8.53125-4.714844 0-8.535156-3.820312-8.535156-8.53125 0-4.714843 3.820312-8.535156 8.535156-8.535156 4.710938 0 8.53125 3.820313 8.53125 8.535156zm0 0"/><path d="m290.167969 145.085938c0 4.710937-3.820313 8.53125-8.535157 8.53125-4.710937 0-8.53125-3.820313-8.53125-8.53125 0-4.714844 3.820313-8.535157 8.53125-8.535157 4.714844 0 8.535157 3.820313 8.535157 8.535157zm0 0"/><path d="m12.96875 87.246094 22.101562 5.53125 6.367188 44.167968c1.636719 11.472657 11.871094 19.726563 23.429688 18.894532 11.5625-.828125 20.511718-10.453125 20.5-22.042969v-15.550781c7.769531-1.390625 15.4375-3.304688 22.953124-5.722656l25.738282 41.09375c3.074218 5.070312 8.578125 8.160156 14.503906 8.140624 2.195312-.003906 4.367188-.425781 6.402344-1.246093l10.65625-4.265625c-1.8125 6.824218-2.875 13.828125-3.164063 20.882812-5.539062 4.757813-8.75 11.679688-8.804687 18.984375-.058594 7.300781 3.046875 14.273438 8.515625 19.117188v23.722656c-18.851563 0-34.136719 15.28125-34.136719 34.132813.042969 5.59375 1.472656 11.09375 4.164062 16l-10.382812 38.6875c-12.644531 6-20.304688 19.148437-19.285156 33.105468 1.015625 13.957032 10.503906 25.855469 23.882812 29.957032l18.023438 33.640624c.429687.65625.660156 1.421876.667968 2.207032v25.601562h-12.800781c-2.359375 0-4.269531-1.910156-4.269531-4.265625v-4.269531c.042969-7.769531-1.738281-15.4375-5.195312-22.398438-4.257813-10.179687-13.265626-17.601562-24.074219-19.832031-4.230469-10.125-12.257813-18.195312-22.363281-22.476562l4.042968-7.953125c1.398438-2.71875 1.234375-5.976563-.429687-8.542969-1.664063-2.566406-4.574219-4.042969-7.628907-3.875-3.050781.167969-5.78125 1.957031-7.15625 4.6875l-6.3125 12.363281c-5.210937.128906-10.359374 1.148438-15.222656 3.023438l-2.75-8.535156c-1.640625-4.207032-6.273437-6.40625-10.570312-5.019532-4.296875 1.386719-6.769532 5.878906-5.644532 10.25l4.269532 13.296875c-3.628906 3.707031-6.546875 8.042969-8.609375 12.800781l-7.953125-4.039062c-2.722656-1.394531-5.980469-1.230469-8.546875.433594-2.5625 1.664062-4.042969 4.574218-3.8750002 7.625.1679692 3.054687 1.9570312 5.785156 4.6875002 7.15625l12.402343 6.289062c.046876 5.222656 1.054688 10.386719 2.976563 15.242188l-8.492187 2.738281c-4 1.285156-6.46875 5.292969-5.816407 9.445313.648438 4.152343 4.226563 7.210937 8.429688 7.210937.890625.003906 1.773437-.136719 2.617187-.417969l13.289063-4.265625c3.703125 3.628907 8.042969 6.550781 12.800781 8.617188l-4.039062 7.953125c-1.394532 2.722656-1.230469 5.980468.433593 8.546875 1.664063 2.5625 4.574219 4.042969 7.625 3.875 3.054688-.167969 5.785157-1.957031 7.15625-4.6875l6.265625-12.324219c5.789063-.097656 11.5-1.378906 16.777344-3.769531 2.535156 26.230469 24.554688 46.265625 50.90625 46.316406h20.328125c13.445313 11.890625 33.824219 11.265625 46.515625-1.425781s13.316406-33.066406 1.425781-46.515625v-38.585938c.019531-3.859375-1.027343-7.648437-3.03125-10.949219l-23.148437-41.890624c1.078125-5.398438.648437-10.996094-1.238282-16.167969l14.171876-48.070313c3.441406-2.667968 6.335937-5.96875 8.535156-9.726562h21.777344v85.332031c0 9.425781 7.640624 17.066406 17.066406 17.066406v34.132813c.042968 10.8125 6.875 20.429687 17.066406 24.03125v18.636718h-8.535156c-4.710938 0-8.53125 3.820313-8.53125 8.535157 0 4.710937 3.820312 8.53125 8.53125 8.53125h34.136718c4.710938 0 8.53125-3.820313 8.53125-8.53125 0-4.714844-3.820312-8.535157-8.53125-8.535157h-8.535156v-18.636718c10.191406-3.601563 17.023438-13.21875 17.066406-24.03125v-34.132813c9.425782 0 17.066407-7.640625 17.066407-17.066406v-85.332031h21.8125c2.199219 3.757812 5.09375 7.058594 8.53125 9.726562l14.175781 48.070313c-1.886719 5.171875-2.316406 10.769531-1.238281 16.167969l-22.902344 41.480468c-2.152344 3.398438-3.300781 7.335938-3.3125 11.359375v38.585938c-11.890625 13.449219-11.265625 33.824219 1.425781 46.515625s33.070313 13.316406 46.515625 1.425781h20.324219c26.386719-.03125 48.4375-20.09375 50.953125-46.359375 5.277344 2.390625 10.988281 3.671875 16.777344 3.769531l6.265625 12.324219c1.371094 2.730469 4.101562 4.519531 7.152344 4.6875 3.054687.167969 5.964843-1.3125 7.628906-3.875 1.664062-2.566406 1.828125-5.824219.433594-8.546875l-4.039063-7.953125c4.757813-2.066406 9.09375-4.988281 12.800781-8.617188l13.285156 4.265626c.847657.28125 1.730469.421874 2.621094.417968 4.203125 0 7.777344-3.058594 8.429688-7.210937.652344-4.152344-1.816406-8.160157-5.816406-9.445313l-8.535157-2.738281c1.921875-4.855469 2.929688-10.019531 2.976563-15.242187l12.359375-6.277344c2.730469-1.375 4.519531-4.105469 4.6875-7.15625.167969-3.054688-1.3125-5.964844-3.875-7.628906-2.566407-1.664063-5.824219-1.828126-8.546875-.429688l-7.953125 4.035156c-2.0625-4.757812-4.980469-9.09375-8.609375-12.800781l4.265625-13.292969c1.128906-4.375-1.34375-8.867187-5.640625-10.253906s-8.929688.8125-10.570313 5.019531l-2.738281 8.535157c-4.855469-1.933594-10.023438-2.957032-15.25-3.019532l-6.273438-12.324218c-1.371093-2.730469-4.101562-4.519532-7.15625-4.6875-3.050781-.167969-5.960937 1.3125-7.625 3.875-1.664062 2.566406-1.828124 5.824218-.433593 8.542968l4.046875 7.953125c-10.105469 4.28125-18.132813 12.351563-22.359375 22.476563-10.777344 2.203125-19.773438 9.585937-24.027344 19.730468-3.480469 6.984376-5.273437 14.691407-5.234375 22.492188v4.269531c0 2.355469-1.910156 4.265625-4.265625 4.265625h-12.800781v-25.601562c.046875-.976563.378906-1.921875.957031-2.710938l17.734375-33.128906c13.378906-4.097656 22.867188-15.996094 23.882812-29.953125 1.019532-13.960937-6.640624-27.109375-19.285156-33.105469l-10.386718-38.691406c2.695312-4.90625 4.128906-10.410156 4.164062-16.007812 0-18.851563-15.28125-34.132813-34.132812-34.132813v-23.722656c5.460937-4.828125 8.570312-11.777344 8.535156-19.066407-.039063-7.285156-3.214844-14.203124-8.722656-18.976562-1.515626-41.820312-30.589844-77.558594-71.222657-87.550781-40.636719-9.996094-82.96875 8.179687-103.710937 44.527343l-26.230469 10.484376-24.132813-38.550782c13.539063-5.199218 23.988282-16.261718 28.410157-30.074218 4.082031-1.234376 7.804687-3.449219 10.835937-6.449219 4.824219-4.832031 7.496094-11.40625 7.40625-18.238281-.007812-10.828126-4.527344-21.167969-12.476562-28.523438-21.441406-20.566406-65.695313-23.648438-99.054688-22.632812-5.167968.148437-10.171875 1.878906-14.328125 4.957031l-6.21875 4.585937-26.019531 6.507813c-7.609375 1.898437-12.9453125 8.738281-12.9375 16.582031v37.878906c.0039062 7.832032 5.339844 14.660156 12.9375 16.554688zm328.398438 109.039062c0 4.710938-3.820313 8.535156-8.535157 8.535156h-153.597656c-4.714844 0-8.535156-3.824218-8.535156-8.535156 0-4.714844 3.820312-8.535156 8.535156-8.535156h153.597656c4.714844 0 8.535157 3.820312 8.535157 8.535156zm-102.402344 76.800782h34.136718c4.710938 0 8.53125 3.820312 8.53125 8.53125 0 4.714843-3.820312 8.535156-8.53125 8.535156h-34.136718c-4.710938 0-8.53125-3.820313-8.53125-8.535156 0-4.710938 3.820312-8.53125 8.53125-8.53125zm26.90625-17.066407h-19.675782l-5.683593-34.132812h31.042969zm-103.703125 0c9.425781 0 17.066406 7.640625 17.066406 17.066407 0 9.425781-7.640625 17.066406-17.066406 17.066406s-17.066407-7.640625-17.066407-17.066406c0-9.425782 7.640626-17.066407 17.066407-17.066407zm-25.601563 85.332031c9.425782 0 17.066406 7.640626 17.066406 17.066407s-7.640624 17.066406-17.066406 17.066406c-9.425781 0-17.066406-7.640625-17.066406-17.066406s7.640625-17.066407 17.066406-17.066407zm-102.535156 76.730469c.109375-14.058593 11.539062-25.394531 25.597656-25.394531h.214844c6.800781.039062 13.296875 2.804688 18.039062 7.679688 9.652344 10.117187 9.40625 26.109374-.558593 35.917968-9.964844 9.8125-25.957031 9.8125-35.921875 0-4.792969-4.835937-7.449219-11.390625-7.371094-18.203125zm59.867188 34.203125v-3.667968c-.007813-1.527344-.183594-3.046876-.519532-4.53125 5.042969-6.582032 8.039063-14.5 8.617188-22.769532 2.328125 2.128906 4.203125 4.699219 5.523437 7.5625 2.296875 4.617188 3.476563 9.714844 3.445313 14.871094v4.269531c0 11.78125 9.550781 21.332031 21.335937 21.332031h5.476563c-1.613282 5.574219-1.613282 11.492188 0 17.066407h-9.746094c-18.847656 0-34.132812-15.28125-34.132812-34.132813zm76.800781 42.667969c-9.425781 0-17.066407-7.640625-17.066407-17.066406s7.640626-17.066407 17.066407-17.066407 17.066406 7.640626 17.066406 17.066407-7.640625 17.066406-17.066406 17.066406zm7.875-80.292969c.429687.691406.65625 1.484375.660156 2.296875v28.007813c-5.574219-1.617188-11.492187-1.617188-17.066406 0v-18.28125c.015625-3.792969-1.015625-7.519532-2.980469-10.765625l-13.285156-24.824219c5.609375-1.5625 10.726562-4.539062 14.863281-8.636719zm-22.382813-84.058594c-4.699218-3.3125-10.167968-5.367187-15.886718-5.976562l5.800781-21.628906c4.917969 2.722656 10.4375 4.175781 16.0625 4.222656.332031 0 .636719-.085938.972656-.09375zm23.042969-86.90625v-21.808593h43.972656l6.015625 36.085937c-6.683594 2.792969-11.871094 8.285156-14.285156 15.113282h-18.636719c-.039062-12.140626-6.542969-23.339844-17.066406-29.390626zm85.332031 182.988282c0 4.714844-3.820312 8.535156-8.535156 8.535156-4.710938 0-8.53125-3.820312-8.53125-8.535156v-34.132813c0-4.710937 3.820312-8.53125 8.53125-8.53125 4.714844 0 8.535156 3.820313 8.535156 8.53125zm10.410156-51.199219c-2.839843-3.148437-6.417968-5.539063-10.410156-6.960937v-35.703126c0-4.714843-3.820312-8.535156-8.535156-8.535156-4.710938 0-8.53125 3.820313-8.53125 8.535156v35.703126c-3.992188 1.421874-7.570312 3.8125-10.410156 6.960937h-6.65625v-69.835937c2.730468 1.011718 5.617187 1.542968 8.53125 1.570312h34.136718c2.910157-.027344 5.796876-.558594 8.53125-1.570312v69.835937zm90.964844-72.457031 5.804688 21.632812c-5.71875.609375-11.1875 2.664063-15.890625 5.972656l-6.929688-23.472656c.332031 0 .640625.09375.972657.09375 5.617187-.050781 11.132812-1.503906 16.042968-4.226562zm-32.253906 111.226562 17.570312-31.796875c4.136719 4.097657 9.253907 7.070313 14.863282 8.636719l-12.996094 24.320312c-2.105469 3.382813-3.222656 7.285157-3.226562 11.269532v18.28125c-5.574219-1.617188-11.492188-1.617188-17.066407 0v-28.007813c.019531-.964843.316407-1.902343.855469-2.703125zm-9.386719 63.632813c0-9.425781 7.640625-17.066407 17.066407-17.066407 9.425781 0 17.066406 7.640626 17.066406 17.066407s-7.640625 17.066406-17.066406 17.066406c-9.425782 0-17.066407-7.640625-17.066407-17.066406zm109.890625-77.550781c4.742188-4.875 11.242188-7.644532 18.039063-7.683594h.214843c10.296876.023437 19.578126 6.214844 23.558594 15.710937 3.976563 9.5 1.875 20.457031-5.332031 27.8125-4.75 4.847657-11.242187 7.597657-18.03125 7.636719-6.8125.160156-13.386719-2.503906-18.167969-7.355469-10.019531-9.910156-10.144531-26.058593-.28125-36.121093zm-33.089844 47.683593v-4.269531c-.027343-5.195312 1.171876-10.328125 3.496094-14.972656 1.304688-2.832032 3.164063-5.371094 5.46875-7.46875.578125 8.273437 3.578125 16.191406 8.621094 22.777344-.335938 1.484374-.511719 3.003906-.519531 4.53125v3.667968c0 18.851563-15.285157 34.132813-34.136719 34.132813h-9.742188c1.613282-5.574219 1.613282-11.492188 0-17.066407h5.476563c11.78125 0 21.335937-9.550781 21.335937-21.332031zm-25.601562-72.535156c-9.425781 0-17.066406-7.640625-17.066406-17.066406s7.640625-17.066407 17.066406-17.066407 17.066406 7.640626 17.066406 17.066407-7.640625 17.066406-17.066406 17.066406zm-8.535156-102.398437c0 9.425781-7.640625 17.066406-17.066406 17.066406-9.425782 0-17.066407-7.640625-17.066407-17.066406 0-9.425782 7.640625-17.066407 17.066407-17.066407 9.425781 0 17.066406 7.640625 17.066406 17.066407zm-34.132813-29.390626c-10.523437 6.050782-17.027343 17.25-17.066406 29.390626h-18.636719c-2.410156-6.832032-7.597656-12.324219-14.285156-15.113282l5.972656-36.085937h44.015625zm-76.800781-139.65625c38.453125.066407 70.941406 28.535157 76.050781 66.644532h-152.105469c1.132813-8.617188 3.707032-16.980469 7.617188-24.746094.203125-.273438.386719-.558594.554688-.851562 13.21875-25.257813 39.378906-41.074219 67.882812-41.046876zm-170.664062-3.199218v-14.949219c0-8.382813 0-8.535156 8.53125-8.535156h39.960937c-7.976563 12.597656-32.347656 20.171875-48.492187 23.484375zm-25.3125-83.625c41.816406-1.324219 73.535156 5.230468 86.761718 17.917968 4.613282 4.207032 7.234375 10.171876 7.210938 16.417969.015625 2.261719-.878906 4.4375-2.484375 6.035157-1.695313 1.730468-4.019531 2.707031-6.441407 2.703124h-51.203124c-25.597657 0-25.597657 17.289063-25.597657 25.601563v47.90625c.011719 1.511719-.675781 2.949219-1.863281 3.890625-1.167969.949219-2.707031 1.320312-4.179688 1.007812-2.050781-.441406-3.613281-2.109374-3.917968-4.183593l-7.105469-49.238281v-63.351563l4.101563-3.027344c1.371093-1.019531 3.015624-1.597656 4.71875-1.65625zm-42.953126 15.597656 17.066407-4.265625v46.410156l-17.066407-4.265625zm0 0"/><path d="m221.898438 153.617188h25.601562c4.710938 0 8.53125-3.820313 8.53125-8.53125 0-4.714844-3.820312-8.535157-8.53125-8.535157h-25.601562c-4.710938 0-8.53125 3.820313-8.53125 8.535157 0 4.710937 3.820312 8.53125 8.53125 8.53125zm0 0"/></svg>