<svg height="512pt" viewBox="0 -13 512 512" width="512pt" xmlns="http://www.w3.org/2000/svg"><path d="m145.066406 42.761719v4.265625h-59.734375v-4.265625c-.011719-12.363281 7.636719-23.445313 19.203125-27.816407 3.386719-1.375 7.007813-2.070312 10.664063-2.050781 16.460937.082031 29.789062 13.40625 29.867187 29.867188zm0 0" fill="#37474f"/><path d="m396.800781 12.894531c16.492188 0 29.867188 13.371094 29.867188 29.867188v4.265625h-59.734375v-4.265625c0-16.496094 13.371094-29.867188 29.867187-29.867188zm0 0" fill="#37474f"/><path d="m123.734375 42.761719v4.265625h-38.402344v-4.265625c-.011719-12.363281 7.636719-23.445313 19.203125-27.816407 3.925782 1.445313 7.484375 3.746094 10.410156 6.738282 5.636719 5.5625 8.804688 13.160156 8.789063 21.078125zm0 0" fill="#607d8b"/><path d="m405.332031 42.761719h-38.398437v-4.265625c-.011719-10.183594 5.210937-19.65625 13.824218-25.089844 6.007813 1.015625 11.535157 3.914062 15.785157 8.277344 5.640625 5.5625 8.804687 13.160156 8.789062 21.078125zm0 0" fill="#607d8b"/><path d="m251.734375 149.429688h-123.734375c2.769531-3.695313 4.265625-8.183594 4.265625-12.800782v-21.332031h85.335937c5.367188.015625 10.417969 2.542969 13.652344 6.824219l14.078125 18.773437zm0 0" fill="#37474f"/><path d="m384 149.429688h-123.734375l20.480469-27.308594c3.234375-4.28125 8.285156-6.808594 13.652344-6.824219h85.335937v21.332031c0 4.617188 1.496094 9.105469 4.265625 12.800782zm0 0" fill="#37474f"/><path d="m234.667969 149.429688h-106.667969c2.769531-3.695313 4.265625-8.183594 4.265625-12.800782v-21.332031h68.269531c5.367188.015625 10.417969 2.542969 13.652344 6.824219zm0 0" fill="#607d8b"/><path d="m245.332031 140.894531 6.402344 8.535157h-12.800781zm0 0" fill="#37474f"/><path d="m358.398438 149.429688h-102.398438l20.480469-27.308594c3.234375-4.28125 8.285156-6.808594 13.652343-6.824219h64v21.332031c0 4.617188 1.496094 9.105469 4.265626 12.800782zm0 0" fill="#607d8b"/><path d="m136.535156 68.363281v64c0 11.78125-9.554687 21.332031-21.335937 21.332031-2.941407.023438-5.851563-.585937-8.53125-1.792968-7.773438-3.390625-12.796875-11.0625-12.800781-19.539063v-64zm0 0" fill="#37474f"/><path d="m418.132812 68.363281v64c0 11.78125-9.550781 21.332031-21.332031 21.332031-2.941406.023438-5.851562-.585937-8.535156-1.792968-7.769531-3.390625-12.792969-11.0625-12.800781-19.539063v-64zm0 0" fill="#37474f"/><path d="m119.464844 68.363281v64c-.003906 8.476563-5.027344 16.148438-12.796875 19.539063-7.773438-3.390625-12.796875-11.0625-12.800781-19.539063v-64zm0 0" fill="#607d8b"/><path d="m401.066406 68.363281v64c-.003906 8.476563-5.027344 16.148438-12.800781 19.539063-7.769531-3.390625-12.792969-11.0625-12.800781-19.539063v-64zm0 0" fill="#607d8b"/><path d="m349.867188 179.296875-59.734376-34.132813h-68.265624l-59.734376 34.132813-25.597656 59.730469 85.332032 51.203125h68.265624l85.332032-51.203125zm0 0" fill="#f29c1f"/><path d="m497.40625 202.421875-42.664062 42.664063c-1.59375 1.570312-3.738282 2.457031-5.972657 2.476562h-25.601562c2.238281-.019531 4.378906-.90625 5.972656-2.476562l6.058594-6.058594 36.609375-36.605469c3.328125-3.355469 3.328125-8.765625 0-12.117187l-42.667969-42.667969c-1.59375-1.570313-3.734375-2.457031-5.972656-2.472657h25.601562c2.234375.015626 4.378907.902344 5.972657 2.472657l42.664062 42.667969c3.328125 3.351562 3.328125 8.761718 0 12.117187zm0 0" fill="#424242"/><path d="m471.808594 202.421875-36.609375 36.605469-6.058594 6.058594c-1.59375 1.570312-3.734375 2.457031-5.972656 2.476562h-5.035157c-4.710937 0-8.53125-3.820312-8.53125-8.535156 0-4.710938-3.820312-8.53125-8.535156-8.53125h-290.132812c-4.714844 0-8.535156 3.820312-8.535156 8.53125 0 4.714844-3.820313 8.535156-8.53125 8.535156h-30.636719c-2.234375-.019531-4.378907-.90625-5.972657-2.476562l-42.664062-42.664063c-3.328125-3.355469-3.328125-8.765625 0-12.117187l42.664062-42.667969c1.59375-1.570313 3.738282-2.457031 5.972657-2.472657h359.9375c2.238281.015626 4.378906.902344 5.972656 2.472657l42.667969 42.667969c3.328125 3.351562 3.328125 8.761718 0 12.117187zm0 0" fill="#9e9e9e"/><path d="m423.679688 410.207031c-13.828126-8.121093-22.402344-22.878906-22.613282-38.910156.527344-20.601563 14.335938-38.484375 34.132813-44.203125h34.132812c19.796875 5.71875 33.609375 23.601562 34.132813 44.203125-.207032 16.03125-8.785156 30.789063-22.613282 38.910156zm0 0" fill="#424242"/><path d="m469.332031 307.296875v68.265625h-34.132812v-59.734375h-38.144531l-92.671876-34.132813h139.351563c14.136719 0 25.597656 11.460938 25.597656 25.601563zm0 0" fill="#9e9e9e"/><path d="m88.320312 410.207031c13.828126-8.121093 22.402344-22.878906 22.613282-38.910156-.527344-20.601563-14.335938-38.484375-34.132813-44.203125h-34.132812c-19.796875 5.71875-33.609375 23.601562-34.132813 44.203125.207032 16.03125 8.785156 30.789063 22.613282 38.910156zm0 0" fill="#424242"/><path d="m190.550781 281.695312-92.671875 34.132813h-21.078125v59.734375h-34.132812v-68.265625c0-14.140625 11.460937-25.601563 25.597656-25.601563zm0 0" fill="#cfd8dc"/><path d="m207.617188 281.695312-92.671876 34.132813h-17.066406l92.671875-34.132813zm0 0" fill="#9e9e9e"/><path d="m452.265625 307.296875v68.265625h-17.066406v-59.734375h-55.210938l-92.671875-34.132813h139.351563c14.136719 0 25.597656 11.460938 25.597656 25.601563zm0 0" fill="#cfd8dc"/><path d="m221.867188 59.828125c-.070313 9.398437-7.671876 16.996094-17.066407 17.066406h-179.199219c-9.414062-.027343-17.039062-7.652343-17.066406-17.066406-.027344-4.527344 1.792969-8.871094 5.03125-12.03125 3.164063-3.242187 7.507813-5.058594 12.035156-5.035156h179.199219c9.414063.027343 17.039063 7.652343 17.066407 17.066406zm0 0" fill="#9e9e9e"/><path d="m200.535156 59.828125c-.070312 9.398437-7.671875 16.996094-17.070312 17.066406h-157.863282c-9.414062-.027343-17.039062-7.652343-17.066406-17.066406-.027344-4.527344 1.792969-8.871094 5.03125-12.03125 3.164063-3.242187 7.507813-5.058594 12.035156-5.035156h157.863282c9.414062.027343 17.039062 7.652343 17.070312 17.066406zm0 0" fill="#cfd8dc"/><path d="m503.464844 59.828125c-.066406 9.398437-7.667969 16.996094-17.066406 17.066406h-179.199219c-9.414063-.027343-17.039063-7.652343-17.066407-17.066406.070313-9.394531 7.671876-16.996094 17.066407-17.066406h179.199219c9.414062.027343 17.039062 7.652343 17.066406 17.066406zm0 0" fill="#9e9e9e"/><path d="m482.132812 59.828125c-.070312 9.398437-7.667968 16.996094-17.066406 17.066406h-157.867187c-9.414063-.027343-17.039063-7.652343-17.066407-17.066406.070313-9.394531 7.671876-16.996094 17.066407-17.066406h157.867187c9.414063.027343 17.039063 7.652343 17.066406 17.066406zm0 0" fill="#cfd8dc"/><path d="m315.734375 213.429688h-119.46875l25.601563-68.265626h68.265624zm0 0" fill="#ffb301"/><path d="m294.398438 213.429688h-98.132813l25.601563-68.265626h46.933593zm0 0" fill="#ffeb3a"/><path d="m315.734375 213.429688-25.601563 76.800781h-68.265624l-25.601563-76.800781zm0 0" fill="#f57c00"/><path d="m294.398438 213.429688-25.597657 76.800781h-46.933593l-25.601563-76.800781zm0 0" fill="#ff9801"/><path d="m136.535156 239.027344 85.332032 51.203125-25.601563-76.800781zm0 0" fill="#ff9801"/><path d="m375.464844 239.027344-85.332032 51.203125 25.429688-76.289063.171875-.511718 38.058594 16.296874zm0 0" fill="#f57c00"/><path d="m162.132812 179.296875-25.597656 59.730469 59.730469-25.597656 25.601563-68.265626zm0 0" fill="#ff9801"/><path d="m375.464844 239.027344-21.671875-9.300782-38.058594-16.296874-23.894531-63.574219-1.707032-4.691407 59.734376 34.132813zm0 0" fill="#f57c00"/><path d="m354.132812 230.496094-55.125 33.109375 16.554688-49.664063zm0 0" fill="#ff9801"/><path d="m353.792969 229.726562-38.058594-16.296874-23.894531-63.574219 36.695312 20.90625zm0 0" fill="#ff9801"/><path d="m401.066406 303.027344c.050782 5.605468-2.058594 11.015625-5.886718 15.105468-3.683594 3.960938-8.84375 6.214844-14.25 6.230469h-249.859376c-11.441406-.355469-20.441406-9.890625-20.136718-21.335937-.050782-5.601563 2.058594-11.011719 5.886718-15.101563 3.683594-3.960937 8.84375-6.214843 14.25-6.230469h249.859376c11.441406.351563 20.441406 9.890626 20.136718 21.332032zm0 0" fill="#424242"/><path d="m384 303.027344c.050781 5.605468-2.058594 11.015625-5.886719 15.105468-3.683593 3.960938-8.84375 6.214844-14.25 6.230469h-232.792969c-11.441406-.355469-20.441406-9.890625-20.136718-21.335937-.050782-5.601563 2.058594-11.011719 5.886718-15.101563 3.683594-3.960937 8.84375-6.214843 14.25-6.230469h232.792969c11.441407.351563 20.441407 9.890626 20.136719 21.332032zm0 0" fill="#9e9e9e"/><path d="m102.398438 452.363281h-85.332032l25.601563-76.800781c-.007813-5.179688 2.347656-10.082031 6.398437-13.3125 3.011719-2.449219 6.785156-3.777344 10.667969-3.753906 9.414063.027344 17.039063 7.652344 17.066406 17.066406zm0 0" fill="#37474f"/><path d="m494.933594 452.363281h-85.332032l25.597657-76.800781c-.003907-5.179688 2.351562-10.082031 6.402343-13.3125 3.011719-2.449219 6.78125-3.777344 10.664063-3.753906 9.414063.027344 17.039063 7.652344 17.066406 17.066406zm0 0" fill="#37474f"/><path d="m81.066406 452.363281h-64l25.601563-76.800781c-.007813-5.179688 2.347656-10.082031 6.398437-13.3125 4.050782 3.230469 6.40625 8.132812 6.398438 13.3125zm0 0" fill="#607d8b"/><path d="m473.601562 452.363281h-64l25.597657-76.800781c-.003907-5.179688 2.351562-10.082031 6.402343-13.3125 4.046876 3.230469 6.402344 8.132812 6.398438 13.3125zm0 0" fill="#607d8b"/><path d="m315.734375 320.09375-13.140625 52.738281c-.621094 2.542969-1.660156 4.964844-3.074219 7.167969l-9.386719-8.703125-3.582031-2.648437 12.117188-48.554688zm0 0" fill="#37474f"/><path d="m298.667969 320.09375-12.117188 48.554688-10.070312-7.59375c-8.285157-6.246094-18.976563-8.355469-29.015625-5.714844-4.328125 1.074218-8.390625 3.019531-11.945313 5.714844l-13.652343 10.242187-9.386719 8.703125c-1.414063-2.203125-2.453125-4.625-3.074219-7.167969l-1.023438-4.183593-12.117187-48.554688zm0 0" fill="#607d8b"/><path d="m286.550781 368.648438-1.027343 4.183593c-.617188 2.542969-1.65625 4.964844-3.070313 7.167969l-9.386719-8.703125-13.652344-10.242187c-3.554687-2.695313-7.617187-4.640626-11.949218-5.714844 10.039062-2.640625 20.730468-.53125 29.015625 5.714844zm0 0" fill="#37474f"/><path d="m59.734375 456.628906c0 5.65625-2.25 11.085938-6.25 15.085938s-9.425781 6.246094-15.085937 6.246094c-2.9375.015624-5.847657-.59375-8.53125-1.789063-7.761719-3.402344-12.773438-11.070313-12.773438-19.542969s5.011719-16.140625 12.773438-19.542968c2.683593-1.195313 5.59375-1.804688 8.53125-1.789063 5.660156 0 11.085937 2.246094 15.085937 6.246094s6.25 9.429687 6.25 15.085937zm0 0" fill="#f57c00"/><path d="m102.398438 456.628906c0 5.65625-2.246094 11.085938-6.246094 15.085938s-9.425782 6.246094-15.085938 6.246094c-2.9375.015624-5.847656-.59375-8.53125-1.789063-7.761718-3.402344-12.777344-11.070313-12.777344-19.542969s5.015626-16.140625 12.777344-19.542968c2.683594-1.195313 5.59375-1.804688 8.53125-1.789063 5.660156 0 11.085938 2.246094 15.085938 6.246094s6.246094 9.429687 6.246094 15.085937zm0 0" fill="#ffb301"/><path d="m494.933594 456.628906c0 11.78125-9.550782 21.332032-21.332032 21.332032-2.941406.015624-5.851562-.59375-8.535156-1.789063-7.761718-3.402344-12.773437-11.070313-12.773437-19.542969s5.011719-16.140625 12.773437-19.542968c2.683594-1.195313 5.59375-1.804688 8.535156-1.789063 11.78125 0 21.332032 9.550781 21.332032 21.332031zm0 0" fill="#ffb301"/><path d="m452.265625 456.628906c0 11.78125-9.550781 21.332032-21.332031 21.332032s-21.332032-9.550782-21.332032-21.332032 9.550782-21.332031 21.332032-21.332031 21.332031 9.550781 21.332031 21.332031zm0 0" fill="#f57c00"/><path d="m42.667969 456.628906c.015625 8.484375-5.015625 16.164063-12.800781 19.542969-7.761719-3.402344-12.773438-11.070313-12.773438-19.542969s5.011719-16.140625 12.773438-19.542968c7.785156 3.378906 12.816406 11.058593 12.800781 19.542968zm0 0" fill="#ff9801"/><path d="m85.332031 456.628906c.015625 8.484375-5.015625 16.164063-12.796875 19.542969-7.761718-3.402344-12.777344-11.070313-12.777344-19.542969s5.015626-16.140625 12.777344-19.542968c7.78125 3.378906 12.8125 11.058593 12.796875 19.542968zm0 0" fill="#ffeb3a"/><path d="m477.867188 456.628906c.015624 8.484375-5.015626 16.164063-12.800782 19.542969-7.761718-3.402344-12.773437-11.070313-12.773437-19.542969s5.011719-16.140625 12.773437-19.542968c7.785156 3.378906 12.816406 11.058593 12.800782 19.542968zm0 0" fill="#ffeb3a"/><path d="m435.199219 456.628906c.015625 8.484375-5.015625 16.164063-12.800781 19.542969-7.757813-3.402344-12.773438-11.070313-12.773438-19.542969s5.015625-16.140625 12.773438-19.542968c7.785156 3.378906 12.816406 11.058593 12.800781 19.542968zm0 0" fill="#ff9801"/><path d="m426.667969 85.429688h59.730469c14.140624 0 25.601562-11.460938 25.601562-25.601563 0-14.136719-11.460938-25.597656-25.601562-25.597656h-51.617188c-.859375-8.625-4.683594-16.683594-10.820312-22.800781-7.152344-7.289063-16.949219-11.3750005-27.160157-11.335938-7.3125-.0429688-14.472656 2.074219-20.582031 6.085938-9.839844 6.167968-16.308594 16.503906-17.554688 28.050781h-51.464843c-14.136719 0-25.597657 11.460937-25.597657 25.597656 0 14.140625 11.460938 25.601563 25.597657 25.601563h59.734375v17.066406h-76.800782c-8.054687.011718-15.636718 3.804687-20.480468 10.238281l-13.652344 18.203125-13.652344-18.203125c-4.847656-6.429687-12.425781-10.21875-20.480468-10.238281h-76.800782v-17.066406h59.734375c14.136719 0 25.597657-11.460938 25.597657-25.601563 0-14.136719-11.460938-25.597656-25.597657-25.597656h-51.636719c-2.023437-19.453125-18.417968-34.230469-37.972656-34.230469-19.554687 0-35.949218 14.777344-37.972656 34.230469h-51.617188c-14.140624 0-25.601562 11.460937-25.601562 25.597656 0 14.140625 11.460938 25.601563 25.601562 25.601563h59.730469v46.933593c.042969 1.429688.1875 2.855469.4375 4.265625h-22.503906c-4.523437.011719-8.859375 1.808594-12.066406 5l-42.664063 42.667969c-6.664062 6.664063-6.664062 17.46875 0 24.132813l42.664063 42.664062c3.207031 3.195312 7.542969 4.992188 12.066406 5h30.601563c9.425781 0 17.066406-7.640625 17.066406-17.066406h17.125c.003906.339844.023437.675781.070312 1.007812 0 .222656 0 .445313.050782.667969.15625.796875.425781 1.570313.800781 2.292969v.0625c.375.695312.847656 1.335937 1.398437 1.902344l.078125.101562c.085938.085938.207031.109375.289063.1875.410156.410156.863281.777344 1.351562 1.09375l44.738282 26.820312h-108.570313c-18.851563 0-34.132813 15.28125-34.132813 34.132813v14.078125c-20.296874 8.363281-33.703124 27.96875-34.132812 49.921875.109375 16.5625 7.867188 32.148437 21.019531 42.222656l-12.042969 36.144531c-.429687 1.382813-.488281 2.855469-.171874 4.269532-.082032.902344-.269532 1.78125-.269532 2.710937-.019531 12.144531 7.332032 23.089844 18.578125 27.667969 11.25 4.578125 24.152344 1.875 32.621094-6.828125 8.46875 8.707031 21.375 11.40625 32.625 6.824219 11.25-4.582032 18.597656-15.53125 18.574219-27.679688 0-.929687-.1875-1.808594-.273438-2.714844.316406-1.410156.257813-2.882812-.171875-4.265624l-12.039062-36.148438c13.144531-10.070312 20.902343-25.644531 21.015625-42.203125-.324219-19.582031-11.105469-37.488281-28.261719-46.933594h19.867187c5.246094 5.425781 12.460938 8.5 20.011719 8.53125h58.511719l11.222656 44.996094-24.96875 4.992187c-7.976562 1.597657-13.714844 8.601563-13.714844 16.734376v33.578124c.058594.707032.15625 1.40625.300782 2.101563h-25.898438c-4.714844 0-8.535156 3.820313-8.535156 8.53125 0 4.714844 3.820312 8.535156 8.535156 8.535156h85.332032c4.710937 0 8.53125-3.820312 8.53125-8.535156 0-4.710937-3.820313-8.53125-8.53125-8.53125h-19.480469l36.195312-32.582031c.449219-.492188.863281-1.011719 1.246094-1.550782h32.386719c.382812.539063.796875 1.058594 1.246094 1.550782l36.164062 32.582031h-19.492188c-4.710937 0-8.53125 3.820313-8.53125 8.53125 0 4.714844 3.820313 8.535156 8.53125 8.535156h85.332032c4.714844 0 8.535156-3.820312 8.535156-8.535156 0-4.710937-3.820312-8.53125-8.535156-8.53125h-25.898438c.144532-.695313.246094-1.394531.300782-2.101563v-33.578124c0-8.132813-5.738282-15.136719-13.714844-16.734376l-24.957032-4.992187 11.210938-44.996094h58.511719c7.554687-.054687 14.769531-3.125 20.046875-8.53125h19.832031c-17.15625 9.445313-27.9375 27.351563-28.261719 46.933594.109375 16.5625 7.867188 32.148437 21.015625 42.222656l-12.039062 36.144531c-.40625 1.308594-.488281 2.695313-.230469 4.039063-.09375.972656-.214844 1.9375-.214844 2.925781-.027344 11.839844 6.96875 22.566406 17.816406 27.308594 3.789063 1.703125 7.898438 2.578125 12.050782 2.558594 8.039062-.003906 15.734375-3.257813 21.332031-9.027344 8.46875 8.703125 21.371094 11.402344 32.621094 6.824219 11.246093-4.578125 18.597656-15.519531 18.578125-27.664063 0-.929687-.1875-1.808594-.269532-2.714844.316407-1.410156.257813-2.882812-.171874-4.265624l-12.042969-36.148438c13.148437-10.070312 20.902343-25.644531 21.019531-42.203125-.429688-21.953125-13.835938-41.558594-34.132812-49.921875v-14.078125c0-18.851563-15.28125-34.132813-34.132813-34.132813h-108.570313l44.699219-26.820312c.488281-.316406.941407-.683594 1.355469-1.09375.085938-.078125.195312-.101562.28125-.1875l.078125-.101562c.550781-.566407 1.023437-1.207032 1.398437-1.902344v-.0625c.378907-.722656.648438-1.496094.800782-2.292969.042968-.214844 0-.4375.050781-.660156.058594-.335938.097656-.671875.113281-1.015625h17.125c0 9.425781 7.640625 17.066406 17.066406 17.066406h30.601563c4.523437-.007812 8.859375-1.804688 12.066406-5l42.664063-42.664062c6.664062-6.664063 6.664062-17.46875 0-24.132813l-42.664063-42.667969c-3.207031-3.191406-7.542969-4.988281-12.066406-5h-22.503906c.25-1.410156.394531-2.835937.4375-4.265625zm-41.175781-64.921876c8.429687-5.25 19.363281-4.011718 26.402343 2.996094 2.96875 2.914063 4.992188 6.648438 5.8125 10.726563h-41.8125c1.175781-5.699219 4.648438-10.664063 9.597657-13.722657zm-86.824219 39.320313c0-4.710937 3.820312-8.53125 8.53125-8.53125h179.199219c4.714843 0 8.535156 3.820313 8.535156 8.53125 0 4.714844-3.820313 8.535156-8.535156 8.535156h-179.199219c-4.710938 0-8.53125-3.820312-8.53125-8.535156zm110.933593 25.601563v46.933593c0 7.066407-5.730468 12.800781-12.800781 12.800781-7.070312 0-12.800781-5.734374-12.800781-12.800781v-46.933593zm-126.292968 37.546874c1.609375-2.148437 4.140625-3.414062 6.824218-3.414062h76.800782v12.800781c.039062 1.429688.1875 2.855469.433594 4.265625h-94.300782zm.902344 30.71875 19.199218 51.199219h-94.828125l19.199219-51.199219zm-94.660157 53.324219-36.804687 15.796875 16.101562-37.546875 36.695313-20.984375zm38.46875 74.675781-19.910156-59.734374h95.78125l-19.910156 59.734374zm94.429688-74.675781-16.027344-42.71875 36.695313 20.984375 16.136718 37.53125zm-100.582031-87.457031c2.683593 0 5.214843 1.265625 6.824218 3.414062l10.242188 13.652344h-94.300782c.246094-1.410156.394532-2.835937.433594-4.265625v-12.800781zm-106.667969-102.398438c10.140625-.003906 18.878906 7.128907 20.90625 17.066407h-41.8125c2.027343-9.9375 10.769531-17.070313 20.90625-17.066407zm-98.132813 42.664063c0-4.710937 3.820313-8.53125 8.535156-8.53125h179.199219c4.710938 0 8.53125 3.820313 8.53125 8.53125 0 4.714844-3.820312 8.535156-8.53125 8.535156h-179.199219c-4.714843 0-8.535156-3.820312-8.535156-8.535156zm110.933594 25.601563v46.933593c0 7.066407-5.730469 12.800781-12.800781 12.800781-7.070313 0-12.800781-5.734374-12.800781-12.800781v-46.933593zm-34.132812 153.597656h-30.601563l-42.667969-42.664063 42.667969-42.667969h31.097656c11.5625 11.375 30.113281 11.375 41.675781 0h53.699219l-31.871093 18.195313c-1.613282.917969-2.878907 2.339844-3.609376 4.042969l-19.695312 46.027344h-23.628906c-9.425782 0-17.066406 7.640624-17.066406 17.066406zm97.28125-14.105469 15.359374 46.082031-51.242187-30.71875zm-122.882813 65.308594h36.992187c-2.613281 5.28125-3.46875 11.261719-2.441406 17.066406h-26.015625c-4.714843 0-8.535156 3.820313-8.535156 8.53125v35.703125c-5.496094-2.09375-11.570313-2.09375-17.066406 0v-44.234375c0-9.425781 7.640625-17.066406 17.066406-17.066406zm-8.53125 145.558593c-5.597656-5.769531-13.296875-9.023437-21.335937-9.027343-1.320313.042969-2.636719.175781-3.941407.402343l16.300781-48.90625c.089844-.429687.144532-.871093.160157-1.3125.136719-.453124.230469-.914062.28125-1.382812 0-4.714844 3.820312-8.535156 8.535156-8.535156 4.710937 0 8.53125 3.820312 8.53125 8.535156.21875.886719.367187 1.789062.445313 2.695312l16.296874 48.90625c-1.300781-.226562-2.621093-.359374-3.941406-.402343-8.039062.003906-15.734375 3.257812-21.332031 9.027343zm-42.667969-64.492187c.222656-12.421875 6.625-23.914063 17.066406-30.644531v26.375c.011719 1.054687.226563 2.09375.625 3.066406-.222656 1.152344-.363281 2.324219-.429687 3.496094l-7.386719 22.1875c-6.273437-6.617188-9.800781-15.367188-9.875-24.480469zm21.332032 98.132813c-7.066407 0-12.796876-5.730469-12.796876-12.800782 0-7.070312 5.730469-12.800781 12.796876-12.800781 7.070312 0 12.800781 5.730469 12.800781 12.800781 0 7.070313-5.730469 12.800782-12.800781 12.800782zm42.667968 0c-7.070312 0-12.800781-5.730469-12.800781-12.800782 0-7.070312 5.730469-12.800781 12.800781-12.800781 7.070313 0 12.800782 5.730469 12.800782 12.800781 0 7.070313-5.730469 12.800782-12.800782 12.800782zm11.460938-73.652344-7.390625-22.1875c-.058594-1.171875-.199219-2.34375-.417969-3.496094.390625-.976562.601562-2.015625.613281-3.066406v-26.375c10.445313 6.730468 16.84375 18.222656 17.066407 30.644531-.074219 9.113281-3.601563 17.863281-9.871094 24.480469zm177.058594-13.386719c-.210938.558594-.390626 1.125-.539063 1.703125h-26.09375c-.148437-.578125-.328125-1.144531-.539063-1.703125-1.414062-2.816406-3.585937-5.179687-6.269531-6.828125l4.496094-3.414062c9.117187-6.773438 21.601563-6.773438 30.71875 0l4.496094 3.371093c-2.683594 1.664063-4.855469 4.042969-6.269531 6.871094zm-90.386719 17.226563 34.859375-6.988282 13.082031-2.621094-47.941406 43.1875zm153.601562 33.578124-47.964843-43.125 47.964843 9.546876zm-37.050781-63.90625c-.191406-.167968-.285156-.398437-.488281-.554687l-13.660157-10.238281c-15.199218-11.292969-36.003906-11.292969-51.203124 0l-13.652344 10.238281c-.195313.15625-.296875.386719-.476563.546875l-9.089843-36.386719h97.640624zm165.332031 7.679688c.015625.445312.070313.882812.160157 1.316406l16.300781 48.902344c-1.304688-.230469-2.621094-.375-3.941407-.425781-8.039062.003906-15.738281 3.257812-21.335937 9.027343-6.398437-7.003906-15.929687-10.257812-25.273437-8.625l16.296874-48.90625c.09375-.429687.148438-.871093.164063-1.3125.136719-.453124.230469-.914062.28125-1.382812 0-4.714844 3.820313-8.535156 8.53125-8.535156 4.714844 0 8.535156 3.820312 8.535156 8.535156.050781.46875.144531.929688.28125 1.382812zm-51.480469-5.671875c.222657-12.421875 6.621094-23.914063 17.066407-30.644531v26.375c.011719 1.054687.222656 2.09375.621093 3.066406-.21875 1.152344-.363281 2.324219-.425781 3.496094l-7.390625 22.1875c-6.269531-6.617188-9.796875-15.367188-9.871094-24.480469zm21.332032 98.132813c-1.765625.007812-3.511719-.367188-5.121094-1.09375-4.660156-2.058594-7.65625-6.6875-7.625-11.78125.027344-5.09375 3.078125-9.6875 7.761719-11.691407 1.570312-.695312 3.269531-1.046875 4.984375-1.035156 7.070312 0 12.800781 5.730469 12.800781 12.800781 0 7.070313-5.730469 12.800782-12.800781 12.800782zm42.667968 0c-7.070312 0-12.800781-5.730469-12.800781-12.800782 0-7.070312 5.730469-12.800781 12.800781-12.800781 7.066407 0 12.796876 5.730469 12.796876 12.800781 0 7.070313-5.730469 12.800782-12.796876 12.800782zm21.332032-98.132813c-.074219 9.113281-3.601563 17.863281-9.875 24.480469l-7.386719-22.1875c-.0625-1.171875-.203125-2.34375-.417969-3.496094.390625-.976562.597656-2.015625.613282-3.066406v-26.375c10.441406 6.730468 16.84375 18.222656 17.066406 30.644531zm-39.144532-76.058594c3.21875 3.1875 5.023438 7.53125 5.011719 12.058594v44.234375c-5.496093-2.09375-11.570312-2.09375-17.066406 0v-35.703125c0-4.710937-3.820313-8.53125-8.535156-8.53125h-25.992188c.226563-1.414063.355469-2.839844.394531-4.269531-.019531-4.421875-1-8.789063-2.878906-12.796875h37.011719c4.527344-.007813 8.867187 1.792969 12.054687 5.007812zm-63.253906 7.789063c.023438 3.421875-1.25 6.722656-3.558594 9.242187-2.074218 2.257813-4.992187 3.546875-8.058593 3.558594h-249.835938c-6.734375-.347656-11.921875-6.066406-11.617187-12.800781-.023438-3.417969 1.25-6.71875 3.558594-9.238282 2.074218-2.257812 4.992187-3.546874 8.058593-3.558593h74.238281l12.195313 7.3125c.359375.1875.734375.351562 1.117187.484375.273438.113281.527344.257812.808594.34375.785156.246094 1.601563.378906 2.425782.390625h68.265624c.835938-.007813 1.667969-.140625 2.464844-.390625.277344-.101563.550782-.21875.8125-.351563.382813-.128906.757813-.289062 1.117188-.476562l12.195312-7.3125h74.238282c6.714843.371093 11.878906 6.082031 11.574218 12.796875zm-87.042968-31.988282 15.359374-46.082031 35.839844 15.359375zm185.910156-74.675781-42.667969 42.664063h-30.601563c0-9.425782-7.640624-17.066406-17.066406-17.066406h-23.628906l-19.730469-46.027344c-.730469-1.703125-1.996093-3.125-3.609375-4.042969l-31.835937-18.195313h53.699219c11.5625 11.375 30.113281 11.375 41.675781 0h31.097656zm0 0"/><path d="m119.464844 187.828125h-39.132813l2.5-2.5c3.234375-3.347656 3.1875-8.671875-.101562-11.960937-3.292969-3.292969-8.617188-3.339844-11.964844-.105469l-17.066406 17.066406c-2.4375 2.441406-3.167969 6.109375-1.847657 9.300781 1.320313 3.1875 4.429688 5.265625 7.882813 5.265625h59.730469c4.714844 0 8.535156-3.820312 8.535156-8.53125 0-4.714843-3.820312-8.535156-8.535156-8.535156zm0 0"/><path d="m429.167969 185.328125 2.5 2.5h-39.132813c-4.714844 0-8.535156 3.820313-8.535156 8.535156 0 4.710938 3.820312 8.53125 8.535156 8.53125h59.730469c1.121094-.003906 2.226563-.226562 3.261719-.65625 2.632812-1.089843 4.546875-3.425781 5.101562-6.21875.554688-2.796875-.320312-5.683593-2.335937-7.699219l-17.070313-17.066406c-3.347656-3.234375-8.667968-3.1875-11.960937.105469-3.289063 3.289063-3.335938 8.613281-.101563 11.960937zm0 0"/></svg>