<svg height="512pt" viewBox="0 0 512 512.10604" width="512pt" xmlns="http://www.w3.org/2000/svg"><path d="m187.785156 290.238281h136.535156v59.734375h-136.535156zm0 0" fill="#9e9e9e"/><path d="m187.785156 290.238281h115.203125v59.734375h-115.203125zm0 0" fill="#cfd8dc"/><path d="m435.253906 162.238281v51.199219c-.027344 9.414062-7.652344 17.039062-17.066406 17.070312h-81.835938c-2.238281.015626-4.378906.902344-5.972656 2.472657l-20.652344 20.652343c-1.59375 1.566407-3.734374 2.457032-5.972656 2.472657h-95.402344c-2.238281-.015625-4.378906-.90625-5.972656-2.472657l-20.652344-20.652343c-1.59375-1.570313-3.734374-2.457031-5.972656-2.472657h-81.835937c-9.414063-.03125-17.035157-7.65625-17.066407-17.070312v-51.199219c0-4.710937 3.820313-8.53125 8.535157-8.53125h341.332031c4.714844 0 8.535156 3.820313 8.535156 8.53125zm0 0" fill="#c52828"/><path d="m409.652344 230.507812-8.53125 51.199219c0 4.710938-3.820313 8.53125-8.535156 8.53125h-21.332032c4.710938 0 8.53125-3.820312 8.53125-8.53125l8.535156-51.199219zm0 0" fill="#37474f"/><path d="m388.320312 230.507812-8.535156 51.199219c0 4.710938-3.820312 8.53125-8.53125 8.53125h-251.734375c-4.710937 0-8.53125-3.820312-8.53125-8.53125l-8.535156-51.199219h73.300781c2.238282.015626 4.378906.902344 5.972656 2.472657l20.652344 20.652343c1.59375 1.566407 3.734375 2.457032 5.972656 2.472657h95.402344c2.238282-.015625 4.378906-.90625 5.972656-2.472657l20.652344-20.652343c1.59375-1.570313 3.734375-2.457031 5.972656-2.472657zm0 0" fill="#607d8b"/><path d="m145.121094 145.171875c.015625 2.914063-.503906 5.808594-1.539063 8.535156h-48.125c-1.035156-2.726562-1.554687-5.621093-1.539062-8.535156-.019531-10 5.824219-19.082031 14.933593-23.210937 3.335938-1.582032 6.980469-2.398438 10.667969-2.386719 14.136719 0 25.601563 11.460937 25.601563 25.597656zm0 0" fill="#4e342e"/><path d="m123.785156 145.171875c.019532 2.914063-.5 5.808594-1.535156 8.535156h-26.792969c-1.035156-2.726562-1.554687-5.621093-1.539062-8.535156-.019531-10 5.824219-19.082031 14.933593-23.210937 9.113282 4.128906 14.957032 13.210937 14.933594 23.210937zm0 0" fill="#795548"/><path d="m136.585938 25.707031c0 9.425781-7.640626 17.066407-17.066407 17.066407s-17.066406-7.640626-17.066406-17.066407 7.640625-17.066406 17.066406-17.066406 17.066407 7.640625 17.066407 17.066406zm0 0" fill="#f44335"/><path d="m324.320312 136.640625v-34.132813h-136.535156v34.132813zm0 0" fill="#4e342e"/><path d="m51.253906 221.972656c0 9.425782-7.640625 17.066406-17.066406 17.066406s-17.066406-7.640624-17.066406-17.066406c0-9.425781 7.640625-17.066406 17.066406-17.066406s17.066406 7.640625 17.066406 17.066406zm0 0" fill="#f44335"/><path d="m59.785156 307.304688v.257812c-.535156 10.703125-9.507812 19.03125-20.222656 18.773438h-10.753906c-1 .003906-2-.082032-2.984375-.257813-9.800781-1.199219-17.183594-9.496094-17.238281-19.371094.03125-1.285156.144531-2.566406.339843-3.839843 1.609375-9.078126 7.960938-16.601563 16.640625-19.710938 1.226563-.429688 2.480469-.773438 3.757813-1.023438 7.507812-1.453124 15.273437.527344 21.167969 5.398438 5.898437 4.871094 9.304687 12.125 9.292968 19.773438zm0 0" fill="#c52828"/><path d="m494.988281 221.972656c0 9.425782-7.644531 17.066406-17.070312 17.066406s-17.066407-7.640624-17.066407-17.066406c0-9.425781 7.640626-17.066406 17.066407-17.066406s17.070312 7.640625 17.070312 17.066406zm0 0" fill="#f44335"/><path d="m503.519531 307.304688v.257812c-.539062 10.703125-9.507812 19.03125-20.222656 18.773438h-10.753906c-1 .003906-2-.082032-2.984375-.257813-9.800782-1.199219-17.183594-9.496094-17.238282-19.371094.027344-1.285156.140626-2.566406.339844-3.839843 1.609375-9.078126 7.960938-16.601563 16.640625-19.710938 1.226563-.429688 2.480469-.773438 3.753907-1.023438 7.511718-1.453124 15.277343.527344 21.171874 5.398438 5.894532 4.871094 9.304688 12.125 9.292969 19.773438zm0 0" fill="#c52828"/><path d="m42.71875 307.304688v.257812c-.441406 9.433594-7.542969 17.214844-16.894531 18.515625-9.800781-1.199219-17.183594-9.496094-17.238281-19.371094.03125-1.285156.144531-2.566406.339843-3.839843 1.609375-9.078126 7.960938-16.601563 16.640625-19.710938 10.269532 3.589844 17.144532 13.273438 17.152344 24.148438zm0 0" fill="#f44335"/><path d="m486.453125 307.304688v.257812c-.445313 9.433594-7.542969 17.214844-16.894531 18.515625-9.800782-1.199219-17.183594-9.496094-17.238282-19.371094.027344-1.285156.140626-2.566406.339844-3.839843 1.609375-9.078126 7.960938-16.601563 16.640625-19.710938 10.265625 3.589844 17.144531 13.273438 17.152344 24.148438zm0 0" fill="#f44335"/><path d="m503.519531 443.839844c0 15.84375-6.292969 31.035156-17.496093 42.238281-11.203126 11.203125-26.394532 17.496094-42.238282 17.496094h-375.464844c-32.992187 0-59.734374-26.746094-59.734374-59.734375 0-32.992188 26.742187-59.734375 59.734374-59.734375h375.464844c15.84375 0 31.035156 6.292969 42.238282 17.496093 11.203124 11.203126 17.496093 26.394532 17.496093 42.238282zm0 0" fill="#37474f"/><path d="m477.917969 443.839844c0 15.84375-6.292969 31.035156-17.492188 42.238281-11.203125 11.203125-26.398437 17.496094-42.238281 17.496094h-354.132812c-32.992188 0-59.734376-26.746094-59.734376-59.734375 0-32.992188 26.742188-59.734375 59.734376-59.734375h354.132812c32.988281 0 59.730469 26.742187 59.730469 59.734375zm0 0" fill="#607d8b"/><path d="m153.652344 349.972656h204.800781c14.136719 0 25.601563 11.460938 25.601563 25.601563v8.53125h-256v-8.53125c0-14.140625 11.460937-25.601563 25.597656-25.601563zm0 0" fill="#37474f"/><path d="m332.851562 145.171875v42.667969l-3.925781 3.925781c-19.3125 19.351563-45.53125 30.226563-72.871093 30.226563-27.34375 0-53.5625-10.875-72.875-30.226563l-3.925782-3.925781v-42.667969c0-4.710937 3.820313-8.53125 8.53125-8.53125h136.535156c4.710938 0 8.53125 3.820313 8.53125 8.53125zm0 0" fill="#c52828"/><path d="m311.519531 136.640625v42.664063l-3.925781 3.925781c-26.222656 26.285156-64.578125 36.394531-100.351562 26.453125-8.859376-4.753906-16.96875-10.792969-24.0625-17.917969l-3.925782-3.925781v-42.667969c0-4.710937 3.820313-8.53125 8.53125-8.53125zm0 0" fill="#f44335"/><path d="m332.851562 85.4375v17.070312h-153.597656v-17.070312c.011719-38.285156 28.21875-70.710938 66.132813-76.03125 3.53125-.511719 7.097656-.769531 10.667969-.765625 42.386718.066406 76.734374 34.410156 76.796874 76.796875zm0 0" fill="#c52828"/><path d="m311.519531 85.4375v17.070312h-132.265625v-17.070312c.011719-38.285156 28.21875-70.710938 66.132813-76.03125 37.894531 5.355469 66.082031 37.761719 66.132812 76.03125zm0 0" fill="#f44335"/><path d="m273.121094 59.839844c0 9.425781-7.640625 17.066406-17.066406 17.066406-9.425782 0-17.066407-7.640625-17.066407-17.066406 0-9.425782 7.640625-17.066406 17.066407-17.066406 9.425781 0 17.066406 7.640624 17.066406 17.066406zm0 0" fill="#fec108"/><g fill="#9e9e9e"><path d="m93.917969 443.839844c0 14.136718-11.460938 25.597656-25.597657 25.597656-2.914062.019531-5.808593-.5-8.535156-1.535156-10.222656-3.582032-17.066406-13.230469-17.066406-24.0625 0-10.832032 6.84375-20.484375 17.066406-24.066406 2.726563-1.03125 5.621094-1.550782 8.535156-1.535157 14.136719 0 25.597657 11.460938 25.597657 25.601563zm0 0"/><path d="m469.386719 443.839844c0 14.136718-11.460938 25.597656-25.601563 25.597656-2.914062.019531-5.804687-.5-8.53125-1.535156-10.222656-3.582032-17.070312-13.230469-17.070312-24.0625 0-10.832032 6.847656-20.484375 17.070312-24.066406 2.726563-1.03125 5.617188-1.550782 8.53125-1.535157 14.140625 0 25.601563 11.460938 25.601563 25.601563zm0 0"/><path d="m179.253906 443.839844c0 9.425781-7.640625 17.066406-17.066406 17.066406s-17.066406-7.640625-17.066406-17.066406c0-9.425782 7.640625-17.066406 17.066406-17.066406 9.414062.027343 17.039062 7.652343 17.066406 17.066406zm0 0"/><path d="m366.988281 443.839844c0 9.425781-7.644531 17.066406-17.070312 17.066406s-17.066407-7.640625-17.066407-17.066406c0-9.425782 7.640626-17.066406 17.066407-17.066406 9.414062.027343 17.039062 7.652343 17.070312 17.066406zm0 0"/><path d="m281.652344 443.839844c0 14.136718-11.460938 25.597656-25.597656 25.597656-2.917969.019531-5.808594-.5-8.535157-1.535156-10.222656-3.582032-17.066406-13.230469-17.066406-24.0625 0-10.832032 6.84375-20.484375 17.066406-24.066406 2.726563-1.03125 5.617188-1.550782 8.535157-1.535157 14.136718 0 25.597656 11.460938 25.597656 25.601563zm0 0"/></g><path d="m76.851562 443.839844c0-13.289063-7.640624-24.066406-17.066406-24.066406-9.425781 0-17.066406 10.777343-17.066406 24.066406 0 13.289062 7.640625 24.0625 17.066406 24.0625 9.425782 0 17.066406-10.773438 17.066406-24.0625zm0 0" fill="#cfd8dc"/><path d="m452.320312 443.839844c0-13.289063-7.640624-24.066406-17.066406-24.066406-9.425781 0-17.066406 10.777343-17.066406 24.066406 0 13.289062 7.640625 24.0625 17.066406 24.0625 9.425782 0 17.066406-10.773438 17.066406-24.0625zm0 0" fill="#cfd8dc"/><path d="m162.1875 443.839844c-.007812 6.089844-3.257812 11.714844-8.535156 14.761718-5.261719-3.050781-8.503906-8.675781-8.503906-14.761718 0-6.085938 3.242187-11.710938 8.503906-14.761719 5.277344 3.042969 8.527344 8.671875 8.535156 14.761719zm0 0" fill="#cfd8dc"/><path d="m349.917969 443.839844c-.003907 6.089844-3.257813 11.714844-8.53125 14.761718-5.265625-3.050781-8.503907-8.675781-8.503907-14.761718 0-6.085938 3.238282-11.710938 8.503907-14.761719 5.273437 3.042969 8.527343 8.671875 8.53125 14.761719zm0 0" fill="#cfd8dc"/><path d="m264.585938 443.839844c0-13.289063-7.640626-24.066406-17.066407-24.066406s-17.066406 10.777343-17.066406 24.066406c0 13.289062 7.640625 24.0625 17.066406 24.0625s17.066407-10.773438 17.066407-24.0625zm0 0" fill="#cfd8dc"/><path d="m486.222656 274.316406c.101563-.375.179688-.757812.230469-1.144531v-27.167969c9.515625-3.316406 16.191406-11.921875 17.035156-21.964844.84375-10.042968-4.300781-19.640624-13.128906-24.5-8.828125-4.859374-19.691406-4.066406-27.722656 2.023438l-18.851563-12.570312v-26.753907c0-9.425781-7.640625-17.066406-17.066406-17.066406h-85.332031c-.019531-6.070313-3.269531-11.667969-8.535157-14.695313v-19.4375c4.714844 0 8.535157-3.820312 8.535157-8.53125v-17.070312c0-47.125-38.207031-85.332031-85.332031-85.332031-47.128907 0-85.335938 38.207031-85.335938 85.332031v17.070312c0 4.710938 3.820312 8.53125 8.535156 8.53125v19.4375c-5.265625 3.027344-8.515625 8.625-8.535156 14.695313h-17.066406c-.058594-15.515625-10.574219-29.042969-25.597656-32.921875v-62.515625c11.753906-4.15625 18.804687-16.175781 16.695312-28.464844-2.105469-12.289062-12.761719-21.269531-25.230469-21.269531s-23.121093 8.980469-25.230469 21.269531c-2.109374 12.289063 4.941407 24.308594 16.699219 28.464844v62.515625c-15.027343 3.878906-25.542969 17.40625-25.601562 32.921875-9.425781 0-17.066407 7.640625-17.066407 17.066406v26.753907l-18.851562 12.570312c-4.390625-3.351562-9.757812-5.175781-15.28125-5.191406-12.453125-.023438-23.109375 8.941406-25.21875 21.214844-2.113281 12.273437 4.9375 24.277343 16.683594 28.417968v27.167969c.050781.386719.128906.769531.230468 1.144531-15.140624 3.796875-25.777343 17.378906-25.8281245 32.988282.0273437 8.378906 3.1757815 16.441406 8.8320315 22.625-.1875.980468-.289063 1.976562-.300781 2.976562v17.066406c0 4.710938 3.820312 8.535156 8.535156 8.535156 4.710937 0 8.53125-3.824218 8.53125-8.535156v-17.066406h17.066406v17.066406c0 4.710938 3.820312 8.535156 8.535156 8.535156 4.710938 0 8.53125-3.824218 8.53125-8.535156v-17.066406c-.011718-1-.109375-1.996094-.296875-2.976562 5.652344-6.183594 8.800781-14.246094 8.832031-22.625-.054687-15.609376-10.691406-29.191407-25.832031-32.988282.101563-.375.179688-.757812.230469-1.144531v-27.167969c10.191406-3.605468 17.023438-13.222656 17.066406-24.03125-.023437-2.097656-.3125-4.183594-.851562-6.210937l9.386718-6.257813v3.933594c0 14.140625 11.460938 25.601562 25.597657 25.601562h1.308593l7.226563 43.519532c.453125 9.089844 7.964844 16.226562 17.066406 16.214844h59.734375v42.664062h-25.601562c-18.851563 0-34.132813 15.285156-34.132813 34.136719h-51.199219c-37.703124 0-68.2656245 30.5625-68.2656245 68.265625s30.5625005 68.265625 68.2656245 68.265625h375.464844c37.703125 0 68.269532-30.5625 68.269532-68.265625s-30.566407-68.265625-68.269532-68.265625h-51.199218c0-18.851563-15.28125-34.136719-34.132813-34.136719h-25.601563v-42.664062h59.734376c9.101562.011718 16.613281-7.125 17.066406-16.214844l7.246094-43.519532h1.289062c14.136719 0 25.597656-11.460937 25.597656-25.601562v-3.933594l9.386719 6.257813c-.539063 2.027343-.828125 4.113281-.851563 6.210937.042969 10.808594 6.875 20.425782 17.066407 24.03125v27.167969c.050781.386719.128906.769531.230469 1.144531-15.140626 3.796875-25.777344 17.378906-25.832032 32.988282.03125 8.378906 3.179688 16.441406 8.832032 22.625-.183594.980468-.285157 1.976562-.296876 2.976562v17.066406c0 4.710938 3.820313 8.535156 8.53125 8.535156 4.714844 0 8.535157-3.824218 8.535157-8.535156v-17.066406h17.066406v17.066406c0 4.710938 3.820313 8.535156 8.535156 8.535156 4.710938 0 8.53125-3.824218 8.53125-8.535156v-17.066406c-.011719-1-.113281-1.996094-.296875-2.976562 5.652344-6.183594 8.800782-14.246094 8.832032-22.625-.054688-15.609376-10.691407-29.191407-25.832032-32.988282zm-434.96875 32.988282c0 3.410156-1.03125 6.738281-2.960937 9.550781-1.789063-.652344-3.671875-.996094-5.574219-1.015625h-17.066406c-1.902344.019531-3.785156.363281-5.570313 1.015625-1.929687-2.8125-2.964843-6.140625-2.960937-9.550781 0-9.425782 7.640625-17.066407 17.066406-17.066407s17.066406 7.640625 17.066406 17.066407zm-17.066406-76.796876c-4.714844 0-8.535156-3.824218-8.535156-8.535156 0-4.710937 3.820312-8.535156 8.535156-8.535156 4.710938 0 8.53125 3.824219 8.53125 8.535156 0 4.710938-3.820312 8.535156-8.53125 8.535156zm153.597656-85.335937h136.535156v39.132813l-1.46875 1.46875c-36.894531 36.886718-96.703124 36.886718-133.597656 0l-1.46875-1.46875zm93.867188-34.132813v17.066407h-17.066406v-17.066407zm-34.132813 17.066407h-17.066406v-17.066407h17.066406zm68.265625 0h-17.066406v-17.066407h17.066406zm-128-42.667969c0-37.699219 30.566406-68.265625 68.269532-68.265625 37.699218 0 68.265624 30.566406 68.265624 68.265625v8.535156h-136.535156zm25.601563 25.601562v17.066407h-17.066407v-17.066407zm-93.867188-93.867187c4.714844 0 8.535157 3.820313 8.535157 8.535156 0 4.710938-3.820313 8.53125-8.535157 8.53125-4.710937 0-8.53125-3.820312-8.53125-8.53125 0-4.714843 3.820313-8.535156 8.53125-8.535156zm0 110.933594c9.425781 0 17.066407 7.640625 17.066407 17.066406h-34.132813c0-9.425781 7.640625-17.066406 17.066406-17.066406zm76.800781 170.667969h34.132813v42.664062h-34.132813zm68.265626 42.664062h-17.066407v-42.664062h17.066407zm179.199218 51.203125c28.277344 0 51.203125 22.921875 51.203125 51.199219s-22.925781 51.199218-51.203125 51.199218h-375.464844c-28.277343 0-51.199218-22.921874-51.199218-51.199218s22.921875-51.199219 51.199218-51.199219zm-68.265625-17.066406h-238.933593c0-9.425781 7.640624-17.066407 17.066406-17.066407h204.800781c9.425781 0 17.066406 7.640626 17.066406 17.066407zm-59.734375-34.136719h-34.132812v-42.664062h34.132812zm76.921875-61.140625c-.078125.464844-.117187.9375-.121093 1.410156h-273.066407c0-.472656-.042969-.945312-.121093-1.410156l-6.867188-41.257813h63.144531l20.644531 20.601563c3.203126 3.191406 7.542969 4.988281 12.066407 5h95.332031c4.527344-.011719 8.863281-1.808594 12.066406-5l20.601563-20.601563h63.1875zm34.011719-66.859375c0 4.714844-3.820312 8.535156-8.53125 8.535156h-85.335938c-2.671874.035156-5.167968 1.339844-6.722656 3.515625-.636718.453125-1.242187.949219-1.808594 1.484375l-20.601562 20.601563h-95.332031l-20.601563-20.601563c-.566406-.535156-1.171875-1.03125-1.808594-1.484375-1.550781-2.175781-4.050781-3.480469-6.722656-3.515625h-85.335937c-4.710938 0-8.53125-3.820312-8.53125-8.535156v-51.199219h85.332031v25.601563c0 2.261718.902344 4.433594 2.5 6.03125l3.96875 3.96875c43.558594 43.550781 114.171875 43.550781 157.730469 0l3.96875-3.96875c1.601562-1.597656 2.5-3.769532 2.5-6.03125v-25.601563h85.332031zm59.734375 8.535156c0 4.710938-3.820313 8.535156-8.535156 8.535156-4.710938 0-8.53125-3.824218-8.53125-8.535156 0-4.710937 3.820312-8.535156 8.53125-8.535156 4.714843 0 8.535156 3.824219 8.535156 8.535156zm-17.066406 93.867188c-1.902344.019531-3.785157.363281-5.574219 1.015625-1.929688-2.8125-2.960938-6.140625-2.960938-9.550781 0-9.425782 7.640626-17.066407 17.066407-17.066407s17.070312 7.640625 17.070312 17.066407c0 3.410156-1.035156 6.738281-2.964843 9.550781-1.785157-.652344-3.667969-.996094-5.570313-1.015625zm0 0"/><path d="m373.949219 435.304688c-3.5625-10.222657-13.203125-17.074219-24.03125-17.074219-10.824219 0-20.464844 6.851562-24.027344 17.074219h-36.914063c-3.832031-15.054688-17.390624-25.589844-32.921874-25.589844-15.535157 0-29.089844 10.535156-32.921876 25.589844h-36.917968c-3.558594-10.222657-13.203125-17.074219-24.027344-17.074219-10.828125 0-20.46875 6.851562-24.03125 17.074219h-36.914062c-4.296876-16.640626-20.300782-27.492188-37.351563-25.328126-17.050781 2.167969-29.832031 16.675782-29.832031 33.863282s12.78125 31.695312 29.832031 33.859375c17.050781 2.167969 33.054687-8.683594 37.351563-25.328125h36.914062c3.5625 10.226562 13.203125 17.078125 24.03125 17.078125 10.824219 0 20.46875-6.851563 24.027344-17.078125h36.917968c3.832032 15.054687 17.386719 25.59375 32.921876 25.59375 15.53125 0 29.089843-10.539063 32.921874-25.59375h36.914063c3.5625 10.226562 13.203125 17.078125 24.027344 17.078125 10.828125 0 20.46875-6.851563 24.03125-17.078125h36.914062c4.296875 16.644531 20.300781 27.496094 37.351563 25.328125 17.050781-2.164063 29.832031-16.671875 29.832031-33.859375s-12.78125-31.695313-29.832031-33.863282c-17.050782-2.164062-33.054688 8.6875-37.351563 25.328126zm-305.628907 25.601562c-9.425781 0-17.066406-7.640625-17.066406-17.066406 0-9.425782 7.640625-17.066406 17.066406-17.066406 9.425782 0 17.066407 7.640624 17.066407 17.066406 0 9.425781-7.640625 17.066406-17.066407 17.066406zm93.867188-8.535156c-4.714844 0-8.535156-3.820313-8.535156-8.53125 0-4.714844 3.820312-8.535156 8.535156-8.535156 4.710938 0 8.53125 3.820312 8.53125 8.535156 0 4.710937-3.820312 8.53125-8.53125 8.53125zm93.867188 8.535156c-9.425782 0-17.066407-7.640625-17.066407-17.066406 0-9.425782 7.640625-17.066406 17.066407-17.066406 9.425781 0 17.066406 7.640624 17.066406 17.066406 0 9.425781-7.640625 17.066406-17.066406 17.066406zm93.863281-8.535156c-4.710938 0-8.53125-3.820313-8.53125-8.53125 0-4.714844 3.820312-8.535156 8.53125-8.535156 4.714843 0 8.535156 3.820312 8.535156 8.535156 0 4.710937-3.820313 8.53125-8.535156 8.53125zm93.867187-25.597656c9.425782 0 17.066406 7.640624 17.066406 17.066406 0 9.425781-7.640624 17.066406-17.066406 17.066406-9.425781 0-17.066406-7.640625-17.066406-17.066406 0-9.425782 7.640625-17.066406 17.066406-17.066406zm0 0"/><path d="m145.121094 179.304688h-25.601563c-4.710937 0-8.53125 3.820312-8.53125 8.535156 0 4.710937 3.820313 8.53125 8.53125 8.53125h25.601563c4.710937 0 8.53125-3.820313 8.53125-8.53125 0-4.714844-3.820313-8.535156-8.53125-8.535156zm0 0"/><path d="m366.988281 196.371094h25.597657c4.714843 0 8.535156-3.820313 8.535156-8.53125 0-4.714844-3.820313-8.535156-8.535156-8.535156h-25.597657c-4.714843 0-8.535156 3.820312-8.535156 8.535156 0 4.710937 3.820313 8.53125 8.535156 8.53125zm0 0"/><path d="m281.652344 59.839844c0-14.140625-11.460938-25.601563-25.597656-25.601563-14.140626 0-25.601563 11.460938-25.601563 25.601563 0 14.136718 11.460937 25.597656 25.601563 25.597656 14.136718 0 25.597656-11.460938 25.597656-25.597656zm-34.132813 0c0-4.714844 3.820313-8.535156 8.535157-8.535156 4.710937 0 8.53125 3.820312 8.53125 8.535156 0 4.710937-3.820313 8.53125-8.53125 8.53125-4.714844 0-8.535157-3.820313-8.535157-8.53125zm0 0"/></svg>