<svg height="512pt" viewBox="-15 0 512 512" width="512pt" xmlns="http://www.w3.org/2000/svg"><path d="m266.878906 68.265625-8.535156 17.066406h-34.132812l-8.535157-17.066406zm0 0" fill="#4c8056"/><path d="m326.609375 68.265625h-170.664063c0-32.988281 26.742188-59.730469 59.730469-59.730469h51.203125c32.988282 0 59.730469 26.742188 59.730469 59.730469zm0 0" fill="#2e7d32"/><path d="m305.277344 68.265625h-42.667969l-7.199219 14.667969-28 2.398437-6.398437-17.066406h-65.066407c0-32.988281 26.742188-59.730469 59.730469-59.730469h29.867188c32.992187 0 59.734375 26.742188 59.734375 59.730469zm0 0" fill="#4caf50"/><path d="m164.820312 350.890625-3.585937-9.386719c-2.917969-7.683594.941406-16.273437 8.617187-19.199218l4.011719-1.535157c3.710938-1.414062 7.832031-1.292969 11.453125.34375 3.617188 1.632813 6.4375 4.640625 7.832032 8.359375l15.601562 41.726563zm0 0" fill="#607d8b"/><path d="m272.210938 373.871094 17.195312-44.375c2.964844-7.6875 11.558594-11.566406 19.285156-8.703125l4.007813 1.535156c7.679687 2.925781 11.535156 11.519531 8.621093 19.203125l-3.585937 9.386719zm0 0" fill="#607d8b"/><path d="m276.007812 377.515625-20.308593 11.605469c-3.863281 2.238281-8.25 3.414062-12.714844 3.414062h-3.414063c-4.464843 0-8.851562-1.175781-12.714843-3.414062l-20.308594-11.605469-11.007813-19.117187h91.476563zm0 0" fill="#4fba6f"/><path d="m198.609375 264.535156h85.335937v93.863282h-85.335937zm0 0" fill="#2e7d32"/><path d="m198.609375 264.535156h68.269531v93.863282h-68.269531zm0 0" fill="#4caf50"/><path d="m377.128906 213.332031-33.453125 59.734375h-25.597656l-8.535156-8.53125h-136.53125l-8.535157 8.53125h-25.597656l-33.453125-59.734375c-.414062-2.558593-.269531-5.179687.425781-7.679687l.34375-2.046875 9.8125-54.359375c2.355469-3.246094 5.8125-5.523438 9.726563-6.398438l33.453125-4.691406h164.179688l33.453124 4.691406c3.914063.875 7.371094 3.152344 9.726563 6.398438l9.8125 54.273437v.085938l.339844 2.046875c.699219 2.5.84375 5.121094.429687 7.679687zm0 0" fill="#558b30"/><path d="m355.792969 213.332031-33.449219 59.734375h-25.601562l-8.53125-8.53125h-136.535157l-8.53125 8.53125h-4.265625l-33.453125-59.734375c-.414062-2.558593-.269531-5.179687.425781-7.679687l.34375-2.046875 9.8125-54.359375c2.355469-3.246094 5.8125-5.523438 9.726563-6.398438l33.453125-4.691406h142.847656l33.449219 4.691406c3.914063.875 7.375 3.152344 9.730469 6.398438l9.8125 54.273437v.085938l.339844 2.046875c.695312 2.5.84375 5.121094.425781 7.679687zm0 0" fill="#8bc34a"/><path d="m318.078125 119.464844h-17.066406l-17.066407 25.601562h-25.601562l-8.535156-8.53125h-17.066406l-8.53125 8.53125h-25.601563l-11.347656-17.066406-5.71875-8.535156h-17.066407c-1.667968-5.558594-2.753906-11.277344-3.242187-17.066406-1.347656-11.476563-.242187-23.113282 3.242187-34.132813h51.199219l8.535157 17.066406h34.132812l8.535156-17.066406h51.199219c4.949219 16.707031 4.949219 34.492187 0 51.199219zm0 0" fill="#f57c00"/><path d="m301.011719 102.398438h-17.066407l-17.066406 25.601562h-25.601562l-8.535156-8.535156h-17.066407l-8.53125 8.535156h-25.601562l-5.714844-8.535156-11.351563-17.066406h-3.242187c-1.347656-11.476563-.242187-23.113282 3.242187-34.132813h51.199219l8.535157 17.066406h34.132812l8.535156-17.066406h37.542969c.992187 11.492187-.164063 23.066406-3.410156 34.132813zm0 0" fill="#ffb301"/><path d="m94.929688 210.261719-7.253907 79.871093c0 9.425782-7.640625 17.066407-17.066406 17.066407s-17.066406-7.640625-17.066406-17.066407l-7.933594-87.894531-.429687-4.351562zm0 0" fill="#558b30"/><path d="m87.675781 349.867188c0 9.425781-7.640625 17.066406-17.066406 17.066406s-17.066406-7.640625-17.066406-17.066406c0-9.425782 7.640625-17.066407 17.066406-17.066407s17.066406 7.640625 17.066406 17.066407zm0 0" fill="#8bc34a"/><path d="m96.210938 418.132812v.257813c-.539063 10.703125-9.507813 19.03125-20.222657 18.773437h-10.753906c-1 0-2-.082031-2.988281-.257812-9.796875-1.203125-17.179688-9.496094-17.234375-19.371094.027343-1.285156.140625-2.566406.339843-3.839844 1.609376-9.078124 7.960938-16.601562 16.640626-19.710937 1.226562-.429687 2.480468-.773437 3.753906-1.023437 7.507812-1.453126 15.273437.527343 21.171875 5.398437 5.894531 4.871094 9.304687 12.125 9.292969 19.773437zm0 0" fill="#558b30"/><path d="m437.542969 418.132812v.257813c-.539063 10.703125-9.507813 19.03125-20.222657 18.773437h-10.753906c-1 0-2-.082031-2.984375-.257812-9.800781-1.203125-17.183593-9.496094-17.238281-19.371094.027344-1.285156.144531-2.566406.339844-3.839844 1.609375-9.078124 7.960937-16.601562 16.640625-19.710937 1.226562-.429687 2.480469-.773437 3.753906-1.023437 7.511719-1.453126 15.277344.527343 21.171875 5.398437 5.898438 4.871094 9.304688 12.125 9.292969 19.773437zm0 0" fill="#558b30"/><path d="m79.144531 418.132812v.257813c-.445312 9.433594-7.542969 17.210937-16.898437 18.515625-9.796875-1.203125-17.179688-9.496094-17.234375-19.371094.027343-1.285156.140625-2.566406.339843-3.839844 1.609376-9.078124 7.960938-16.601562 16.640626-19.710937 10.265624 3.589844 17.144531 13.273437 17.152343 24.148437zm0 0" fill="#8bc34a"/><path d="m420.476562 418.132812v.257813c-.441406 9.433594-7.542968 17.210937-16.894531 18.515625-9.800781-1.203125-17.183593-9.496094-17.238281-19.371094.027344-1.285156.144531-2.566406.339844-3.839844 1.609375-9.078124 7.960937-16.601562 16.640625-19.710937 10.269531 3.589844 17.144531 13.273437 17.152343 24.148437zm0 0" fill="#8bc34a"/><path d="m437.375 197.886719-8.363281 92.246093c0 9.425782-7.640625 17.066407-17.066407 17.066407-9.425781 0-17.066406-7.640625-17.066406-17.066407l-7.253906-79.871093 32.253906-8.023438zm0 0" fill="#558b30"/><path d="m77.863281 210.261719-7.253906 79.871093c-.003906 6.089844-3.257813 11.71875-8.53125 14.761719-5.277344-3.042969-8.527344-8.671875-8.535156-14.761719l-7.933594-87.894531zm0 0" fill="#8bc34a"/><path d="m419.878906 202.238281-7.933594 87.894531c-.007812 6.089844-3.261718 11.71875-8.535156 14.761719-5.273437-3.042969-8.527344-8.671875-8.53125-14.761719l-7.253906-79.871093zm0 0" fill="#8bc34a"/><path d="m429.011719 349.867188c0 9.425781-7.640625 17.066406-17.066407 17.066406-9.425781 0-17.066406-7.640625-17.066406-17.066406 0-9.425782 7.640625-17.066407 17.066406-17.066407 9.425782 0 17.066407 7.640625 17.066407 17.066407zm0 0" fill="#8bc34a"/><path d="m326.609375 119.464844c-.027344 6.367187-1.125 12.683594-3.242187 18.691406-.960938 2.742188-2.101563 5.421875-3.414063 8.019531h-.085937c-12.796876 24.40625-41.8125 50.089844-70.058594 50.089844h-17.066406c-.710938.015625-1.421876-.011719-2.132813-.085937 27.5625-1.191407 55.46875-26.195313 67.925781-50.003907h.085938c1.3125-2.597656 2.453125-5.277343 3.414062-8.019531 2.117188-6.007812 3.214844-12.324219 3.242188-18.691406zm0 0" fill="#2e7d32"/><path d="m305.277344 119.464844c-.027344 6.367187-1.125 12.683594-3.242188 18.691406-.960937 2.742188-2.101562 5.421875-3.414062 8.019531h-.085938c-12.457031 23.808594-40.363281 48.8125-67.925781 50.003907-27.5625-1.191407-55.464844-26.195313-68.007813-50.003907-1.3125-2.597656-2.453124-5.277343-3.414062-8.019531-2.117188-6.007812-3.214844-12.324219-3.242188-18.691406h25.597657l17.066406 25.601562h4.269531l8.53125-8.53125h17.066406l2.132813 2.132813 2.132813-2.132813h17.066406l8.535156 8.53125h25.601562l17.066407-25.601562zm0 0" fill="#4caf50"/><path d="m228.476562 494.933594c0 4.710937-3.820312 8.53125-8.53125 8.53125h-85.335937c-4.710937 0-8.53125-3.820313-8.53125-8.53125-.785156-11.757813 4.992187-22.988282 15.019531-29.183594 7.816406-4.425781 16.546875-6.992188 25.511719-7.511719 3.414063-.253906 7-.425781 10.667969-.425781 12.554687-.664062 25.058594 2.078125 36.179687 7.9375 10.027344 6.195312 15.804688 17.425781 15.019531 29.183594zm0 0" fill="#2e7d32"/><path d="m160.210938 413.523438h34.132812v45.570312h-34.132812zm0 0" fill="#8bc34a"/><path d="m211.410156 384c0 18.851562-15.28125 34.132812-34.132812 34.132812-3.625.007813-7.226563-.566406-10.667969-1.707031-14.007813-4.601562-23.472656-17.679687-23.472656-32.425781s9.464843-27.824219 23.472656-32.425781c3.441406-1.140625 7.042969-1.714844 10.667969-1.707031 18.851562 0 34.132812 15.28125 34.132812 34.132812zm0 0" fill="#2e7d32"/><path d="m356.476562 494.933594c0 4.710937-3.820312 8.53125-8.53125 8.53125h-85.335937c-4.710937 0-8.53125-3.820313-8.53125-8.53125-.785156-11.757813 4.992187-22.988282 15.019531-29.183594 9.125-5.023438 19.359375-7.695312 29.78125-7.765625 2.132813-.085937 4.265625-.171875 6.398438-.171875 12.554687-.664062 25.058594 2.078125 36.179687 7.9375 10.027344 6.195312 15.804688 17.425781 15.019531 29.183594zm0 0" fill="#2e7d32"/><path d="m207.144531 494.933594c0 4.710937-3.820312 8.53125-8.535156 8.53125h-64c-4.710937 0-8.53125-3.820313-8.53125-8.53125-.785156-11.757813 4.992187-22.988282 15.019531-29.183594 7.816406-4.425781 16.546875-6.992188 25.511719-7.511719 8.96875.519531 17.699219 3.085938 25.515625 7.511719 10.023438 6.195312 15.804688 17.425781 15.019531 29.183594zm0 0" fill="#4caf50"/><path d="m343.675781 494.933594c0 4.710937-3.820312 8.53125-8.53125 8.53125h-72.535156c-4.710937 0-8.53125-3.820313-8.53125-8.53125-.785156-11.757813 4.992187-22.988282 15.019531-29.183594 18.503906-10.355469 41.054688-10.355469 59.5625 0 10.023438 6.195312 15.800782 17.425781 15.015625 29.183594zm0 0" fill="#4caf50"/><path d="m288.210938 413.523438h34.132812v45.570312h-34.132812zm0 0" fill="#8bc34a"/><path d="m339.410156 384c0 18.851562-15.28125 34.132812-34.132812 34.132812-2.148438.019532-4.292969-.179687-6.398438-.597656-16.113281-3.054687-27.777344-17.136718-27.777344-33.535156s11.664063-30.480469 27.777344-33.535156c2.105469-.417969 4.25-.617188 6.398438-.597656 18.851562 0 34.132812 15.28125 34.132812 34.132812zm0 0" fill="#2e7d32"/><path d="m190.078125 384c0-17.910156-10.507813-32.425781-23.46875-32.425781s-23.464844 14.515625-23.464844 32.425781 10.503907 32.425781 23.464844 32.425781 23.46875-14.515625 23.46875-32.425781zm0 0" fill="#4caf50"/><path d="m326.609375 384c0-18.519531-12.414063-33.535156-27.730469-33.535156-15.320312 0-27.734375 15.015625-27.734375 33.535156s12.414063 33.535156 27.734375 33.535156c15.316406 0 27.730469-15.015625 27.730469-33.535156zm0 0" fill="#4caf50"/><path d="m224.210938 264.535156h34.132812v34.132813c0 9.425781-7.640625 17.066406-17.066406 17.066406-9.425782 0-17.066406-7.640625-17.066406-17.066406zm0 0" fill="#cfd8dc"/><g fill="#2e7d32"><path d="m109.011719 140.203125c8.882812 8.710937 13.523437 20.863281 12.703125 33.277344-.820313 12.414062-7.019532 23.855469-16.972656 31.320312-15.167969 11.378907-36.027344 11.378907-51.199219 0-2.785157-2.105469-5.308594-4.542969-7.507813-7.253906zm0 0"/><path d="m113.277344 125.269531s-8.960938 52.222657-75.605469 75.433594c-14.933594 5.207031-23.125 5.035156-26.792969 1.707031-12.800781-11.605468 28.160156-61.78125 28.160156-61.78125 9.644532-10.628906 22.339844-18.023437 36.351563-21.164062 12.917969-2.453125 26.292969-.402344 37.886719 5.804687zm0 0"/><path d="m436.519531 197.546875c-2.199219 2.710937-4.722656 5.148437-7.507812 7.253906-15.171875 11.378907-36.03125 11.378907-51.203125 0-9.949219-7.464843-16.148438-18.90625-16.96875-31.320312-.820313-12.414063 3.820312-24.566407 12.703125-33.277344zm0 0"/><path d="m450.34375 202.410156c-1.707031-.425781-3.5-1.023437-5.460938-1.707031-66.644531-23.210937-75.605468-75.433594-75.605468-75.433594 5.253906-2.683593 10.855468-4.636719 16.640625-5.804687 34.386719-6.652344 57.597656 21.164062 57.597656 21.164062s64.085937 78.507813 6.828125 61.78125zm0 0"/></g><path d="m91.945312 125.269531s-8.960937 52.222657-75.605468 75.433594c-1.964844.683594-3.757813 1.28125-5.460938 1.707031-12.800781-11.605468 28.160156-61.78125 28.160156-61.78125 9.644532-10.628906 22.339844-18.023437 36.351563-21.164062 5.757813 1.167968 11.328125 3.121094 16.554687 5.804687zm0 0" fill="#4caf50"/><path d="m450.34375 202.410156c-1.707031-.425781-3.5-1.023437-5.460938-1.707031-66.644531-23.210937-75.605468-75.433594-75.605468-75.433594 5.253906-2.683593 10.855468-4.636719 16.640625-5.804687 13.976562 3.15625 26.640625 10.546875 36.265625 21.164062 0 0 40.960937 50.175782 28.160156 61.78125zm0 0" fill="#4caf50"/><path d="m437.542969 290.902344 7.363281-81.222656c6.035156 2.167968 12.367188 3.402343 18.773438 3.664062 6.199218.488281 12.21875-2.210938 15.976562-7.160156 11.390625-16.28125-13.609375-51.457032-29.601562-71.050782-20.761719-24.703124-55.75-31.949218-84.617188-17.527343-3.351562 1.6875-5.207031 5.367187-4.574219 9.0625.648438 3.277343 1.550781 6.496093 2.6875 9.636719-1.785156-.820313-3.644531-1.457032-5.554687-1.90625l-24.039063-3.367188c.75-3.8125 1.144531-7.683594 1.1875-11.566406-.027343-3.839844-2.660156-7.175782-6.390625-8.097656 2.117188-11.578126 2.175782-23.4375.167969-35.035157 3.648437-.988281 6.191406-4.285156 6.222656-8.066406-.042969-37.683594-30.582031-68.2226562-68.265625-68.265625h-51.203125c-37.683593.0429688-68.222656 30.582031-68.265625 68.265625.03125 3.78125 2.574219 7.078125 6.222656 8.066406-2.007812 11.597657-1.953124 23.457031.167969 35.035157-3.730469.921874-6.363281 4.257812-6.390625 8.097656.039063 3.886718.433594 7.761718 1.179688 11.574218l-24.800782 3.507813c-1.632812.386719-3.226562.9375-4.75 1.636719 1.117188-3.101563 2-6.28125 2.644532-9.515625.632812-3.695313-1.222656-7.375-4.574219-9.0625-28.898437-14.429688-63.921875-7.152344-84.675781 17.597656-15.933594 19.523437-40.960938 54.699219-29.542969 70.980469 3.757813 4.945312 9.777344 7.640625 15.972656 7.148437 6.421875-.253906 12.769531-1.488281 18.816407-3.660156l7.332031 80.460937c.042969 10.808594 6.875 20.425782 17.066406 24.03125v11.671876c-10.226563 3.5625-17.074219 13.203124-17.074219 24.03125 0 10.828124 6.847656 20.46875 17.074219 24.03125v10.101562c.050781.386719.128906.769531.230469 1.144531-15.140625 3.796875-25.777344 17.378907-25.832032 32.988281.03125 8.375 3.179688 16.441407 8.832032 22.621094-.1875.984375-.285156 1.980469-.296875 2.980469v17.066406c0 4.710938 3.820312 8.53125 8.53125 8.53125 4.714843 0 8.535156-3.820312 8.535156-8.53125v-17.066406h17.066406v17.066406c0 4.710938 3.820313 8.53125 8.53125 8.53125 4.714844 0 8.535157-3.820312 8.535157-8.53125v-17.066406c-.011719-1-.113282-1.996094-.300782-2.980469 5.65625-6.179687 8.804688-14.246094 8.832032-22.621094-.050782-15.609374-10.6875-29.191406-25.828126-32.988281.101563-.375.179688-.757812.230469-1.144531v-10.101562c10.222657-3.5625 17.074219-13.203126 17.074219-24.03125 0-10.828126-6.851562-20.46875-17.074219-24.03125v-11.664063c10.023438-3.382813 16.851563-12.691406 17.066407-23.269531l5.972656-65.9375 29.269531 52.273437c1.507813 2.6875 4.34375 4.355469 7.425781 4.363281h11.152344l13.003906 34.617188c-9.652344 5.855469-13.757812 17.761719-9.769531 28.324219l.585937 1.542969c-13.183593 6.535156-22.023437 19.453124-23.335937 34.109374-1.316406 14.65625 5.082031 28.941407 16.894531 37.714844v34.355469c-20.425781 3.71875-34.988281 21.921875-34.132812 42.667969 0 9.425781 7.640625 17.066406 17.066406 17.066406h85.332031c9.425781 0 17.066407-7.640625 17.066407-17.066406.855468-20.746094-13.707032-38.949219-34.132813-42.667969v-34.355469c8.410156-6.304687 14.183594-15.5 16.214844-25.8125l7.730469 4.414063c5.175781 2.984375 11.042968 4.554687 17.015624 4.554687h3.414063c5.949219-.003906 11.796875-1.570312 16.957031-4.539062l7.753906-4.429688c2.039063 10.316406 7.828126 19.511719 16.25 25.8125v34.355469c-20.429687 3.71875-34.988281 21.921875-34.136718 42.667969 0 9.425781 7.644531 17.066406 17.070312 17.066406h85.332032c9.425781 0 17.066406-7.640625 17.066406-17.066406.855468-20.746094-13.707032-38.949219-34.132813-42.667969v-34.355469c11.808594-8.773437 18.210938-23.058594 16.894531-37.714844-1.3125-14.65625-10.152343-27.574218-23.339843-34.109374l.597656-1.5625c3.984375-10.558594-.125-22.460938-9.777344-28.3125l13.003907-34.609376h11.152343c3.085938-.003906 5.933594-1.667968 7.441407-4.363281l29.253906-52.28125 5.972656 65.175781c.042969 10.808594 6.875 20.425782 17.066406 24.03125v11.671876c-10.222656 3.5625-17.074218 13.203124-17.074218 24.03125 0 10.828124 6.851562 20.46875 17.074218 24.03125v10.101562c.050782.386719.128906.769531.230469 1.144531-15.140625 3.796875-25.777344 17.378907-25.832031 32.988281.03125 8.375 3.179687 16.441407 8.832031 22.621094-.183594.984375-.285156 1.980469-.296875 2.980469v17.066406c0 4.710938 3.820312 8.53125 8.535156 8.53125 4.710938 0 8.53125-3.820312 8.53125-8.53125v-17.066406h17.066406v17.066406c0 4.710938 3.820313 8.53125 8.535157 8.53125 4.710937 0 8.53125-3.820312 8.53125-8.53125v-17.066406c-.011719-1-.109375-1.996094-.296875-2.980469 5.652344-6.179687 8.800781-14.246094 8.832031-22.621094-.054687-15.609374-10.691406-29.191406-25.832031-32.988281.101562-.375.179687-.757812.230468-1.144531v-10.101562c10.226563-3.5625 17.074219-13.203126 17.074219-24.03125 0-10.828126-6.847656-20.46875-17.074219-24.03125v-11.664063c10.027344-3.382813 16.851563-12.691406 17.066407-23.269531zm-54.613281-92.929688c-8.566407-6.46875-13.617188-16.570312-13.652344-27.304687.035156-5.199219 1.273437-10.320313 3.617187-14.960938 11.753907 18.816407 28.460938 34.027344 48.289063 43.972657-11.933594 7.171874-27.003906 6.5-38.253906-1.707032zm53.957031-51.984375c16.390625 20.097657 29.730469 43.425781 28.765625 50.089844-6.183594.367187-12.359375-.804687-17.980469-3.414063-47.980469-16.730468-63.632813-48.851562-68.265625-62.539062 33.203125-12.175781 56.542969 14.738281 57.496094 15.871094zm-195.609375 24.679688c-4.714844 0-8.535156 3.820312-8.535156 8.53125v8.535156c-24.128907 0-50.773438-23.152344-62.539063-45.441406-2.328125-4.5-3.988281-9.316407-4.933594-14.292969h11.707031l14.507813 21.800781c.257813.355469.546875.6875.855469 1 .117187.128907.210937.265625.339844.394531.6875.652344 1.476562 1.183594 2.339843 1.578126.195313.09375.390625.152343.597657.230468.953124.378906 1.96875.578125 2.992187.597656h25.601563c1.128906 0 2.246093-.226562 3.285156-.667968 1.03125-.425782 1.964844-1.054688 2.757812-1.84375l6.023438-6.023438h10l6.023437 6.023438c.789063.789062 1.726563 1.417968 2.757813 1.84375 1.039062.441406 2.15625.667968 3.285156.667968h25.601562c1.011719-.023437 2.015626-.222656 2.960938-.597656.203125-.078125.398438-.136718.597656-.230468.859375-.394532 1.648438-.925782 2.335938-1.578126.128906-.128906.222656-.265624.34375-.394531.308594-.3125.59375-.644531.851562-1l14.539063-21.800781h11.710937c-.875 4.644531-2.378906 9.144531-4.472656 13.378906-.183594.277344-.351562.558594-.503906.855469-11.734375 22.355469-38.316406 45.5-62.5 45.5v-8.535156c0-4.710938-3.820313-8.53125-8.53125-8.53125zm-70.296875-93.867188h39.421875l6.171875 12.347657c1.445312 2.890624 4.402343 4.71875 7.636719 4.71875h34.132812c3.25.015624 6.226562-1.8125 7.679688-4.71875l6.128906-12.347657h39.421875c2.320312 11.261719 2.277343 22.886719-.128907 34.132813h-10.433593c-.257813.039062-.515625.089844-.769531.152344-.601563.054687-1.191407.175781-1.765626.359374-.488281.152344-.964843.34375-1.417968.582032-.984375.535156-1.851563 1.261718-2.558594 2.132812-.179688.210938-.425781.339844-.582031.570313l-14.539063 21.804687h-17.503906l-6.03125-6.035156c-1.601562-1.601562-3.769531-2.5-6.035156-2.5h-17.066406c-2.261719 0-4.429688.898438-6.03125 2.5l-6.035157 6.035156h-17.5l-14.507812-21.804687c-.152344-.230469-.398438-.359375-.570313-.570313-.367187-.453125-.785156-.863281-1.238281-1.230468-.410156-.339844-.851563-.640626-1.320313-.894532-.464843-.246094-.949218-.441406-1.453124-.589844-.566407-.183593-1.152344-.304687-1.75-.359374-.261719-.0625-.523438-.117188-.792969-.152344h-10.453125c-2.425782-11.246094-2.460938-22.875-.109375-34.132813zm44.695312-59.734375h17.066407v8.535156c0 4.710938 3.820312 8.53125 8.535156 8.53125 4.710937 0 8.53125-3.820312 8.53125-8.53125v-8.535156h17.070312c24.96875.03125 46.289063 18.050782 50.480469 42.667969h-50.480469c-3.25-.019531-6.230468 1.8125-7.683594 4.71875l-6.125 12.347656h-23.585937l-6.128906-12.347656c-1.449219-2.90625-4.429688-4.738281-7.679688-4.71875h-50.480469c4.191407-24.617187 25.507813-42.636719 50.480469-42.667969zm-106.015625 138.640625c2.34375 4.640625 3.582032 9.761719 3.617188 14.960938.019531 12.347656-6.648438 23.738281-17.425782 29.761719-10.78125 6.023437-23.976562 5.738281-34.484374-.75 19.832031-9.945313 36.539062-25.15625 48.292968-43.972657zm-92.765625 40.378907c-.964843-6.65625 12.363281-29.984376 28.695313-50.019532 1.023437-1.222656 24.109375-28.28125 57.542968-15.957031-4.625 13.652344-20.277343 45.804687-68.269531 62.539063-5.613281 2.617187-11.789062 3.796874-17.96875 3.4375zm70.78125 222.046874c.003907 3.410157-1.03125 6.738282-2.960937 9.550782-1.785156-.652344-3.667969-.996094-5.570313-1.015625h-17.066406c-1.902344.019531-3.785156.363281-5.574219 1.015625-1.929687-2.8125-2.960937-6.140625-2.960937-9.550782 0-9.425781 7.640625-17.066406 17.066406-17.066406s17.066406 7.640625 17.066406 17.066406zm-17.066406-59.734374c-4.710937 0-8.53125-3.820313-8.53125-8.53125 0-4.714844 3.820313-8.535157 8.53125-8.535157 4.714844 0 8.535156 3.820313 8.535156 8.535157 0 4.710937-3.820312 8.53125-8.535156 8.53125zm0-59.730469c-2.375-.066407-4.625-1.09375-6.234375-2.84375-1.609375-1.753907-2.4375-4.085938-2.296875-6.457031l-6.648437-73.3125c7.3125 3.84375 15.453124 5.839843 23.714843 5.8125 2.078125-.039063 4.152344-.207032 6.210938-.496094l-6.210938 68.761718c0 4.714844-3.820312 8.535157-8.535156 8.535157zm204.800781-25.601563v76.800782h-25.601562v-27.171876c10.195312-3.601562 17.023437-13.21875 17.070312-24.027343v-25.601563zm30.601563 0 6.03125 6.035156c.742187.71875 1.609375 1.296876 2.5625 1.703126l-11.460938 30.515624c-3.71875.050782-7.375.980469-10.667969 2.707032v-40.960938zm-56.203125 25.601563c0 4.710937-3.820313 8.53125-8.53125 8.53125-4.714844 0-8.535156-3.820313-8.535156-8.53125v-25.601563h17.066406zm-17.066406 24.027343v27.171876h-25.597657v-76.800782h8.53125v25.601563c.046875 10.808593 6.875 20.425781 17.066407 24.027343zm-42.664063-8.617187c-3.285156-1.734375-6.929687-2.671875-10.640625-2.730469l-11.46875-30.550781c.949219-.40625 1.816406-.984375 2.558594-1.707031l6.015625-6.023438h13.535156zm-20.855469 24.414063c-.601562-1.578126-.550781-3.332032.140625-4.875.691407-1.539063 1.964844-2.742188 3.542969-3.34375l3.9375-1.507813c1.59375-.636719 3.382812-.597656 4.949219.105469 1.570312.699218 2.785156 2.007812 3.378906 3.621094l4.667969 12.324218c-5.316406-2.296875-11.042969-3.480468-16.828125-3.484375-.855469 0-1.707031.214844-2.5625.265625zm46.453125 156.441406h-85.332031c0-7.816406 0-28.585938 42.667969-28.585938 42.664062 0 42.664062 20.769532 42.664062 28.585938zm-34.132812-45.355469c-2.710938-.179687-5.527344-.296875-8.53125-.296875-3.003907 0-5.820313.117188-8.535157.296875v-23.765625c5.632813 1.148438 11.4375 1.148438 17.066407 0zm-8.53125-39.976563c-14.140625 0-25.601563-11.464843-25.601563-25.601562s11.460938-25.601562 25.601563-25.601562c14.136719 0 25.597656 11.464843 25.597656 25.601562s-11.460937 25.601562-25.597656 25.601562zm78.421875-27.871093c-2.570313 1.484375-5.484375 2.269531-8.449219 2.269531h-3.414063c-2.980468-.003906-5.90625-.792969-8.480468-2.285156l-17.417969-9.953125c-.441406-1.640625-.976563-3.253907-1.613281-4.828125h58.4375c-.636719 1.574218-1.171875 3.1875-1.613282 4.828125zm100.777344 113.203125h-85.332032c0-7.816406 0-28.585938 42.664063-28.585938 42.667969 0 42.667969 20.769532 42.667969 28.585938zm-34.132813-45.355469c-2.714844-.179687-5.53125-.296875-8.535156-.296875-3.003907 0-5.820313.117188-8.53125.296875v-23.765625c5.628906 1.148438 11.433593 1.148438 17.066406 0zm-8.535156-39.976563c-14.136719 0-25.597657-11.464843-25.597657-25.601562s11.460938-25.601562 25.597657-25.601562c14.140625 0 25.601562 11.464843 25.601562 25.601562s-11.460937 25.601562-25.601562 25.601562zm0-68.269531c-5.789063.003907-11.515625 1.1875-16.828125 3.484375l4.6875-12.367187c1.433594-3.117188 4.945312-4.707031 8.234375-3.71875l4.050781 1.5625c3.261719 1.253906 4.890625 4.90625 3.652344 8.171875l-1.195313 3.132812c-.894531-.058594-1.746093-.265625-2.601562-.265625zm29.132812-76.796875h-17.066406l-6.03125-6.035156c-1.601563-1.601562-3.769531-2.5-6.035156-2.5h-136.53125c-2.265625 0-4.433594.898438-6.035157 2.5l-6.03125 6.035156h-17.066406l-30.148437-53.839844c-.011719-.886718.097656-1.769531.332031-2.628906 10.34375-9.695312 16.230469-23.222656 16.28125-37.398437 0-6.582031-1.273438-13.105469-3.753906-19.203125.105468-.0625.21875-.117188.332031-.167969l26.957031-3.78125c.410156.851563.726563 1.765625 1.175782 2.644531 14.328124 27.152344 45.621093 54.640625 77.6875 54.640625h17.066406c31.394531 0 62.917968-27.460937 77.082031-53.660156.25-.34375.472656-.707031.660156-1.089844.433594-.855469.742188-1.707031 1.125-2.5625l26.207031 3.652344c.351563.121094.699219.265625 1.03125.4375-2.449218 6.066406-3.707031 12.546875-3.703124 19.089844.050781 14.175781 5.941406 27.703125 16.28125 37.398437.234374.859375.34375 1.742188.332031 2.628906zm58.53125-43.164062c2.054688.289062 4.128907.457031 6.203125.496094 8.273438.027343 16.429688-1.964844 23.757813-5.8125l-6.691407 74.078124c0 4.714844-3.820312 8.535157-8.53125 8.535157-2.378906-.066407-4.628906-1.09375-6.238281-2.84375-1.605469-1.753907-2.4375-4.085938-2.296875-6.457031zm31.804688 196.761718c0 3.410157-1.03125 6.738282-2.960938 9.550782-1.789062-.652344-3.671875-.996094-5.574219-1.015625h-17.066406c-1.902344.019531-3.785156.363281-5.570312 1.015625-1.929688-2.8125-2.964844-6.140625-2.960938-9.550782 0-9.425781 7.640625-17.066406 17.066406-17.066406 9.425782 0 17.066407 7.640625 17.066407 17.066406zm-17.066407-59.734374c-4.714843 0-8.535156-3.820313-8.535156-8.53125 0-4.714844 3.820313-8.535157 8.535156-8.535157 4.710938 0 8.53125 3.820313 8.53125 8.535157 0 4.710937-3.820312 8.53125-8.53125 8.53125zm0 0"/></svg>