<svg height="512pt" viewBox="0 0 512.21209 512" width="512pt" xmlns="http://www.w3.org/2000/svg"><path d="m115.304688 68.371094c-18.855469 0-34.132813 30.550781-34.132813 68.269531 0 37.714844 15.277344 68.265625 34.132813 68.265625zm0 0" fill="#6a1b9a"/><path d="m47.039062 136.640625c0 9.425781-7.640624 17.066406-17.066406 17.066406-9.425781 0-17.066406-7.640625-17.066406-17.066406s7.640625-17.066406 17.066406-17.066406c9.425782 0 17.066406 7.640625 17.066406 17.066406zm0 0" fill="#f44335"/><path d="m396.90625 204.90625c18.859375 0 34.132812-30.550781 34.132812-68.265625 0-37.71875-15.273437-68.269531-34.132812-68.269531zm0 0" fill="#6a1b9a"/><path d="m499.304688 136.640625c0 9.425781-7.640626 17.066406-17.066407 17.066406s-17.066406-7.640625-17.066406-17.066406 7.640625-17.066406 17.066406-17.066406 17.066407 7.640625 17.066407 17.066406zm0 0" fill="#df4d60"/><path d="m499.304688 136.640625c0 9.425781-7.640626 17.066406-17.066407 17.066406s-17.066406-7.640625-17.066406-17.066406 7.640625-17.066406 17.066406-17.066406 17.066407 7.640625 17.066407 17.066406zm0 0" fill="#f44335"/><path d="m239.039062 247.574219h34.132813v60.753906h-34.132813zm0 0" fill="#c52828"/><path d="m153.707031 8.640625h204.800781c23.5625 0 42.664063 19.101563 42.664063 42.664063v170.667968c0 23.5625-19.101563 42.667969-42.664063 42.667969h-204.800781c-23.566406 0-42.667969-19.105469-42.667969-42.667969v-170.667968c0-23.5625 19.101563-42.664063 42.667969-42.664063zm0 0" fill="#ad1457"/><path d="m153.707031 8.640625h183.464844c23.566406 0 42.667969 19.101563 42.667969 42.664063v170.667968c0 23.5625-19.101563 42.667969-42.667969 42.667969h-183.464844c-23.566406 0-42.667969-19.105469-42.667969-42.667969v-170.667968c0-23.5625 19.101563-42.664063 42.667969-42.664063zm0 0" fill="#e91e63"/><path d="m358.507812 59.839844v153.597656c0 4.714844-3.824218 8.535156-8.535156 8.535156h-187.734375c-1.054687.023438-2.101562-.179687-3.070312-.597656-3.082031-1.171875-5.1875-4.046875-5.375-7.339844-.070313-.1875-.101563-.394531-.085938-.597656v-153.597656c0-4.714844 3.820313-8.535156 8.53125-8.535156h187.734375c.691406.003906 1.378906.089843 2.046875.257812 3.808594.941406 6.484375 4.355469 6.488281 8.277344zm0 0" fill="#fec108"/><path d="m337.171875 59.839844v153.597656c0 4.714844-3.820313 8.535156-8.53125 8.535156h-166.402344c-1.054687.023438-2.101562-.179687-3.070312-.597656-3.082031-1.171875-5.1875-4.046875-5.375-7.339844-.070313-.1875-.101563-.394531-.085938-.597656v-153.597656c0-4.714844 3.820313-8.535156 8.53125-8.535156h166.402344c.6875.003906 1.378906.089843 2.046875.257812 3.808594.941406 6.480469 4.355469 6.484375 8.277344zm0 0" fill="#fdd834"/><path d="m213.4375 93.972656c9.425781 0 17.070312 7.640625 17.070312 17.066406v51.199219c0 9.425781-7.644531 17.066407-17.070312 17.066407-9.421875 0-17.066406-7.640626-17.066406-17.066407v-51.199219c0-9.425781 7.644531-17.066406 17.066406-17.066406zm0 0" fill="#424242"/><path d="m298.773438 93.972656c9.425781 0 17.066406 7.640625 17.066406 17.066406v51.199219c0 9.425781-7.640625 17.066407-17.066406 17.066407-9.425782 0-17.066407-7.640626-17.066407-17.066407v-51.199219c0-9.425781 7.640625-17.066406 17.066407-17.066406zm0 0" fill="#424242"/><path d="m369.003906 324.457031-65.28125 110.933594c-3.066406 5.203125-8.640625 8.410156-14.679687 8.449219h-65.875c-6.027344-.078125-11.582031-3.277344-14.679688-8.449219l-65.277343-110.933594c-3.09375-5.28125-3.117188-11.816406-.066407-17.121093 3.050781-5.308594 8.707031-8.574219 14.828125-8.5625h196.265625c6.121094-.011719 11.78125 3.253906 14.828125 8.5625 3.050782 5.304687 3.027344 11.839843-.0625 17.121093zm0 0" fill="#fec108"/><path d="m347.667969 320.191406-65.277344 110.933594c-3.066406 5.203125-8.640625 8.410156-14.679687 8.449219h-55.722657c-1.386719-1.191407-2.570312-2.605469-3.5-4.183594l-65.277343-110.933594c-3.09375-5.28125-3.117188-11.816406-.066407-17.121093 3.050781-5.308594 8.707031-8.574219 14.828125-8.5625h186.199219c6.199219 5.347656 7.671875 14.375 3.496094 21.417968zm0 0" fill="#fdd834"/><path d="m187.839844 469.4375v25.601562c0 4.714844-3.820313 8.535157-8.535156 8.535157h-42.664063c-4.714844 0-8.535156-3.820313-8.535156-8.535157v-8.53125c0-14.140624 11.460937-25.601562 25.601562-25.601562h25.597657c4.714843 0 8.535156 3.820312 8.535156 8.53125zm0 0" fill="#ad1457"/><path d="m384.105469 486.507812v8.53125c0 4.714844-3.820313 8.535157-8.53125 8.535157h-42.667969c-4.714844 0-8.535156-3.820313-8.535156-8.535157v-25.601562c0-4.710938 3.820312-8.53125 8.535156-8.53125h25.601562c14.136719 0 25.597657 11.460938 25.597657 25.601562zm0 0" fill="#ad1457"/><path d="m170.773438 469.4375v25.601562c0 4.714844-3.820313 8.535157-8.535157 8.535157h-25.597656c-4.714844 0-8.535156-3.820313-8.535156-8.535157v-8.53125c0-14.140624 11.460937-25.601562 25.601562-25.601562h8.53125c4.714844 0 8.535157 3.820312 8.535157 8.53125zm0 0" fill="#e91e63"/><path d="m367.039062 486.507812v8.53125c0 4.714844-3.820312 8.535157-8.53125 8.535157h-25.601562c-4.714844 0-8.535156-3.820313-8.535156-8.535157v-25.601562c0-4.710938 3.820312-8.53125 8.535156-8.53125h8.53125c14.140625 0 25.601562 11.460938 25.601562 25.601562zm0 0" fill="#e91e63"/><path d="m264.640625 341.4375c-1.117187-.011719-2.21875-.242188-3.242187-.679688-1.054688-.394531-2.015626-1.003906-2.816407-1.792968-1.558593-1.636719-2.441406-3.800782-2.476562-6.058594.015625-1.117188.246093-2.21875.683593-3.242188.777344-2.144531 2.464844-3.832031 4.609376-4.609374 3.179687-1.285157 6.824218-.585938 9.300781 1.792968.75.828125 1.359375 1.78125 1.789062 2.816406.4375 1.023438.671875 2.125.683594 3.242188.023437 2.269531-.867187 4.453125-2.472656 6.058594-1.605469 1.605468-3.789063 2.496094-6.058594 2.472656zm0 0"/><path d="m298.773438 341.4375c-1.117188-.011719-2.21875-.242188-3.242188-.679688-1.054688-.394531-2.015625-1.003906-2.816406-1.792968-1.558594-1.636719-2.441406-3.800782-2.476563-6.058594.015625-1.117188.246094-2.21875.683594-3.242188.777344-2.144531 2.464844-3.832031 4.609375-4.609374 3.179688-1.285157 6.824219-.585938 9.300781 1.792968.753907.828125 1.359375 1.78125 1.792969 2.816406.4375 1.023438.667969 2.125.679688 3.242188.023437 2.269531-.867188 4.453125-2.472657 6.058594-1.605469 1.605468-3.789062 2.496094-6.058593 2.472656zm0 0"/><path d="m213.4375 375.574219c-1.113281-.015625-2.214844-.246094-3.242188-.683594-1.054687-.390625-2.011718-1.003906-2.816406-1.792969-1.554687-1.636718-2.441406-3.800781-2.472656-6.058594.011719-1.113281.246094-2.214843.683594-3.242187.773437-2.144531 2.464844-3.832031 4.605468-4.609375 3.183594-1.285156 6.828126-.585938 9.300782 1.792969.753906.832031 1.359375 1.78125 1.792968 2.816406.4375 1.027344.671876 2.128906.683594 3.242187.023438 2.269532-.867187 4.453126-2.472656 6.058594-1.605469 1.605469-3.789062 2.5-6.0625 2.476563zm0 0"/><path d="m358.507812 273.171875c28.261719-.027344 51.171876-22.933594 51.199219-51.199219v-9.96875c18.449219-6.21875 31.957031-32.476562 33.886719-66.832031h18.882812c4.15625 11.757813 16.175782 18.808594 28.464844 16.699219 12.289063-2.109375 21.269532-12.761719 21.269532-25.230469s-8.980469-23.125-21.269532-25.234375c-12.289062-2.105469-24.308594 4.945312-28.464844 16.699219h-18.882812c-1.929688-34.355469-15.4375-60.585938-33.886719-66.832031v-9.96875c-.027343-28.265626-22.9375-51.171876-51.199219-51.199219h-204.800781c-28.265625.027343-51.171875 22.933593-51.199219 51.199219v9.96875c-18.449218 6.246093-31.960937 32.476562-33.886718 66.832031h-18.886719c-4.15625-11.753907-16.175781-18.804688-28.464844-16.699219-12.289062 2.109375-21.269531 12.765625-21.269531 25.234375s8.980469 23.121094 21.269531 25.230469c12.289063 2.109375 24.308594-4.941406 28.464844-16.699219h18.886719c1.925781 34.355469 15.4375 60.585937 33.886718 66.832031v9.96875c.027344 28.265625 22.933594 51.171875 51.199219 51.199219h76.800781v17.066406h-72.535156c-9.183594 0-17.664062 4.917969-22.222656 12.890625s-4.5 17.773438.15625 25.691406l1.910156 3.242188-31.46875 6.074219c-9.25 1.789062-15.300781 10.734375-13.519531 19.984375l6.46875 33.527344c-9.25 1.789062-15.296875 10.734374-13.515625 19.984374l3.234375 16.753907c.773437 4.011719 4.28125 6.914062 8.371094 6.917969.546875.003906 1.09375-.050782 1.628906-.160157 4.621094-.894531 7.644531-5.363281 6.757813-9.984375l-3.265626-16.757812 16.757813-3.234375 3.234375 16.75c.894531 4.628906 5.367188 7.65625 9.996094 6.761719 4.628906-.894532 7.65625-5.367188 6.761718-9.996094l-3.234374-16.75c-.847657-4.453125-3.433594-8.382813-7.183594-10.925782-3.75-2.546874-8.359375-3.492187-12.808594-2.636718l-6.476562-33.515625 37.410156-7.230469 39.167968 66.636719c-14.59375 7.09375-23.867187 21.886719-23.894531 38.109375h-8.53125c-18.851562 0-34.132812 15.285156-34.132812 34.136718v8.53125c0 9.425782 7.640625 17.066407 17.066406 17.066407h42.664063c9.425781 0 17.066406-7.640625 17.066406-17.066407v-25.601562c0-9.421875-7.640625-17.066406-17.066406-17.066406.019531-10.195313 6.109374-19.402344 15.488281-23.40625l6.339843 10.785156c4.613282 7.808594 13 12.605469 22.070313 12.621094h65.808594c9.066406-.015625 17.453125-4.8125 22.066406-12.621094l6.339844-10.785156c9.378906 4.003906 15.472656 13.210937 15.488281 23.40625-9.425781 0-17.066406 7.644531-17.066406 17.066406v25.601562c0 9.425782 7.640625 17.066407 17.066406 17.066407h42.667969c9.425781 0 17.066406-7.640625 17.066406-17.066407v-8.53125c0-18.851562-15.285156-34.136718-34.132813-34.136718h-8.535156c-.03125-16.222656-9.304687-31.015625-23.894531-38.117188l39.179687-66.558594 37.398438 7.226563-6.476562 33.449219c-4.445313-.855469-9.046876.085937-12.796876 2.621094-3.75 2.539062-6.339843 6.460937-7.195312 10.90625l-3.234375 16.75c-.894531 4.628906 2.132813 9.105468 6.761719 9.996093 4.628906.894531 9.105468-2.132812 9.996094-6.761719l3.234374-16.757812 16.761719 3.242188-3.234375 16.757812c-.886718 4.625 2.136719 9.089844 6.757813 9.984375.523437.117187 1.058593.183594 1.59375.195313 4.085937-.007813 7.59375-2.90625 8.363281-6.917969l3.234375-16.742188c1.789063-9.253906-4.261719-18.207031-13.515625-19.996093l6.46875-33.519532c1.785156-9.25-4.265625-18.203125-13.515625-19.992187l-31.4375-6.085938 1.910156-3.242187c4.652344-7.917969 4.707031-17.722656.144531-25.691406-4.566406-7.972657-13.050781-12.886719-22.238281-12.878907h-72.53125v-17.066406zm-179.203124 221.867187h-42.664063v-8.53125c0-9.425781 7.640625-17.070312 17.066406-17.070312h25.597657zm179.203124-25.601562c9.425782 0 17.066407 7.644531 17.066407 17.070312v8.53125h-42.667969v-25.601562zm128-341.332031c4.710938 0 8.53125 3.820312 8.53125 8.535156 0 4.710937-3.820312 8.53125-8.53125 8.53125-4.714843 0-8.535156-3.820313-8.535156-8.53125 0-4.714844 3.820313-8.535156 8.535156-8.535156zm-59.734374 8.535156c0 26.179687-7.929688 47.238281-17.066407 55.695313v-111.394532c9.136719 8.457032 17.066407 29.519532 17.066407 55.699219zm-401.066407 8.53125c-4.714843 0-8.535156-3.820313-8.535156-8.53125 0-4.714844 3.820313-8.535156 8.535156-8.535156 4.710938 0 8.53125 3.820312 8.53125 8.535156 0 4.710937-3.820312 8.53125-8.53125 8.53125zm59.730469-8.53125c0-26.179687 7.929688-47.242187 17.070312-55.699219v111.394532c-9.140624-8.457032-17.070312-29.515626-17.070312-55.695313zm34.136719 85.332031v-170.667968c0-18.851563 15.28125-34.132813 34.132812-34.132813h204.800781c18.847657 0 34.132813 15.28125 34.132813 34.132813v170.667968c0 18.851563-15.285156 34.132813-34.132813 34.132813h-204.800781c-18.851562 0-34.132812-15.28125-34.132812-34.132813zm242.097656 89.601563c1.542969 2.640625 1.523437 5.910156-.050781 8.53125l-55.253906 93.996093-.101563.167969-9.898437 16.828125c-1.535157 2.609375-4.332032 4.207032-7.355469 4.207032h-65.808594c-3.027344 0-5.824219-1.597657-7.355469-4.207032l-9.882812-16.800781-.128906-.214844-55.246094-93.917969c-1.554688-2.640624-1.570313-5.914062-.042969-8.574218 1.523437-2.65625 4.359375-4.292969 7.425781-4.285156h196.265625c3.074219-.046876 5.925781 1.589843 7.433594 4.269531zm-97.03125-21.335938h-17.066406v-17.066406h17.066406zm0 0"/><path d="m367.039062 213.4375v-153.597656c0-9.425782-7.640624-17.066406-17.066406-17.066406h-187.734375c-9.425781 0-17.066406 7.640624-17.066406 17.066406v153.597656c0 9.425781 7.640625 17.070312 17.066406 17.070312h187.734375c9.425782 0 17.066406-7.644531 17.066406-17.070312zm-204.800781-153.597656h187.734375v153.597656h-187.734375zm0 0"/><path d="m213.4375 85.4375c-14.136719 0-25.597656 11.464844-25.597656 25.601562v51.199219c0 14.140625 11.460937 25.601563 25.597656 25.601563 14.140625 0 25.601562-11.460938 25.601562-25.601563v-51.199219c0-14.136718-11.460937-25.601562-25.601562-25.601562zm8.535156 76.800781c0 4.714844-3.820312 8.535157-8.535156 8.535157-4.710938 0-8.53125-3.820313-8.53125-8.535157v-51.199219c0-4.710937 3.820312-8.53125 8.53125-8.53125 4.714844 0 8.535156 3.820313 8.535156 8.53125zm0 0"/><path d="m298.773438 85.4375c-14.140626 0-25.601563 11.464844-25.601563 25.601562v51.199219c0 14.140625 11.460937 25.601563 25.601563 25.601563 14.136718 0 25.597656-11.460938 25.597656-25.601563v-51.199219c0-14.136718-11.460938-25.601562-25.597656-25.601562zm8.53125 76.800781c0 4.714844-3.820313 8.535157-8.53125 8.535157-4.714844 0-8.535157-3.820313-8.535157-8.535157v-51.199219c0-4.710937 3.820313-8.53125 8.535157-8.53125 4.710937 0 8.53125 3.820313 8.53125 8.53125zm0 0"/><path d="m264.640625 349.972656c-4.714844 0-8.535156 3.820313-8.535156 8.535156v8.53125c0 4.714844 3.820312 8.535157 8.535156 8.535157 4.710937 0 8.53125-3.820313 8.53125-8.535157v-8.53125c0-4.714843-3.820313-8.535156-8.53125-8.535156zm0 0"/><path d="m298.773438 375.574219c4.710937 0 8.53125-3.820313 8.53125-8.535157v-8.53125c0-4.714843-3.820313-8.535156-8.53125-8.535156-4.714844 0-8.535157 3.820313-8.535157 8.535156v8.53125c0 4.714844 3.820313 8.535157 8.535157 8.535157zm0 0"/><path d="m230.507812 324.371094h-34.136718c-4.710938 0-8.53125 3.820312-8.53125 8.535156 0 4.710938 3.820312 8.53125 8.53125 8.53125h34.136718c4.710938 0 8.53125-3.820312 8.53125-8.53125 0-4.714844-3.820312-8.535156-8.53125-8.535156zm0 0"/></svg>