<svg height="512pt" viewBox="-68 0 512 512" width="512pt" xmlns="http://www.w3.org/2000/svg"><path d="m170.683594 332.800781v76.800781h-51.199219v-87.554687zm0 0" fill="#2e7d32"/><path d="m256.015625 322.046875v87.554687h-51.199219v-76.800781l34.132813-7.167969zm0 0" fill="#2e7d32"/><path d="m153.617188 332.800781v76.800781h-34.132813v-83.96875zm0 0" fill="#4caf50"/><path d="m238.949219 325.632812v83.96875h-34.132813v-76.800781zm0 0" fill="#4caf50"/><path d="m187.75 179.199219v153.601562h-34.132812c-32.992188 0-59.734376-26.746093-59.734376-59.734375v-85.332031c0-4.714844 3.820313-8.535156 8.535157-8.535156zm0 0" fill="#8bc34a"/><path d="m281.617188 187.734375v85.332031c0 32.988282-26.746094 59.734375-59.734376 59.734375h-34.132812v-153.601562h85.332031c4.714844 0 8.535157 3.820312 8.535157 8.535156zm0 0" fill="#2e7d32"/><path d="m260.28125 187.734375v85.332031c0 32.988282-26.742188 59.734375-59.730469 59.734375h-12.800781v-153.601562h64c4.710938 0 8.53125 3.820312 8.53125 8.535156zm0 0" fill="#4caf50"/><path d="m238.949219 243.199219c.019531 5.664062-2.222657 11.101562-6.226563 15.105469-4.007812 4.003906-9.441406 6.246093-15.105468 6.230468h-59.734376c-11.78125 0-21.332031-9.554687-21.332031-21.335937s9.550781-21.332031 21.332031-21.332031h59.734376c11.78125 0 21.332031 9.550781 21.332031 21.332031zm0 0" fill="#9e9e9e"/><path d="m221.882812 243.199219c.019532 5.664062-2.222656 11.101562-6.226562 15.105469-4.007812 4.003906-9.441406 6.246093-15.105469 6.230468h-42.667969c-11.78125 0-21.332031-9.554687-21.332031-21.335937s9.550781-21.332031 21.332031-21.332031h42.667969c11.78125 0 21.332031 9.550781 21.332031 21.332031zm0 0" fill="#f5f5f5"/><path d="m119.484375 145.066406h136.53125v34.132813h-136.53125zm0 0" fill="#2e7d32"/><path d="m119.484375 145.066406h115.199219v34.132813h-115.199219zm0 0" fill="#4caf50"/><path d="m256.015625 93.867188v51.199218h-136.53125v-51.199218c-.035156-33.59375 24.410156-62.203126 57.597656-67.414063 3.527344-.582031 7.09375-.871094 10.667969-.851563 18.113281-.027343 35.492188 7.15625 48.300781 19.964844 12.804688 12.808594 19.992188 30.1875 19.964844 48.300782zm0 0" fill="#558b30"/><path d="m234.683594 93.867188v51.199218h-115.199219v-51.199218c-.035156-33.59375 24.410156-62.203126 57.597656-67.414063 33.203125 5.1875 57.660157 33.8125 57.601563 67.414063zm0 0" fill="#8bc34a"/><path d="m102.417969 25.601562c0 9.425782-7.644531 17.066407-17.066407 17.066407-9.425781 0-17.070312-7.640625-17.070312-17.066407 0-9.425781 7.644531-17.066406 17.070312-17.066406 9.421876 0 17.066407 7.640625 17.066407 17.066406zm0 0" fill="#ffeb3a"/><path d="m307.214844 25.601562c0 9.425782-7.640625 17.066407-17.066406 17.066407-9.425782 0-17.066407-7.640625-17.066407-17.066407 0-9.425781 7.640625-17.066406 17.066407-17.066406 9.425781 0 17.066406 7.640625 17.066406 17.066406zm0 0" fill="#ffeb3a"/><path d="m170.683594 409.601562c0 14.136719-11.460938 25.597657-25.601563 25.597657-2.914062.019531-5.808593-.5-8.53125-1.535157-10.226562-3.582031-17.070312-13.230468-17.070312-24.0625 0-10.835937 6.84375-20.484374 17.070312-24.066406 2.722657-1.03125 5.617188-1.554687 8.53125-1.535156 14.140625 0 25.601563 11.460938 25.601563 25.601562zm0 0" fill="#558b30"/><path d="m153.617188 409.601562c0-13.292968-7.640626-24.066406-17.066407-24.066406s-17.066406 10.773438-17.066406 24.066406c0 13.289063 7.640625 24.0625 17.066406 24.0625s17.066407-10.773437 17.066407-24.0625zm0 0" fill="#8bc34a"/><path d="m162.148438 486.398438v8.535156c0 4.710937-3.820313 8.53125-8.53125 8.53125h-65.878907c-2.621093 0-5.097656-1.207032-6.714843-3.273438-1.613282-2.066406-2.191407-4.761718-1.5625-7.304687l2.644531-10.667969c1.894531-7.59375 8.730469-12.914062 16.554687-12.886719h46.421875c9.414063.03125 17.039063 7.652344 17.066407 17.066407zm0 0" fill="#558b30"/><path d="m256.015625 409.601562c0 14.136719-11.460937 25.597657-25.597656 25.597657-2.917969.019531-5.808594-.5-8.535157-1.535157-10.222656-3.582031-17.066406-13.230468-17.066406-24.0625 0-10.835937 6.84375-20.484374 17.066406-24.066406 2.726563-1.03125 5.617188-1.554687 8.535157-1.535156 14.136719 0 25.597656 11.460938 25.597656 25.601562zm0 0" fill="#558b30"/><path d="m238.949219 409.601562c0-13.292968-7.640625-24.066406-17.066407-24.066406-9.425781 0-17.066406 10.773438-17.066406 24.066406 0 13.289063 7.640625 24.0625 17.066406 24.0625 9.425782 0 17.066407-10.773437 17.066407-24.0625zm0 0" fill="#8bc34a"/><path d="m287.761719 503.464844h-65.878907c-4.710937 0-8.53125-3.820313-8.53125-8.53125v-8.535156c.027344-9.414063 7.652344-17.035157 17.066407-17.066407h46.417969c7.828124-.027343 14.664062 5.292969 16.554687 12.886719l2.648437 10.667969c.628907 2.542969.050782 5.238281-1.5625 7.304687-1.617187 2.066406-4.09375 3.273438-6.714843 3.273438zm0 0" fill="#558b30"/><path d="m145.082031 486.398438v8.535156c0 4.710937-3.820312 8.53125-8.53125 8.53125h-48.8125c-2.621093 0-5.097656-1.207032-6.714843-3.273438-1.613282-2.066406-2.191407-4.761718-1.5625-7.304687l2.644531-10.667969c1.894531-7.59375 8.730469-12.914062 16.554687-12.886719h29.355469c9.414063.03125 17.039063 7.652344 17.066406 17.066407zm0 0" fill="#8bc34a"/><path d="m270.695312 503.464844h-48.8125c-4.710937 0-8.53125-3.820313-8.53125-8.53125v-8.535156c.027344-9.414063 7.652344-17.035157 17.066407-17.066407h29.351562c7.828125-.027343 14.664063 5.292969 16.554688 12.886719l2.648437 10.667969c.628906 2.542969.050782 5.238281-1.5625 7.304687-1.617187 2.066406-4.09375 3.273438-6.714844 3.273438zm0 0" fill="#8bc34a"/><path d="m34.148438 187.734375h59.734374v51.199219h-59.734374zm0 0" fill="#2e7d32"/><path d="m59.75 213.332031c0 14.140625-11.460938 25.601563-25.601562 25.601563-2.914063.019531-5.804688-.503906-8.53125-1.535156-10.222657-3.582032-17.070313-13.230469-17.070313-24.066407 0-10.832031 6.847656-20.480469 17.070313-24.0625 2.726562-1.035156 5.617187-1.554687 8.53125-1.535156 6.789062 0 13.300781 2.695313 18.101562 7.496094s7.5 11.3125 7.5 18.101562zm0 0" fill="#558b30"/><path d="m281.617188 187.734375h59.734374v51.199219h-59.734374zm0 0" fill="#2e7d32"/><path d="m366.949219 213.332031c0 14.140625-11.460938 25.601563-25.597657 25.601563-2.917968.019531-5.808593-.503906-8.535156-1.535156-10.222656-3.582032-17.070312-13.230469-17.070312-24.066407 0-10.832031 6.847656-20.480469 17.070312-24.0625 2.726563-1.035156 5.617188-1.554687 8.535156-1.535156 6.789063 0 13.300782 2.695313 18.101563 7.496094s7.496094 11.3125 7.496094 18.101562zm0 0" fill="#558b30"/><path d="m42.683594 213.332031c0-13.289062-7.640625-24.0625-17.066406-24.0625-9.425782 0-17.066407 10.773438-17.066407 24.0625 0 13.292969 7.640625 24.066407 17.066407 24.066407 9.425781 0 17.066406-10.773438 17.066406-24.066407zm0 0" fill="#8bc34a"/><path d="m349.882812 213.332031c0-13.289062-7.640624-24.0625-17.066406-24.0625-9.425781 0-17.066406 10.773438-17.066406 24.0625 0 13.292969 7.640625 24.066407 17.066406 24.066407 9.425782 0 17.066406-10.773438 17.066406-24.066407zm0 0" fill="#8bc34a"/><path d="m162.148438 110.933594c4.714843 0 8.535156-3.820313 8.535156-8.535156v-17.066407c0-4.710937-3.820313-8.53125-8.535156-8.53125-4.710938 0-8.53125 3.820313-8.53125 8.53125v17.066407c0 4.714843 3.820312 8.535156 8.53125 8.535156zm0 0"/><path d="m213.351562 110.933594c4.710938 0 8.53125-3.820313 8.53125-8.535156v-17.066407c0-4.710937-3.820312-8.53125-8.53125-8.53125-4.714843 0-8.535156 3.820313-8.535156 8.53125v17.066407c0 4.714843 3.820313 8.535156 8.535156 8.535156zm0 0"/><path d="m375.484375 213.332031c0-18.851562-15.285156-34.132812-34.132813-34.132812h-53.574218c-3.023438-5.261719-8.625-8.515625-14.695313-8.53125h-8.53125v-76.800781c-.019531-10.839844-2.347656-21.550782-6.828125-31.421876l18.953125-15.152343c4.035157 2.542969 8.703125 3.898437 13.472657 3.90625 14.140624 0 25.601562-11.460938 25.601562-25.597657 0-14.140624-11.460938-25.601562-25.601562-25.601562-14.136719 0-25.597657 11.460938-25.597657 25.601562.027344 2.847657.542969 5.671876 1.519531 8.351563l-17.136718 13.65625c-14.449219-19.25-37.117188-30.574219-61.183594-30.574219-24.070312 0-46.734375 11.324219-61.183594 30.574219l-17.136718-13.65625c.976562-2.679687 1.488281-5.503906 1.519531-8.351563 0-14.140624-11.460938-25.601562-25.597657-25.601562-14.140624 0-25.601562 11.460938-25.601562 25.601562 0 14.136719 11.460938 25.597657 25.601562 25.597657 4.757813-.011719 9.414063-1.367188 13.4375-3.90625l18.988282 15.152343c-4.480469 9.871094-6.808594 20.582032-6.828125 31.421876v76.800781h-8.53125c-6.070313.015625-11.671875 3.269531-14.695313 8.53125h-53.574218c-17.226563-.039063-31.773438 12.785156-33.886719 29.882812-2.117188 17.097657 8.867187 33.082031 25.585937 37.242188-.101562.375-.179687.757812-.230468 1.140625v44.375l-21.335938 12.347656c-2.640625 1.527344-4.2695312 4.347656-4.265625 7.398438v29.558593c0 3.050781 1.628906 5.867188 4.265625 7.390625l25.601562 14.78125c2.640626 1.546875 5.910157 1.5625 8.566407.035156 2.65625-1.523437 4.289062-4.355468 4.28125-7.417968-.003907-3.0625-1.652344-5.882813-4.3125-7.398438l-21.335938-12.320312v-19.703125l16.359375-9.457031c.234375.0625.46875.109374.707032.144531.238281-.035157.476562-.082031.710937-.144531l16.355469 9.457031v7.753906c0 4.714844 3.820312 8.535156 8.535156 8.535156 4.710938 0 8.53125-3.820312 8.53125-8.535156v-12.679687c.003906-3.050782-1.621094-5.871094-4.265625-7.398438l-21.332031-12.347656v-44.375h42.667968v25.601562c.003907 20.703125 9.425782 40.28125 25.597657 53.207032v83.328124c.058593 15.515626 10.574219 29.039063 25.601562 32.921876v18.277343h-37.871093c-11.75-.003906-21.992188 7.992188-24.839844 19.386719l-2.65625 10.617188c-1.269532 5.097656-.125 10.496093 3.113281 14.636718 3.234375 4.140625 8.195313 6.558594 13.449219 6.558594h65.871094c9.425781 0 17.066406-7.640625 17.066406-17.066406v-8.535156c-.046875-10.808594-6.875-20.425782-17.066406-24.027344v-19.847656c15.023437-3.882813 25.539062-17.40625 25.597656-32.921876v-68.269531h17.066406v68.269531c.058594 15.515626 10.578125 29.039063 25.601562 32.921876v19.847656c-10.191406 3.601562-17.023437 13.21875-17.066406 24.027344v8.535156c0 9.425781 7.640625 17.066406 17.066406 17.066406h65.867188c5.257812 0 10.21875-2.417969 13.453125-6.558594s4.382813-9.539062 3.113281-14.636718l-2.65625-10.625c-2.851562-11.394532-13.09375-19.382813-24.839844-19.378907h-37.871093v-18.277343c15.023437-3.882813 25.542969-17.40625 25.601562-32.921876v-83.328124c16.171875-12.925782 25.59375-32.503907 25.597657-53.207032v-25.601562h42.667968v44.375l-21.332031 12.3125c-2.644531 1.527344-4.269531 4.347656-4.269531 7.398437v12.714844c0 4.714844 3.820312 8.535156 8.535156 8.535156 4.710938 0 8.53125-3.820312 8.53125-8.535156v-7.753906l16.359375-9.457031c.453125.195312.964844.195312 1.417969 0l16.359375 9.457031v19.703125l-21.335938 12.320312c-2.660156 1.515625-4.308593 4.335938-4.316406 7.398438-.003906 3.0625 1.628906 5.894531 4.285156 7.417968 2.65625 1.527344 5.925781 1.511719 8.566407-.035156l25.597656-14.78125c2.640625-1.523437 4.269531-4.339844 4.269531-7.390625v-29.558593c0-3.050782-1.625-5.871094-4.269531-7.398438l-21.332032-12.347656v-44.375c-.050781-.382813-.128906-.765625-.230468-1.140625 15.140625-3.796875 25.777344-17.382813 25.832031-32.992188zm-85.335937-196.265625c4.714843 0 8.535156 3.820313 8.535156 8.535156 0 4.710938-3.820313 8.53125-8.535156 8.53125-4.710938 0-8.53125-3.820312-8.53125-8.53125 0-4.714843 3.820312-8.535156 8.53125-8.535156zm-213.332032 8.535156c0-4.714843 3.820313-8.535156 8.535156-8.535156 4.710938 0 8.53125 3.820313 8.53125 8.535156 0 4.710938-3.820312 8.53125-8.53125 8.53125-4.714843 0-8.535156-3.820312-8.535156-8.53125zm110.933594 8.53125c32.972656.039063 59.695312 26.757813 59.734375 59.734376v42.667968h-119.46875v-42.667968c.039063-32.976563 26.761719-59.695313 59.734375-59.734376zm-59.734375 119.46875h119.46875v17.066407h-119.46875zm-110.933594 59.730469c0-9.425781 7.640625-17.066406 17.066407-17.066406 9.425781 0 17.066406 7.640625 17.066406 17.066406s-7.640625 17.066407-17.066406 17.066407c-9.425782 0-17.066407-7.640626-17.066407-17.066407zm46.457031 17.066407c6.324219-10.496094 6.324219-23.632813 0-34.132813h21.8125v34.132813zm38.878907 42.667968v-85.332031h76.796875v25.597656h-21.332032c-16.496093 0-29.867187 13.375-29.867187 29.867188 0 16.496093 13.371094 29.867187 29.867187 29.867187h21.332032v51.199219h-25.597656c-28.265626-.027344-51.171876-22.933594-51.199219-51.199219zm55.464843-17.066406c-7.070312 0-12.800781-5.730469-12.800781-12.800781 0-7.070313 5.730469-12.800781 12.800781-12.800781h59.734376c7.070312 0 12.800781 5.730468 12.800781 12.800781 0 7.070312-5.730469 12.800781-12.800781 12.800781zm-70.136718 238.933594 2.648437-10.597656c.945313-3.804688 4.363281-6.472657 8.285157-6.46875h46.402343c4.714844 0 8.535157 3.820312 8.535157 8.53125v8.535156zm57.335937-68.265625c-9.425781 0-17.066406-7.640625-17.066406-17.066407 0-9.425781 7.640625-17.066406 17.066406-17.066406s17.066407 7.640625 17.066407 17.066406c0 9.425782-7.640626 17.066407-17.066407 17.066407zm17.066407-46.457031c-10.496094-6.324219-23.632813-6.324219-34.132813 0v-43.902344c8.128906 3.316406 16.824219 5.023437 25.601563 5.023437h8.53125zm122.957031 104.105468 2.644531 10.617188h-65.867188v-8.535156c0-4.710938 3.820313-8.53125 8.535157-8.53125h46.402343c3.917969-.003907 7.335938 2.660156 8.285157 6.460937zm-54.6875-57.648437c-9.425781 0-17.066407-7.640625-17.066407-17.066407 0-9.425781 7.640626-17.066406 17.066407-17.066406s17.066406 7.640625 17.066406 17.066406c0 9.425782-7.640625 17.066407-17.066406 17.066407zm17.066406-46.457031c-10.5-6.324219-23.636719-6.324219-34.132813 0v-38.878907h8.53125c8.777344 0 17.472657-1.707031 25.601563-5.023437zm25.597656-107.144532c-.027343 28.265625-22.933593 51.171875-51.199219 51.199219h-25.601562v-51.199219h21.335938c16.492187 0 29.867187-13.371094 29.867187-29.867187 0-16.492188-13.375-29.867188-29.867187-29.867188h-21.335938v-25.597656h76.800781zm17.066407-76.800781h21.8125c-6.328126 10.5-6.328126 23.636719 0 34.132813h-21.8125zm51.203124 34.132813c-9.425781 0-17.070312-7.640626-17.070312-17.066407s7.644531-17.066406 17.070312-17.066406c9.421876 0 17.066407 7.640625 17.066407 17.066406s-7.644531 17.066407-17.066407 17.066407zm0 0"/></svg>