<svg height="511pt" viewBox="-51 0 511 511.85493" width="511pt" xmlns="http://www.w3.org/2000/svg"><path d="m163.628906 157.191406h84.269532v88.535156h-84.269532zm0 0" fill="#d75e72"/><path d="m301.230469 213.1875h74.667969v51.199219h-74.667969zm0 0" fill="#6a1b9a"/><path d="m34.5625 213.1875h76.800781v51.199219h-76.800781zm0 0" fill="#6a1b9a"/><path d="m85.761719 469.1875h59.546875v34.132812h-68.078125c-4.714844 0-8.535157-3.820312-8.535157-8.53125v-8.535156c0-9.425781 7.640626-17.066406 17.066407-17.066406zm0 0" fill="#d75e72"/><path d="m333.230469 503.320312h-46.976563v-34.132812h38.441406c9.425782 0 17.066407 7.640625 17.066407 17.066406v8.535156c0 4.710938-3.820313 8.53125-8.53125 8.53125zm0 0" fill="#d75e72"/><path d="m157.757812 469.1875h96.574219v34.132812h-96.574219zm0 0" fill="#d75e72"/><path d="m171.097656 383.855469c9.414063.027343 17.039063 7.652343 17.066406 17.066406-.070312 9.394531-7.671874 16.996094-17.066406 17.066406 9.425782 0 17.066406 7.640625 17.066406 17.066407 0 9.425781-7.640624 17.066406-17.066406 17.066406h-34.132812c-9.425782 0-17.066406-7.640625-17.066406-17.066406 0-9.425782 7.640624-17.066407 17.066406-17.066407-9.414063-.027343-17.039063-7.652343-17.066406-17.066406.066406-9.398437 7.667968-16.996094 17.066406-17.066406-9.425782 0-17.066406-7.640625-17.066406-17.066407 0-9.425781 7.640624-17.066406 17.066406-17.066406-9.414063-.027344-17.039063-7.652344-17.066406-17.066406.066406-9.398438 7.667968-17 17.066406-17.066406h34.132812c9.414063.027344 17.039063 7.652344 17.066406 17.066406-.070312 9.394531-7.671874 16.996094-17.066406 17.066406 9.425782 0 17.066406 7.640625 17.066406 17.066406 0 9.425782-7.640624 17.066407-17.066406 17.066407zm0 0" fill="#6a1b9a"/><path d="m15.105469 255.34375v.085938l2.390625 26.023437c0 9.425781 7.640625 17.070313 17.066406 17.070313s17.066406-7.644532 17.066406-17.070313l1.535156-17.066406.855469-8.957031v-.085938zm0 0" fill="#9d27b0"/><path d="m395.351562 255.34375v.085938l-2.386718 26.023437c0 9.425781-7.644532 17.070313-17.066406 17.070313-9.425782 0-17.070313-7.644532-17.070313-17.070313l-1.535156-17.066406-.851563-8.957031zm0 0" fill="#9d27b0"/><path d="m188.164062 332.65625c-.070312 9.394531-7.671874 16.996094-17.066406 17.066406h-34.132812c-9.414063-.027344-17.039063-7.652344-17.066406-17.066406.066406-9.398438 7.667968-17 17.066406-17.066406h34.132812c9.414063.027344 17.039063 7.652344 17.066406 17.066406zm0 0" fill="#ad1457"/><path d="m188.164062 400.921875c-.070312 9.394531-7.671874 16.996094-17.066406 17.066406h-34.132812c-9.414063-.027343-17.039063-7.652343-17.066406-17.066406.066406-9.398437 7.667968-16.996094 17.066406-17.066406h34.132812c9.414063.027343 17.039063 7.652343 17.066406 17.066406zm0 0" fill="#ad1457"/><path d="m149.761719 383.855469c9.414062.027343 17.039062 7.652343 17.066406 17.066406-.066406 9.394531-7.667969 16.996094-17.066406 17.066406 9.425781 0 17.066406 7.640625 17.066406 17.066407 0 9.425781-7.640625 17.066406-17.066406 17.066406h-12.796875c-9.425782 0-17.066406-7.640625-17.066406-17.066406 0-9.425782 7.640624-17.066407 17.066406-17.066407-9.414063-.027343-17.039063-7.652343-17.066406-17.066406.066406-9.398437 7.667968-16.996094 17.066406-17.066406-9.425782 0-17.066406-7.640625-17.066406-17.066407 0-9.425781 7.640624-17.066406 17.066406-17.066406-9.414063-.027344-17.039063-7.652344-17.066406-17.066406.066406-9.398438 7.667968-17 17.066406-17.066406h12.796875c9.414062.027344 17.039062 7.652344 17.066406 17.066406-.066406 9.394531-7.667969 16.996094-17.066406 17.066406 9.425781 0 17.066406 7.640625 17.066406 17.066406 0 9.425782-7.640625 17.066407-17.066406 17.066407zm0 0" fill="#9d27b0"/><path d="m166.828125 332.65625c-.066406 9.394531-7.667969 16.996094-17.066406 17.066406h-12.796875c-9.414063-.027344-17.039063-7.652344-17.066406-17.066406.066406-9.398438 7.667968-17 17.066406-17.066406h12.796875c9.414062.027344 17.039062 7.652344 17.066406 17.066406zm0 0" fill="#e91e63"/><path d="m166.828125 400.921875c-.066406 9.394531-7.667969 16.996094-17.066406 17.066406h-12.796875c-9.414063-.027343-17.039063-7.652343-17.066406-17.066406.066406-9.398437 7.667968-16.996094 17.066406-17.066406h12.796875c9.414062.027343 17.039062 7.652343 17.066406 17.066406zm0 0" fill="#e91e63"/><path d="m273.496094 383.855469c9.414062.027343 17.039062 7.652343 17.066406 17.066406-.070312 9.394531-7.667969 16.996094-17.066406 17.066406 9.425781 0 17.066406 7.640625 17.066406 17.066407 0 9.425781-7.640625 17.066406-17.066406 17.066406h-34.132813c-9.425781 0-17.066406-7.640625-17.066406-17.066406 0-9.425782 7.640625-17.066407 17.066406-17.066407-9.414062-.027343-17.039062-7.652343-17.066406-17.066406.070313-9.398437 7.667969-16.996094 17.066406-17.066406-9.425781 0-17.066406-7.640625-17.066406-17.066407 0-9.425781 7.640625-17.066406 17.066406-17.066406-9.414062-.027344-17.039062-7.652344-17.066406-17.066406.070313-9.398438 7.667969-17 17.066406-17.066406h34.132813c9.414062.027344 17.039062 7.652344 17.066406 17.066406-.070312 9.394531-7.667969 16.996094-17.066406 17.066406 9.425781 0 17.066406 7.640625 17.066406 17.066406 0 9.425782-7.640625 17.066407-17.066406 17.066407zm0 0" fill="#6a1b9a"/><path d="m290.5625 332.65625c-.070312 9.394531-7.667969 16.996094-17.066406 17.066406h-34.132813c-9.414062-.027344-17.039062-7.652344-17.066406-17.066406.070313-9.398438 7.667969-17 17.066406-17.066406h34.132813c9.414062.027344 17.039062 7.652344 17.066406 17.066406zm0 0" fill="#ad1457"/><path d="m290.5625 400.921875c-.070312 9.394531-7.667969 16.996094-17.066406 17.066406h-34.132813c-9.414062-.027343-17.039062-7.652343-17.066406-17.066406.070313-9.398437 7.667969-16.996094 17.066406-17.066406h34.132813c9.414062.027343 17.039062 7.652343 17.066406 17.066406zm0 0" fill="#ad1457"/><path d="m252.164062 383.855469c9.414063.027343 17.039063 7.652343 17.066407 17.066406-.070313 9.394531-7.671875 16.996094-17.066407 17.066406 9.425782 0 17.066407 7.640625 17.066407 17.066407 0 9.425781-7.640625 17.066406-17.066407 17.066406h-12.800781c-9.425781 0-17.066406-7.640625-17.066406-17.066406 0-9.425782 7.640625-17.066407 17.066406-17.066407-9.414062-.027343-17.039062-7.652343-17.066406-17.066406.070313-9.398437 7.667969-16.996094 17.066406-17.066406-9.425781 0-17.066406-7.640625-17.066406-17.066407 0-9.425781 7.640625-17.066406 17.066406-17.066406-9.414062-.027344-17.039062-7.652344-17.066406-17.066406.070313-9.398438 7.667969-17 17.066406-17.066406h12.800781c9.414063.027344 17.039063 7.652344 17.066407 17.066406-.070313 9.394531-7.671875 16.996094-17.066407 17.066406 9.425782 0 17.066407 7.640625 17.066407 17.066406 0 9.425782-7.640625 17.066407-17.066407 17.066407zm0 0" fill="#9d27b0"/><path d="m269.230469 332.65625c-.070313 9.394531-7.671875 16.996094-17.066407 17.066406h-12.800781c-9.414062-.027344-17.039062-7.652344-17.066406-17.066406.070313-9.398438 7.667969-17 17.066406-17.066406h12.800781c9.414063.027344 17.039063 7.652344 17.066407 17.066406zm0 0" fill="#e91e63"/><path d="m269.230469 400.921875c-.070313 9.394531-7.671875 16.996094-17.066407 17.066406h-12.800781c-9.414062-.027343-17.039062-7.652343-17.066406-17.066406.070313-9.398437 7.667969-16.996094 17.066406-17.066406h12.800781c9.414063.027343 17.039063 7.652343 17.066407 17.066406zm0 0" fill="#e91e63"/><path d="m188.164062 460.65625v42.664062h-85.335937v-34.132812c5.195313-10.46875 15.878906-17.082031 27.5625-17.066406h49.238281c4.714844 0 8.535156 3.820312 8.535156 8.535156zm0 0" fill="#ad1457"/><path d="m307.628906 469.1875v34.132812h-85.332031v-42.664062c0-4.714844 3.820313-8.535156 8.53125-8.535156h49.238281c11.6875-.015625 22.371094 6.597656 27.5625 17.066406zm0 0" fill="#ad1457"/><path d="m166.828125 460.65625v42.664062h-68.265625v-34.132812c5.195312-10.46875 15.878906-17.082031 27.5625-17.066406h32.171875c4.710937 0 8.53125 3.820312 8.53125 8.535156zm0 0" fill="#e91e63"/><path d="m286.296875 473.453125v34.136719h-68.265625v-42.667969c0-4.714844 3.820312-8.535156 8.53125-8.535156h32.171875c11.683594-.015625 22.367187 6.601562 27.5625 17.066406zm0 0" fill="#e91e63"/><path d="m111.363281 196.121094h187.734375c9.425782 0 17.066406 7.640625 17.066406 17.066406v85.335938c0 9.421874-7.640624 17.066406-17.066406 17.066406h-187.734375c-9.425781 0-17.066406-7.644532-17.066406-17.066406v-85.335938c0-9.425781 7.640625-17.066406 17.066406-17.066406zm0 0" fill="#6a1b9a"/><path d="m111.363281 196.121094h166.398438c9.425781 0 17.066406 7.640625 17.066406 17.066406v85.335938c0 9.421874-7.640625 17.066406-17.066406 17.066406h-166.398438c-9.425781 0-17.066406-7.644532-17.066406-17.066406v-85.335938c0-9.425781 7.640625-17.066406 17.066406-17.066406zm0 0" fill="#9d27b0"/><path d="m264.964844 136.386719v42.667969c-.03125 9.414062-7.65625 17.039062-17.066406 17.066406h-85.335938c-9.414062-.027344-17.039062-7.652344-17.066406-17.066406v-42.667969c-.023438-28.871094 20.648437-53.605469 49.066406-58.707031 3.515625-.691407 7.085938-1.035157 10.667969-1.023438 32.988281 0 59.734375 26.742188 59.734375 59.730469zm0 0" fill="#ad1457"/><path d="m243.628906 136.386719v42.667969c-.027344 9.414062-7.652344 17.039062-17.066406 17.066406h-64c-9.414062-.027344-17.039062-7.652344-17.066406-17.066406v-42.667969c-.023438-28.871094 20.648437-53.605469 49.066406-58.707031 11.976562 2.085937 23.007812 7.839843 31.574219 16.46875 11.234375 11.179687 17.535156 26.390624 17.492187 42.238281zm0 0" fill="#e91e63"/><path d="m60.164062 238.789062c0 14.136719-11.460937 25.597657-25.601562 25.597657-2.914062.019531-5.808594-.5-8.53125-1.535157-10.226562-3.582031-17.070312-13.230468-17.070312-24.0625 0-10.832031 6.84375-20.484374 17.070312-24.066406 2.722656-1.03125 5.617188-1.550781 8.53125-1.535156 14.140625 0 25.601562 11.460938 25.601562 25.601562zm0 0" fill="#ad1457"/><path d="m401.496094 238.789062c0 14.136719-11.460938 25.597657-25.597656 25.597657-2.917969.019531-5.808594-.5-8.535157-1.535157-10.222656-3.582031-17.070312-13.230468-17.070312-24.0625 0-10.832031 6.847656-20.484374 17.070312-24.066406 2.726563-1.03125 5.617188-1.550781 8.535157-1.535156 14.136718 0 25.597656 11.460938 25.597656 25.601562zm0 0" fill="#ad1457"/><path d="m43.097656 238.789062c0-13.289062-7.640625-24.066406-17.066406-24.066406s-17.066406 10.777344-17.066406 24.066406c0 13.289063 7.640625 24.0625 17.066406 24.0625s17.066406-10.773437 17.066406-24.0625zm0 0" fill="#e91e63"/><path d="m384.429688 238.789062c0-13.289062-7.640626-24.066406-17.066407-24.066406s-17.066406 10.777344-17.066406 24.066406c0 13.289063 7.640625 24.0625 17.066406 24.0625s17.066407-10.773437 17.066407-24.0625zm0 0" fill="#e91e63"/><path d="m136.964844 230.253906h68.265625c4.710937 0 8.53125 3.820313 8.53125 8.535156v34.132813c0 4.710937-3.820313 8.53125-8.53125 8.53125h-68.265625c-4.714844 0-8.535156-3.820313-8.535156-8.53125v-34.132813c0-4.714843 3.820312-8.535156 8.535156-8.535156zm0 0" fill="#ffb301"/><path d="m136.964844 230.253906h46.933594c4.710937 0 8.53125 3.820313 8.53125 8.535156v34.132813c0 4.710937-3.820313 8.53125-8.53125 8.53125h-46.933594c-4.714844 0-8.535156-3.820313-8.535156-8.53125v-34.132813c0-4.714843 3.820312-8.535156 8.535156-8.535156zm0 0" fill="#fdd834"/><g fill="#ad1457"><path d="m51.628906 341.1875c0 9.425781-7.640625 17.066406-17.066406 17.066406s-17.066406-7.640625-17.066406-17.066406 7.640625-17.066406 17.066406-17.066406 17.066406 7.640625 17.066406 17.066406zm0 0"/><path d="m60.164062 409.453125v.257813c-.539062 10.707031-9.507812 19.03125-20.226562 18.773437h-10.75c-1 .003906-2-.082031-2.988281-.257813-9.800781-1.199218-17.179688-9.496093-17.234375-19.367187.027344-1.289063.140625-2.570313.339844-3.839844 1.609374-9.082031 7.957031-16.605469 16.640624-19.714843 1.222657-.429688 2.480469-.773438 3.753907-1.023438 7.507812-1.453125 15.273437.527344 21.171875 5.398438 5.894531 4.875 9.304687 12.125 9.292968 19.773437zm0 0"/><path d="m392.964844 341.1875c0 9.425781-7.644532 17.066406-17.066406 17.066406-9.425782 0-17.070313-7.640625-17.070313-17.066406s7.644531-17.066406 17.070313-17.066406c9.421874 0 17.066406 7.640625 17.066406 17.066406zm0 0"/><path d="m401.496094 409.453125v.257813c-.539063 10.707031-9.507813 19.03125-20.222656 18.773437h-10.753907c-1 .003906-2-.082031-2.984375-.257813-9.800781-1.199218-17.183594-9.496093-17.238281-19.367187.027344-1.289063.144531-2.570313.339844-3.839844 1.609375-9.082031 7.960937-16.605469 16.640625-19.714843 1.226562-.429688 2.480468-.773438 3.753906-1.023438 7.511719-1.453125 15.277344.527344 21.171875 5.398438 5.898437 4.875 9.304687 12.125 9.292969 19.773437zm0 0"/></g><path d="m43.097656 409.453125v.257813c-.445312 9.433593-7.542968 17.214843-16.898437 18.515624-9.800781-1.199218-17.179688-9.496093-17.234375-19.367187.027344-1.289063.140625-2.570313.339844-3.839844 1.609374-9.082031 7.957031-16.605469 16.640624-19.714843 10.265626 3.589843 17.144532 13.273437 17.152344 24.148437zm0 0" fill="#e91e63"/><path d="m384.429688 409.453125v.257813c-.441407 9.433593-7.542969 17.214843-16.894532 18.515624-9.800781-1.199218-17.183594-9.496093-17.238281-19.367187.027344-1.289063.144531-2.570313.339844-3.839844 1.609375-9.082031 7.960937-16.605469 16.640625-19.714843 10.265625 3.589843 17.144531 13.273437 17.152344 24.148437zm0 0" fill="#e91e63"/><path d="m128.429688 85.1875c0 9.425781-7.640626 17.066406-17.066407 17.066406s-17.066406-7.640625-17.066406-17.066406 7.640625-17.066406 17.066406-17.066406 17.066407 7.640625 17.066407 17.066406zm0 0" fill="#fdd834"/><path d="m316.164062 85.1875c0 9.425781-7.640624 17.066406-17.066406 17.066406-9.425781 0-17.066406-7.640625-17.066406-17.066406s7.640625-17.066406 17.066406-17.066406c9.425782 0 17.066406 7.640625 17.066406 17.066406zm0 0" fill="#fdd834"/><path d="m196.695312 136.386719c0 4.714843-3.820312 8.535156-8.53125 8.535156-4.714843 0-8.535156-3.820313-8.535156-8.535156 0-4.710938 3.820313-8.53125 8.535156-8.53125 4.710938 0 8.53125 3.820312 8.53125 8.53125zm0 0"/><path d="m230.828125 136.386719c0 4.714843-3.820313 8.535156-8.53125 8.535156-4.714844 0-8.535156-3.820313-8.535156-8.535156 0-4.710938 3.820312-8.53125 8.535156-8.53125 4.710937 0 8.53125 3.820312 8.53125 8.53125zm0 0"/><path d="m247.898438 238.789062c-1.117188-.015624-2.21875-.246093-3.246094-.683593-1.054688-.390625-2.011719-1.003907-2.816406-1.792969-1.554688-1.636719-2.441407-3.796875-2.472657-6.058594.011719-1.113281.246094-2.214844.683594-3.242187.773437-2.144531 2.464844-3.832031 4.605469-4.609375 3.183594-1.285156 6.828125-.582032 9.304687 1.792968.75.832032 1.355469 1.785157 1.789063 2.816407.4375 1.027343.671875 2.128906.683594 3.242187.023437 2.269532-.867188 4.457032-2.472657 6.058594-1.605469 1.605469-3.789062 2.5-6.058593 2.476562zm0 0"/><path d="m282.03125 238.789062c-1.117188-.015624-2.21875-.246093-3.242188-.683593-1.058593-.390625-2.015624-1.003907-2.816406-1.792969-1.558594-1.636719-2.441406-3.796875-2.476562-6.058594.015625-1.113281.246094-2.214844.683594-3.242187.773437-2.144531 2.464843-3.832031 4.609374-4.609375 3.179688-1.285156 6.824219-.582032 9.300782 1.792968.75.832032 1.359375 1.785157 1.789062 2.816407.4375 1.027343.671875 2.128906.683594 3.242187.023438 2.269532-.867188 4.457032-2.472656 6.058594-1.605469 1.605469-3.789063 2.5-6.058594 2.476562zm0 0"/><path d="m247.898438 289.988281c4.710937 0 8.53125-3.820312 8.53125-8.535156v-25.597656c0-4.714844-3.820313-8.535157-8.53125-8.535157-4.714844 0-8.535157 3.820313-8.535157 8.535157v25.597656c0 4.714844 3.820313 8.535156 8.535157 8.535156zm0 0"/><path d="m282.03125 289.988281c4.710938 0 8.53125-3.820312 8.53125-8.535156v-25.597656c0-4.714844-3.820312-8.535157-8.53125-8.535157-4.714844 0-8.535156 3.820313-8.535156 8.535157v25.597656c0 4.714844 3.820312 8.535156 8.535156 8.535156zm0 0"/><path d="m136.964844 289.988281h68.265625c9.425781 0 17.066406-7.640625 17.066406-17.066406v-34.132813c0-9.425781-7.640625-17.066406-17.066406-17.066406h-68.265625c-9.425782 0-17.066406 7.640625-17.066406 17.066406v34.132813c0 9.425781 7.640624 17.066406 17.066406 17.066406zm0-51.199219h68.265625v34.132813h-68.265625zm0 0"/><path d="m.429688 409.453125c.027343 8.378906 3.175781 16.445313 8.832031 22.625-.1875.980469-.285157 1.976563-.296875 2.976563v17.066406c0 4.714844 3.820312 8.535156 8.53125 8.535156 4.714844 0 8.535156-3.820312 8.535156-8.535156v-17.066406h17.066406v17.066406c0 4.714844 3.820313 8.535156 8.53125 8.535156 4.714844 0 8.535156-3.820312 8.535156-8.535156v-17.066406c-.011718-1-.113281-1.996094-.300781-2.976563 5.65625-6.179687 8.804688-14.246094 8.832031-22.625-.054687-15.605469-10.6875-29.191406-25.828124-32.988281.101562-.375.179687-.757813.230468-1.144532v-10.101562c10.222656-3.5625 17.074219-13.203125 17.074219-24.03125 0-10.824219-6.851563-20.46875-17.074219-24.027344v-11.667968c10.023438-3.382813 16.851563-12.691407 17.066406-23.269532l.851563-9.300781h24.746094v25.601563c0 14.136718 11.464843 25.597656 25.601562 25.597656h1.570313c-3.28125 8.816406-1.300782 18.726562 5.121094 25.601562-8.875 9.644532-8.875 24.484375 0 34.132813-8.875 9.648437-8.875 24.484375 0 34.132812-7.296876 7.871094-8.746094 19.523438-3.601563 28.945313-6.671875 2.9375-12.386719 7.691406-16.488281 13.722656h-12.203125c-14.136719 0-25.597657 11.460938-25.597657 25.597656v8.535156c0 9.425782 7.640626 17.066407 17.066407 17.066407h256c9.425781 0 17.066406-7.640625 17.066406-17.066407v-8.535156c0-14.136718-11.460937-25.597656-25.601563-25.597656h-12.203124c-4.089844-6.023438-9.789063-10.777344-16.449219-13.722656 5.140625-9.421875 3.691406-21.074219-3.601563-28.945313 8.875-9.648437 8.875-24.484375 0-34.132812 8.875-9.648438 8.875-24.488281 0-34.132813 6.417969-6.875 8.402344-16.785156 5.117188-25.601562h1.539062c14.136719 0 25.597656-11.460938 25.597656-25.597656v-25.601563h24.808594l.792969 8.53125c.042969 10.8125 6.875 20.429687 17.066406 24.03125v11.675781c-10.222656 3.558594-17.074219 13.203125-17.074219 24.027344 0 10.828125 6.851563 20.46875 17.074219 24.03125v10.101562c.050781.386719.128907.769532.230469 1.144532-15.140625 3.796875-25.777344 17.382812-25.832031 32.988281.027343 8.378906 3.179687 16.445313 8.832031 22.625-.183594.980469-.285156 1.976563-.296875 2.976563v17.066406c0 4.714844 3.820313 8.535156 8.53125 8.535156 4.714844 0 8.535156-3.820312 8.535156-8.535156v-17.066406h17.066407v17.066406c0 4.714844 3.820312 8.535156 8.535156 8.535156 4.710937 0 8.53125-3.820312 8.53125-8.535156v-17.066406c-.011719-1-.113282-1.996094-.296875-2.976563 5.652343-6.179687 8.804687-14.246094 8.832031-22.625-.054688-15.605469-10.691406-29.191406-25.832031-32.988281.101562-.375.179687-.757813.230469-1.144532v-10.101562c10.222656-3.5625 17.074218-13.203125 17.074218-24.03125 0-10.824219-6.851562-20.46875-17.074218-24.027344v-11.667968c10.023437-3.378907 16.847656-12.679688 17.066406-23.253907l2.132812-23.660156c4.160156-5.761719 6.398438-12.683594 6.402344-19.789063 0-18.851562-15.285156-34.132812-34.132812-34.132812h-52.773438c-3.601562-10.191406-13.21875-17.023438-24.027344-17.066406h-27.171875c1.011719-2.734375 1.542969-5.621094 1.570313-8.535156v-25.601563c18.851562 0 34.132812-15.28125 34.132812-34.132813v-10.101562c10.226563-3.5625 17.074219-13.203125 17.074219-24.03125 0-10.824219-6.847656-20.46875-17.074219-24.027344v-10.105468c0-4.710938-3.820312-8.53125-8.53125-8.53125h-25.601562v-17.070313c0-2.957031-1.527344-5.703125-4.042969-7.257813-2.515625-1.558593-5.660156-1.699218-8.304687-.378906l-27.757813 13.886719-21.335937-28.433594c-.265626-.28125-.550782-.546875-.851563-.792969-.261719-.328124-.546875-.632812-.851563-.914062-.136718-.101562-.300781-.121094-.445312-.214844-.507812-.308594-1.050781-.566406-1.613281-.757812-.460938-.214844-.945313-.386719-1.441407-.5039065-1.078124-.1132813-2.164062-.1132813-3.242187 0-.492187.1171875-.972656.2851565-1.433594.4960935-.566406.199219-1.109375.457031-1.621093.765625-.136719.09375-.308594.113282-.445313.214844-.308594.28125-.59375.589844-.851563.921875-.304687.242187-.589843.503906-.855468.785156l-21.332032 28.433594-27.757812-13.886719c-2.648438-1.320312-5.789062-1.179687-8.304688.378906-2.515624 1.554688-4.046874 4.300782-4.042968 7.257813v17.070313h-25.601563c-4.714843 0-8.535156 3.820312-8.535156 8.53125v10.105468c-10.222656 3.558594-17.074219 13.203125-17.074219 24.027344 0 10.828125 6.851563 20.46875 17.074219 24.03125v10.101562c0 18.851563 15.285156 34.132813 34.136719 34.132813v25.601563c.027344 2.914062.558594 5.800781 1.570312 8.535156h-27.171875c-10.808593.042968-20.425781 6.875-24.03125 17.066406h-52.769531c-12.785156-.042969-24.511719 7.085938-30.363281 18.453125-5.851563 11.367187-4.835938 25.054687 2.628906 35.433594l2.136719 22.910156c.042968 10.8125 6.875 20.429687 17.066406 24.03125v11.675781c-10.226562 3.558594-17.074219 13.203125-17.074219 24.027344 0 10.828125 6.847657 20.46875 17.074219 24.03125v10.101562c.050781.386719.125.769532.230469 1.144532-15.140625 3.796875-25.777344 17.382812-25.832031 32.988281zm281.601562-42.664063c0 4.710938-3.820312 8.53125-8.535156 8.53125h-34.132813c-4.714843 0-8.535156-3.820312-8.535156-8.53125 0-4.714843 3.820313-8.535156 8.535156-8.535156h34.132813c4.714844 0 8.535156 3.820313 8.535156 8.535156zm0 34.132813c0 4.710937-3.820312 8.53125-8.535156 8.53125h-34.132813c-4.714843 0-8.535156-3.820313-8.535156-8.53125 0-4.714844 3.820313-8.535156 8.535156-8.535156h34.132813c4.714844 0 8.535156 3.820312 8.535156 8.535156zm0 34.132813c0 4.714843-3.820312 8.535156-8.535156 8.535156h-34.132813c-4.714843 0-8.535156-3.820313-8.535156-8.535156 0-4.710938 3.820313-8.53125 8.535156-8.53125h34.132813c4.714844 0 8.535156 3.820312 8.535156 8.53125zm-61.613281-85.332032c-8.875 9.644532-8.875 24.484375 0 34.132813-8.875 9.648437-8.875 24.484375 0 34.132812-7.933594 8.664063-8.875 21.648438-2.277344 31.367188-2.804687 3.097656-4.363281 7.121093-4.378906 11.300781h-17.066407c-.011718-4.179688-1.574218-8.203125-4.375-11.300781 6.597657-9.71875 5.652344-22.703125-2.28125-31.367188 8.875-9.648437 8.875-24.484375 0-34.132812 8.875-9.648438 8.875-24.488281 0-34.132813 6.421876-6.875 8.402344-16.785156 5.121094-25.601562h20.207032c-3.28125 8.816406-1.300782 18.726562 5.121093 25.601562zm-91.988281 85.332032c0-4.710938 3.820312-8.53125 8.535156-8.53125h34.132812c4.710938 0 8.53125 3.820312 8.53125 8.53125 0 4.714843-3.820312 8.535156-8.53125 8.535156h-34.132812c-4.714844 0-8.535156-3.820313-8.535156-8.535156zm0-34.132813c0-4.714844 3.820312-8.535156 8.535156-8.535156h34.132812c4.710938 0 8.53125 3.820312 8.53125 8.535156 0 4.710937-3.820312 8.53125-8.53125 8.53125h-34.132812c-4.714844 0-8.535156-3.820313-8.535156-8.53125zm0-34.132813c0-4.714843 3.820312-8.535156 8.535156-8.535156h34.132812c4.710938 0 8.53125 3.820313 8.53125 8.535156 0 4.710938-3.820312 8.53125-8.53125 8.53125h-34.132812c-4.714844 0-8.535156-3.820312-8.535156-8.53125zm51.199218-34.132812c0 4.710938-3.820312 8.53125-8.53125 8.53125h-34.132812c-4.714844 0-8.535156-3.820312-8.535156-8.53125 0-4.714844 3.820312-8.535156 8.535156-8.535156h34.132812c4.710938 0 8.53125 3.820312 8.53125 8.535156zm-49.269531 128h49.269531v34.132812h-68.265625v-23.117187c3.910157-6.800781 11.148438-11.003906 18.996094-11.015625zm-53.128906 25.597656c0-4.710937 3.820312-8.53125 8.53125-8.53125h8.535156v17.066406h-17.066406zm119.464843-8.53125h17.066407v17.066406h-17.066407zm119.46875 0h8.53125c4.714844 0 8.535157 3.820313 8.535157 8.53125v8.535156h-17.066407zm-17.066406-6.050781v23.117187h-68.269531v-34.132812h49.273437c7.84375.011719 15.085938 4.214844 18.996094 11.015625zm-17.066406-139.015625c0 4.710938-3.820312 8.53125-8.535156 8.53125h-34.132813c-4.714843 0-8.535156-3.820312-8.535156-8.53125 0-4.714844 3.820313-8.535156 8.535156-8.535156h34.132813c4.714844 0 8.535156 3.820312 8.535156 8.535156zm64.476562-76.800781h-21.8125v-34.132813h21.8125c-6.328124 10.496094-6.328124 23.632813 0 34.132813zm46.457032 153.597656c-.003906 3.410156-1.03125 6.738281-2.953125 9.550781-1.789063-.652344-3.675781-.996094-5.582031-1.015625h-17.066407c-1.90625.019531-3.792969.363281-5.582031 1.015625-4.121094-6.066406-3.910156-14.085937.53125-19.925781 4.4375-5.835937 12.109375-8.1875 19.054688-5.835937 6.949218 2.351562 11.617187 8.878906 11.597656 16.210937zm-17.066406-59.730469c-4.714844 0-8.535157-3.820312-8.535157-8.535156 0-4.710938 3.820313-8.53125 8.535157-8.53125 4.710937 0 8.53125 3.820312 8.53125 8.53125 0 4.714844-3.820313 8.535156-8.53125 8.535156zm0-59.734375c-2.378907-.066406-4.628907-1.089843-6.238282-2.84375-1.609375-1.753906-2.4375-4.082031-2.296875-6.457031l-.742187-7.765625h9.277344c3.199218-.046875 6.378906-.546875 9.4375-1.492187l-.90625 10.023437c0 4.714844-3.820313 8.535156-8.53125 8.535156zm17.066406-51.199219c0 9.425782-7.644532 17.066407-17.066406 17.066407-9.425782 0-17.070313-7.640625-17.070313-17.066407 0-9.425781 7.644531-17.066406 17.070313-17.066406 9.421874 0 17.066406 7.640625 17.066406 17.066406zm-93.867188-145.066406c-4.714844 0-8.535156-3.820312-8.535156-8.535156 0-4.710938 3.820312-8.53125 8.535156-8.53125 4.710938 0 8.53125 3.820312 8.53125 8.53125 0 4.714844-3.820312 8.535156-8.53125 8.535156zm-187.734375-17.066406c4.710938 0 8.535157 3.820312 8.535157 8.53125 0 4.714844-3.824219 8.535156-8.535157 8.535156-4.714843 0-8.535156-3.820312-8.535156-8.535156 0-4.710938 3.820313-8.53125 8.535156-8.53125zm8.535157 42.664062v-10.101562c10.222656-3.5625 17.074218-13.203125 17.074218-24.03125 0-10.824219-6.851562-20.46875-17.074218-24.027344v-1.570312h25.597656c4.714844 0 8.535156-3.820313 8.535156-8.535156v-11.792969l21.785156 10.941406c3.699219 1.832031 8.179688.753906 10.640625-2.5625l18.773438-25.035156 18.773437 25.035156c2.472656 3.300781 6.949219 4.359375 10.640625 2.519531l21.785157-10.898437v11.792969c0 4.714843 3.820312 8.535156 8.535156 8.535156h25.597656v1.570312c-10.222656 3.558594-17.074219 13.203125-17.074219 24.027344 0 10.828125 6.851563 20.46875 17.074219 24.03125v10.101562c0 9.425782-7.640625 17.066407-17.066406 17.066407 0-37.699219-30.5625-68.265625-68.265625-68.265625s-68.265625 30.566406-68.265625 68.265625c-9.425782 0-17.066406-7.640625-17.066406-17.066407zm34.132812 59.734376v-42.667969c0-28.277344 22.921875-51.199219 51.199219-51.199219 28.277343 0 51.199219 22.921875 51.199219 51.199219v42.667969c0 4.714843-3.820313 8.535156-8.53125 8.535156h-85.335938c-4.710938 0-8.53125-3.820313-8.53125-8.535156zm-42.667969 25.601562h187.734375c4.710938 0 8.53125 3.820312 8.53125 8.53125v85.335938c0 4.710937-3.820312 8.53125-8.53125 8.53125h-187.734375c-4.714843 0-8.535156-3.820313-8.535156-8.53125v-85.335938c0-4.710938 3.820313-8.53125 8.535156-8.53125zm-25.601562 51.199219h-21.808594c2.113281-3.617188 3.542969-7.597657 4.207031-11.734375 0-.210938.144532-.382813.167969-.597656l.34375-4.011719c-.003906-.066407-.003906-.132813 0-.203125 0-.179688.050781-.339844.050781-.519532-.035156-6.011718-1.671875-11.902343-4.746094-17.066406h21.785157zm-51.199219-34.132813c9.355469 0 16.96875 7.53125 17.066406 16.886719l-.1875 2.226563c-1.097656 9.101562-9.195312 15.707031-18.332031 14.960937s-16.050781-8.578125-15.660156-17.734375c.390625-9.160156 7.945312-16.375 17.113281-16.339844zm-9.386719 49.707032c3.042969.941406 6.203125 1.441406 9.386719 1.492187h9.300781l-.765625 8.53125c0 4.714844-3.820312 8.535156-8.535156 8.535156-2.378906-.066406-4.632812-1.09375-6.242188-2.851562-1.609374-1.753907-2.433593-4.089844-2.289062-6.46875zm9.386719 61.226562c4.714844 0 8.535156 3.820312 8.535156 8.53125 0 4.714844-3.820312 8.535156-8.535156 8.535156-4.710938 0-8.53125-3.820312-8.53125-8.535156 0-4.710938 3.820312-8.53125 8.53125-8.53125zm0 59.730469c6.308594.011719 12.09375 3.5 15.046875 9.074219 2.953125 5.570312 2.597656 12.316406-.933594 17.542968-1.789062-.652344-3.675781-.996094-5.578125-1.015625h-17.066406c-1.90625.019531-3.792969.363281-5.582031 1.015625-3.527344-5.226562-3.886719-11.972656-.933594-17.542968 2.957031-5.574219 8.742187-9.0625 15.046875-9.074219zm0 0"/></svg>