<svg height="512pt" viewBox="0 0 512 512.0055" width="512pt" xmlns="http://www.w3.org/2000/svg"><path d="m450.902344 426.917969-18.515625 37.207031c-5.035157 5.289062-22.273438 10.15625-38.574219 7.851562-.714844-.066406-1.429688-.179687-2.132812-.34375-1.789063-.238281-3.554688-.605468-5.289063-1.109374l-29.015625-21.585938c-.082031-.515625-.167969-1.109375-.253906-1.707031v-.085938c-.609375-6.671875-.582032-13.386719.085937-20.054687 1.875-20.992188 8.960938-74.238282 20.308594-103.253906 2.578125-6.515626 8.863281-10.808594 15.871094-10.835938h11.863281l16.554688-.085938c7.558593-.089843 14.253906 4.863282 16.382812 12.117188 7.890625 33.40625 12.15625 67.566406 12.714844 101.886719zm0 0" fill="#4527a0"/><path d="m429.570312 426.917969-18.519531 37.207031c-5.609375 4.292969-12.332031 6.898438-19.371093 7.507812-1.789063-.238281-3.554688-.605468-5.289063-1.109374l-29.015625-21.585938c-.082031-.515625-.167969-1.109375-.253906-1.707031v-.085938c-.609375-6.671875-.582032-13.386719.085937-20.054687 1.875-20.992188 8.960938-74.238282 20.308594-103.253906 2.578125-6.515626 8.863281-10.808594 15.871094-10.835938h7.59375c7.371093.058594 13.824219 4.953125 15.875 12.03125 7.890625 33.40625 12.152343 67.566406 12.714843 101.886719zm0 0" fill="#673ab7"/><path d="m469.335938 486.738281c-.1875 9.292969-7.773438 16.726563-17.066407 16.726563-.828125-.015625-1.65625-.074219-2.476562-.171875-2.167969-.296875-4.257813-1.019531-6.144531-2.132813-5.300782-3.050781-8.535157-8.734375-8.449219-14.847656.28125-8.496094-.988281-16.96875-3.753907-25.003906-1.492187-4.371094-3.648437-8.488282-6.398437-12.203125-.085937-.085938-.171875-.253907-.257813-.339844-2.054687-2.8125-3.242187-6.164063-3.414062-9.644531-.15625-2.148438.164062-4.304688.941406-6.3125 1.007813-2.566406 2.582032-4.871094 4.605469-6.742188.933594-.863281 1.964844-1.605468 3.074219-2.21875 4.699218-2.785156 10.464844-3.105468 15.445312-.851562 4.53125 2.519531 8.191406 6.359375 10.496094 11.007812 2.710938 4.289063 5 8.832032 6.824219 13.566406 2.207031 5.652344 3.835937 11.511719 4.867187 17.492188 1.25 7.15625 1.820313 14.414062 1.707032 21.675781zm0 0" fill="#f57c00"/><g fill="#ffb301"><path d="m452.269531 486.738281c-.09375 6-3.378906 11.5-8.621093 14.421875-5.300782-3.050781-8.535157-8.734375-8.449219-14.847656.28125-8.496094-.988281-16.96875-3.753907-25.003906-1.492187-4.371094-3.648437-8.488282-6.398437-12.203125-.085937-.085938-.171875-.253907-.257813-.339844-2.054687-2.8125-3.242187-6.164063-3.414062-9.644531-.15625-2.148438.164062-4.304688.941406-6.3125 1.007813-2.566406 2.582032-4.871094 4.605469-6.742188.933594-.863281 1.964844-1.605468 3.074219-2.21875 3.710937 2.644532 6.75 6.121094 8.875 10.15625 2.710937 4.289063 5 8.832032 6.824218 13.566406 2.207032 5.652344 3.835938 11.511719 4.867188 17.492188 1.246094 7.15625 1.820312 14.414062 1.707031 21.675781zm0 0"/><path d="m365.601562 503.464844c8.433594.019531 15.601563-6.164063 16.820313-14.507813 1.699219-10.976562 4.488281-21.757812 8.328125-32.179687 2.960938-8.136719-.648438-17.203125-8.386719-21.085938-4.355469-2.175781-9.429687-2.390625-13.953125-.585937-4.519531 1.800781-8.058594 5.449219-9.71875 10.023437-4.675781 12.632813-8.046875 25.710938-10.0625 39.03125-.644531 4.882813.851563 9.808594 4.105469 13.507813 3.25 3.699219 7.941406 5.8125 12.867187 5.796875zm0 0"/><path d="m357.199219 427.089844c-2.765625-3.871094-7.035157-6.402344-11.757813-6.972656-4.726562-.566407-9.472656.878906-13.074218 3.988281-4.058594 3.460937-7.933594 7.136719-11.605469 11.007812-3.703125 3.925781-5.328125 9.371094-4.386719 14.679688.941406 5.3125 4.339844 9.867187 9.164062 12.285156 2.363282 1.164063 4.960938 1.777344 7.59375 1.789063 4.757813 0 9.300782-1.976563 12.542969-5.460938 2.785157-2.910156 5.71875-5.671875 8.792969-8.277344.988281-.859375 1.878906-1.832031 2.644531-2.898437v-.085938"/></g><path d="m315.476562 341.484375c-2.644531 17.492187-28.242187 31.144531-59.476562 31.144531-31.230469 0-56.832031-13.652344-59.476562-31.144531v-.085937l57.882812-8.535157zm0 0" fill="#8697cb"/><path d="m423.425781 270.164062c-2.996093 7.597657-9.273437 13.429688-17.066406 15.871094-10.121094 3.117188-20.867187 3.617188-31.234375 1.449219-.1875-.667969-.414062-1.320313-.679688-1.960937-4.128906-11.921876-11.628906-22.386719-21.589843-30.125l27.5625-24.746094 11.175781-10.070313c14.609375 13.589844 25.554688 30.640625 31.832031 49.582031zm0 0" fill="#283593"/><path d="m410.625 278.695312c-1.035156 2.652344-2.472656 5.128907-4.265625 7.339844-10.121094 3.117188-20.867187 3.617188-31.234375 1.449219-.1875-.667969-.414062-1.320313-.679688-1.960937-4.128906-11.921876-11.628906-22.386719-21.589843-30.125l27.5625-24.746094c13.761719 13.371094 24.121093 29.847656 30.207031 48.042968zm0 0" fill="#3f51b5"/><path d="m187.734375 253.523438c-8.316406 1.84375-16.875 2.332031-25.34375 1.449218-1.449219-.085937-2.902344-.339844-4.351563-.511718-23.296874-3.5-42.324218-16.640626-37.632812-33.878907.101562-.519531.246094-1.035156.425781-1.535156 4.660157-10.96875 15.476563-18.042969 27.394531-17.917969 5.839844-.648437 11.734376-.648437 17.578126 0zm0 0" fill="#673ab7"/><path d="m332.542969 254.972656c-2.8125-.339844-5.542969-.851562-8.273438-1.449218l21.929688-52.394532h.511719c12.371093-1.28125 38.058593-1.28125 44.457031 17.917969.183593.5.324219 1.015625.425781 1.535156 6.144531 22.445313-27.902344 37.804688-59.050781 34.390625zm0 0" fill="#4527a0"/><path d="m170.667969 253.523438c-2.730469.597656-5.460938 1.109374-8.277344 1.449218-1.449219-.085937-2.902344-.339844-4.351563-.511718-23.296874-3.5-42.324218-16.640626-37.632812-33.878907.101562-.519531.246094-1.035156.425781-1.535156 4.660157-10.96875 15.476563-18.042969 27.394531-17.917969h.511719zm0 0" fill="#673ab7"/><path d="m332.542969 254.972656c-2.8125-.339844-5.542969-.851562-8.273438-1.449218l21.929688-52.394532h.511719c11.914062-.125 22.730468 6.949219 27.390624 17.917969.183594.5.324219 1.015625.425782 1.535156 5.035156 18.347657-16.808594 32-41.984375 34.390625zm0 0" fill="#673ab7"/><path d="m332.800781 234.578125v69.804687c.183594 8.109376-1.359375 16.164063-4.523437 23.636719-2.617188 5.8125-7.128906 10.566407-12.800782 13.480469-8.621093 4.496094-18.882812 4.558594-27.5625.171875-4.164062-2.066406-8.746093-3.144531-13.394531-3.15625h-37.035156c-4.648437.011719-9.234375 1.089844-13.398437 3.15625-8.679688 4.382813-18.9375 4.320313-27.5625-.171875v-.085938c-5.675782-2.863281-10.195313-7.59375-12.800782-13.394531-3.164062-7.472656-4.707031-15.527343-4.523437-23.636719v-69.804687zm0 0" fill="#37474f"/><path d="m315.734375 234.578125v61.269531c.183594 8.109375-1.359375 16.167969-4.523437 23.636719-2.617188 5.8125-7.128907 10.566406-12.800782 13.484375-8.621094 4.492188-18.882812 4.554688-27.5625.167969-4.164062-2.0625-8.746094-3.144531-13.394531-3.15625h-37.035156c-4.648438.011719-9.234375 1.09375-13.398438 3.15625-4.230469 2.144531-8.910156 3.257812-13.652343 3.246093-1.402344.015626-2.800782-.097656-4.183594-.34375-2.292969-2.316406-4.144532-5.035156-5.460938-8.019531-3.164062-7.472656-4.707031-15.527343-4.523437-23.636719v-69.804687zm0 0" fill="#607d8b"/><path d="m343.125 177.148438c-5.417969 3.097656-11.292969 5.316406-17.40625 6.570312-6.464844 1.535156-13.175781 1.710938-19.710938.511719.9375-.167969 1.789063-.339844 2.644532-.511719 6.113281-1.253906 11.988281-3.472656 17.40625-6.570312l-31.144532-102.742188c-2.832031-10.339844-12.234374-17.507812-22.957031-17.492188h17.066407c10.722656-.015624 20.125 7.152344 22.957031 17.492188zm0 0" fill="#f57c00"/><path d="m326.058594 177.148438c-5.417969 3.097656-11.292969 5.316406-17.40625 6.570312-.855469.171875-1.707032.34375-2.644532.511719h-.085937c-2.453125-.648438-4.789063-1.683594-6.914063-3.070313-6.914062-5.878906-10.929687-14.476562-11.007812-23.550781-1.535156-11.777344-2.132812-23.554687-3.414062-35.414063-1.035157-9.027343-8.664063-15.847656-17.746094-15.871093h-21.675782c-9.085937.023437-16.710937 6.84375-17.75 15.871093-1.28125 11.859376-1.878906 23.636719-3.414062 35.414063-.074219 9.074219-4.09375 17.671875-11.007812 23.550781-7.308594 4.039063-15.886719 5.136719-23.976563 3.070313h-.085937c-.9375-.167969-1.792969-.339844-2.644532-.511719-6.113281-1.253906-11.992187-3.472656-17.410156-6.570312l31.148438-102.742188c2.828124-10.339844 12.230468-17.507812 22.953124-17.492188h48.980469c10.722657-.015624 20.125 7.152344 22.957031 17.492188zm0 0" fill="#ffb301"/><path d="m305.921875 184.230469c-8.09375 2.066406-16.667969.96875-23.980469-3.070313-6.914062-5.878906-10.929687-14.476562-11.007812-23.550781-1.535156-11.777344-2.132813-23.554687-3.414063-35.414063-1.035156-9.027343-8.664062-15.847656-17.746093-15.871093h17.066406c9.082031.023437 16.710937 6.84375 17.746094 15.871093 1.28125 11.859376 1.878906 23.636719 3.414062 35.414063.078125 9.074219 4.09375 17.671875 11.007812 23.550781 2.125 1.386719 4.460938 2.421875 6.914063 3.070313zm0 0" fill="#f57c00"/><path d="m313.34375 250.109375-10.582031 5.289063c-1.449219.683593-2.898438 1.367187-4.351563 1.964843h-84.820312c-1.449219-.597656-2.902344-1.28125-4.351563-1.964843l-10.582031-5.289063c-24.695312-12.34375-37.714844-40.003906-31.488281-66.902344.34375-1.28125.597656-2.558593 1.023437-3.839843l.683594-2.21875c5.417969 3.097656 11.296875 5.316406 17.410156 6.570312.851563.171875 1.707032.34375 2.644532.511719h.085937c8.089844 2.066406 16.667969.96875 23.976563-3.070313 6.914062-5.878906 10.933593-14.476562 11.007812-23.550781 1.535156-11.777344 2.132812-23.554687 3.414062-35.414063 1.039063-9.027343 8.664063-15.847656 17.75-15.871093h21.675782c9.082031.023437 16.710937 6.84375 17.746094 15.871093 1.28125 11.859376 1.878906 23.636719 3.414062 35.414063.078125 9.074219 4.09375 17.671875 11.007812 23.550781 2.125 1.386719 4.460938 2.421875 6.914063 3.070313h.085937c6.535157 1.199219 13.246094 1.023437 19.710938-.511719l2.046875-.511719c5.390625-1.257812 10.566406-3.296875 15.359375-6.058593l.683594 2.21875c8.433594 27.855468-4.433594 57.730468-30.464844 70.742187zm0 0" fill="#37474f"/><path d="m296.277344 250.109375-10.582032 5.289063c-1.449218.683593-2.898437 1.367187-4.351562 1.964843h-67.753906c-1.449219-.597656-2.902344-1.28125-4.351563-1.964843l-10.582031-5.289063c-24.695312-12.34375-37.714844-40.003906-31.488281-66.902344l2.050781.511719c6.460938 1.535156 13.175781 1.710938 19.710938.511719h.085937c8.089844 2.066406 16.667969.96875 23.976563-3.070313 6.914062-5.878906 10.933593-14.476562 11.007812-23.550781 1.535156-11.777344 2.132812-23.554687 3.414062-35.414063 1.039063-9.027343 8.664063-15.847656 17.75-15.871093h4.609376c9.082031.023437 16.710937 6.84375 17.746093 15.871093 1.28125 11.859376 1.878907 23.636719 3.414063 35.414063.078125 9.074219 4.09375 17.671875 11.007812 23.550781 7.3125 4.039063 15.886719 5.136719 23.980469 3.070313h.085937c.9375-.167969 1.789063-.339844 2.644532-.511719 6.113281-1.253906 11.988281-3.472656 17.40625-6.570312l.683594 2.21875c.425781 1.28125.683593 2.558593 1.023437 3.839843 6.226563 26.898438-6.792969 54.558594-31.488281 66.902344zm0 0" fill="#607d8b"/><path d="m221.867188 22.78125v34.132812l-149.929688 11.777344 77.398438-51.628906zm0 0" fill="#9e9e9e"/><path d="m149.335938 17.0625-77.398438 51.628906-29.441406 2.304688c-8.289063.78125-16.542969-1.835938-22.867188-7.253906l76.285156-50.859376zm0 0" fill="#f5f5f5"/><path d="m95.914062 12.882812-76.285156 50.859376c-10.03125-8.488282-13.695312-22.335938-9.175781-34.671876 4.515625-12.335937 16.257813-20.539062 29.398437-20.539062.851563 0 1.792969 0 2.644532.085938zm0 0" fill="#cfd8dc"/><path d="m440.066406 68.691406-149.933594-11.777344v-34.132812l72.535157-5.71875zm0 0" fill="#9e9e9e"/><path d="m492.375 63.742188c-6.324219 5.417968-14.578125 8.035156-22.871094 7.253906l-29.4375-2.304688-77.398437-51.628906 53.417969-4.179688zm0 0" fill="#f5f5f5"/><path d="m503.46875 39.847656c.007812 9.210938-4.054688 17.953125-11.09375 23.894532l-76.289062-50.859376 53.417968-4.265624c.855469-.085938 1.792969-.085938 2.644532-.085938 17.292968.007812 31.308593 14.023438 31.320312 31.316406zm0 0" fill="#cfd8dc"/><path d="m290.132812 22.78125v34.132812h-34.132812v-39.59375c11.597656-.015624 23.121094 1.828126 34.132812 5.460938zm0 0" fill="#37474f"/><path d="m256 17.320312v39.59375h-34.132812v-34.132812c11.011718-3.632812 22.539062-5.476562 34.132812-5.460938zm0 0" fill="#607d8b"/><path d="m298.667969 261.714844c0 23.5625-19.101563 42.667968-42.667969 42.667968-2.835938.019532-5.671875-.265624-8.445312-.855468h-.171876c-19.886718-4.039063-34.175781-21.523438-34.175781-41.8125 0-20.292969 14.289063-37.777344 34.175781-41.8125h.171876c2.773437-.589844 5.609374-.875 8.445312-.855469 23.566406 0 42.667969 19.101563 42.667969 42.667969zm0 0" fill="#9e9e9e"/><path d="m281.601562 261.714844c-.046874 20.230468-14.246093 37.667968-34.046874 41.8125h-.171876c-19.886718-4.039063-34.175781-21.523438-34.175781-41.8125 0-20.292969 14.289063-37.777344 34.175781-41.8125h.171876c19.800781 4.144531 34 21.582031 34.046874 41.8125zm0 0" fill="#f5f5f5"/><path d="m159.148438 255.398438c-9.964844 7.738281-17.464844 18.203124-21.589844 30.125-.265625.640624-.492188 1.292968-.683594 1.960937-11.785156 2.730469-24.128906 1.625-35.242188-3.15625-6-2.886719-10.667968-7.953125-13.054687-14.164063 4.421875-12.863281 10.875-24.933593 19.113281-35.757812 3.738282-5.042969 8-9.675781 12.714844-13.824219-4.691406 17.238281 14.335938 30.378907 37.632812 33.878907zm0 0" fill="#283593"/><path d="m142.082031 251.132812c-9.964843 7.738282-17.464843 18.203126-21.589843 30.121094-.265626.640625-.492188 1.296875-.683594 1.964844-6.003906.996094-12.09375 1.371094-18.175782 1.109375-6-2.886719-10.667968-7.953125-13.054687-14.164063 4.421875-12.863281 10.875-24.933593 19.113281-35.757812 8.898438 9.003906 20.679688 14.59375 33.28125 15.789062zm0 0" fill="#3f51b5"/><path d="m154.882812 447.144531v.085938c-.085937.597656-.171874 1.191406-.257812 1.707031l-29.011719 21.585938c-8.6875 2.300781-17.769531 2.710937-26.625 1.195312-7.039062-.667969-13.75-3.300781-19.371093-7.59375l-18.519532-37.207031c.5625-34.320313 4.824219-68.480469 12.714844-101.886719 2.023438-7.023438 8.394531-11.90625 15.703125-12.03125.21875-.070312.453125-.097656.683594-.085938l28.414062.085938c7.007813.027344 13.296875 4.320312 15.871094 10.835938 11.351563 29.015624 18.433594 82.261718 20.3125 103.253906.664063 6.667968.695313 13.382812.085937 20.054687zm0 0" fill="#4527a0"/><path d="m133.546875 447.144531v.085938c-.085937.597656-.171875 1.191406-.253906 1.707031l-29.015625 21.585938c-1.742188.488281-3.507813.886718-5.289063 1.195312-7.039062-.667969-13.75-3.300781-19.371093-7.59375l-18.519532-37.207031c.5625-34.320313 4.824219-68.480469 12.714844-101.886719 2.023438-7.023438 8.394531-11.90625 15.703125-12.03125h7.765625c7.007812.027344 13.292969 4.320312 15.871094 10.835938 11.351562 29.015624 18.433594 82.261718 20.308594 103.253906.667968 6.667968.695312 13.382812.085937 20.054687zm0 0" fill="#673ab7"/><path d="m90.625 439.121094c-.171875 3.480468-1.359375 6.832031-3.414062 9.644531-.085938.085937-.171876.253906-.253907.339844-2.75 3.714843-4.910156 7.832031-6.402343 12.203125-2.761719 8.035156-4.035157 16.507812-3.753907 25.003906.097657 8.523438-6.152343 15.792969-14.59375 16.980469-.820312.097656-1.644531.15625-2.472656.171875-4.523437.007812-8.863281-1.808594-12.03125-5.035156-3.167969-3.074219-4.980469-7.28125-5.035156-11.691407-.113281-7.261719.457031-14.519531 1.707031-21.675781 1.027344-5.980469 2.660156-11.839844 4.863281-17.492188 1.828125-4.734374 4.113281-9.277343 6.828125-13.566406 2.300782-4.648437 5.960938-8.488281 10.496094-11.007812.597656-.257813 1.191406-.515625 1.875-.769532 5.835938-1.785156 12.179688-.324218 16.640625 3.839844 2.023437 1.871094 3.601563 4.175782 4.609375 6.742188.773438 2.007812 1.09375 4.164062.9375 6.3125zm0 0" fill="#f57c00"/><path d="m73.558594 434.855469c-.171875 3.480469-1.359375 6.832031-3.414063 9.644531-.085937.082031-.171875.253906-.253906.339844-2.75 3.714844-4.910156 7.828125-6.402344 12.203125-2.761719 8.035156-4.035156 16.507812-3.753906 25.003906.089844 7.53125-4.816406 14.214844-12.03125 16.382813-3.167969-3.074219-4.980469-7.28125-5.035156-11.691407-.113281-7.261719.457031-14.519531 1.707031-21.675781 1.027344-5.980469 2.660156-11.839844 4.863281-17.492188 1.828125-4.734374 4.113281-9.277343 6.828125-13.566406 2.300782-4.648437 5.960938-8.488281 10.496094-11.007812.597656-.257813 1.191406-.515625 1.875-.769532 1.839844 1.773438 3.269531 3.929688 4.183594 6.3125.773437 2.011719 1.09375 4.167969.9375 6.316407zm0 0" fill="#ffb301"/><path d="m146.398438 503.464844c-8.433594.019531-15.601563-6.164063-16.820313-14.507813-1.699219-10.976562-4.488281-21.757812-8.328125-32.179687-2.957031-8.136719.648438-17.203125 8.390625-21.085938 4.351563-2.175781 9.429687-2.390625 13.949219-.585937 4.523437 1.800781 8.058594 5.449219 9.722656 10.023437 4.675781 12.632813 8.046875 25.710938 10.058594 39.03125.644531 4.882813-.851563 9.808594-4.101563 13.507813-3.253906 3.699219-7.945312 5.8125-12.871093 5.796875zm0 0" fill="#ffb301"/><path d="m154.890625 447.144531v.085938c.765625 1.066406 1.652344 2.039062 2.644531 2.898437 3.074219 2.605469 6.007813 5.367188 8.789063 8.277344 3.242187 3.484375 7.785156 5.460938 12.542969 5.460938 2.636718-.011719 5.234374-.625 7.59375-1.789063 4.824218-2.417969 8.222656-6.972656 9.164062-12.285156.941406-5.308594-.683594-10.753907-4.382812-14.679688-3.671876-3.871093-7.546876-7.546875-11.605469-11.007812-3.605469-3.109375-8.351563-4.554688-13.074219-3.988281-4.726562.570312-8.992188 3.101562-11.757812 6.972656" fill="#ffb301"/><path d="m136.875 287.484375c-3.148438 9.671875-5.546875 19.570313-7.167969 29.609375-.371093 7.644531-6.222656 13.890625-13.824219 14.765625-6.0625 1.082031-12.265624 1.136719-18.347656.167969-10.664062-1.960938-19.367187-7.933594-18.089844-21.160156.867188-9.019532 2.46875-17.949219 4.78125-26.710938 1.203126-4.738281 2.65625-9.410156 4.351563-13.992188 4.445313 10.578126 14.640625 17.609376 26.109375 18.003907h.171875c1.527344.234375 3.066406.375 4.609375.425781 5.824219.222656 11.65625-.152344 17.40625-1.109375zm0 0" fill="#37474f"/><path d="m397.398438 332.027344c-.429688-.011719-.859376-.070313-1.28125-.167969-7.601563-.875-13.449219-7.121094-13.824219-14.765625-1.546875-9.660156-3.828125-19.1875-6.824219-28.5-.074219-.378906-.191406-.753906-.34375-1.109375 1.707031.257813 3.414062.511719 4.949219.683594h.171875c10.328125 1.734375 20.9375.335937 30.464844-4.011719 5.824218-2.929688 10.355468-7.914062 12.714843-13.992188 4.726563 13.132813 7.796875 26.804688 9.128907 40.703126 1.878906 20.136718-19.285157 23.550781-35.15625 21.160156zm0 0" fill="#37474f"/><path d="m119.808594 287.484375c-.152344.355469-.265625.730469-.339844 1.109375-3 9.3125-5.28125 18.839844-6.828125 28.5-.371094 7.644531-6.222656 13.890625-13.824219 14.765625-.417968.097656-.847656.15625-1.28125.167969-10.664062-1.960938-19.367187-7.933594-18.089844-21.160156.867188-9.019532 2.46875-17.949219 4.78125-26.710938 9.523438 4.347656 20.136719 5.746094 30.460938 4.011719h.171875c1.535156-.171875 3.242187-.425781 4.949219-.683594zm0 0" fill="#607d8b"/><path d="m397.398438 332.027344c-.429688-.011719-.859376-.070313-1.28125-.167969-7.601563-.875-13.449219-7.121094-13.824219-14.765625-1.546875-9.660156-3.828125-19.1875-6.824219-28.5 1.542969-.050781 3.082031-.191406 4.605469-.425781h.171875c16.640625-2.132813 25.507812-1.851563 28.160156-8.765625 1.707031 4.609375 1.117188.0625 2.3125 4.753906 2.3125 8.761719 3.910156 17.691406 4.777344 26.710938 1.273437 13.226562-7.429688 19.199218-18.097656 21.160156zm0 0" fill="#607d8b"/><path d="m256 261.695312c0 4.714844-3.820312 8.535157-8.53125 8.535157-4.714844 0-8.535156-3.820313-8.535156-8.535157 0-4.710937 3.820312-8.53125 8.535156-8.53125 4.710938 0 8.53125 3.820313 8.53125 8.53125zm0 0"/><path d="m468.796875.140625-177.808594 13.996094c-22.789062-7.0625-47.183593-7.0625-69.972656 0l-177.742187-13.984375c-16.992188-1.476563-33.035157 8.03125-39.902344 23.644531-6.863282 15.613281-3.023438 33.863281 9.550781 45.386719.21875.207031.484375.34375.707031.546875.605469.625 1.300782 1.152343 2.066406 1.5625 6.902344 5.363281 15.378907 8.304687 24.121094 8.371093 1.128906 0 2.261719-.050781 3.414063-.152343l150.1875-11.8125c-.617188 1.367187-1.132813 2.777343-1.546875 4.214843l-31.828125 104.960938c-1.488281 4.957031-2.410157 10.066406-2.746094 15.234375-23.042969-.265625-39.023437 8.214844-44.425781 23.96875-24.664063 25.375-39.515625 58.6875-41.90625 93.996094-.515625 4.542969.070312 9.148437 1.707031 13.421875-.9375.769531-1.695313 1.734375-2.21875 2.824218-11.648437 24.679688-17.304687 70.734376-17.835937 97.621094-1.425782 1.878906-2.703126 3.773438-3.804688 5.53125-2.980469 4.761719-5.507812 9.796875-7.542969 15.035156-2.386719 6.164063-4.164062 12.550782-5.308593 19.0625-1.335938 7.703126-1.945313 15.511719-1.828126 23.332032.332032 13.914062 11.679688 25.039062 25.601563 25.09375 1.230469-.019532 2.457031-.101563 3.679687-.246094 12.683594-1.839844 22.054688-12.78125 21.921876-25.601562-.007813-3.019532.175781-6.039063.554687-9.035157 7.742187 2.652344 15.875 3.996094 24.0625 3.976563 3.113281 0 6.222656-.207032 9.308594-.613282.699219 3.136719 1.339843 6.371094 1.820312 9.691407 1.863281 12.527343 12.609375 21.808593 25.273438 21.828125 7.457031 0 14.546875-3.238282 19.429687-8.875 4.820313-5.53125 7-12.882813 5.976563-20.144532-.589844-4.089843-1.394531-8.246093-2.289063-12.433593 2.984375 1.203125 6.167969 1.835937 9.386719 1.859375 3.957031-.011719 7.859375-.933594 11.410156-2.6875 7.234375-3.621094 12.332031-10.445313 13.746094-18.410156 1.417969-7.964844-1.011719-16.128907-6.554687-22.019532-3.882813-4.109375-7.984376-8.003906-12.285157-11.675781-5.484375-4.683594-12.683593-6.847656-19.839843-5.972656-1.238282.195312-2.457032.480469-3.652344.851562-3.746094-26.894531-12.28125-65.507812-24.988282-86.773437-.125-.207032-.324218-.316406-.460937-.503906.785156-2.117188 1.394531-4.292969 1.820313-6.511719l.636718-3.269531c1.503906-9.140626 3.789063-18.136719 6.828125-26.886719 3.359375-9.550781 9.160157-18.058594 16.820313-24.679688h.359375c2.625 0 5.289062-.1875 7.953125-.449219v40.898438c-.203125 9.320312 1.59375 18.578125 5.273437 27.144531 2.828125 6.195313 7.347657 11.46875 13.039063 15.214844 5.972656 20.179687 33.210937 34.441406 67.019531 34.441406s61.019531-14.183593 67.027344-34.320312c5.675781-3.78125 10.1875-9.0625 13.03125-15.257813 3.6875-8.574218 5.492187-17.839844 5.292969-27.171875v-40.898437c2.660156.261718 5.324218.449218 7.953124.449218h.355469c7.664063 6.625 13.460938 15.132813 16.820313 24.6875 3.039062 8.75 5.324218 17.742188 6.828125 26.882813l.636719 3.265625c.429687 2.21875 1.039062 4.394531 1.820312 6.511719-.136719.1875-.332031.300781-.460938.503906-12.714843 21.273437-21.25 59.902344-24.984374 86.773437-1.199219-.367187-2.417969-.652343-3.652344-.851562-7.171875-.882812-14.378906 1.285156-19.875 5.972656-4.289063 3.65625-8.375 7.539063-12.246094 11.632813-5.5625 5.90625-7.996094 14.101562-6.554688 22.085937 1.4375 7.988282 6.578126 14.816406 13.851563 18.414063 3.515625 1.71875 7.378906 2.617187 11.296875 2.625 3.21875-.023438 6.402344-.652344 9.386719-1.859375-.90625 4.191406-1.707031 8.347656-2.285157 12.433594-1.027343 7.265624 1.152344 14.613281 5.972657 20.148437 4.878906 5.621094 11.957031 8.851563 19.402343 8.855469 12.65625-.023438 23.390626-9.289063 25.269532-21.800782.476562-3.320312 1.117187-6.554687 1.816406-9.695312 3.085938.410156 6.195312.613281 9.308594.613281 8.1875.023438 16.320312-1.320312 24.066406-3.976562.390625 3.015625.59375 6.050781.605469 9.089843-.046875 12.996094 9.613281 23.980469 22.511719 25.601563 1.046874.09375 2.019531.175781 3.089843.175781 13.9375-.058594 25.292969-11.21875 25.597657-25.15625.117187-7.792968-.492188-15.582031-1.824219-23.261718-1.140625-6.511719-2.921875-12.898438-5.308594-19.0625-2.035156-5.238282-4.5625-10.277344-7.542969-15.042969-1.101562-1.757813-2.382812-3.652344-3.808594-5.53125-.527343-26.886719-6.183593-72.941407-17.832031-97.621094-.527343-1.089844-1.285156-2.054687-2.21875-2.824219 1.632813-4.273437 2.21875-8.875 1.707031-13.421875-2.386718-35.308593-17.230468-68.621093-41.890624-94.003906-5.410157-15.761719-21.386719-24.261719-44.425782-23.980469-.339844-5.15625-1.261718-10.261718-2.746094-15.214844l-31.761718-104.746093c-.425782-1.515625-.96875-3-1.621094-4.4375l150.125 11.804687c1.152344.101563 2.296875.152344 3.414062.152344 8.746094-.0625 17.230469-3 24.140626-8.363281.769531-.410157 1.472656-.9375 2.074218-1.570313.222656-.195312.484375-.332031.707032-.539062 12.5625-11.511719 16.40625-29.738282 9.570312-45.34375-6.839844-15.605469-22.851562-25.132813-39.828125-23.699219zm1.390625 17.007813c8.746094-.777344 17.15625 3.550781 21.601562 11.121093 4.445313 7.570313 4.132813 17.027344-.804687 24.285157l-49.671875-33.136719zm-171.519531 13.507812 61.738281-4.863281 47.710938 31.820312-109.449219-8.609375zm-17.066407 17.707031h-17.066406v-21.964843c5.753906.4375 11.464844 1.359374 17.066406 2.757812zm-51.199218-19.207031c5.597656-1.398438 11.308594-2.320312 17.066406-2.757812v21.964843h-17.066406zm-17.066406 19.847656-109.449219 8.617188 47.699219-31.828125 61.75 4.863281zm-188.894532-25.96875c4.179688-3.859375 9.667969-5.992187 15.359375-5.972656.683594 0 1.375 0 2.066407.09375l28.824218 2.269531-49.691406 33.128907c-6.351562-9.316407-4.898438-21.882813 3.414062-29.5zm17.371094 39.46875c-1.605469.140625-3.21875.109375-4.820312-.09375l61.234374-40.816406 25.867188 2.03125-55.082031 36.738281zm214.1875 54.125h10.328125c4.351563-.027344 8.03125 3.226563 8.53125 7.554688.476563 4.554687.855469 9.113281 1.246094 13.652344.570312 6.765624 1.144531 13.535156 2.023437 20.34375.40625 11.089843 5.574219 21.46875 14.179688 28.476562 5.601562 3.554688 12.144531 5.339844 18.773437 5.117188 4.429688-.046876 8.847657-.519532 13.1875-1.414063 4.234375-.90625 8.371094-2.234375 12.347657-3.960937 4.804687 22.671874-6.324219 45.722656-27.070313 56.054687l-5.160156 2.5625c-7.089844-20.667969-26.523438-34.546875-48.367188-34.546875-21.847656 0-41.28125 13.878906-48.367187 34.546875l-5.171875-2.5625c-20.742188-10.332031-31.867188-33.386719-27.058594-56.054687 3.980469 1.726562 8.125 3.054687 12.371094 3.960937 4.347656.914063 8.769531 1.40625 13.210937 1.46875 6.605469.207031 13.125-1.578125 18.703125-5.121094 8.632813-7.023437 13.816407-17.425781 14.226563-28.542969.851562-6.769531 1.441406-13.535156 2.015625-20.300781.382812-4.566406.765625-9.125 1.246093-13.65625.488282-4.335937 4.167969-7.605469 8.53125-7.578125zm0 110.933594c18.851562 0 34.132812 15.285156 34.132812 34.132812 0 18.851563-15.28125 34.136719-34.132812 34.136719s-34.132812-15.285156-34.132812-34.136719c0-18.847656 15.28125-34.132812 34.132812-34.132812zm-134.050781 84.625-.628907 3.226562c-1.289062 6.496094-2.988281 7.40625-6.828124 8.054688-8.171876 2.132812-16.855469.867188-24.082032-3.507812-2.167968-2.167969-3.082031-5.296876-2.421875-8.292969.761719-7.867188 2.09375-15.671875 3.992188-23.347657 8.90625 6.328126 19.683593 9.460938 30.59375 8.894532.851562 0 1.75-.085938 2.558593-.113282-1.21875 5.070313-2.210937 10.09375-3.183593 15.085938zm-60.789063 182.613281c-2.417968.3125-4.859375-.386719-6.742187-1.933593-1.886719-1.542969-3.050781-3.800782-3.21875-6.230469-.105469-6.726563.417969-13.445313 1.5625-20.070313.953125-5.417968 2.429687-10.726562 4.414062-15.855468 1.640625-4.234376 3.683594-8.304688 6.101563-12.152344 1.503906-3.167969 3.84375-5.867188 6.765625-7.808594 1.054687-.460938 2.195312-.691406 3.34375-.671875 2.191406 0 4.304687.824219 5.921875 2.304687 1.058594.964844 1.878906 2.160157 2.398437 3.496094.335938.902344.488281 1.863282.445313 2.824219-.136719 1.945313-.84375 3.804687-2.03125 5.351563-3.246094 4.375-5.804688 9.214843-7.585938 14.363281-.257812.714843-.4375 1.484375-.675781 2.21875-.085937.195312-.109375.390625-.179687.585937-2.460938 8.160156-3.613282 16.65625-3.410157 25.175782.054688 4.183593-2.976562 7.773437-7.109375 8.421874zm91.765625-2.875c-1.636719 1.898438-4.019531 2.988281-6.527343 2.988281-4.179688.003907-7.734376-3.039062-8.378907-7.167968-.972656-6.550782-2.355469-13.03125-4.140625-19.40625 0-.066406 0-.128906 0-.195313 0-.070312-.074218-.109375-.09375-.1875-1.507812-5.410156-3.105468-10.242187-4.496094-14.082031-.953124-2.613281-.574218-5.53125 1.019532-7.8125s4.203125-3.644531 6.984375-3.644531c3.597656.003906 6.804687 2.261719 8.023437 5.648437 4.464844 12.078125 7.691406 24.578125 9.632813 37.304688.328125 2.382812-.414063 4.789062-2.023438 6.574218zm14.550781-63.332031c2.375-.34375 4.78125.371094 6.585938 1.953125 3.835938 3.265625 7.496094 6.734375 10.957031 10.394531 1.867188 1.964844 2.6875 4.703125 2.210938 7.371094-.445313 2.613281-2.105469 4.863281-4.472657 6.058594-3.433593 1.78125-7.636718 1.027344-10.238281-1.835938-2.84375-2.976562-5.839843-5.804687-8.976562-8.472656.253906-4.546875.238281-9.105469-.050781-13.652344 1.132812-.960937 2.511718-1.585937 3.984374-1.800781zm-21.25-1.554688c-9.347656-3.539062-19.898437-1.300781-27.007812 5.726563-7.105469 7.027344-9.464844 17.550781-6.03125 26.9375.433594 1.203125.921875 2.664063 1.390625 4.0625-8.277344.660156-16.597656-.433594-24.421875-3.207031 1.09375-2.40625 2.4375-4.695313 4-6.828125 3.003906-4.152344 4.75-9.082031 5.027344-14.199219.160156-3.292969-.351563-6.582031-1.511719-9.667969v-.042969c-1.464844-3.832031-3.804687-7.273437-6.824219-10.050781-5.582031-5.144531-13.148437-7.558593-20.675781-6.597656 1.136719-26.089844 6.003906-51.882813 14.453125-76.59375 6.632812 3.246094 13.953125 4.84375 21.335938 4.648437 3.796874 0 7.589843-.308593 11.339843-.921874 2.355469-.398438 4.648438-1.097657 6.824219-2.082032 11.667969 22.5625 19.824219 64.308594 22.101562 88.832032zm-15.359374-147.414062c-12.800782 1.398438-26.957032.128906-32.929688-10.136719 4.015625-10.519531 9.46875-20.425781 16.214844-29.441406 1.511718 3.078125 3.492187 5.90625 5.871094 8.382813 6.023437 5.933593 13.472656 10.222656 21.628906 12.457031-4.402344 5.75-8.023438 12.054687-10.777344 18.757812zm1.453124-43.023438c-3.765624-3.523437-5.195312-8.886718-3.6875-13.816406.066407-.265625.246094-.792968.289063-1.074218 3.730469-11.1875 18.773437-12.800782 29.320313-12.527344 1.902343 10.28125 6.15625 19.984375 12.425781 28.355468v8.816407c-13.589844 2.5625-27.621094-1-38.339844-9.738281zm82.277344 116.503907c4.605469-.425781 9.09375-1.710938 13.226563-3.789063 3-1.492187 6.308593-2.273437 9.660156-2.285156h37.035156c3.3125.003906 6.582031.769531 9.554688 2.234375 4.125 2.078125 8.585937 3.402344 13.175781 3.917969-12.359375 7.65625-26.71875 11.457031-41.25 10.914062-14.589844.550782-29.007812-3.277344-41.402344-10.992187zm105.90625-28.621094c-1.832031 4.082031-5.007812 7.417969-8.992187 9.449219-6.21875 3.226562-13.617188 3.246094-19.851563.050781-5.328125-2.640625-11.195312-4.015625-17.140625-4.019531h-37.035156c-6 .011718-11.917969 1.410156-17.289063 4.078125-5.9375 2.949219-12.890624 3.046875-18.910156.273437-.300781-.203125-.617187-.386718-.9375-.554687-3.9375-1.988281-7.0625-5.273438-8.859375-9.300781-2.644531-6.363282-3.925781-13.210938-3.753906-20.097657v-50.796875c2.28125 1.527344 4.65625 2.914063 7.109375 4.152344l10.007812 5.003906c1.226563 27.359375 23.761719 48.910156 51.148438 48.910156s49.925781-21.550781 51.148438-48.910156l10.011718-5.011718c2.449219-1.238282 4.824219-2.621094 7.109375-4.144532v50.796875c.167969 6.898438-1.113281 13.753907-3.765625 20.121094zm103.535156-12.800781c.660157 3-.253906 6.125-2.421874 8.296875-7.226563 4.355469-15.90625 5.621093-24.074219 3.507812-3.875-.648437-5.570313-1.5625-6.828125-8.058593l-.628906-3.222657c-.972657-4.96875-1.964844-10.019531-3.199219-15.089843.851562 0 1.78125.113281 2.558593.113281 10.90625.566406 21.6875-2.566407 30.59375-8.890625 1.898438 7.667968 3.234376 15.464844 4 23.328125zm-94.652343 142.765625c-2.414063-1.210938-4.113281-3.492188-4.582031-6.152344-.46875-2.664063.351562-5.386719 2.210937-7.347656 3.453125-3.644531 7.097656-7.097657 10.921875-10.351563 1.808594-1.605468 4.230469-2.332031 6.621094-1.988281 1.425781.210937 2.765625.800781 3.882812 1.707031-.308594 4.605469-.328125 9.226563-.050781 13.832032-3.117187 2.664062-6.097656 5.484374-8.933594 8.449218-2.601562 2.730469-6.664062 3.476563-10.070312 1.851563zm36.257812 40.480469c-2.503906 0-4.886719-1.089844-6.527343-2.984376-1.582032-1.792968-2.300782-4.1875-1.960938-6.554687 1.941406-12.730469 5.167969-25.230469 9.632812-37.308594 1.21875-3.378906 4.421876-5.632812 8.011719-5.640625 2.78125.003906 5.386719 1.359375 6.980469 3.640625 1.597656 2.277344 1.980469 5.1875 1.035156 7.804688-1.390625 3.820312-2.988281 8.675781-4.5 14.09375 0 .070312-.074218.113281-.09375.179687-.015625.070313 0 .128906 0 .1875-1.785156 6.378906-3.164062 12.863282-4.136718 19.414063-.648438 4.152343-4.238282 7.203125-8.441407 7.167969zm86.625 0c-.496093 0-.941406-.058594-1.273437-.085938-4.175782-.589844-7.273438-4.171875-7.261719-8.386719.210937-8.550781-.941406-17.078125-3.414063-25.265625-.066406-.179687-.085937-.367187-.160156-.539062-.230468-.707032-.402344-1.441406-.648437-2.132813-1.816407-5.28125-4.441407-10.25-7.785157-14.722656-1.089843-1.496094-1.730468-3.269531-1.851562-5.117187-.046875-.960938.101562-1.921876.4375-2.824219.515625-1.347657 1.339844-2.554688 2.40625-3.527344 2.496094-2.3125 6.121094-2.941406 9.25-1.59375 2.921875 1.9375 5.261719 4.636719 6.765625 7.808594 2.417969 3.847656 4.460937 7.917969 6.101563 12.160156 1.984374 5.128906 3.457031 10.4375 4.402343 15.855469 1.148438 6.609375 1.667969 13.308594 1.5625 20.015625-.097656 4.644531-3.890625 8.355469-8.53125 8.355469zm-10.421875-81.765626c-7.527344-.957031-15.09375 1.460938-20.675781 6.605469-3.027344 2.785157-5.363281 6.238281-6.828125 10.085938-1.160156 3.09375-1.671875 6.394531-1.507812 9.695312.320312 5.292969 2.183593 10.382813 5.359374 14.632813 1.441407 1.992187 2.671876 4.128906 3.675782 6.375-7.828125 2.769531-16.152344 3.863281-24.429688 3.207031.46875-1.398437.957032-2.859375 1.390625-4.0625 3.425781-9.382813 1.066407-19.90625-6.039062-26.929687-7.109375-7.027344-17.65625-9.261719-27.003907-5.726563 2.273438-24.480469 10.429688-66.261719 22.136719-88.832031 2.179688.980468 4.472657 1.679687 6.828125 2.082031 3.746094.613281 7.535156.921875 11.332032.921875 7.382812.191406 14.699218-1.402344 21.332031-4.648438 8.433593 24.710938 13.292969 50.503907 14.421875 76.59375zm-27.792968-143.660156c-5.972657 10.242188-20.148438 11.546875-32.9375 10.140625-2.753907-6.707031-6.382813-13.019531-10.796876-18.773437 8.167969-2.226563 15.625-6.511719 21.660157-12.441406 2.375-2.476563 4.359375-5.292969 5.886719-8.363282 6.730468 9.015625 12.179687 18.925782 16.1875 29.4375zm-30.984376-47.785156.289063 1.074219c1.511719 4.933593.082031 10.292969-3.683594 13.816406-10.722656 8.738281-24.75 12.304687-38.339843 9.746094v-8.816407c6.265624-8.367187 10.511718-18.066406 12.414062-28.347656 10.566406-.28125 25.589844 1.347656 29.320312 12.535156zm-51.121093-51.960938c-3.523438 1.746094-7.25 3.042969-11.09375 3.867188-6.300781 1.917969-13.082031 1.523438-19.117188-1.117188-4.359375-4.394531-6.792969-10.339843-6.765625-16.53125-.851562-6.507812-1.382812-13.027343-1.9375-19.546874-.390625-4.6875-.792968-9.386719-1.289062-14.074219-1.429688-12.980469-12.402344-22.800781-25.460938-22.792969h-20.609375c-13.070312-.011719-24.050781 9.824219-25.472656 22.820312-.484375 4.683594-.851563 9.386719-1.28125 14.046876-.554687 6.519531-1.097656 13.039062-1.925781 19.503906.023437 6.222656-2.433594 12.195312-6.828125 16.597656-6.019531 2.625-12.777344 3.011719-19.054688 1.09375-3.84375-.820312-7.570312-2.121094-11.09375-3.867188l28.238281-93.121093c1.828126-6.621094 7.851563-11.207031 14.71875-11.207031h66.046876c6.941406.039062 12.992187 4.726562 14.765624 11.433593zm138.152343-107.261718-27.152343-2.132813-55.058594-36.695312 25.867187-2.039063 61.226563 40.824219c-1.609375.179687-3.234375.191406-4.847656.042969zm0 0"/><path d="m104.457031 356.484375c-2.132812-.757813-4.480469-.636719-6.523437.339844-2.042969.972656-3.617188 2.714843-4.375 4.847656-3.246094 10.328125-4.851563 21.101563-4.761719 31.925781 0 4.710938 3.824219 8.53125 8.535156 8.53125 4.714844 0 8.535157-3.820312 8.535157-8.53125-.070313-8.886718 1.207031-17.730468 3.785156-26.230468 1.566406-4.441407-.757813-9.308594-5.195313-10.882813zm0 0"/></svg>