<svg height="512pt" viewBox="-86 0 512 512.42697" width="512pt" xmlns="http://www.w3.org/2000/svg"><path d="m111.144531 26.027344c0 9.425781-7.640625 17.066406-17.066406 17.066406s-17.066406-7.640625-17.066406-17.066406c0-9.425782 7.640625-17.066406 17.066406-17.066406s17.066406 7.640624 17.066406 17.066406zm0 0" fill="#ff9801"/><path d="m264.742188 26.027344c0 9.425781-7.640626 17.066406-17.066407 17.066406s-17.066406-7.640625-17.066406-17.066406c0-9.425782 7.640625-17.066406 17.066406-17.066406s17.066407 7.640624 17.066407 17.066406zm0 0" fill="#ff9801"/><path d="m281.808594 144.042969v11.433593c.003906 22.25-8.832032 43.585938-24.566406 59.316407-15.730469 15.734375-37.066407 24.570312-59.316407 24.566406h-54.101562c-22.246094.003906-43.582031-8.832031-59.316407-24.566406-15.730468-15.730469-24.566406-37.066407-24.5625-59.316407v-11.433593c.011719-32.183594 26.097657-58.269531 58.28125-58.28125h105.300782c32.183594.011719 58.269531 26.097656 58.28125 58.28125zm0 0" fill="#2e7d32"/><path d="m260.476562 144.042969v11.433593c.003907 22.25-8.835937 43.585938-24.566406 59.316407-15.730468 15.734375-37.066406 24.570312-59.316406 24.566406h-32.769531c-22.246094.003906-43.582031-8.832031-59.316407-24.566406-15.730468-15.730469-24.566406-37.066407-24.5625-59.316407v-11.433593c.011719-32.183594 26.097657-58.269531 58.28125-58.28125h83.96875c32.179688.011719 58.265626 26.097656 58.28125 58.28125zm0 0" fill="#4caf50"/><path d="m196.648438 179.628906c0 14.136719-11.460938 25.597656-25.601563 25.597656-2.914063.019532-5.808594-.503906-8.53125-1.535156-10.226563-3.582031-17.070313-13.230468-17.070313-24.0625 0-10.835937 6.84375-20.484375 17.070313-24.066406 2.722656-1.03125 5.617187-1.554688 8.53125-1.535156 14.140625 0 25.601563 11.460937 25.601563 25.601562zm0 0" fill="#9e9e9e"/><path d="m179.582031 179.628906c-.007812 10.828125-6.851562 20.472656-17.066406 24.0625-10.226563-3.582031-17.070313-13.230468-17.070313-24.0625 0-10.835937 6.84375-20.484375 17.070313-24.066406 10.214844 3.589844 17.058594 13.234375 17.066406 24.066406zm0 0" fill="#cfd8dc"/><path d="m153.808594 239.359375h34.136718v59.734375h-34.136718zm0 0" fill="#607d8b"/><path d="m283.773438 324.777344-65.28125 110.933594c-3.066407 5.203124-8.640626 8.410156-14.675782 8.449218h-65.878906c-6.027344-.078125-11.582031-3.277344-14.675781-8.449218l-65.28125-110.933594c-3.089844-5.28125-3.117188-11.816406-.066407-17.121094 3.050782-5.308594 8.707032-8.574219 14.828126-8.5625h196.269531c6.117187-.011719 11.777343 3.253906 14.828125 8.5625 3.050781 5.304688 3.023437 11.839844-.066406 17.121094zm0 0" fill="#f57c00"/><path d="m262.4375 320.511719-65.277344 110.933593c-3.066406 5.203126-8.640625 8.410157-14.679687 8.449219h-55.722657c-1.386718-1.191406-2.570312-2.605469-3.496093-4.183593l-65.28125-110.933594c-3.089844-5.28125-3.117188-11.816406-.066407-17.121094 3.050782-5.308594 8.707032-8.574219 14.828126-8.5625h186.199218c6.199219 5.347656 7.671875 14.375 3.496094 21.417969zm0 0" fill="#ffb301"/><path d="m102.609375 469.761719v25.597656c0 4.714844-3.820313 8.535156-8.53125 8.535156h-42.667969c-4.714844 0-8.535156-3.820312-8.535156-8.535156v-8.53125c0-14.140625 11.464844-25.601563 25.601562-25.601563h25.601563c4.710937 0 8.53125 3.820313 8.53125 8.535157zm0 0" fill="#37474f"/><path d="m298.875 486.828125v8.53125c0 4.714844-3.820312 8.535156-8.53125 8.535156h-42.667969c-4.710937 0-8.53125-3.820312-8.53125-8.535156v-25.597656c0-4.714844 3.820313-8.535157 8.53125-8.535157h25.601563c14.136718 0 25.597656 11.460938 25.597656 25.601563zm0 0" fill="#37474f"/><path d="m85.542969 469.761719v25.597656c0 4.714844-3.820313 8.535156-8.53125 8.535156h-25.601563c-4.714844 0-8.535156-3.820312-8.535156-8.535156v-8.53125c0-14.140625 11.464844-25.601563 25.601562-25.601563h8.535157c4.710937 0 8.53125 3.820313 8.53125 8.535157zm0 0" fill="#607d8b"/><path d="m281.808594 486.828125v8.53125c0 4.714844-3.820313 8.535156-8.53125 8.535156h-25.601563c-4.710937 0-8.53125-3.820312-8.53125-8.535156v-25.597656c0-4.714844 3.820313-8.535157 8.53125-8.535157h8.535157c14.136718 0 25.597656 11.460938 25.597656 25.601563zm0 0" fill="#607d8b"/><path d="m119.675781 171.09375c0 4.710938-3.820312 8.535156-8.53125 8.535156-4.714843 0-8.535156-3.824218-8.535156-8.535156 0-4.714844 3.820313-8.535156 8.535156-8.535156 4.710938 0 8.53125 3.820312 8.53125 8.535156zm0 0"/><path d="m136.742188 136.960938c0 4.710937-3.820313 8.53125-8.53125 8.53125-4.714844 0-8.535157-3.820313-8.535157-8.53125 0-4.714844 3.820313-8.535157 8.535157-8.535157 4.710937 0 8.53125 3.820313 8.53125 8.535157zm0 0"/><path d="m179.410156 119.894531c0 4.710938-3.820312 8.53125-8.535156 8.53125-4.710938 0-8.53125-3.820312-8.53125-8.53125 0-4.714843 3.820312-8.535156 8.53125-8.535156 4.714844 0 8.535156 3.820313 8.535156 8.535156zm0 0"/><path d="m222.078125 136.960938c0 4.710937-3.820313 8.53125-8.535156 8.53125-4.710938 0-8.53125-3.820313-8.53125-8.53125 0-4.714844 3.820312-8.535157 8.53125-8.535157 4.714843 0 8.535156 3.820313 8.535156 8.535157zm0 0"/><path d="m239.144531 171.09375c0 4.710938-3.820312 8.535156-8.535156 8.535156-4.710937 0-8.53125-3.824218-8.53125-8.535156 0-4.714844 3.820313-8.535156 8.53125-8.535156 4.714844 0 8.535156 3.820312 8.535156 8.535156zm0 0"/><path d="m153.808594 341.761719c1.117187-.015625 2.21875-.246094 3.246094-.683594 1.054687-.390625 2.011718-1.003906 2.8125-1.792969 1.558593-1.636718 2.441406-3.800781 2.476562-6.058594-.015625-1.113281-.246094-2.214843-.683594-3.242187-.773437-2.144531-2.464844-3.832031-4.605468-4.609375-3.183594-1.285156-6.828126-.585938-9.304688 1.792969-.75.832031-1.359375 1.78125-1.789062 2.816406-.4375 1.027344-.671876 2.128906-.683594 3.242187-.023438 2.269532.867187 4.453126 2.472656 6.058594 1.605469 1.605469 3.789062 2.5 6.058594 2.476563zm0 0"/><path d="m119.675781 341.761719c1.117188-.015625 2.21875-.246094 3.242188-.683594 1.054687-.390625 2.015625-1.003906 2.816406-1.792969 1.558594-1.636718 2.441406-3.800781 2.476563-6.058594-.015626-1.113281-.246094-2.214843-.683594-3.242187-.777344-2.144531-2.464844-3.832031-4.609375-4.609375-3.179688-1.285156-6.824219-.585938-9.300781 1.792969-.753907.832031-1.359376 1.78125-1.792969 2.816406-.433594 1.027344-.667969 2.128906-.679688 3.242187-.023437 2.269532.867188 4.453126 2.472657 6.058594 1.605468 1.605469 3.789062 2.5 6.058593 2.476563zm0 0"/><path d="m205.011719 375.894531c1.113281-.015625 2.214843-.246093 3.242187-.683593 1.054688-.390626 2.011719-1.003907 2.816406-1.792969 1.554688-1.636719 2.441407-3.796875 2.472657-6.058594-.011719-1.113281-.246094-2.214844-.683594-3.242187-.773437-2.144532-2.460937-3.832032-4.605469-4.609376-3.183594-1.285156-6.824218-.582031-9.300781 1.792969-.753906.832031-1.359375 1.78125-1.792969 2.816407-.4375 1.027343-.671875 2.128906-.683594 3.242187-.023437 2.269531.867188 4.453125 2.472657 6.058594s3.789062 2.5 6.0625 2.476562zm0 0"/><path d="m205.011719 179.628906c0-18.851562-15.285157-34.136718-34.136719-34.136718-18.847656 0-34.132812 15.285156-34.132812 34.136718 0 18.847656 15.285156 34.132813 34.132812 34.132813 18.851562 0 34.136719-15.285157 34.136719-34.132813zm-51.203125 0c0-9.425781 7.640625-17.070312 17.066406-17.070312s17.070312 7.644531 17.070312 17.070312c0 9.421875-7.644531 17.066406-17.070312 17.066406s-17.066406-7.644531-17.066406-17.066406zm0 0"/><path d="m328 435.464844c.527344.105468 1.0625.160156 1.597656.164062 4.082032-.011718 7.589844-2.910156 8.363282-6.921875l3.234374-16.75c1.78125-9.253906-4.269531-18.195312-13.519531-19.988281l6.46875-33.527344c1.78125-9.25-4.265625-18.195312-13.515625-19.984375l-31.4375-6.082031 1.910156-3.242188c4.65625-7.921874 4.710938-17.726562.144532-25.695312-4.566406-7.972656-13.050782-12.886719-22.234375-12.878906h-72.535157v-42.664063h1.425782c51.03125-.058593 92.382812-41.410156 92.441406-92.441406v-11.382813c-.042969-36.898437-29.945312-66.800781-66.84375-66.84375h-18.488281v-9.558593c-.015625-11.035157 7.078125-20.828125 17.570312-24.25l5.023438-1.707031c7.695312 9.738281 21.28125 12.523437 32.183593 6.597656 10.90625-5.925782 15.957032-18.84375 11.972657-30.59375-3.988281-11.753906-15.859375-18.929688-28.117188-16.996094-12.261719 1.933594-21.347656 12.414062-21.523437 24.820312l-4.933594 1.707032c-17.464844 5.734375-29.265625 22.042968-29.242188 40.421875v9.558593h-34.136718v-9.558593c.039062-18.375-11.746094-34.6875-29.199219-40.429688l-4.933594-1.671875c-.121093-12.585937-9.300781-23.25-21.730469-25.238281-12.425781-1.992187-24.476562 5.269531-28.523437 17.1875s1.09375 25.019531 12.164063 31.003906c11.070312 5.988281 24.84375 3.117188 32.605468-6.792969l5.074219 1.707032c10.453125 3.453125 17.503906 13.230468 17.476563 24.234375v9.558593h-18.492188c-36.894531.042969-66.796875 29.945313-66.839844 66.84375v11.382813c.054688 51.03125 41.410156 92.382813 92.441406 92.441406h1.425782v42.664063h-72.535156c-7.6875-.027344-14.976563 3.425781-19.824219 9.390625-4.847657 5.96875-6.730469 13.8125-5.125 21.332031l-23.476563-4.539062 6.484375-33.519532c4.445313.855469 9.050781-.085937 12.800781-2.621094 3.75-2.539062 6.335938-6.460937 7.195313-10.90625l3.234375-16.75c.890625-4.628906-2.136719-9.105468-6.765625-9.996093-4.625-.894531-9.101563 2.132812-9.996094 6.761719l-3.234375 16.757812-8.351562-1.621094h-.042969l-8.363281-1.59375 3.234375-16.757812c.671875-3.03125-.355469-6.1875-2.683594-8.242188-2.328125-2.058594-5.585937-2.6875-8.511719-1.644531-2.921875 1.039063-5.050781 3.585937-5.554687 6.652344l-3.234375 16.75c-1.785156 9.242187 4.25 18.183593 13.488281 19.984375l-6.5 33.605468c-.835937 4.488282.15625 9.121094 2.753906 12.875 2.535157 3.695313 6.4375 6.226563 10.847657 7.03125l36.230468 7.03125 43.523438 74.0625c-14.574219 7.101563-23.832032 21.878907-23.859375 38.09375h-8.535157c-18.851562 0-34.132812 15.28125-34.132812 34.132813v8.53125c0 9.425781 7.640625 17.066406 17.066406 17.066406h42.667969c9.425781 0 17.066406-7.640625 17.066406-17.066406v-25.597656c0-9.425781-7.640625-17.066407-17.066406-17.066407.015625-10.199218 6.109375-19.40625 15.488281-23.410156l6.339844 10.789063c4.613281 7.804687 13 12.601562 22.066406 12.621093h65.808594c9.066406-.019531 17.453125-4.816406 22.066406-12.621093l6.339844-10.789063c9.382812 4.003906 15.472656 13.210938 15.488281 23.410156-9.425781 0-17.066406 7.640626-17.066406 17.066407v25.597656c0 9.425781 7.640625 17.066406 17.066406 17.066406h42.667969c9.425781 0 17.066406-7.640625 17.066406-17.066406v-8.53125c0-18.851563-15.28125-34.132813-34.132812-34.132813h-8.535156c-.03125-16.226562-9.300782-31.019531-23.890626-38.121093l39.175782-66.558594 37.410156 7.226563-6.476562 33.453124c-4.445313-.859374-9.050782.082032-12.800782 2.621094-3.75 2.535156-6.335937 6.457032-7.195312 10.902344l-3.234375 16.75c-.890625 4.628906 2.136719 9.105469 6.765625 9.996094 4.625.894531 9.101562-2.132813 9.996094-6.761719l3.234374-16.757813 16.757813 3.242188-3.234375 16.757812c-.433594 2.226563.03125 4.53125 1.296875 6.410157 1.269531 1.878906 3.230469 3.179687 5.453125 3.609375zm-80.324219-417.972656c4.714844 0 8.535157 3.820312 8.535157 8.535156 0 4.710937-3.820313 8.53125-8.535157 8.53125-4.710937 0-8.53125-3.820313-8.53125-8.53125 0-4.714844 3.820313-8.535156 8.53125-8.535156zm-153.597656 17.066406c-4.714844 0-8.535156-3.820313-8.535156-8.53125 0-4.714844 3.820312-8.535156 8.535156-8.535156 4.710937 0 8.53125 3.820312 8.53125 8.535156 0 2.261718-.898437 4.433594-2.5 6.035156-1.597656 1.597656-3.769531 2.496094-6.03125 2.496094zm0 460.800781h-42.667969v-8.53125c0-9.425781 7.640625-17.066406 17.066406-17.066406h25.601563zm179.199219-25.597656c9.425781 0 17.066406 7.640625 17.066406 17.066406v8.53125h-42.667969v-25.597656zm-204.800782-314.308594v-11.382813c.027344-27.480468 22.296876-49.75 49.773438-49.777343h105.25c27.480469.027343 49.75 22.296875 49.777344 49.777343v11.382813c-.046875 41.609375-33.765625 75.328125-75.375 75.375h-54.050782c-41.609374-.046875-75.328124-33.765625-75.375-75.375zm93.867188 92.441406h17.066406v42.664063h-17.066406zm41.4375 187.734375h-65.808594c-3.023437 0-5.824218-1.601562-7.355468-4.207031l-9.875-16.777344-.144532-.257812-55.234375-93.867188c-1.574219-2.644531-1.601562-5.929687-.070312-8.597656 1.527343-2.671875 4.375-4.3125 7.449219-4.292969h196.269531c3.058593-.003906 5.886719 1.636719 7.40625 4.292969 1.519531 2.660156 1.5 5.925781-.050781 8.566406l-55.230469 93.933594-.101563.171875-9.898437 16.828125c-1.53125 2.605469-4.332031 4.207031-7.355469 4.207031zm0 0"/><path d="m153.808594 350.292969c-4.710938 0-8.53125 3.820312-8.53125 8.535156v8.53125c0 4.714844 3.820312 8.535156 8.53125 8.535156 4.714844 0 8.535156-3.820312 8.535156-8.535156v-8.53125c0-4.714844-3.820312-8.535156-8.535156-8.535156zm0 0"/><path d="m119.675781 350.292969c-4.710937 0-8.53125 3.820312-8.53125 8.535156v8.53125c0 4.714844 3.820313 8.535156 8.53125 8.535156 4.714844 0 8.535157-3.820312 8.535157-8.535156v-8.53125c0-4.714844-3.820313-8.535156-8.535157-8.535156zm0 0"/><path d="m230.609375 333.226562c0-4.710937-3.820313-8.53125-8.53125-8.53125h-34.132813c-4.714843 0-8.535156 3.820313-8.535156 8.53125 0 4.714844 3.820313 8.535157 8.535156 8.535157h34.132813c4.710937 0 8.53125-3.820313 8.53125-8.535157zm0 0"/></svg>