<svg height="512pt" viewBox="-26 0 512 512.0329" width="512pt" xmlns="http://www.w3.org/2000/svg"><path d="m134.417969 423.425781c-.429688.167969-.855469.339844-1.367188.511719-17.28125-26.59375-26.824219-57.46875-27.5625-89.175781 14.507813-1.449219 31.316407 12.628906 39.679688 34.132812 9.386719 24.152344 4.609375 48.554688-10.75 54.53125zm0 0" fill="#f57c00"/><path d="m341.945312 491.605469c-39.148437 15.265625-82.503906 15.8125-122.023437 1.535156-.066406-.007813-.125-.039063-.171875-.085937-6.054688-2.199219-11.980469-4.734376-17.75-7.59375-1.53125-3.242188-2.007812-6.882813-1.363281-10.410157 3.15625-17.152343 33.277343-26.199219 68.949219-21.503906 2.816406.253906 5.714843.769531 8.617187 1.28125 32.171875 6.058594 57.601563 21.246094 63.742187 36.777344zm0 0" fill="#f57c00"/><path d="m320.613281 478.804688c-23.042969 7.886718-47.238281 11.894531-71.59375 11.863281-8.308593.007812-16.609375-.589844-24.832031-1.792969-.066406-.007812-.125-.039062-.171875-.085938-6.050781-2.199218-11.976563-4.734374-17.75-7.59375-1.535156-3.5 2.21875-6.996093 2.902344-10.410156 3.15625-17.152344 33.28125-26.199218 68.949219-21.503906 19.542968 7.507812 38.144531 18.429688 42.496093 29.523438zm0 0" fill="#ff9801"/><path d="m435.132812 405.246094c-19.054687 39.515625-52.339843 70.363281-93.1875 86.359375-2.007812-4.5625-4.941406-8.660157-8.617187-12.03125 24.253906-12.609375 45.167969-30.800781 61.011719-53.078125 16.433594.789062 32.019531-7.328125 40.792968-21.25zm0 0" fill="#9e9e9e"/><path d="m445.542969 375.722656c2.371093-18.761718-4.691407-37.480468-18.859375-50.003906v-.085938c.027344-49.746093-21.363282-97.097656-58.710938-129.964843l20.824219.171875c54.070313 44.339844 76.238281 116.804687 56.234375 183.808594.253906-1.296876.425781-2.609376.511719-3.925782zm0 0" fill="#9e9e9e"/><path d="m426.683594 325.632812c-6.390625-5.363281-14.234375-8.691406-22.527344-9.558593-3.445312-.332031-6.921875-.1875-10.328125.425781-21.503906 3.414062-39.167969 23.980469-41.726563 50.261719-2.996093 21.992187 7.367188 43.660156 26.367188 55.125 4.679688 2.527343 9.8125 4.09375 15.105469 4.609375.253906.042968.511719.042968.765625 0-15.84375 22.277344-36.757813 40.46875-61.011719 53.078125-15.769531-13.128907-34.835937-21.683594-55.125-24.746094-5.273437-1.003906-10.601563-1.6875-15.957031-2.050781-32.425782-2.644532-58.710938 6.316406-61.609375 22.273437-.644531 3.527344-.167969 7.167969 1.363281 10.410157-9.328125-4.574219-18.210938-10-26.539062-16.214844-16.773438-12.398438-31.144532-27.753906-42.410157-45.308594.511719-.171875.9375-.34375 1.367188-.511719 15.359375-5.976562 20.136719-30.378906 10.75-54.53125-8.363281-21.503906-25.171875-35.582031-39.679688-34.132812-.113281-.648438-.140625-1.304688-.085937-1.960938l4.523437-42.667969c8.957031-37.839843 30.386719-71.566406 60.84375-95.742187l22.355469.167969h.085938l171.347656 1.109375h3.414062c37.347656 32.867187 58.738282 80.21875 58.710938 129.964843zm0 0" fill="#f5f5f5"/><path d="m378.46875 421.886719c4.679688 2.527343 9.8125 4.09375 15.105469 4.609375.253906.042968.511719.042968.765625 0zm0 0" fill="#9e9e9e"/><path d="m426.683594 325.71875v-.085938c-6.390625-5.363281-14.234375-8.691406-22.527344-9.558593-3.445312-.332031-6.921875-.1875-10.328125.425781zm0 0" fill="#9e9e9e"/><path d="m396.132812 163.070312c-.808593 11.226563-3.285156 22.269532-7.335937 32.769532-2.941406 7.769531-6.746094 15.183594-11.351563 22.101562-24.4375 17.050782-52.917968 27.410156-82.601562 30.039063 20.429688-4.996094 39.757812-13.734375 57.003906-25.773438 4.601563-6.914062 8.410156-14.328125 11.347656-22.101562.601563-1.476563 1.113282-2.984375 1.535157-4.519531 4.695312-2.171876 9.183593-4.769532 13.398437-7.765626 8.992188-5.59375 15.453125-14.46875 18.003906-24.75zm0 0" fill="#37474f"/><path d="m344.335938 57.089844c-8.617188 11.347656-32 19.367187-59.476563 19.367187-5.792969.03125-11.582031-.339843-17.324219-1.109375-22.867187-2.984375-40.445312-11.773437-44.628906-22.78125 12.464844-7.007812 26.121094-11.636718 40.277344-13.65625h.171875c5.503906-.859375 11.066406-1.285156 16.640625-1.277344 22.898437-.035156 45.296875 6.738282 64.339844 19.457032zm0 0" fill="#37474f"/><path d="m364.730469 195.585938c-.421875 1.535156-.933594 3.042968-1.535157 4.519531-2.9375 7.773437-6.746093 15.1875-11.347656 22.101562-17.246094 12.039063-36.574218 20.777344-57.003906 25.773438-5.292969.511719-10.582031.765625-15.957031.765625-33.476563.050781-66.238281-9.644532-94.292969-27.902344-4.238281-5.996094-7.871094-12.398438-10.839844-19.117188-1.109375-2.386718-2.046875-4.863281-2.984375-7.335937-3.617187-9.652344-5.859375-19.761719-6.65625-30.039063 2.691407 9.226563 8.554688 17.203126 16.554688 22.527344 20.480469 15.277344 57.34375 25.429688 99.328125 25.429688 9.09375.019531 18.183594-.492188 27.21875-1.535156 19.890625-1.785157 39.339844-6.917969 57.515625-15.1875zm0 0" fill="#607d8b"/><path d="m370.535156 167.339844c-.695312 9.625-2.648437 19.121094-5.804687 28.246094-18.175781 8.269531-37.625 13.402343-57.515625 15.1875 16.160156-3.277344 31.542968-9.621094 45.3125-18.6875 8.996094-5.59375 15.453125-14.46875 18.007812-24.746094zm0 0" fill="#37474f"/><path d="m310.203125 57.089844c-6.828125 8.957031-22.785156 15.785156-42.667969 18.257812-22.867187-2.984375-40.445312-11.773437-44.628906-22.78125 12.464844-7.007812 26.121094-11.636718 40.277344-13.65625h.171875c16.753906 2.570313 32.746093 8.773438 46.847656 18.179688zm0 0" fill="#607d8b"/><path d="m375.140625 162.644531c0 1.023438 0 2.21875-.085937 3.328125v.085938c0 1.792968-.082032 3.667968-.253907 5.546875-2.554687 10.277343-9.011719 19.15625-18.003906 24.746093-3.605469 2.539063-7.398437 4.792969-11.351563 6.742188-21.238281 6.304688-43.296874 9.410156-65.449218 9.214844-41.984375 0-78.847656-10.152344-99.328125-25.429688-8-5.324218-13.863281-13.300781-16.554688-22.527344-.105469-.417968-.164062-.847656-.171875-1.28125-.171875-1.875-.253906-3.753906-.253906-5.546874v-.082032c-.085938-1.109375-.085938-2.304687-.085938-3.328125.054688-42.054687 22.707032-80.835937 59.304688-101.546875 5.207031 13.652344 30.976562 23.890625 61.953125 23.890625 10.058594.050781 20.089844-1.125 29.867187-3.496093 4.386719-.996094 8.671876-2.394532 12.800782-4.183594 29.945312 21.894531 47.636718 56.773437 47.613281 93.867187zm0 0" fill="#f5f5f5"/><path d="m396.476562 154.113281c0 1.023438 0 2.21875-.085937 3.328125v.082032c0 1.792968-.085937 3.671874-.257813 5.546874-2.550781 10.28125-9.011718 19.15625-18.003906 24.75-10.027344 6.773438-21.054687 11.929688-32.683594 15.273438 3.953126-1.949219 7.746094-4.203125 11.351563-6.742188 8.992187-5.589843 15.449219-14.46875 18.003906-24.746093.171875-1.878907.253907-3.753907.253907-5.546875v-.085938c.085937-1.109375.085937-2.304687.085937-3.328125.023437-37.09375-17.667969-71.972656-47.613281-93.867187 6.511718-2.390625 12.300781-6.417969 16.808594-11.6875 32.574218 21.527344 52.160156 57.976562 52.140624 97.023437zm0 0" fill="#9e9e9e"/><path d="m327.527344 68.777344c-4.128906 1.789062-8.414063 3.1875-12.800782 4.183594 3.164063-1.949219 5.964844-4.429688 8.277344-7.339844 1.535156 1.023437 3.070313 2.046875 4.523438 3.15625zm0 0" fill="#cfd8dc"/><path d="m238.363281 112.109375c-14.039062-2.84375-28.101562 8.054687-31.402343 24.34375-3.304688 16.289063 5.402343 31.804687 19.441406 34.652344 14.042968 2.847656 28.101562-8.050781 31.40625-24.34375 3.300781-16.289063-5.402344-31.804688-19.445313-34.652344zm0 0" fill="#424242"/><path d="m326.417969 153.601562c0 9.425782-7.640625 17.066407-17.066407 17.066407-9.425781 0-17.070312-7.640625-17.070312-17.066407 0-9.425781 7.644531-17.066406 17.070312-17.066406 9.425782 0 17.066407 7.640625 17.066407 17.066406zm0 0" fill="#424242"/><path d="m242.789062 291.15625c-9.90625 18.371094-30.855468 27.867188-51.199218 23.210938-3.214844-.949219-6.304688-2.265626-9.214844-3.925782-20.789062-13.414062-26.816406-41.109375-13.484375-61.949218 4.011719-6.96875 9.628906-12.878907 16.382813-17.238282 2.816406-1.828125 5.820312-3.34375 8.960937-4.523437l50.433594 18.601562c7.222656 14.597657 6.515625 31.867188-1.878907 45.824219zm0 0" fill="#ff9801"/><path d="m221.457031 291.15625c-6.46875 11.40625-17.21875 19.757812-29.867187 23.210938-3.214844-.949219-6.304688-2.265626-9.214844-3.925782-20.789062-13.414062-26.816406-41.109375-13.484375-61.949218 4.011719-6.96875 9.628906-12.878907 16.382813-17.238282l38.058593 14.078125c7.226563 14.597657 6.519531 31.867188-1.875 45.824219zm0 0" fill="#ffb301"/><path d="m445.542969 375.722656c-.085938 1.316406-.257813 2.628906-.511719 3.925782-2.570312 8.769531-5.882812 17.304687-9.898438 25.515624v.082032c-9.703124 16.894531-29.59375 25.101562-48.386718 19.96875-22.101563-6.058594-37.289063-30.632813-34.644532-58.453125 1.167969-22.648438 16.109376-42.261719 37.632813-49.40625 4.683594-1.328125 9.574219-1.761719 14.421875-1.28125 25.769531 2.476562 44.371094 29.183593 41.386719 59.648437zm0 0" fill="#f57c00"/><path d="m424.207031 375.722656c-.085937 1.316406-.257812 2.628906-.511719 3.925782-2.570312 8.769531-5.882812 17.304687-9.898437 25.515624v.082032c-6.402344 9.617187-15.976563 16.683594-27.050781 19.96875-22.101563-6.058594-37.289063-30.632813-34.644532-58.453125 1.167969-22.648438 16.109376-42.261719 37.632813-49.40625 22.101563 6.144531 37.203125 30.71875 34.472656 58.367187zm0 0" fill="#ff9801"/><path d="m309.351562 358.144531v34.644531c.003907 4.460938-1.765624 8.742188-4.917968 11.894532s-7.433594 4.921875-11.894532 4.917968h-17.578124c-.628907.011719-1.253907-.015624-1.878907-.085937-8.523437-.933594-14.964843-8.152344-14.933593-16.726563v-34.644531c-.03125-8.574219 6.410156-15.792969 14.933593-16.726562.625-.070313 1.25-.097657 1.878907-.085938h17.578124c4.460938-.003906 8.742188 1.761719 11.894532 4.917969 3.152344 3.152344 4.921875 7.433594 4.917968 11.894531zm0 0" fill="#424242"/><path d="m288.015625 358.144531v34.644531c.035156 8.574219-6.410156 15.792969-14.933594 16.726563-8.523437-.933594-14.964843-8.152344-14.933593-16.726563v-34.644531c-.03125-8.574219 6.410156-15.792969 14.933593-16.726562 8.523438.933593 14.96875 8.152343 14.933594 16.726562zm0 0" fill="#9e9e9e"/><path d="m145.082031 298.667969v12.457031c-.003906 2.878906-1.445312 5.566406-3.839843 7.167969l-19.625 13.054687c-1.386719.9375-3.019532 1.445313-4.695313 1.453125h-21.246094c-1.171875-.011719-2.328125-.246093-3.414062-.683593l-52.90625-22.699219c-1.339844-.582031-2.511719-1.492188-3.414063-2.644531-1.15625-1.488282-1.785156-3.320313-1.792968-5.207032v-2.898437c0-4.714844 3.820312-8.535157 8.535156-8.535157h93.867187c4.710938 0 8.53125 3.820313 8.53125 8.535157zm0 0" fill="#9e9e9e"/><path d="m128.015625 290.132812v12.460938c-.003906 2.878906-1.445313 5.566406-3.839844 7.167969l-19.625 13.054687c-1.386719.9375-3.019531 1.441406-4.695312 1.449219h-21.246094c-1.171875-.011719-2.328125-.242187-3.414063-.679687l-39.253906-16.8125c-1.15625-1.488282-1.785156-3.320313-1.792968-5.207032v-2.898437c0-4.714844 3.820312-8.535157 8.535156-8.535157zm0 0" fill="#cfd8dc"/><path d="m59.75 143.53125c-.003906 5.109375-.957031 10.171875-2.816406 14.933594l-.769532 2.046875c-2.757812 6.199219-8.917968 10.179687-15.699218 10.15625h-12.628906c-1.472657.011719-2.9375-.191407-4.351563-.597657-5.050781-1.277343-9.234375-4.800781-11.351563-9.558593l-.765624-2.046875c-3.757813-9.601563-3.757813-20.265625 0-29.867188 1.621093-4.382812 3.890624-8.496094 6.738281-12.203125 1.617187-2.089843 3.417969-4.03125 5.378906-5.800781.957031-.902344 1.984375-1.730469 3.070313-2.476562 2.183593-1.71875 4.824218-2.757813 7.59375-2.988282 2.769531.230469 5.414062 1.269532 7.597656 2.988282 3.207031 2.328124 6.050781 5.117187 8.445312 8.277343 2.847656 3.707031 5.121094 7.820313 6.742188 12.203125 1.867187 4.757813 2.820312 9.824219 2.816406 14.933594zm0 0" fill="#0377bc"/><path d="m38.417969 143.53125c-.003907 5.109375-.960938 10.171875-2.816407 14.933594l-.769531 2.046875c-2.113281 4.757812-6.300781 8.28125-11.347656 9.558593-5.050781-1.277343-9.234375-4.800781-11.351563-9.558593l-.765624-2.046875c-3.757813-9.601563-3.757813-20.265625 0-29.867188 1.621093-4.382812 3.890624-8.496094 6.738281-12.203125 1.617187-2.089843 3.417969-4.03125 5.378906-5.800781 1.960937 1.769531 3.757813 3.710938 5.375 5.800781 2.847656 3.707031 5.121094 7.820313 6.742187 12.203125 1.863282 4.757813 2.820313 9.824219 2.816407 14.933594zm0 0" fill="#02a9f4"/><path d="m51.214844 278.519531c-1.019532 7.269531-7.632813 12.414063-14.933594 11.613281h-4.265625c-7.296875.800782-13.910156-4.34375-14.933594-11.613281v-36.503906c1.023438-7.273437 7.636719-12.414063 14.933594-11.617187h4.265625c7.300781-.796876 13.914062 4.34375 14.933594 11.617187zm0 0" fill="#cfd8dc"/><path d="m225.507812 179.617188c1.773438.308593 3.566407.464843 5.359376.46875 18.054687-.964844 32.90625-14.558594 35.457031-32.460938 2.042969-10.546875-.175781-21.472656-6.175781-30.386719-4.855469-7.171875-12.390626-12.09375-20.910157-13.652343-20.046875-2.210938-38.179687 12.019531-40.804687 32.015624-2.035156 10.554688.195312 21.484376 6.195312 30.398438 4.847656 7.160156 12.375 12.066406 20.878906 13.617188zm-10.289062-40.960938c1.082031-9.769531 8.832031-17.460938 18.609375-18.464844.824219 0 1.648437.070313 2.460937.214844 4.035157.773438 7.585938 3.140625 9.855469 6.570312 3.40625 5.179688 4.632813 11.492188 3.414063 17.570313-.964844 10.769531-10.289063 18.839844-21.085938 18.242187-4.027344-.765624-7.574218-3.128906-9.832031-6.550781-3.414063-5.179687-4.640625-11.492187-3.421875-17.570312zm0 0"/><path d="m309.351562 179.199219c14.136719 0 25.597657-11.460938 25.597657-25.597657 0-14.140624-11.460938-25.601562-25.597657-25.601562-14.140624 0-25.601562 11.460938-25.601562 25.601562 0 14.136719 11.460938 25.597657 25.601562 25.597657zm0-34.132813c4.710938 0 8.53125 3.820313 8.53125 8.535156 0 4.710938-3.820312 8.53125-8.53125 8.53125-4.714843 0-8.535156-3.820312-8.535156-8.53125 0-4.714843 3.820313-8.535156 8.535156-8.535156zm0 0"/><path d="m275.003906 418.132812h17.492188c14.015625-.011718 25.371094-11.371093 25.386718-25.386718v-34.558594c-.015624-14.015625-11.371093-25.375-25.386718-25.386719h-17.492188c-14.015625.011719-25.375 11.371094-25.386718 25.386719v34.558594c.011718 14.015625 11.371093 25.375 25.386718 25.386718zm-8.320312-59.945312c.007812-4.59375 3.726562-8.3125 8.320312-8.320312h17.492188c4.59375.003906 8.316406 3.726562 8.320312 8.320312v34.558594c-.003906 4.59375-3.726562 8.316406-8.320312 8.320312h-17.492188c-4.59375-.003906-8.316406-3.726562-8.320312-8.320312zm0 0"/><path d="m30.789062 315.042969 33.328126 14.285156.503906.210937 25.898437 11.09375c1.0625.464844 2.207031.699219 3.363281.699219h3.414063c1.789063 31.03125 11.609375 61.0625 28.5 87.152344.171875.28125.355469.550781.554687.8125 46.671876 72.082031 137.53125 101.503906 217.601563 70.464844.386719-.042969.769531-.117188 1.144531-.21875.28125-.113281.460938-.335938.714844-.460938 41.851562-16.714843 76.054688-48.296875 96.042969-88.6875.1875-.273437.410156-.503906.597656-.785156.640625-.957031 1.085937-2.027344 1.304687-3.15625 3.753907-8.007813 6.914063-16.28125 9.457032-24.75.050781-.167969.160156-.289063.195312-.460937.035156-.167969.074219-.5.117188-.757813 19.835937-67.789063-1.550782-140.921875-54.78125-187.339844 3.15625-9.464843 5.113281-19.285156 5.828125-29.234375.101562-.949218.167969-1.90625.222656-2.808594.058594-.742187.21875-1.390624.21875-2.183593 0-.402344 0-.914063 0-1.511719 0-.101562-.050781-.195312-.058594-.300781.058594-1.023438.101563-2.0625.101563-3.042969-.027344-33.796875-13.78125-66.128906-38.109375-89.585938v-55.941406c0-4.714844-3.820313-8.535156-8.53125-8.535156-4.714844 0-8.535157 3.820312-8.535157 8.535156v41.972656c-.09375-.066406-.203124-.117187-.296874-.1875l-.050782-.050781c-.070312-.050781-.148437-.058593-.214844-.101562-38.730468-25.917969-88.683593-28.054688-129.484374-5.539063h-.042969c-.242188.140625-.476563.289063-.699219.453125-39.511719 22.066407-64.007812 63.765625-64.050781 109.019531 0 1.238282 0 2.5625.082031 3.175782v.214844 1.464843c-.007812 1.71875.136719 3.429688.429688 5.121094 0 .171875.058593.332031.085937.503906.726563 9.207031 2.507813 18.296875 5.3125 27.09375-27.703125 23.570313-47.722656 54.886719-57.488281 89.925781h-44.714844c.632812-2.078124.96875-4.230468 1-6.402343v-29.867188c-.035156-10.457031-7-19.628906-17.066406-22.46875v-18.0625c0-4.714843-3.820313-8.535156-8.535156-8.535156-4.710938 0-8.53125 3.820313-8.53125 8.535156v18.0625c-10.066407 2.839844-17.035157 12.011719-17.066407 22.46875v29.867188c.03125 10.460937 7 19.628906 17.066407 22.46875v9.53125c0 3.414062 2.035156 6.5 5.171874 7.84375zm11.894532-13.464844v-2.910156h93.867187v12.5l-19.628906 13.097656h-21.289063zm93.125 110.378906c-11.878906-20.535156-19.109375-43.425781-21.179688-67.058593 10.6875 5.847656 18.757813 15.53125 22.585938 27.09375 6.726562 17.28125 4.683594 32.847656-1.40625 39.964843zm73.273437 67.566407c-.183593-.964844-.183593-1.957032 0-2.917969.859375-3.164063 2.945313-5.855469 5.796875-7.476563 9.929688-6.828125 32.910156-11.308594 61.804688-5.921875 19.351562 2.6875 37.476562 11.027344 52.105468 23.976563-39.445312 12.519531-82.152343 9.78125-119.671874-7.679688zm185.335938-61.519532c-21.085938-2.019531-36.242188-24.644531-33.800781-50.40625 2.441406-25.761718 21.699218-44.996094 42.753906-43.03125 9.136718 1.042969 17.476562 5.695313 23.167968 12.917969 8.332032 10.683594 12.113282 24.226563 10.511719 37.683594-.042969.707031-.160156 1.460937-.28125 2.191406-2.523437 8.273437-5.703125 16.332031-9.507812 24.101563-7.210938 10.992187-19.742188 17.300781-32.867188 16.542968zm-159.007813-131.121094c-9.050781 17.871094-30.820312 25.109376-48.769531 16.210938-7.875-4.644531-13.398437-12.429688-15.179687-21.398438-2.054688-9.898437-.335938-20.203124 4.820312-28.894531 4.132812-7.175781 10.339844-12.9375 17.800781-16.53125 14.046875 7.441407 29.019531 12.984375 44.527344 16.488281 4.113281 11.277344 2.941406 23.808594-3.199219 34.125zm-44.640625-72.277343c-3.640625-5.378907-6.757812-11.09375-9.308593-17.066407 23.296874 14.617188 59.347656 23.285157 98.558593 23.285157 39.210938 0 75.453125-8.746094 98.757813-23.449219-2.15625 5.011719-4.707032 9.84375-7.628906 14.449219-54.21875 36.742187-125.070313 37.816406-180.378907 2.738281zm138.71875-156.3125c-13.859375 6.804687-29.171875 10.117187-44.605469 9.640625-17.132812.871094-34.132812-3.410156-48.808593-12.296875 29.898437-13.480469 64.328125-12.5 93.414062 2.65625zm-109.140625 5.972656c11.375 12.679687 35.558594 20.734375 64.535156 20.734375 21.359376 1.035156 42.480469-4.851562 60.222657-16.785156 1.621093 1.230468 3.234375 2.457031 4.777343 3.773437v38.945313c0 4.710937 3.820313 8.53125 8.535157 8.53125 4.710937 0 8.53125-3.820313 8.53125-8.53125v-20.53125c13.636719 18.441406 20.996093 40.765625 21 63.699218v1.957032c-.011719.230468-.011719.460937 0 .691406v.648438c0 1.390624-.085938 2.890624-.246094 4.546874-2.320313 7.851563-7.457031 14.574219-14.421875 18.875-19.855469 14.183594-55.550781 22.980469-93.15625 22.980469-38.46875 0-74.601562-9.105469-94.21875-23.703125-6.117188-4.054687-10.761719-9.976562-13.242188-16.878906 0-.359375-.085937-.710938-.113281-1.066406-.144531-1.351563-.210937-2.835938-.253906-4.667969v-.164063c0-.238281 0-.410156 0-.65625-.070313-.855468-.0625-1.707031-.0625-2.5625-.011719-36.109374 18.046875-69.832031 48.113281-89.835937zm-52.839844 144.210937c2.859376 5.957032 6.207032 11.667969 10.011719 17.066407l.085938.128906.074219.121094c.09375.128906.238281.167969.332031.289062-6.710938 4.8125-12.339844 10.984375-16.511719 18.117188-7.292969 12.367187-9.691406 27.019531-6.722656 41.070312 2.78125 13.675781 11.265625 25.515625 23.320312 32.546875 7.308594 4.210938 15.601563 6.417969 24.039063 6.390625 19.988281-.386719 38.269531-11.34375 48.027343-28.792969 6.953126-11.941406 9.421876-25.96875 6.960938-39.566406 7.210938.894532 14.46875 1.359375 21.734375 1.390625 36.910156.054688 72.953125-11.175781 103.296875-32.1875l.136719-.085937c.410156-.355469.789062-.746094 1.125-1.167969.410156-.339844.789062-.71875 1.128906-1.128906l.074219-.128907v-.058593c2.636718-4.035157 5.03125-8.222657 7.167968-12.542969 33.179688 31.105469 51.988282 74.566406 51.960938 120.046875 0 .699219-.09375 1.375-.101562 2.074219-1.21875-1.878906-2.542969-3.6875-3.960938-5.417969-8.554688-10.742187-21.058594-17.605469-34.714844-19.054687-30.496094-2.945313-57.921875 23.261718-61.363281 58.375-3.4375 35.113281 18.707031 66.117187 49.128906 69.035156 1.582031.136718 3.167969.203125 4.761719.203125 3.011719-.03125 6.015625-.347657 8.96875-.9375-16.402344 20.03125-37.273438 35.9375-60.9375 46.4375-11.09375-15.574219-35.550781-28.59375-65.765625-34.296875-30.21875-5.699219-58.710937-2.3125-74.617187 8.628906-5.746094 3.71875-10.027344 9.304688-12.125 15.820312-18.683594-11.410156-34.902344-26.429687-47.710938-44.183593 13.789062-11.496094 17.453125-36.105469 7.800781-60.894531-4.429687-11.96875-12-22.527344-21.914062-30.566407l18.621093-12.40625c2.363282-1.578125 3.785157-4.226562 3.796876-7.066406v-25.601563c0-4.710937-3.820313-8.53125-8.535157-8.53125h-23.890625c8.675782-28.046874 24.664063-53.28125 46.316406-73.105468zm-141.890624 36.855469c.007812-3.53125 2.867187-6.390625 6.398437-6.398437h4.265625c3.53125.007812 6.390625 2.867187 6.402344 6.398437v29.867188c-.011719 3.53125-2.871094 6.390625-6.402344 6.402343h-4.265625c-3.53125-.011718-6.390625-2.871093-6.398437-6.402343zm0 0"/><path d="m11.382812 111.164062c-3.363281 4.375-6.066406 9.222657-8.011718 14.386719-4.472656 11.558594-4.472656 24.367188 0 35.925781.296875.792969.613281 1.570313.964844 2.390626 4.074218 9.347656 13.320312 15.375 23.515624 15.332031h12.597657c10.214843.042969 19.480469-5.996094 23.566406-15.359375.332031-.777344.648437-1.554688.949219-2.347656 4.46875-11.554688 4.46875-24.367188 0-35.925782-1.949219-5.164062-4.648438-10.011718-8.015625-14.386718-2.898438-3.851563-6.371094-7.234376-10.296875-10.035157-7.21875-6.03125-17.71875-6.03125-24.9375 0-3.933594 2.792969-7.421875 6.171875-10.332032 10.019531zm7.953126 20.421876c1.363281-3.601563 3.242187-6.980469 5.582031-10.039063 1.835937-2.445313 4.027343-4.605469 6.5-6.40625 1.597656-1.109375 2.644531-1.460937 2.5625-1.503906 1.050781.324219 2.035156.832031 2.910156 1.503906 2.472656 1.800781 4.664063 3.960937 6.5 6.40625 2.339844 3.058594 4.21875 6.4375 5.582031 10.039063 3.011719 7.675781 3.011719 16.210937 0 23.890624l-.667968 1.65625c-1.371094 3.097657-4.460938 5.078126-7.847657 5.035157h-12.605469c-3.371093.046875-6.453124-1.914063-7.832031-4.992188l-.683593-1.707031c-3.011719-7.679688-3.011719-16.214844 0-23.894531zm0 0"/></svg>