<svg height="512pt" viewBox="-25 0 512 512.02746" width="512pt" xmlns="http://www.w3.org/2000/svg"><path d="m297.933594 384.710938c.519531 4.449218-2.441406 8.554687-6.828125 9.472656-40.03125 7.628906-81.140625 7.628906-121.171875 0-4.382813-.917969-7.34375-5.023438-6.828125-9.472656 2.304687-20.480469 4.523437-36.4375 6.828125-58.878907.445312-3.828125 3.304687-6.925781 7.082031-7.683593 12.0625-2.019532 24.226563-3.355469 36.4375-4.007813h34.132813c12.210937.652344 24.375 1.988281 36.4375 4.007813 3.777343.757812 6.636718 3.855468 7.082031 7.683593 2.304687 22.441407 4.523437 38.398438 6.828125 58.878907zm0 0" fill="#c52828"/><path d="m276.601562 384.710938c.515626 4.449218-2.445312 8.554687-6.828124 9.472656-16.464844 3.175781-33.160157 5.027344-49.921876 5.546875-16.757812-.519531-33.453124-2.371094-49.917968-5.546875-4.382813-.917969-7.34375-5.023438-6.828125-9.472656 2.304687-20.480469 4.523437-36.4375 6.828125-58.878907.445312-3.828125 3.304687-6.925781 7.082031-7.683593 12.0625-2.019532 24.226563-3.355469 36.4375-4.007813h12.800781c12.210938.652344 24.375 1.988281 36.4375 4.007813 3.773438.757812 6.636719 3.855468 7.082032 7.683593 2.304687 22.441407 4.523437 38.398438 6.828124 58.878907zm0 0" fill="#f44335"/><path d="m213.453125 272.085938h34.132813v52.207031h-34.132813zm0 0" fill="#c52828"/><path d="m281.71875 242.03125v22.53125c0 9.425781-7.640625 17.066406-17.066406 17.066406h-68.265625c-9.425781 0-17.066407-7.640625-17.066407-17.066406v-22.53125l51.199219-12.796875zm0 0" fill="#c52828"/><path d="m375.585938 160.285156v69.117188c-.011719 4.703125-1.957032 9.195312-5.378907 12.421875-3.421875 3.226562-8.015625 4.90625-12.710937 4.644531l-18.6875-1.109375-107.265625-6.3125c-.679688-.085937-1.367188-.085937-2.046875 0l-11.777344.683594-114.175781 6.738281c-2.355469.121094-4.710938-.257812-6.910157-1.109375-6.695312-2.460937-11.152343-8.824219-11.179687-15.957031v-69.117188c-.015625-8.679687 6.484375-15.984375 15.105469-16.984375l117.160156-13.738281 10.839844-1.277344c1.300781-.171875 2.621094-.171875 3.925781 0l128 15.015625c8.617187 1 15.117187 8.304688 15.101563 16.984375zm0 0" fill="#c52828"/><path d="m349.988281 160.285156v69.117188c-.027343 7.132812-4.484375 13.496094-11.179687 15.957031-2.203125.851563-4.554688 1.230469-6.914063 1.109375l-114.175781-6.738281-11.773438-.683594c-.679687-.085937-1.371093-.085937-2.050781 0l-107.261719 6.3125c-6.695312-2.460937-11.152343-8.824219-11.179687-15.957031v-69.117188c-.015625-8.679687 6.484375-15.984375 15.105469-16.984375l117.160156-13.738281 117.164062 13.738281c8.617188 1 15.117188 8.304688 15.105469 16.984375zm0 0" fill="#f44335"/><path d="m162.253906 192.027344c0 11.78125-9.550781 21.332031-21.335937 21.332031-2.9375.015625-5.847657-.59375-8.53125-1.789063-7.761719-3.402343-12.773438-11.070312-12.773438-19.542968s5.011719-16.140625 12.773438-19.542969c2.683593-1.195313 5.59375-1.804687 8.53125-1.789063 11.785156 0 21.335937 9.550782 21.335937 21.332032zm0 0" fill="#fec108"/><path d="m341.453125 192.027344c0 11.78125-9.550781 21.332031-21.332031 21.332031-2.941406.015625-5.851563-.59375-8.535156-1.789063-7.761719-3.402343-12.773438-11.070312-12.773438-19.542968s5.011719-16.140625 12.773438-19.542969c2.683593-1.195313 5.59375-1.804687 8.535156-1.789063 11.78125 0 21.332031 9.550782 21.332031 21.332032zm0 0" fill="#fec108"/><g fill="#ffeb3a"><path d="m145.1875 192.027344c.015625 8.484375-5.015625 16.164062-12.800781 19.542968-7.761719-3.402343-12.773438-11.070312-12.773438-19.542968s5.011719-16.140625 12.773438-19.542969c7.785156 3.378906 12.816406 11.058594 12.800781 19.542969zm0 0"/><path d="m324.386719 192.027344c.015625 8.484375-5.015625 16.164062-12.800781 19.542968-7.761719-3.402343-12.773438-11.070312-12.773438-19.542968s5.011719-16.140625 12.773438-19.542969c7.785156 3.378906 12.816406 11.058594 12.800781 19.542969zm0 0"/><path d="m42.785156 196.292969c0 9.425781-7.640625 17.066406-17.066406 17.066406s-17.066406-7.640625-17.066406-17.066406 7.640625-17.066407 17.066406-17.066407 17.066406 7.640626 17.066406 17.066407zm0 0"/><path d="m452.386719 196.292969c0 9.425781-7.640625 17.066406-17.066407 17.066406-9.425781 0-17.066406-7.640625-17.066406-17.066406s7.640625-17.066407 17.066406-17.066407c9.425782 0 17.066407 7.640626 17.066407 17.066407zm0 0"/></g><path d="m203.726562 444.785156-6.402343 51.199219c-.515625 4.277344-4.140625 7.496094-8.445313 7.507813h-103.425781c-4.710937 0-8.535156-3.820313-8.535156-8.53125 0-32.988282 26.746093-59.734376 59.734375-59.734376h58.625c2.4375.007813 4.753906 1.054688 6.371094 2.882813 1.613281 1.824219 2.371093 4.253906 2.078124 6.675781zm0 0" fill="#c52828"/><path d="m384.121094 494.960938c0 4.710937-3.820313 8.53125-8.535156 8.53125h-103.421876c-4.308593-.011719-7.933593-3.230469-8.449218-7.507813l-6.402344-51.199219c-.289062-2.421875.464844-4.851562 2.078125-6.675781 1.617187-1.828125 3.933594-2.875 6.371094-2.882813h58.625c32.988281 0 59.734375 26.746094 59.734375 59.734376zm0 0" fill="#c52828"/><path d="m178.125 444.785156-6.398438 51.199219c-.519531 4.277344-4.140624 7.496094-8.449218 7.507813h-77.824219c-4.710937 0-8.535156-3.820313-8.535156-8.53125 0-32.988282 26.746093-59.734376 59.734375-59.734376h33.023437c2.4375.007813 4.757813 1.054688 6.371094 2.882813 1.613281 1.824219 2.371094 4.253906 2.078125 6.675781zm0 0" fill="#f44335"/><path d="m358.519531 494.960938c0 4.710937-3.820312 8.53125-8.53125 8.53125h-77.824219c-4.308593-.011719-7.933593-3.230469-8.449218-7.507813l-6.402344-51.199219c-.289062-2.421875.464844-4.851562 2.078125-6.675781 1.617187-1.828125 3.933594-2.875 6.371094-2.882813h33.023437c32.992188 0 59.734375 26.746094 59.734375 59.734376zm0 0" fill="#f44335"/><path d="m140.917969 162.160156c-16.492188 0-29.863281 13.371094-29.863281 29.867188s13.371093 29.867187 29.863281 29.867187c16.496093 0 29.867187-13.371093 29.867187-29.867187s-13.371094-29.867188-29.867187-29.867188zm0 42.667969c-7.066407 0-12.796875-5.730469-12.796875-12.800781 0-7.070313 5.730468-12.800782 12.796875-12.800782 7.070312 0 12.800781 5.730469 12.800781 12.800782 0 7.070312-5.730469 12.800781-12.800781 12.800781zm0 0"/><path d="m320.121094 221.894531c16.492187 0 29.867187-13.371093 29.867187-29.867187s-13.375-29.867188-29.867187-29.867188c-16.496094 0-29.867188 13.371094-29.867188 29.867188s13.371094 29.867187 29.867188 29.867187zm0-42.667969c7.066406 0 12.796875 5.730469 12.796875 12.800782 0 7.070312-5.730469 12.800781-12.796875 12.800781-7.070313 0-12.800782-5.730469-12.800782-12.800781 0-7.070313 5.730469-12.800782 12.800782-12.800782zm0 0"/><path d="m230.519531 119.492188c-.492187.054687-.976562.152343-1.449219.292968-.511718 0-1.035156-.0625-1.546874 0l-128 15.058594c-12.886719 1.519531-22.601563 12.445312-22.605469 25.421875v27.496094h-27.167969c-4.15625-11.757813-16.175781-18.808594-28.464844-16.699219-12.289062 2.109375-21.269531 12.761719-21.269531 25.230469s8.980469 23.125 21.269531 25.234375c12.289063 2.105468 24.308594-4.945313 28.464844-16.699219h27.167969v24.566406c0 14.140625 11.464843 25.601563 25.601562 25.601563.503907 0 1 0 1.503907-.050782l66.761718-3.925781v13.542969c0 14.136719 11.460938 25.597656 25.601563 25.597656h8.53125v16.152344c-12.039063.882812-24.027344 2.429688-35.898438 4.636719-2.699219.519531-4.984375 2.3125-6.136719 4.8125h-42.554687c-4.996094 0-9.539063 2.910156-11.628906 7.449219-2.085938 4.542968-1.34375 9.882812 1.910156 13.679687l21.699219 25.308594-13.292969 10.734375c-2.421875 1.898437-3.632813 4.953125-3.171875 7.992187.460938 3.042969 2.523438 5.601563 5.394531 6.695313 2.875 1.097656 6.117188.5625 8.484375-1.402344l13.289063-10.726562 10.707031 13.296874-13.292969 10.710938c-2.816406 2.269531-3.890625 6.070312-2.6875 9.480469 1.207031 3.410156 4.429688 5.6875 8.046875 5.691406 1.945313.003906 3.832032-.664063 5.339844-1.894531l13.304688-10.710938c.117187-.101562.210937-.230468.332031-.332031 4.828125 1.007813 9.675781 1.945313 14.507812 2.722656v22.238281h-42.617187c-37.683594.042969-68.222656 30.582032-68.265625 68.265626 0 9.425781 7.640625 17.066406 17.066406 17.066406h103.398437c8.601563-.007813 15.855469-6.414063 16.921876-14.949219l6.398437-51.199219c.59375-4.65625-.765625-9.34375-3.757813-12.957031-2.992187-3.613281-7.34375-5.824219-12.027343-6.109375v-20.09375c22.691406 2.410156 45.574219 2.410156 68.265625 0v20.09375c-4.683594.28125-9.042969 2.488281-12.039063 6.101562-2.996093 3.613282-4.359375 8.308594-3.765625 12.964844l6.402344 51.199219c1.066406 8.542969 8.328125 14.953125 16.9375 14.949219h103.398438c9.425781 0 17.066406-7.640625 17.066406-17.066406-.042969-37.683594-30.582032-68.222657-68.265625-68.265626h-42.667969v-22.238281c6.339844-1.015625 12.65625-2.175781 18.917969-3.558593 4.238281-.945313 7.089843-4.917969 6.632812-9.234376-1.230469-11.679687-2.457031-21.664062-3.679687-31.632812-.914063-7.476562-1.824219-15.035156-2.746094-23.21875l37.914062 12.636719c.867188.296875 1.777344.445312 2.695313.445312 1.9375 0 3.820313-.660156 5.332031-1.871093l40.339844-32.261719h5.527344c9.425781 0 17.066406-7.640625 17.066406-17.066407v-17.066406c0-4.714844-3.820312-8.535156-8.53125-8.535156-4.714844 0-8.535156 3.820312-8.535156 8.535156v17.066406h-17.066406v-17.066406c0-4.714844-3.820313-8.535156-8.53125-8.535156-4.714844 0-8.535157 3.820312-8.535157 8.535156v17.066406c.019531 5.074219 2.3125 9.875 6.246094 13.082032l-25.019531 20.019531-40.960938-13.65625c-.484375-3.621094-3.234375-6.527344-6.824218-7.210937-11.855469-2.195313-23.820313-3.734376-35.839844-4.617188v-16.152344h8.53125c14.140625 0 25.601562-11.460937 25.601562-25.597656v-13.542969l66.753906 3.925781c7.039063.414063 13.9375-2.089843 19.070313-6.925781 5.128906-4.835937 8.039063-11.574219 8.042969-18.625v-24.566406h27.167968c4.15625 11.753906 16.175782 18.804687 28.464844 16.699219 12.289063-2.109375 21.273438-12.765625 21.273438-25.234375s-8.984375-23.121094-21.273438-25.230469c-12.289062-2.109375-24.308594 4.941406-28.464844 16.699219h-27.167968v-27.496094c-.007813-12.972656-9.71875-23.894531-22.605469-25.410156l-94.71875-11.144531c.621094-.566407 1.253906-1.128907 1.796875-1.707032 8.484375-8.632812 13.203125-20.273437 13.125-32.375.003906-6.289062-1.265625-12.511718-3.726562-18.296875 2.488281-6.410156 3.753906-13.230469 3.726562-20.105469.457031-13.714843-4.789062-27.003906-14.492188-36.707031-9.703124-9.699219-22.992187-14.949219-36.707031-14.4921872-4.710937 0-8.53125 3.8203122-8.53125 8.5351562 0 4.710938 3.820313 8.53125 8.53125 8.53125 9.203125-.519531 18.191407 2.910156 24.707031 9.425781 6.519532 6.519531 9.945313 15.503907 9.425782 24.707031 0 .855469 0 1.621094-.074219 2.433594-9.753906-7.46875-21.78125-11.339844-34.058594-10.964844-35.371093 0-51.199219 15-51.199219 29.867188 0 14.863281 15.828126 29.863281 51.199219 29.863281 12.460938.355469 24.613281-3.898437 34.132813-11.945312-.128906 7.332031-3.0625 14.335937-8.191406 19.574219-7.015626 6.523437-16.375 9.929687-25.941407 9.4375zm-204.800781 85.335937c-4.710938 0-8.53125-3.820313-8.53125-8.535156 0-4.710938 3.820312-8.53125 8.53125-8.53125 4.714844 0 8.535156 3.820312 8.535156 8.53125 0 4.714843-3.820312 8.535156-8.535156 8.535156zm110.933594 238.933594h24.464844l-6.398438 51.199219h-69.265625c.027344-28.265626 22.933594-51.171876 51.199219-51.199219zm52.199218 59.730469v-8.53125zm0-8.53125h-16.929687l6.398437-51.199219h16.929688zm76.945313-51.199219h16.929687l6.398438 51.199219h-16.9375zm109.789063 51.199219h-69.265626l-6.398437-51.199219h24.464844c28.265625.027343 51.171875 22.933593 51.199219 51.199219zm59.734374-307.199219c4.710938 0 8.53125 3.820312 8.53125 8.53125 0 4.714843-3.820312 8.535156-8.53125 8.535156-4.714843 0-8.535156-3.820313-8.535156-8.535156 0-4.710938 3.820313-8.53125 8.535156-8.53125zm-179.199218-112.871094c-6.597656 7.0625-15.949219 10.886719-25.601563 10.46875-24.125 0-34.132812-8.335937-34.132812-12.796875 0-4.464844 10.007812-12.800781 34.132812-12.800781 10.742188-.734375 21.195313 3.683593 28.160157 11.894531-.785157 1.128906-1.640626 2.210938-2.558594 3.234375zm-95.480469 257.9375c-1.066406 9.777344-2.132813 18.535156-3.191406 27.203125l-.5625 4.625-27.28125-31.828125zm121.539063-6.296875c.132812.585938.324218 1.15625.574218 1.707031 1.3125 12.578125 2.558594 23.226563 3.898438 33.832031.9375 7.621094 1.867187 15.265626 2.808594 23.671876-38.929688 7.570312-78.953126 7.570312-117.882813 0 .941406-8.40625 1.878906-16.050782 2.808594-23.671876 1.304687-10.648437 2.5625-21.332031 3.917969-33.988281.242187-.511719.429687-1.046875.5625-1.59375 8.636718-1.453125 17.347656-2.425781 26.050781-3.140625v.945313c0 4.714843 3.824219 8.535156 8.535156 8.535156h34.132813c4.714843 0 8.535156-3.820313 8.535156-8.535156v-.902344c8.710937.714844 17.421875 1.6875 26.058594 3.140625zm-43.125-10.769531h-17.066407v-25.601563h17.066407zm34.132812-51.199219c0 4.710938-3.820312 8.53125-8.535156 8.53125h-68.265625c-4.714844 0-8.535157-3.820312-8.535157-8.53125v-14.507812l42.199219-2.484376c.324219-.015624.648438-.015624.972657 0l42.164062 2.484376zm93.867188-104.296875v69.121094c.003906 2.351562-.964844 4.601562-2.671876 6.214843-1.710937 1.617188-4.011718 2.453126-6.359374 2.316407l-125.96875-7.414063c-.519532 0-1.03125-.050781-1.542969-.050781s-1 0-1.492188.050781l-126.003906 7.40625c-2.34375.136719-4.640625-.699218-6.351563-2.3125-1.71875-1.601562-2.691406-3.851562-2.675781-6.203125v-69.121093c0-4.328126 3.242188-7.96875 7.542969-8.472657l128-15.050781c.652344-.082031 1.316406-.082031 1.96875 0l128 15.050781c4.300781.5 7.546875 4.136719 7.554688 8.464844zm0 0"/><path d="m206.96875 358.675781c-4.578125-1.132812-9.203125 1.660157-10.335938 6.238281-1.128906 4.574219 1.664063 9.203126 6.238282 10.332032 18.167968 4.402344 37.128906 4.402344 55.296875 0 4.574219-1.128906 7.367187-5.757813 6.238281-10.332032-1.132812-4.578124-5.757812-7.371093-10.335938-6.238281-15.476562 3.753907-31.625 3.753907-47.101562 0zm0 0"/></svg>