<svg height="512pt" viewBox="-17 0 512 512.03918" width="512pt" xmlns="http://www.w3.org/2000/svg"><path d="m187.753906 157.90625h102.398438v55.464844h-102.398438zm0 0" fill="#f57c00"/><path d="m187.753906 157.90625h81.066406v55.464844h-81.066406zm0 0" fill="#ff9801"/><path d="m132.285156 213.371094h17.066406v51.203125h-17.066406c-9.425781 0-17.066406-7.644531-17.066406-17.070313v-17.066406c0-9.425781 7.640625-17.066406 17.066406-17.066406zm0 0" fill="#f57c00"/><path d="m55.484375 187.773438c0 9.425781-7.640625 17.066406-17.066406 17.066406s-17.066407-7.640625-17.066407-17.066406c0-9.425782 7.640626-17.066407 17.066407-17.066407s17.066406 7.640625 17.066406 17.066407zm0 0" fill="#ffeb3a"/><path d="m345.621094 264.574219h-17.066406v-51.203125h17.066406c9.425781 0 17.066406 7.640625 17.066406 17.066406v17.066406c0 9.425782-7.640625 17.070313-17.066406 17.070313zm0 0" fill="#f57c00"/><path d="m456.554688 187.773438c0 9.425781-7.644532 17.066406-17.070313 17.066406-9.421875 0-17.066406-7.640625-17.066406-17.066406 0-9.425782 7.644531-17.066407 17.066406-17.066407 9.425781 0 17.070313 7.640625 17.070313 17.066407zm0 0" fill="#ffeb3a"/><path d="m465.085938 73.167969c-.027344 1.289062-.144532 2.570312-.339844 3.84375-1.867188 10.457031-9.96875 18.695312-20.394532 20.734375-5.253906 1.023437-10.699218.335937-15.53125-1.964844-9.109374-4.125-14.957031-13.207031-14.933593-23.207031v-.257813c.332031-8.707031 6.449219-16.113281 14.933593-18.089844 1.726563-.441406 3.503907-.671874 5.289063-.683593h10.753906c5.289063-.09375 10.394531 1.925781 14.191407 5.609375 3.796874 3.683594 5.964843 8.726562 6.03125 14.015625zm0 0" fill="#ffb301"/><path d="m264.554688 401.105469v76.800781c0 14.136719-11.464844 25.597656-25.601563 25.597656-3.6875.011719-7.332031-.804687-10.667969-2.386718-9.109375-4.125-14.953125-13.210938-14.933594-23.210938v-76.800781c-.019531-10 5.824219-19.085938 14.933594-23.210938 3.335938-1.582031 6.980469-2.398437 10.667969-2.390625 14.136719 0 25.601563 11.464844 25.601563 25.601563zm0 0" fill="#37474f"/><path d="m243.21875 401.105469v76.800781c.023438 10-5.824219 19.085938-14.933594 23.210938-9.109375-4.125-14.953125-13.210938-14.933594-23.210938v-76.800781c-.019531-10 5.824219-19.085938 14.933594-23.210938 2.78125 1.214844 5.304688 2.953125 7.425782 5.121094 4.808593 4.792969 7.507812 11.300781 7.507812 18.089844zm0 0" fill="#607d8b"/><g fill="#f57c00"><path d="m196.285156 418.171875h17.066406v51.199219h-17.066406c-9.425781 0-17.066406-7.640625-17.066406-17.066406v-17.066407c0-9.425781 7.640625-17.066406 17.066406-17.066406zm0 0"/><path d="m281.621094 469.371094h-17.066406v-51.199219h17.066406c9.425781 0 17.066406 7.640625 17.066406 17.066406v17.066407c0 9.425781-7.640625 17.066406-17.066406 17.066406zm0 0"/><path d="m128.019531 298.707031h221.867188c9.425781 0 17.066406 7.640625 17.066406 17.066407v8.53125c0 9.425781-7.640625 17.066406-17.066406 17.066406h-221.867188c-9.425781 0-17.066406-7.640625-17.066406-17.066406v-8.53125c0-9.425782 7.640625-17.066407 17.066406-17.066407zm0 0"/></g><path d="m128.019531 298.707031h200.535157c9.425781 0 17.066406 7.640625 17.066406 17.066407v8.53125c0 9.425781-7.640625 17.066406-17.066406 17.066406h-200.535157c-9.425781 0-17.066406-7.640625-17.066406-17.066406v-8.53125c0-9.425782 7.640625-17.066407 17.066406-17.066407zm0 0" fill="#ff9801"/><path d="m341.351562 128.039062c.035157 11.328126-4.449218 22.199219-12.457031 30.207032-8.007812 8.007812-18.882812 12.492187-30.207031 12.460937h-119.46875c-23.5625 0-42.664062-19.105469-42.664062-42.667969s19.101562-42.667968 42.664062-42.667968h119.46875c23.5625 0 42.664062 19.105468 42.664062 42.667968zm0 0" fill="#ffb301"/><path d="m320.019531 128.039062c.035157 11.328126-4.449219 22.199219-12.460937 30.207032-8.007813 8.007812-18.878906 12.492187-30.207032 12.460937h-98.132812c-23.5625 0-42.664062-19.105469-42.664062-42.667969s19.101562-42.667968 42.664062-42.667968h98.132812c23.566407 0 42.667969 19.105468 42.667969 42.667968zm0 0" fill="#ffeb3a"/><path d="m187.753906 25.640625c0 9.425781-7.640625 17.066406-17.066406 17.066406s-17.066406-7.640625-17.066406-17.066406 7.640625-17.066406 17.066406-17.066406 17.066406 7.640625 17.066406 17.066406zm0 0" fill="#00bcd4"/><path d="m324.285156 25.640625c0 9.425781-7.640625 17.066406-17.066406 17.066406s-17.066406-7.640625-17.066406-17.066406 7.640625-17.066406 17.066406-17.066406 17.066406 7.640625 17.066406 17.066406zm0 0" fill="#00bcd4"/><path d="m332.820312 221.90625v76.800781h-187.734374v-76.800781c.027343-9.414062 7.652343-17.039062 17.066406-17.066406h153.601562c9.414063.027344 17.039063 7.652344 17.066406 17.066406zm0 0" fill="#ffb301"/><path d="m311.484375 221.90625v76.800781h-166.398437v-76.800781c.027343-9.414062 7.652343-17.039062 17.066406-17.066406h132.265625c9.414062.027344 17.039062 7.652344 17.066406 17.066406zm0 0" fill="#ffeb3a"/><path d="m64.019531 73.167969c-.027343 1.289062-.144531 2.570312-.339843 3.84375-1.867188 10.457031-9.96875 18.695312-20.394532 20.734375-7.511718 1.453125-15.277344-.527344-21.171875-5.398438-5.898437-4.875-9.304687-12.125-9.292969-19.773437v-.257813c.21875-7.019531 4.285157-13.351562 10.582032-16.46875h.082031c2.964844-1.503906 6.238281-2.292968 9.558594-2.304687h10.753906c5.289063-.09375 10.394531 1.925781 14.191406 5.609375s5.964844 8.726562 6.03125 14.015625zm0 0" fill="#ffb301"/><path d="m443.753906 73.167969c-.03125 1.289062-.144531 2.570312-.34375 3.84375-1.449218 8.289062-6.914062 15.320312-14.589844 18.769531-9.109374-4.125-14.957031-13.207031-14.933593-23.207031v-.257813c.332031-8.707031 6.449219-16.113281 14.933593-18.089844 8.75 2.113282 14.921876 9.941407 14.933594 18.941407zm0 0" fill="#ffeb3a"/><path d="m34.152344 73.167969c-.027344 1.289062-.140625 2.570312-.339844 3.84375-1.144531 6.609375-4.859375 12.496093-10.328125 16.382812-6.710937-4.808593-10.683594-12.566406-10.664063-20.820312v-.257813c.21875-7.019531 4.285157-13.351562 10.582032-16.46875h.082031c6.578125 3.257813 10.722656 9.980469 10.667969 17.320313zm0 0" fill="#ffeb3a"/><path d="m204.820312 128.039062c0 4.714844-3.820312 8.535157-8.535156 8.535157-4.710937 0-8.53125-3.820313-8.53125-8.535157 0-4.710937 3.820313-8.535156 8.53125-8.535156 4.714844 0 8.535156 3.824219 8.535156 8.535156zm0 0"/><path d="m290.152344 128.039062c0 4.714844-3.820313 8.535157-8.53125 8.535157-4.714844 0-8.535156-3.820313-8.535156-8.535157 0-4.710937 3.820312-8.535156 8.535156-8.535156 4.710937 0 8.53125 3.824219 8.53125 8.535156zm0 0"/><path d="m17.085938 25.640625c-4.710938 0-8.53125 3.820313-8.53125 8.53125v11.835937c-5.472657 6.140626-8.507813 14.074219-8.5351568 22.296876.0585938 15.519531 10.5742188 29.042968 25.6015628 32.921874v62.515626c-9.257813 3.238281-15.84375 11.492187-16.941406 21.238281-1.097657 9.742187 3.488281 19.253906 11.792968 24.46875 8.304688 5.214843 18.863282 5.210937 27.164063-.011719l54.78125 34.261719v3.804687c0 14.140625 11.464843 25.601563 25.601562 25.601563h8.535157v17.066406h-8.535157c-14.136719 0-25.601562 11.460937-25.601562 25.601563v8.53125c0 14.140624 11.464843 25.601562 25.601562 25.601562h8.535157v76.800781c0 14.136719 11.460937 25.597657 25.597656 25.597657h8.535156c0 14.140624 11.460938 25.601562 25.597656 25.601562h8.535156c0 18.851562 15.28125 34.132812 34.132813 34.132812s34.132813-15.28125 34.132813-34.132812h8.535156c14.136718 0 25.597656-11.460938 25.597656-25.601562h8.535156c14.136719 0 25.597656-11.460938 25.597656-25.597657v-76.800781h8.535157c14.136719 0 25.597656-11.460938 25.597656-25.601562v-8.53125c0-14.140626-11.460937-25.601563-25.597656-25.601563h-8.535157v-17.066406h8.535157c14.136719 0 25.597656-11.460938 25.597656-25.601563v-3.804687l54.785156-34.261719c8.300781 5.222656 18.859375 5.226562 27.164063.011719 8.304687-5.214844 12.890625-14.726563 11.792968-24.46875-1.097656-9.746094-7.683593-18-16.941406-21.238281v-62.515626c15.027344-3.878906 25.542969-17.402343 25.601563-32.921874-.027344-8.222657-3.0625-16.15625-8.535157-22.296876v-11.835937c0-4.710937-3.820312-8.53125-8.53125-8.53125-4.714843 0-8.535156 3.820313-8.535156 8.53125v17.066406h-17.066406v-17.066406c0-4.710937-3.820312-8.53125-8.53125-8.53125-4.714844 0-8.535156 3.820313-8.535156 8.53125v11.835937c-5.472656 6.140626-8.507813 14.074219-8.53125 22.296876.058594 15.519531 10.574218 29.042968 25.597656 32.921874v62.515626c-6.378906 2.152343-11.628906 6.78125-14.5625 12.84375-2.933594 6.058593-3.304688 13.046874-1.035156 19.386718l-44.988282 28.152344c-2.882812-11.324219-13.0625-19.257812-24.746093-19.285156h-15.191407c-4.8125-5.410156-11.703124-8.511719-18.941406-8.535156h-17.066406v-17.066407c26.351562-.046875 48.363281-20.089843 50.875-46.320312 2.511719-26.234375-15.300781-50.085938-41.164062-55.132813l3.882812-27.058594c10.71875-2.113281 18.917969-10.800781 20.40625-21.628906s-4.058594-21.40625-13.8125-26.335937c-9.753906-4.929688-21.5625-3.121094-29.394531 4.496093l-12.5625-6.3125c-3.289063-1.652343-7.265625-1.007812-9.863281 1.59375l-11.035157 11.035157-11.035156-11.035157c-3.332031-3.332031-8.730469-3.332031-12.066406 0l-11.03125 11.035157-11.035157-11.035157c-2.847656-2.851562-7.300781-3.320312-10.683593-1.125l-10.707031 6.953126c-7.492188-8.226563-19.4375-10.675782-29.558594-6.054688-10.121094 4.617188-16.101563 15.246094-14.796875 26.292969 1.308593 11.050781 9.601562 19.992187 20.519531 22.121093l3.882812 27.058594c-25.863281 5.046875-43.675781 28.898438-41.164062 55.132813 2.511719 26.230469 24.523438 46.273437 50.875 46.320312v17.066407h-17.066406c-7.238282.023437-14.128906 3.125-18.945313 8.535156h-15.1875c-11.683593.027344-21.863281 7.960937-24.746093 19.285156l-45.015626-28.160156c2.269532-6.335938 1.898438-13.316406-1.027343-19.375-2.929688-6.058594-8.171875-10.6875-14.542969-12.847656v-62.515626c15.023438-3.878906 25.539062-17.402343 25.597656-32.921874-.023437-8.222657-3.058594-16.15625-8.53125-22.296876v-11.835937c0-4.710937-3.820312-8.53125-8.535156-8.53125-4.710938 0-8.53125 3.820313-8.53125 8.53125v17.066406h-17.066406v-17.066406c0-4.710937-3.820313-8.53125-8.535156-8.53125zm8.535156 162.132813c0-4.714844 3.820312-8.535157 8.53125-8.535157 4.714844 0 8.535156 3.820313 8.535156 8.535157 0 4.710937-3.820312 8.53125-8.535156 8.53125-4.710938 0-8.53125-3.820313-8.53125-8.53125zm170.664062 273.066406c-4.710937 0-8.53125-3.820313-8.53125-8.535156v-17.066407c0-4.710937 3.820313-8.53125 8.53125-8.53125h8.535156v34.132813zm59.734375 17.066406c0 9.425781-7.640625 17.066406-17.066406 17.066406s-17.066406-7.640625-17.066406-17.066406v-76.800781c0-9.425781 7.640625-17.066407 17.066406-17.066407s17.066406 7.640626 17.066406 17.066407zm34.132813-25.601562c0 4.714843-3.820313 8.535156-8.53125 8.535156h-8.535156v-34.132813h8.535156c4.710937 0 8.53125 3.820313 8.53125 8.53125zm34.132812-25.597657c0 4.710938-3.820312 8.53125-8.53125 8.53125h-8.535156c0-14.136719-11.460938-25.597656-25.597656-25.597656h-8.535156v-8.535156c0-18.851563-15.28125-34.132813-34.132813-34.132813s-34.132813 15.28125-34.132813 34.132813v8.535156h-8.535156c-14.136718 0-25.597656 11.460937-25.597656 25.597656h-8.535156c-4.710938 0-8.53125-3.820312-8.53125-8.53125v-76.800781h170.664062zm34.132813-110.933593v8.53125c0 4.714843-3.820313 8.535156-8.53125 8.535156h-221.867188c-4.710937 0-8.535156-3.820313-8.535156-8.535156v-8.53125c0-4.714844 3.824219-8.535157 8.535156-8.535157h221.867188c4.710937 0 8.53125 3.820313 8.53125 8.535157zm68.269531-247.46875c.027344-.75.105469-1.5.230469-2.242188 2.527343 1.449219 5.386719 2.222656 8.300781 2.242188h17.066406c2.914063-.019532 5.777344-.792969 8.304688-2.242188.125.742188.199218 1.492188.230468 2.242188 0 9.425781-7.640624 17.066406-17.066406 17.066406-9.425781 0-17.066406-7.640625-17.066406-17.066406zm17.066406 110.933593c4.710938 0 8.53125 3.820313 8.53125 8.535157 0 4.710937-3.820312 8.53125-8.53125 8.53125-4.714844 0-8.535156-3.820313-8.535156-8.53125 0-4.714844 3.820312-8.535157 8.535156-8.535157zm-93.867187 42.667969c4.710937 0 8.53125 3.820312 8.53125 8.53125v17.066406c0 4.714844-3.820313 8.535156-8.53125 8.535156h-8.535157v-34.132812zm-42.667969-204.800781c4.714844 0 8.535156 3.820312 8.535156 8.535156 0 4.710937-3.820312 8.53125-8.535156 8.53125-4.710938 0-8.53125-3.820313-8.53125-8.53125 0-4.714844 3.820312-8.535156 8.53125-8.535156zm-103.550781 2.382812 12.183593 12.183594c3.332032 3.332031 8.734376 3.332031 12.066407 0l11.035156-11.035156 11.035156 11.035156c3.332031 3.332031 8.730469 3.332031 12.0625 0l12.742188-12.707031 7.167969 3.601562c-.175782 1.015625-.289063 2.042969-.339844 3.074219.03125 9.5 5.335937 18.195313 13.769531 22.570313l-4.101563 28.628906h-104.671874l-4.105469-28.628906c8.4375-4.375 13.742187-13.070313 13.773437-22.570313 0-.4375-.109375-.855469-.125-1.273437zm-32.980469-2.382812c4.710938 0 8.53125 3.820312 8.53125 8.535156 0 4.710937-3.820312 8.53125-8.53125 8.53125-4.714844 0-8.535156-3.820313-8.535156-8.53125 0-4.714844 3.820312-8.535156 8.535156-8.535156zm-25.601562 110.933593c0-18.851562 15.28125-34.132812 34.132812-34.132812h119.46875c18.851562 0 34.132812 15.28125 34.132812 34.132812 0 18.851563-15.28125 34.132813-34.132812 34.132813h-119.46875c-18.851562 0-34.132812-15.28125-34.132812-34.132813zm51.199218 51.199219h85.335938v17.066407h-85.335938zm-34.132812 34.132813h153.601562c4.710938 0 8.53125 3.820312 8.53125 8.535156v68.265625h-170.664062v-68.265625c0-4.714844 3.820312-8.535156 8.53125-8.535156zm-42.667969 17.066406c0-4.710938 3.824219-8.53125 8.535156-8.53125h8.535157v34.132812h-8.535157c-4.710937 0-8.535156-3.820312-8.535156-8.535156zm-76.796875-162.132812c2.914062-.019532 5.773438-.792969 8.300781-2.242188.125.742188.203125 1.492188.230469 2.242188 0 9.425781-7.640625 17.066406-17.066406 17.066406-9.425782 0-17.066406-7.640625-17.066406-17.066406.027343-.75.105468-1.5.230468-2.242188 2.527344 1.449219 5.386719 2.222656 8.304688 2.242188zm0 0"/><path d="m187.753906 273.105469c4.710938 0 8.53125-3.820313 8.53125-8.53125v-25.601563c0-4.714844-3.820312-8.535156-8.53125-8.535156-4.714844 0-8.535156 3.820312-8.535156 8.535156v25.601563c0 4.710937 3.820312 8.53125 8.535156 8.53125zm0 0"/><path d="m221.886719 273.105469c4.710937 0 8.53125-3.820313 8.53125-8.53125v-25.601563c0-4.714844-3.820313-8.535156-8.53125-8.535156-4.714844 0-8.535157 3.820312-8.535157 8.535156v25.601563c0 4.710937 3.820313 8.53125 8.535157 8.53125zm0 0"/><path d="m290.152344 273.105469c4.714844 0 8.535156-3.820313 8.535156-8.53125v-25.601563c0-4.714844-3.820312-8.535156-8.535156-8.535156-4.710938 0-8.53125 3.820312-8.53125 8.535156v25.601563c0 4.710937 3.820312 8.53125 8.53125 8.53125zm0 0"/><path d="m256.019531 273.105469c4.710938 0 8.535157-3.820313 8.535157-8.53125v-25.601563c0-4.714844-3.824219-8.535156-8.535157-8.535156-4.710937 0-8.535156 3.820312-8.535156 8.535156v25.601563c0 4.710937 3.824219 8.53125 8.535156 8.53125zm0 0"/></svg>