<svg height="512pt" viewBox="0 0 512 512.10604" width="512pt" xmlns="http://www.w3.org/2000/svg"><path d="m136.585938 29.972656c0 9.425782-7.640626 17.066406-17.066407 17.066406s-17.066406-7.640624-17.066406-17.066406c0-9.425781 7.640625-17.066406 17.066406-17.066406s17.066407 7.640625 17.066407 17.066406zm0 0" fill="#f44335"/><path d="m145.121094 123.839844c.015625 2.914062-.503906 5.808594-1.539063 8.53125h-48.125c-1.035156-2.722656-1.554687-5.617188-1.539062-8.53125-.050781-10.847656 6.8125-20.527344 17.070312-24.066406 2.722657-1.03125 5.617188-1.550782 8.53125-1.535157 14.136719 0 25.601563 11.460938 25.601563 25.601563zm0 0" fill="#37474f"/><path d="m128.054688 123.839844c.015624 2.914062-.503907 5.808594-1.539063 8.53125h-31.058594c-1.035156-2.722656-1.554687-5.617188-1.539062-8.53125-.050781-10.847656 6.8125-20.527344 17.070312-24.066406 10.253907 3.539062 17.117188 13.21875 17.066407 24.066406zm0 0" fill="#607d8b"/><path d="m230.453125 82.453125h51.199219v51.199219h-51.199219zm0 0" fill="#283593"/><path d="m230.453125 82.453125h29.867187v51.199219h-29.867187zm0 0" fill="#3f51b5"/><path d="m217.652344 418.238281h17.066406v51.199219h-17.066406c-9.425782 0-17.066406-7.640625-17.066406-17.066406v-17.066406c0-9.425782 7.640624-17.066407 17.066406-17.066407zm0 0" fill="#283593"/><path d="m294.453125 469.4375h-17.066406v-51.199219h17.066406c9.425781 0 17.066406 7.640625 17.066406 17.066407v17.066406c0 9.425781-7.640625 17.066406-17.066406 17.066406zm0 0" fill="#283593"/><path d="m298.71875 328.640625v34.132813c-.027344 9.414062-7.652344 17.039062-17.066406 17.066406h-6.570313c-.289062-.363282-.601562-.703125-.9375-1.023438-.40625-.394531-.832031-.765625-1.28125-1.109375 5.398438-3.042969 8.75-8.738281 8.789063-14.933593v-34.132813zm0 0" fill="#424242"/><path d="m281.652344 328.640625v34.132813c-.039063 6.195312-3.390625 11.890624-8.789063 14.933593-4.609375-4.152343-10.605469-6.433593-16.808593-6.402343-2.9375-.011719-5.851563.480468-8.621094 1.453124-4.023438 1.417969-7.609375 3.859376-10.410156 7.082032h-6.570313c-2.9375.023437-5.824219-.742188-8.363281-2.21875-5.367188-3.015625-8.691406-8.691406-8.703125-14.847656v-34.132813zm0 0" fill="#9e9e9e"/><path d="m272.863281 377.707031c-2.53125 1.402344-5.382812 2.136719-8.277343 2.132813h-6.570313c-.289063-.363282-.601563-.703125-.9375-1.023438-2.722656-2.714844-6.015625-4.785156-9.644531-6.058594 2.769531-.972656 5.683594-1.464843 8.621094-1.453124 6.203124-.03125 12.199218 2.25 16.808593 6.402343zm0 0" fill="#424242"/><path d="m213.386719 328.640625v34.132813h-25.601563c-16.113281 0-31.289062-7.589844-40.957031-20.480469l-10.242187-13.652344zm0 0" fill="#3f51b5"/><path d="m256.054688 328.640625v42.664063c-7.28125-.050782-14.226563 3.0625-19.03125 8.535156h-6.570313c-9.414063-.027344-17.039063-7.652344-17.066406-17.066406v-34.132813zm0 0" fill="#9e9e9e"/><path d="m375.519531 328.640625-10.238281 13.652344c-9.671875 12.890625-24.847656 20.480469-40.960938 20.480469h-25.601562v-34.132813zm0 0" fill="#283593"/><path d="m354.1875 328.640625-10.242188 13.652344c-9.667968 12.890625-24.84375 20.480469-40.957031 20.480469h-4.269531v-34.132813zm0 0" fill="#3f51b5"/><path d="m55.519531 281.707031c0 9.425781-7.640625 17.066407-17.066406 17.066407s-17.066406-7.640626-17.066406-17.066407 7.640625-17.066406 17.066406-17.066406 17.066406 7.640625 17.066406 17.066406zm0 0" fill="#02a9f4"/><path d="m64.054688 367.039062v.257813c-.539063 10.703125-9.511719 19.03125-20.226563 18.773437h-10.75c-1.785156-.011718-3.5625-.242187-5.292969-.683593-8.75-2.113281-14.921875-9.941407-14.933594-18.945313.03125-1.285156.144532-2.566406.34375-3.839844 1.449219-8.289062 6.914063-15.324218 14.589844-18.773437 1.820313-.957031 3.777344-1.617187 5.804688-1.960937 7.507812-1.453126 15.273437.527343 21.171875 5.398437 5.894531 4.871094 9.304687 12.125 9.292969 19.773437zm0 0" fill="#0377bc"/><path d="m490.71875 281.707031c0 9.425781-7.640625 17.066407-17.066406 17.066407-9.425782 0-17.066406-7.640626-17.066406-17.066407s7.640624-17.066406 17.066406-17.066406c9.425781 0 17.066406 7.640625 17.066406 17.066406zm0 0" fill="#02a9f4"/><path d="m499.253906 367.039062v.257813c-.539062 10.703125-9.507812 19.03125-20.226562 18.773437h-10.75c-.34375.011719-.6875-.015624-1.023438-.085937-10.613281-.292969-19.09375-8.925781-19.199218-19.542969.027343-1.285156.140624-2.566406.339843-3.839844 1.773438-9.902343 9.1875-17.851562 18.945313-20.308593.453125-.230469.941406-.375 1.449218-.425781 7.507813-1.453126 15.273438.527343 21.171876 5.398437 5.894531 4.871094 9.304687 12.125 9.292968 19.773437zm0 0" fill="#0377bc"/><path d="m42.71875 367.039062v.257813c-.332031 8.703125-6.449219 16.113281-14.933594 18.089844-8.75-2.113281-14.921875-9.941407-14.933594-18.945313.03125-1.285156.144532-2.566406.34375-3.839844 1.449219-8.289062 6.914063-15.324218 14.589844-18.773437 9.109375 4.125 14.957032 13.210937 14.933594 23.210937zm0 0" fill="#02a9f4"/><path d="m486.453125 367.039062v.257813c-.441406 10.449219-9.160156 18.625-19.617187 18.394531-10.457032-.234375-18.808594-8.789062-18.78125-19.25.027343-1.285156.140624-2.566406.339843-3.839844 1.773438-9.902343 9.1875-17.851562 18.945313-20.308593 11.277344 2.910156 19.148437 13.097656 19.113281 24.746093zm0 0" fill="#02a9f4"/><path d="m93.917969 128.105469h324.269531c9.425781 0 17.066406 7.640625 17.066406 17.066406v170.667969c0 9.425781-7.640625 17.066406-17.066406 17.066406h-324.269531c-9.425781 0-17.066407-7.640625-17.066407-17.066406v-170.667969c0-9.425781 7.640626-17.066406 17.066407-17.066406zm0 0" fill="#0377bc"/><path d="m93.917969 128.105469h298.667969c9.425781 0 17.066406 7.640625 17.066406 17.066406v170.667969c0 9.425781-7.640625 17.066406-17.066406 17.066406h-298.667969c-9.425781 0-17.066407-7.640625-17.066407-17.066406v-170.667969c0-9.425781 7.640626-17.066406 17.066407-17.066406zm0 0" fill="#02a9f4"/><path d="m110.988281 162.238281h290.132813v136.535157h-290.132813zm0 0" fill="#00695c"/><path d="m110.988281 162.238281h268.796875v136.535157h-268.796875zm0 0" fill="#009688"/><path d="m332.851562 76.90625c-.066406 9.394531-7.667968 16.996094-17.066406 17.066406h-119.464844c-9.414062-.027344-17.039062-7.652344-17.066406-17.066406-.070312-36.890625 29.253906-67.128906 66.132813-68.179688.707031-.074218 1.421875-.101562 2.132812-.085937h17.066407c37.703124 0 68.265624 30.5625 68.265624 68.265625zm0 0" fill="#1566c0"/><path d="m311.519531 76.90625c-.070312 9.394531-7.667969 16.996094-17.066406 17.066406h-98.132813c-9.414062-.027344-17.039062-7.652344-17.066406-17.066406-.070312-36.890625 29.253906-67.128906 66.132813-68.179688 36.863281 1.082032 66.171875 31.300782 66.132812 68.179688zm0 0" fill="#2296f3"/><path d="m281.652344 401.171875v76.800781c0 14.136719-11.460938 25.601563-25.597656 25.601563-3.691407.007812-7.335938-.808594-10.667969-2.390625-9.109375-4.125-14.953125-13.210938-14.933594-23.210938v-76.800781c-.015625-6.308594 2.328125-12.394531 6.570313-17.066406 2.285156-2.640625 5.109374-4.761719 8.277343-6.230469h.085938c3.355469-1.503906 6.988281-2.289062 10.667969-2.300781 6.785156-.003907 13.296874 2.699219 18.089843 7.507812.335938.320313.648438.660157.9375 1.023438 4.242188 4.671875 6.585938 10.757812 6.570313 17.066406zm0 0" fill="#37474f"/><path d="m260.320312 401.171875v76.800781c.019532 10-5.824218 19.085938-14.933593 23.210938-9.109375-4.125-14.953125-13.210938-14.933594-23.210938v-76.800781c-.015625-6.308594 2.328125-12.394531 6.570313-17.066406 2.285156-2.640625 5.109374-4.761719 8.277343-6.230469h.085938c2.765625 1.277344 5.28125 3.039062 7.421875 5.207031.335937.320313.652344.660157.941406 1.023438 4.242188 4.671875 6.582031 10.757812 6.570312 17.066406zm0 0" fill="#607d8b"/><path d="m238.988281 51.304688c0 4.714843-3.824219 8.535156-8.535156 8.535156-4.714844 0-8.535156-3.820313-8.535156-8.535156 0-4.710938 3.820312-8.53125 8.535156-8.53125 4.710937 0 8.535156 3.820312 8.535156 8.53125zm0 0"/><path d="m290.1875 51.304688c0 4.714843-3.820312 8.535156-8.535156 8.535156-4.710938 0-8.53125-3.820313-8.53125-8.535156 0-4.710938 3.820312-8.53125 8.53125-8.53125 4.714844 0 8.535156 3.820312 8.535156 8.53125zm0 0"/><path d="m162.1875 196.371094c0 4.714844-3.820312 8.535156-8.535156 8.535156-4.710938 0-8.53125-3.820312-8.53125-8.535156 0-4.710938 3.820312-8.53125 8.53125-8.53125 4.714844 0 8.535156 3.820312 8.535156 8.53125zm0 0"/><path d="m162.1875 230.507812c0 4.710938-3.820312 8.53125-8.535156 8.53125-4.710938 0-8.53125-3.820312-8.53125-8.53125 0-4.714843 3.820312-8.535156 8.53125-8.535156 4.714844 0 8.535156 3.820313 8.535156 8.535156zm0 0"/><path d="m162.1875 264.640625c0 4.710937-3.820312 8.53125-8.535156 8.53125-4.710938 0-8.53125-3.820313-8.53125-8.53125 0-4.714844 3.820312-8.535156 8.53125-8.535156 4.714844 0 8.535156 3.820312 8.535156 8.535156zm0 0"/><path d="m401.121094 153.707031h-290.132813c-4.714843 0-8.535156 3.820313-8.535156 8.53125v136.535157c0 4.710937 3.820313 8.53125 8.535156 8.53125h290.132813c4.710937 0 8.53125-3.820313 8.53125-8.53125v-136.535157c0-4.710937-3.820313-8.53125-8.53125-8.53125zm-8.535156 136.53125h-273.066407v-119.464843h273.066407zm0 0"/><path d="m486.222656 334.050781c.101563-.375.179688-.757812.230469-1.144531v-27.171875c9.507813-3.320313 16.175781-11.925781 17.015625-21.960937.839844-10.039063-4.300781-19.628907-13.121094-24.488282-8.824218-4.859375-19.679687-4.074218-27.710937 2l-18.851563-12.558594v-103.554687c0-14.136719-11.460937-25.597656-25.597656-25.597656h-128v-17.066407h25.597656c14.140625 0 25.601563-11.464843 25.601563-25.601562-.046875-42.394531-34.40625-76.753906-76.800781-76.800781h-17.066407c-42.394531.046875-76.753906 34.40625-76.800781 76.800781 0 14.136719 11.460938 25.601562 25.601562 25.601562h25.597657v17.066407h-68.265625c-.058594-15.519531-10.574219-29.042969-25.597656-32.921875v-36.917969c11.753906-4.15625 18.804687-16.175781 16.695312-28.464844-2.105469-12.289062-12.761719-21.269531-25.230469-21.269531s-23.121093 8.980469-25.230469 21.269531c-2.109374 12.289063 4.941407 24.308594 16.699219 28.464844v36.917969c-15.027343 3.878906-25.542969 17.402344-25.601562 32.921875 0 .519531.109375 1.015625.136719 1.527343-10.261719 3.5625-17.15625 13.210938-17.203126 24.070313v103.554687l-18.851562 12.558594c-8.03125-6.046875-18.867188-6.816406-27.671875-1.957031-8.804687 4.855469-13.9375 14.429687-13.101563 24.453125.832032 10.019531 7.472657 18.617188 16.957032 21.953125v27.171875c.050781.386719.128906.769531.230468 1.144531-15.140624 3.796875-25.777343 17.378907-25.8281245 32.988281.0273437 8.378907 3.1757815 16.441407 8.8320315 22.621094-.1875.984375-.289063 1.980469-.300781 2.980469v17.066406c0 4.710938 3.820312 8.53125 8.535156 8.53125 4.710937 0 8.53125-3.820312 8.53125-8.53125v-17.066406h17.066406v17.066406c0 4.710938 3.820312 8.53125 8.535156 8.53125 4.710938 0 8.53125-3.820312 8.53125-8.53125v-17.066406c-.011718-1-.113281-1.996094-.296875-2.980469 5.65625-6.179687 8.804688-14.242187 8.832031-22.621094-.054687-15.609374-10.691406-29.191406-25.832031-32.988281.101563-.375.179688-.757812.230469-1.144531v-27.171875c12.542969-4.222656 19.640625-17.46875 16.214844-30.25l9.386718-6.253906v46.609375c0 14.136718 11.460938 25.597656 25.597657 25.597656h38.402343l7.679688 10.242188c11.300781 15.015624 28.992188 23.863281 47.785156 23.894531h18.636719c2.777344 7.765625 9.132813 13.714843 17.066406 15.972656-.988281 3.117187-1.515625 6.359375-1.570312 9.625v8.535156h-8.53125c-14.140625 0-25.601563 11.460938-25.601563 25.597657v17.066406c0 14.140625 11.460938 25.601562 25.601563 25.601562h8.53125c0 18.851563 15.285156 34.132813 34.136719 34.132813 18.851562 0 34.132812-15.28125 34.132812-34.132813h8.53125c14.140625 0 25.601562-11.460937 25.601562-25.601562v-17.066406c0-14.136719-11.460937-25.597657-25.601562-25.597657h-8.53125v-8.535156c-.046875-3.265625-.570312-6.507813-1.554688-9.625 7.933594-2.257813 14.289063-8.207031 17.066407-15.972656h18.621093c18.792969-.035157 36.484376-8.878907 47.785157-23.894531l7.679687-10.242188h38.402344c14.136719 0 25.597656-11.460938 25.597656-25.597656v-46.609375l9.386719 6.253906c-3.425781 12.78125 3.671875 26.027344 16.214844 30.25v27.171875c.050781.386719.128906.769531.230469 1.144531-15.140626 3.796875-25.777344 17.378907-25.832032 32.988281.027344 8.378907 3.179688 16.441407 8.832032 22.621094-.183594.984375-.285157 1.980469-.296876 2.980469v17.066406c0 4.710938 3.820313 8.53125 8.53125 8.53125 4.714844 0 8.535157-3.820312 8.535157-8.53125v-17.066406h17.066406v17.066406c0 4.710938 3.820313 8.53125 8.535156 8.53125 4.710938 0 8.53125-3.820312 8.53125-8.53125v-17.066406c-.011719-1-.113281-1.996094-.296875-2.980469 5.652344-6.179687 8.800782-14.242187 8.832032-22.621094-.054688-15.609374-10.691407-29.191406-25.832032-32.988281zm-434.96875 32.988281c0 3.40625-1.03125 6.734376-2.953125 9.550782-1.789062-.652344-3.675781-.996094-5.582031-1.015625h-17.066406c-1.902344.019531-3.785156.363281-5.570313 1.015625-1.929687-2.8125-2.964843-6.140625-2.960937-9.550782 0-9.425781 7.640625-17.066406 17.066406-17.066406s17.066406 7.640625 17.066406 17.066406zm-17.066406-76.800781c-4.714844 0-8.535156-3.820312-8.535156-8.53125 0-4.714843 3.820312-8.535156 8.535156-8.535156 4.710938 0 8.53125 3.820313 8.53125 8.535156 0 4.710938-3.820312 8.53125-8.53125 8.53125zm153.597656-213.332031c.042969-32.972656 26.761719-59.691406 59.734375-59.734375h17.066407c32.972656.042969 59.691406 26.761719 59.734374 59.734375 0 4.710938-3.820312 8.53125-8.535156 8.53125h-119.464844c-4.714843 0-8.535156-3.820312-8.535156-8.53125zm51.203125 25.601562h34.132813v17.066407h-34.132813zm-119.46875-85.335937c4.714844 0 8.535157 3.820313 8.535157 8.535156 0 4.710938-3.820313 8.53125-8.535157 8.53125-4.710937 0-8.53125-3.820312-8.53125-8.53125 0-4.714843 3.820313-8.535156 8.53125-8.535156zm0 85.335937c9.425781 0 17.066407 7.640626 17.066407 17.066407h-34.132813c0-9.425781 7.640625-17.066407 17.066406-17.066407zm34.132813 238.929688h51.199218v17.070312h-17.066406c-13.421875-.023437-26.0625-6.339843-34.132812-17.070312zm68.265625 0h25.601562v26.8125c-5.109375 1.335938-9.835937 3.839844-13.808593 7.324219h-3.257813c-4.714844 0-8.535156-3.820313-8.535156-8.535157zm-8.53125 119.46875c-4.714844 0-8.535157-3.820312-8.535157-8.535156v-17.066406c0-4.710938 3.820313-8.53125 8.535157-8.53125h8.53125v34.132812zm59.734375 17.066406c0 9.425782-7.640625 17.066406-17.066406 17.066406-9.425782 0-17.066407-7.640624-17.066407-17.066406v-76.800781c0-9.425781 7.640625-17.066406 17.066407-17.066406 9.425781 0 17.066406 7.640625 17.066406 17.066406zm25.597656-51.199218c4.714844 0 8.535156 3.820312 8.535156 8.53125v17.066406c0 4.714844-3.820312 8.535156-8.535156 8.535156h-8.53125v-34.132812zm-17.066406-51.199219h-3.257813c-3.972656-3.484375-8.699219-5.988281-13.808593-7.324219v-26.8125h25.601562v25.601562c0 4.714844-3.820312 8.535157-8.535156 8.535157zm76.800781-34.136719c-8.070313 10.730469-20.707031 17.046875-34.132813 17.070312h-17.066406v-17.070312zm68.265625-25.597656c0 4.710937-3.820312 8.53125-8.53125 8.53125h-324.269531c-4.710938 0-8.53125-3.820313-8.53125-8.53125v-170.667969c0-4.710937 3.820312-8.53125 8.53125-8.53125h324.269531c4.710938 0 8.53125 3.820313 8.53125 8.53125zm59.734375-34.132813c0 4.710938-3.820313 8.53125-8.535156 8.53125-4.710938 0-8.53125-3.820312-8.53125-8.53125 0-4.714843 3.820312-8.535156 8.53125-8.535156 4.714843 0 8.535156 3.820313 8.535156 8.535156zm-17.066406 93.867188c-1.902344.019531-3.785157.363281-5.574219 1.015625-1.929688-2.8125-2.960938-6.140625-2.960938-9.550782-.019531-7.332031 4.648438-13.859374 11.597657-16.210937 6.945312-2.351563 14.617187-.003906 19.054687 5.835937 4.441406 5.835938 4.652344 13.859376.53125 19.925782-1.789062-.652344-3.679687-.996094-5.582031-1.015625zm0 0"/><path d="m187.785156 273.171875h34.132813c2.6875 0 5.21875-1.265625 6.828125-3.414063l18.773437-25.027343 18.773438 25.027343c1.613281 2.148438 4.140625 3.414063 6.828125 3.414063h17.066406c3.671875 0 6.929688-2.351563 8.089844-5.835937l15.863281-47.574219 10.375 46.730469c.867187 3.90625 4.335937 6.683593 8.335937 6.679687h34.136719c4.710938 0 8.53125-3.820313 8.53125-8.53125 0-4.714844-3.820312-8.535156-8.53125-8.535156h-27.308593l-15.574219-70.117188c-.824219-3.746093-4.046875-6.476562-7.875-6.683593-3.875-.347657-7.449219 2.09375-8.535157 5.828124l-23.660156 70.972657h-6.648437l-23.039063-30.71875c-1.679687-2.042969-4.183594-3.222657-6.828125-3.222657s-5.148437 1.179688-6.828125 3.222657l-23.039062 30.71875h-29.867188c-4.710937 0-8.53125 3.820312-8.53125 8.535156 0 4.710937 3.820313 8.53125 8.53125 8.53125zm0 0"/></svg>