<svg height="512pt" viewBox="-51 0 512 512.1068" width="512pt" xmlns="http://www.w3.org/2000/svg"><path d="m187.785156 380.5h34.136719v48.300781h-34.136719zm0 0" fill="#4e342e"/><path d="m238.988281 358.398438c0 14.167968-15.277343 25.601562-34.132812 25.601562-3.601563.035156-7.191407-.421875-10.667969-1.367188-12.472656-1.699218-22.167969-11.710937-23.46875-24.234374.066406-5.460938 2.238281-10.6875 6.058594-14.589844h56.152344c3.824218 3.902344 5.992187 9.128906 6.058593 14.589844zm0 0" fill="#f57c00"/><path d="m217.652344 358.398438c-1.300782 12.523437-10.992188 22.535156-23.464844 24.234374-12.472656-1.699218-22.167969-11.710937-23.46875-24.234374.066406-5.460938 2.238281-10.6875 6.058594-14.589844h34.816406c3.824219 3.902344 5.996094 9.128906 6.058594 14.589844zm0 0" fill="#ff9801"/><path d="m187.785156 119.296875h34.136719v49.238281h-34.136719zm0 0" fill="#795548"/><path d="m234.464844 486.398438h40.875c.617187.035156 1.238281-.035157 1.832031-.203126l13.015625-40.328124h-172.117188l8.824219 40.53125zm0 0" fill="#37474f"/><path d="m238.988281 38.398438v8.535156h-68.269531v-8.535156c0-14.136719 11.464844-25.597657 25.601562-25.597657h17.066407c14.140625 0 25.601562 11.460938 25.601562 25.597657zm0 0" fill="#4e342e"/><path d="m221.921875 38.398438v8.535156h-51.203125v-8.535156c0-14.136719 11.464844-25.597657 25.601562-25.597657 14.136719 0 25.601563 11.460938 25.601563 25.597657zm0 0" fill="#795548"/><path d="m281.652344 110.933594c-.070313 9.394531-7.667969 16.996094-17.066406 17.066406h-119.464844c-9.414063-.027344-17.039063-7.652344-17.066406-17.066406-.070313-36.890625 29.253906-67.128906 66.132812-68.179688.707031-.074218 1.421875-.101562 2.132812-.085937h17.066407c37.703125 0 68.265625 30.5625 68.265625 68.265625zm0 0" fill="#f57c00"/><path d="m260.320312 110.933594c-.070312 9.394531-7.671874 16.996094-17.066406 17.066406h-98.132812c-9.414063-.027344-17.039063-7.652344-17.066406-17.066406-.070313-36.890625 29.253906-67.128906 66.132812-68.179688 36.863281 1.082032 66.171875 31.300782 66.132812 68.179688zm0 0" fill="#ff9801"/><path d="m315.785156 452.265625h-221.863281c-2.960937-.007813-5.703125-1.546875-7.25-4.066406-1.546875-2.523438-1.675781-5.664063-.347656-8.304688l8.535156-17.066406c1.425781-2.886719 4.375-4.710937 7.59375-4.695313h204.800781c3.226563-.035156 6.183594 1.792969 7.59375 4.695313l8.535156 17.066406c1.328126 2.640625 1.199219 5.78125-.347656 8.304688-1.546875 2.519531-4.289062 4.058593-7.25 4.066406zm0 0" fill="#f57c00"/><path d="m294.453125 452.265625h-200.53125c-2.960937-.007813-5.703125-1.546875-7.25-4.066406-1.546875-2.523438-1.675781-5.664063-.347656-8.304688l8.535156-17.066406c1.425781-2.886719 4.375-4.710937 7.59375-4.695313h183.46875c3.226563-.035156 6.183594 1.792969 7.59375 4.695313l8.53125 17.066406c1.332031 2.640625 1.199219 5.78125-.347656 8.304688-1.546875 2.519531-4.289063 4.058593-7.246094 4.066406zm0 0" fill="#ff9801"/><g fill="#4e342e"><path d="m145.121094 477.867188c0 14.136718-11.460938 25.597656-25.601563 25.597656-2.914062.019531-5.808593-.5-8.53125-1.535156-10.226562-3.582032-17.070312-13.230469-17.070312-24.0625 0-10.832032 6.84375-20.484376 17.070312-24.066407 2.722657-1.03125 5.617188-1.550781 8.53125-1.535156 14.140625 0 25.601563 11.460937 25.601563 25.601563zm0 0"/><path d="m230.453125 477.867188c0 14.136718-11.460937 25.597656-25.597656 25.597656-2.917969.019531-5.808594-.5-8.535157-1.535156-10.222656-3.582032-17.070312-13.230469-17.070312-24.0625 0-10.832032 6.847656-20.484376 17.070312-24.066407 2.726563-1.03125 5.617188-1.550781 8.535157-1.535156 14.136719 0 25.597656 11.460937 25.597656 25.601563zm0 0"/><path d="m315.785156 477.867188c0 14.136718-11.460937 25.597656-25.597656 25.597656-2.914062.019531-5.808594-.5-8.535156-1.535156-10.222656-3.582032-17.066406-13.230469-17.066406-24.0625 0-10.832032 6.84375-20.484376 17.066406-24.066407 2.726562-1.03125 5.621094-1.550781 8.535156-1.535156 14.136719 0 25.597656 11.460937 25.597656 25.601563zm0 0"/></g><path d="m128.054688 477.867188c0-13.289063-7.640626-24.066407-17.066407-24.066407s-17.066406 10.777344-17.066406 24.066407c0 13.289062 7.640625 24.0625 17.066406 24.0625s17.066407-10.773438 17.066407-24.0625zm0 0" fill="#795548"/><path d="m213.386719 477.867188c0-13.289063-7.640625-24.066407-17.066407-24.066407-9.425781 0-17.066406 10.777344-17.066406 24.066407 0 13.289062 7.640625 24.0625 17.066406 24.0625 9.425782 0 17.066407-10.773438 17.066407-24.0625zm0 0" fill="#795548"/><path d="m298.71875 477.867188c0-13.289063-7.640625-24.066407-17.066406-24.066407-9.425782 0-17.066406 10.777344-17.066406 24.066407 0 13.289062 7.640624 24.0625 17.066406 24.0625 9.425781 0 17.066406-10.773438 17.066406-24.0625zm0 0" fill="#795548"/><path d="m273.121094 238.933594v42.667968c0 37.699219-30.566406 68.265626-68.265625 68.265626-8.503907.035156-16.933594-1.558594-24.832031-4.695313-26.199219-10.210937-43.445313-35.453125-43.4375-63.570313v-42.667968c0-4.714844 3.820312-8.535156 8.535156-8.535156h119.464844c4.714843 0 8.535156 3.820312 8.535156 8.535156zm0 0" fill="#4e342e"/><path d="m256.054688 234.667969v42.664062c0 37.703125-30.566407 68.269531-68.269532 68.269531-2.59375-.015624-5.183594-.15625-7.761718-.429687-26.199219-10.210937-43.445313-35.453125-43.4375-63.570313v-42.667968c0-4.714844 3.820312-8.535156 8.535156-8.535156h109.738281c.78125 1.289062 1.191406 2.761718 1.195313 4.269531zm0 0" fill="#795548"/><path d="m221.921875 281.601562c0 9.425782-7.640625 17.066407-17.066406 17.066407s-17.070313-7.640625-17.070313-17.066407c0-9.425781 7.644532-17.066406 17.070313-17.066406s17.066406 7.640625 17.066406 17.066406zm0 0" fill="#fec108"/><path d="m68.320312 311.464844c0 16.496094-13.371093 29.867187-29.867187 29.867187-2.894531.011719-5.769531-.417969-8.53125-1.277343-12.652344-3.761719-21.324219-15.390626-21.324219-28.589844 0-13.195313 8.671875-24.824219 21.324219-28.585938 2.761719-.859375 5.636719-1.289062 8.53125-1.277344 7.921875 0 15.519531 3.144532 21.121094 8.746094 5.597656 5.601563 8.746093 13.199219 8.746093 21.117188zm0 0" fill="#f57c00"/><path d="m298.71875 196.265625c1.089844 17.644531-12.234375 32.871094-29.863281 34.132813h-128c-17.632813-1.261719-30.957031-16.488282-29.867188-34.132813-1.042969-17.265625 11.71875-32.285156 28.925781-34.046875.308594-.070312.625-.097656.941407-.085938 1.191406 0 40.617187.085938 57 .257813.824219-.085937 1.652343-.085937 2.476562 0 2.644531.085937 4.351563.085937 4.523438.167969.851562-.253906 25.171875-.339844 43.605469-.339844 11.007812-.085938 19.878906-.085938 20.394531-.085938 17.628906 1.261719 30.953125 16.492188 29.863281 34.132813zm0 0" fill="#f57c00"/><path d="m277.386719 196.265625c1.089843 17.644531-12.234375 32.871094-29.867188 34.132813h-106.664062c-17.632813-1.261719-30.957031-16.488282-29.867188-34.132813-1.042969-17.265625 11.71875-32.285156 28.925781-34.046875 18.433594 0 42.753907.085938 43.605469.339844.425781-.082032 6.316407-.167969 14.335938-.167969.824219-.085937 1.652343-.085937 2.476562 0 18.601563-.257813 46.25-.257813 47.1875-.257813.316407-.011718.632813.015626.941407.085938 17.207031 1.761719 29.96875 16.78125 28.925781 34.046875zm0 0" fill="#fec108"/><path d="m401.121094 311.464844c0 16.496094-13.371094 29.867187-29.867188 29.867187-2.894531.011719-5.769531-.417969-8.535156-1.277343-12.648438-3.761719-21.320312-15.390626-21.320312-28.589844 0-13.195313 8.671874-24.824219 21.320312-28.585938 2.765625-.859375 5.640625-1.289062 8.535156-1.277344 7.921875 0 15.519532 3.144532 21.117188 8.746094 5.601562 5.601563 8.75 13.199219 8.75 21.117188zm0 0" fill="#f57c00"/><path d="m51.253906 311.464844c-.035156 13.191406-8.699218 24.800781-21.332031 28.589844-12.652344-3.761719-21.324219-15.390626-21.324219-28.589844 0-13.195313 8.671875-24.824219 21.324219-28.585938 12.632813 3.789063 21.296875 15.398438 21.332031 28.585938zm0 0" fill="#ff9801"/><path d="m384.054688 311.464844c-.035157 13.191406-8.699219 24.800781-21.335938 28.589844-12.648438-3.761719-21.320312-15.390626-21.320312-28.589844 0-13.195313 8.671874-24.824219 21.320312-28.585938 12.636719 3.789063 21.300781 15.398438 21.335938 28.585938zm0 0" fill="#ff9801"/><path d="m94.636719 110.574219c0 9.625-7.800781 17.425781-17.425781 17.425781-9.621094 0-17.425782-7.800781-17.425782-17.425781 0-9.621094 7.804688-17.425781 17.425782-17.425781 9.625 0 17.425781 7.804687 17.425781 17.425781zm0 0" fill="#fec108"/><path d="m350.636719 111.292969c0 9.621093-7.800781 17.425781-17.425781 17.425781-9.621094 0-17.425782-7.804688-17.425782-17.425781 0-9.625 7.804688-17.425781 17.425782-17.425781 9.625 0 17.425781 7.800781 17.425781 17.425781zm0 0" fill="#fec108"/><path d="m187.785156 85.332031c0 4.714844-3.820312 8.535157-8.53125 8.535157-4.714844 0-8.535156-3.820313-8.535156-8.535157 0-4.710937 3.820312-8.53125 8.535156-8.53125 4.710938 0 8.53125 3.820313 8.53125 8.53125zm0 0"/><path d="m238.988281 85.332031c0 4.714844-3.820312 8.535157-8.535156 8.535157-4.710937 0-8.53125-3.820313-8.53125-8.535157 0-4.710937 3.820313-8.53125 8.53125-8.53125 4.714844 0 8.535156 3.820313 8.535156 8.53125zm0 0"/><path d="m179.253906 196.265625c0 4.714844-3.820312 8.535156-8.535156 8.535156-4.710938 0-8.53125-3.820312-8.53125-8.535156 0-4.710937 3.820312-8.53125 8.53125-8.53125 4.714844 0 8.535156 3.820313 8.535156 8.53125zm0 0"/><path d="m213.386719 196.265625c0 4.714844-3.820313 8.535156-8.53125 8.535156-4.714844 0-8.535157-3.820312-8.535157-8.535156 0-4.710937 3.820313-8.53125 8.535157-8.53125 4.710937 0 8.53125 3.820313 8.53125 8.53125zm0 0"/><path d="m247.519531 196.265625c0 4.714844-3.820312 8.535156-8.53125 8.535156-4.714843 0-8.535156-3.820312-8.535156-8.535156 0-4.710937 3.820313-8.53125 8.535156-8.53125 4.710938 0 8.53125 3.820313 8.53125 8.53125zm0 0"/><path d="m204.855469 307.199219c14.136719 0 25.597656-11.460938 25.597656-25.597657 0-14.140624-11.460937-25.601562-25.597656-25.601562-14.140625 0-25.601563 11.460938-25.601563 25.601562 0 14.136719 11.460938 25.597657 25.601563 25.597657zm0-34.132813c4.710937 0 8.53125 3.820313 8.53125 8.535156 0 4.710938-3.820313 8.53125-8.53125 8.53125-4.714844 0-8.535157-3.820312-8.535157-8.53125 0-4.714843 3.820313-8.535156 8.535157-8.535156zm0 0"/><path d="m46.988281 282.625c-15.898437-3.746094-32.417969 3.035156-41.097656 16.871094-8.679687 13.839844-7.597656 31.664062 2.695313 44.347656v23.089844c0 4.710937 3.820312 8.53125 8.535156 8.53125 4.710937 0 8.53125-3.820313 8.53125-8.53125v-10.890625c8.246094 3.140625 17.355468 3.140625 25.601562 0v10.890625c0 4.710937 3.820313 8.53125 8.53125 8.53125 4.714844 0 8.535156-3.820313 8.535156-8.53125v-23.089844c6.363282-7.773438 9.363282-17.765625 8.335938-27.757812-1.023438-9.992188-5.988281-19.164063-13.796875-25.484376l58.027344-58.027343c2.3125 1.5625 4.796875 2.855469 7.40625 3.851562-.144531.828125-.222657 1.667969-.238281 2.507813v42.667968c.03125 26.648438 13.886718 51.371094 36.597656 65.3125-1.613282 3.613282-2.453125 7.527344-2.464844 11.484376.390625 11.503906 6.898438 21.917968 17.066406 27.308593v23.894531h-76.800781c-6.460937-.03125-12.375 3.605469-15.265625 9.386719l-8.535156 17.066407c-2.375 4.710937-2.421875 10.261718-.125 15.011718 2.296875 4.753906 6.675781 8.164063 11.84375 9.230469-3.242188 5.289063-4.964844 11.367187-4.984375 17.570313-.054688 15.433593 10.289062 28.96875 25.195312 32.972656 14.90625 4.007812 30.636719-2.523438 38.328125-15.90625h26.554688c6.019531 10.554687 17.238281 17.070312 29.390625 17.070312 12.148437 0 23.367187-6.515625 29.386719-17.070312h26.554687c6.074219 10.667968 17.429687 17.230468 29.707031 17.171875 12.273438-.058594 23.566406-6.730469 29.539063-17.453125 5.972656-10.726563 5.699219-23.835938-.714844-34.304688 5.171875-1.0625 9.554687-4.472656 11.855469-9.230468 2.296875-4.753907 2.25-10.308594-.128906-15.019532l-8.535157-17.066406c-2.875-5.796875-8.796875-9.453125-15.265625-9.429688h-76.800781v-23.894531c10.167969-5.390625 16.675781-15.804687 17.066406-27.308593-.011719-3.957032-.851562-7.871094-2.464843-11.484376 22.710937-13.941406 36.566406-38.664062 36.597656-65.3125v-42.667968c-.015625-.859375-.101563-1.714844-.253906-2.558594 2.605468-.996094 5.09375-2.289062 7.40625-3.851562l58.027343 58.027343c-7.820312 6.324219-12.792969 15.507813-13.816406 25.511719-1.023437 10.007812 1.992187 20.003906 8.371094 27.78125v23.089844c0 4.710937 3.820312 8.53125 8.535156 8.53125 4.710937 0 8.53125-3.820313 8.53125-8.53125v-10.890625c8.246094 3.140625 17.355469 3.140625 25.601563 0v10.890625c0 4.710937 3.820312 8.53125 8.53125 8.53125 4.714843 0 8.535156-3.820313 8.535156-8.53125v-23.089844c5.484375-6.742188 8.496094-15.15625 8.53125-23.84375.085937-11.707031-5.214844-22.808594-14.375-30.101562-9.160156-7.292969-21.164063-9.976563-32.558594-7.273438-.210938-.265625-.304688-.582031-.542969-.855469l-61.585937-61.574219c4.382812-7.210937 6.691406-15.492187 6.664062-23.929687 1.089844-22.355469-16.054687-41.402344-38.398437-42.664063-9.328125 0-24.792969 0-38.402344.09375v-17.160156h34.132813c10.742187-.042968 20.3125-6.785156 23.972656-16.878906l20.214844.050781c4.109374 11.976563 16.261718 19.238281 28.757812 17.179688 12.492188-2.054688 21.679688-12.824219 21.734375-25.488281.058594-12.660157-9.03125-23.515626-21.503906-25.683594-12.476563-2.167969-24.695313 4.984375-28.914063 16.925781l-19.136718-.054687c-2.886719-25.980469-18.78125-48.714844-42.191407-60.347657v-8.105469c0-18.851562-15.28125-34.132812-34.132812-34.132812h-17.066407c-18.851562 0-34.132812 15.28125-34.132812 34.132812v8.105469c-23.285156 11.578125-39.140625 34.144531-42.136719 59.972657l-18.40625-.050782c-4.113281-11.976562-16.265625-19.238281-28.757812-17.183594-12.496094 2.058594-21.679688 12.828126-21.738281 25.492188-.058594 12.660156 9.03125 23.515625 21.507812 25.683594 12.472656 2.167968 24.691406-4.984375 28.910156-16.925782l19.464844.050782c3.546875 10.289062 13.207031 17.207031 24.089844 17.257812h34.132812v17.160156c-13.609375-.09375-29.074218-.09375-38.398437-.09375-22.347657 1.261719-39.492188 20.308594-38.402344 42.664063-.035156 8.445313 2.265625 16.734375 6.648437 23.953125l-61.578124 61.578125c-.195313.265625-.371094.542969-.535157.828125zm-29.867187 37.375c0-11.78125 9.550781-21.332031 21.332031-21.332031s21.332031 9.550781 21.332031 21.332031-9.550781 21.332031-21.332031 21.332031-21.332031-9.550781-21.332031-21.332031zm375.464844 0c0 11.78125-9.550782 21.332031-21.332032 21.332031s-21.332031-9.550781-21.332031-21.332031 9.550781-21.332031 21.332031-21.332031 21.332032 9.550781 21.332032 21.332031zm-273.066407 174.933594c-9.425781 0-17.066406-7.640625-17.066406-17.066406 0-9.425782 7.640625-17.066407 17.066406-17.066407s17.066407 7.640625 17.066407 17.066407c0 9.425781-7.640626 17.066406-17.066407 17.066406zm34.132813-17.066406c-.035156-6.011719-1.671875-11.902344-4.742188-17.066407h26.554688c-3.070313 5.164063-4.710938 11.054688-4.746094 17.066407zm51.203125 17.066406c-9.425781 0-17.070313-7.640625-17.070313-17.066406 0-9.425782 7.644532-17.066407 17.070313-17.066407s17.066406 7.640625 17.066406 17.066407c0 9.425781-7.640625 17.066406-17.066406 17.066406zm34.132812-17.066406c-.035156-6.011719-1.675781-11.902344-4.746093-17.066407h26.554687c-3.070313 5.164063-4.707031 11.054688-4.742187 17.066407zm51.199219 17.066406c-9.425781 0-17.066406-7.640625-17.066406-17.066406 0-9.425782 7.640625-17.066407 17.066406-17.066407s17.066406 7.640625 17.066406 17.066407c0 9.425781-7.640625 17.066406-17.066406 17.066406zm25.640625-51.199219h-221.90625l8.53125-17.066406h204.800781zm-102.441406-34.132813h-17.066407v-17.734374c5.65625.886718 11.414063.886718 17.066407 0zm17.066406-51.203124c-.769531 6.601562-5.316406 12.144531-11.640625 14.191406l-.332031.128906c-8.714844 3.664062-18.539063 3.664062-27.253907 0l-.332031-.128906c-6.320312-2.046875-10.871093-7.589844-11.640625-14.191406.011719-1.429688.304688-2.84375.851563-4.164063 16.03125 5.558594 33.464843 5.558594 49.496093 0 .550782 1.320313.839844 2.734375.851563 4.164063zm34.132813-76.796876c0 32.988282-26.742188 59.730469-59.730469 59.730469-32.992188 0-59.734375-26.742187-59.734375-59.730469v-42.667968h119.464844zm68.625-179.203124c4.910156 0 8.894531 3.984374 8.894531 8.894531 0 4.910156-3.984375 8.890625-8.894531 8.890625-4.910157 0-8.890626-3.980469-8.890626-8.890625.003907-4.910157 3.984376-8.886719 8.890626-8.894531zm-153.957032-68.265626c0-9.425781 7.640625-17.066406 17.066406-17.066406h17.066407c9.425781 0 17.066406 7.640625 17.066406 17.066406zm-102.042968 85.332032c-4.90625.007812-8.890626-3.96875-8.898438-8.875-.007812-4.910156 3.960938-8.894532 8.871094-8.90625 4.910156-.011719 8.898437 3.957031 8.910156 8.867187v.101563c-.039062 4.875-4.003906 8.808594-8.882812 8.8125zm59.375-8.53125c.042968-32.972656 26.761718-59.691406 59.734374-59.734375h17.066407c32.972656.042969 59.691406 26.761719 59.734375 59.734375 0 4.710937-3.820313 8.53125-8.535156 8.53125h-119.464844c-4.714844 0-8.535156-3.820313-8.535156-8.53125zm76.800781 25.601562v17.066406h-17.066407v-17.066406zm-72.53125 34.132813c6.339843 0 58.375.117187 63.144531.339843.59375-.089843 1.199219-.089843 1.792969 0 4.726562-.222656 56.761719-.339843 63.144531-.339843 12.867188 1.332031 22.308594 12.707031 21.25 25.597656 1.054688 12.921875-8.433594 24.308594-21.332031 25.601563h-128c-12.902344-1.292969-22.390625-12.679688-21.335938-25.601563-1.054687-12.921875 8.433594-24.308594 21.335938-25.597656zm0 0"/></svg>