<svg height="504pt" viewBox="0 0 504.22091 504" width="504pt" xmlns="http://www.w3.org/2000/svg"><path d="m167.867188 362.957031h33.574218v44.570313h-33.574218zm0 0" fill="#1566c0"/><path d="m302.164062 362.957031h33.574219v44.570313h-33.574219zm0 0" fill="#1566c0"/><path d="m218.230469 436.570312c.007812 3.804688-.644531 7.582032-1.929688 11.164063h-63.289062c-1.285157-3.582031-1.9375-7.359375-1.929688-11.164063 0-14.5 9.308594-27.363281 23.082031-31.894531 3.382813-1.121093 6.925782-1.6875 10.492188-1.679687 18.542969 0 33.574219 15.03125 33.574219 33.574218zm0 0" fill="#283593"/><path d="m352.523438 436.570312c.007812 3.804688-.644532 7.582032-1.929688 11.164063h-63.285156c-1.285156-3.582031-1.941406-7.359375-1.929688-11.164063-.003906-14.5 9.304688-27.363281 23.082032-31.894531 3.382812-1.121093 6.925781-1.6875 10.488281-1.679687 18.542969 0 33.574219 15.03125 33.574219 33.574218zm0 0" fill="#283593"/><path d="m197.246094 436.570312c.007812 3.804688-.644532 7.582032-1.929688 11.164063h-42.304687c-1.285157-3.582031-1.9375-7.359375-1.929688-11.164063 0-14.5 9.308594-27.363281 23.082031-31.894531 13.773438 4.53125 23.082032 17.394531 23.082032 31.894531zm0 0" fill="#3f51b5"/><path d="m331.539062 436.570312c.011719 3.804688-.644531 7.582032-1.929687 11.164063h-42.300781c-1.285156-3.582031-1.941406-7.359375-1.929688-11.164063-.003906-14.5 9.304688-27.363281 23.082032-31.894531 13.773437 4.53125 23.082031 17.394531 23.078124 31.894531zm0 0" fill="#3f51b5"/><path d="m291.167969 250.234375-3.945313 35.335937-.25 2.433594c-.925781 8.394532-4.28125 14.269532-8.140625 14.269532h-54.054687c-3.863282 0-7.21875-5.875-8.144532-14.269532l-.25-2.433594-3.945312-35.335937c-.578125-5.007813-.179688-10.082031 1.175781-14.941406h76.378907c1.355468 4.859375 1.753906 9.933593 1.175781 14.941406zm0 0" fill="#283593"/><path d="m274.382812 250.234375-3.945312 35.335937-.253906 2.433594c-.921875 8.394532-4.28125 14.269532-8.140625 14.269532h-37.265625c-3.863282 0-7.21875-5.875-8.144532-14.269532l-.25-2.433594-3.945312-35.335937c-.578125-5.007813-.179688-10.082031 1.175781-14.941406h59.59375c1.355469 4.859375 1.753907 9.933593 1.175781 14.941406zm0 0" fill="#3f51b5"/><path d="m342.308594 185.4375c1.628906-4.230469 2.453125-8.726562 2.433594-13.261719.027343-16.007812-10.074219-30.285156-25.179688-35.589843h-134.90625c-15.105469 5.304687-25.207031 19.582031-25.179688 35.589843-.019531 4.535157.804688 9.03125 2.433594 13.261719l47.925782 42.808594h83.933593zm0 0" fill="#1566c0"/><path d="m226.621094 151.191406h50.363281v70.320313h-50.363281zm0 0" fill="#283593"/><path d="m318.949219 75.652344v70.335937c.039062 3.21875-1.792969 6.167969-4.699219 7.554688-3.691406 1.847656-7.554688 3.441406-11.414062 4.953125-2.9375 1.089844-5.875 2.097656-8.8125 3.019531-30.550782 9.425781-63.375 8.363281-93.253907-3.019531-3.859375-1.511719-7.71875-3.105469-11.414062-4.953125-2.90625-1.386719-4.738281-4.335938-4.699219-7.554688v-70.335937c.207031-14.785156 8.007812-28.421875 20.648438-36.09375v-.082032c3.753906-8.851562 9.917968-16.472656 17.792968-21.992187h.082032c12.503906-8.613281 28.222656-11.136719 42.792968-6.871094 14.570313 4.265625 26.445313 14.867188 32.332032 28.863281v.082032c12.636718 7.671875 20.441406 21.308594 20.644531 36.09375zm0 0" fill="#1566c0"/><path d="m297.96875 84.042969v70.339843c.023438 2.902344-1.472656 5.609376-3.945312 7.132813-30.550782 9.425781-63.375 8.363281-93.253907-3.019531-3.859375-1.511719-7.71875-3.105469-11.414062-4.953125-2.90625-1.386719-4.738281-4.335938-4.699219-7.554688v-70.335937c.207031-14.785156 8.007812-28.421875 20.648438-36.09375v-.082032c3.753906-8.851562 9.917968-16.472656 17.792968-21.992187h.082032c2.527343-.40625 5.082031-.601563 7.640624-.585937 20.308594.058593 38.617188 12.253906 46.5 30.972656v.082031c12.640626 7.671875 20.441407 21.308594 20.648438 36.089844zm0 0" fill="#2296f3"/><path d="m276.984375 92.4375c0 13.90625-11.273437 25.179688-25.179687 25.179688-2.867188.019531-5.714844-.492188-8.394532-1.507813-10.054687-3.523437-16.789062-13.015625-16.789062-23.671875 0-10.652344 6.734375-20.144531 16.789062-23.667969 2.679688-1.015625 5.527344-1.53125 8.394532-1.511719 13.90625 0 25.179687 11.273438 25.179687 25.179688zm0 0" fill="#c52828"/><path d="m260.195312 92.4375c0-13.070312-7.515624-23.667969-16.785156-23.667969-9.269531 0-16.789062 10.597657-16.789062 23.667969 0 13.074219 7.519531 23.671875 16.789062 23.671875 9.269532 0 16.785156-10.597656 16.785156-23.671875zm0 0" fill="#f44335"/><path d="m293.769531 209.945312v18.300782c0 3.988281-2.804687 7.425781-6.714843 8.222656l-15.527344 3.105469c-9.253906 1.832031-18.714844 2.367187-28.117188 1.597656-3.804687-.316406-7.589844-.847656-11.332031-1.597656l-15.527344-3.105469c-3.910156-.796875-6.714843-4.234375-6.714843-8.222656v-18.300782c0-4.632812 3.757812-8.390624 8.394531-8.390624h67.148437c4.632813 0 8.390625 3.757812 8.390625 8.390624zm0 0" fill="#1566c0"/><path d="m276.984375 209.945312v18.300782c0 3.988281-2.808594 7.425781-6.714844 8.222656l-15.527343 3.105469c-3.746094.75-7.527344 1.28125-11.332032 1.597656-3.804687-.316406-7.589844-.847656-11.332031-1.597656l-15.527344-3.105469c-3.910156-.796875-6.714843-4.234375-6.714843-8.222656v-18.300782c0-4.632812 3.757812-8.390624 8.394531-8.390624h50.359375c2.226562 0 4.359375.882812 5.933594 2.457031 1.574218 1.574219 2.460937 3.707031 2.460937 5.933593zm0 0" fill="#2296f3"/><path d="m334.394531 332.742188v.085937l-40.625 19.808594h-25.179687l-8.394532 8.390625h-16.785156l-8.394531-8.390625h-25.179687l-40.625-19.808594v-.085937c5.199218-22.070313 24.511718-37.945313 47.171874-38.777344h70.839844c22.683594.773437 42.027344 16.671875 47.171875 38.777344zm0 0" fill="#1566c0"/><path d="m317.609375 332.742188v.085937l-40.625 19.808594h-25.179687l-8.394532 8.390625-8.394531-8.390625h-25.179687l-40.625-19.808594v-.085937c5.199218-22.070313 24.511718-37.945313 47.171874-38.777344h54.054688c22.683594.773437 42.023438 16.671875 47.171875 38.777344zm0 0" fill="#2296f3"/><path d="m235.015625 486.929688c0 4.636718-3.757813 8.394531-8.394531 8.394531h-83.933594c-4.632812 0-8.390625-3.757813-8.390625-8.394531-.042969-13.363282 5.28125-26.183594 14.769531-35.585938 7.335938-7.460938 16.867188-12.371094 27.195313-14.019531 2.769531-.507813 5.578125-.761719 8.394531-.753907 27.796875.039063 50.320312 22.5625 50.359375 50.359376zm0 0" fill="#1566c0"/><path d="m209.835938 344.242188c0 13.90625-11.273438 25.179687-25.179688 25.179687-2.867188.019531-5.714844-.496094-8.394531-1.511719-10.054688-3.523437-16.789063-13.011718-16.789063-23.667968s6.734375-20.148438 16.789063-23.671876c2.679687-1.015624 5.527343-1.527343 8.394531-1.507812 13.90625 0 25.179688 11.273438 25.179688 25.179688zm0 0" fill="#283593"/><path d="m369.3125 486.929688c0 4.636718-3.757812 8.394531-8.394531 8.394531h-83.933594c-4.636719 0-8.394531-3.757813-8.394531-8.394531-.039063-13.363282 5.28125-26.183594 14.773437-35.585938 7.332031-7.460938 16.863281-12.371094 27.195313-14.019531 2.765625-.507813 5.578125-.761719 8.390625-.753907 27.796875.039063 50.320312 22.5625 50.363281 50.359376zm0 0" fill="#1566c0"/><path d="m218.230469 486.929688c0 4.636718-3.757813 8.394531-8.394531 8.394531h-67.148438c-4.632812 0-8.390625-3.757813-8.390625-8.394531-.042969-13.363282 5.28125-26.183594 14.769531-35.585938 7.335938-7.460938 16.867188-12.371094 27.195313-14.019531 10.332031 1.648437 19.859375 6.558593 27.195312 14.019531 9.492188 9.402344 14.8125 22.222656 14.773438 35.585938zm0 0" fill="#2296f3"/><path d="m352.523438 486.929688c0 4.636718-3.757813 8.394531-8.390626 8.394531h-67.148437c-4.636719 0-8.394531-3.757813-8.394531-8.394531-.039063-13.363282 5.28125-26.183594 14.773437-35.585938 7.332031-7.460938 16.863281-12.371094 27.195313-14.019531 10.328125 1.648437 19.859375 6.558593 27.195312 14.019531 9.488282 9.402344 14.8125 22.222656 14.769532 35.585938zm0 0" fill="#2296f3"/><path d="m344.132812 344.242188c0 13.90625-11.273437 25.179687-25.183593 25.179687-2.867188.019531-5.710938-.496094-8.390625-1.511719-10.058594-3.523437-16.789063-13.011718-16.789063-23.667968s6.730469-20.148438 16.789063-23.671876c2.679687-1.015624 5.523437-1.527343 8.390625-1.507812 13.910156 0 25.183593 11.273438 25.183593 25.179688zm0 0" fill="#283593"/><path d="m193.050781 344.242188c0-13.074219-7.515625-23.671876-16.789062-23.671876-9.269531 0-16.785157 10.597657-16.785157 23.671876 0 13.070312 7.515626 23.667968 16.785157 23.667968 9.273437 0 16.789062-10.597656 16.789062-23.667968zm0 0" fill="#3f51b5"/><path d="m327.34375 344.242188c0-13.074219-7.515625-23.671876-16.785156-23.671876-9.273438 0-16.789063 10.597657-16.789063 23.671876 0 13.070312 7.515625 23.667968 16.789063 23.667968 9.269531 0 16.785156-10.597656 16.785156-23.667968zm0 0" fill="#3f51b5"/><path d="m203.792969 234.121094-17.457031 20.730468c-2.605469 3.175782-7.140626 3.960938-10.660157 1.847657l-4.03125-2.351563c-.3125-.304687-.648437-.585937-1.003906-.839844-1.433594-1.058593-3.171875-1.621093-4.953125-1.59375-2.199219.027344-4.304688.898438-5.875 2.433594-.664062.652344-1.429688 1.191406-2.269531 1.59375-1.722657.820313-3.679688 1.027344-5.539063.589844l-4.113281-4.535156-14.265625-15.441406c0-2.148438.808594-4.214844 2.265625-5.792969 1.589844-1.710938 2.488281-3.957031 2.515625-6.292969.019531-2.144531-.828125-4.203125-2.347656-5.710938-3.273438-3.296874-3.273438-8.617187 0-11.917968l20.226562-20.226563c.4375-.4375.914063-.832031 1.425782-1.175781 3.351562-2.082031 7.691406-1.597656 10.492187 1.175781l23.25 23.25 12.339844 12.335938c3.273437 3.300781 3.273437 8.621093 0 11.921875zm0 0" fill="#1566c0"/><path d="m187.007812 234.121094-16.367187 19.386718-1.09375 1.34375c-2.601563 3.175782-7.140625 3.960938-10.660156 1.847657l-1.34375-.757813-2.683594-1.59375c-1.589844-1.566406-3.730469-2.441406-5.960937-2.433594-.335938-.015624-.675782.015626-1.007813.082032l-14.265625-15.441406c0-2.148438.808594-4.214844 2.265625-5.792969 1.589844-1.710938 2.488281-3.957031 2.515625-6.292969.019531-2.144531-.828125-4.203125-2.347656-5.710938-3.273438-3.296874-3.273438-8.617187 0-11.917968l17.792968-17.792969 20.816407 20.816406 12.339843 12.335938c3.269532 3.300781 3.269532 8.621093 0 11.921875zm0 0" fill="#2296f3"/><path d="m106.261719 263.582031c-2.859375-7.742187-.996094-16.4375 4.785156-22.328125 2.882813-2.890625 6.566406-4.847656 10.574219-5.625 1.402344-.332031 2.839844-.5 4.28125-.503906 2.636718.011719 5.253906.496094 7.722656 1.429688 2.679688 1.050781 5.109375 2.652343 7.132812 4.699218l5.875 5.960938c1.601563 1.59375 2.933594 3.4375 3.945313 5.453125.597656 1.238281 1.078125 2.53125 1.425781 3.863281 2.074219 7.242188.011719 15.039062-5.371094 20.3125-3.378906 3.394531-7.824218 5.527344-12.589843 6.042969l-10.910157 19.808593-18.464843-10.15625-10.996094-6.042968zm0 0" fill="#283593"/><path d="m123.804688 339.625-97.617188 114.402344c-1.957031 2.21875-4.765625 3.5-7.722656 3.527344-1.675782-.011719-3.320313-.445313-4.785156-1.261719-2.5-1.304688-4.304688-3.632813-4.949219-6.378907-.503907-1.9375-.417969-3.984374.25-5.875l48.597656-140.757812c4.753906-8.804688 12.867187-15.3125 22.496094-18.046875.082031-.082031.082031 0 .082031 0 14.660156-4.292969 30.460938.679687 40.023438 12.59375 9.558593 11.914063 10.988281 28.414063 3.625 41.796875zm0 0" fill="#37474f"/><path d="m102.820312 339.625-94.089843 110.289062c-.503907-1.9375-.417969-3.984374.25-5.875l48.597656-140.757812c4.753906-8.804688 12.867187-15.3125 22.496094-18.046875.082031-.082031.082031 0 .082031 0 2.691406.714844 5.285156 1.757813 7.722656 3.105469 8.804688 4.800781 15.332032 12.910156 18.136719 22.535156 2.804687 9.628906 1.652344 19.972656-3.195313 28.75zm0 0" fill="#607d8b"/><path d="m368.304688 230.761719c1.453124 1.578125 2.265624 3.644531 2.265624 5.792969l-18.382812 19.976562c-2.804688.683594-5.761719-.144531-7.804688-2.183594-1.367187-1.375-3.183593-2.210937-5.121093-2.351562-.246094-.066406-.5-.097656-.753907-.082032-2.230468-.007812-4.371093.867188-5.960937 2.433594l-4.027344 2.351563c-1.863281 1.121093-4.101562 1.453125-6.210937.921875-1.015625-.171875-1.972656-.605469-2.769532-1.257813-.65625-.386719-1.226562-.902343-1.679687-1.511719l-17.457031-20.730468c-3.273438-3.300782-3.273438-8.621094 0-11.921875l35.585937-35.585938c2.804688-2.773437 7.144531-3.257812 10.492188-1.175781.511719.34375.992187.738281 1.425781 1.175781l20.3125 20.226563c3.273438 3.300781 3.273438 8.621094 0 11.917968h-.082031c-3.183594 3.394532-3.109375 8.699219.167969 12.003907zm0 0" fill="#1566c0"/><path d="m347.320312 234.957031c1.457032 1.578125 2.265626 3.648438 2.265626 5.792969l-10.324219 11.246094-8.054688 8.730468c-2.804687.683594-5.765625-.144531-7.808593-2.183593-.34375-.328125-.710938-.636719-1.089844-.921875-.847656-.570313-1.78125-.996094-2.769532-1.257813-.65625-.386719-1.226562-.902343-1.679687-1.511719l-17.457031-20.730468c-3.273438-3.300782-3.273438-8.621094 0-11.921875l28.957031-28.957031 17.878906 17.796874c3.273438 3.296876 3.273438 8.617188 0 11.917969h-.085937c-3.183594 3.394531-3.109375 8.699219.167968 12zm0 0" fill="#2296f3"/><path d="m397.957031 263.582031c2.859375-7.742187.996094-16.4375-4.78125-22.328125-2.886719-2.890625-6.570312-4.847656-10.578125-5.625-1.402344-.332031-2.839844-.5-4.28125-.503906-2.636718.011719-5.253906.496094-7.722656 1.429688-2.675781 1.050781-5.105469 2.652343-7.132812 4.699218l-5.875 5.960938c-1.597657 1.59375-2.929688 3.4375-3.945313 5.453125-.597656 1.238281-1.078125 2.53125-1.425781 3.863281-2.074219 7.242188-.011719 15.039062 5.371094 20.3125 3.382812 3.394531 7.824218 5.527344 12.589843 6.042969l10.910157 19.808593 18.46875-10.15625 10.992187-6.042968zm0 0" fill="#283593"/><path d="m495.550781 449.832031c-.882812 3.6875-3.757812 6.566407-7.445312 7.453125-3.683594.882813-7.554688-.375-10.015625-3.257812l-97.699219-114.402344c-7.367187-13.382812-5.933594-29.882812 3.625-41.796875 9.5625-11.914063 25.363281-16.886719 40.019531-12.59375.085938-.082031.085938 0 .085938 0 9.625 2.734375 17.738281 9.242187 22.492187 18.046875l48.601563 140.757812c.648437 1.863282.765625 3.867188.335937 5.792969zm0 0" fill="#37474f"/><path d="m495.550781 449.832031-94.175781-110.207031c-4.820312-8.78125-5.953125-19.117188-3.152344-28.734375 2.800782-9.621094 9.308594-17.730469 18.09375-22.550781 2.441406-1.332032 5.03125-2.375 7.71875-3.105469.085938-.082031.085938 0 .085938 0 9.625 2.734375 17.738281 9.242187 22.492187 18.046875l48.601563 140.757812c.648437 1.863282.765625 3.867188.335937 5.792969zm0 0" fill="#607d8b"/><path d="m251.804688 126.011719c18.539062 0 33.574218-15.03125 33.574218-33.574219s-15.035156-33.574219-33.574218-33.574219c-18.542969 0-33.574219 15.03125-33.574219 33.574219s15.03125 33.574219 33.574219 33.574219zm0-50.359375c9.269531 0 16.785156 7.515625 16.785156 16.785156 0 9.273438-7.515625 16.789062-16.785156 16.789062-9.273438 0-16.789063-7.515624-16.789063-16.789062 0-9.269531 7.515625-16.785156 16.789063-16.785156zm0 0"/><path d="m494.289062 419.78125h.925782c4.632812 0 8.390625-3.757812 8.390625-8.390625 0-4.636719-3.757813-8.394531-8.390625-8.394531h-6.714844l-5.800781-16.789063h4.734375c4.632812 0 8.390625-3.757812 8.390625-8.390625 0-4.636718-3.757813-8.394531-8.390625-8.394531h-10.542969l-5.792969-16.785156h7.957032c4.636718 0 8.394531-3.757813 8.394531-8.394531 0-4.636719-3.757813-8.394532-8.394531-8.394532l-13.695313.042969-10.761719-31.15625c-.15625-.453125-.355468-.890625-.589844-1.308594-8.25-15.234375-24.453124-24.4375-41.765624-23.730469l-9.414063-17.140624c2.136719-9.824219-.820313-20.0625-7.867187-27.234376-3.980469-4-9.054688-6.738281-14.585938-7.863281-2.851562-.648437-5.785156-.851562-8.695312-.597656-.523438-.765625-1.105469-1.488281-1.738282-2.164063l5.957032-5.960937c3.277343-3.277344 3.277343-8.589844 0-11.867187l-24.144532-24.117188c5.285156-20.902344-4.933594-42.625-24.410156-51.878906v-55.21875c-.128906-16.695313-8.476562-32.253906-22.316406-41.589844-9.628906-20.703125-30.390625-33.945312-53.222656-33.953125-22.777344.03125-43.476563 13.242187-53.097657 33.886719-13.910156 9.316406-22.3125 24.914062-22.445312 41.65625v55.488281c-15.441407 7.855469-25.171875 23.710937-25.179688 41.035156.042969 3.570313.507813 7.125 1.386719 10.585938l-24.109375 24.105469c-3.273437 3.277343-3.273437 8.589843 0 11.867187l5.800781 6.078125c-.609375.652344-1.167968 1.351562-1.679687 2.089844-2.78125-.261719-5.589844-.097656-8.324219.484375-5.660156 1.113281-10.859375 3.890625-14.933594 7.976562-7.023437 7.164063-9.964844 17.390625-7.820312 27.191407l-9.410156 17.132812c-4.777344-.195312-9.554688.371094-14.152344 1.679688-11.8125 3.332031-21.773438 11.296874-27.628906 22.082031-.230469.417969-.425782.851562-.582032 1.300781l-10.71875 31.140625-13.730468-.042969c-4.636719 0-8.394532 3.757813-8.394532 8.394532 0 4.636718 3.757813 8.394531 8.394532 8.394531h7.957031l-5.78125 16.785156h-10.570313c-4.632812 0-8.390625 3.757813-8.390625 8.394531 0 4.632813 3.757813 8.390625 8.390625 8.390625h4.742188l-5.796875 16.789063h-7.335938c-4.636719 0-8.394531 3.757812-8.394531 8.394531 0 4.632813 3.757812 8.390625 8.394531 8.390625h1.535157l-8.855469 25.636719c-2.96875 8.382812.4375 17.691406 8.117187 22.175781 7.679688 4.488281 17.464844 2.882812 23.308594-3.820312l.050781-.058594 37.492188-43.933594h13.890625c4.324218-.304688 7.707031-3.851562 7.804687-8.1875.09375-4.332031-3.128906-8.027344-7.433593-8.523438l14.394531-16.863281h10.414062c3.972657-.011719 7.386719-2.808593 8.191407-6.699219.800781-3.886718-1.234376-7.804687-4.875-9.390624l14.65625-17.171876h7.183593c4.429688.078126 8.140625-3.328124 8.441407-7.746093.300781-4.417969-2.917969-8.292969-7.316407-8.8125 1.957031-7.777344 1.828125-15.929688-.371093-23.636719-.425782-1.484375-1.132813-2.835938-1.675782-4.257812.519532-.53125.964844-1.128907 1.324219-1.777344l9.039063-16.394532c12.28125-3.347656 21.007812-14.226562 21.613281-26.941406 1.691406-.753906 3.242187-1.792968 4.585937-3.070312l5.957032 5.957031c3.277343 3.277344 8.589843 3.277344 11.867187 0l16.34375-16.339844v1.265625l3.003906 27.0625c-21.742187 4.117188-39.273437 20.203125-45.238281 41.511719-13.363281 12.230469-14.417969 32.925781-2.367188 46.449219v37c-13.09375 9.542968-19.3125 25.921875-15.847656 41.75-11.332031 11.019531-17.726562 26.15625-17.726562 41.964844 0 9.273437 7.515625 16.789062 16.785156 16.789062h83.933594c9.273437 0 16.789062-7.515625 16.789062-16.789062-.003906-15.808594-6.394531-30.945313-17.726562-41.964844 3.464844-15.828125-2.753906-32.207032-15.847656-41.75v-37c3.425781-3.902344 5.890624-8.554688 7.203124-13.578125h14.503907l5.933593 5.933593c1.574219 1.574219 3.707032 2.457032 5.933594 2.457032h16.785156c2.226563 0 4.363282-.882813 5.9375-2.457032l5.933594-5.933593h14.503906c1.308594 5.023437 3.777344 9.675781 7.199219 13.578125v37c-13.09375 9.542968-19.308593 25.921875-15.847656 41.75-11.328125 11.019531-17.722656 26.15625-17.726563 41.964844 0 9.273437 7.515626 16.789062 16.789063 16.789062h83.933594c9.269531 0 16.785156-7.515625 16.785156-16.789062 0-15.808594-6.394531-30.945313-17.726563-41.964844 3.464844-15.828125-2.75-32.207032-15.84375-41.75v-37c12.085938-13.554688 10.992188-34.320313-2.453124-46.53125-6.019532-21.242188-23.5-37.277344-45.179688-41.449219l3.011719-27.09375c.066406-.613281 0-1.222656 0-1.835937l16.945312 16.9375c3.277344 3.277343 8.589844 3.277343 11.871094 0l5.925781-5.960938c1.355469 1.304688 2.925782 2.367188 4.640625 3.140625.578125 12.707031 9.300781 23.585937 21.578125 26.917969l9.03125 16.398437c.363282.652344.808594 1.253907 1.335938 1.78125-.632813 1.386719-1.191406 2.808594-1.679688 4.253907-2.191406 7.710937-2.320312 15.863281-.367187 23.636718-4.398438.519532-7.617188 4.398438-7.316407 8.816406.300782 4.417969 4.011719 7.824219 8.4375 7.746094h7.1875l14.652344 17.171875c-3.644531 1.585938-5.679687 5.515625-4.867187 9.410157.8125 3.894531 4.246093 6.683593 8.226562 6.679687h10.414063l14.328125 16.785156h-.183594c-4.636719 0-8.394531 3.757813-8.394531 8.394531 0 4.636719 3.757812 8.394532 8.394531 8.394532h14.496094l37.542969 43.964844c3.535156 4.054687 8.65625 6.378906 14.035156 6.371093 3.097656.003907 6.148437-.777343 8.863281-2.265625 7.949219-4.347656 11.574219-13.820312 8.550781-22.363281zm-72.535156-122.28125c7.257813 2.058594 13.421875 6.878906 17.171875 13.429688l8.636719 25.019531-61.371094.183593c-4.023437-10.394531-1.789062-22.171874 5.765625-30.371093 7.550781-8.199219 19.105469-11.394531 29.796875-8.238281zm-85.410156-125.324219c-.035156 1.230469-.144531 2.453125-.328125 3.667969-3.835937.394531-7.414063 2.101562-10.132813 4.835938l-24.5 24.492187c-2.105468-7.09375-8.605468-11.972656-16.003906-12.011719v-20.808594c6.949219-1.527343 13.78125-3.539062 20.453125-6.015624 4.027344-1.539063 8.097657-3.292969 12.09375-5.214844 4.308594-2.121094 7.5-5.984375 8.773438-10.617188 6.125 5.542969 9.625 13.410156 9.644531 21.671875zm-57.679688 114.90625c-.183593 2.355469-.789062 4.65625-1.78125 6.800781h-50.125c-.984374-2.117187-1.585937-4.390624-1.773437-6.714843l-4.195313-37.773438c-.078124-1.148437-.097656-2.304687-.058593-3.457031l9.6875 1.9375c14.125 2.847656 28.679687 2.847656 42.804687 0l9.6875-1.9375c.042969 1.144531.023438 2.289062-.058594 3.433594zm6.714844-58.878906v.050781l-15.460937 3.085938c-11.957031 2.394531-24.269531 2.394531-36.226563 0l-14.875-2.929688c0-.074218 0-.140625 0-.207031-.007812-1.453125-.203125-2.898437-.585937-4.296875v-13.960938h67.148437v18.265626zm-16.789062-35.042969h-33.574219v-16.789062h33.574219zm-75.539063-117.507812c.207031-11.929688 6.554688-22.90625 16.785157-29.042969.742187-.496094 1.398437-1.117187 1.9375-1.828125.085937-.109375.164062-.226562.238281-.34375.359375-.492188.664062-1.019531.90625-1.578125.050781-.117187.140625-.21875.191406-.34375 6.589844-15.53125 21.824219-25.617187 38.695313-25.617187 16.679687.054687 31.765624 9.917968 38.5 25.179687.050781.160156.160156.277344.21875.4375.222656.554687.503906 1.085937.839843 1.585937.125.183594.25.367188.382813.542969.40625.519531.871094.988281 1.386718 1.394531l.308594.261719c.121094.082031.203125.199219.328125.277344 10.238281 6.144531 16.585938 17.132813 16.789063 29.074219l.066406 70.351562c-3.53125 1.679688-7.121094 3.226563-10.769531 4.644532-30.953125 11.792968-65.160157 11.792968-96.113281 0-3.640626-1.378907-7.210938-2.941407-10.691407-4.683594zm-16.007812 75.289062c1.34375 4.449219 4.476562 8.140625 8.644531 10.195313 3.988281 1.925781 8.058594 3.679687 12.085938 5.214843 6.671874 2.472657 13.507812 4.480469 20.457031 6v20.144532c-.253907.253906-.511719.519531-.773438.765625-5.292969.230469-10.164062 2.953125-13.144531 7.335937-1.734375.414063-3.503906.679688-5.289062.789063l-20.6875-20.683594c-2.71875-2.730469-6.304688-4.429687-10.140626-4.808594-.1875-1.230469-.296874-2.472656-.328124-3.71875.015624-8.042969 3.332031-15.726562 9.175781-21.25zm-111.75 159.988282c7.636719-13.277344 24.207031-18.429688 38.023437-11.832032 13.820313 6.601563 20.226563 22.726563 14.703125 37.011719l-61.371093-.1875zm-45.476563 141.847656c-.5625.621094-1.492187.753906-2.203125.308594-.714843-.441407-1.007812-1.332032-.699219-2.113282l10.785157-31.191406h20.277343zm42.488282-49.78125h-28.816407l5.800781-16.789063h37.335938zm28.648437-33.574219h-45.871094l5.773438-16.710937 54.214843.167968zm53.953125-98.515625c-2.03125 2.039062-4.695312 3.324219-7.554688 3.636719-.246093 0-.4375.167969-.679687.21875-.558594.113281-1.101563.289062-1.621094.519531-.484375.191406-.945312.425781-1.386719.703125-.429687.300781-.828124.640625-1.191406 1.015625-.410156.394531-.78125.832031-1.097656 1.300781-.136719.203125-.34375.320313-.460938.539063l-6.867187 12.457031-14.753906-8.109375 8.550781-15.570312c.050781-.089844 0-.191407.085938-.285157.242187-.554687.425781-1.132812.542968-1.730469.152344-.457031.265625-.929687.34375-1.410156-.066406-1.085937-.207031-2.167968-.417968-3.238281 0-.101563 0-.191406 0-.292969-1.722657-4.652344-.609376-9.878906 2.851562-13.429687 1.792969-1.765625 4.085938-2.941407 6.566406-3.359375 2.351563-.511719 4.804688-.308594 7.042969.589844 1.574219.621093 3.003906 1.5625 4.195313 2.769531l5.925781 6c.898437.898437 1.660156 1.925781 2.257812 3.046875.410157.84375.734375 1.726562.964844 2.636718 1.167969 4.300782-.09375 8.898438-3.296875 11.992188zm36.929688-22.46875c-5.707032-5.441406-14.390626-6.289062-21.042969-2.054688-1.121094-1.816406-2.4375-3.507812-3.929688-5.035156l-5.875-6.003906c-.773437-.671875-1.582031-1.308594-2.425781-1.894531 4.105469-6.589844 3.113281-15.140625-2.390625-20.617188l20.296875-20.261719 34.972656 35.003907v.679687.492188zm2.820312 112.589844c-9.273438 0-16.789062-7.515625-16.789062-16.785156 0-9.273438 7.515624-16.789063 16.789062-16.789063 9.269531 0 16.785156 7.515625 16.785156 16.789063 0 9.269531-7.515625 16.785156-16.785156 16.785156zm41.964844 125.902344h-83.933594c0-23.175782 18.789062-41.964844 41.96875-41.964844 23.175781 0 41.964844 18.789062 41.964844 41.964844zm-41.964844-58.753907c-8.613281.007813-17.121094 1.925781-24.902344 5.617188 1.363282-12.726563 12.101563-22.378907 24.902344-22.378907 12.796875 0 23.539062 9.652344 24.902344 22.378907-7.785156-3.691407-16.289063-5.609375-24.902344-5.617188zm0-33.574219c-2.820312-.003906-5.632812.277344-8.394531.839844v-18.816406c5.484375 1.585938 11.304687 1.585938 16.789062 0v18.816406c-2.765625-.5625-5.574219-.84375-8.394531-.839844zm151.082031-50.359374c0 9.269531-7.515625 16.785156-16.789062 16.785156-9.269531 0-16.785157-7.515625-16.785157-16.785156 0-9.273438 7.515626-16.789063 16.785157-16.789063 9.273437 0 16.789062 7.515625 16.789062 16.789063zm25.179688 142.6875h-83.933594c0-23.175782 18.789063-41.964844 41.964844-41.964844 23.179687 0 41.96875 18.789062 41.96875 41.964844zm-41.96875-58.753907c-8.613281.007813-17.117188 1.925781-24.902344 5.617188 1.363281-12.726563 12.105469-22.378907 24.902344-22.378907 12.800781 0 23.539062 9.652344 24.90625 22.378907-7.785157-3.691407-16.289063-5.609375-24.90625-5.617188zm0-33.574219c-2.816407-.003906-5.628907.277344-8.390625.839844v-18.816406c5.480468 1.585938 11.304687 1.585938 16.785156 0v18.816406c-2.761719-.5625-5.574219-.84375-8.394531-.839844zm-.132813-83.933593c-15.21875.101562-28.460937 10.441406-32.246094 25.179687h-17.980468c-2.226563 0-4.359375.886719-5.933594 2.460938l-5.933594 5.933594h-9.839844l-5.933593-5.933594c-1.574219-1.574219-3.707031-2.460938-5.933594-2.460938h-17.976563c-3.816406-14.777344-17.121093-25.121094-32.382812-25.179687 1.203125-1.585938 2.515625-3.089844 3.917969-4.5 5.679687-5.726563 12.917969-9.65625 20.816406-11.296875 2.519531 9.738281 8.175781 15.796875 15.359375 15.796875h1.871094c0 4.636719 3.757812 8.394531 8.394531 8.394531s8.394531-3.757812 8.394531-8.394531h16.785156c0 4.636719 3.757813 8.394531 8.394532 8.394531 4.636718 0 8.394531-3.757812 8.394531-8.394531h1.847656c7.183594 0 12.839844-6.050781 15.359375-15.804688 9.847656 2.117188 18.597656 7.730469 24.625 15.804688zm3.625-62.269531-20.277344-20.261719 35.636719-35.589844 20.246094 20.253906c-5.472656 5.496094-6.46875 14.023438-2.410156 20.628907-.769531.640624-1.59375 1.175781-2.316407 1.898437l-5.875 5.875c-1.5 1.546875-2.828124 3.246094-3.960937 5.078125-6.683594-4.148438-15.324219-3.273438-21.042969 2.132812zm33.71875 10.144531c.195313-.734375.460938-1.449219.789063-2.140625.621093-1.222656 1.433593-2.339844 2.40625-3.304688l5.875-5.917968c1.191406-1.214844 2.621093-2.167969 4.199219-2.804688 2.332031-1.007812 4.941406-1.195312 7.394531-.527344 2.355469.453125 4.519531 1.597656 6.21875 3.289063 3.5 3.5625 4.628906 8.824219 2.894531 13.507812 0 .097657 0 .191407-.039062.292969-.210938 1.070312-.351563 2.152344-.421876 3.238281.214844 1.0625.496094 2.113281.839844 3.140625.050782.089844.042969.191406.09375.285156l8.550782 15.570313-14.761719 8.105469-6.859375-12.453125c-.125-.21875-.328125-.34375-.460938-.546875-.316406-.464844-.683594-.894532-1.089844-1.285156-.367187-.378907-.773437-.722657-1.210937-1.023438-.433594-.285156-.898437-.519531-1.382813-.703125-.519531-.230469-1.058593-.40625-1.613281-.523437-.242187-.046876-.4375-.183594-.679687-.214844-2.890625-.3125-5.582032-1.617188-7.621094-3.6875-3.234375-3.199219-4.433594-7.921875-3.121094-12.277344zm97.203125 94.167969 5.757813 16.710937h-45.863282l-14.117187-16.542969zm-25.777343 33.496093h37.34375l5.800781 16.789063h-28.816407zm58.941406 66.941407c-.695313.367187-1.546875.230468-2.089844-.328126l-28.195312-33.039062h20.289062l10.800781 31.273438c.277344.800781-.0625 1.683593-.804687 2.09375zm0 0"/></svg>