<svg height="504pt" viewBox="-92 0 504 504.18571" width="504pt" xmlns="http://www.w3.org/2000/svg"><path d="m52.679688 329.191406-5.035157 18.464844c-5.871093 21.425781-7.128906 43.855469-3.695312 65.804688v.082031l-32.230469 10.660156v-.082031c-5.292969-28.328125-4.089844-57.484375 3.523438-85.277344l10.074218-36.679688 27.363282-1.839843zm0 0" fill="#4caf50"/><path d="m267.71875 329.191406 5.035156 18.464844c5.867188 21.425781 7.128906 43.855469 3.695313 65.804688v.082031l32.230469 10.660156v-.082031c5.292968-28.328125 4.085937-57.484375-3.527344-85.277344l-10.070313-36.679688-27.363281-3.667968zm0 0" fill="#4caf50"/><path d="m311.28125 92.328125c0 9.269531-7.515625 16.785156-16.789062 16.785156-9.269532 0-16.785157-7.515625-16.785157-16.785156s7.515625-16.789063 16.785157-16.789063c9.273437 0 16.789062 7.519532 16.789062 16.789063zm0 0" fill="#8bc34a"/><path d="m42.691406 92.328125c0 9.269531-7.515625 16.785156-16.789062 16.785156-9.269532 0-16.785156-7.515625-16.785156-16.785156s7.515624-16.789063 16.785156-16.789063c9.273437 0 16.789062 7.519532 16.789062 16.789063zm0 0" fill="#8bc34a"/><path d="m76.265625 83.933594h167.867187v50.363281h-167.867187zm0 0" fill="#f57c00"/><path d="m76.265625 83.933594h146.882813v50.363281h-146.882813zm0 0" fill="#fec108"/><path d="m269.3125 142.6875c0 32.449219-26.304688 58.753906-58.753906 58.753906h-100.71875c-32.449219 0-58.753906-26.304687-58.753906-58.753906 0-4.632812 3.757812-8.390625 8.390624-8.390625h201.445313c4.632813 0 8.390625 3.757813 8.390625 8.390625zm0 0" fill="#558b30"/><path d="m248.328125 142.6875c0 32.449219-26.304687 58.753906-58.753906 58.753906h-79.734375c-32.449219 0-58.753906-26.304687-58.753906-58.753906 0-4.632812 3.757812-8.390625 8.390624-8.390625h180.460938c4.632812 0 8.390625 3.757813 8.390625 8.390625zm0 0" fill="#8bc34a"/><path d="m269.3125 268.589844v41.96875c0 60.261718-48.851562 109.113281-109.113281 109.113281-4.207031.003906-8.414063-.246094-12.589844-.753906-55.011719-6.390625-96.511719-52.980469-96.523437-108.359375v-41.96875zm0 0" fill="#ff9801"/><path d="m244.132812 268.589844v41.96875c-.011718 55.378906-41.511718 101.96875-96.523437 108.359375-55.011719-6.390625-96.511719-52.980469-96.523437-108.359375v-41.96875zm0 0" fill="#ffb301"/><path d="m235.738281 302.164062v8.394532c-.0625 41.691406-33.847656 75.476562-75.539062 75.539062-8.464844.007813-16.871094-1.441406-24.84375-4.28125h-.085938c-30.285156-10.605468-50.574219-39.171875-50.613281-71.257812v-8.394532zm0 0" fill="#f57c00"/><path d="m214.757812 302.164062v4.195313c-.066406 41.695313-33.847656 75.476563-75.542968 75.542969-1.34375 0-2.601563 0-3.859375-.085938h-.085938c-30.285156-10.605468-50.574219-39.171875-50.613281-71.257812v-8.394532zm0 0" fill="#ff9801"/><path d="m269.3125 268.589844h-218.226562l20.140624-26.859375c3.183594-4.214844 8.152344-6.695313 13.429688-6.714844h151.082031c5.28125.019531 10.25 2.5 13.429688 6.714844zm0 0" fill="#f57c00"/><path d="m244.132812 268.589844h-193.046874l20.140624-26.859375c3.183594-4.214844 8.152344-6.695313 13.429688-6.714844h125.902344c5.28125.019531 10.25 2.5 13.429687 6.714844zm0 0" fill="#ff9801"/><path d="m193.773438 470.03125c0 18.550781-15.023438 25.183594-33.574219 25.183594-3.515625.027344-7.027344-.253906-10.492188-.839844-13.429687-2.265625-23.082031-9.484375-23.082031-24.34375 0-14.855469 9.652344-16.703125 23.082031-16.871094 3.273438 0 6.796875.085938 10.492188.085938 18.550781 0 33.574219-1.761719 33.574219 16.785156zm0 0" fill="#2e7d32"/><path d="m172.789062 470.03125c0 14.859375-9.652343 22.078125-23.082031 24.34375-13.429687-2.265625-23.082031-9.484375-23.082031-24.34375 0-14.855469 9.652344-16.703125 23.082031-16.871094 13.429688.167969 23.082031 1.933594 23.082031 16.871094zm0 0" fill="#4caf50"/><path d="m143.410156 201.441406h33.574219v33.574219h-33.574219zm0 0" fill="#4c8056"/><path d="m51.085938 302.164062h-33.574219c-4.636719 0-8.394531-3.757812-8.394531-8.394531v-8.390625c0-18.542968 15.03125-33.574218 33.574218-33.574218h20.984375zm0 0" fill="#f57c00"/><path d="m256.722656 251.804688h20.984375c18.542969 0 33.574219 15.03125 33.574219 33.574218v8.390625c0 4.636719-3.757812 8.394531-8.394531 8.394531h-33.574219zm0 0" fill="#f57c00"/><path d="m304.480469 454.253906c-9.820313 9.792969-25.71875 9.777344-35.519531-.035156-9.804688-9.808594-9.804688-25.710938 0-35.519531 9.800781-9.8125 25.699218-9.828125 35.519531-.035157 4.742187 4.710938 7.40625 11.113282 7.40625 17.796876 0 6.679687-2.664063 13.085937-7.40625 17.792968zm0 0" fill="#ff9801"/><path d="m48.480469 454.253906c-9.820313 9.792969-25.71875 9.777344-35.519531-.035156-9.804688-9.808594-9.804688-25.710938 0-35.519531 9.800781-9.8125 25.699218-9.828125 35.519531-.035157 4.742187 4.710938 7.40625 11.113282 7.40625 17.796876 0 6.679687-2.664063 13.085937-7.40625 17.792968zm0 0" fill="#ff9801"/><path d="m287.695312 454.253906c-2.660156 2.628906-5.871093 4.632813-9.402343 5.875-10.0625-3.515625-16.804688-13.007812-16.804688-23.667968 0-10.664063 6.742188-20.15625 16.804688-23.671876 8.160156 2.847657 14.277343 9.699219 16.191406 18.128907 1.910156 8.425781-.65625 17.246093-6.789063 23.335937zm0 0" fill="#ffb301"/><path d="m35.890625 454.253906c-2.660156 2.628906-5.871094 4.632813-9.398437 5.875-10.066407-3.515625-16.804688-13.007812-16.804688-23.667968 0-10.664063 6.738281-20.15625 16.804688-23.671876 8.160156 2.847657 14.277343 9.699219 16.1875 18.128907 1.910156 8.425781-.652344 17.246093-6.789063 23.335937zm0 0" fill="#ffb301"/><path d="m244.132812 83.933594h-167.867187c0-38.523438 32.0625-70.253906 73.441406-74.953125 3.480469-.40625 6.984375-.601563 10.492188-.585938 46.332031 0 83.933593 33.824219 83.933593 75.539063zm0 0" fill="#2e7d32"/><path d="m223.148438 83.933594h-146.882813c0-38.523438 32.0625-70.253906 73.441406-74.953125 41.378907 4.699219 73.441407 36.429687 73.441407 74.953125zm0 0" fill="#4caf50"/><path d="m168.59375 167.867188c0 4.636718-3.757812 8.394531-8.394531 8.394531s-8.394531-3.757813-8.394531-8.394531c0-4.632813 3.757812-8.390626 8.394531-8.390626s8.394531 3.757813 8.394531 8.390626zm0 0"/><path d="m135.019531 167.867188c0 4.636718-3.757812 8.394531-8.394531 8.394531s-8.394531-3.757813-8.394531-8.394531c0-4.632813 3.757812-8.390626 8.394531-8.390626s8.394531 3.757813 8.394531 8.390626zm0 0"/><path d="m202.167969 167.867188c0 4.636718-3.761719 8.394531-8.394531 8.394531-4.636719 0-8.394532-3.757813-8.394532-8.394531 0-4.632813 3.757813-8.390626 8.394532-8.390626 4.632812 0 8.394531 3.757813 8.394531 8.390626zm0 0"/><path d="m235.738281 293.769531h-151.082031c-4.632812 0-8.390625 3.757813-8.390625 8.394531v8.394532c0 46.355468 37.578125 83.933594 83.933594 83.933594s83.933593-37.578126 83.933593-83.933594v-8.394532c0-4.636718-3.757812-8.394531-8.394531-8.394531zm-75.539062 83.933594c-37.066407-.039063-67.105469-30.078125-67.148438-67.144531h134.296875c-.042968 37.066406-30.082031 67.105468-67.148437 67.144531zm0 0"/><path d="m164.570312 444.851562h-8.746093c-12.167969-.058593-23.683594-.175781-31.15625 7.226563-4.496094 4.859375-6.820313 11.34375-6.4375 17.953125 0 21.027344 15.6875 33.574219 41.96875 33.574219s41.96875-12.546875 41.96875-33.574219c.390625-6.617188-1.933594-13.113281-6.441407-17.976562-7.46875-7.402344-18.96875-7.292969-31.15625-7.203126zm20.808594 25.179688c0 4.15625 0 16.789062-25.179687 16.789062-25.179688 0-25.179688-12.632812-25.179688-16.789062-.207031-2.128906.316407-4.261719 1.476563-6.058594 4.839844-2.191406 10.191406-2.996094 15.460937-2.332031h12.75c7.789063-.058594 16.683594-.136719 19.195313 2.355469 1.15625 1.789062 1.675781 3.917968 1.476562 6.035156zm0 0"/><path d="m313.246094 336.578125-7.160156-26.019531h5.195312c4.636719 0 8.394531-3.757813 8.394531-8.394532v-16.785156c-.027343-23.167968-18.800781-41.941406-41.96875-41.96875h-16.785156l-5.039063-6.714844c-4.765624-6.324218-12.222656-10.050781-20.144531-10.074218h-50.359375v-16.785156h25.179688c37.066406-.042969 67.105468-30.082032 67.148437-67.148438 0-9.269531-7.515625-16.785156-16.785156-16.785156h-8.394531v-25.179688h18.332031c4.085937 11.5625 15.910156 18.496094 27.996094 16.421875 12.089843-2.074219 20.921875-12.554687 20.921875-24.816406 0-12.265625-8.832032-22.742187-20.921875-24.816406-12.085938-2.074219-23.910157 4.859375-27.996094 16.421875h-18.332031c0-46.28125-41.421875-83.933594-92.328125-83.933594s-92.328125 37.652344-92.328125 83.933594h-18.332032c-4.085937-11.5625-15.910156-18.496094-27.996093-16.421875-12.089844 2.074219-20.925781 12.550781-20.925781 24.816406 0 12.261719 8.835937 22.742187 20.925781 24.816406 12.085937 2.074219 23.910156-4.859375 27.996093-16.421875h18.332032v25.179688h-8.394532c-9.269531 0-16.785156 7.515625-16.785156 16.785156.039063 37.066406 30.078125 67.105469 67.148438 67.148438h25.179687v16.785156h-50.363281c-7.917969.023437-15.375 3.75-20.144531 10.074218l-5.035157 6.714844h-16.785156c-23.167968.027344-41.941406 18.800782-41.96875 41.96875v16.785156c0 4.636719 3.757813 8.394532 8.394532 8.394532h5.195312l-7.167969 26.078125c-7.714843 28.109375-9.121093 57.578125-4.113281 86.292969-4.492188 10.046874-3.738281 21.660156 2.011719 31.042968 5.753906 9.382813 15.761719 15.320313 26.753906 15.875l5.546875 27.625c.796875 3.90625 4.238281 6.714844 8.226562 6.714844h23.734376c4.636718 0 8.394531-3.757812 8.394531-8.394531s-3.757813-8.394531-8.394531-8.394531h-16.851563l-4.199219-20.832032c6.878906-3.160156 12.398438-8.679687 15.554688-15.5625l20.839844 4.199219v16.859375c0 4.636719 3.757812 8.394531 8.394531 8.394531s8.394531-3.757812 8.394531-8.394531v-23.734375c0-3.988281-2.808594-7.429687-6.714844-8.226563l-27.617187-5.546874c-.40625-8.21875-3.84375-15.996094-9.652344-21.824219-1.691406-1.671875-3.570313-3.144531-5.597656-4.390625-2.117188-16.210938-1.519531-32.664063 1.761719-48.679688 19.117187 41.664063 60.757812 68.371094 106.597656 68.371094s87.480468-26.707031 106.597656-68.371094c3.285156 16.015625 3.878906 32.46875 1.761719 48.679688-2.027344 1.246094-3.90625 2.71875-5.597657 4.390625-5.804687 5.828125-9.246093 13.605469-9.652343 21.824219l-27.613281 5.546874c-3.910157.796876-6.71875 4.238282-6.714844 8.226563v23.734375c0 4.636719 3.757812 8.394531 8.390625 8.394531 4.636719 0 8.394531-3.757812 8.394531-8.394531v-16.859375l20.839844-4.199219c3.160156 6.882813 8.675781 12.402344 15.554687 15.5625l-4.195312 20.832032h-16.890625c-4.632813 0-8.390625 3.757812-8.390625 8.394531s3.757812 8.394531 8.390625 8.394531h23.738281c3.988281 0 7.425781-2.808594 8.226563-6.714844l5.546874-27.625c10.992188-.554687 21-6.5 26.753907-15.882812 5.75-9.382813 6.503906-20.996094 2.011719-31.042969 5.003906-28.734375 3.597656-58.21875-4.121094-86.34375zm-18.753906-252.644531c4.636718 0 8.394531 3.757812 8.394531 8.394531s-3.757813 8.394531-8.394531 8.394531c-4.632813 0-8.390626-3.757812-8.390626-8.394531s3.757813-8.394531 8.390626-8.394531zm-268.589844 16.789062c-4.632813 0-8.390625-3.757812-8.390625-8.394531s3.757812-8.394531 8.390625-8.394531c4.636718 0 8.394531 3.757812 8.394531 8.394531s-3.757813 8.394531-8.394531 8.394531zm251.804687 159.472656c13.90625 0 25.179688 11.273438 25.179688 25.183594v8.390625h-25.179688v-25.179687c0-.101563-.050781-.175782-.058593-.277344-.015626-.980469-.210938-1.949219-.578126-2.863281-.066406-.183594-.195312-.324219-.277343-.5-.210938-.488281-.464844-.957031-.765625-1.394531l-2.515625-3.359376zm-112.320312-134.292968 16.785156-33.574219h53.566406v33.574219zm-41.96875 0 16.789062-33.574219h23.199219l-16.789062 33.574219zm36.78125-109.117188c38.449219 0 70.210937 25.6875 74.886719 58.753906h-149.773438c4.675781-33.066406 36.4375-58.753906 74.886719-58.753906zm-75.542969 75.542969h36.78125l-16.785156 33.574219h-19.996094zm-25.179688 50.359375h201.445313c-.03125 27.804688-22.558594 50.332031-50.363281 50.363281h-100.71875c-27.804688-.03125-50.335938-22.558593-50.363282-50.363281zm92.328126 67.148438h16.789062v16.785156h-16.789062zm-67.148438 33.574218h151.082031c2.640625.007813 5.125 1.25 6.714844 3.355469l10.074219 13.429687h-184.65625l10.070312-13.429687c1.59375-2.105469 4.078125-3.34375 6.714844-3.355469zm-67.144531 41.96875c0-13.910156 11.273437-25.183594 25.179687-25.183594h4.195313l-2.515625 3.359376c-.300782.4375-.554688.90625-.765625 1.394531-.082031.175781-.210938.316406-.277344.5-.367187.914062-.5625 1.882812-.578125 2.863281 0 .101562-.058594.175781-.058594.277344v25.179687h-25.179687zm-.597657 151.082032c0-7.601563 5.101563-14.253907 12.441407-16.21875 7.339843-1.96875 15.085937 1.238281 18.882812 7.820312 3.800781 6.582031 2.707031 14.894531-2.667969 20.265625-6.640624 6.34375-17.097656 6.34375-23.738281 0-3.160156-3.140625-4.929687-7.414063-4.917969-11.867187zm22.664063-91.011719c-5.101563 18.820312-6.824219 38.398437-5.078125 57.820312-5.785156-.109375-11.503906 1.234375-16.636719 3.90625-2.242187-22.1875-.375-44.597656 5.503907-66.109375l8.394531-30.507812h10.929687c.042969 5.976562.546875 11.941406 1.5 17.84375zm120.621094 65.828125c-55.601563-.058594-100.660157-45.117188-100.722657-100.71875v-33.574219h201.445313v33.574219c-.0625 55.601562-45.121094 100.660156-100.722656 100.71875zm120.65625-65.828125-4.652344-17.046875c.957031-5.902344 1.460937-11.867188 1.503906-17.84375h10.96875l8.394531 30.492187c5.886719 21.515625 7.757813 43.929688 5.515626 66.125-5.132813-2.671875-10.851563-4.015625-16.636719-3.90625 1.738281-19.421875.011719-39-5.09375-57.820312zm17.710937 102.878906c-6.640625 6.34375-17.097656 6.34375-23.738281 0-4.800781-4.800781-6.238281-12.023437-3.640625-18.296875s8.71875-10.363281 15.507812-10.363281c6.792969 0 12.914063 4.089843 15.511719 10.363281 2.597657 6.273438 1.160157 13.496094-3.640625 18.296875zm0 0"/></svg>