<svg height="512pt" viewBox="-26 0 512 512.10604" width="512pt" xmlns="http://www.w3.org/2000/svg"><path d="m375.519531 187.839844 21.25 70.828125-18.519531-10.753907-6.910156-2.902343-37.804688-16.042969c5.035156-12.714844-.683594-26.621094-.683594-41.128906 0-14.507813 5.71875-28.417969.683594-41.132813l37.804688-16.039062 6.910156-2.902344 18.519531-10.753906zm0 0" fill="#424242"/><path d="m139.25 191.039062c0 14.507813-16.914062 25.214844-11.878906 37.929688l-44.714844 18.945312-18.519531 10.753907 21.25-70.828125-21.25-70.828125 18.519531 10.753906 44.714844 18.941406c-5.035156 12.714844 11.878906 29.824219 11.878906 44.332031zm0 0" fill="#424242"/><path d="m341.386719 187.839844c0 14.082031-2.664063 28.039062-7.851563 41.128906l-13.992187 17.238281-5.207031 6.398438-22.441407 27.566406c-18.179687 12.164063-39.566406 18.640625-61.441406 18.601563-2.816406 0-5.632813-.085938-8.363281-.34375l-4.4375-.511719c-17.410156-1.898438-34.097656-7.988281-48.640625-17.746094l-22.441407-27.566406-5.207031-6.398438-13.992187-17.238281c-10.46875-26.421875-10.46875-55.839844 0-82.261719l13.992187-17.234375 5.207031-6.402344 22.441407-27.5625c3.550781-2.378906 7.257812-4.515624 11.09375-6.398437 5.1875-2.761719 10.613281-5.046875 16.214843-6.828125 6.792969-2.246094 13.796876-3.789062 20.90625-4.605469h.085938c1.449219-.171875 2.984375-.34375 4.523438-.429687h.082031c2.816406-.253906 5.632812-.339844 8.535156-.339844 21.875-.042969 43.261719 6.433594 61.441406 18.601562l22.441407 27.5625 5.207031 6.402344 13.992187 17.234375c5.1875 13.09375 7.851563 27.050781 7.851563 41.132813zm0 0" fill="#f57c00"/><path d="m324.320312 187.839844c0 14.082031-2.664062 28.039062-7.851562 41.128906l-13.996094 17.238281-5.203125 6.398438-22.441406 27.566406c-15.722656 10.503906-33.882813 16.792969-52.738281 18.257813l-4.4375-.511719c-17.410156-1.898438-34.097656-7.988281-48.640625-17.746094l-22.441407-27.566406-5.207031-6.398438-13.992187-17.238281c-10.46875-26.421875-10.46875-55.839844 0-82.261719l13.992187-17.234375 5.207031-6.402344 22.441407-27.5625c3.550781-2.378906 7.257812-4.515624 11.09375-6.398437 5.1875-2.761719 10.613281-5.046875 16.214843-6.828125 6.792969-2.246094 13.796876-3.789062 20.90625-4.605469h.085938c1.449219-.171875 2.984375-.34375 4.523438-.429687h.082031c18.925781 1.386718 37.160156 7.679687 52.910156 18.261718l22.441406 27.5625 5.203125 6.402344 13.996094 17.234375c5.1875 13.09375 7.851562 27.050781 7.851562 41.132813zm0 0" fill="#ff9801"/><path d="m307.253906 187.839844c-.007812 11.457031-2.570312 22.769531-7.511718 33.109375l-36.179688 36.179687c-10.339844 4.9375-21.652344 7.503906-33.109375 7.511719-2.851563 0-5.703125-.171875-8.535156-.511719-8.523438-.949218-16.828125-3.3125-24.574219-7l-36.179688-36.179687c-10.015624-20.9375-10.015624-45.28125 0-66.21875l36.179688-36.183594c7.746094-3.683594 16.050781-6.050781 24.574219-6.996094 2.832031-.34375 5.683593-.511719 8.535156-.511719 11.457031.007813 22.769531 2.570313 33.109375 7.507813l36.179688 36.183594c4.941406 10.339843 7.503906 21.652343 7.511718 33.109375zm0 0" fill="#fec108"/><path d="m290.1875 187.839844c-.007812 11.457031-2.574219 22.769531-7.511719 33.109375l-36.179687 36.179687c-7.746094 3.6875-16.050782 6.050782-24.578125 7-8.523438-.949218-16.828125-3.3125-24.574219-7l-36.179688-36.179687c-10.015624-20.9375-10.015624-45.28125 0-66.21875l36.179688-36.183594c7.746094-3.683594 16.050781-6.050781 24.574219-6.996094 8.527343.945313 16.832031 3.3125 24.578125 6.996094l36.179687 36.183594c4.9375 10.339843 7.503907 21.652343 7.511719 33.109375zm0 0" fill="#ffeb3a"/><path d="m218.421875 163.691406-12.117187 12.117188-5.972657-2.5625-36.269531-15.613282-12.542969-12.546874-23.382812-35.925782 23.894531-23.890625 16.980469 10.238281 13.144531 7.851563 18.089844 18.089844zm0 0" fill="#37474f"/><path d="m218.421875 211.988281-18.175781 42.242188-18.089844 18.089843-13.144531 7.851563-16.980469 10.238281-23.894531-23.894531 23.382812-35.925781 9.644531-9.640625 2.898438-2.902344 36.269531-15.617187 5.972657-2.558594zm0 0" fill="#37474f"/><path d="m248.542969 205.929688c-4.796875 4.800781-11.300781 7.503906-18.089844 7.507812-2.914063.003906-5.804687-.515625-8.535156-1.535156-3.597657-1.238282-6.863281-3.28125-9.554688-5.972656-9.984375-9.996094-9.984375-26.1875 0-36.179688 2.691407-2.691406 5.957031-4.734375 9.554688-5.976562 2.730469-1.015626 5.621093-1.535157 8.535156-1.535157 10.347656.011719 19.671875 6.246094 23.628906 15.808594 3.960938 9.558594 1.773438 20.5625-5.539062 27.882813zm0 0" fill="#fdd834"/><path d="m231.476562 205.929688c-2.691406 2.691406-5.960937 4.734374-9.558593 5.972656-3.597657-1.238282-6.863281-3.28125-9.554688-5.972656-9.984375-9.996094-9.984375-26.1875 0-36.179688 2.691407-2.691406 5.957031-4.734375 9.554688-5.976562 3.597656 1.242187 6.867187 3.285156 9.558593 5.976562 9.984376 9.992188 9.984376 26.183594 0 36.179688zm0 0" fill="#ffeb3a"/><path d="m332.769531 109.160156-23.382812 35.925782-12.542969 12.546874-42.242188 18.175782-12.117187-12.117188.511719-1.195312 17.664062-41.046875 18.089844-18.089844 13.144531-7.851563 16.980469-10.238281zm0 0" fill="#37474f"/><path d="m332.769531 266.515625-23.894531 23.894531-15.957031-9.644531-1.023438-.59375-13.144531-7.851563-18.089844-18.089843-18.175781-42.242188 12.117187-12.117187 27.222657 11.691406 15.019531 6.484375 2.898438 2.902344 9.644531 9.640625zm0 0" fill="#37474f"/><g fill="#607d8b"><path d="m201.355469 172.222656-1.023438 1.023438-36.269531-15.613282-12.542969-12.546874-23.382812-35.925782 12.117187-12.117187 11.691406 7 13.140626 7.851562 15.191406 15.1875 2.902344 2.902344zm0 0"/><path d="m201.355469 203.457031-18.175781 42.238281-18.09375 18.089844-13.140626 7.851563-11.691406 6.996093-12.117187-12.117187 23.382812-35.925781 9.644531-9.640625 2.898438-2.902344 36.269531-15.617187zm0 0"/><path d="m332.769531 102.335938-36.183593 29.953124-12.542969 12.542969-41.046875 17.664063 17.664062-41.046875 18.089844-18.089844 13.144531-7.851563 16.980469-10.238281zm0 0"/><path d="m315.699219 257.984375-22.78125 22.78125-1.023438-.59375-13.144531-7.851563-18.089844-18.089843-18.175781-42.242188 12.117187-12.117187 27.222657 11.691406 10.496093 10.496094zm0 0"/></g><path d="m378.25 127.765625-44.714844 18.941406-11.777344 4.949219c-3.96875 1.636719-8.539062.066406-10.664062-3.667969l-1.707031-2.902343-3.585938-6.226563c-2.117187-3.707031-1.167969-8.410156 2.21875-11.007813l6.316407-4.78125 18.433593-13.910156 24.148438-18.34375zm0 0" fill="#cfd8dc"/><path d="m400.351562 114.964844-3.582031 2.046875-18.519531 10.753906-21.332031-36.949219 22.101562-12.800781c4.101563-2.324219 9.3125-.917969 11.691407 3.15625l12.796874 22.1875c1.140626 1.953125 1.449219 4.28125.855469 6.464844-.59375 2.183593-2.039062 4.035156-4.011719 5.140625zm0 0" fill="#9e9e9e"/><path d="m378.25 247.914062-21.332031 36.949219-24.148438-18.347656-18.433593-13.910156-6.316407-4.777344c-3.386719-2.597656-4.335937-7.300781-2.21875-11.007813l3.585938-6.230468 1.707031-2.898438c2.125-3.734375 6.695312-5.308594 10.664062-3.671875l11.777344 4.949219zm0 0" fill="#cfd8dc"/><path d="m403.507812 272.320312-12.796874 22.1875c-2.378907 4.070313-7.589844 5.480469-11.691407 3.15625l-22.101562-12.800781 21.332031-36.949219 18.519531 10.753907 3.582031 2.046875c1.972657 1.105468 3.417969 2.957031 4.011719 5.140625.59375 2.179687.285157 4.511719-.855469 6.464843zm0 0" fill="#9e9e9e"/><path d="m204.851562 25.707031c0 9.425781-7.640624 17.066407-17.066406 17.066407-9.425781 0-17.066406-7.640626-17.066406-17.066407s7.640625-17.066406 17.066406-17.066406c9.425782 0 17.066406 7.640625 17.066406 17.066406zm0 0" fill="#f44335"/><path d="m256.054688 358.507812c0 14.136719-11.464844 25.597657-25.601563 25.597657-2.914063.019531-5.808594-.503907-8.535156-1.535157-10.222657-3.582031-17.066407-13.230468-17.066407-24.0625 0-10.835937 6.84375-20.484374 17.066407-24.066406 2.726562-1.03125 5.621093-1.554687 8.535156-1.535156 14.136719 0 25.601563 11.460938 25.601563 25.601562zm0 0" fill="#c52828"/><path d="m238.988281 358.507812c0-13.292968-7.644531-24.066406-17.070312-24.066406s-17.066407 10.773438-17.066407 24.066406c0 13.289063 7.640626 24.0625 17.066407 24.0625s17.070312-10.773437 17.070312-24.0625zm0 0" fill="#f44335"/><path d="m155.105469 138.859375-3.585938 6.226563-1.707031 2.902343c-2.125 3.734375-6.695312 5.304688-10.667969 3.667969l-11.773437-4.949219-44.714844-18.941406 21.332031-36.949219 24.148438 18.34375 18.433593 13.910156 6.316407 4.78125c3.386719 2.597657 4.335937 7.300782 2.21875 11.007813zm0 0" fill="#cfd8dc"/><path d="m103.988281 90.816406-21.332031 36.949219-18.519531-10.753906-3.582031-2.046875c-1.972657-1.105469-3.417969-2.957032-4.011719-5.140625-.59375-2.183594-.285157-4.511719.855469-6.464844l12.796874-22.1875c2.378907-4.074219 7.589844-5.480469 11.691407-3.15625zm0 0" fill="#9e9e9e"/><path d="m152.886719 247.828125-6.316407 4.777344-18.433593 13.910156-24.148438 18.347656-21.332031-36.949219 44.714844-18.945312 11.773437-4.949219c3.972657-1.636719 8.542969-.0625 10.667969 3.671875l1.707031 2.898438 3.585938 6.230468c2.117187 3.707032 1.167969 8.410157-2.21875 11.007813zm0 0" fill="#cfd8dc"/><path d="m103.988281 284.863281-22.101562 12.800781c-4.101563 2.324219-9.3125.914063-11.691407-3.15625l-12.796874-22.1875c-1.140626-1.953124-1.449219-4.285156-.855469-6.464843.59375-2.183594 2.039062-4.035157 4.011719-5.140625l3.582031-2.046875 18.519531-10.753907zm0 0" fill="#9e9e9e"/><path d="m403.945312 122.796875.699219-.398437c3.921875-2.261719 6.78125-5.988282 7.957031-10.363282 1.171876-4.371094.558594-9.03125-1.703124-12.949218l-12.800782-22.179688c-2.261718-3.921875-5.988281-6.785156-10.359375-7.957031-4.371093-1.171875-9.03125-.558594-12.953125 1.703125l-22.1875 12.796875c-.167968.097656-.273437.265625-.433594.378906-.164062.109375-.316406.109375-.453124.210937l-18.21875 13.789063-18.558594-18.59375c-2.773438-2.769531-7.078125-3.292969-10.4375-1.269531l-12.550782 7.535156c-28.742187-17.339844-63.460937-21.753906-95.625-12.160156v-23.605469c11.753907-4.15625 18.804688-16.175781 16.699219-28.464844-2.109375-12.289062-12.765625-21.269531-25.234375-21.269531s-23.121094 8.980469-25.230468 21.269531c-2.109376 12.289063 4.941406 24.308594 16.699218 28.464844v30.160156c-3.507812 1.703125-6.921875 3.582031-10.242187 5.605469l-12.550781-7.535156c-3.359376-2.023438-7.664063-1.5-10.4375 1.269531l-18.601563 18.605469-18.246094-13.792969c-.136719-.101563-.3125-.117187-.449219-.203125-.136718-.085938-.257812-.289062-.4375-.382812l-22.1875-12.800782c-8.15625-4.703125-18.582031-1.90625-23.292968 6.246094l-12.800782 22.1875c-4.714843 8.160156-1.917968 18.597656 6.246094 23.3125l.707032.410156 19.515624 65.023438-19.515624 65.039062-.699219.402344c-8.160157 4.710938-10.960938 15.140625-6.253907 23.304688l12.800782 22.1875c2.261718 3.921874 5.988281 6.78125 10.359375 7.957031 4.371093 1.171875 9.03125.558593 12.953125-1.703125l22.1875-12.800782c.144531-.074218.21875-.222656.347656-.304687.128906-.085937.375-.164063.539062-.28125l18.21875-13.792969 18.601563 18.605469c2.773437 2.769531 7.078125 3.292969 10.4375 1.269531l12.550781-7.535156c16.050782 9.726562 34.1875 15.488281 52.90625 16.8125v18.59375c-11.933594 3.121094-21.253906 12.445312-24.378906 24.378906h-42.308594c3.605469-10.191406 13.21875-17.023437 24.03125-17.066406 4.710938 0 8.53125-3.820312 8.53125-8.535156 0-4.710938-3.820312-8.53125-8.53125-8.53125-23.566406 0-42.667968 19.101562-42.667968 42.667968 0 23.5625 19.101562 42.664063 42.667968 42.664063 4.710938 0 8.53125-3.820313 8.53125-8.53125 0-4.714844-3.820312-8.535156-8.53125-8.535156-10.8125-.042969-20.425781-6.875-24.03125-17.066407h42.308594c3.832031 15.054688 17.386719 25.59375 32.921875 25.59375s29.089844-10.539062 32.921875-25.59375h42.308594c-3.605469 10.191407-13.21875 17.023438-24.03125 17.066407-4.710938 0-8.53125 3.820312-8.53125 8.535156 0 4.710937 3.820312 8.53125 8.53125 8.53125 23.566406 0 42.667968-19.101563 42.667968-42.664063 0-23.566406-19.101562-42.667968-42.667968-42.667968-4.710938 0-8.53125 3.820312-8.53125 8.53125 0 4.714844 3.820312 8.535156 8.53125 8.535156 10.8125.042969 20.425781 6.875 24.03125 17.066406h-42.308594c-3.121094-11.941406-12.449219-21.265625-24.386719-24.386718v-18.578126c18.734375-1.320312 36.886719-7.082031 52.957031-16.8125l12.527344 7.519532c3.355469 2.023437 7.660156 1.5 10.433594-1.273438l18.605469-18.601562 18.21875 13.789062c.160156.121094.363281.171875.535156.28125.171875.113282.207031.230469.351563.308594l22.1875 12.800781c8.15625 4.699219 18.582031 1.90625 23.292968-6.246093l12.800782-22.1875c4.714843-8.164063 1.917968-18.601563-6.246094-23.3125l-.707032-.410157-19.515624-65.023437zm-216.160156-105.625c4.714844 0 8.535156 3.820313 8.535156 8.535156 0 4.710938-3.820312 8.53125-8.535156 8.53125-4.710937 0-8.53125-3.820312-8.53125-8.53125 0-4.714843 3.820313-8.535156 8.53125-8.535156zm179.558594 173.117187 15.054688 50.175782c-.144532-.085938-.316407-.085938-.460938-.164063-.144531-.074219-.25-.210937-.402344-.28125l-37.375-15.761719c7.679688-23.671874 7.679688-49.164062 0-72.839843l37.375-15.761719c.09375 0 .164063-.132812.257813-.1875.203125-.070312.40625-.152344.605469-.246094l-15.054688 50.167969c-.476562 1.597656-.476562 3.300781 0 4.898437zm-13.019531 81.917969-41.097657-31.164062 5.265626-9.121094 47.539062 20.070313-5.871094 10.085937zm-41.097657-31.164062-3.5-2.003907zm-82.773437 15.0625c-6.90625-.023438-13.769531-1.101563-20.351563-3.199219l13.601563-31.574219c4.453125.898438 9.042969.898438 13.5 0l13.601563 31.574219c-6.582032 2.097656-13.445313 3.175781-20.351563 3.199219zm-123.871094 16.085937-6.9375-12.015625-4.734375-8.191406 47.546875-20.0625 5.265625 9.121094zm-13.019531-86.800781-15.054688-50.167969c.199219.09375.398438.175782.605469.246094.09375.054688.164063.148438.257813.1875l37.375 15.761719c-7.679688 23.675781-7.679688 49.167969 0 72.839843l-37.332032 15.761719c-.15625.070313-.25.214844-.402343.28125-.152344.070313-.316407.078125-.460938.164063l15.054688-50.175782c.464843-1.601562.449219-3.304687-.042969-4.898437zm13.019531-81.921875 41.140625 31.148438-5.265625 9.121093-47.539062-20.070312 5.828125-10.070313zm41.140625 31.148438 3.414063 1.996093zm-11.894531 81.570312-3.335937 1.40625c-5.917969-19.40625-5.917969-40.136719 0-59.542969l3.324218 1.40625c4.65625 1.984375 9.960938 1.753907 14.421875-.632812-6.847656 18.710937-6.847656 39.242187 0 57.953125-4.480469-2.324219-9.761719-2.53125-14.410156-.574219zm29.558594-8.011719c-4.265625-13.234375-4.265625-27.472656 0-40.707031l31.648437 13.65625c-.886718 4.4375-.886718 9.007812 0 13.445312zm65.066406-88.601562c6.90625.019531 13.769531 1.101562 20.351563 3.199219l-13.601563 31.574218c-4.457031-.898437-9.046875-.898437-13.5 0l-13.601563-31.574218c6.582032-2.097657 13.445313-3.179688 20.351563-3.199219zm12.058594 80.324219c-4.878907 4.886718-12.222657 6.351562-18.605469 3.710937-6.378906-2.640625-10.539062-8.863281-10.539062-15.769531s4.160156-13.132813 10.539062-15.769532c6.382812-2.640624 13.726562-1.175781 18.605469 3.710938 6.589843 6.6875 6.589843 17.429688 0 24.117188zm21.332031-18.773438 31.648438-13.65625c4.269531 13.234375 4.269531 27.472656 0 40.707031l-31.648438-13.65625c.890625-4.421875.898438-8.976562.027344-13.40625zm90.453125-77.65625 6.9375 12.015625 4.738281 8.191406-47.539062 20.0625-5.207032-9.105469zm-21.445313 84.371094c-.007812 10.089844-1.5 20.121094-4.4375 29.773437l-3.328124-1.410156c-4.65625-1.949219-9.933594-1.734375-14.417969.582031 6.84375-18.707031 6.84375-39.234375 0-57.941406 2.410156 1.273438 5.09375 1.953125 7.824219 1.980469 2.273437 0 4.519531-.460938 6.613281-1.351563l3.335937-1.40625c2.925782 9.652344 4.414063 19.6875 4.410156 29.773438zm50.46875-102.402344 12.800782 22.1875-3.195313 1.835938c-.152343.078124-.289062.171874-.441406.265624l-11.144531 6.433594-6.402344-11.09375-6.398438-11.09375zm-75.761718 10.589844 12.210937 12.214844-16.886719 12.796874c-6.886718 5.199219-8.808593 14.722657-4.480468 22.1875l.308594.519532-6.75 6.742187-35.414063 15.164063-3.933594-3.933594 15.242188-35.421875 16.210937-16.214844 11.75-7.046875.242188-.144531zm-77.105469-10.589844c15.433594-.007812 30.664063 3.492188 44.542969 10.242188l-.621094.367187c-.605469.359375-1.160156.796875-1.65625 1.296875l-11.1875 11.136719c-19.945312-8-42.210938-8-62.15625 0l-11.1875-11.179688c-.496094-.5-1.050781-.9375-1.65625-1.296875l-.621094-.324218c13.878906-6.75 29.109375-10.25 44.542969-10.242188zm-77.105469 10.589844 11.550782 6.929687.222656.136719 11.75 7.050781 16.214844 16.210938 15.179687 35.390625-3.933594 3.933594-35.414062-15.242188-6.730469-6.742188.304688-.519531c4.308593-7.453125 2.386718-16.949219-4.480469-22.144531l-16.894531-12.800781zm-75.761718-10.589844 14.78125 8.535156-6.402344 11.09375-6.398438 11.09375-11.09375-6.417968c-.152344-.101563-.3125-.195313-.476562-.28125l-3.175782-1.828126zm0 204.800781-12.800782-22.1875 4.269532-2.445312.167968-.105469 10.359375-5.972656 6.402344 11.09375 6.398437 11.09375zm75.761718-10.589843-12.214844-12.210938 16.890626-12.800781c6.886718-5.199219 8.808593-14.71875 4.480468-22.183594l-.316406-.472656 6.75-6.738281 35.410156-15.242188 3.9375 3.933594-15.242187 35.421875-16.214844 16.214843-12.398437 7.433594-.222657.132813zm94.171875 78.859374c0 9.425782-7.640625 17.066407-17.066406 17.066407s-17.066406-7.640625-17.066406-17.066407c0-9.425781 7.640625-17.070312 17.066406-17.070312s17.066406 7.644531 17.066406 17.070312zm-17.066406-68.269531c-15.433594.011719-30.664063-3.488281-44.542969-10.238281l.621094-.367188c.605469-.359374 1.160156-.796874 1.65625-1.296874l11.1875-11.179688c19.945312 8 42.210938 8 62.15625 0l11.1875 11.179688c.496094.5 1.050781.9375 1.65625 1.296874l.621094.367188c-13.878906 6.75-29.109375 10.25-44.542969 10.238281zm77.105469-10.589843-10.914063-6.542969-.210937-.128907-12.398438-7.441406-16.214844-16.214844-15.179687-35.386718 3.933594-3.933594 35.414062 15.242188 6.75 6.738281-.308593.523437c-4.304688 7.453125-2.382813 16.949219 4.480468 22.144532l16.894532 12.796874zm75.761718 10.589843-14.78125-8.53125 6.398438-11.09375 6.402344-11.09375 10.351562 5.972657c.085938.058593.179688.09375.273438.152343l4.15625 2.398438zm0 0"/><path d="m460.851562 384.105469c0-20.574219-36.972656-35.507813-109.898437-44.371094-3.085937-.492187-6.1875.742187-8.09375 3.214844-1.910156 2.472656-2.3125 5.789062-1.054687 8.644531 1.253906 2.859375 3.972656 4.804688 7.082031 5.070312 77.125 9.386719 94.472656 24.027344 94.898437 27.441407-1.5 11.589843-78.15625 34.132812-213.332031 34.132812s-211.832031-22.5625-213.332031-34.132812c.425781-3.414063 17.773437-18.074219 94.898437-27.476563 3.109375-.265625 5.828125-2.210937 7.082031-5.066406 1.257813-2.859375.851563-6.175781-1.054687-8.648438-1.90625-2.472656-5.007813-3.703124-8.09375-3.214843-72.925781 8.898437-109.8984375 23.832031-109.8984375 44.40625 0 30.566406 85.8164065 44.152343 162.1914065 48.980469-5.152344 3.296874-8.363282 8.90625-8.59375 15.019531 0 12.894531 14.507812 20.589843 32.222656 24.945312-4.105469 3.269531-6.53125 8.207031-6.621094 13.457031 0 17.59375 26.539063 25.597657 51.199219 25.597657s51.199219-8.003907 51.199219-25.597657c-.089844-5.25-2.515625-10.1875-6.621094-13.457031 17.757812-4.355469 32.222656-12.050781 32.222656-24.945312-.230468-6.113281-3.441406-11.722657-8.59375-15.019531 76.375-4.828126 162.191406-18.414063 162.191406-48.980469zm-196.480468 102.402343c-2.199219 2.789063-13.890625 8.53125-33.917969 8.53125s-31.71875-5.742187-33.921875-8.53125c2.203125-2.792968 13.894531-8.535156 33.921875-8.535156s31.71875 5.742188 33.917969 8.535156zm25.601562-38.402343c-3.132812 4.0625-23.277344 12.800781-59.519531 12.800781s-56.386719-8.738281-59.503906-12.800781c3.117187-4.0625 23.261719-12.800781 59.503906-12.800781s56.386719 8.738281 59.503906 12.800781zm0 0"/></svg>