<svg height="512pt" viewBox="0 0 512 512" width="512pt" xmlns="http://www.w3.org/2000/svg"><path d="m166.570312 93.847656c-7.339843 10.386719-12.90625 21.921875-16.46875 34.132813h-63.660156c3.980469-12.351563 10.105469-23.90625 18.09375-34.132813zm0 0" fill="#424242"/><path d="m166.570312 230.378906h-62.035156c-7.988281-10.226562-14.113281-21.78125-18.09375-34.132812h63.574219c3.648437 12.195312 9.238281 23.722656 16.554687 34.132812zm0 0" fill="#424242"/><path d="m145.066406 162.113281c-.019531 11.558594 1.648438 23.058594 4.949219 34.132813h-63.574219c-7.167968-22.191406-7.167968-46.074219 0-68.265625h63.660156c-3.371093 11.0625-5.070312 22.570312-5.035156 34.132812zm0 0" fill="#37474f"/><path d="m115.199219 162.113281c-.019531 11.558594 1.648437 23.058594 4.949219 34.132813h-33.707032c-7.167968-22.191406-7.167968-46.074219 0-68.265625h33.792969c-3.371094 11.0625-5.066406 22.570312-5.035156 34.132812zm0 0" fill="#607d8b"/><path d="m425.558594 127.980469h-63.660156c-3.5625-12.210938-9.128907-23.746094-16.46875-34.132813h62.035156c7.988281 10.226563 14.113281 21.78125 18.09375 34.132813zm0 0" fill="#424242"/><path d="m425.558594 196.246094c-3.980469 12.351562-10.105469 23.90625-18.09375 34.132812h-62.035156c7.316406-10.410156 12.90625-21.9375 16.554687-34.132812zm0 0" fill="#424242"/><g fill="#9e9e9e"><path d="m136.703125 93.847656c-7.339844 10.386719-12.90625 21.921875-16.46875 34.132813h-33.792969c3.980469-12.351563 10.105469-23.90625 18.09375-34.132813zm0 0"/><path d="m136.703125 230.378906h-32.167969c-7.988281-10.226562-14.113281-21.78125-18.09375-34.132812h33.707032c3.648437 12.195312 9.238281 23.722656 16.554687 34.132812zm0 0"/><path d="m408.492188 127.980469h-63.660157c-3.5625-12.210938-9.128906-23.746094-16.46875-34.132813h62.035157c7.988281 10.226563 14.113281 21.78125 18.09375 34.132813zm0 0"/><path d="m408.492188 196.246094c-3.980469 12.351562-10.105469 23.90625-18.09375 34.132812h-62.035157c7.316407-10.410156 12.90625-21.9375 16.554688-34.132812zm0 0"/></g><path d="m430.933594 162.113281c.039062 11.59375-1.773438 23.117188-5.375 34.132813h-63.574219c3.300781-11.074219 4.96875-22.574219 4.949219-34.132813.035156-11.5625-1.664063-23.070312-5.035156-34.132812h63.660156c3.601562 11.019531 5.414062 22.542969 5.375 34.132812zm0 0" fill="#37474f"/><path d="m413.867188 162.113281c.039062 11.59375-1.773438 23.117188-5.375 34.132813h-46.507813c3.300781-11.074219 4.96875-22.574219 4.949219-34.132813.035156-11.5625-1.664063-23.070312-5.035156-34.132812h46.59375c3.601562 11.019531 5.414062 22.542969 5.375 34.132812zm0 0" fill="#607d8b"/><path d="m18.433594 179.179688h58.367187v-34.132813h-58.453125zm0 0" fill="#37474f"/><path d="m493.566406 179.179688h-58.367187v-34.132813h58.453125zm0 0" fill="#37474f"/><path d="m256 238.914062h17.066406v59.734376c0 4.710937-3.820312 8.53125-8.53125 8.53125h-17.070312c-4.710938 0-8.53125-3.820313-8.53125-8.53125v-59.734376zm0 0" fill="#9e9e9e"/><path d="m42.324219 162.054688c0-9.394532-7.5625-17.007813-16.894531-17.007813-9.332032 0-16.894532 7.613281-16.894532 17.007813 0 9.390624 7.5625 17.007812 16.894532 17.007812 9.332031 0 16.894531-7.617188 16.894531-17.007812zm0 0" fill="#fec108"/><path d="m196.265625 204.78125c0 4.710938-3.820313 8.53125-8.53125 8.53125-4.714844 0-8.535156-3.820312-8.535156-8.53125 0-4.714844 3.820312-8.535156 8.535156-8.535156 4.710937 0 8.53125 3.820312 8.53125 8.535156zm0 0" fill="#67b9cc"/><path d="m187.734375 170.648438c0 4.710937-3.820313 8.53125-8.535156 8.53125-4.710938 0-8.53125-3.820313-8.53125-8.53125 0-4.714844 3.820312-8.535157 8.53125-8.535157 4.714843 0 8.535156 3.820313 8.535156 8.535157zm0 0" fill="#84b5cb"/><path d="m375.464844 162.113281c.0625 24.433594-7.453125 48.28125-21.503906 68.265625-3.398438 4.964844-7.191407 9.644532-11.347657 13.996094-.851562.816406-1.980469 1.273438-3.15625 1.28125h-166.914062c-1.175781-.007812-2.304688-.464844-3.15625-1.28125-4.15625-4.351562-7.949219-9.03125-11.347657-13.996094-14.050781-19.984375-21.566406-43.832031-21.503906-68.265625.046875-24.414062 7.550782-48.230469 21.503906-68.265625 11.511719-16.558594 27.042969-29.921875 45.140626-38.828125.425781-.167969.851562-.425781 1.277343-.597656h.085938c5.589843-2.785156 11.414062-5.070313 17.410156-6.824219.007813.898438.152344 1.789063.425781 2.644532-.023437.1875.039063.375.171875.511718.097657.664063.328125 1.304688.679688 1.878906.128906.457032.332031.886719.597656 1.277344.519531.980469 1.148437 1.898438 1.878906 2.730469.351563.496094.75.953125 1.195313 1.367187.730468.722657 1.496094 1.40625 2.304687 2.046876 4.699219 3.613281 10.203125 6.042968 16.039063 7.082031 3.53125.773437 7.140625 1.144531 10.753906 1.109375 10.660156.488281 21.09375-3.183594 29.097656-10.238282.890625-.886718 1.691406-1.855468 2.390625-2.902343 1.539063-2.214844 2.425781-4.816407 2.558594-7.507813 5.953125 1.761719 11.746094 4.015625 17.324219 6.742188l.085937.082031c18.679688 8.855469 34.714844 22.445313 46.503907 39.425781 13.953124 20.035156 21.457031 43.851563 21.503906 68.265625zm0 0" fill="#9e9e9e"/><path d="m354.132812 162.113281c.058594 24.433594-7.453124 48.28125-21.503906 68.265625-3.398437 4.964844-7.195312 9.644532-11.347656 13.996094-.851562.816406-1.980469 1.273438-3.160156 1.28125h-145.578125c-1.175781-.007812-2.304688-.464844-3.15625-1.28125-4.15625-4.351562-7.949219-9.03125-11.347657-13.996094-14.050781-19.984375-21.566406-43.832031-21.503906-68.265625.046875-24.414062 7.550782-48.230469 21.503906-68.265625 4.238282-6.144531 9.070313-11.859375 14.417969-17.066406 11.761719-11.707031 24.949219-21.882812 39.253907-30.292969.351562.574219.75 1.117188 1.195312 1.621094.351562.492187.753906.949219 1.195312 1.363281.730469.726563 1.5 1.410156 2.304688 2.050782 6.226562 5.035156 7.335938 16.722656 18.261719 16.722656 3.554687.03125 7.105469-.339844 10.578125-1.109375 6.9375-1.160157 13.375-4.335938 18.519531-9.128907 2.90625-2.722656 4.671875-6.441406 4.949219-10.410156 5.949218 1.761719 11.746094 4.015625 17.324218 6.742188l.082032.082031c.472656.195313.929687.421875 1.367187.683594 18.109375 8.847656 33.648438 22.183593 45.140625 38.742187 13.953125 20.035156 21.453125 43.851563 21.503906 68.265625zm0 0" fill="#f5f5f5"/><path d="m503.464844 162.054688c0-9.394532-7.5625-17.007813-16.894532-17.007813-9.332031 0-16.894531 7.613281-16.894531 17.007813 0 9.390624 7.5625 17.007812 16.894531 17.007812 9.332032 0 16.894532-7.617188 16.894532-17.007812zm0 0" fill="#fec108"/><path d="m298.667969 162.113281c0 11.316407-4.496094 22.167969-12.5 30.171875-8 8-18.851563 12.496094-30.167969 12.496094-3.601562.023438-7.1875-.433594-10.667969-1.367188-18.816406-4.878906-31.957031-21.859374-31.957031-41.300781 0-19.441406 13.140625-36.421875 31.957031-41.300781 3.480469-.929688 7.066407-1.390625 10.667969-1.363281 11.316406 0 22.167969 4.492187 30.167969 12.496093 8.003906 8 12.5 18.851563 12.5 30.167969zm0 0" fill="#1566c0"/><path d="m277.332031 162.113281c0-22.808593-14.324219-41.300781-32-41.300781-17.671875 0-32 18.492188-32 41.300781 0 22.8125 14.328125 41.300781 32 41.300781 17.675781 0 32-18.488281 32-41.300781zm0 0" fill="#00bcd4"/><path d="m330.921875 357.441406c-43.65625 35.453125-106.1875 35.453125-149.84375 0-1.421875-1.140625-1.964844-3.054687-1.347656-4.769531.617187-1.714844 2.253906-2.851563 4.078125-2.824219h144.382812c1.824219-.027344 3.460938 1.109375 4.078125 2.824219.617188 1.714844.074219 3.628906-1.347656 4.769531zm0 0" fill="#37474f"/><path d="m302.675781 349.847656c.007813 1.300782-.59375 2.53125-1.621093 3.328125-21.183594 17.191407-47.640626 26.5625-74.921876 26.539063h-1.875c-15.765624-4.394532-30.460937-11.972656-43.179687-22.273438-1.421875-1.140625-1.964844-3.054687-1.347656-4.769531.617187-1.714844 2.253906-2.851563 4.078125-2.824219zm0 0" fill="#607d8b"/><path d="m295.59375 22.339844-4.4375 20.394531-1.109375 4.863281c-.273437 3.96875-2.042969 7.6875-4.949219 10.410156-8.003906 7.054688-18.4375 10.726563-29.097656 10.238282-3.613281.035156-7.222656-.335938-10.753906-1.109375-5.835938-1.039063-11.339844-3.46875-16.039063-7.082031-.808593-.640626-1.574219-1.324219-2.304687-2.046876-.445313-.414062-.84375-.871093-1.195313-1.367187-.730469-.832031-1.359375-1.75-1.878906-2.730469-.265625-.390625-.46875-.820312-.597656-1.277344-.351563-.574218-.582031-1.214843-.679688-1.878906-.132812-.136718-.195312-.324218-.171875-.511718-.273437-.855469-.417968-1.746094-.425781-2.644532l-1.109375-4.863281-4.4375-20.394531c-.488281-2.242188-.058594-4.585938 1.191406-6.511719 1.25-1.921875 3.21875-3.265625 5.464844-3.730469 7.324219-1.660156 14.773438-2.714844 22.269531-3.15625 3.585938-.34375 7.082031-.425781 10.667969-.425781 11.078125-.027344 22.125 1.175781 32.9375 3.582031 2.246094.464844 4.214844 1.808594 5.464844 3.730469 1.25 1.925781 1.679687 4.269531 1.191406 6.511719zm0 0" fill="#c52828"/><path d="m274.261719 22.339844-4.4375 20.394531-1.109375 4.863281c-.277344 3.96875-2.042969 7.6875-4.949219 10.410156-5.144531 4.792969-11.582031 7.96875-18.519531 9.128907-5.835938-1.039063-11.339844-3.46875-16.039063-7.082031-.808593-.640626-1.574219-1.324219-2.304687-2.046876-.445313-.414062-.84375-.871093-1.195313-1.367187-.730469-.832031-1.359375-1.75-1.878906-2.730469-.265625-.390625-.46875-.820312-.597656-1.277344-.351563-.574218-.582031-1.214843-.679688-1.878906-.132812-.136718-.195312-.324218-.171875-.511718-.273437-.855469-.417968-1.746094-.425781-2.644532l-1.109375-4.863281-4.4375-20.394531c-.488281-2.242188-.058594-4.585938 1.191406-6.511719 1.25-1.921875 3.21875-3.265625 5.464844-3.730469 7.324219-1.660156 14.773438-2.714844 22.269531-3.15625 7.5.441406 14.949219 1.496094 22.273438 3.15625 2.246093.464844 4.214843 1.808594 5.464843 3.730469 1.25 1.925781 1.679688 4.269531 1.191407 6.511719zm0 0" fill="#f44335"/><path d="m196.265625 204.78125c0 4.710938-3.820313 8.53125-8.53125 8.53125-4.714844 0-8.535156-3.820312-8.535156-8.53125 0-4.714844 3.820312-8.535156 8.535156-8.535156 4.710937 0 8.53125 3.820312 8.53125 8.535156zm0 0"/><path d="m187.734375 170.648438c0 4.710937-3.820313 8.53125-8.535156 8.53125-4.710938 0-8.53125-3.820313-8.53125-8.53125 0-4.714844 3.820312-8.535157 8.53125-8.535157 4.714843 0 8.535156 3.820313 8.535156 8.535157zm0 0"/><path d="m332.800781 204.78125c0 4.710938-3.820312 8.53125-8.535156 8.53125-4.710937 0-8.53125-3.820312-8.53125-8.53125 0-4.714844 3.820313-8.535156 8.53125-8.535156 4.714844 0 8.535156 3.820312 8.535156 8.535156zm0 0"/><path d="m341.332031 170.648438c0 4.710937-3.820312 8.53125-8.53125 8.53125-4.714843 0-8.535156-3.820313-8.535156-8.53125 0-4.714844 3.820313-8.535157 8.535156-8.535157 4.710938 0 8.53125 3.820313 8.53125 8.535157zm0 0"/><path d="m511.914062 159.800781c-.121093-11.636719-1.914062-23.199219-5.324218-34.328125-.839844-2.984375-3.230469-5.277344-6.242188-5.992187-3.015625-.714844-6.179687.257812-8.269531 2.546875-2.089844 2.285156-2.777344 5.523437-1.796875 8.460937.675781 2.195313 1.253906 4.421875 1.785156 6.65625-1.800781-.410156-3.640625-.621093-5.488281-.628906h-45.40625c-5.066406-25.070313-17.597656-48.019531-35.949219-65.835937-2.179687-2.132813-5.332031-2.945313-8.269531-2.121094-2.9375.820312-5.214844 3.144531-5.976563 6.101562-.757812 2.953125.121094 6.085938 2.300782 8.222656.800781.777344 1.484375 1.628907 2.257812 2.429688h-37.332031c-3.851563-5.167969-8.078125-10.046875-12.65625-14.589844-12.996094-12.617187-28.515625-22.335937-45.539063-28.519531l3.949219-18.011719c2.007813-9.265625-3.871093-18.40625-13.132812-20.421875-22.921875-5.027343-46.660157-5.027343-69.582031 0-9.269532 2.007813-15.164063 11.136719-13.175782 20.410157l3.953125 18c-17.023437 6.183593-32.546875 15.902343-45.542969 28.515624-4.585937 4.550782-8.824218 9.4375-12.679687 14.617188h-37.367187c.777343-.800781 1.457031-1.652344 2.261718-2.429688 3.367188-3.300781 3.425782-8.707031.125-12.074218-3.296875-3.371094-8.703125-3.429688-12.074218-.128906-18.335938 17.820312-30.855469 40.769531-35.914063 65.835937h-45.40625c-1.847656.007813-3.6875.21875-5.488281.628906.53125-2.234375 1.109375-4.460937 1.785156-6.65625.980469-2.9375.292969-6.175781-1.796875-8.460937-2.089844-2.289063-5.253906-3.261719-8.269531-2.546875-3.011719.714843-5.402344 3.007812-6.242188 5.992187-3.410156 11.128906-5.203125 22.691406-5.3242185 34.328125-.0859375.710938-.0859375 1.460938-.0859375 2.226563 0 .742187 0 1.484375.0859375 2.195312.1250005 11.683594 1.9140625 23.292969 5.3164065 34.472656 1.375 4.507813 6.144531 7.046876 10.652344 5.671876 4.507812-1.375 7.046874-6.144532 5.671874-10.652344-.683593-2.246094-1.273437-4.515625-1.808593-6.828125 1.542969.335937 3.113281.523437 4.691406.5625.324219.109375.65625.199219.992187.265625h45.226563c5.066406 25.070312 17.597656 48.019531 35.949219 65.832031 2.179687 2.136719 5.332031 2.945313 8.269531 2.125s5.214844-3.148437 5.976563-6.101563c.757812-2.957031-.121094-6.089843-2.300782-8.222656-.800781-.777344-1.484375-1.632812-2.257812-2.433594h37.367187c3.292969 4.523438 6.910157 8.800782 10.820313 12.800782l1.78125 1.792968c1.597656 1.625 3.777344 2.546876 6.058594 2.558594h23.773437v12.800782c0 2.355468-1.910156 4.265624-4.265625 4.265624-11.75 0-21.285156 9.5-21.332031 21.246094v8.535156c0 11.78125 9.550781 21.332032 21.332031 21.332032 2.355469 0 4.265625 1.910156 4.265625 4.269531v12.796875h-23.808594c-3.472656-.003906-6.605469 2.09375-7.914062 5.3125-1.3125 3.214844-.546875 6.90625 1.941406 9.332031 49.71875 48.742188 129.296875 48.742188 179.011719 0 2.488281-2.421875 3.257812-6.109375 1.949218-9.324219-1.308593-3.214843-4.433593-5.320312-7.902343-5.320312h-23.808594v-12.796875c0-2.359375 1.910156-4.269531 4.265625-4.269531 11.78125 0 21.332031-9.550782 21.332031-21.332032v-8.535156c0-11.78125-9.550781-21.332031-21.332031-21.332031-2.355469 0-4.265625-1.910156-4.265625-4.265625v-12.800781h23.808594c2.277343-.007813 4.460937-.929688 6.058593-2.558594l1.765626-1.777344c3.917968-3.996093 7.539062-8.273437 10.835937-12.796875h37.367187c-.777343.800782-1.457031 1.652344-2.261718 2.429688-3.367188 3.300781-3.425782 8.707031-.125 12.074218 3.296875 3.371094 8.703125 3.429688 12.074218.128907 18.324219-17.800781 30.84375-40.726563 35.914063-65.765625h45.226563c.320312-.042969.636718-.109375.949218-.195313 1.59375-.039062 3.179688-.230469 4.734375-.566406-.535156 2.289063-1.125 4.558594-1.808593 6.828125-1.375 4.507812 1.164062 9.277344 5.671874 10.652344 4.507813 1.378906 9.277344-1.160156 10.652344-5.667969 3.402344-11.183594 5.191406-22.789063 5.316406-34.476563.058594-.707031.085938-1.449218.085938-2.191406 0-.835937 0-1.585937-.085938-2.296875zm-25.335937-6.21875c3.4375-.046875 6.5625 1.988281 7.910156 5.152344 1.34375 3.164063.648438 6.824219-1.765625 9.269531-2.414062 2.449219-6.070312 3.195313-9.25 1.890625-3.179687-1.304687-5.253906-4.402343-5.257812-7.839843-.027344-4.648438 3.714844-8.441407 8.363281-8.472657zm-105.136719-17.066406h42.152344c4.097656 16.820313 4.097656 34.378906 0 51.199219h-42.246094c1.742188-8.421875 2.632813-17 2.652344-25.601563 0-8.597656-.859375-17.171875-2.558594-25.597656zm27.65625-34.136719c3.519532 5.414063 6.554688 11.125 9.070313 17.070313h-41.574219c-2.039062-5.867188-4.507812-11.570313-7.390625-17.070313zm-161.632812-84.878906v25.148438c0 4.710937 3.824218 8.53125 8.535156 8.53125s8.535156-3.820313 8.535156-8.53125v-25.140626c7.644532.367188 15.25 1.371094 22.730469 2.996094l-5.546875 25.257813c-.011719.242187-.011719.484375 0 .726562 0 .253907-.160156.46875-.179688.722657-.246093 5.214843-10.066406 12.503906-25.539062 12.503906s-25.292969-7.289063-25.523438-12.503906c0-.246094-.144531-.460938-.179687-.699219.011719-.25.011719-.5 0-.75l-5.351563-25.300781c7.414063-1.605469 14.945313-2.597657 22.519532-2.960938zm-162.132813 144.613281c.03125-8.621093 1.0625-17.214843 3.074219-25.597656h42.152344c-1.699219 8.425781-2.558594 17-2.558594 25.597656.019531 8.601563.910156 17.179688 2.652344 25.601563h-42.246094c-2.011719-8.386719-3.042969-16.976563-3.074219-25.601563zm57.464844-59.734375c-2.882813 5.5-5.351563 11.203125-7.390625 17.070313h-41.589844c2.515625-5.945313 5.550782-11.65625 9.070313-17.070313zm-117.375 68.148438c-3.4375.046875-6.5625-1.988282-7.910156-5.152344-1.34375-3.164062-.648438-6.824219 1.765625-9.273438 2.414062-2.445312 6.070312-3.191406 9.25-1.886718 3.179687 1.304687 5.253906 4.402344 5.257812 7.839844.027344 4.648437-3.714844 8.441406-8.363281 8.472656zm42.84375.121094h-18.996094c2.082031-5.5 2.082031-11.570313 0-17.066407h18.996094zm25.550781 34.132812h41.582032c2.078124 5.867188 4.589843 11.570312 7.519531 17.066406h-40.03125c-3.519531-5.410156-6.554688-11.121094-9.070313-17.066406zm98.183594 102.398438c-2.355469 0-4.265625-1.910157-4.265625-4.265626v-8.535156c0-2.355468 1.910156-4.265625 4.265625-4.265625 11.78125 0 21.332031-9.550781 21.332031-21.332031v-12.800781h17.066407v51.199219c0 4.714843 3.820312 8.535156 8.535156 8.535156h8.53125v25.597656h-34.132813v-12.796875c0-11.785156-9.550781-21.335937-21.332031-21.335937zm64-59.730469h8.535156v51.199219h-17.070312v-51.199219zm0 128c-20.910156.035156-41.398438-5.886719-59.066406-17.070313h118.132812c-17.667968 11.183594-38.15625 17.105469-59.066406 17.070313zm64-85.335938c2.355469 0 4.265625 1.910157 4.265625 4.265625v8.535156c0 2.355469-1.910156 4.265626-4.265625 4.265626-11.78125 0-21.332031 9.550781-21.332031 21.335937v12.796875h-34.132813v-25.597656h8.53125c4.714844 0 8.535156-3.820313 8.535156-8.535156v-51.199219h17.066407v12.800781c0 11.78125 9.550781 21.332031 21.332031 21.332031zm16-51.199219h-23.738281c.960937-1.109374 2.0625-2.066406 2.984375-3.226562 1.917968-2.382812 2.40625-5.613281 1.289062-8.460938-1.117187-2.847656-3.675781-4.878906-6.699218-5.324218-3.027344-.445313-6.0625.765625-7.953126 3.171875-4.226562 5.265625-9.164062 9.925781-14.667968 13.839843h-5.613282c0-4.710937-3.820312-8.535156-8.535156-8.535156h-34.132812c-4.714844 0-8.535156 3.824219-8.535156 8.535156h-5.613282c-5.503906-3.914062-10.441406-8.574218-14.667968-13.839843-2.941407-3.664063-8.285157-4.261719-11.960938-1.339844-3.679688 2.921875-4.304688 8.261719-1.402344 11.953125.921875 1.160156 2.023438 2.117188 2.984375 3.226562h-23.738281c-4.039062-4.152343-7.707031-8.648437-10.972656-13.429687-31.035156-44.40625-25.367188-104.742187 13.386718-142.59375 3.441407-3.355469 7.101563-6.480469 10.957032-9.351563-12.765625 21.605469-19.628906 46.183594-19.898438 71.277344-.0625 2.265625.777344 4.460938 2.335938 6.101563 1.554687 1.644531 3.703125 2.601562 5.964844 2.664062h.230468c4.625 0 8.410156-3.679687 8.535156-8.304687.945313-34.824219 13.449219-64.683594 33.6875-81.917969 9.582032 9.1875 22.511719 14.042969 35.773438 13.421875 13.269531.609375 26.207031-4.257812 35.78125-13.464844 20.238281 17.277344 32.742188 47.136719 33.6875 81.960938.125 4.625 3.910156 8.304687 8.535156 8.304687h.230469c2.261719-.0625 4.410156-1.019531 5.964844-2.664062 1.558593-1.640625 2.398437-3.835938 2.335937-6.101563-.273437-25.09375-7.136718-49.675781-19.90625-71.277344 3.84375 2.867188 7.496094 5.984376 10.929688 9.335938 38.773437 37.871094 44.421875 98.25 13.347656 142.660156-3.246094 4.761719-6.894531 9.238282-10.90625 13.378906zm33.082031-17.066406c2.921875-5.496094 5.4375-11.203125 7.519531-17.066406h41.582032c-2.515625 5.945312-5.550782 11.65625-9.070313 17.066406zm74.652344-68.265625h18.960937c-2.082031 5.496094-2.082031 11.566407 0 17.066407h-18.960937zm0 0"/><path d="m256 110.914062c-28.277344 0-51.199219 22.921876-51.199219 51.199219 0 28.277344 22.921875 51.199219 51.199219 51.199219s51.199219-22.921875 51.199219-51.199219c-.027344-28.265625-22.933594-51.171875-51.199219-51.199219zm0 85.332032c-18.851562 0-34.132812-15.28125-34.132812-34.132813 0-18.851562 15.28125-34.132812 34.132812-34.132812s34.132812 15.28125 34.132812 34.132812c0 18.851563-15.28125 34.132813-34.132812 34.132813zm0 0"/><path d="m137.566406 356.519531c3.109375-.265625 5.828125-2.207031 7.082032-5.066406 1.257812-2.859375.851562-6.175781-1.054688-8.644531-1.90625-2.472656-5.007812-3.707032-8.09375-3.21875-72.925781 8.882812-109.898438 23.816406-109.898438 44.390625 0 30.566406 85.816407 44.152343 162.191407 48.980469-5.152344 3.296874-8.363281 8.90625-8.59375 15.019531 0 12.894531 14.507812 20.589843 32.222656 24.941406-4.105469 3.273437-6.53125 8.210937-6.621094 13.457031 0 17.597656 26.539063 25.601563 51.199219 25.601563s51.199219-8.003907 51.199219-25.601563c-.089844-5.246094-2.515625-10.183594-6.621094-13.457031 17.757813-4.351563 32.222656-12.046875 32.222656-24.941406-.230469-6.113281-3.441406-11.722657-8.59375-15.019531 76.375-4.828126 162.191407-18.414063 162.191407-48.980469 0-20.574219-36.972657-35.507813-109.898438-44.375-3.085938-.488281-6.1875.746093-8.09375 3.21875-1.90625 2.472656-2.3125 5.789062-1.054688 8.644531 1.253907 2.859375 3.972657 4.800781 7.082032 5.070312 77.125 9.386719 94.472656 24.027344 94.898437 27.441407-1.5 11.589843-78.15625 34.132812-213.332031 34.132812s-211.832031-22.5625-213.332031-34.132812c.425781-3.414063 17.773437-18.054688 94.898437-27.460938zm152.355469 129.859375c-2.203125 2.792969-13.894531 8.535156-33.921875 8.535156s-31.71875-5.742187-33.921875-8.535156c2.203125-2.789062 13.894531-8.53125 33.921875-8.53125s31.71875 5.742188 33.921875 8.53125zm25.597656-38.398437c-3.132812 4.0625-23.277343 12.800781-59.519531 12.800781s-56.386719-8.738281-59.503906-12.800781c3.117187-4.0625 23.261718-12.800781 59.503906-12.800781s56.386719 8.738281 59.503906 12.800781zm0 0"/></svg>