<svg height="512pt" viewBox="0 0 512 512" width="512pt" xmlns="http://www.w3.org/2000/svg"><path d="m123.050781 287.898438-25.601562 25.597656c-8.621094 8.625-22.605469 8.625-31.230469 0-8.625-8.621094-8.625-22.605469 0-31.230469l25.601562-25.601563c-8.625 8.625-8.625 22.609376 0 31.234376 8.621094 8.625 22.605469 8.625 31.230469 0zm0 0" fill="#424242"/><path d="m134.144531 276.804688-11.09375 11.09375c-8.625 8.621093-22.605469 8.621093-31.230469 0-.839843-.851563-1.609374-1.761719-2.304687-2.730469-6.355469-8.773438-5.375-20.863281 2.304687-28.503907l20.136719-20.136718c2.472657 7.082031 5.558594 13.933594 9.214844 20.480468 3.804687 6.925782 8.140625 13.542969 12.972656 19.796876zm0 0" fill="#37474f"/><path d="m121.34375 268.269531-11.09375 11.09375c-5.410156 5.445313-13.285156 7.648438-20.734375 5.804688-6.355469-8.773438-5.375-20.863281 2.304687-28.503907l13.652344-13.652343c.9375 1.792969 1.875 3.671875 2.902344 5.460937 3.800781 6.925782 8.136719 13.546875 12.96875 19.796875zm0 0" fill="#607d8b"/><path d="m452.265625 297.882812c-.007813 8.929688-5.394531 16.980469-13.644531 20.394532-8.253906 3.417968-17.75 1.53125-24.070313-4.78125l-25.601562-25.597656c5.578125 5.578124 13.710937 7.757812 21.332031 5.714843s13.574219-7.996093 15.617188-15.617187c2.039062-7.621094-.136719-15.75-5.71875-21.332032l25.601562 25.601563c4.136719 4.144531 6.46875 9.757813 6.484375 15.617187zm0 0" fill="#424242"/><path d="m426.667969 272.28125c-.046875 12.054688-9.707031 21.871094-21.761719 22.101562-5.980469.109376-11.746094-2.234374-15.957031-6.484374l-11.09375-11.09375c4.832031-6.269532 9.195312-12.886719 13.054687-19.796876.515625-.855468.941406-1.792968 1.367188-2.644531 3.023437-5.75 5.617187-11.710937 7.765625-17.835937l20.136719 20.136718c4.140624 4.148438 6.472656 9.761719 6.488281 15.617188zm0 0" fill="#37474f"/><path d="m409.601562 280.816406c-.019531 4.917969-1.671874 9.6875-4.695312 13.566406-5.980469.109376-11.746094-2.234374-15.957031-6.484374l-11.09375-11.09375c4.832031-6.269532 9.195312-12.886719 13.054687-19.796876.515625-.855468.941406-1.792968 1.367188-2.644531l10.835937 10.835938c4.140625 4.144531 6.472657 9.757812 6.488281 15.617187zm0 0" fill="#607d8b"/><path d="m503.464844 18.246094v41.46875c0 4.714844-3.820313 8.535156-8.53125 8.535156-4.714844 0-8.535156 3.820312-8.535156 8.53125v93.867188c0 4.714843-3.820313 8.535156-8.53125 8.535156h-3.753907c-2.972656.011718-5.730469-1.546875-7.253906-4.097656l-6.058594-9.898438-7.167969-11.691406-11.09375-18.003906v-.085938l-19.882812-32.597656-40.363281-66.046875c-1.527344-2.453125-1.699219-5.515625-.453125-8.125 1.242187-2.605469 3.730468-4.402344 6.597656-4.761719l93.695312-12.542969 11.691407-1.535156c2.433593-.320313 4.886719.425781 6.730469 2.042969 1.847656 1.617187 2.910156 3.949218 2.910156 6.40625zm0 0" fill="#37474f"/><path d="m482.132812 11.332031v35.585938c0 4.710937-3.820312 8.53125-8.53125 8.53125-4.714843 0-8.535156 3.820312-8.535156 8.535156v93.867187c.011719 3.035157-1.621094 5.84375-4.265625 7.335938l-7.167969-11.691406-11.09375-18.003906v-.085938l-19.882812-32.597656-40.363281-66.046875c-1.527344-2.453125-1.699219-5.515625-.453125-8.125 1.242187-2.605469 3.730468-4.402344 6.597656-4.761719zm0 0" fill="#607d8b"/><path d="m129.707031 36.761719-40.363281 66.046875-19.882812 32.597656v.085938l-11.09375 18.003906-13.226563 21.589844c-1.523437 2.550781-4.28125 4.109374-7.253906 4.097656h-3.753907c-4.710937 0-8.53125-3.820313-8.53125-8.535156v-93.867188c0-4.710938-3.820312-8.53125-8.535156-8.53125-4.710937 0-8.53125-3.820312-8.53125-8.535156v-41.46875c0-2.457032 1.0625-4.789063 2.910156-6.40625 1.84375-1.617188 4.296876-2.363282 6.730469-2.042969l88.578125 11.859375 16.808594 2.21875c2.867188.359375 5.355469 2.15625 6.597656 4.761719 1.246094 2.609375 1.074219 5.671875-.453125 8.125zm0 0" fill="#37474f"/><path d="m108.375 32.496094-40.363281 66.046875-19.882813 32.597656v.085937l-11.09375 18.003907-11.433594 18.6875v-91.136719c0-4.710938-3.820312-8.53125-8.535156-8.53125-4.710937 0-8.53125-3.820312-8.53125-8.535156v-41.46875c0-2.457032 1.0625-4.789063 2.910156-6.40625 1.84375-1.617188 4.296876-2.363282 6.730469-2.042969l88.578125 11.859375c3.144532 2.71875 3.832032 7.320312 1.621094 10.839844zm0 0" fill="#607d8b"/><path d="m443.734375 127.984375c-.003906 2.519531-.40625 5.027344-1.195313 7.421875.023438.023438.035157.054688.035157.085938s-.011719.0625-.035157.085937c-3.261718 10.738281-13.183593 18.058594-24.40625 18.003906-2.886718.019531-5.75-.5-8.449218-1.535156-1.707032-.527344-3.34375-1.273437-4.863282-2.21875h-297.640624c-4 2.46875-8.613282 3.769531-13.3125 3.753906-2.941407.019531-5.863282-.5-8.621094-1.535156-7.609375-2.621094-13.488282-8.753906-15.785156-16.46875-.023438-.023437-.035157-.054687-.035157-.085937s.011719-.0625.035157-.085938c-.789063-2.394531-1.191407-4.902344-1.195313-7.421875-.003906-6.292969 2.304687-12.367187 6.488281-17.066406 2.917969-3.144531 6.546875-5.542969 10.578125-7 1.300781-.496094 2.640625-.867188 4.011719-1.109375 1.492188-.273438 3.003906-.414063 4.523438-.425782 11.074218.007813 20.886718 7.136719 24.320312 17.664063h275.625c2.449219-7.550781 8.292969-13.515625 15.789062-16.128906 2.722657-1.03125 5.617188-1.554688 8.53125-1.535157 1.519532.011719 3.03125.152344 4.523438.425782 3.457031.605468 6.746094 1.941406 9.640625 3.925781 1.839844 1.15625 3.507813 2.5625 4.949219 4.183594 4.183594 4.699219 6.492187 10.773437 6.488281 17.066406zm0 0" fill="#424242"/><path d="m426.667969 127.984375c-.003907 2.519531-.40625 5.027344-1.195313 7.421875.023438.023438.035156.054688.035156.085938s-.011718.0625-.035156.085937c-2.296875 7.714844-8.175781 13.847656-15.789062 16.46875-2.753906 1.035156-5.675782 1.554687-8.617188 1.535156-4.699218.015625-9.3125-1.285156-13.3125-3.753906h-297.640625c-1.519531.945313-3.15625 1.691406-4.867187 2.21875-7.609375-2.621094-13.488282-8.753906-15.785156-16.46875-.023438-.023437-.035157-.054687-.035157-.085937s.011719-.0625.035157-.085938c-.789063-2.394531-1.191407-4.902344-1.195313-7.421875-.003906-6.292969 2.304687-12.367187 6.488281-17.066406 1.441406-1.621094 3.109375-3.027344 4.949219-4.183594 1.789063-1.195313 2.15625 4.507813 4.207031 3.824219 10.535156 2.757812 19.203125 10.242187 23.464844 20.265625l286.4375-10.777344c2.449219-7.550781 8.292969-13.515625 15.789062-16.128906 4.03125 1.457031 7.660157 3.855469 10.578126 7 4.183593 4.699219 6.492187 10.773437 6.488281 17.066406zm0 0" fill="#9e9e9e"/><path d="m192.257812 91.375c-16.628906 11.089844-29.675781 26.773438-37.546874 45.140625l-33.539063-22.355469c9.027344-16.488281 21.003906-31.183594 35.328125-43.351562l-1.789062 19.203125c-.25 2.796875.894531 5.539062 3.0625 7.328125 2.164062 1.789062 5.070312 2.398437 7.773437 1.628906zm0 0" fill="#f44335"/><path d="m390.910156 114.160156-33.535156 22.355469c-7.898438-18.453125-21.042969-34.179687-37.800781-45.226563l26.878906 7.679688c2.703125.769531 5.609375.160156 7.773437-1.628906 2.167969-1.789063 3.3125-4.53125 3.0625-7.328125l-1.789062-19.203125c14.328125 12.191406 26.328125 26.878906 35.410156 43.351562zm0 0" fill="#f44335"/><path d="m390.910156 261.273438c-3.859375 6.910156-8.222656 13.527343-13.054687 19.796874-6.554688 8.65625-14.050781 16.558594-22.355469 23.554688l1.789062-19.203125c.25-2.796875-.894531-5.539063-3.0625-7.328125-2.164062-1.789062-5.070312-2.398438-7.773437-1.628906l-26.878906 7.679687c16.757812-11.046875 29.902343-26.773437 37.800781-45.226562zm0 0" fill="#c52828"/><path d="m192.171875 284.058594-26.625-7.59375c-2.703125-.769532-5.609375-.160156-7.773437 1.628906-2.167969 1.789062-3.3125 4.53125-3.0625 7.328125l1.789062 19.203125c-8.304688-6.996094-15.800781-14.898438-22.355469-23.554688-4.832031-6.25-9.167969-12.871093-12.972656-19.796874l33.539063-22.355469c7.890624 18.332031 20.898437 34 37.460937 45.140625zm0 0" fill="#c52828"/><path d="m388.265625 187.714844c.039063 18.125-3.199219 36.105468-9.554687 53.078125-1.195313 3.328125-2.476563 6.570312-3.925782 9.730469l-17.410156-11.605469c-1.53125 3.679687-3.328125 7.242187-5.375 10.664062-5.789062 10.222657-13.359375 19.328125-22.355469 26.882813-3.167969 2.800781-6.53125 5.367187-10.070312 7.679687l14.933593-4.269531c1.101563 1.628906 1.613282 3.585938 1.449219 5.546875l-1.792969 19.203125v.082031l-84.992187 30.464844-92.671875-30.464844v-.082031l-1.789062-19.203125c-.164063-1.960937.347656-3.917969 1.449218-5.546875l14.675782 4.183594c-3.460938-2.3125-6.765626-4.851563-9.898438-7.59375 1.507812-.429688 3.101562-.429688 4.609375 0l26.625 7.59375c-16.5625-11.140625-29.570313-26.808594-37.460937-45.140625l-15.875 10.578125c-2.132813-3.410156-14.164063 15.703125-15.785157 12.035156l-7.167969-10.925781c-1.449218-3.242188-2.730468-6.484375-3.925781-9.8125-10.832031-29.125-12.5-60.863281-4.777343-90.964844 2.089843-8.59375 5.003906-16.96875 8.703124-25.003906l7.167969-6.441407c1.535157-3.667968 13.652344 10.964844 15.703125 7.550782l15.957032 10.582031c7.871093-18.367187 20.917968-34.050781 37.546874-45.140625l-26.710937 7.59375c-1.476563.429688-3.046875.429688-4.523437 0 3.113281-2.765625 6.421874-5.300781 9.898437-7.59375l-14.761719 4.179688c-1.101562-1.628907-1.613281-3.585938-1.449218-5.542969l1.789062-19.203125v-.085938l91.222656-34.300781 86.441406 34.300781v.085938l1.792969 19.203125c.164063 1.957031-.347656 3.914062-1.449219 5.542969l-14.933593-4.265626c3.539062 2.3125 6.902343 4.878907 10.070312 7.679688 8.996094 7.554688 16.566407 16.660156 22.355469 26.882812 2.046875 3.421876 3.84375 6.984376 5.375 10.664063l17.410156-11.605469c3.683594 8.011719 6.597656 16.355469 8.703125 24.917969 3.199219 12.375 4.804688 25.105469 4.777344 37.886719zm0 0" fill="#f5f5f5"/><g fill="#9e9e9e"><path d="m138.753906 125.933594c-2.050781 3.414062-11.675781-12.515625-13.210937-8.847656l-9.660157 7.738281c.769532-1.621094 1.535157-3.242188 2.304688-4.777344v-.085937c.9375-1.960938 1.960938-3.925782 2.984375-5.800782zm0 0"/><path d="m138.835938 249.496094-17.664063 11.777344c-1.964844-3.449219-3.730469-7.011719-5.289063-10.667969l7.167969 7.511719c1.621094 3.667968 13.652344-12.03125 15.785157-8.621094zm0 0"/><path d="m170.835938 284.058594-14.675782-4.183594c1.152344-1.652344 2.839844-2.855469 4.777344-3.410156 3.132812 2.742187 6.4375 5.28125 9.898438 7.59375zm0 0"/><path d="m170.921875 91.375c-3.476563 2.292969-6.785156 4.828125-9.898437 7.59375-1.976563-.515625-3.703126-1.730469-4.863282-3.414062zm0 0"/><path d="m357.289062 90.011719c.25 2.796875-.894531 5.539062-3.0625 7.328125-2.164062 1.789062-5.070312 2.398437-7.773437 1.628906l-11.945313-3.414062c1.101563-1.628907 1.613282-3.585938 1.449219-5.542969l-1.792969-19.203125v-.085938l-86.441406-34.300781 10.921875-4.097656 96.855469 38.398437v.085938zm0 0"/><path d="m357.289062 285.421875-1.789062 19.203125v.082031l-95.234375 34.132813-11.09375-3.667969 84.992187-30.464844v-.082031l1.792969-19.203125c.164063-1.960937-.347656-3.917969-1.449219-5.546875l11.945313-3.410156c2.703125-.769532 5.609375-.160156 7.773437 1.628906 2.167969 1.789062 3.3125 4.53125 3.0625 7.328125zm0 0"/><path d="m409.601562 187.714844c.035157 18.125-3.203124 36.105468-9.558593 53.078125-2.480469 7.066406-5.535157 13.914062-9.132813 20.480469l-16.125-10.75c1.449219-3.160157 2.730469-6.402344 3.925782-9.730469 10.832031-29.125 12.5-60.863281 4.777343-90.964844-2.105469-8.5625-5.019531-16.90625-8.703125-24.917969l16.125-10.75c.941406 1.875 1.964844 3.839844 2.902344 5.800782v.085937c4.800781 9.472656 8.496094 19.464844 11.007812 29.78125 3.199219 12.375 4.804688 25.105469 4.78125 37.886719zm0 0"/><path d="m334.507812 279.875-14.933593 4.269531c3.539062-2.3125 6.902343-4.878906 10.070312-7.679687 1.976563.515625 3.703125 1.726562 4.863281 3.410156zm0 0"/><path d="m334.507812 95.554688c-1.160156 1.683593-2.886718 2.898437-4.863281 3.414062-3.167969-2.800781-6.53125-5.367188-10.070312-7.679688zm0 0"/></g><path d="m315.734375 187.714844c0 32.992187-26.746094 59.734375-59.734375 59.734375s-59.734375-26.742188-59.734375-59.734375c0-32.988282 26.746094-59.730469 59.734375-59.730469s59.734375 26.742187 59.734375 59.730469zm0 0" fill="#424242"/><path d="m357.289062 90.011719c.25 2.796875-.894531 5.539062-3.0625 7.328125-2.164062 1.789062-5.070312 2.398437-7.773437 1.628906l-11.945313-3.414062c1.101563-1.628907 1.613282-3.585938 1.449219-5.542969l-1.792969-19.203125v-.085938l-2.644531-29.609375c-.285156-2.703125-1.796875-5.121093-4.09375-6.570312-24.847656-15.15625-53.039062-23.976563-82.09375-25.683594 3.5-.257813 7.082031-.34375 10.667969-.34375 32.726562-.023437 64.820312 8.980469 92.757812 26.027344 2.296876 1.449219 3.808594 3.867187 4.09375 6.570312l2.648438 29.609375v.085938zm0 0" fill="#424242"/><path d="m357.289062 285.421875-1.789062 19.203125v.082031l-2.648438 29.613281c-.285156 2.699219-1.796874 5.121094-4.09375 6.570313-7.8125 4.808594-16.003906 8.976563-24.492187 12.457031-21.636719 8.976563-44.839844 13.589844-68.265625 13.570313-3.585938 0-7.167969-.085938-10.667969-.34375 19.804688-1.15625 39.273438-5.628907 57.601563-13.226563 8.488281-3.480468 16.679687-7.648437 24.492187-12.457031 2.296875-1.449219 3.808594-3.871094 4.09375-6.570313l2.644531-29.613281v-.082031l1.792969-19.203125c.164063-1.960937-.347656-3.917969-1.449219-5.546875l11.945313-3.410156c2.703125-.769532 5.609375-.160156 7.773437 1.628906 2.167969 1.789062 3.3125 4.53125 3.0625 7.328125zm0 0" fill="#424242"/><path d="m335.957031 85.742188c.164063 1.960937-.347656 3.917968-1.449219 5.546874l-14.933593-4.265624-14.679688-4.183594c-3.648437-1.0625-6.175781-4.386719-6.226562-8.191406l-6.65625-21.671876c-1.113281-3.59375-4.429688-6.050781-8.191407-6.058593h-55.640624c-3.761719.007812-7.078126 2.464843-8.191407 6.058593l-6.65625 21.671876c-.050781 3.804687-2.578125 7.128906-6.226562 8.191406l-14.765625 4.183594c-.046875 0-.082032.039062-.082032.085937l-26.710937 7.59375c-2.703125.769531-5.609375.160156-7.773437-1.628906-2.167969-1.792969-3.3125-4.53125-3.0625-7.332031l1.789062-19.199219v-.085938l2.648438-29.609375c.285156-2.703125 1.796874-5.125 4.09375-6.570312 24.847656-15.15625 53.035156-23.976563 82.089843-25.6875 29.054688 1.710937 57.246094 10.53125 82.09375 25.6875 2.296875 1.445312 3.808594 3.867187 4.09375 6.570312l2.644531 29.609375v.085938zm0 0" fill="#9e9e9e"/><path d="m335.957031 289.691406-1.792969 19.199219v.085937l-2.644531 29.609376c-.285156 2.703124-1.796875 5.121093-4.09375 6.570312-7.8125 4.808594-16.003906 8.976562-24.492187 12.457031-18.328125 7.597657-37.796875 12.070313-57.601563 13.226563-19.804687-1.15625-39.273437-5.628906-57.597656-13.226563-8.488281-3.480469-16.679687-7.648437-24.492187-12.457031-2.296876-1.449219-3.808594-3.867188-4.09375-6.570312l-2.648438-29.609376v-.085937l-1.789062-19.199219c-.25-2.800781.894531-5.542968 3.0625-7.332031 2.164062-1.789063 5.070312-2.398437 7.773437-1.628906l26.625 7.59375c.085937 0 .085937.085937.167969.085937l14.765625 4.179688c3.648437 1.066406 6.175781 4.390625 6.226562 8.191406l6.65625 21.675781c1.113281 3.59375 4.429688 6.046875 8.191407 6.058594h55.640624c3.761719-.011719 7.078126-2.464844 8.191407-6.058594l6.65625-21.675781c.050781-3.800781 2.578125-7.125 6.226562-8.191406l14.679688-4.179688 14.933593-4.265625c1.101563 1.628907 1.613282 3.585938 1.449219 5.546875zm0 0" fill="#9e9e9e"/><path d="m366.933594 187.714844c0 14.140625-11.460938 25.601562-25.601563 25.601562-2.914062.019532-5.804687-.503906-8.53125-1.535156-10.222656-3.582031-17.070312-13.230469-17.070312-24.066406 0-10.832032 6.847656-20.480469 17.070312-24.0625 2.726563-1.035156 5.617188-1.554688 8.53125-1.535156 14.140625 0 25.601563 11.460937 25.601563 25.597656zm0 0" fill="#1566c0"/><path d="m349.867188 187.714844c0-13.289063-7.640626-24.0625-17.066407-24.0625s-17.066406 10.773437-17.066406 24.0625c0 13.292968 7.640625 24.066406 17.066406 24.066406s17.066407-10.773438 17.066407-24.066406zm0 0" fill="#00bcd4"/><path d="m281.601562 187.714844c0 14.140625-11.464843 25.601562-25.601562 25.601562-2.914062.019532-5.808594-.503906-8.535156-1.535156-10.222656-3.582031-17.066406-13.230469-17.066406-24.066406 0-10.832032 6.84375-20.480469 17.066406-24.0625 2.726562-1.035156 5.621094-1.554688 8.535156-1.535156 14.136719 0 25.601562 11.460937 25.601562 25.597656zm0 0" fill="#c52828"/><path d="m264.535156 187.714844c0-13.289063-7.644531-24.0625-17.070312-24.0625-9.425782 0-17.066406 10.773437-17.066406 24.0625 0 13.292968 7.640624 24.066406 17.066406 24.066406 9.425781 0 17.070312-10.773438 17.070312-24.066406zm0 0" fill="#f44335"/><path d="m170.667969 170.648438c0 4.714843-3.820313 8.535156-8.535157 8.535156-4.710937 0-8.53125-3.820313-8.53125-8.535156 0-4.710938 3.820313-8.53125 8.53125-8.53125 4.714844 0 8.535157 3.820312 8.535157 8.53125zm0 0"/><path d="m162.132812 204.78125c.023438 2.273438-.867187 4.457031-2.472656 6.0625-1.605468 1.605469-3.789062 2.496094-6.058594 2.472656-4.714843 0-8.535156-3.820312-8.535156-8.535156-.023437-2.269531.867188-4.453125 2.472656-6.058594 1.605469-1.605468 3.789063-2.496094 6.0625-2.472656 4.710938 0 8.53125 3.820312 8.53125 8.53125zm0 0"/><path d="m486.398438 383.984375c0-20.574219-36.972657-35.507813-109.898438-44.375-3.085938-.488281-6.1875.746094-8.09375 3.21875-1.90625 2.46875-2.3125 5.785156-1.054688 8.644531 1.253907 2.855469 3.972657 4.800782 7.082032 5.066406 77.117187 9.386719 94.472656 24.03125 94.898437 27.445313-1.5 11.585937-78.15625 34.132813-213.332031 34.132813s-211.832031-22.5625-213.332031-34.132813c.425781-3.414063 17.773437-18.074219 94.898437-27.480469 3.109375-.265625 5.828125-2.207031 7.082032-5.066406 1.257812-2.855469.851562-6.171875-1.054688-8.644531-1.90625-2.472657-5.007812-3.707031-8.09375-3.21875-72.925781 8.902343-109.898438 23.835937-109.898438 44.410156 0 30.566406 85.816407 44.148437 162.191407 48.980469-5.152344 3.292968-8.363281 8.90625-8.59375 15.019531 0 12.894531 14.507812 20.589844 32.222656 24.941406-4.105469 3.273438-6.53125 8.207031-6.621094 13.457031 0 17.597657 26.539063 25.601563 51.199219 25.601563s51.199219-8.003906 51.199219-25.601563c-.089844-5.25-2.515625-10.183593-6.621094-13.457031 17.757813-4.351562 32.222656-12.046875 32.222656-24.941406-.230469-6.113281-3.441406-11.726563-8.59375-15.019531 76.375-4.832032 162.191407-18.414063 162.191407-48.980469zm-196.476563 102.398437c-2.203125 2.789063-13.894531 8.535157-33.921875 8.535157s-31.71875-5.746094-33.921875-8.535157c2.203125-2.789062 13.894531-8.53125 33.921875-8.53125s31.71875 5.742188 33.921875 8.53125zm25.597656-38.398437c-3.132812 4.0625-23.277343 12.796875-59.519531 12.796875s-56.386719-8.734375-59.503906-12.796875c3.117187-4.0625 23.261718-12.800781 59.503906-12.800781s56.386719 8.738281 59.503906 12.800781zm0 0"/><path d="m256 255.984375c27.722656-.050781 52.671875-16.847656 63.148438-42.515625 12.132812 10.722656 30.210937 11.207031 42.902343 1.152344.128907-.089844.25-.1875.359375-.296875 8.199219-6.371094 13-16.164063 13.019532-26.542969.023437-10.382812-4.746094-20.195312-12.917969-26.59375-.269531-.253906-.550781-.492188-.851563-.710938-12.703125-9.722656-30.511718-9.101562-42.503906 1.484376-12.949219-31.78125-47.476562-49.011719-80.65625-40.246094-33.179688 8.761718-54.695312 40.792968-50.261719 74.824218 4.433594 34.03125 33.445313 59.476563 67.761719 59.445313zm85.332031-85.335937c9.425781 0 17.066407 7.640624 17.066407 17.066406 0 9.425781-7.640626 17.066406-17.066407 17.066406s-17.066406-7.640625-17.066406-17.066406c0-9.425782 7.640625-17.066406 17.066406-17.066406zm-85.332031-34.132813c28.277344 0 51.199219 22.925781 51.199219 51.199219 0 28.277344-22.921875 51.203125-51.199219 51.203125s-51.199219-22.925781-51.199219-51.203125c.027344-28.261719 22.933594-51.171875 51.199219-51.199219zm0 0"/><path d="m17.066406 76.78125v93.867188c0 9.425781 7.640625 17.066406 17.066406 17.066406h3.753907c5.941406.03125 11.457031-3.078125 14.507812-8.171875l17.023438-27.667969c6.425781 6.589844 15.246093 10.285156 24.449219 10.242188.765624 0 1.527343-.101563 2.285156-.15625-4.4375 25.644531-2.402344 51.992187 5.921875 76.648437l-16.289063 16.289063-25.597656 25.601562c-5.753906 5.734375-8.988281 13.523438-8.988281 21.648438s3.234375 15.914062 8.988281 21.648437c11.960938 11.9375 31.332031 11.9375 43.296875 0l30.128906-30.121094c4.550781 5.28125 9.4375 10.261719 14.628907 14.914063l2.414062 26.546875c.558594 5.375 3.5625 10.191406 8.148438 13.050781 6.574218 3.96875 13.386718 7.535156 20.394531 10.671875v16.589844c0 4.714843 3.820312 8.535156 8.535156 8.535156 4.710937 0 8.53125-3.820313 8.53125-8.535156v-9.890625c38.730469 13.191406 80.738281 13.191406 119.46875 0v9.890625c0 4.714843 3.820313 8.535156 8.53125 8.535156 4.714844 0 8.535156-3.820313 8.535156-8.535156v-16.597657c7.035157-3.148437 13.875-6.726562 20.480469-10.707031 4.542969-2.878906 7.511719-7.6875 8.046875-13.039062l2.40625-26.515625c5.1875-4.648438 10.074219-9.625 14.625-14.898438l30.132813 30.132813c8.761718 8.769531 21.945312 11.398437 33.398437 6.652343 11.457031-4.746093 18.917969-15.929687 18.910156-28.328124-.03125-8.117188-3.257812-15.894532-8.988281-21.648438l-25.597656-25.601562-16.300782-16.296876c8.347657-24.648437 10.402344-50.992187 5.976563-76.640624.765625.054687 1.515625.15625 2.285156.15625 9.203125.039062 18.027344-3.65625 24.457031-10.242188l16.945313 27.582031c3.035156 5.136719 8.566406 8.28125 14.535156 8.257813h3.753907c9.425781 0 17.066406-7.640625 17.066406-17.066406v-93.867188c9.425781 0 17.066406-7.640625 17.066406-17.066406v-41.46875c-.003906-4.917969-2.128906-9.589844-5.824219-12.828125-3.699219-3.238281-8.613281-4.722657-13.488281-4.078125l-105.273438 14.070312c-5.742187.714844-10.726562 4.304688-13.230468 9.523438-2.5 5.21875-2.175782 11.347656.863281 16.273437l33.109375 54.179688c-5.121094 1.574219-9.796875 4.339843-13.652344 8.0625-8.363281-13.667969-18.71875-26.019531-30.71875-36.640625l-2.371094-26.515625c-.585937-5.371094-3.621093-10.167969-8.21875-13.003907-59.71875-36.386718-134.757812-36.386718-194.476562 0-4.542969 2.878907-7.511719 7.6875-8.046875 13.039063l-2.40625 26.511719c-11.996094 10.605468-22.347656 22.933594-30.71875 36.585937-3.851563-3.730469-8.53125-6.492187-13.652344-8.066406l33.097657-54.160156c3.039062-4.914063 3.371093-11.039063.886718-16.253907-2.488281-5.214843-7.449218-8.8125-13.179687-9.550781l-105.398438-14.054687c-4.871093-.644532-9.78125.84375-13.476562 4.082031-3.699219 3.234375-5.82031275 7.910156-5.824219 12.824219v41.46875c0 9.425781 7.640625 17.066406 17.066406 17.066406zm132.90625 66.835938c.289063.160156.589844.296874.898438.417968.144531.113282.300781.222656.460937.324219.125.050781.261719 0 .390625.074219.949219.382812 1.957032.59375 2.976563.617187.753906-.015625 1.503906-.125 2.230469-.324219.230468-.070312.433593-.171874.65625-.25.496093-.175781.976562-.394531 1.433593-.65625.238281-.144531.453125-.304687.683594-.476562.394531-.285156.761719-.605469 1.097656-.957031.214844-.21875.414063-.453125.597657-.699219.121093-.152344.273437-.273438.386718-.433594.109375-.164062.109375-.351562.203125-.511718.195313-.273438.371094-.558594.527344-.855469 7.109375-16.511719 18.765625-30.65625 33.613281-40.789063l13.414063-3.832031c6.703125-2.019531 11.53125-7.878906 12.230469-14.847656l6.398437-20.703125h55.664063l6.367187 20.710937c.71875 7.011719 5.597656 12.890625 12.355469 14.890625l13.175781 3.765625c14.96875 10.046875 26.703125 24.21875 33.789063 40.796875.160156.296875.335937.578125.53125.851563.0625.179687.132812.351562.214843.523437.109375.160156.253907.273438.375.425782.183594.25.390625.488281.613281.707031.328126.34375.683594.65625 1.066407.9375.226562.183593.46875.347656.71875.496093.441406.257813.90625.472657 1.390625.640626.238281.085937.449218.195312.691406.265624.722656.199219 1.472656.308594 2.226562.324219 1.019532-.023437 2.03125-.234375 2.976563-.617187.128906-.050782.257813 0 .375-.074219.121094-.078125.28125-.222656.445313-.308594.316406-.125.628906-.269531.929687-.433593l25.472656-16.980469c17.980469 38.734375 17.980469 83.425781 0 122.160156l-25.472656-16.980469c-.238281-.113281-.484375-.210937-.734375-.296875-.230469-.128906-.390625-.335937-.640625-.445312-.300781-.082031-.605469-.148438-.914063-.195313-.527343-.167968-1.070312-.28125-1.621093-.34375-.566407-.058594-1.136719-.058594-1.703125 0-1.078125.101563-2.121094.421875-3.066406.941406-.441407.230469-.859376.5-1.253907.808594-.464843.371094-.886719.792969-1.261719 1.253906-.222656.199219-.433593.410157-.632812.632813-.109375.238281-.210938.484375-.296875.734375-.160156.203125-.308594.417969-.445313.640625-7.082031 16.578125-18.8125 30.753906-33.773437 40.8125l-13.3125 3.796875c-6.703125 2.023438-11.53125 7.882812-12.230469 14.851562l-6.363281 20.707032h-55.664063l-6.367187-20.707032c-.71875-7.011718-5.597656-12.890624-12.355469-14.890624l-13.292968-3.789063c-14.839844-10.140625-26.492188-24.285156-33.605469-40.789063-.101563-.242187-.316407-.402343-.433594-.632812-.121094-.230469-.148437-.496094-.300781-.726562-.152344-.230469-.460938-.417969-.664063-.664063-.359375-.429687-.757812-.824219-1.1875-1.179687-.433593-.34375-.902343-.644532-1.398437-.894532-.457032-.238281-.933594-.433594-1.425782-.589844-.539062-.15625-1.09375-.257812-1.65625-.304687-.515624-.054687-1.035156-.054687-1.550781 0-.582031.054687-1.152343.171875-1.707031.347656-.3125.042969-.621094.105469-.921875.1875-.25.113281-.410156.324219-.648437.453125-.238282.128906-.488282.144532-.710938.289063l-25.53125 17.066406c-18.007812-38.757813-18.007812-83.488281 0-122.246094zm209.671875 127.898437c-2.765625-2.230469-6.160156-3.539063-9.710937-3.746094 4.082031-5.117187 7.699218-10.589843 10.804687-16.351562l18.644531 12.425781c-4.074218 6.515625-8.667968 12.691406-13.730468 18.472656-.582032-4.226562-2.722656-8.078125-6.007813-10.800781zm-207.289062 0c-3.269531 2.726563-5.402344 6.582031-5.976563 10.800781-5.046875-5.769531-9.628906-11.933594-13.703125-18.429687l18.714844-12.476563c3.097656 5.753906 6.691406 11.230469 10.742187 16.359375-3.574218.183594-6.996093 1.496094-9.777343 3.746094zm-43.4375-15.617187c1.382812 2.984374 3.03125 5.84375 4.601562 8.746093.144531.472657.328125.929688.554688 1.367188.117187.167969.28125.296875.410156.457031 2.609375 4.695312 5.476563 9.226562 8.53125 13.65625l-5.972656 5.972656c-3.421875 3.421875-8.414063 4.761719-13.089844 3.507813-4.675781-1.253907-8.332031-4.90625-9.582031-9.582031-1.253906-4.679688.082031-9.667969 3.507812-13.09375zm-36.691407 55.832031c-2.550781-2.535157-3.984374-5.984375-3.984374-9.582031 0-3.597657 1.433593-7.046876 3.984374-9.582032l6.296876-6.296875c1.457031 4.484375 3.933593 8.574219 7.238281 11.945313 3.359375 3.316406 7.449219 5.796875 11.945312 7.246094l-6.289062 6.289062c-5.300781 5.277344-13.875 5.269531-19.167969-.019531zm183.773438 46.652343c-31.171875 0-61.742188-8.589843-88.355469-24.824218l-2.609375-28.851563v-.082031c.011719-.261719.011719-.519531 0-.777344l-1.792968-19.160156 26.453124 7.535156.554688.164063 14.550781 4.128906c0 .851563.125 1.695313.375 2.507813l6.679688 21.71875c2.183593 7.175781 8.816406 12.070312 16.316406 12.039062h55.65625c7.503906.03125 14.136719-4.867188 16.316406-12.046875l6.679688-21.710937c.25-.804688.375-1.644532.375-2.488282l14.609375-4.183594.257812-.078124 26.699219-7.679688-1.792969 19.203125v.117187l-2.652344 29.722657c-26.613281 16.195312-57.167968 24.753906-88.320312 24.746093zm187.734375-56.234374c-.011719 5.480468-3.316406 10.417968-8.378906 12.515624-5.066407 2.09375-10.894531.9375-14.773438-2.933593l-6.28125-6.28125c9.140625-2.886719 16.300781-10.042969 19.191407-19.179688l6.296874 6.296875c2.523438 2.550782 3.941407 5.992188 3.945313 9.582032zm-29.585937-35.183594c5.292968 5.292968 5.292968 13.875 0 19.167968-5.292969 5.292969-13.875 5.292969-19.167969 0l-6.023438-6.027343c3.023438-4.324219 5.835938-8.761719 8.40625-13.351563.230469-.234375.449219-.484375.648438-.742187.378906-.671875.667969-1.394531.851562-2.144531 1.410157-2.644532 2.9375-5.238282 4.199219-7.960938zm80.785156-248.71875v41.46875c-9.425782 0-17.066406 7.644531-17.066406 17.066406v93.867188h-3.730469l-22.5-36.691407c.394531-1.96875.605469-3.96875.628906-5.972656 0-8.386719-3.082031-16.484375-8.652344-22.75l15.789063-23.679687c2.613281-3.921876 1.554687-9.222657-2.367188-11.835938-3.917968-2.617188-9.21875-1.558594-11.835937 2.363281l-15.878907 23.824219c-.339843-.121094-.699218-.1875-1.050781-.296875l-38.707031-63.277344zm-73.71875 93.011718c2.371094.441407 4.621094 1.386719 6.59375 2.773438 1.132812.707031 2.15625 1.570312 3.046875 2.558594 2.792969 3.140625 4.335937 7.191406 4.34375 11.394531.003906 1.609375-.253907 3.207031-.757813 4.734375-.109375.328125-.195312.660156-.265625 1-1.476562 4.414062-4.734375 8.003906-8.988281 9.898438-4.25 1.890624-9.101562 1.914062-13.367188.058593-2.242187-8.175781-5.121093-16.167969-8.613281-23.894531 3.5625-6.402344 10.792969-9.84375 18.007813-8.566406zm-41.8125.375-18.648438 12.425782c-3.097656-5.738282-6.695312-11.191406-10.757812-16.289063 8.042968-.503906 14.609375-6.621093 15.675781-14.609375 5.050781 5.769532 9.636719 11.933594 13.710937 18.429688zm-123.402344-94.582031c31.171875 0 61.742188 8.589844 88.355469 24.824219l2.609375 28.847656v.085938c0 .265625 0 .53125.042968.792968l1.792969 19.160157-41.601562-11.84375c0-.851563-.125-1.695313-.375-2.511719l-6.679688-21.714844c-2.183593-7.175781-8.816406-12.070312-16.316406-12.042968h-55.65625c-7.503906-.027344-14.136719 4.871093-16.316406 12.050781l-6.679688 21.707031c-.25.808594-.375 1.648438-.375 2.492188l-13.996093 4.011718h-.09375l-27.476563 7.867188 1.792969-19.96875 2.652344-29.011719c26.613281-16.195313 57.167968-24.753906 88.320312-24.746094zm-109.652344 76.066407c1.035156 8.035156 7.691406 14.167968 15.785156 14.546874-4.074218 5.128907-7.691406 10.601563-10.8125 16.359376l-18.710937-12.476563c4.082031-6.5 8.675781-12.660156 13.738281-18.429687zm-37.667968 26.851562c-3.453126 7.671875-6.304688 15.597656-8.53125 23.707031-4.269532 1.855469-9.117188 1.832031-13.367188-.058593-4.25-1.894532-7.507812-5.488282-8.984375-9.898438-.074219-.339844-.164063-.675781-.273437-1.007812-.488282-1.527344-.734376-3.125-.722657-4.726563 0-4.191406 1.535157-8.238281 4.308594-11.375.984375-1.085937 2.117187-2.03125 3.363281-2.800781 1.917969-1.296875 4.089844-2.167969 6.375-2.558594.992188-.199219 2.003906-.3125 3.019532-.332031 6.234374.039062 11.933593 3.523437 14.8125 9.050781zm13.746093-87.660156-38.664062 63.246094c-.339844.105468-.707031.171874-1.046875.300781l-15.882813-23.808594c-2.613281-3.921875-7.914062-4.980469-11.835937-2.363281-3.917969 2.617187-4.976563 7.914062-2.363282 11.835937l15.789063 23.679688-.0625.058593c-5.554687 6.265626-8.625 14.351563-8.625 22.726563.027344 2.003906.242187 4.003906.640625 5.972656l-22.488281 36.691407h-3.753907v-93.867188c0-9.421875-7.640624-17.066406-17.066406-17.066406v-41.453125zm0 0"/><path d="m256 221.851562c18.851562 0 34.132812-15.285156 34.132812-34.136718 0-18.851563-15.28125-34.132813-34.132812-34.132813s-34.132812 15.28125-34.132812 34.132813c0 18.851562 15.28125 34.136718 34.132812 34.136718zm0-51.203124c9.425781 0 17.066406 7.640624 17.066406 17.066406 0 9.425781-7.640625 17.066406-17.066406 17.066406s-17.066406-7.640625-17.066406-17.066406c0-9.425782 7.640625-17.066406 17.066406-17.066406zm0 0"/></svg>