<svg height="511pt" viewBox="0 0 511.99163 511" width="511pt" xmlns="http://www.w3.org/2000/svg"><path d="m422.5625 267.484375-4.351562 39.339844c-.257813.765625-.511719 1.449219-.769532 2.132812l-28.671875 42.835938c-2.988281 4.367187-7.933593 6.984375-13.226562 6.996093h-25.683594l25.597656-51.199218v-83.371094zm0 0" fill="#fec108"/><path d="m405.496094 263.21875-4.351563 39.335938c-.257812.769531-.511719 1.453124-.769531 2.136718l-28.671875 42.835938c-2.988281 4.367187-7.933594 6.984375-13.226563 6.996094h-4.351562l21.332031-42.664063v-76.203125zm0 0" fill="#ffeb3a"/><path d="m392.523438 207.75v19.542969l-17.066407 80.296875h-238.933593l-17.066407-80.296875v-19.542969c.019531-1.632812.492188-3.226562 1.367188-4.605469l13.910156-20.824219c1.144531-1.789062 2.957031-3.050781 5.03125-3.496093l30.894531-7.765625h170.664063l30.890625 7.765625c2.078125.445312 3.890625 1.707031 5.035156 3.496093l13.910156 20.824219c.871094 1.378907 1.34375 2.972657 1.363282 4.605469zm0 0" fill="#37474f"/><path d="m371.191406 207.75v19.542969l-17.066406 80.296875h-217.601562l-17.066407-80.296875v-19.542969c.019531-1.632812.492188-3.226562 1.367188-4.605469l13.910156-20.824219c1.144531-1.789062 2.957031-3.050781 5.03125-3.496093l30.894531-7.765625h149.332032l30.890624 7.765625c2.078126.445312 3.890626 1.707031 5.035157 3.496093l13.910156 20.824219c.871094 1.378907 1.34375 2.972657 1.363281 4.605469zm0 0" fill="#607d8b"/><path d="m162.125 358.789062h-25.683594c-5.292968-.011718-10.238281-2.628906-13.230468-6.996093l-28.671876-42.835938c-.253906-.683593-.511718-1.367187-.765624-2.132812l-4.351563-39.339844 30.035156-27.5625 17.066407-15.703125v83.371094zm0 0" fill="#fec108"/><path d="m142.925781 358.789062h-6.484375c-5.292968-.011718-10.238281-2.628906-13.230468-6.996093l-28.671876-42.835938c-.253906-.683593-.511718-1.367187-.765624-2.132812l-4.351563-39.339844 30.035156-27.5625v71.9375zm0 0" fill="#ffeb3a"/><path d="m131.746094 225.074219v34.730469l-40.019532 7.253906-2.304687.425781-3.242187.597656c-2.109376.316407-4.261719-.140625-6.058594-1.28125-2.027344-1.242187-3.421875-3.292969-3.839844-5.632812l-2.988281-16.808594c-.421875-2.242187.070312-4.5625 1.371093-6.4375 1.296876-1.875 3.292969-3.152344 5.539063-3.546875l7.765625-1.367188 30.976562-5.628906.511719-.085937zm0 0" fill="#37474f"/><path d="m434.421875 244.359375-3.328125 16.808594c-1.382812 4.84375-6.226562 7.839843-11.175781 6.914062l-3.585938-.597656-2.558593-.425781-38.230469-6.144532v-34.730468l7.082031 1.109375 35.328125 5.714843 1.792969.257813 6.914062 1.109375c2.382813.226562 4.566406 1.425781 6.035156 3.316406 1.472657 1.886719 2.097657 4.300782 1.726563 6.667969zm0 0" fill="#37474f"/><path d="m421.625 240.09375-3.328125 16.808594c-1.386719 4.84375-6.230469 7.835937-11.179687 6.914062l-3.585938-.597656-2.558594-.429688-25.429687-4.09375v-32.511718l7.082031 1.109375 35.328125 5.714843 1.792969.257813c1.679687 1.84375 2.378906 4.382813 1.878906 6.828125zm0 0" fill="#607d8b"/><path d="m118.945312 227.378906v32.425782l-38.824218 6.996093c-2.027344-1.242187-3.421875-3.292969-3.839844-5.632812l-2.988281-16.808594c-.421875-2.242187.070312-4.5625 1.371093-6.4375 1.296876-1.875 3.292969-3.152344 5.539063-3.546875l7.765625-1.367188zm0 0" fill="#607d8b"/><path d="m238.925781 188.125c3.019531.011719 5.972657.871094 8.53125 2.472656-9.984375 5.804688-17.066406 21.675782-17.066406 40.191406l-15.273437-15.273437c3.582031-16.042969 12.886718-27.390625 23.808593-27.390625zm0 0" fill="#9e9e9e"/><path d="m315.726562 77.957031v118.699219l-34.136718 34.132812c.03125-5.144531-.570313-10.273437-1.789063-15.273437l18.859375-18.859375v-115.796875l13.992188-9.984375c1.988281 1.816406 3.105468 4.394531 3.074218 7.082031zm0 0" fill="#9e9e9e"/><path d="m298.660156 80.859375v115.796875l-18.859375 18.859375c-3.585937-16.042969-12.886719-27.390625-23.808593-27.390625-3.019532.011719-5.976563.871094-8.535157 2.472656-2.558593-1.601562-5.511719-2.460937-8.53125-2.472656-10.921875 0-20.226562 11.347656-23.808593 27.390625l-18.859376-18.859375v-118.699219c-.03125-2.6875 1.085938-5.265625 3.074219-7.082031l36.863281 26.285156c3.40625 2.425782 7.222657 4.214844 11.261719 5.289063 9.765625 2.46875 20.117188.535156 28.332031-5.289063zm0 0" fill="#cfd8dc"/><path d="m279.800781 215.515625-15.277343 15.273437c0-18.515624-7.082032-34.386718-17.066407-40.191406 2.558594-1.601562 5.515625-2.460937 8.535157-2.472656 10.921874 0 20.222656 11.347656 23.808593 27.390625zm0 0" fill="#9e9e9e"/><path d="m298.660156 77.957031v2.902344l-22.871094 16.300781c-8.214843 5.824219-18.566406 7.757813-28.332031 5.289063 4.042969-1.074219 7.859375-2.863281 11.265625-5.289063l36.863282-26.285156c1.984374 1.816406 3.105468 4.394531 3.074218 7.082031zm0 0" fill="#9e9e9e"/><path d="m281.589844 179.589844c.007812 5.375-.621094 10.730468-1.875 15.957031-2.75-6.769531-8.285156-12.027344-15.191406-14.417969-5.503907-2.050781-11.5625-2.050781-17.066407 0-6.902343 2.390625-12.4375 7.648438-15.1875 14.417969-1.125-4.726563-1.753906-9.5625-1.878906-14.417969v-1.539062c0-18.515625 7.082031-34.386719 17.066406-40.191406 2.558594-1.601563 5.515625-2.460938 8.535157-2.472657 14.164062 0 25.597656 19.113281 25.597656 42.664063zm0 0" fill="#fec108"/><path d="m264.523438 179.589844v1.539062c-.121094 4.855469-.75 9.691406-1.875 14.417969-2.75-6.769531-8.285157-12.027344-15.191407-14.417969-5.503906-2.050781-11.5625-2.050781-17.066406 0v-1.539062c0-18.515625 7.082031-34.386719 17.066406-40.191406 9.984375 5.804687 17.066407 21.675781 17.066407 40.191406zm0 0" fill="#ffeb3a"/><path d="m131.738281 141.191406h-92.828125c-3.914062 0-7.324218-2.664062-8.277344-6.460937l-6.910156-27.671875h123.203125l-6.910156 27.671875c-.953125 3.796875-4.363281 6.460937-8.277344 6.460937zm0 0" fill="#424242"/><path d="m473.070312 141.191406h-92.824218c-3.914063 0-7.328125-2.664062-8.277344-6.460937l-6.914062-27.671875h123.207031l-6.914063 27.671875c-.949218 3.796875-4.363281 6.460937-8.277344 6.460937zm0 0" fill="#424242"/><path d="m392.523438 111.324219h-81.066407v-34.132813h43.351563zm0 0" fill="#607d8b"/><path d="m200.523438 77.191406v34.132813h-64l20.652343-34.132813zm0 0" fill="#607d8b"/><path d="m161.953125 101.085938c.511719 2.507812-.128906 5.117187-1.75 7.101562s-4.046875 3.136719-6.613281 3.136719h-136.53125c-2.5625 0-4.992188-1.152344-6.613282-3.136719-1.621093-1.984375-2.261718-4.59375-1.75-7.101562l5.121094-25.601563c.808594-3.972656 4.304688-6.828125 8.363282-6.828125h126.292968c4.054688 0 7.550782 2.855469 8.363282 6.828125zm0 0" fill="#ff9801"/><path d="m503.289062 101.085938c.511719 2.507812-.132812 5.117187-1.753906 7.101562s-4.046875 3.136719-6.609375 3.136719h-136.535156c-2.5625 0-4.988281-1.152344-6.609375-3.136719s-2.265625-4.59375-1.753906-7.101562l5.121094-25.601563c.8125-3.972656 4.308593-6.828125 8.363281-6.828125h126.292969c4.054687 0 7.550781 2.855469 8.363281 6.828125zm0 0" fill="#ff9801"/><path d="m140.621094 101.085938c.511718 2.507812-.128906 5.117187-1.75 7.101562s-4.050782 3.136719-6.613282 3.136719h-115.199218c-2.5625 0-4.992188-1.152344-6.613282-3.136719-1.621093-1.984375-2.261718-4.59375-1.75-7.101562l5.121094-25.601563c.808594-3.972656 4.304688-6.828125 8.363282-6.828125h104.957031c4.058593 0 7.554687 2.855469 8.363281 6.828125zm0 0" fill="#ffb301"/><path d="m481.953125 101.085938c.511719 2.507812-.128906 5.117187-1.75 7.101562s-4.046875 3.136719-6.613281 3.136719h-115.199219c-2.5625 0-4.988281-1.152344-6.609375-3.136719s-2.265625-4.59375-1.753906-7.101562l5.121094-25.601563c.8125-3.972656 4.308593-6.828125 8.363281-6.828125h104.960937c4.054688 0 7.550782 2.855469 8.363282 6.828125zm0 0" fill="#ffb301"/><path d="m273.058594 34.523438v38.402343h-34.132813v-38.402343c0-4.710938 3.820313-8.53125 8.53125-8.53125h17.066407c4.714843 0 8.535156 3.820312 8.535156 8.53125zm0 0" fill="#424242"/><path d="m312.652344 70.875-36.863282 26.285156c-9.480468 6.804688-21.796874 8.253906-32.597656 3.839844-2.480468-.992188-4.828125-2.28125-6.996094-3.839844l-36.863281-26.285156c1.472657-1.402344 3.425781-2.195312 5.460938-2.21875h102.398437c2.035156.023438 3.988282.816406 5.460938 2.21875zm0 0" fill="#37474f"/><path d="m287.054688 70.875-36.867188 26.285156c-2.167969 1.558594-4.515625 2.847656-6.996094 3.839844-2.480468-.992188-4.828125-2.28125-6.996094-3.839844l-36.863281-26.285156c1.472657-1.402344 3.425781-2.195312 5.460938-2.21875h76.796875c2.035156.023438 3.988281.816406 5.464844 2.21875zm0 0" fill="#607d8b"/><path d="m273.058594 448.390625v31.316406c-.003906 4.546875-1.8125 8.910157-5.035156 12.117188l-12.03125 12.035156-12.03125-12.035156c-3.222657-3.207031-5.035157-7.570313-5.035157-12.117188v-31.316406" fill="#424242"/><path d="m290.125 350.257812-7.851562 94.550782c-.394532 4.421875-4.089844 7.824218-8.53125 7.847656h-35.5c-4.441407-.023438-8.136719-3.425781-8.535157-7.847656l-7.847656-94.550782zm0 0" fill="#424242"/><path d="m273.058594 350.257812-7.851563 94.550782c-.394531 4.421875-4.089843 7.824218-8.53125 7.847656h-18.433593c-4.441407-.023438-8.136719-3.425781-8.535157-7.847656l-7.847656-94.550782zm0 0" fill="#9e9e9e"/><path d="m207.179688 243.164062-17.066407 34.132813c-1.457031 2.898437-4.433593 4.714844-7.679687 4.695313h-7.507813l-3.925781-23.554688c-.226562-1.371094-.109375-2.777344.339844-4.09375l7.851562-23.554688h20.308594c2.972656-.019531 5.742188 1.507813 7.3125 4.035157 1.566406 2.527343 1.707031 5.683593.367188 8.339843zm0 0" fill="#424242"/><path d="m255.992188 256.390625v59.734375l-34.132813 39.851562c-9.742187-1.433593-16.964844-9.78125-16.984375-19.628906.019531-3.054687.75-6.066406 2.136719-8.789062l1.109375-2.902344 20.734375-52.5625c1.179687-2.910156 3.359375-5.300781 6.144531-6.742188l15.359375-7.59375c1.746094-.882812 3.675781-1.351562 5.632813-1.367187zm0 0" fill="#607d8b"/><path d="m290.125 355.976562-5.375-6.230468-28.757812-33.621094v-59.734375c1.957031.015625 3.882812.484375 5.632812 1.367187l15.359375 7.59375c2.785156 1.441407 4.964844 3.832032 6.144531 6.742188l18.773438 47.613281 1.960937 4.949219 1.109375 2.902344c2.839844 5.679687 2.777344 12.375-.164062 18.003906-2.9375 5.625-8.402344 9.5-14.683594 10.414062zm0 0" fill="#37474f"/><path d="m284.75 349.746094-28.757812-33.621094v-52.738281l3.925781 1.964843c2.785156 1.441407 4.964843 3.832032 6.144531 6.742188l18.773438 47.613281 1.960937 4.949219 1.109375 2.902344c3.726562 7.324218 2.464844 16.195312-3.15625 22.1875zm0 0" fill="#607d8b"/><path d="m279.714844 195.546875v.085937c-3.753906 15.617188-12.972656 26.625-23.722656 26.625-6.292969-.328124-12.074219-3.578124-15.617188-8.789062-3.953125-5.292969-6.714844-11.375-8.105469-17.835938v-.085937c3.945313-9.628906 13.3125-15.929687 23.722657-15.957031 2.398437-.011719 4.785156.332031 7.082031 1.023437 7.519531 2.207031 13.636719 7.699219 16.640625 14.933594zm0 0" fill="#9e9e9e"/><path d="m266.914062 187.015625v.085937c-3.753906 15.613282-12.96875 26.621094-23.722656 26.621094-.945312 0-1.886718-.085937-2.816406-.253906-3.953125-5.292969-6.714844-11.375-8.105469-17.835938v-.085937c3.945313-9.628906 13.3125-15.929687 23.722657-15.957031 2.398437-.011719 4.785156.332031 7.082031 1.023437 1.617187 1.914063 2.914062 4.074219 3.839843 6.402344zm0 0" fill="#cfd8dc"/><path d="m290.125 355.976562-27.308594 36.351563c-1.59375 2.171875-4.128906 3.453125-6.824218 3.453125-2.695313 0-5.230469-1.28125-6.828126-3.453125l-4.011718-5.292969-23.292969-31.058594 31.402344-36.609374 2.730469-3.242188zm0 0" fill="#37474f"/><path d="m277.324219 347.441406-27.304688 36.351563c-1.183593 1.628906-2.910156 2.777343-4.867187 3.242187l-23.292969-31.058594 31.402344-36.609374zm0 0" fill="#607d8b"/><path d="m340.984375 258.4375-3.925781 23.554688h-7.507813c-3.226562.035156-6.1875-1.792969-7.597656-4.695313l-17.066406-34.132813c-1.332031-2.640624-1.199219-5.78125.347656-8.304687 1.546875-2.519531 4.289063-4.058594 7.246094-4.070313h20.3125l7.847656 23.554688c.453125 1.316406.570313 2.722656.34375 4.09375zm0 0" fill="#424242"/><path d="m248.140625 220.210938c-3.441406 3.859374-8.3125 6.140624-13.480469 6.3125-10.753906 0-19.96875-11.007813-23.722656-26.625v-.082032c-1.253906-5.226562-1.886719-10.585937-1.878906-15.957031l-23.039063-23.042969 6.398438-4.265625c2.394531-1.601562 3.835937-4.289062 3.839843-7.167969v-3.925781l34.132813 34.132813c-.003906 5.375.625 10.730468 1.878906 15.957031v.085937c1.671875 10.03125 7.414063 18.925782 15.871094 24.578126zm0 0" fill="#424242"/><path d="m337.058594 281.992188-4.265625 25.597656h-8.535157c-4.710937 0-8.53125 3.820312-8.53125 8.535156 0 4.710938-3.820312 8.53125-8.535156 8.53125h-3.328125l-1.960937-4.949219-2.730469-6.910156-16.042969-40.703125c-1.179687-2.910156-3.359375-5.300781-6.144531-6.742188l-15.359375-7.59375c-3.535156-1.824218-7.730469-1.824218-11.265625 0l-9.386719 4.605469-5.972656 2.988281c-2.785156 1.441407-4.964844 3.832032-6.144531 6.742188l-20.734375 52.5625h-3.328125c-4.714844 0-8.535157-3.820312-8.535157-8.53125 0-4.714844-3.820312-8.535156-8.53125-8.535156h-8.535156l-4.265625-25.597656h7.507813c3.246094.019531 6.222656-1.796876 7.679687-4.695313l17.066407-34.132813c1.339843-2.65625 1.199218-5.8125-.367188-8.339843-1.570312-2.527344-4.339844-4.054688-7.3125-4.035157h-20.308594l7.425782-22.269531c.691406-2.144531.507812-4.476562-.511719-6.484375l-15.445313-30.976562 15.359375-10.242188 23.039063 23.042969c-.007813 5.371094.625 10.730469 1.878906 15.957031v.082032c3.753906 15.617187 12.96875 26.625 23.722656 26.625 5.167969-.171876 10.039063-2.453126 13.480469-6.3125 2.398437 1.339843 5.101563 2.046874 7.851563 2.046874 10.75 0 19.96875-11.007812 23.722656-26.625v-.085937c1.253906-5.226563 1.882812-10.582031 1.875-15.957031l17.921875-17.917969 20.480469 13.652344-15.445313 30.976562c-1.019531 2.007813-1.203125 4.339844-.511719 6.484375l6.144532 18.347656c-2.15625.585938-3.996094 1.996094-5.121094 3.925782-1.382813 2.507812-1.445313 5.539062-.171875 8.105468l17.066406 34.132813c1.410156 2.902344 4.371094 4.730469 7.597656 4.695313zm0 0" fill="#9e9e9e"/><path d="m325.367188 208.519531 7.425781 22.269531h-20.3125c-.78125-.023437-1.5625.09375-2.300781.34375l-6.144532-18.347656c-.691406-2.144531-.507812-4.476562.511719-6.484375l15.445313-30.976562-20.480469-13.652344 16.214843-16.214844v3.925781c.003907 2.878907 1.445313 5.566407 3.839844 7.167969l21.757813 14.507813-15.445313 30.976562c-1.019531 2.007813-1.203125 4.339844-.511718 6.484375zm0 0" fill="#424242"/><path d="m311.457031 235.058594h-6.398437c1.125-1.929688 2.964844-3.339844 5.121094-3.925782zm0 0" fill="#95a5a5"/><path d="m324.257812 119.859375h34.132813l5.300781 21.195313c1.894532 7.601562 8.726563 12.9375 16.5625 12.9375h92.808594c7.835938 0 14.667969-5.335938 16.5625-12.9375l5.300781-21.195313c5.113281 0 9.957031-2.296875 13.199219-6.25 3.242188-3.957031 4.539062-9.15625 3.535156-14.171875l-5.121094-25.601562c-1.597656-7.972657-8.601562-13.710938-16.734374-13.710938h-126.292969c-6.089844.007812-11.710938 3.261719-14.753907 8.53125h-27.058593c-2.972657-5.222656-8.5-8.472656-14.507813-8.53125h-25.601562v-25.601562c0-9.425782-7.640625-17.066407-17.066406-17.066407h-17.066407c-1.472656.019531-2.941406.234375-4.359375.640625l-15.207031-15.207031c-3.347656-3.234375-8.671875-3.1875-11.960937.105469-3.292969 3.289062-3.339844 8.613281-.105469 11.960937l15.207031 15.207031c-.40625 1.417969-.621094 2.886719-.640625 4.359376v25.601562h-25.597656c-6.011719.058594-11.535157 3.308594-14.507813 8.53125h-27.066406c-3.042969-5.269531-8.664062-8.519531-14.746094-8.53125h-126.292968c-8.132813.003906-15.128907 5.742188-16.726563 13.710938l-5.121094 25.601562c-1.003906 5.011719.292969 10.210938 3.53125 14.167969 3.238281 3.953125 8.082031 6.25 13.195313 6.253906l5.296875 21.195313c1.898437 7.601562 8.730469 12.9375 16.566406 12.9375h92.808594c7.835937 0 14.664062-5.335938 16.5625-12.9375l5.296875-21.195313h34.136718v29.59375l-20.53125 13.652344-29.363281 7.390625c-4.179687.921875-7.828125 3.460937-10.148437 7.054687l-14.046875 21.019531c-1.753907 2.742188-2.695313 5.925782-2.710938 9.179688v12.417969l-32.230469 5.808593c-4.472656.796876-8.445312 3.339844-11.035156 7.070313-2.59375 3.726563-3.589844 8.335937-2.773437 12.804687l3.003906 16.863282c1.335937 7.03125 6.882813 12.503906 13.9375 13.738281l3.496094 31.34375c.074219.679687.234375 1.351563.46875 1.996094l.769531 2.089843c.234375.644532.546875 1.257813.929688 1.828126l28.6875 42.792968c4.523437 6.757813 12.113281 10.816406 20.242187 10.820313h25.703125c2.957031 0 5.699219-1.53125 7.253906-4.046875 1.554688-2.515625 1.695313-5.65625.375-8.300782l-19.414062-38.851562h37.386718c.019532 6.351562 3.582032 12.164062 9.230469 15.070312-.367187 1.683594-.574219 3.394532-.613281 5.117188.078125 11.613281 7.195312 22.015625 17.988281 26.292969l6.902344 82.902343c.511719 5.820313 3.96875 10.976563 9.15625 13.660157v20.539062c-.015625 6.816407 2.699219 13.351563 7.535156 18.152344l12.03125 12.03125c3.332031 3.332031 8.734375 3.332031 12.066407 0l12.03125-12.03125c4.839843-4.800781 7.554687-11.335937 7.535156-18.152344v-20.539062c5.1875-2.6875 8.636718-7.835938 9.148437-13.652344l6.90625-82.773437c6.335938-2.507813 11.566407-7.203126 14.734375-13.234376 2.964844-5.625 3.929688-12.085937 2.738282-18.332031 5.601562-2.9375 9.117187-8.726562 9.140624-15.050781h37.386719l-19.464843 38.851562c-1.328126 2.652344-1.179688 5.804688.386718 8.320313 1.566406 2.519531 4.328125 4.042969 7.292969 4.027344h25.726563c8.140624.007812 15.746093-4.050781 20.265624-10.820313l28.699219-42.792968c.453125-.761719.835938-1.5625 1.144531-2.390626l.519532-1.441406c.25-.671875.421875-1.371094.503906-2.082031l3.457031-31.328125c7.070313-1.25 12.628907-6.753906 13.949219-13.8125l2.988281-16.769531c.828125-4.480469-.167969-9.105469-2.769531-12.84375-2.597656-3.742188-6.585938-6.289063-11.070312-7.074219l-32.214844-5.800781v-12.417969c-.019532-3.332031-.996094-6.589844-2.808594-9.386719l-13.738281-20.5625c-2.316407-3.691406-5.996094-6.308593-10.238281-7.289062l-29.457032-7.40625-20.558594-13.722657zm-36.378906 41.359375c-4.8125-19.363281-17.089844-32.828125-31.886718-32.828125-14.796876 0-27.078126 13.464844-31.90625 32.828125l-19.292969-19.292969v-56.671875l26.453125 18.851563c14.828125 10.585937 34.746094 10.585937 49.578125 0l26.367187-18.867188v56.667969zm-31.886718 26.90625c6 .027344 11.53125 3.257812 14.507812 8.472656-3.246094 10.359375-9.054688 17.125-14.507812 17.125-5.453126 0-11.265626-6.765625-14.507813-17.125 2.972656-5.214844 8.503906-8.445312 14.507813-8.472656zm-16.835938-12.554688c1.140625-17.449218 9.351562-30.113281 16.835938-30.113281 7.484374 0 15.691406 12.664063 16.835937 30.113281-10.417969-6.015624-23.253906-6.015624-33.671875 0zm-.230469-98.378906h50.191407l-18.253907 13.03125c-8.898437 6.351563-20.847656 6.351563-29.746093 0l-18.253907-13.03125zm85.332031 8.53125h20.128907l-2.746094 13.722656c-.207031 1.101563-.304687 2.222657-.289063 3.34375h-17.09375zm148.796876 51.203125h-92.808594l-4.265625-17.066406h101.355469zm16.75-59.734375 5.121093 25.597656h-136.535156l5.121094-25.597656zm-242.347657-42.667968h17.066407v25.601562h-17.066407zm-225.277343 42.667968h126.292968l5.117188 25.597656h-136.53125zm109.550781 59.734375h-92.820313l-4.265625-17.066406h101.359375zm38.929687-34.136719c.011719-1.121093-.085937-2.246093-.292968-3.351562l-2.789063-13.714844h20.148437v17.066406zm11.542969 170.667969-2.730469-16.417969 5.863282-17.714843h14.183593l-17.066406 34.132812zm-54.210937-39.023437v17.390625l-43.308594 7.851562-2.992188-16.9375zm8.429687 115.824218c-2.445313-.003906-4.734375-1.222656-6.101563-3.25l-28.117187-41.976562-3.414063-30.59375 29.203126-5.246094v38.398438c.015624 1.242187.308593 2.46875.851562 3.585937 0 .066407 0 .160157.050781.230469l19.441407 38.851562zm8.636719-51.199218v-74.839844c0-.253906-.128906-.476562-.152344-.742188.015625-.25.015625-.503906 0-.757812-.097656-.292969-.210938-.574219-.34375-.855469-.152344-.550781-.367188-1.085937-.640625-1.59375-.242187-.464843-.527344-.902343-.851563-1.3125-.34375-.433593-.726562-.828125-1.152343-1.179687-.40625-.324219-.839844-.609375-1.296875-.851563-.480469-.273437-.988282-.496093-1.511719-.667969-.535156-.164062-1.085937-.273437-1.644531-.332031-.308594-.097656-.621094-.175781-.941406-.238281-.25.039062-.496094.089844-.742188.152344-.261719 0-.503906-.058594-.765625 0l-7.023437 1.296875v-9.214844l13.933593-20.777344 24.242188-6.09375 12.433593 24.804688-15.359374 45.996093c-.855469 2.585938-1.0625 5.34375-.605469 8.03125l6.527343 39.25zm128.683594 145.203125v-.136719zm0-.136719h-35.5l-4.882813-58.597656 8.980469 11.945312c3.222656 4.296875 8.28125 6.828125 13.652344 6.828125 5.371093 0 10.429687-2.53125 13.652343-6.828125l8.976563-11.945312zm-17.75-114.886719 10.691406 12.484375h-21.382813zm21.332031 29.550781-21.332031 28.46875-21.332032-28.46875zm19.996093-27.414062c1.644532 3.21875 1.613282 7.042969-.078124 10.238281-.449219.847657-1.003907 1.636719-1.648438 2.347657-1.492188-1.378907-3.4375-2.175782-5.46875-2.238282h-.972656l-24.628906-28.753906v-44.253906l8.535156 4.214844c.949218.492187 1.695312 1.304687 2.105468 2.292968zm-49.863281-18.40625-24.625 28.753906h-.972656c-2.027344.050782-3.964844.820313-5.472656 2.175782-1.898438-2.054688-2.960938-4.75-2.976563-7.550782.066406-2.011718.605469-3.976562 1.570313-5.742187l21.769531-55.269531c.382812-.992188 1.101562-1.820313 2.03125-2.339844l8.675781-4.265625zm14.507813 172.824219-5.972656 5.972656-5.972657-5.972656c-1.636719-1.601563-2.558593-3.796875-2.5625-6.085938v-18.515625h17.066407v18.515625c0 2.289063-.921876 4.484375-2.558594 6.085938zm67.585937-212.335938-17.070312-34.132812h14.191406l5.914063 17.714843-2.738282 16.417969zm52.121094 73.550781c-1.363281 2.03125-3.648437 3.25-6.09375 3.25h-11.945313l19.503907-38.851562c.042969-.070312 0-.164062.0625-.230469.523437-1.121093.792969-2.347656.792969-3.585937v-38.398438l29.207031 5.289063-3.359375 30.441406zm45.695313-87.316406-43.375-7.867187v-17.371094l46.300781 8.414063zm-43.375-51.941406v9.335938l-7.023438-1.261719c-.265625 0-.503906.042969-.757812 0-.25-.058594-.5-.105469-.753907-.136719-.320312.046875-.640625.113281-.953125.195312-.539062.054688-1.070312.164063-1.589844.324219-.550781.179688-1.082031.410157-1.585937.691407-.429687.25-.839844.535156-1.21875.855468-.449219.367188-.855469.78125-1.214844 1.234375-.316406.398438-.601562.820313-.851562 1.265625-.265625.515625-.480469 1.058594-.640625 1.621094-.132813.273438-.246094.558594-.339844.851562-.015625.253907-.015625.507813 0 .761719 0 .261719-.144531.484375-.144531.742188v74.828125h-24.03125l6.492187-39.03125c.492188-2.804688.277344-5.691406-.628906-8.390625l-15.222656-45.796875 12.386718-24.839844 24.261719 6.066406zm-53.660157-33.765625-12.046875 24.234375c-2.027344 4.035156-2.375 8.707031-.964844 12.996094l3.652344 11.042968h-8.53125c-5.921875.007813-11.417968 3.082032-14.519531 8.125-3.105469 5.042969-3.371094 11.332032-.707031 16.621094l17.066406 34.132813c2.503906 4.960937 7.296875 8.363281 12.800781 9.089843l-1.5 8.832032h-1.324219c-7.675781.03125-14.390624 5.183594-16.402343 12.59375l-16.878907-42.800782c-1.972656-4.820312-5.605468-8.777343-10.238281-11.15625l-15.25-7.535156c-2.890625-1.457031-6.078125-2.230468-9.316406-2.261718-.078125 0-.136719 0-.207031 0-.078125.015624-.160156.03125-.238282.054687-3.191406.007813-6.332031.761719-9.179687 2.199219l-15.480469 7.679687c-4.617187 2.402344-8.222656 6.371094-10.171875 11.195313l-16.820312 42.617187c-2.007813-7.386719-8.691407-12.535156-16.347657-12.585937h-1.308593l-1.476563-8.882813c5.503906-.726562 10.296875-4.125 12.800782-9.082031l17.066406-34.132812c2.652344-5.292969 2.367187-11.585938-.75-16.621094-3.117188-5.03125-8.621094-8.09375-14.539063-8.082032h-8.535156l3.710937-11.144531c1.375-4.261719 1.015626-8.890625-1.003906-12.886719l-12.085937-24.242187 15.539062-10.367187c1.003907-.699219 1.929688-1.503907 2.765625-2.398438l22.023438 22.023438c1.253906 26.933593 15.738281 47.546874 34.058594 47.546874 18.320312 0 32.800781-20.613281 34.011718-47.546874l22.035156-22.03125c.847657.90625 1.789063 1.726562 2.808594 2.441406zm0 0"/></svg>