<svg height="511pt" viewBox="-1 0 511 511.97037" width="511pt" xmlns="http://www.w3.org/2000/svg"><path d="m289.558594 123.671875c.019531 6.199219-.636719 12.378906-1.964844 18.433594-3.300781-9.191407-10.382812-16.523438-19.453125-20.136719-4.019531-1.722656-8.347656-2.597656-12.714844-2.5625-3.625-.007812-7.226562.566406-10.667969 1.707031-9.996093 3.351563-17.914062 11.082031-21.503906 20.992188-1.328125-6.054688-1.984375-12.234375-1.964844-18.433594-.011718-.570313.015626-1.140625.085938-1.703125.34375-23.808594 10.070312-43.863281 23.382812-50.945312 3.25-1.851563 6.925782-2.824219 10.667969-2.816407 18.855469 0 34.132813 24.832031 34.132813 55.464844zm0 0" fill="#00695c"/><path d="m268.222656 123.671875c.023438 6.199219-.636718 12.378906-1.960937 18.433594-3.589844-9.910157-11.507813-17.640625-21.503907-20.992188-3.441406-1.140625-7.042968-1.714843-10.667968-1.707031-4.367188-.035156-8.699219.839844-12.714844 2.5625.34375-23.808594 10.070312-43.863281 23.382812-50.945312 13.3125 7.082031 23.039063 27.136718 23.382813 50.945312.070313.5625.097656 1.132812.082031 1.703125zm0 0" fill="#009688"/><path d="m402.367188 256.195312c3.875.875 6.636718 4.304688 6.65625 8.277344v5.292969c-.003907 2.074219-.761719 4.074219-2.132813 5.628906l-23.464844 26.371094-22.699219 25.597656-17.410156 19.542969c-1.605468 1.859375-3.945312 2.917969-6.398437 2.902344h-162.988281c-2.453126.015625-4.792969-1.042969-6.398438-2.902344l-17.410156-19.542969-22.695313-25.597656-23.46875-26.371094c-1.371093-1.554687-2.128906-3.554687-2.132812-5.628906v-5.292969c.023437-3.972656 2.78125-7.402344 6.65625-8.277344zm0 0" fill="#4e342e"/><path d="m68.457031 307.652344-38.398437 44.714844-20.480469-52.054688c-1.03125-2.636719-.679687-5.613281.9375-7.933594l24.832031-36.609375c1.820313-2.628906 4.949219-4.03125 8.121094-3.636719 3.175781.394532 5.867188 2.519532 6.984375 5.515626zm0 0" fill="#bbd1b5"/><path d="m139.113281 503.40625-59.304687-30.378906c-1.867188-.894532-3.308594-2.488282-4.011719-4.4375l-45.738281-116.136719v-.085937l38.398437-44.714844zm0 0" fill="#7f5b53"/><path d="m68.457031 307.652344-38.398437 44.714844-.769532-1.964844-19.710937-50.089844c-1.03125-2.636719-.679687-5.613281.9375-7.933594l15.703125-23.125 9.128906-13.484375c1.820313-2.628906 4.949219-4.03125 8.121094-3.636719 3.175781.394532 5.867188 2.519532 6.984375 5.515626zm0 0" fill="#9e9d24"/><path d="m139.113281 503.40625-26.195312-13.398438-33.109375-16.980468c-1.867188-.894532-3.308594-2.488282-4.011719-4.4375l-45.738281-116.136719v-.085937l23.382812-27.222657 15.015625-17.492187zm0 0" fill="#4e342e"/><path d="m112.917969 494.277344-33.109375-16.984375c-1.867188-.890625-3.308594-2.488281-4.011719-4.433594l-45.738281-116.140625v-.085938l23.382812-27.21875zm0 0" fill="#795548"/><path d="m95.339844 382.148438 54.78125-54.785157 32.597656-32.597656-22.441406-25.855469-32.851563 32.855469-44.886719 44.882813zm0 0" fill="#424242"/><path d="m480.789062 352.367188v.085937l-45.738281 116.136719c-.703125 1.949218-2.140625 3.542968-4.011719 4.4375l-59.304687 30.378906 9.554687-26.453125 59.308594-164.351563 1.792969-4.949218zm0 0" fill="#4e342e"/><path d="m463.722656 339.566406v.085938l-45.738281 116.136718c-.703125 1.949219-2.144531 3.542969-4.011719 4.4375l-32.683594 16.726563 59.308594-164.351563zm0 0" fill="#795548"/><path d="m501.269531 300.3125-20.480469 52.054688-16.296874-19.03125-22.101563-25.683594 18.003906-50.003906c1.15625-2.960938 3.839844-5.046876 6.992188-5.441407 3.152343-.390625 6.265625.976563 8.113281 3.5625l24.832031 36.609375c1.617188 2.320313 1.96875 5.296875.9375 7.933594zm0 0" fill="#9e9d24"/><path d="m51.390625 324.71875-22.101563 25.683594-19.710937-50.089844c-1.03125-2.636719-.679687-5.613281.9375-7.933594l15.703125-23.125c3.253906.253906 6.058594 2.390625 7.167969 5.460938zm0 0" fill="#cddc39"/><path d="m484.203125 283.246094-19.710937 50.089844-22.101563-25.683594 18.003906-50.003906c1.113281-3.070313 3.914063-5.207032 7.167969-5.464844l15.703125 23.128906c1.617187 2.320312 1.96875 5.296875.9375 7.933594zm0 0" fill="#cddc39"/><path d="m415.507812 382.148438-54.78125-54.785157-32.597656-32.597656 22.441406-25.855469 77.738282 77.738282zm0 0" fill="#424242"/><path d="m287.59375 142.105469v.085937c-1.425781 6.984375-3.960938 13.695313-7.507812 19.882813-4.59375 9.675781-13.988282 16.175781-24.660157 17.066406-10.675781-.890625-20.070312-7.390625-24.664062-17.066406-3.546875-6.1875-6.078125-12.898438-7.507813-19.882813v-.085937c4.828125-13.621094 17.714844-22.726563 32.171875-22.726563 14.453125 0 27.339844 9.105469 32.167969 22.726563zm0 0" fill="#00695c"/><path d="m187.15625 123.671875c0-21.207031-7.640625-38.398437-17.066406-38.398437-9.425782 0-17.066406 17.191406-17.066406 38.398437 0 21.210937 7.640624 38.402344 17.066406 38.402344 9.425781 0 17.066406-17.191407 17.066406-38.402344zm0 0" fill="#527f72"/><path d="m357.824219 123.671875c0-21.207031-7.640625-38.398437-17.066407-38.398437-9.425781 0-17.066406 17.191406-17.066406 38.398437 0 21.210937 7.640625 38.402344 17.066406 38.402344 9.425782 0 17.066407-17.191407 17.066407-38.402344zm0 0" fill="#527f72"/><path d="m409.023438 162.074219c-.046876 34.027343-11.457032 67.066406-32.425782 93.867187h-25.601562c20.96875-26.800781 32.382812-59.839844 32.429687-93.867187zm0 0" fill="#4e342e"/><path d="m383.425781 162.074219c-.046875 34.027343-11.460937 67.066406-32.429687 93.867187h-216.0625c-20.96875-26.800781-32.382813-59.839844-32.425782-93.867187h128.253907c2.894531 5.1875 6.953125 9.625 11.863281 12.96875 3.757812 2.621093 8.21875 4.050781 12.800781 4.097656 10.671875-.890625 20.066407-7.390625 24.660157-17.066406zm0 0" fill="#795548"/><path d="m383.425781 161.730469v.34375h-42.667969c9.386719 0 17.066407-17.152344 17.066407-38.402344 0-21.246094-7.679688-38.398437-17.066407-38.398437-5.121093 0-9.726562 5.035156-12.800781 13.140624-2.984375 8.082032-4.429687 16.648438-4.265625 25.257813-.164062 8.613281 1.28125 17.179687 4.265625 25.261719-3.070312 8.105468-7.679687 13.140625-12.800781 13.140625h-35.070312c3.546874-6.1875 6.082031-12.898438 7.507812-19.882813v-.085937c1.328125-6.054688 1.984375-12.234375 1.964844-18.433594 0-30.632813-15.277344-55.464844-34.132813-55.464844-4.582031.046875-9.042969 1.476563-12.800781 4.097657-12.546875 8.191406-21.335938 28.15625-21.335938 51.367187-.019531 6.199219.636719 12.378906 1.964844 18.433594v.085937c1.429688 6.984375 3.960938 13.695313 7.507813 19.882813h-60.671875c9.386718 0 17.066406-17.152344 17.066406-38.402344 0-21.246094-7.679688-38.398437-17.066406-38.398437-5.121094 0-9.726563 5.035156-12.800782 13.140624-2.980468 8.082032-4.429687 16.648438-4.265624 25.257813-.164063 8.613281 1.285156 17.179687 4.265624 25.261719-3.070312 8.105468-7.679687 13.140625-12.796874 13.140625h-41.984376v-.34375c-.027343-16.203125 2.539063-32.304688 7.59375-47.699219l.085938-.171875c.351562-1.21875.777344-2.417969 1.277344-3.582031 1.800781-5.390625 3.996094-10.636719 6.574218-15.703125v-.085938c23.730469-48.46875 71.15625-80.925781 124.925782-85.503906 79.371094 6.738281 140.386718 73.09375 140.460937 152.746094zm0 0" fill="#cddc39"/><g fill="#9e9d24"><path d="m170.089844 162.074219h-25.597656c5.117187 0 9.726562-5.035157 12.796874-13.140625 3.074219 8.105468 7.679688 13.140625 12.800782 13.140625zm0 0"/><path d="m340.757812 162.074219h-25.601562c5.121094 0 9.730469-5.035157 12.800781-13.140625 3.074219 8.105468 7.679688 13.140625 12.800781 13.140625zm0 0"/><path d="m409.023438 161.730469v.34375h-25.597657v-.34375c-.074219-79.652344-61.089843-146.007813-140.460937-152.746094 4.265625-.339844 8.535156-.511719 12.800781-.511719 84.621094.050782 153.207031 68.636719 153.257813 153.257813zm0 0"/><path d="m187.15625 123.671875c0 21.25-7.679688 38.402344-17.066406 38.402344h-25.597656c5.117187 0 9.726562-5.035157 12.796874-13.140625 2.984376-8.082032 4.433594-16.648438 4.269532-25.261719.164062-8.609375-1.285156-17.175781-4.269532-25.257813 3.074219-8.105468 7.679688-13.140624 12.800782-13.140624 9.386718 0 17.066406 17.152343 17.066406 38.398437zm0 0"/><path d="m357.824219 123.671875c0 21.25-7.679688 38.402344-17.066407 38.402344h-25.601562c5.121094 0 9.730469-5.035157 12.800781-13.140625 2.984375-8.082032 4.429688-16.648438 4.265625-25.261719.164063-8.609375-1.28125-17.175781-4.265625-25.257813 3.074219-8.105468 7.679688-13.140624 12.800781-13.140624 9.386719 0 17.066407 17.152343 17.066407 38.398437zm0 0"/></g><path d="m84.757812 85.273438c.027344 2.964843-.742187 5.878906-2.21875 8.449218-3.066406 5.304688-8.71875 8.585938-14.847656 8.617188-4.085937.023437-8.039062-1.464844-11.09375-4.179688-3.796875-3.203125-5.980468-7.921875-5.972656-12.886718.027344-9.414063 7.652344-17.039063 17.066406-17.066407 4.085938-.023437 8.039063 1.464844 11.09375 4.179688 3.792969 3.203125 5.980469 7.921875 5.972656 12.886719zm0 0" fill="#795548"/><path d="m100.96875 46.445312-22.183594 25.941407c-3.054687-2.714844-7.007812-4.203125-11.09375-4.179688-9.414062.027344-17.039062 7.652344-17.066406 17.066407-.007812 4.964843 2.175781 9.683593 5.972656 12.886718l-22.1875 25.941406c-14.082031-11.832031-20.726562-30.3125-17.402344-48.402343 3.324219-18.085938 16.101563-33 33.472657-39.050781 17.367187-6.050782 36.644531-2.308594 50.488281 9.796874zm0 0" fill="#9e9d24"/><path d="m461.332031 85.273438c.007813 4.964843-2.175781 9.683593-5.972656 12.886718-3.054687 2.714844-7.003906 4.203125-11.09375 4.179688-6.128906-.03125-11.78125-3.3125-14.847656-8.617188-1.476563-2.570312-2.242188-5.484375-2.21875-8.449218-.007813-4.964844 2.179687-9.683594 5.972656-12.886719 3.054687-2.714844 7.007813-4.203125 11.09375-4.179688 9.414063.027344 17.039063 7.652344 17.066406 17.066407zm0 0" fill="#795548"/><path d="m495.464844 85.273438c.007812 14.941406-6.542969 29.136718-17.917969 38.828124l-22.1875-25.941406c3.796875-3.203125 5.980469-7.921875 5.972656-12.886718-.027343-9.414063-7.652343-17.039063-17.066406-17.066407-4.085937-.023437-8.039063 1.464844-11.09375 4.179688l-22.183594-25.941407c9.230469-8.011718 21.054688-12.410156 33.277344-12.371093 28.277344 0 51.199219 22.921875 51.199219 51.199219zm0 0" fill="#9e9d24"/><path d="m400.492188 255.941406h-46.253907c-9.058593 2.75-17.535156 7.148438-25 12.96875-9.070312 7.101563-16.691406 15.878906-22.445312 25.855469-9.113281 15.585937-14.976563 32.859375-17.234375 50.773437h-94.464844c.425781 2.730469.597656 4.269532.597656 4.269532h119.464844c2.257812-17.917969 8.121094-35.1875 17.238281-50.773438 5.753907-9.980468 13.371094-18.757812 22.441407-25.859375 13.707031-10.441406 30.3125-16.375 47.53125-16.980469-.609376-.171874-1.242188-.261718-1.875-.253906zm0 0" fill="#bfa885"/><path d="m255.425781 281.539062c-4.714843 0-8.535156 3.820313-8.535156 8.535157 0 4.710937 3.820313 8.53125 8.535156 8.53125 4.710938 0 8.53125-3.820313 8.53125-8.53125 0-4.714844-3.820312-8.535157-8.53125-8.535157zm17.066407 25.601563c-4.714844 0-8.535157 3.820313-8.535157 8.53125 0 4.714844 3.820313 8.535156 8.535157 8.535156 4.710937 0 8.53125-3.820312 8.53125-8.535156 0-4.710937-3.820313-8.53125-8.53125-8.53125zm-33.027344.085937c-.363282-.070312-.734375-.101562-1.109375-.085937-4.152344-.007813-7.710938 2.980469-8.421875 7.074219-.710938 4.09375 1.632812 8.105468 5.546875 9.496094 3.914062 1.394531 8.265625-.234376 10.300781-3.855469zm0 0" fill="#bfa885"/><path d="m110.355469 255.941406c-.632813-.007812-1.265625.082032-1.875.253906 11.683593.554688 23.140625 3.425782 33.707031 8.449219h.085938l.082031.085938c4.84375 2.320312 9.417969 5.152343 13.65625 8.445312 9.070312 7.101563 16.6875 15.878907 22.441406 25.859375 8.386719 14.332032 14.027344 30.105469 16.640625 46.503906h94.464844c2.257812-17.914062 8.121094-35.1875 17.234375-50.773437 5.753906-9.976563 13.375-18.753906 22.445312-25.855469 7.464844-5.820312 15.941407-10.21875 25-12.96875zm135.425781 63.914063c-2.035156 3.621093-6.386719 5.25-10.300781 3.855469-3.914063-1.390626-6.257813-5.402344-5.546875-9.496094.710937-4.09375 4.269531-7.082032 8.421875-7.074219.375-.015625.746093.015625 1.109375.085937 2.804687.375 5.238281 2.113282 6.503906 4.640626 1.265625 2.53125 1.195312 5.519531-.1875 7.988281zm9.644531-21.25c-4.714843 0-8.535156-3.820313-8.535156-8.53125 0-4.714844 3.820313-8.535157 8.535156-8.535157 4.710938 0 8.53125 3.820313 8.53125 8.535157 0 4.710937-3.820312 8.53125-8.53125 8.53125zm17.066407 25.601562c-4.714844 0-8.535157-3.820312-8.535157-8.535156 0-4.710937 3.820313-8.53125 8.535157-8.53125 4.710937 0 8.53125 3.820313 8.53125 8.53125 0 4.714844-3.820313 8.535156-8.53125 8.535156zm0 0" fill="#ffecb3"/><path d="m281.023438 315.671875c0 4.714844-3.820313 8.535156-8.53125 8.535156-4.714844 0-8.535157-3.820312-8.535157-8.535156 0-4.710937 3.820313-8.53125 8.535157-8.53125 4.710937 0 8.53125 3.820313 8.53125 8.53125zm0 0"/><path d="m246.890625 315.671875c0 4.714844-3.820313 8.535156-8.535156 8.535156-4.710938 0-8.53125-3.820312-8.53125-8.535156 0-4.710937 3.820312-8.53125 8.53125-8.53125 4.714843 0 8.535156 3.820313 8.535156 8.53125zm0 0"/><path d="m263.957031 290.074219c0 4.710937-3.820312 8.53125-8.53125 8.53125-4.714843 0-8.535156-3.820313-8.535156-8.53125 0-4.714844 3.820313-8.535157 8.535156-8.535157 4.710938 0 8.53125 3.820313 8.53125 8.535157zm0 0"/><path d="m221.289062 230.339844c4.714844 0 8.535157-3.820313 8.535157-8.53125v-8.535156c0-4.710938-3.820313-8.535157-8.535157-8.535157-4.710937 0-8.53125 3.824219-8.53125 8.535157v8.535156c0 4.710937 3.820313 8.53125 8.53125 8.53125zm0 0"/><path d="m255.425781 230.339844c4.710938 0 8.53125-3.820313 8.53125-8.53125v-8.535156c0-4.710938-3.820312-8.535157-8.53125-8.535157-4.714843 0-8.535156 3.824219-8.535156 8.535157v8.535156c0 4.710937 3.820313 8.53125 8.535156 8.53125zm0 0"/><path d="m289.558594 230.339844c4.710937 0 8.53125-3.820313 8.53125-8.53125v-8.535156c0-4.710938-3.820313-8.535157-8.53125-8.535157-4.714844 0-8.535156 3.824219-8.535156 8.535157v8.535156c0 4.710937 3.820312 8.53125 8.535156 8.53125zm0 0"/><path d="m366.074219 509.808594c2.628906 2.316406 6.402343 2.792968 9.523437 1.203125l59.332032-30.355469c3.695312-1.902344 6.574218-5.078125 8.101562-8.941406l45.566406-115.933594.085938-.222656 20.480468-52.164063c2.066407-5.25 1.402344-11.179687-1.769531-15.847656l-24.855469-36.554687c-3.605468-5.304688-9.878906-8.140626-16.242187-7.34375-6.363281.800781-11.742187 5.101562-13.921875 11.132812l-27.554688 76.320312-29.664062-29.679687 18.074219-20.308594c2.789062-3.125 4.328125-7.167969 4.328125-11.359375v-5.28125c-.042969-7.449218-4.90625-14.011718-12.023438-16.210937-.257812-.09375-.503906-.164063-.769531-.242188-1.390625-.386719-2.828125-.59375-4.273437-.613281h-7.679688c16.015625-25.558594 24.585938-55.078125 24.746094-85.238281v-.4375c-.011719-16.039063-2.398438-31.988281-7.09375-47.324219l17.246094-9.871094c7.039062 6.285156 17.023437 8.058594 25.796874 4.589844l17.5625 20.480469c.640626.691406 1.398438 1.269531 2.234376 1.707031.234374.195312.480468.378906.734374.542969 2.023438.921875 4.324219 1.007812 6.410157.25.96875-.351563 1.867187-.871094 2.652343-1.535157 16.445313-13.800781 24.210938-35.367187 20.335938-56.480468-3.875-21.113282-18.792969-38.515625-39.066406-45.574219-20.269532-7.058594-42.773438-2.683594-58.921875 11.453125-.398438.421875-.753907.882812-1.058594 1.375-.371094.398438-.699219.828125-.988281 1.289062-.199219.507813-.34375 1.035157-.4375 1.570313-.191406.515625-.335938 1.046875-.425782 1.585937.007813.554688.070313 1.105469.1875 1.648438.015626.535156.078126 1.070312.195313 1.59375.246094.585938.554687 1.140625.921875 1.65625.199219.449219.4375.882812.71875 1.289062l17.601562 20.675782c-2.253906 3.828125-3.460937 8.179687-3.496093 12.621094.058593 1.492187.25 2.976562.570312 4.4375l-14.738281 8.429687c-24.902344-58.179687-81.4375-96.5-144.703125-98.0898438-63.265625-1.5859372-121.648437 33.8515628-149.441406 90.7109378-.058594.117187-.109375.246093-.160157.367187v.074219l-.058593.144531c-1.09375 2.175782-2.082031 4.386719-3.023438 6.582032l-14.367187-8.21875c.308594-1.460938.492187-2.945313.542968-4.4375-.03125-4.445313-1.230468-8.804688-3.480468-12.636719l17.648437-20.644531c.394531-.539063.722657-1.125.972657-1.746094.253906-.382813.476562-.78125.664062-1.195313.136719-.582031.207031-1.171875.214844-1.769531.097656-.484375.15625-.976562.167968-1.472656-.089843-.605469-.25-1.195313-.476562-1.757813-.085938-.480469-.214844-.945312-.382812-1.402343-.378907-.65625-.847657-1.257813-1.390626-1.789063-.203124-.300781-.425781-.585937-.667968-.855469h-.058594c-25.023438-21.441406-62.691406-18.542968-84.132812 6.480469-21.445313 25.023437-18.542969 62.691406 6.480468 84.136719.785156.660156 1.679688 1.183594 2.644532 1.535156 2.089843.753906 4.390624.667969 6.417968-.25.265625-.167969.523438-.351562.765625-.554688.839844-.433593 1.597657-1.011718 2.238281-1.703124l17.570313-20.53125c8.769531 3.480468 18.753906 1.707031 25.785156-4.582032l16.929688 9.683594c-4.796875 15.496094-7.234375 31.628906-7.226563 47.855469.140625 30.1875 8.695313 59.738281 24.703125 85.332031h-8.320312c-9.421875 0-17.066407 7.640625-17.066407 17.066406v5.28125c0 4.1875 1.539063 8.226563 4.320313 11.351563l18.082031 20.316406-29.679687 29.6875-27.554688-76.320313c-2.179687-6.035156-7.554687-10.335937-13.917969-11.136718-6.363281-.800782-12.640624 2.035156-16.246093 7.339844l-24.851563 36.5625c-3.171875 4.664062-3.835937 10.597656-1.773437 15.847656l20.480469 52.054687c.058593.152344.109374.304688.179687.460938l45.5 115.8125c1.527344 3.863281 4.410156 7.039062 8.105469 8.933593l59.316406 30.347657c3.125 1.621093 6.921875 1.15625 9.566406-1.167969 2.644532-2.324219 3.589844-6.03125 2.378906-9.339844l-28.160156-78.042968c35.21875-24.507813 45.3125-21.964844 61.585938-17.683594 10.4375 3.074218 21.253906 4.679687 32.136718 4.761718 12.246094.664063 24.125-4.316406 32.238282-13.515624 5.851562-7.414063 9.46875-16.339844 10.429687-25.738282.953125 9.40625 4.570313 18.34375 10.425781 25.765625 8.121094 9.1875 19.996094 14.15625 32.238282 13.488281 10.898437-.078124 21.734375-1.679687 32.1875-4.761718 16.273437-4.265625 26.378906-6.824219 61.585937 17.683594l-28.160156 78.042968c-1.191406 3.296875-.253906 6.984375 2.371094 9.304688zm70.707031-420.40625c-.710938-1.257813-1.074219-2.683594-1.046875-4.128906.023437-2.519532 1.160156-4.898438 3.105469-6.503907 1.492187-1.328125 3.429687-2.050781 5.425781-2.03125 3.597656-.027343 6.816406 2.21875 8.039063 5.597657 1.21875 3.382812.171874 7.164062-2.609376 9.441406-1.972656 1.554687-4.523437 2.1875-6.992187 1.734375-2.472656-.457031-4.628906-1.953125-5.921875-4.109375zm50.152344-4.128906c-.003906 9.472656-3.175782 18.667968-9.011719 26.128906l-11.554687-13.507813c2.253906-3.828125 3.460937-8.179687 3.5-12.621093.015624-8.449219-4.144532-16.359376-11.117188-21.132813s-15.855469-5.792969-23.726562-2.71875l-11.425782-13.363281c13.1875-7.414063 29.320313-7.257813 42.363282.40625 13.042968 7.664062 21.03125 21.679687 20.972656 36.808594zm-18.492188 175.316406 24.859375 36.558594-15.285156 38.886718-25.914063-30.183594zm-56.414062 106.011718-68.710938-68.730468c3.238282-4.730469 6.957032-9.117188 11.09375-13.089844l64 64.0625zm-208.980469-25.328124c-2.851563-15.796876-12.347656-52.054688-41.8125-74.855469-.914063-.707031-1.863281-1.289063-2.792969-1.945313h193.914063c-.90625.648438-1.84375 1.253906-2.730469 1.945313-29.476562 22.757812-38.980469 59.058593-41.816406 74.855469zm-17.433594 0h-11.691406l-12.074219-13.566407 14.507813-14.507812c4.132812 8.980469 7.238281 18.398437 9.257812 28.074219zm-24.054687-217.601563c0-18.773437 6.304687-29.105469 8.351562-29.863281 2.40625.757812 8.714844 11.089844 8.714844 29.863281s-6.246094 29.015625-8.328125 29.867187h-.070313c-2.421874-.851562-8.667968-11.203124-8.667968-29.867187zm64.648437 46.933594c6.34375 10.144531 17.265625 16.527343 29.21875 17.066406 11.949219-.539063 22.875-6.921875 29.214844-17.066406h115.492187c-1.601562 27.777343-11.300781 54.472656-27.894531 76.800781h-232.960937c-16.457032-22.402344-26.132813-49.058594-27.878906-76.800781zm5.972657-27.636719c4.097656-9.140625 13.183593-15.023438 23.203124-15.023438 10.015626 0 19.101563 5.882813 23.199219 15.023438-4.382812 16.910156-14.128906 27.636719-23.15625 27.636719-9.03125 0-18.773437-10.726563-23.203125-27.636719zm23.246093-32.09375c-9.132812.019531-18.015625 2.976562-25.335937 8.4375 1.355468-25.242188 13.890625-42.574219 25.335937-42.574219 11.441407 0 23.976563 17.332031 25.332031 42.574219-7.316406-5.460938-16.203124-8.417969-25.332031-8.4375zm76.796875 12.796875c0-18.773437 6.308594-29.105469 8.355469-29.863281 2.40625.757812 8.710937 11.089844 8.710937 29.863281s-6.246093 29.015625-8.328124 29.867187h-.066407c-2.425781-.851562-8.671875-11.203124-8.671875-29.867187zm2.269532 189.535156 14.507812 14.507813-12.074219 13.558594h-11.691406c2.023437-9.671876 5.128906-19.089844 9.257813-28.066407zm48.574218-23.894531-14.773437-14.769531c9.898437-5.515625 20.894531-8.773438 32.199219-9.539063v4.75zm-207.292968-248.148438c43.195312-28.65625 98.421874-32.015624 144.773437-8.8125 46.351563 23.207032 76.75 69.433594 79.6875 121.1875h-39.339844c3.742188-9.507812 5.597657-19.648437 5.460938-29.867187 0-23.320313-8.789063-46.933594-25.597657-46.933594-16.8125 0-25.601562 23.613281-25.601562 46.933594-.132812 10.21875 1.722656 20.359375 5.460938 29.867187h-27.304688c3.226562-9.621093 4.84375-19.714843 4.777344-29.867187 0-35.890625-18.773438-64-42.664063-64-23.894531 0-42.667969 28.109375-42.667969 64-.058593 10.152344 1.5625 20.246094 4.796876 29.867187h-27.308594c3.734375-9.507812 5.582031-19.652343 5.445312-29.867187 0-23.320313-8.789062-46.933594-25.601562-46.933594-16.808594 0-25.597656 23.613281-25.597656 46.933594-.136719 10.21875 1.71875 20.359375 5.460937 29.867187h-38.597656c.644531-12.347656 2.890625-24.558593 6.683593-36.324218.144532-.34375.265626-.699219.367188-1.058594.328125-1.082031.710938-2.144531 1.148438-3.183594 1.667968-4.980468 3.703124-9.828125 6.085937-14.507812.140625-.273438.257813-.558594.359375-.851563 11.3125-22.882812 28.488281-42.359375 49.773438-56.449219zm-108.082032 1.441407c7.242188.019531 14.359375 1.898437 20.667969 5.453125l-11.4375 13.371094c-10.085937-4.007813-21.605469-1.171876-28.683594 7.0625-7.074219 8.234374-8.144531 20.046874-2.664062 29.417968l-11.539063 13.492188c-10.019531-12.847656-11.832031-30.28125-4.675781-44.917969 7.160156-14.632813 22.039063-23.902344 38.332031-23.878906zm-5.625 49c-1.851562-1.582031-2.914062-3.898438-2.910156-6.332031 0-4.710938 3.820312-8.535157 8.535156-8.535157 2.085938-.003906 4.09375.785157 5.621094 2.203125 1.851562 1.582032 2.914062 3.898438 2.910156 6.332032.027344 1.449218-.335937 2.878906-1.046875 4.140624-1.265625 2.25-3.484375 3.804688-6.03125 4.230469s-5.148437-.324219-7.078125-2.039062zm48.289063 178.148437v-4.792968c9.671875.699218 19.128906 3.160156 27.914062 7.261718l.4375.222656c1.3125.621094 2.558594 1.378907 3.855469 2.105469l-14.78125 14.78125zm46.082031 15.039063c4.136719 3.964843 7.855469 8.347656 11.09375 13.078125l-68.726562 68.730468-6.367188-17.757812zm-114.03125-24.203125 16.339844 45.226562-25.914063 30.21875-15.28125-38.878906zm41.292969 204.878906-43.808594-111.464844 25.511719-29.703125 9.226562 25.546875 12.800782 35.390625.058593.160157 36.292969 100.539062zm148.273437-80.480469c-4.914062 5.3125-12 8.074219-19.214844 7.484375-9.4375-.070312-18.816406-1.484375-27.851562-4.199218-20.21875-5.316407-34.988281-7.328126-71.910156 17.582031l-7.757813-21.523438 44.535157-44.535156 11.417968 12.800781c3.238282 3.636719 7.878906 5.71875 12.746094 5.71875h65.09375c.773438 9.4375-1.71875 18.851563-7.058594 26.671875zm93.972656 3.285157c-9.039062 2.714843-18.417968 4.128906-27.855468 4.199218-7.195313.585938-14.265625-2.160156-19.183594-7.449218-5.316406-7.835938-7.816406-17.242188-7.089844-26.683594h65.109375c4.871094 0 9.511719-2.078125 12.75-5.71875l11.417969-12.796875 44.515625 44.507812-7.773437 21.523438c-36.921876-24.910157-51.675782-22.898438-71.890626-17.582031zm97.433594-2.855469.058594-.164063 12.800781-35.386718 9.222657-25.550782 25.507812 29.707032-43.820312 111.445312-40.0625 20.480469zm0 0"/></svg>