<svg height="512pt" viewBox="0 0 512 512.0637" width="512pt" xmlns="http://www.w3.org/2000/svg"><path d="m25.632812 281.59375h59.730469v34.132812h-59.730469zm0 0" fill="#37474f"/><path d="m480.644531 315.726562h-68.164062v-34.132812h68.164062zm0 0" fill="#37474f"/><path d="m85.363281 46.925781c0 9.425781-7.640625 17.070313-17.066406 17.070313s-17.066406-7.644532-17.066406-17.070313c0-9.421875 7.640625-17.066406 17.066406-17.066406s17.066406 7.644531 17.066406 17.066406zm0 0" fill="#ffb301"/><path d="m305.738281 432.847656c4.4375 3.414063 9.386719 6.996094 14.933594 10.835938 9.300781 6.570312 26.539063 16.640625 37.035156 11.265625 9.640625-5.035157 15.445313-21.332031 18.515625-37.460938l31.234375 16.554688c-5.207031 20.050781-15.105469 41.300781-33.964843 51.113281-6.988282 3.699219-14.789063 5.605469-22.699219 5.546875-18.109375-1.109375-35.445313-7.75-49.664063-19.027344-10.664062-7.511719-20.136718-14.59375-28.328125-21.421875l-4.148437-12.21875zm0 0" fill="#424242"/><path d="m432.929688 463.269531c-35.074219-43.863281-72.792969-45.140625-74.496094-45.140625l-17.46875-37.335937 17.636718 3.203125c2.476563 0 59.308594.765625 106.242188 64.851562zm0 0" fill="#607d8b"/><path d="m206.367188 432.804688c-4.4375 3.414062-9.386719 6.996093-14.933594 10.835937-9.300782 6.574219-26.539063 16.640625-37.035156 11.265625-9.640626-5.035156-15.445313-21.332031-18.515626-37.460938l-31.230468 16.554688c5.203125 20.054688 15.101562 41.300781 33.960937 51.113281 6.992188 3.699219 14.789063 5.605469 22.699219 5.546875 18.113281-1.109375 35.449219-7.75 49.664062-19.027344 10.664063-7.511718 20.136719-14.59375 28.328126-21.417968l2.679687-12.527344zm0 0" fill="#424242"/><path d="m47.222656 448.847656c46.933594-64.085937 103.765625-64.851562 106.238282-64.851562l18.519531-3.558594-18.347657 37.691406c-1.707031 0-39.425781 1.277344-74.496093 45.140625zm0 0" fill="#607d8b"/><path d="m435.230469 275.449219v44.628906c.015625 2.648437-1.21875 5.144531-3.328125 6.742187l-73.46875 57.175782h-204.800782l-5.460937-4.269532-68.011719-52.90625c-2.109375-1.597656-3.339844-4.09375-3.328125-6.742187v-44.628906c.011719-1.554688.421875-3.082031 1.195313-4.4375l22.015625-36.605469 55.125-69.035156h195.753906l61.097656 69.035156 22.019531 36.605469c.769532 1.355469 1.179688 2.882812 1.191407 4.4375zm0 0" fill="#37474f"/><path d="m409.632812 271.183594v44.628906c.011719 2.644531-1.21875 5.144531-3.328124 6.742188l-73.472657 57.171874h-184.660156l-68.011719-52.90625c-2.109375-1.597656-3.339844-4.09375-3.328125-6.742187v-44.628906c.011719-1.554688.421875-3.082031 1.195313-4.4375l22.015625-36.605469 55.125-69.035156h173.910156l57.34375 64.765625 22.015625 36.609375c.769531 1.351562 1.183594 2.878906 1.195312 4.4375zm0 0" fill="#607d8b"/><path d="m25.632812 503.460938h42.664063c25.601563 0 17.066406-34.132813 8.535156-42.667969-8.535156-8.53125-51.199219-17.066407-51.199219-17.066407zm0 0" fill="#ffeb3a"/><path d="m486.433594 503.460938h-42.667969c-25.601563 0-17.066406-34.132813-8.535156-42.667969 8.535156-8.53125 51.203125-17.066407 51.203125-17.066407zm0 0" fill="#ffeb3a"/><path d="m196.296875 38.394531h-8.53125c-9.425781 0-17.066406 7.640625-17.066406 17.066407v25.601562l42.664062 49.730469 68.269531-2.371094-23.824218-64.425781v-25.601563zm0 0" fill="#9e9e9e"/><path d="m314.910156 81.0625h17.921875c4.710938 0 8.53125 3.820312 8.53125 8.53125v17.066406c0 4.714844-3.820312 8.535156-8.53125 8.535156-4.714843 0-8.535156 3.820313-8.535156 8.53125v17.066407c0 4.714843-3.820313 8.535156-8.53125 8.535156h-128c-4.714844 0-8.535156-3.820313-8.535156-8.535156v-17.066407c0-4.710937-3.820313-8.53125-8.53125-8.53125-4.714844 0-8.535157-3.820312-8.535157-8.535156v-17.066406c0-4.710938 3.820313-8.53125 8.535157-8.53125h17.066406l17.066406 17.066406h34.132813" fill="#424242"/><path d="m411.058594 195.28125-48.472656-47.71875c-1.636719-1.609375-3.839844-2.503906-6.132813-2.5h-200.839844c-2.296875-.003906-4.5.890625-6.136719 2.5l-48.46875 47.71875c-.660156.648438-1.421874 1.191406-2.253906 1.601562l-25.660156 12.628907c-2.046875.988281-3.609375 2.757812-4.339844 4.910156-.730468 2.152344-.566406 4.503906.457032 6.535156l7.765624 15.292969c2.1875 4.230469 7.363282 5.925781 11.632813 3.8125l30.71875-15.105469c.832031-.410156 1.589844-.953125 2.253906-1.601562l42.289063-41.660157c1.636718-1.605468 3.835937-2.503906 6.128906-2.5h172.066406c2.292969-.003906 4.496094.894532 6.132813 2.5l42.316406 41.660157c.664063.648437 1.421875 1.191406 2.253906 1.601562l30.71875 15.105469c4.269531 2.113281 9.445313.417969 11.632813-3.8125l7.765625-15.292969c1.023437-2.03125 1.1875-4.382812.457031-6.535156s-2.292969-3.921875-4.339844-4.910156l-25.660156-12.628907c-.84375-.40625-1.617188-.949218-2.285156-1.601562zm0 0" fill="#ffeb3a"/><path d="m307.230469 264.527344c0 28.277344-22.921875 51.199218-51.199219 51.199218-2.863281.007813-5.71875-.25-8.53125-.765624-24.625-4.144532-42.660156-25.460938-42.660156-50.433594 0-24.96875 18.035156-46.289063 42.660156-50.433594 2.8125-.515625 5.667969-.773438 8.53125-.765625 13.578125 0 26.601562 5.394531 36.203125 14.996094 9.601563 9.601562 14.996094 22.625 14.996094 36.203125zm0 0" fill="#1566c0"/><path d="m290.164062 264.527344c0-27.851563-19.101562-50.433594-42.664062-50.433594-23.566406 0-42.667969 22.582031-42.667969 50.433594 0 27.851562 19.101563 50.433594 42.667969 50.433594 23.5625 0 42.664062-22.582032 42.664062-50.433594zm0 0" fill="#2296f3"/><path d="m179.230469 290.128906c0 18.851563-15.28125 34.132813-34.132813 34.132813-2.882812.023437-5.753906-.347657-8.53125-1.109375-15.023437-3.925782-25.503906-17.496094-25.503906-33.023438s10.480469-29.097656 25.503906-33.023437c2.777344-.765625 5.648438-1.136719 8.53125-1.109375 18.851563 0 34.132813 15.28125 34.132813 34.132812zm0 0" fill="#1566c0"/><path d="m162.164062 290.128906c0-18.238281-11.460937-33.023437-25.597656-33.023437-14.140625 0-25.601562 14.785156-25.601562 33.023437 0 18.238282 11.460937 33.023438 25.601562 33.023438 14.136719 0 25.597656-14.785156 25.597656-33.023438zm0 0" fill="#02a9f4"/><path d="m401.097656 290.128906c0 18.851563-15.28125 34.132813-34.132812 34.132813-2.882813.023437-5.753906-.347657-8.53125-1.109375-15.023438-3.925782-25.503906-17.496094-25.503906-33.023438s10.480468-29.097656 25.503906-33.023437c2.777344-.765625 5.648437-1.136719 8.53125-1.109375 18.851562 0 34.132812 15.28125 34.132812 34.132812zm0 0" fill="#1566c0"/><path d="m384.03125 290.128906c0-18.238281-11.460938-33.023437-25.597656-33.023437-14.140625 0-25.601563 14.785156-25.601563 33.023437 0 18.238282 11.460938 33.023438 25.601563 33.023438 14.136718 0 25.597656-14.785156 25.597656-33.023438zm0 0" fill="#02a9f4"/><path d="m315.765625 72.527344c0 23.566406-19.101563 42.667968-42.667969 42.667968-6.511718.027344-12.9375-1.464843-18.773437-4.351562-17.828125-8.734375-27.273438-28.613281-22.789063-47.953125 4.480469-19.335937 21.710938-33.03125 41.5625-33.03125.570313-.011719 1.140625.015625 1.707032.085937 22.875.886719 40.964843 19.691407 40.960937 42.582032zm0 0" fill="#c52828"/><path d="m298.699219 68.261719c0 23.5625-19.101563 42.664062-42.667969 42.664062-.570312.015625-1.140625-.011719-1.707031-.082031-17.828125-8.734375-27.273438-28.613281-22.789063-47.953125 4.480469-19.335937 21.710938-33.03125 41.5625-33.03125.570313-.011719 1.140625.015625 1.707032.085937 14.625 7.167969 23.894531 22.03125 23.894531 38.316407zm0 0" fill="#f44335"/><path d="m238.964844 34.128906c0 11.78125-9.550782 21.332032-21.332032 21.332032s-21.335937-9.550782-21.335937-21.332032c0-11.785156 9.554687-21.335937 21.335937-21.335937s21.332032 9.550781 21.332032 21.335937zm0 0" fill="#2296f3"/><path d="m315.253906 379.640625-.511718 4.355469-4.269532 34.132812-1.363281 10.664063c-1.101563 8.539062-8.371094 14.933593-16.980469 14.933593h-72.191406c-8.621094.027344-15.90625-6.378906-16.984375-14.933593l-1.363281-10.664063-4.265625-34.132812-.515625-4.355469c-.328125-2.640625.585937-5.289063 2.476562-7.167969l20.140625-20.136718c1.59375-1.570313 3.734375-2.457032 5.972657-2.476563h61.269531c2.234375.019531 4.378906.90625 5.972656 2.476563l20.136719 20.136718c1.890625 1.878906 2.804687 4.527344 2.476562 7.167969zm0 0" fill="#cfd8dc"/><path d="m42.699219 473.59375c0-16.496094-7.640625-29.867188-17.066407-29.867188-9.425781 0-17.066406 13.371094-17.066406 29.867188s7.640625 29.867188 17.066406 29.867188c9.425782 0 17.066407-13.371094 17.066407-29.867188zm0 0" fill="#ffb301"/><path d="m503.5 473.59375c0-16.496094-7.640625-29.867188-17.066406-29.867188-9.425782 0-17.070313 13.371094-17.070313 29.867188s7.644531 29.867188 17.070313 29.867188c9.425781 0 17.066406-13.371094 17.066406-29.867188zm0 0" fill="#ffb301"/><path d="m284.875 349.859375-16.8125 77.570313h-24.0625l-2.046875-9.300782-7.339844-34.132812-7.425781-34.136719zm0 0" fill="#9e9e9e"/><path d="m204.832031 358.394531h-22.066406c-7.722656-.003906-14.484375 5.179688-16.488281 12.636719l-12.644532 47.097656h47.957032zm0 0" fill="#37474f"/><path d="m307.230469 358.394531h21.25c7.617187-.011719 14.3125 5.042969 16.382812 12.375l13.570313 47.359375h-47.960938zm0 0" fill="#37474f"/><g fill="#ffeb3a"><path d="m25.632812 247.460938h8.53125c4.714844 0 8.535157 3.820312 8.535157 8.535156v85.332031c0 4.710937-3.820313 8.53125-8.535157 8.53125h-8.53125c-9.425781 0-17.066406-7.640625-17.066406-17.066406v-68.265625c0-9.425782 7.640625-17.066406 17.066406-17.066406zm0 0"/><path d="m486.433594 349.859375h-8.535156c-4.710938 0-8.535157-3.820313-8.535157-8.53125v-85.332031c0-4.714844 3.824219-8.535156 8.535157-8.535156h8.535156c9.425781 0 17.066406 7.640624 17.066406 17.066406v68.265625c0 9.425781-7.640625 17.066406-17.066406 17.066406zm0 0"/><path d="m247.5 426.660156h17.066406c4.710938 0 8.53125 3.820313 8.53125 8.535156v17.066407c0 4.710937-3.820312 8.53125-8.53125 8.53125h-17.066406c-4.714844 0-8.535156-3.820313-8.535156-8.53125v-17.066407c0-4.714843 3.820312-8.535156 8.535156-8.535156zm0 0"/></g><path d="m273.097656 255.996094c0 4.710937-3.820312 8.53125-8.53125 8.53125-4.714844 0-8.535156-3.820313-8.535156-8.53125 0-4.714844 3.820312-8.535156 8.535156-8.535156 4.710938 0 8.53125 3.820312 8.53125 8.535156zm0 0"/><path d="m290.164062 68.261719c0 4.710937-3.820312 8.53125-8.53125 8.53125-4.714843 0-8.535156-3.820313-8.535156-8.53125 0-4.714844 3.820313-8.535157 8.535156-8.535157 4.710938 0 8.53125 3.820313 8.53125 8.535157zm0 0"/><path d="m256.03125 204.792969c-32.988281 0-59.734375 26.746093-59.734375 59.734375 0 32.988281 26.746094 59.734375 59.734375 59.734375 32.992188 0 59.734375-26.746094 59.734375-59.734375-.042969-32.972656-26.761719-59.691406-59.734375-59.734375zm0 102.402343c-23.5625 0-42.667969-19.101562-42.667969-42.667968 0-23.5625 19.105469-42.667969 42.667969-42.667969 23.566406 0 42.667969 19.105469 42.667969 42.667969-.027344 23.554687-19.113281 42.640625-42.667969 42.667968zm0 0"/><path d="m145.097656 247.460938c-23.5625 0-42.664062 19.101562-42.664062 42.667968 0 23.5625 19.101562 42.664063 42.664062 42.664063 23.566406 0 42.667969-19.101563 42.667969-42.664063-.027344-23.554687-19.113281-42.640625-42.667969-42.667968zm0 68.265624c-14.136718 0-25.597656-11.460937-25.597656-25.597656 0-14.140625 11.460938-25.601562 25.597656-25.601562 14.140625 0 25.601563 11.460937 25.601563 25.601562 0 14.136719-11.460938 25.597656-25.601563 25.597656zm0 0"/><path d="m366.964844 247.460938c-23.5625 0-42.667969 19.101562-42.667969 42.667968 0 23.5625 19.105469 42.664063 42.667969 42.664063 23.566406 0 42.667968-19.101563 42.667968-42.664063-.027343-23.554687-19.113281-42.640625-42.667968-42.667968zm0 68.265624c-14.136719 0-25.601563-11.460937-25.601563-25.597656 0-14.140625 11.464844-25.601562 25.601563-25.601562 14.140625 0 25.601562 11.460937 25.601562 25.601562 0 14.136719-11.460937 25.597656-25.601562 25.597656zm0 0"/><path d="m179.230469 221.859375h-17.066407c-4.710937 0-8.53125 3.820313-8.53125 8.535156 0 4.710938 3.820313 8.53125 8.53125 8.53125h17.066407c4.714843 0 8.535156-3.820312 8.535156-8.53125 0-4.714843-3.820313-8.535156-8.535156-8.535156zm0 0"/><path d="m332.832031 238.925781h17.066407c4.714843 0 8.535156-3.820312 8.535156-8.53125 0-4.714843-3.820313-8.535156-8.535156-8.535156h-17.066407c-4.714843 0-8.535156 3.820313-8.535156 8.535156 0 4.710938 3.820313 8.53125 8.535156 8.53125zm0 0"/><path d="m486.433594 238.925781h-8.535156c-9.425782 0-17.066407 7.644531-17.066407 17.070313v17.066406h-17.066406c0-1.550781-.421875-3.070312-1.222656-4.394531l-11.792969-19.628907c5.140625-.96875 9.546875-4.253906 11.949219-8.898437l7.765625-15.285156c2.058594-4.058594 2.410156-8.777344.964844-13.09375-1.441407-4.320313-4.558594-7.878907-8.644532-9.886719l-25.667968-12.636719-5.976563 6.074219 5.976563-6.082031-48.472657-47.71875c-3.234375-3.214844-7.621093-5.007813-12.183593-4.984375h-23.628907v-17.066406c9.425781 0 17.066407-7.640626 17.066407-17.066407v-17.066406c0-9.425781-7.640626-17.066406-17.066407-17.066406h-8.535156c.039063-18.421875-9.84375-35.4375-25.863281-44.535157-16.019532-9.09375-35.695313-8.863281-51.5.605469-2.660156-14.339843-15.320313-24.636719-29.902344-24.3242185-14.582031.3124995-26.789062 11.1445315-28.832031 25.5859375h-.433594c-14.140625 0-25.601563 11.460938-25.601563 25.601562v19.4375c-5.261718 3.023438-8.515624 8.625-8.53125 14.695313v17.066406c0 9.425781 7.640626 17.066407 17.066407 17.066407v17.066406h-15.097657c-4.527343-.015625-8.878906 1.765625-12.097656 4.949218l-41.261718 40.59375c-.605469-27.84375-3.230469-89.472656-14.429688-123.035156 7.625-9.199218 7.835938-22.457031.507812-31.894531-7.324218-9.4375-20.222656-12.519531-31.023437-7.414063-10.800781 5.105469-16.609375 17.03125-13.964844 28.679688 2.640625 11.652344 13.019531 19.90625 24.964844 19.855469 1.480469-.023438 2.953125-.171875 4.40625-.445313 11.355469 37.941406 12.535156 112.230469 12.660156 126.140625l-16.023437 7.894531c-4.089844 2.003907-7.203125 5.5625-8.644532 9.882813-1.445312 4.320313-1.097656 9.035156.964844 13.097656l7.757813 15.265625c2.394531 4.660156 6.796875 7.964844 11.945312 8.960938l-11.769531 19.625c-.820312 1.3125-1.269531 2.828125-1.296875 4.378906h-17.066406v-17.066406c0-9.425782-7.640625-17.070313-17.066407-17.070313h-8.53125c-14.140624 0-25.601562 11.464844-25.601562 25.601563v68.265625c0 14.140625 11.460938 25.601562 25.601562 25.601562h8.53125c9.425782 0 17.066407-7.640625 17.066407-17.066406v-17.066406h17.066406c0 .179687.09375.332031.105469.503906.054687.578125.171875 1.152344.347656 1.707031.117188.503906.28125.996094.488281 1.476563.242188.449219.527344.878906.851563 1.277343.339844.492188.726562.941407 1.160156 1.347657.128906.113281.1875.273437.332031.386719l61.101563 47.519531c-35.609375 9.476562-66.898438 30.859375-88.664063 60.589843-4.734375-1.121093-9-2.09375-12.414062-2.816406-1.023438-.308594-2.070313-.527344-3.132813-.660156l-1.132812-.230469c-.171875-.007812-.34375-.007812-.511719 0-.429687-.03125-.796875-.167969-1.195313-.167969-.402343 0-.734374.136719-1.117187.160157-.328125.019531-.648437.066406-.964844.136719-13.519531 1.511718-23.519531 17.289062-23.519531 38.101562 0 21.886719 11.007812 38.402344 25.601562 38.402344h42.664063c10.082031.761718 19.507813-5.050782 23.355469-14.398438 3.550781-10.890625 2.671875-22.742187-2.445313-32.988281 3.480469-4.078125 7.199219-7.949219 11.132813-11.589844 5.398437 18.472657 17.660156 34.179688 34.269531 43.894531 8.226563 4.355469 17.398437 6.605469 26.703125 6.546876 19.882812-1.101563 38.949219-8.292969 54.613281-20.589844 8.472657-5.972656 15.777344-11.375 22.1875-16.410156 2.777344 1.855468 6.042969 2.851562 9.386719 2.867187h17.066406c3.359375.003906 6.644532-.996094 9.4375-2.867187 6.398438 5.050781 13.730469 10.46875 22.1875 16.460937 15.648438 12.285156 34.695313 19.46875 54.558594 20.582031 9.285156.058594 18.441406-2.179687 26.652344-6.519531 16.636718-9.710937 28.921875-25.429687 34.328125-43.921875 3.921875 3.628906 7.625 7.484375 11.09375 11.546875-5.117188 10.246094-6 22.097656-2.449219 32.988281 3.855469 9.359375 13.296875 15.171875 23.390625 14.398438h42.667969c14.589844 0 25.597656-16.515625 25.597656-38.402344 0-20.835938-10.015625-36.625-23.570312-38.109375-.28125-.058594-.566407-.101563-.851563-.128906-.382813 0-.75-.160157-1.144531-.160157-.390625 0-.765625.144532-1.167969.160157-.167969-.007813-.335937-.007813-.503906 0l-1.167969.230469c-1.0625.132812-2.109375.351562-3.132812.65625-3.414063.726562-7.679688 1.707031-12.425782 2.886718-21.761718-29.730468-53.050781-51.113281-88.660156-60.585937l61.097656-47.523438c.148438-.109375.207032-.273437.335938-.382812.433594-.40625.820312-.859375 1.160156-1.347657.324219-.402343.609375-.828124.851562-1.28125.210938-.476562.375-.976562.488282-1.484374.175781-.554688.292968-1.128907.347656-1.707032 0-.171875.101562-.324218.101562-.503906h17.070313v17.066406c0 9.425782 7.640625 17.066406 17.066406 17.066406h8.53125c14.140625 0 25.601563-11.460937 25.601563-25.601562v-68.316406c0-6.792969-2.703125-13.308594-7.507813-18.109375-4.808593-4.804688-11.324219-7.496094-18.117187-7.492188zm-332.800782 187.734375h40.457032l.40625 3.277344c.269531 1.515625.667968 3.003906 1.195312 4.445312-2.867187 2.109376-5.878906 4.265626-9.179687 6.5625-14.167969 9.992188-24.535157 12.511719-28.160157 10.660157-3.628906-1.851563-8.664062-9.261719-12.367187-23.808594 2.515625-.582031 5.074219-.964844 7.648437-1.136719zm165.546876-59.734375h9.300781c3.804687.011719 7.140625 2.539063 8.183593 6.195313l10.445313 36.472656h-27l3.617187-28.859375c.601563-5.046875-1.066406-10.101563-4.546874-13.808594zm-57.847657 51.203125h-10.617187l-12.945313-59.734375h36.523438zm-73.019531-37.480468 3.640625 28.945312h-27.226563l9.761719-36.351562c1.003907-3.726563 4.382813-6.316407 8.242188-6.316407h10.15625c-3.46875 3.679688-5.136719 8.703125-4.558594 13.722657zm24.746094 51.199218c-.929688-1.191406-1.519532-2.613281-1.707032-4.113281l-5.625-44.722656-.476562-4.480469 13.996094-14.019531 1.902344-1.902344 13.34375 61.601563c-2.613282 3.0625-4.054688 6.957031-4.058594 10.984374h-10.496094c-2.683594.011719-5.214844-1.238281-6.835938-3.371093zm34.441406 20.414063v-17.066407h17.066406v17.066407zm30-28.03125 13.339844-61.570313 15.941406 16.007813-6.128906 49.058593c-.566406 4.285157-4.210938 7.488282-8.53125 7.5h-10.488282c-.011718-4.050781-1.476562-7.96875-4.132812-11.03125zm40.109375 5.683593.367187-3.253906h40.402344c2.613282.171875 5.203125.558594 7.75 1.152344-3.703125 14.566406-8.628906 21.886719-12.3125 23.800781-3.6875 1.910157-14.054687-.632812-28.289062-10.675781-3.21875-2.226562-6.167969-4.351562-9.003906-6.417969.496093-1.511719.847656-3.066406 1.050781-4.640625zm35.507813-61.398437c-3.113282-11.03125-13.175782-18.652344-24.636719-18.65625h-26.25l-3.53125-3.558594c-3.199219-3.175781-7.523438-4.964843-12.03125-4.972656h-61.269531c-4.511719.007813-8.835938 1.796875-12.035157 4.972656l-3.53125 3.558594h-27.066406c-11.589844-.007813-21.742187 7.769531-24.746094 18.960937l-1.707031 6.445313-70.949219-55.175781v-44.664063l20.667969-34.433593 17.027344-8.371094c1.648437-.816406 3.160156-1.890625 4.46875-3.183594l42.472656-41.710938 172.21875.050782 42.308594 41.652344c1.308594 1.292968 2.820312 2.371093 4.472656 3.183593l17.066406 8.378907 20.632813 34.433593v44.664063l-71.535157 55.636718zm-80.019532-334.386719c18.851563 0 34.132813 15.28125 34.132813 34.132813 0 18.851562-15.28125 34.132812-34.132813 34.132812-18.851562 0-34.132812-15.28125-34.132812-34.132812 0-18.851563 15.28125-34.132813 34.132812-34.132813zm-55.464844-17.066406c7.066407 0 12.800782 5.730469 12.800782 12.796875 0 7.070313-5.734375 12.800781-12.800782 12.800781-7.070312 0-12.800781-5.730468-12.800781-12.800781 0-7.066406 5.730469-12.796875 12.800781-12.796875zm-29.867187 25.597656h2.996094c4.925781 10.386719 15.375 17.023438 26.871093 17.066406 1.71875-.019531 3.429688-.195312 5.117188-.519531-1.640625 8.742188-.902344 17.761719 2.136719 26.121094h-16.523438l-14.566406-14.566406c-1.597656-1.601563-3.769531-2.5-6.03125-2.5h-8.535156v-17.066407c0-4.714843 3.820312-8.535156 8.535156-8.535156zm-17.066406 59.734375v-17.066406h13.53125l14.566406 14.566406c1.601563 1.601563 3.773437 2.5 6.035156 2.5h30.207031c12.03125 13.480469 30.285157 19.597657 48.007813 16.09375 17.722656-3.507812 32.273437-16.117187 38.265625-33.160156h11.519531v17.066406c-9.425781 0-17.066406 7.640625-17.066406 17.066407v17.066406h-128v-17.066406c0-9.425782-7.640625-17.066407-17.066406-17.066407zm-110.933594-59.734375c0-4.710937 3.820313-8.53125 8.53125-8.53125 4.714844 0 8.535156 3.820313 8.535156 8.53125 0 4.714844-3.820312 8.535156-8.535156 8.535156-4.710937 0-8.53125-3.820312-8.53125-8.535156zm42.742187 161.886719c1.65625-.8125 3.167969-1.890625 4.480469-3.183594l48.640625-47.785156 200.992188.050781 48.472656 47.710938c1.308594 1.292968 2.824219 2.367187 4.476562 3.179687l25.660157 12.570313-8.011719 15.308594-30.71875-15.128907-42.335938-41.660156c-3.226562-3.183594-7.582031-4.964844-12.117187-4.949219h-172.046875c-4.535156-.015625-8.890625 1.765625-12.117188 4.949219l-42.351562 41.6875-30.941406 15.078125-7.757813-15.207031zm-76.875 136.78125c-4.714843 0-8.535156-3.820313-8.535156-8.535156v-68.265625c0-4.710938 3.820313-8.53125 8.535156-8.53125h8.53125v85.332031zm25.597657-34.132813v-17.066406h17.066406v17.066406zm93.738281 86.117188.128906 17.203125c-26.285156 5.613281-49.894531 19.96875-66.976562 40.722656-5.226563-2.878906-10.726563-5.222656-16.417969-7.007812 32.46875-38.902344 67.488281-48.546875 83.265625-50.917969zm-119.695312 59.058594 1.5625.332031c5.429687 5.527344 8.117187 13.183594 7.328124 20.890625 0 13.859375-6.058593 21.332031-8.53125 21.332031-2.476562 0-8.535156-7.472656-8.535156-21.332031 0-13.285156 5.539063-20.625 8.175782-21.222656zm50.621093 38.691406c-.566406 1.347656-1.621093 3.863281-7.597656 3.863281h-21.160156c2.789062-6.761719 4.183593-14.015625 4.09375-21.332031.027343-5.167969-.636719-10.316406-1.96875-15.308594 7.59375 1.660156 14.867187 4.542969 21.535156 8.535156 5.140625 6.957032 7 15.804688 5.097656 24.242188zm130.175781-22.1875c-25.019531 17.585938-46.371093 21.980469-63.515624 12.902344-12.492188-6.5-21.871094-20.027344-28.003907-40.105469 4.820313-3.261719 9.914063-6.101563 15.222657-8.492187 4.597656 17.417968 11.527343 28.714843 20.734374 33.519531 3.347657 1.675781 7.050782 2.519531 10.796876 2.464843 12.785156-1.300781 24.929687-6.242187 34.992187-14.230468 3.492187-2.417969 6.675781-4.710938 9.722656-6.949219 4.121094 2.757813 8.964844 4.238281 13.925781 4.269531h8.53125c-6.355468 5.074219-13.738281 10.554688-22.40625 16.65625zm163.453126 13.003906c-16.960938 9.003906-38.449219 4.660156-63.453126-12.917968-8.730468-6.128907-16.117187-11.578126-22.511718-16.699219h8.535156c4.972656-.027344 9.828125-1.511719 13.96875-4.265625 3.039062 2.226562 6.203125 4.503906 9.652344 6.902344 10.070312 8.023437 22.234375 12.996093 35.046875 14.316406 3.765625.058594 7.492187-.789063 10.863281-2.472656 9.164062-4.777344 16.082031-16.085938 20.675781-33.511719 5.308594 2.40625 10.402344 5.257812 15.222657 8.535156-6.101563 20.050781-15.480469 33.585937-28 40.113281zm66.679687 9.183594c-1.894531-8.4375-.023437-17.285156 5.121094-24.234375 6.671875-3.992187 13.945312-6.875 21.539062-8.535156-1.355469 4.988281-2.039062 10.132812-2.03125 15.300781-.089843 7.316406 1.304688 14.570312 4.097657 21.332031h-21.164063c-5.972656 0-7.03125-2.515625-7.59375-3.863281zm50.230469 3.863281c-2.476563 0-8.535156-7.472656-8.535156-21.332031-.789063-7.707031 1.898437-15.363281 7.332031-20.890625l1.558593-.332031c2.636719.597656 8.175782 7.9375 8.175782 21.222656 0 13.859375-6.058594 21.332031-8.53125 21.332031zm-36.070313-50.695312c-5.695312 1.785156-11.195312 4.128906-16.421875 7.007812-17.082031-20.753906-40.691406-35.109375-66.976562-40.722656l.09375-17.203125c15.8125 2.371094 50.832031 12.015625 83.304687 50.917969zm-6.597656-137.035157v-17.066406h17.066406v17.066406zm51.199219 25.597657c0 4.714843-3.820313 8.535156-8.53125 8.535156h-8.535156v-85.332031h8.535156c4.710937 0 8.53125 3.820312 8.53125 8.53125zm0 0"/></svg>