<svg height="512pt" viewBox="-26 0 512 512" width="512pt" xmlns="http://www.w3.org/2000/svg"><path d="m247.464844 333.867188v45.867187h-34.132813v-45.867187zm0 0" fill="#d1d4d1"/><path d="m301.226562 277.007812-23.78125 23.785157-.582031.585937c-.558593.394532-1.148437.742188-1.765625 1.042969l-.1875-.070313 1.707032-1.039062c-8.125-2.570312-13.652344-10.105469-13.652344-18.628906-.003906-.9375.0625-1.878906.195312-2.808594-19.976562 12.777344-45.558594 12.777344-65.535156 0 .128906.929688.195312 1.871094.195312 2.808594.03125 8.621094-5.621093 16.234375-13.882812 18.695312l-24.363281-24.371094c2.464843-8.257812 10.078125-13.90625 18.695312-13.875 1.222657.011719 2.445313.121094 3.652344.324219-13.550781-19.839843-13.550781-45.957031 0-65.800781-1.207031.210938-2.425781.324219-3.652344.335938-8.621093.027343-16.234375-5.625-18.695312-13.886719l24.363281-24.363281c8.261719 2.464843 13.914062 10.074218 13.882812 18.699218-.011718 1.222656-.121093 2.445313-.332031 3.652344 19.84375-13.550781 45.964844-13.550781 65.808594 0-.210937-1.207031-.324219-2.429688-.332031-3.652344-.035156-8.625 5.617187-16.234375 13.882812-18.699218l24.378906 24.363281c-2.472656 8.257812-10.085937 13.902343-18.703124 13.867187-1.226563-.011718-2.449219-.121094-3.652344-.332031 13.550781 19.839844 13.550781 45.960937 0 65.800781 1.207031-.203125 2.425781-.3125 3.652344-.324218 8.625-.035157 16.242187 5.625 18.703124 13.890624zm0 0" fill="#f0c419"/><path d="m171.691406 324.4375-100.609375 49.40625v-.082031l22.699219-49.324219.085938-.171875 43.09375-21.160156 32.511718 19.964843.085938.085938zm0 0" fill="#37474f"/><path d="m389.289062 373.84375-100.351562-49.320312-.253906-.085938 2.21875-1.367188h.085937l1.023438-.679687 31.402343-19.285156.425782.167969 42.667968 20.992187.253907.425781 21.847656 47.703125zm0 0" fill="#37474f"/><path d="m101.800781 331.433594-15.1875 35.414062c-.445312 1.023438-1.082031 1.949219-1.878906 2.730469l-20.394531 20.480469c-1.632813 1.558594-3.796875 2.441406-6.058594 2.476562h-5.035156c-2.234375-.019531-4.378906-.90625-5.972656-2.476562l-19.199219-19.199219c-1.570313-1.59375-2.457031-3.738281-2.472657-5.972656v-5.035157c.03125-2.261718.914063-4.421874 2.472657-6.058593l20.480469-20.394531c.78125-.796876 1.707031-1.433594 2.730468-1.878907l25.515625-10.921875 9.898438-4.265625c3.21875-1.355469 6.9375-.609375 9.386719 1.875l3.839843 3.839844c2.488281 2.453125 3.230469 6.167969 1.875 9.386719zm0 0" fill="#0377bc"/><path d="m76.800781 320.597656c-.078125.792969-.28125 1.570313-.597656 2.304688l-15.191406 35.414062c-.441407 1.019532-1.082031 1.949219-1.875 2.730469l-20.394531 20.476563-10.667969-10.664063c-1.570313-1.59375-2.457031-3.738281-2.472657-5.972656v-5.035157c.03125-2.261718.914063-4.421874 2.472657-6.058593l20.480469-20.394531c.78125-.796876 1.707031-1.433594 2.730468-1.878907zm0 0" fill="#02a9f4"/><path d="m435.199219 359.851562v5.035157c-.015625 2.234375-.90625 4.378906-2.472657 5.972656l-19.203124 19.199219c-1.59375 1.570312-3.734376 2.457031-5.972657 2.476562h-5.035156c-2.257813-.035156-4.421875-.917968-6.058594-2.476562l-20.394531-20.480469c-.792969-.78125-1.429688-1.707031-1.875-2.730469l-15.191406-35.414062c-.4375-.933594-.667969-1.953125-.679688-2.984375-.058594-2.394531.867188-4.707031 2.558594-6.402344l3.839844-3.839844c2.449218-2.484375 6.167968-3.230469 9.386718-1.875l35.414063 15.1875c1.023437.445313 1.949219 1.082031 2.730469 1.878907l20.480468 20.394531c1.558594 1.636719 2.441407 3.796875 2.472657 6.058593zm0 0" fill="#0377bc"/><path d="m426.667969 372.652344v5.03125c-.019531 2.238281-.90625 4.382812-2.476563 5.976562l-6.398437 6.398438c-1.59375 1.570312-3.738281 2.457031-5.972657 2.476562h-5.035156c-2.261718-.035156-4.421875-.917968-6.058594-2.476562l-20.394531-20.480469c-.796875-.78125-1.433593-1.707031-1.878906-2.730469l-15.1875-35.414062c-.4375-.933594-.671875-1.953125-.683594-2.984375 1.03125.011719 2.050781.246093 2.984375.679687l35.414063 15.191406c1.023437.445313 1.949219 1.082032 2.730469 1.878907l20.480468 20.394531c1.558594 1.632812 2.441406 3.796875 2.476563 6.058594zm0 0" fill="#02a9f4"/><path d="m280.320312 131.414062h-99.839843l24.320312-97.28125h51.199219zm0 0" fill="#37474f"/><path d="m258.988281 131.414062h-78.507812l24.320312-97.28125h29.867188zm0 0" fill="#607d8b"/><path d="m256 20.566406v10.921875c-.007812 12.726563-2.382812 25.34375-6.996094 37.203125-.222656.558594-.480468 1.101563-.769531 1.625l-6.828125 10.921875c-1.523438 2.550781-4.28125 4.105469-7.25 4.09375h-7.511719c-2.773437.019531-5.371093-1.359375-6.910156-3.667969-.160156-.101562-.277344-.25-.34375-.425781l-6.824219-10.921875c-.292968-.523437-.546875-1.066406-.769531-1.625-4.613281-11.859375-6.988281-24.476562-6.996094-37.203125v-10.921875c.015625-2.238281.90625-4.378906 2.472657-5.972656l3.585937-3.585938c1.59375-1.570312 3.734375-2.457031 5.972656-2.472656h27.136719c2.234375.015625 4.378906.902344 5.972656 2.472656l3.582032 3.585938c1.570312 1.59375 2.457031 3.734375 2.476562 5.972656zm0 0" fill="#0377bc"/><path d="m234.667969 20.566406v10.921875c-.011719 12.726563-2.382813 25.34375-7 37.203125-.21875.558594-.476563 1.101563-.765625 1.625l-6.828125 10.921875c.03125.140625-.023438.285157-.144531.363281-.117188.082032-.273438.082032-.394532 0-.117187-.078124-.175781-.222656-.144531-.363281l-6.824219-10.921875c-.292968-.523437-.546875-1.066406-.769531-1.625-4.613281-11.859375-6.988281-24.476562-6.996094-37.203125v-10.921875c.015625-2.238281.90625-4.378906 2.472657-5.972656l3.585937-3.585938c1.59375-1.570312 3.734375-2.457031 5.972656-2.472656h5.800781c2.238282.015625 4.382813.902344 5.976563 2.472656l3.582031 3.585938c1.570313 1.59375 2.457032 3.734375 2.476563 5.972656zm0 0" fill="#02a9f4"/><path d="m341.332031 230.398438c0 21.621093-6.316406 42.769531-18.175781 60.84375-3.226562-10.820313-13.199219-18.222657-24.488281-18.175782-1.601563.011719-3.203125.152344-4.78125.425782 8.710937-12.679688 13.351562-27.710938 13.3125-43.09375zm0 0" fill="#9e9e9e"/><g fill="#cfd8dc"><path d="m341.332031 230.398438h-34.132812c.039062-15.382813-4.601563-30.410157-13.3125-43.089844 1.578125.269531 3.179687.414062 4.78125.425781 11.289062.046875 21.261719-7.355469 24.488281-18.175781 11.859375 18.074218 18.175781 39.222656 18.175781 60.839844zm0 0"/><path d="m273.066406 162.132812c.011719 1.601563.152344 3.199219.425782 4.777344-12.679688-8.707031-27.710938-13.351562-43.09375-13.308594v-34.136718c21.621093.003906 42.769531 6.320312 60.84375 18.179687-10.820313 3.222657-18.222657 13.195313-18.175782 24.488281zm0 0"/><path d="m230.398438 119.464844v34.136718c-15.382813-.042968-30.410157 4.601563-43.089844 13.308594.269531-1.578125.414062-3.175781.425781-4.777344.046875-11.292968-7.355469-21.265624-18.175781-24.488281 18.074218-11.859375 39.222656-18.175781 60.839844-18.179687zm0 0"/><path d="m166.910156 187.308594c-8.707031 12.679687-13.351562 27.707031-13.308594 43.089844h-34.136718c.003906-21.617188 6.320312-42.765626 18.179687-60.839844 3.222657 10.820312 13.195313 18.222656 24.488281 18.175781 1.601563-.011719 3.199219-.15625 4.777344-.425781zm0 0"/></g><path d="m166.910156 273.492188c-1.578125-.273438-3.175781-.414063-4.777344-.425782-11.292968-.046875-21.265624 7.355469-24.488281 18.175782-11.859375-18.074219-18.175781-39.222657-18.179687-60.84375h34.136718c-.042968 15.382812 4.601563 30.414062 13.308594 43.09375zm0 0" fill="#9e9e9e"/><path d="m230.398438 307.542969v33.789062c-20.769532.019531-41.125-5.835937-58.707032-16.894531l-2.132812-1.28125c12.09375-3.6875 19.699218-15.640625 17.917968-28.160156 12.792969 8.25 27.703126 12.609375 42.921876 12.546875zm0 0" fill="#9e9e9e"/><path d="m288.683594 324.4375.253906.085938c-17.53125 11.019531-37.828125 16.847656-58.539062 16.808593v-33.789062c15.222656.0625 30.132812-4.296875 42.925781-12.546875-1.765625 12.390625 5.660156 24.25 17.578125 28.074218zm0 0" fill="#9e9e9e"/><path d="m275.625 287.574219c-1.121094 2.347656-1.898438 4.851562-2.300781 7.421875-7.324219 4.753906-15.402344 8.21875-23.894531 10.242187-21.183594 5.203125-43.570313 1.503907-61.953126-10.242187-.402343-2.570313-1.179687-5.074219-2.304687-7.421875.390625-.292969.757813-.605469 1.109375-.941407l26.882812-26.878906c5.199219 3.144532 11.160157 4.796875 17.234376 4.78125 1.34375 0 2.683593-.085937 4.011718-.257812.203125.015625.40625-.015625.597656-.085938 4.472657-.582031 8.773438-2.09375 12.628907-4.4375l26.878906 26.878906c.351563.335938.722656.648438 1.109375.941407zm0 0" fill="#37474f"/><path d="m275.625 173.226562c-.390625.289063-.757812.601563-1.109375.9375l-26.878906 26.882813c-3.855469-2.34375-8.15625-3.855469-12.628907-4.4375-.191406-.070313-.394531-.101563-.597656-.085937-1.328125-.171876-2.667968-.257813-4.011718-.257813-6.074219-.015625-12.035157 1.636719-17.234376 4.78125l-26.882812-26.882813c-.347656-.335937-.71875-.648437-1.109375-.9375.976563-2.003906 1.695313-4.128906 2.136719-6.316406 12.679687-8.707031 27.707031-13.351562 43.089844-13.308594 5.832031-.003906 11.644531.652344 17.324218 1.960938.085938-.085938.085938 0 .085938 0 9.1875 2.167969 17.898437 6.015625 25.683594 11.347656.441406 2.1875 1.15625 4.3125 2.132812 6.316406zm0 0" fill="#37474f"/><path d="m262.828125 291.839844c-1.125 2.351562-1.902344 4.851562-2.304687 7.425781-3.519532 2.304687-7.230469 4.304687-11.09375 5.972656-21.183594 5.203125-43.570313 1.503907-61.953126-10.242187-.402343-2.570313-1.179687-5.074219-2.304687-7.421875.390625-.292969.757813-.605469 1.109375-.941407l19.882812-19.878906c3.65625 1.375 7.53125 2.066406 11.4375 2.046875 5.902344.011719 11.707032-1.550781 16.808594-4.523437.171875-.085938.257813-.171875.425782-.257813l26.882812 26.882813c.351562.332031.71875.644531 1.109375.9375zm0 0" fill="#607d8b"/><path d="m262.828125 168.960938c-.390625.285156-.761719.601562-1.109375.9375l-26.710938 26.710937-.171874.167969c-.167969-.085938-.253907-.167969-.425782-.253906-5.101562-2.972657-10.90625-4.535157-16.808594-4.523438-3.90625-.023438-7.78125.671875-11.4375 2.046875l-19.882812-19.882813c-.347656-.335937-.71875-.648437-1.109375-.9375.976563-2.003906 1.695313-4.128906 2.136719-6.316406 12.679687-8.707031 27.707031-13.351562 43.089844-13.308594 5.832031-.003906 11.644531.652344 17.324218 1.960938.085938-.085938.085938 0 .085938 0 4.507812 1.953125 8.820312 4.324219 12.882812 7.082031.441406 2.1875 1.160156 4.308594 2.136719 6.316407zm0 0" fill="#607d8b"/><path d="m264.535156 230.398438c.015625 6.078124-1.636718 12.039062-4.78125 17.238281-2.851562 5.074219-7.042968 9.265625-12.117187 12.117187-5.199219 3.144532-11.160157 4.796875-17.238281 4.78125-2.878907.019532-5.75-.355468-8.53125-1.109375-3.074219-.761719-6.011719-2-8.703126-3.671875-5.074218-2.851562-9.265624-7.042968-12.117187-12.117187-6.375-10.609375-6.375-23.867188 0-34.472657 2.851563-5.074218 7.042969-9.265624 12.117187-12.117187 2.691407-1.671875 5.628907-2.910156 8.703126-3.671875 2.78125-.753906 5.652343-1.128906 8.53125-1.109375 6.078124-.015625 12.039062 1.636719 17.238281 4.78125 5.074219 2.851563 9.265625 7.042969 12.117187 12.117187 3.144532 5.199219 4.796875 11.160157 4.78125 17.234376zm0 0" fill="#ff9801"/><path d="m247.464844 230.398438c.019531 6.078124-1.632813 12.039062-4.777344 17.238281-2.851562 5.074219-7.042969 9.265625-12.117188 12.117187-2.691406 1.671875-5.628906 2.910156-8.703124 3.671875-3.074219-.761719-6.011719-2-8.703126-3.671875-5.074218-2.851562-9.265624-7.042968-12.117187-12.117187-6.375-10.609375-6.375-23.867188 0-34.472657 2.851563-5.074218 7.042969-9.265624 12.117187-12.117187 2.691407-1.671875 5.628907-2.910156 8.703126-3.671875 3.074218.761719 6.011718 2 8.703124 3.671875 5.074219 2.851563 9.265626 7.042969 12.117188 12.117187 3.144531 5.199219 4.796875 11.160157 4.777344 17.234376zm0 0" fill="#fec108"/><path d="m196.265625 230.398438c-.015625 6.078124 1.636719 12.039062 4.78125 17.238281l-26.882813 26.878906c-.335937.351563-.648437.71875-.9375 1.109375-2.003906-.976562-4.128906-1.691406-6.316406-2.132812-17.746094-25.988282-17.746094-60.199219 0-86.183594 2.1875-.441406 4.3125-1.160156 6.316406-2.136719.289063.390625.601563.761719.9375 1.109375l26.882813 26.882812c-3.144531 5.199219-4.796875 11.160157-4.78125 17.234376zm0 0" fill="#02a9f4"/><path d="m307.199219 230.398438c.039062 15.382812-4.601563 30.414062-13.3125 43.09375-2.1875.441406-4.308594 1.15625-6.3125 2.132812-.289063-.390625-.601563-.757812-.941407-1.109375l-26.878906-26.878906c6.371094-10.609375 6.371094-23.867188 0-34.472657l26.878906-26.882812c.339844-.347656.652344-.71875.941407-1.109375 2.003906.976563 4.125 1.695313 6.3125 2.136719 8.710937 12.679687 13.351562 27.707031 13.3125 43.089844zm0 0" fill="#0377bc"/><path d="m285.867188 230.398438c.039062 12.144531-2.859376 24.121093-8.449219 34.902343l-17.664063-17.664062c6.371094-10.609375 6.371094-23.867188 0-34.472657l17.664063-17.664062c5.589843 10.78125 8.488281 22.753906 8.449219 34.898438zm0 0" fill="#02a9f4"/><path d="m266.410156 436.308594-16.894531 57.34375c-1.226563 3.328125-4.390625 5.539062-7.9375 5.546875h-22.355469c-3.546875-.007813-6.710937-2.21875-7.9375-5.546875l-16.214844-55.039063c-.988281-3.308593.125-6.886719 2.816407-9.046875l19.882812-15.871094c.621094-.496093 1.3125-.898437 2.050781-1.195312 1.050782-.445312 2.183594-.679688 3.328126-.679688h14.25c2.003906-.011718 3.96875.582032 5.632812 1.703126l19.964844 13.230468c3.117187 2.085938 4.5 5.964844 3.414062 9.554688zm0 0" fill="#ff9801"/><path d="m245.078125 436.308594-16.898437 57.34375c-1.226563 3.328125-4.390626 5.539062-7.933594 5.546875h-1.023438c-3.546875-.007813-6.710937-2.21875-7.9375-5.546875l-16.214844-55.039063c-.988281-3.308593.125-6.886719 2.816407-9.046875l19.882812-15.871094c.621094-.496093 1.3125-.898437 2.050781-1.195312.667969.257812 1.296876.601562 1.875 1.023438l19.96875 13.230468c3.113282 2.085938 4.5 5.964844 3.414063 9.554688zm0 0" fill="#fec108"/><path d="m268.800781 396.03125v20.566406c-.085937.683594-.257812 1.707032-.34375 2.390625l-1.277343 4.351563c-.75 2.605468-2.691407 4.703125-5.234376 5.644531-2.542968.945313-5.382812.621094-7.652343-.867187l-7.167969-4.777344v-.085938c.085938-.683594.257812-1.707031.339844-2.390625v-20.566406c-.015625-2.234375-.902344-4.378906-2.472656-5.972656l-12.117188-12.117188c-1.59375-1.570312-3.738281-2.457031-5.972656-2.472656h-30.636719l1.792969-1.792969c1.59375-1.570312 3.738281-2.457031 5.972656-2.476562h44.203125c2.238281.019531 4.378906.90625 5.972656 2.476562l12.117188 12.117188c1.570312 1.59375 2.457031 3.738281 2.476562 5.972656zm0 0" fill="#f57c00"/><path d="m247.464844 400.296875v20.566406c-.082032.683594-.253906 1.707031-.339844 2.390625v.085938l-8.363281-5.546875c-1.660157-1.125-3.625-1.71875-5.632813-1.707031h-14.25c-1.949218.007812-3.84375.667968-5.375 1.875l-2.988281 2.390624-11.347656 9.132813c-1.96875 1.566406-4.527344 2.1875-6.996094 1.695313-2.46875-.492188-4.589844-2.050782-5.804687-4.257813-.339844-.527344-.597657-1.101563-.765626-1.707031l-1.792968-6.226563c-.085938-.769531-.257813-1.539062-.34375-2.390625v-20.566406c.019531-2.234375.90625-4.378906 2.476562-5.972656l10.324219-10.324219h30.636719c2.234375.015625 4.378906.902344 5.972656 2.472656l12.117188 12.117188c1.570312 1.59375 2.457031 3.738281 2.472656 5.972656zm0 0" fill="#ff9801"/><path d="m300.117188 136.617188 30.207031-30.207032 24.152343 24.148438-30.296874 30.292968zm0 0" fill="#d1d4d1"/><path d="m106.410156 130.558594 24.148438-24.144532 6.035156 6.03125-24.148438 24.148438zm0 0" fill="#802d40"/><path d="m106.496094 130.640625 24.148437-24.144531 30.121094 30.121094-24.148437 24.148437zm0 0" fill="#d1d4d1"/><path d="m324.265625 162.132812c-.015625 2.515626-.386719 5.015626-1.109375 7.425782-3.226562 10.820312-13.199219 18.222656-24.488281 18.175781-1.601563-.011719-3.203125-.15625-4.78125-.425781-1.246094-.253906-2.472657-.59375-3.667969-1.027344-.902344-.316406-1.785156-.6875-2.644531-1.109375-5.230469-2.5-9.449219-6.714844-11.949219-11.945313-.976562-2.003906-1.691406-4.128906-2.132812-6.316406-.273438-1.578125-.414063-3.175781-.425782-4.777344-.050781-10.875 6.855469-20.566406 17.152344-24.0625.324219-.179687.667969-.320312 1.023438-.425781 2.410156-.722656 4.910156-1.097656 7.425781-1.109375.484375-.015625.96875.011719 1.449219.082032 13.058593.695312 23.464843 11.171874 24.0625 24.234374.074218.425782.101562.851563.085937 1.28125zm0 0" fill="#ff9801"/><path d="m187.734375 162.132812c-.011719 1.601563-.15625 3.199219-.425781 4.777344-.441406 2.1875-1.160156 4.3125-2.136719 6.316406-2.5 5.230469-6.714844 9.445313-11.945313 11.945313-2.003906.976563-4.128906 1.695313-6.316406 2.136719-1.578125.269531-3.175781.414062-4.777344.425781-2.933593.003906-5.847656-.488281-8.617187-1.453125-7.65625-2.71875-13.554687-8.933594-15.871094-16.722656-.722656-2.410156-1.097656-4.910156-1.109375-7.425782-.015625-.457031.011719-.914062.082032-1.363281.523437-10.28125 7.144531-19.253906 16.8125-22.785156 2.367187-.804687 4.839843-1.265625 7.339843-1.367187.449219-.070313.90625-.097657 1.363281-.082032 2.515626.011719 5.015626.386719 7.425782 1.109375 10.820312 3.222657 18.222656 13.195313 18.175781 24.488281zm0 0" fill="#ff9801"/><path d="m187.734375 298.667969c.046875 11.289062-7.355469 21.261719-18.175781 24.488281-2.410156.722656-4.910156 1.09375-7.425782 1.109375-2.941406.027344-5.863281-.492187-8.617187-1.535156-10.117187-3.707031-16.878906-13.292969-16.980469-24.0625.011719-2.515625.386719-5.015625 1.109375-7.425781 2.316407-7.789063 8.214844-14.003907 15.871094-16.726563 2.769531-.964844 5.683594-1.453125 8.617187-1.449219 1.601563.011719 3.199219.152344 4.777344.425782 2.1875.441406 4.3125 1.15625 6.316406 2.132812 5.230469 2.5 9.445313 6.71875 11.945313 11.949219 1.125 2.347656 1.902344 4.851562 2.304687 7.421875.175782 1.214844.257813 2.441406.257813 3.671875zm0 0" fill="#ff9801"/><path d="m324.265625 298.667969c-.015625 1.542969-.15625 3.085937-.425781 4.605469-2.1875 12.175781-12.800782 21.027343-25.171875 20.992187-2.515625-.015625-5.015625-.386719-7.425781-1.109375-.085938 0-.171876-.085938-.253907-.085938h-.085937c-.171875-.082031-.425782-.167968-.597656-.253906-11.59375-4.007812-18.71875-15.675781-16.980469-27.820312.402343-2.570313 1.179687-5.074219 2.300781-7.421875 2.5-5.230469 6.71875-9.449219 11.949219-11.949219.859375-.417969 1.742187-.789062 2.644531-1.109375 1.195312-.429687 2.421875-.773437 3.667969-1.023437 1.578125-.273438 3.179687-.414063 4.78125-.425782 11.289062-.046875 21.261719 7.355469 24.488281 18.175782.722656 2.410156 1.09375 4.910156 1.109375 7.425781zm0 0" fill="#ff9801"/><path d="m307.199219 162.132812c-.015625 2.515626-.386719 5.015626-1.109375 7.425782-2.316406 7.789062-8.214844 14.003906-15.871094 16.722656-.902344-.316406-1.785156-.6875-2.644531-1.109375-5.230469-2.5-9.449219-6.714844-11.949219-11.945313-.976562-2.003906-1.691406-4.128906-2.132812-6.316406-.273438-1.578125-.414063-3.175781-.425782-4.777344-.050781-10.875 6.855469-20.566406 17.152344-24.0625 9.757812 3.429688 16.445312 12.449219 16.894531 22.78125.070313.425782.101563.851563.085938 1.28125zm0 0" fill="#fec108"/><path d="m170.667969 162.132812c-.011719 1.601563-.15625 3.199219-.429688 4.777344-.4375 2.1875-1.15625 4.3125-2.132812 6.316406-2.5 5.230469-6.714844 9.445313-11.945313 11.945313-.859375.421875-1.742187.792969-2.644531 1.109375-7.65625-2.71875-13.554687-8.933594-15.871094-16.722656-.722656-2.410156-1.097656-4.910156-1.109375-7.425782-.015625-.457031.011719-.914062.082032-1.363281.523437-10.28125 7.144531-19.253906 16.8125-22.785156 10.339843 3.507813 17.28125 13.230469 17.238281 24.148437zm0 0" fill="#fec108"/><path d="m170.667969 298.667969c.050781 10.875-6.855469 20.566406-17.152344 24.0625-10.117187-3.707031-16.878906-13.292969-16.980469-24.0625.011719-2.515625.386719-5.015625 1.109375-7.425781 2.316407-7.789063 8.214844-14.003907 15.871094-16.726563.902344.320313 1.785156.691406 2.644531 1.109375 5.230469 2.5 9.445313 6.71875 11.945313 11.949219 1.125 2.347656 1.902343 4.851562 2.304687 7.421875.171875 1.214844.257813 2.441406.257813 3.671875zm0 0" fill="#fec108"/><path d="m307.199219 298.667969c-.015625 1.542969-.15625 3.085937-.425781 4.605469-1.632813 8.976562-7.902344 16.414062-16.46875 19.542968-11.59375-4.007812-18.71875-15.675781-16.980469-27.820312.402343-2.570313 1.179687-5.074219 2.300781-7.421875 2.5-5.230469 6.71875-9.449219 11.949219-11.949219.859375-.417969 1.742187-.789062 2.644531-1.109375 7.65625 2.722656 13.554688 8.9375 15.871094 16.726563.722656 2.410156 1.09375 4.910156 1.109375 7.425781zm0 0" fill="#fec108"/><path d="m447.230469 40.617188-35.328125 59.308593c-1.742188 2.839844-4.957032 4.433594-8.277344 4.09375l-15.273438-1.789062-10.75-1.195313c-2.207031-.222656-4.261718-1.222656-5.804687-2.816406l-9.386719-9.300781c-1.382812-1.363281-2.308594-3.121094-2.644531-5.035157l-4.949219-24.660156c-.71875-3.539062.894532-7.140625 4.011719-8.960937l52.90625-31.660157 8.445313-5.035156c3.234374-1.445312 7.023437-.765625 9.558593 1.707032l15.785157 15.789062c2.476562 2.53125 3.152343 6.320312 1.707031 9.554688zm0 0" fill="#ff9801"/><path d="m425.898438 40.617188-35.328126 59.308593c-.558593.925781-1.316406 1.710938-2.21875 2.304688l-10.75-1.195313c-2.207031-.222656-4.261718-1.222656-5.804687-2.816406l-9.386719-9.300781c-1.382812-1.363281-2.308594-3.121094-2.644531-5.035157l-4.949219-24.660156c-.71875-3.539062.894532-7.140625 4.011719-8.960937l52.90625-31.660157 12.457031 12.460938c2.476563 2.53125 3.152344 6.320312 1.707032 9.554688zm0 0" fill="#fec108"/><path d="m402.347656 115.96875-3.839844 6.398438c-.429687.511718-.855468 1.109374-1.28125 1.621093l-14.335937 14.421875c-1.628906 1.574219-3.796875 2.457032-6.058594 2.476563h-17.066406c-2.257813-.035157-4.421875-.917969-6.058594-2.476563l-12.628906-12.628906c1.617187 1.457031 3.710937 2.277344 5.886719 2.304688h17.066406c2.261719-.015626 4.433594-.902344 6.058594-2.476563l14.335937-14.421875c.425781-.511719.855469-1.109375 1.28125-1.621094l3.839844-6.398437c.183594-.21875.300781-.484375.339844-.769531l6.058593.683593c2.878907.351563 5.386719 2.121094 6.675782 4.71875 1.289062 2.59375 1.183594 5.664063-.273438 8.167969zm0 0" fill="#f57c00"/><path d="m389.886719 102.398438c-.039063.285156-.15625.550781-.339844.769531l-3.839844 6.398437c-.425781.511719-.855469 1.109375-1.28125 1.621094l-14.335937 14.421875c-1.625 1.574219-3.796875 2.460937-6.058594 2.476563h-17.066406c-2.175782-.027344-4.269532-.847657-5.886719-2.304688l-.171875-.171875-18.429688-18.515625c-1.589843-1.582031-2.480468-3.730469-2.476562-5.972656v-17.066406c.019531-2.238282.90625-4.378907 2.476562-5.976563l14.417969-14.417969 1.621094-1.28125 4.695313-2.816406c.414062-.285156.875-.488281 1.363281-.597656 2.339843-.921875 4.96875-.761719 7.175781.441406s3.769531 3.324219 4.261719 5.789062l3.753906 18.6875c.1875 1.082032.5625 2.121094 1.109375 3.070313.414062.726563.933594 1.386719 1.535156 1.964844l9.386719 9.300781c1.542969 1.59375 3.597656 2.59375 5.804687 2.816406zm0 0" fill="#ff9801"/><path d="m389.886719 102.398438-12.285157-1.363282c-2.207031-.222656-4.261718-1.222656-5.804687-2.816406l-9.386719-9.300781c-.601562-.578125-1.121094-1.238281-1.535156-1.964844 1.207031.691406 2.542969 1.128906 3.925781 1.28125l18.347657 2.046875c2.71875.335938 5.113281 1.953125 6.445312 4.347656 1.335938 2.394532 1.441406 5.28125.292969 7.769532zm0 0" fill="#ff9801"/><path d="m106.070312 59.222656-4.949218 24.660156c-.335938 1.914063-1.261719 3.671876-2.644532 5.035157l-9.644531 9.640625c-1.347656 1.359375-3.128906 2.203125-5.035156 2.390625l-26.367187 3.070312h-.171876c-3.316406.339844-6.535156-1.253906-8.277343-4.09375l-35.414063-59.308593c-1.445312-3.234376-.765625-7.023438 1.707032-9.554688l15.789062-15.789062c2.53125-2.472657 6.320312-3.152344 9.554688-1.707032l61.441406 36.695313c3.117187 1.820312 4.730468 5.421875 4.011718 8.960937zm0 0" fill="#ff9801"/><path d="m76.203125 63.488281-4.949219 24.660157c-.335937 1.914062-1.261718 3.671874-2.644531 5.035156l-9.644531 9.644531c-.457032.464844-.972656.863281-1.535156 1.191406h-.171876c-3.316406.339844-6.535156-1.253906-8.277343-4.09375l-35.414063-59.308593c-1.445312-3.234376-.765625-7.023438 1.707032-9.554688l6.570312-6.570312 50.347656 30.035156c3.117188 1.820312 4.730469 5.421875 4.011719 8.960937zm0 0" fill="#fec108"/><path d="m140.886719 84.054688v17.066406c-.019531 2.261718-.902344 4.429687-2.476563 6.058594l-3.5 3.582031-.082031-.085938-24.152344 24.152344.085938.082031-3.582031 3.5c-1.628907 1.574219-3.796876 2.457032-6.058594 2.476563h-13.570313l21.675781-21.675781.085938.085937 3.5-3.585937c1.570312-1.625 2.457031-3.796876 2.472656-6.058594v-17.066406c-.03125-2.257813-.917968-4.421876-2.472656-6.058594l-10.15625-10.152344 2.21875-11.179688c.542969-2.734374 2.382812-5.027343 4.933594-6.148437 2.550781-1.125 5.484375-.929687 7.867187.515625l4.691407 2.816406c.511718.425782 1.109374.851563 1.621093 1.28125l14.421875 14.335938c1.558594 1.636718 2.441406 3.796875 2.476563 6.058594zm0 0" fill="#f57c00"/><path d="m115.285156 92.585938v17.066406c-.015625 2.261718-.902344 4.433594-2.472656 6.058594l-3.5 3.585937-.085938-.085937-21.675781 21.675781h-3.496093c-2.261719-.035157-4.421876-.917969-6.058594-2.476563l-14.335938-14.421875-1.28125-1.621093-3.839844-6.398438c-1.152343-1.925781-1.460937-4.242188-.855468-6.402344.816406-3.46875 3.714844-6.0625 7.253906-6.484375l2.5625-.253906 16.296875-1.878906c1.90625-.1875 3.6875-1.03125 5.035156-2.390625l9.644531-9.640625c1.382813-1.363281 2.308594-3.121094 2.644532-5.035157l1.535156-7.507812 10.15625 10.152344c1.554688 1.636718 2.441406 3.800781 2.472656 6.058594zm0 0" fill="#ff9801"/><path d="m145.136719 79.804688c.011719-4.53125-1.789063-8.875-5.003907-12.066407l-14.503906-14.507812c-1.320312-1.332031-2.851562-2.4375-4.53125-3.269531l-80.351562-47.988282c-.273438-.164062-.558594-.308594-.851563-.4375-6.476562-2.917968-14.078125-1.53906225-19.117187 3.464844l-15.777344 15.777344c-5.015625 5.039062-6.394531 12.65625-3.464844 19.132812.128906.292969.273438.578125.4375.855469l48.015625 80.40625c.824219 1.667969 1.914063 3.1875 3.234375 4.5l14.507813 14.503906c3.1875 3.214844 7.535156 5.015625 12.066406 5h17.066406c3.292969-.011719 6.515625-.976562 9.273438-2.78125l22.085937 22.101563c.0625 1.203125.183594 2.402344.367188 3.59375-23.550782 38.234375-23.550782 86.472656 0 124.707031-.308594 1.71875-.484375 3.457031-.53125 5.203125l-32.640625 16.027344-5.972657-5.972656c-2.464843-2.464844-6.179687-3.179688-9.386718-1.808594l-24.097656 10.339844c-12.976563 5.546874-24.769532 13.527343-34.738282 23.519531l-10.1875 10.238281c-1.589844 1.589844-2.488281 3.742188-2.5 5.992188v12.066406c0 2.261718.898438 4.433594 2.5 6.03125l24.128906 24.132812c1.601563 1.601563 3.773438 2.5 6.035157 2.5h12.066406c2.261719 0 4.433594-.898437 6.03125-2.5l10.242187-10.1875c2.457032-2.46875 4.789063-5.03125 6.996094-7.679687l94.730469-46.550781c10.460937 5.980468 21.765625 10.339843 33.535156 12.9375v20.238281c-3.226562.691406-6.1875 2.289062-8.535156 4.609375l-12.066406 12.066406c-3.1875 3.207031-4.984375 7.542969-5 12.066406v20.480469c-.03125 1.835937.257812 3.664063.855469 5.402344l23.210937 78.957031c2.511719 6.652344 8.871094 11.066406 15.980469 11.09375h22.308594c7.324218-.070312 13.816406-4.742188 16.210937-11.664062l22.785156-77.757813c.714844-1.910156 1.082031-3.933594 1.082031-5.972656v-20.480469c-.007812-4.546875-1.816406-8.90625-5.035156-12.125l-12.0625-12.066406c-2.347656-2.320313-5.308594-3.917969-8.535156-4.609375v-20.238281c11.765625-2.597657 23.074219-6.957032 33.535156-12.9375l94.773438 46.539062c2.210937 2.664062 4.542968 5.222656 6.996094 7.679688l10.238281 10.191406c1.601562 1.601562 3.773437 2.5 6.035156 2.5h12.066406c2.261719 0 4.433594-.898438 6.03125-2.5l24.132813-24.132813c1.582031-1.605469 2.464844-3.769531 2.457031-6.023437v-12.066406c0-2.265626-.898437-4.433594-2.5-6.035157l-10.1875-10.238281c-9.972656-9.976562-21.769531-17.945312-34.75-23.476562l-24.113281-10.332032c-3.203125-1.371094-6.921875-.65625-9.386719 1.808594l-5.972656 5.972656-32.648438-16.042968c-.046875-1.746094-.222656-3.484376-.53125-5.203126 23.550781-38.234374 23.550781-86.476562 0-124.707031.179688-1.164062.296875-2.332031.351563-3.507812l22.1875-22.1875c2.761718 1.800781 5.984375 2.769531 9.28125 2.78125h17.070312c4.527344.011719 8.871094-1.789063 12.0625-5l14.507813-14.507813c1.332031-1.320312 2.4375-2.855468 3.269531-4.539062l47.921875-80.382813c.152344-.265625.300781-.546875.425781-.851562 2.933594-6.480469 1.554688-14.09375-3.464844-19.132813l-15.769531-15.753906c-5.039062-5.0117188-12.652343-6.390625-19.128906-3.464844-.292969.128906-.574219.28125-.855469.4375l-80.273437 48.015625c-1.660157.828125-3.175781 1.921875-4.488281 3.234375l-14.503907 14.507813c-3.230469 3.1875-5.042969 7.535156-5.035156 12.074219v17.066406c.015625 3.285156.976563 6.5 2.765625 9.257812l-22.09375 22.09375c-1.234375.058594-2.464844.183594-3.6875.375-1.707031-1.03125-3.414062-2.066406-5.121094-3.003906l-23.132812-92.75c0-.460938.070312-.902344.070312-1.363281v-14.414063c-.003906-2.261718-.902344-4.433594-2.503906-6.03125l-8.53125-8.535156c-1.601562-1.601562-3.769531-2.5-6.035156-2.5h-34.132813c-2.261719 0-4.433593.898438-6.03125 2.5l-8.535156 8.535156c-1.597656 1.597656-2.5 3.769532-2.5 6.03125v14.414063c0 .460937.0625.902343.070313 1.363281l-23.1875 92.75c-1.707032.9375-3.410157 1.972656-5.117188 3.003906-1.195312-.183594-2.398438-.304687-3.601562-.367187l-22.09375-22.085938c1.804687-2.757812 2.769531-5.976562 2.78125-9.273437zm129.347656 58.273437c-4.066406 4.144531-7.003906 9.257813-8.535156 14.855469-8.539063-3.902344-17.667969-6.347656-27.015625-7.234375v-17.007813c12.316406.976563 24.355468 4.15625 35.550781 9.386719zm67.914063-7.507813-14.394532 14.394532c-2.933594-4.992188-7.085937-9.15625-12.066406-12.109375l14.378906-14.371094zm15.054687 198.945313 10.332031 24.027344-51.957031-25.511719c5.347656-3.148438 9.742187-7.695312 12.707031-13.152344l28.824219 14.15625c.019531.164063.050781.320313.09375.480469zm-171.136719-6.828125c4.066406-4.144531 7.003906-9.257812 8.535156-14.855469 8.535157 3.914063 17.667969 6.371094 27.015626 7.269531v17.007813c-12.316407-.976563-24.355469-4.15625-35.550782-9.386719zm-82.96875 6.828125c.046875-.152344.089844-.304687.117188-.460937l28.800781-14.175782c2.972656 5.453125 7.371094 9.992188 12.722656 13.132813l-51.957031 25.515625zm162.984375-156.902344c.757813 2.351563 1.769531 4.617188 3.023438 6.75l-15.480469 15.476563c-14.226562-9.476563-32.757812-9.476563-46.984375 0l-15.480469-15.476563c1.253906-2.132812 2.265625-4.398437 3.023438-6.75 22.070312-13.5 49.84375-13.5 71.917968 0zm49.402344-10.480469c-.007813 6.894532-4.160156 13.113282-10.53125 15.753907-6.367187 2.640625-13.703125 1.191406-18.585937-3.679688-5.472657-5.457031-6.597657-13.910156-2.738282-20.605469 3.859375-6.699218 11.738282-9.964843 19.203125-7.964843 7.46875 2 12.65625 8.765625 12.652344 16.496093zm0 136.535157c.003906 7.722656-5.179687 14.488281-12.640625 16.492187s-15.335938-1.25-19.203125-7.9375-2.757813-15.140625 2.703125-20.605468c4.875-4.882813 12.214844-6.347657 18.59375-3.710938s10.539062 8.859375 10.546875 15.761719zm-121.285156-10.480469c-.753907-2.355469-1.769531-4.617188-3.019531-6.75l15.476562-15.480469c14.230469 9.476563 32.757812 9.476563 46.984375 0l15.480469 15.480469c-1.25 2.132812-2.265625 4.394531-3.019532 6.75-22.070312 13.492188-49.832031 13.492188-71.902343 0zm-32.316407 27.546875c-7.722656.003906-14.488281-5.179687-16.492187-12.640625-2.007813-7.460938 1.25-15.335938 7.9375-19.203125s15.140625-2.757813 20.605469 2.703125c4.882812 4.875 6.347656 12.214844 3.710937 18.59375-2.640625 6.378906-8.859375 10.539062-15.761719 10.546875zm50.175782-94.890625c2.265625 0 4.433594-.902344 6.035156-2.5 2.890625-2.917969 3.25-7.496094.851562-10.832031 7.054688-3.617188 15.421876-3.617188 22.476563 0-2.398437 3.335937-2.039063 7.914062.855469 10.832031 2.863281 3 7.527344 3.371094 10.828125.851562 3.617187 7.054688 3.617187 15.421876 0 22.476563-3.316407-2.449219-7.925781-2.105469-10.839844.808594-2.914063 2.914062-3.257813 7.523437-.808594 10.839843-7.054687 3.617188-15.421875 3.617188-22.476562 0 2.449219-3.316406 2.105469-7.925781-.808594-10.839843-2.914063-2.914063-7.523437-3.257813-10.839844-.808594-3.617187-7.054687-3.617187-15.421875 0-22.476563 1.375 1.011719 3.019531 1.585938 4.726563 1.648438zm69.121094-29.414062c2.136718 1.253906 4.40625 2.269531 6.765624 3.027343 13.949219 21.933594 13.949219 49.953125 0 71.886719-2.359374.757812-4.628906 1.773438-6.765624 3.027344l-15.480469-15.480469c9.476562-14.226563 9.476562-32.753906 0-46.984375zm-86.597657 62.460937-15.476562 15.480469c-2.140625-1.253906-4.410157-2.269532-6.769531-3.027344-13.949219-21.933594-13.949219-49.953125 0-71.886719 2.359374-.757812 4.628906-1.773437 6.769531-3.027343l15.476562 15.476562c-9.476562 14.230469-9.476562 32.757812 0 46.984375zm-20.632812-79.707031c-5.757813 5.757812-14.785157 6.644531-21.554688 2.117187-6.769531-4.527343-9.394531-13.207031-6.273437-20.730469 3.121094-7.519531 11.121094-11.789062 19.109375-10.191406 7.984375 1.59375 13.730469 8.609375 13.71875 16.753906.003906 4.53125-1.804688 8.878907-5.015625 12.074219zm-21.273438 20.667968c-3.898437 8.539063-6.34375 17.667969-7.226562 27.015626h-17.308594c1.03125-12.347657 4.300781-24.40625 9.644531-35.585938 4.15625 4.082031 9.285156 7.03125 14.898438 8.570312zm-7.226562 44.082032c.886719 9.347656 3.332031 18.476562 7.234375 27.015625-5.613282 1.527343-10.738282 4.464843-14.898438 8.535156-5.339844-11.167969-8.609375-23.214844-9.644531-35.550781zm93.234375 93.175781v-17.007813c9.347656-.886718 18.476562-3.332031 27.015625-7.234374 1.53125 5.597656 4.46875 10.710937 8.535156 14.855468-11.195313 5.230469-23.234375 8.410156-35.550781 9.386719zm68.933594-66.160156c3.902343-8.539063 6.347656-17.667969 7.234374-27.015625h17.304688c-1.027344 12.347656-4.296875 24.40625-9.640625 35.582031-4.15625-4.078125-9.285156-7.027344-14.898437-8.566406zm7.234374-44.082031c-.886718-9.347657-3.332031-18.476563-7.234374-27.015626 5.609374-1.53125 10.738281-4.46875 14.898437-8.535156 5.339844 11.167969 8.609375 23.214844 9.640625 35.550782zm-93.234374-76.167969c-9.347657.886719-18.476563 3.332031-27.015626 7.234375-1.53125-5.597656-4.46875-10.710938-8.535156-14.855469 11.195313-5.230469 23.234375-8.410156 35.550782-9.386719zm-89.039063-.785157-14.34375-14.355468 12.074219-12.066406 14.347656 14.335937c-4.984375 2.941406-9.140625 7.097656-12.078125 12.085937zm-100.027344-127.804687 58.882813 35.175781-5.179688 25.804688-8.132812 8.132812-27.53125 3.070313-33.730469-56.492188zm47.003907 110.933594-14.507813-14.507813c-.125-.292968-.269531-.578125-.433594-.851562l-4.378906-7.3125 19.8125-2.21875c3.84375-.445313 7.421875-2.171875 10.164063-4.898438l8.132812-8.132812c2.378906-2.378906 4.003906-5.40625 4.667969-8.703125l3.984375-19.882813 5.488281 3.277344c.273437.167969.558594.316406.851563.441406l14.507812 14.507813v17.066406l-3.414062 3.414063-.09375.066406-24.148438 24.148437-.070312.09375-3.410157 3.414063zm-22.382813 248.277343-7.679687 7.679688h-5.011719l-19.128907-19.132812v-5l7.679688-7.679688c8.433594-8.457031 18.414062-15.214844 29.394531-19.90625l18.773438-8.066406 3.902343 3.898437-8.054687 18.773438c-4.683594 10.992187-11.429687 20.984375-19.875 29.433593zm184.132813 118.613282-22.101563.597656-15.363281-52.285156 20.773437-16.578125h11.511719l21.085938 14.019531zm22.78125-77.746094-1.867188 6.363281-16.648438-11.09375c-2.796874-1.863281-6.085937-2.859375-9.445312-2.855469h-11.511719c-3.875-.003906-7.628906 1.3125-10.652343 3.734376l-15.308594 12.222656-2.636719-8.976563v-20.480469l12.066406-12.101562h44.136719l12.066406 12.066406zm-25.402344-50.253906h-17.066406v-17.375c2.832031.195312 5.675781.308594 8.53125.308594 2.859374 0 5.703124-.113282 8.535156-.308594zm140.375-42.726563 18.769531 8.0625c11 4.6875 20.996094 11.449219 29.441406 19.910157l7.679688 7.679687v5l-19.132813 19.140625h-5l-7.679687-7.679688c-8.457031-8.433593-15.214844-18.414062-19.90625-29.398437l-8.066407-18.773437zm48.6875-307.097656 15.738281 15.691406-33.671875 56.492188-27.496094-3.070313-8.132812-8.132812-5.179688-25.824219zm-95.195313 62.695313 14.507813-14.507813c.289062-.128906.570312-.28125.851562-.433594l5.476563-3.277343 3.988281 19.890624c.664062 3.292969 2.289062 6.320313 4.667969 8.695313l8.128906 8.132813c2.742187 2.730468 6.320313 4.457031 10.164063 4.898437l19.796874 2.210937-4.367187 7.328126c-.152344.265624-.308594.546874-.445313.855468l-14.503906 14.503906h-17.070312l-3.488282-3.488281v-.050781l-24.148437-24.152344h-.050781l-3.507813-3.539062zm-119.46875-59.207032 3.535157-3.53125h27.066406l3.53125 3.53125v10.882813c.019531 11.710937-2.167969 23.324219-6.449219 34.226562l-6.828125 11.09375h-7.523438l-6.828124-11.09375c-4.296876-10.898437-6.503907-22.511719-6.503907-34.226562zm-9.273437 51.679688c.050781.128906.085937.273437.144531.410156.183594.449219.402344.882812.65625 1.296875l9.738281 15.820313c1.550782 2.523437 4.304688 4.0625 7.269532 4.0625h17.066406c2.964844 0 5.714844-1.539063 7.269531-4.0625l9.738281-15.820313c.253906-.414063.472656-.847656.65625-1.296875.058594-.136719.09375-.28125.144532-.410156l11.203124 44.792968c-24.359374-8.1875-50.730468-8.1875-75.09375 0zm0 0"/><path d="m174.003906 502.09375h.425782c4.714843.113281 8.628906-3.613281 8.742187-8.324219.117187-4.714843-3.609375-8.628906-8.324219-8.742187-107.699218-5.378906-156.601562-24.3125-157.78125-32.761719.425782-3.414063 17.785156-18.074219 94.898438-27.476563 3.113281-.265624 5.828125-2.210937 7.085937-5.066406 1.253907-2.859375.851563-6.175781-1.054687-8.648437-1.90625-2.472657-5.011719-3.703125-8.09375-3.214844-72.925782 8.898437-109.902344 23.832031-109.902344 44.40625 0 38.152344 133.179688 47.789063 174.003906 49.828125zm0 0"/><path d="m285.953125 485.042969c-4.714844.117187-8.441406 4.03125-8.324219 8.742187.113282 4.714844 4.027344 8.441406 8.742188 8.324219h.425781c40.824219-2.054687 174.003906-11.691406 174.003906-49.84375 0-20.574219-36.976562-35.507813-109.902343-44.371094-4.574219-.394531-8.640626 2.910157-9.199219 7.46875-.554688 4.558594 2.597656 8.742188 7.136719 9.460938 77.113281 9.386719 94.472656 24.027343 94.898437 27.441406-1.179687 8.449219-50.082031 27.382813-157.78125 32.777344zm0 0"/></svg>