<svg height="512pt" viewBox="-37 0 512 512.00008" width="512pt" xmlns="http://www.w3.org/2000/svg"><path d="m425.347656 131.753906c.339844 58.878906-46.847656 109.226563-106.15625 107.179688l-9.042968 3.5v-45.570313c.015624-3.234375-.90625-6.402343-2.648438-9.128906h32.515625c19.085937-.207031 37.90625-4.480469 55.210937-12.546875 18.03125-8.085938 29.746094-25.890625 30.035157-45.652344.070312.738282.101562 1.480469.085937 2.21875zm0 0" fill="#37474f"/><path d="m404.015625 131.753906c.070313 14.929688-2.921875 29.710938-8.789063 43.433594-14.503906 35.207031-47.199218 59.570312-85.078124 63.40625v-41.730469c.015624-3.234375-.90625-6.402343-2.648438-9.128906h11.179688c2.050781 0 83.882812 0 85.25-58.199219.070312.738282.097656 1.480469.085937 2.21875zm0 0" fill="#607d8b"/><path d="m355.800781 437.84375-45.652343-45.308594-25.601563 25.597656 42.667969 42.667969zm0 0" fill="#9e9e9e"/><path d="m341.804688 437.640625h11.007812c28.277344 0 51.203125 22.921875 51.203125 51.199219.007813 3.875-1.527344 7.597656-4.261719 10.339844-2.738281 2.746093-6.457031 4.285156-10.332031 4.285156h-47.617187c-8.058594 0-14.589844-6.53125-14.589844-14.589844v-36.609375c-.011719-3.875 1.523437-7.59375 4.261718-10.339844 2.738282-2.742187 6.453126-4.285156 10.328126-4.285156zm0 0" fill="#424242"/><path d="m310.148438 392.535156c0 14.136719-11.460938 25.597656-25.601563 25.597656-10.808594-.066406-20.425781-6.886718-24.0625-17.066406l14.847656-31.144531.683594-1.453125c2.722656-1.03125 5.617187-1.554688 8.53125-1.535156 14.140625 0 25.601563 11.460937 25.601563 25.601562zm0 0" fill="#9e9e9e"/><path d="m199.214844 361.726562v-50.261718h76.800781v72.535156c0 9.425781-7.644531 17.066406-17.066406 17.066406h-19.910157c-3.691406 0-7.285156-1.199218-10.238281-3.414062l-14.996093-11.261719" fill="#424242"/><path d="m190.679688 69.761719v-30.421875c-.007813-3.378906 1.003906-6.679688 2.902343-9.472656l9.128907-13.738282c3.140624-4.757812 8.464843-7.613281 14.167968-7.59375h84.734375c4.714844 0 8.535157 3.820313 8.535157 8.53125v8.960938l-62.890626 76.371094zm0 0" fill="#607d8b"/><path d="m335.746094 238.164062v31.574219c-.007813 2.1875-.410156 4.355469-1.195313 6.402344l-11.601562 28.839844c-2.578125 6.46875-8.824219 10.726562-15.789063 10.753906h-90.878906v-76.800781h102.398438zm0 0" fill="#37474f"/><path d="m314.414062 238.164062v31.574219c-.007812 2.1875-.414062 4.355469-1.195312 6.402344l-11.605469 28.839844c-2.574219 6.46875-8.824219 10.726562-15.785156 10.753906h-69.546875v-76.800781h81.066406zm0 0" fill="#607d8b"/><path d="m219.351562 437.929688-28.839843-30.546876-25.429688 27.816407 42.664063 42.667969zm0 0" fill="#9e9e9e"/><path d="m425.261719 129.535156c-1.363281 58.199219-83.199219 58.199219-85.246094 58.199219h-32.515625c-1.285156-2-2.96875-3.714844-4.949219-5.035156l-18.429687-12.289063c1.558594.171875 3.125.257813 4.691406.257813 21.210938 0 38.402344-17.195313 38.402344-38.402344s-17.191406-38.398437-38.402344-38.398437c-2.867188.007812-5.730469.320312-8.53125.9375-5.804688 1.300781-11.214844 3.964843-15.789062 7.765624l1.027343-1.707031 4.179688-6.910156 4.4375-7.253906c1.167969-2.03125 2.769531-3.78125 4.691406-5.121094l16.898437-12.457031c3.839844-2.886719 6.433594-7.128906 7.253907-11.863282l6.824219-27.902343c.128906-.621094.214843-1.246094.257812-1.878907.070312-.480468.097656-.964843.085938-1.449218h.425781c2.472656-.257813 5.035156-.34375 7.59375-.425782 58.027343-.253906 105.609375 45.925782 107.09375 103.933594zm0 0" fill="#00838f"/><path d="m408.195312 129.535156c-1.367187 58.199219-83.199218 58.199219-85.246093 58.199219h-15.449219c-1.285156-2-2.96875-3.714844-4.949219-5.035156l-18.429687-12.289063c1.558594.171875 3.125.257813 4.691406.257813 21.210938 0 38.402344-17.195313 38.402344-38.402344s-17.191406-38.398437-38.402344-38.398437c-2.867188.007812-5.730469.320312-8.53125.9375-2.804688-.617188-5.664062-.929688-8.535156-.9375-.683594-.015626-1.367188.015624-2.046875.085937l4.4375-7.253906c1.167969-2.03125 2.769531-3.78125 4.691406-5.121094l16.898437-12.457031c3.839844-2.886719 6.433594-7.128906 7.253907-11.863282l6.824219-27.902343c.128906-.621094.214843-1.246094.257812-1.878907.070312-.480468.097656-.964843.085938-1.449218h.425781c54.160156 4.589844 96.207031 49.171875 97.621093 103.507812zm0 0" fill="#00bcd4"/><path d="m310.148438 196.863281v41.730469l-93.867188.339844v76.800781h-27.90625c-8.480469.027344-15.6875-6.199219-16.894531-14.59375l-1.023438-6.742187h24.492188v-76.796876l93.863281-.34375v-41.726562c.03125-.6875-.027344-1.375-.167969-2.046875l13.90625 9.214844c1.980469 1.320312 3.664063 3.035156 4.949219 5.035156 1.742188 2.726563 2.664062 5.894531 2.648438 9.128906zm0 0" fill="#9e9e9e"/><path d="m310.148438 26.027344c.011718.484375-.015626.96875-.085938 1.449218-.042969.632813-.128906 1.257813-.257812 1.878907l-6.824219 27.902343c-.820313 4.734376-3.414063 8.976563-7.253907 11.863282l-16.898437 12.457031c-1.921875 1.339844-3.523437 3.089844-4.691406 5.121094l-8.617188 14.164062-1.027343 1.707031c-.046876 0-.082032.039063-.082032.085938-3.683594 2.996094-6.757812 6.675781-9.046875 10.835938l10.15625 2.730468 6.140625 38.742188 1.964844 12.628906c.09375-.011719.1875.019531.253906.085938l9.984375 2.644531c.085938 0 .171875.085937.257813.085937l4.523437 3.074219c.140625.671875.199219 1.359375.167969 2.046875v41.726562l-93.863281.34375v76.796876h-24.492188l-4.097656-27.476563-18.34375-29.4375v-49.75l-34.136719-34.132813-17.066406-34.136718 103.339844-20.820313 19.96875 5.375 4.691406-18.6875-3.328125-2.558593c8.277344-19.285157 34.136719-40.191407 61.015625-50.347657 7.320312-2.921875 14.972656-4.925781 22.785156-5.972656h.082032c1.621093-.171875 3.160156-.339844 4.78125-.425781zm0 0" fill="#cfd8dc"/><path d="m288.644531 173.484375-4.523437-3.074219c-.085938 0-.171875-.085937-.257813-.085937l-9.984375-2.644531c-.066406-.066407-.160156-.097657-.253906-.085938l-1.964844-12.628906 9.558594 6.402344c1.976562 1.320312 3.660156 3.035156 4.949219 5.03125 1.375 2.132812 2.222656 4.5625 2.476562 7.085937zm0 0" fill="#cfd8dc"/><path d="m327.214844 132.265625c.011718 10.191406-4.027344 19.964844-11.234375 27.167969-7.203125 7.207031-16.976563 11.246094-27.167969 11.234375-1.566406 0-3.132812-.085938-4.691406-.257813-.085938 0-.171875-.085937-.257813-.085937-1.910156-.214844-3.796875-.617188-5.628906-1.195313-1.488281-.367187-2.945313-.851562-4.355469-1.449218-.066406-.066407-.160156-.097657-.253906-.085938-14.085938-6.097656-23.207031-19.976562-23.210938-35.328125-.011718-6.582031 1.691407-13.050781 4.949219-18.773437 2.289063-4.160157 5.363281-7.839844 9.046875-10.835938 0-.046875.035156-.085938.082032-.085938 4.003906-3.3125 8.65625-5.753906 13.65625-7.167968 3.460937-1.035156 7.054687-1.550782 10.664062-1.535156 10.191406-.015626 19.964844 4.027343 27.167969 11.230468 7.207031 7.207032 11.246093 16.980469 11.234375 27.167969zm0 0" fill="#9e9e9e"/><path d="m305.878906 132.265625c0 17.066406-11.261718 32.085937-27.644531 36.863281-1.488281-.367187-2.945313-.851562-4.355469-1.449218-.066406-.066407-.160156-.097657-.253906-.085938-14.085938-6.097656-23.207031-19.976562-23.210938-35.328125-.011718-6.582031 1.691407-13.050781 4.949219-18.773437 2.289063-4.160157 5.363281-7.839844 9.046875-10.835938 0-.046875.035156-.085938.082032-.085938 4.003906-3.3125 8.65625-5.753906 13.65625-7.167968 16.441406 4.710937 27.765624 19.757812 27.730468 36.863281zm0 0" fill="#cfd8dc"/><path d="m229.082031 85.332031-4.695312 18.6875-2.21875 8.960938c-.941407 3.808593-4.355469 6.484375-8.277344 6.484375h-183.636719c-3.167968-.007813-6.0625-1.789063-7.507812-4.605469l-8.960938-17.066406c-1.367187-2.636719-1.265625-5.789063.269532-8.332031 1.53125-2.539063 4.273437-4.105469 7.238281-4.128907zm0 0" fill="#37474f"/><path d="m203.480469 85.332031-4.691407 18.6875-2.21875 8.960938c-.941406 3.808593-4.359374 6.484375-8.277343 6.484375h-158.039063c-3.167968-.007813-6.0625-1.789063-7.507812-4.605469l-8.960938-17.066406c-1.367187-2.636719-1.265625-5.789063.269532-8.332031 1.53125-2.539063 4.273437-4.105469 7.238281-4.128907zm0 0" fill="#607d8b"/><path d="m207.746094 170.667969c-.070313 9.394531-7.667969 16.996093-17.066406 17.066406h-109.992188c-3.621094.003906-6.847656-2.292969-8.023438-5.71875l-5.972656-17.066406c-.910156-2.605469-.503906-5.488281 1.085938-7.742188 1.59375-2.25 4.175781-3.597656 6.933594-3.605469h115.96875c9.414062.027344 17.039062 7.652344 17.066406 17.066407zm0 0" fill="#424242"/><path d="m186.414062 170.667969c-.070312 9.394531-7.671874 16.996093-17.066406 17.066406h-88.660156c-3.621094.003906-6.847656-2.292969-8.023438-5.71875l-5.972656-17.066406c-.910156-2.605469-.503906-5.488281 1.085938-7.742188 1.59375-2.25 4.175781-3.597656 6.933594-3.605469h94.636718c9.414063.027344 17.039063 7.652344 17.066406 17.066407zm0 0" fill="#a5a5a4"/><path d="m204.761719 251.734375-95.488281 37.800781c-3.273438 1.273438-6.988282.429688-9.386719-2.132812l-7.511719-8.191406-4.863281-5.289063c-1.886719-2.085937-2.632813-4.957031-2.003907-7.695313.628907-2.738281 2.554688-4.996093 5.164063-6.046874l93.949219-37.203126 7.59375-2.988281c2.105468-.839843 4.457031-.804687 6.539062.089844 2.082032.898437 3.71875 2.582031 4.554688 4.691406l6.230468 15.871094c.855469 2.101563.828126 4.460937-.070312 6.546875-.898438 2.082031-2.59375 3.722656-4.707031 4.546875zm0 0" fill="#424242"/><path d="m183.425781 243.199219-91.050781 36.011719-4.863281-5.289063c-1.886719-2.085937-2.632813-4.957031-2.003907-7.695313.628907-2.738281 2.554688-4.996093 5.164063-6.046874l93.949219-37.203126 3.585937 9.128907c.851563 2.105469.828125 4.460937-.070312 6.546875-.898438 2.085937-2.59375 3.722656-4.710938 4.546875zm0 0" fill="#a5a5a4"/><path d="m224.8125 85.332031h-62.71875l-43.691406-23.210937c-2.796875-1.453125-4.542969-4.355469-4.523438-7.507813v-23.039062c-.007812-3.019531 1.578125-5.816407 4.175782-7.359375 2.59375-1.542969 5.808593-1.597656 8.457031-.152344l64.167969 35.5 5.890624 4.4375 24.914063 18.773438zm0 0" fill="#424242"/><path d="m196.570312 68.265625h-60.078124l-22.613282-12.03125v-20.394531c-.007812-3.019532 1.578125-5.816406 4.175782-7.359375 2.59375-1.539063 5.808593-1.597657 8.457031-.148438l64.167969 35.496094zm0 0" fill="#bdc3c7"/><path d="m171.308594 384.851562 27.90625-23.125 13.652344-11.347656c2.890624-2.417968 6.625-3.578125 10.375-3.226562 3.75.355468 7.203124 2.191406 9.59375 5.105468 2.109374 2.503907 3.257812 5.679688 3.242187 8.957032.027344 4.226562-1.855469 8.238281-5.121094 10.925781l-17.152343 14.25-23.464844 19.453125" fill="#9e9e9e"/><path d="m190.679688 409.601562c0 14.136719-11.460938 25.597657-25.597657 25.597657-3.691406.007812-7.335937-.808594-10.667969-2.386719-9.09375-4.144531-14.929687-13.21875-14.929687-23.210938 0-9.996093 5.835937-19.070312 14.929687-23.210937 3.332032-1.582031 6.976563-2.398437 10.667969-2.390625 14.136719 0 25.597657 11.460938 25.597657 25.601562zm0 0" fill="#9e9e9e"/><path d="m293.082031 392.535156c.019531 10-5.824219 19.082032-14.933593 23.207032-6.320313-2.804688-11.179688-8.125-13.398438-14.675782l14.847656-31.144531c8.3125 4.480469 13.492188 13.167969 13.484375 22.613281zm0 0" fill="#cfd8dc"/><path d="m173.613281 409.601562c.023438 10-5.824219 19.082032-14.933593 23.210938-9.09375-4.144531-14.929688-13.21875-14.929688-23.210938 0-9.996093 5.835938-19.070312 14.929688-23.210937 9.109374 4.125 14.957031 13.207031 14.933593 23.210937zm0 0" fill="#cfd8dc"/><path d="m222.339844 437.640625h11.007812c28.277344 0 51.199219 22.921875 51.199219 51.199219.007813 3.875-1.523437 7.597656-4.261719 10.339844-2.738281 2.746093-6.453125 4.285156-10.328125 4.285156h-47.617187c-8.058594 0-14.59375-6.53125-14.59375-14.589844v-36.609375c-.007813-3.875 1.527344-7.59375 4.261718-10.339844 2.738282-2.742187 6.457032-4.285156 10.332032-4.285156zm0 0" fill="#424242"/><path d="m301.613281 136.535156c0 4.710938-3.820312 8.53125-8.53125 8.53125-4.714843 0-8.535156-3.820312-8.535156-8.53125 0-4.714844 3.820313-8.535156 8.535156-8.535156 4.710938 0 8.53125 3.820312 8.53125 8.535156zm0 0"/><path d="m74.703125 145.066406c-5.527344.003906-10.710937 2.683594-13.910156 7.191406-3.199219 4.511719-4.015625 10.289063-2.191407 15.507813l5.972657 17.066406c2.394531 6.84375 8.851562 11.429688 16.101562 11.433594h58.804688v35.421875l-51.933594 20.582031c-5.210937 2.070313-9.074219 6.570313-10.332031 12.035157-1.257813 5.46875.25 11.203124 4.035156 15.339843l12.328125 13.492188c3.253906 3.523437 7.828125 5.527343 12.621094 5.53125 2.136719.003906 4.253906-.398438 6.238281-1.1875l47.0625-18.644531 3.515625 23.535156c1.878906 12.5625 12.65625 21.871094 25.359375 21.894531h2.304688v33.425781l-21.871094 18.152344c-1.234375-.195312-2.480469-.320312-3.726563-.378906-18.085937-.066406-33.070312 14.015625-34.113281 32.070312-1.046875 18.054688 12.207031 33.777344 30.179688 35.796875l38.066406 38.066407v7.476562c.011718 12.765625 10.359375 23.109375 23.125 23.125h47.617187c12.777344-.019531 23.125-10.382812 23.125-23.160156-.042969-32.972656-26.761719-59.691406-59.734375-59.734375h-10.582031l-20.691406-21.910157 11.945312-9.941406 9.617188 7.21875c4.4375 3.3125 9.824219 5.105469 15.359375 5.117188h16.042968c5.375 9.351562 14.882813 15.578125 25.601563 16.769531l38.039063 37.972656v24.542969c.015624 12.765625 10.359374 23.109375 23.125 23.125h47.617187c12.777344-.019531 23.125-10.382812 23.125-23.160156-.046875-30.375-22.855469-55.890625-53.035156-59.332032l-41.230469-40.960937c-1.980469-17.144531-16.472656-30.101563-33.734375-30.148437v-34.132813h22.578125c10.480469.035156 19.914062-6.351563 23.773438-16.09375l11.566406-28.902344c1.199218-3.019531 1.816406-6.238281 1.816406-9.488281v-24.335938c54.65625-10.269531 94.160156-58.140624 93.867188-113.75 0-.691406-.09375-1.367187-.113282-2.058593-.015625-.6875.113282-1.066407.113282-1.636719-.054688-.476562-.148438-.949219-.28125-1.40625-3.050782-61.277344-53.566407-109.425781-114.917969-109.527344h-.597657c-1.246093 0-2.433593.1875-3.671874.230469v-.230469c0-9.425781-7.640626-17.066406-17.066407-17.066406h-84.734375c-8.574218-.0195312-16.585937 4.261719-21.335937 11.402344l-9.128907 13.652344c-2.804687 4.21875-4.289062 9.175781-4.265624 14.242187v5.792969l-51.464844-28.484375c-5.292969-2.929688-11.742188-2.839844-16.949219.234375-5.210937 3.078125-8.402344 8.683594-8.386719 14.734375v23.039062c0 6.316407 3.488282 12.117188 9.070313 15.078125l13.414062 7.109375h-110.769531c-5.976562 0-11.515625 3.128907-14.605469 8.242188-3.085937 5.113281-3.277343 11.46875-.5 16.761719l8.960938 17.066406c2.933593 5.609375 8.738281 9.125 15.070312 9.128906h65.519531l8.53125 17.066406zm0 17.066406h115.976563c4.714843 0 8.535156 3.820313 8.535156 8.535157 0 4.710937-3.820313 8.53125-8.535156 8.53125h-110.003907zm31.496094 119.46875-12.371094-13.46875 57.488281-22.78125 43.996094-17.433593 6.289062 15.871093zm73.753906 18.277344-4.113281-27.519531 31.90625-12.648437v47.488281h-19.371094c-4.257812.039062-7.878906-3.09375-8.453125-7.3125zm38.402344 57.054688c1.152343-.984375 2.65625-1.449219 4.164062-1.289063 1.507813.148438 2.886719.902344 3.832031 2.089844.8125.972656 1.253907 2.203125 1.234376 3.472656.019531 1.6875-.730469 3.292969-2.039063 4.359375l-31.53125 26.113282c-2.003906-3.199219-4.523437-6.042969-7.457031-8.421876zm-70.339844 52.667968c0-9.425781 7.640625-17.066406 17.066406-17.066406s17.066407 7.640625 17.066407 17.066406c0 9.425782-7.640626 17.066407-17.066407 17.066407s-17.066406-7.640625-17.066406-17.066407zm33.347656 29.8125c6.019531-3.296874 10.90625-8.335937 14.019531-14.453124l10.46875 11.09375c-4.261718 4.316406-6.644531 10.144531-6.636718 16.210937v5.035156zm94.652344 49.460938c0 3.347656-2.714844 6.058594-6.058594 6.058594h-11.007812v-8.535156c0-4.710938-3.824219-8.53125-8.535157-8.53125-4.714843 0-8.535156 3.820312-8.535156 8.53125v8.535156h-19.539062c-3.347656 0-6.058594-2.710938-6.058594-6.058594v-36.609375c0-3.34375 2.710938-6.058594 6.058594-6.058594h11.007812c23.550782.035157 42.632813 19.117188 42.667969 42.667969zm38.398437-80.128906 21.402344 21.238281c-6.539062 1.773437-11.96875 6.324219-14.855468 12.453125l-20.105469-20.105469c5.726562-3.136719 10.429687-7.851562 13.558593-13.585937zm81.066407 80.128906c0 3.347656-2.710938 6.058594-6.058594 6.058594h-11.007813v-8.535156c0-4.710938-3.820312-8.53125-8.535156-8.53125-4.710937 0-8.53125 3.820312-8.53125 8.53125v8.535156h-19.542968c-3.34375 0-6.058594-2.710938-6.058594-6.058594v-36.609375c0-3.34375 2.714844-6.058594 6.058594-6.058594h11.007812c23.550781.035157 42.636719 19.117188 42.667969 42.667969zm-93.867188-96.339844c0 9.425782-7.640625 17.066406-17.066406 17.066406-4.160156-.042968-8.15625-1.625-11.222656-4.4375 7.015625-4.761718 11.21875-12.6875 11.222656-21.164062v-8.535156c9.425781 0 17.066406 7.644531 17.066406 17.070312zm-34.132812-8.535156c0 4.714844-3.820313 8.535156-8.53125 8.535156h-19.910157c-1.847656-.003906-3.640624-.605468-5.121093-1.707031l-6.355469-4.78125 8.8125-7.320313c5.234375-4.304687 8.257812-10.734374 8.234375-17.511718.039063-5.246094-1.792969-10.335938-5.160156-14.359375-7.875-9.617188-22.03125-11.078125-31.703125-3.269531v-19.320313h59.734375zm59.734375-114.21875c0 1.085938-.207032 2.160156-.605469 3.167969l-11.5625 28.882812c-1.285156 3.25-4.425781 5.378907-7.921875 5.367188h-82.3125v-59.734375h93.867188c.308593 0 .5625-.144532.855468-.167969 1.117188 0 2.199219.1875 3.316406.1875h.667969c1.238281 0 2.449219-.152344 3.675781-.195313zm-38.402344-167.382812c16.496094 0 29.867188 13.375 29.867188 29.867187 0 16.496094-13.371094 29.867187-29.867188 29.867187-16.492188 0-29.863281-13.371093-29.863281-29.867187 0-16.492187 13.371093-29.867187 29.863281-29.867187zm103.871094 98.910156c-18.269532 18.550781-43.199219 29.027344-69.234375 29.089844-1.652344 0-3.171875-.195313-4.769531-.261719v-33.28125c0-.203125-.066407-.390625-.074219-.597657h25.675781c22.640625.246094 44.9375-5.519531 64.621094-16.707031-4.382813 7.960938-9.839844 15.285157-16.21875 21.757813zm-70.25-167.175782h.515625c53.066406-.015624 96.507812 42.203126 98.003906 95.25-1.410156 49.167969-73.566406 49.816407-76.671875 49.816407h-32.792969c-1.261719-1.351563-2.671875-2.558594-4.199219-3.601563l-.179687-.117187c20.546875-8.707031 32.121094-30.679688 27.683594-52.546875-4.441407-21.871094-23.664063-37.589844-45.980469-37.601563-.261719 0-.519531 0-.773438.042969l12.796876-9.386719c5.46875-4.054687 9.199218-10.03125 10.4375-16.722656l6.058593-24.75c1.707031-.125 3.371094-.382813 5.101563-.382813zm-123.21875 5.164063c-.003906-1.683594.496094-3.328125 1.433594-4.726563l9.128906-13.707031c1.585937-2.371093 4.25-3.796875 7.101562-3.796875h84.734375v2.066406c-31.367187 6.398438-65.605469 29.464844-79.980469 53.109376l-22.417968-16.929688zm-76.800782-7.722656 63.605469 35.199219 13.332031 10.027343h-35.125l-41.8125-22.1875zm-105.351562 62.292969h196.820312l-4.265624 17.066406h-183.585938zm93.558594 34.132812h98.988281c7.832031-.003906 14.65625-5.335938 16.554687-12.9375l6.824219-27.304688c7.082031-19.746093 37.8125-42.546874 66.074219-50.414062l-4.503906 18.445312c-.429688 2.589844-1.820313 4.917969-3.894532 6.519532l-16.730468 12.246094c-2.882813 2.027343-5.296875 4.644531-7.085938 7.679687l-9.035156 14.859375c-13.566406 11.914062-19.074219 30.566406-14.152344 47.941406 4.921875 17.371094 19.390625 30.367188 37.191406 33.398438l17.023438 11.347656c2.363281 1.578125 3.765625 4.242188 3.738281 7.082031v33.535157h-86.917969l-3.484374-8.777344c-3.472657-8.757813-13.382813-13.042969-22.144532-9.578125l-32.519531 12.886719v-28.664063h34.132813c14.140624 0 25.601562-11.460937 25.601562-25.597656 0-14.140625-11.460938-25.601563-25.601562-25.601563h-71.527344zm0 0"/><path d="m333.410156 67.941406c.527344.144532 53.539063 15.683594 53.539063 51.523438 0 4.714844 3.820312 8.535156 8.53125 8.535156 4.714843 0 8.535156-3.820312 8.535156-8.535156 0-48.535156-63.234375-67.164063-65.929687-67.941406-4.535157-1.289063-9.257813 1.339843-10.546876 5.871093-1.292968 4.535157 1.335938 9.257813 5.871094 10.546875zm0 0"/><path d="m293.082031 273.066406h-25.601562c-4.710938 0-8.53125 3.820313-8.53125 8.535156 0 4.710938 3.820312 8.53125 8.53125 8.53125h25.601562c4.710938 0 8.53125-3.820312 8.53125-8.53125 0-4.714843-3.820312-8.535156-8.53125-8.535156zm0 0"/><path d="m267.480469 213.332031c4.714843 0 8.535156-3.820312 8.535156-8.53125 0-4.714843-3.820313-8.535156-8.535156-8.535156-7.683594-.875-14.429688-5.523437-17.988281-12.390625-1.371094-2.722656-4.09375-4.507812-7.136719-4.683594-3.046875-.171875-5.953125 1.292969-7.625 3.84375-1.671875 2.546875-1.859375 5.796875-.488281 8.519532 6.445312 12.632812 19.085937 20.914062 33.238281 21.777343zm0 0"/></svg>