<svg height="512pt" viewBox="-4 0 512 512" width="512pt" xmlns="http://www.w3.org/2000/svg"><path d="m366.996094 290.132812c0 77.226563-104.875 105.558594-124.757813 110.25-1.917969.417969-3.273437 2.132813-3.242187 4.097657v17.917969h-136.53125v-81.066407c0-4.710937 3.820312-8.53125 8.53125-8.53125h47.191406c23.378906 0 55.210938-8.535156 55.210938-42.667969zm0 0" fill="#ff9801"/><path d="m348.90625 290.132812c-10.75 67.585938-104.960938 93.015626-123.734375 97.453126-1.917969.417968-3.273437 2.128906-3.242187 4.09375v17.921874h-119.464844v-68.269531c0-4.710937 3.820312-8.53125 8.53125-8.53125h47.191406c23.378906 0 55.210938-8.535156 55.210938-42.667969zm0 0" fill="#ffb301"/><path d="m156.140625 372.992188v49.40625h-53.675781v-49.40625c0-4.714844 3.820312-8.535157 8.53125-8.535157h36.609375c4.710937 0 8.535156 3.820313 8.535156 8.535157zm0 0" fill="#d84315"/><path d="m134.804688 372.992188v49.40625h-32.339844v-49.40625c0-4.714844 3.820312-8.535157 8.53125-8.535157h15.277344c4.710937 0 8.53125 3.820313 8.53125 8.535157zm0 0" fill="#ff5722"/><path d="m398.484375 178.773438 7 6.996093v27.734375c-.015625 3.453125-2.109375 6.554688-5.300781 7.863282-3.195313 1.304687-6.863282.5625-9.292969-1.890626l-31.660156-31.65625c-3.195313-3.191406-4.988281-7.519531-4.988281-12.035156 0-4.511718 1.792968-8.839844 4.988281-12.03125l12.117187-12.117187 5.464844-5.375 13.054688-13.140625.851562.851562-2.300781 6.828125 17.066406 17.066407h7.933594l-14.933594 14.933593c-1.625 1.660157-1.625 4.3125 0 5.972657zm0 0" fill="#9e9e9e"/><path d="m485.78125 187.390625-32.085938 32.085937c-1.660156 1.679688-3.941406 2.597657-6.300781 2.53125-2.363281-.0625-4.589843-1.101562-6.15625-2.871093-1.433593-1.523438-2.230469-3.539063-2.21875-5.632813v-27.734375l7.507813-7.421875c1.539062-1.695312 1.539062-4.28125 0-5.972656l-14.507813-14.507812h7l17.066407-17.066407-2.046876-6.230469 1.535157-1.449218 30.207031 30.207031c3.195312 3.1875 4.992188 7.519531 4.992188 12.03125 0 4.515625-1.796876 8.84375-4.992188 12.03125zm0 0" fill="#9e9e9e"/><path d="m394.21875 178.773438-5.800781 6.996093v27.734375c.007812 1.019532-.164063 2.03125-.515625 2.988282l-28.671875-28.671876c-3.195313-3.191406-4.988281-7.519531-4.988281-12.035156 0-4.511718 1.792968-8.839844 4.988281-12.03125l12.117187-12.117187 5.464844-5.375 11.605469 11.605469h7.933593l-2.132812 14.933593c-1.625 1.660157-1.625 4.3125 0 5.972657zm0 0" fill="#cfd8dc"/><path d="m478.007812 182.367188-36.769531 36.769531c-1.433593-1.523438-2.230469-3.539063-2.21875-5.632813v-27.734375l7.507813-7.421875c1.539062-1.695312 1.539062-4.28125 0-5.972656l-14.507813-14.507812h7l9.984375-9.984376 29.003906 29.003907c1.511719 1.511719 1.511719 3.964843 0 5.480469zm0 0" fill="#cfd8dc"/><path d="m443.796875 55.464844v72.535156h-42.667969v-67.414062zm0 0" fill="#d84315"/><path d="m426.730469 57.515625v70.484375h-25.601563v-67.414062zm0 0" fill="#ff5722"/><path d="m213.398438 38.398438h114.660156v34.136718h-114.660156zm0 0" fill="#d84315"/><path d="m174.996094 38.398438h114.664062v34.136718h-114.664062zm0 0" fill="#ff5722"/><path d="m221.929688 34.132812v42.667969c0 4.710938-3.820313 8.53125-8.53125 8.53125h-119.296876v-59.730469h119.296876c4.710937 0 8.53125 3.820313 8.53125 8.53125zm0 0" fill="#ff9801"/><path d="m204.863281 34.132812v42.667969c0 4.710938-3.820312 8.53125-8.53125 8.53125h-97.964843v-59.730469h97.964843c4.710938 0 8.53125 3.820313 8.53125 8.53125zm0 0" fill="#ffb301"/><path d="m247.53125 426.667969v34.132812h-153.601562v-34.132812c0-4.714844 3.820312-8.535157 8.535156-8.535157h136.53125c4.714844 0 8.535156 3.820313 8.535156 8.535157zm0 0" fill="#ff9801"/><path d="m230.464844 426.667969v34.132812h-136.535156v-34.132812c0-4.714844 3.820312-8.535157 8.535156-8.535157h119.464844c4.714843 0 8.535156 3.820313 8.535156 8.535157zm0 0" fill="#ffb301"/><path d="m366.996094 290.132812c0 1.367188 0 2.644532-.085938 3.925782-.167968 2.476562-.339844 4.949218-.679687 7.339844-.085938.425781-.171875.765624-.257813 1.195312-.167968 1.023438-.339844 2.046875-.511718 2.984375-7.367188 35.710937-38.800782 61.335937-75.261719 61.355469-2.910157 0-5.816407-.171875-8.707031-.511719-38.789063-4.425781-68.085938-37.246094-68.09375-76.289063-.003907-2.9375.167968-5.871093.511718-8.789062l50.261719-63.402344c5.71875-2.105468 11.683594-3.480468 17.75-4.097656 2.742187-.339844 5.507813-.511719 8.277344-.511719 20.367187 0 39.902343 8.09375 54.304687 22.496094s22.492188 33.9375 22.492188 54.304687zm0 0" fill="#d84315"/><path d="m349.929688 290.132812c0 1.367188 0 2.644532-.085938 3.925782-.167969 2.476562-.339844 4.949218-.679688 7.339844-.085937.425781-.171874.765624-.257812 1.195312-.171875 1.023438-.339844 2.046875-.511719 2.984375-6.730469 32.652344-33.757812 57.234375-66.902343 60.84375-38.789063-4.425781-68.085938-37.246094-68.09375-76.289063-.003907-2.9375.167968-5.871093.511718-8.789062l50.261719-63.402344c5.71875-2.105468 11.683594-3.480468 17.75-4.097656 38.753906 4.464844 68.003906 37.277344 68.007813 76.289062zm0 0" fill="#ff5722"/><path d="m315.796875 256-51.199219 68.265625-18.261718-15.445313-185.085938-156.671874 48.296875-48.296876zm0 0" fill="#d84315"/><path d="m285.929688 256-39.59375 52.820312-185.085938-156.671874 35.582031-35.582032zm0 0" fill="#ff5722"/><path d="m422.464844 25.601562c-1.421875-.105468-2.847656-.105468-4.265625 0l-13.46875 4.488282c-8.039063 2.679687-16.457031 4.042968-24.933594 4.042968-8.472656 0-16.886719-1.363281-24.925781-4.042968l-13.472656-4.488282c-11.101563-1.554687-22.140626 3.203126-28.632813 12.34375-6.488281 9.136719-7.34375 21.132813-2.21875 31.097657 5.125 9.96875 15.375 16.25 26.582031 16.289062 1.421875.105469 2.847656.105469 4.269532 0l13.464843-4.488281c8.039063-2.679688 16.460938-4.046875 24.933594-4.042969 8.472656 0 16.890625 1.363281 24.925781 4.042969l13.476563 4.488281c11.097656 1.554688 22.140625-3.203125 28.628906-12.34375 6.488281-9.136719 7.347656-21.132812 2.222656-31.097656-5.125-9.96875-15.378906-16.25-26.585937-16.289063zm0 0" fill="#f29c1f"/><path d="m460.351562 145.066406-17.066406 17.066406h-42.070312l-17.066406-17.066406 2.304687-6.828125 6.230469-18.773437h59.136718l6.484376 19.371094zm0 0" fill="#ff9801"/><path d="m443.285156 140.800781-17.066406 17.066407h-29.269531l-12.800781-12.800782 2.304687-6.828125 6.230469-18.773437h43.519531l5.035156 15.105468zm0 0" fill="#ffb301"/><path d="m179.265625 23.722656v63.488282c-.003906 3.921874-2.679687 7.335937-6.488281 8.277343l-26.621094 6.65625c-.671875.167969-1.359375.253907-2.050781.253907h-92.839844c-4.714844 0-8.535156-3.820313-8.535156-8.53125v-59.734376c0-14.136718 11.460937-25.597656 25.601562-25.597656h75.773438c.691406 0 1.378906.085938 2.050781.253906l26.621094 6.65625c3.808594.941407 6.484375 4.355469 6.488281 8.277344zm0 0" fill="#d84315"/><path d="m157.929688 23.722656v63.488282c0 3.921874-2.675782 7.335937-6.484376 8.277343l-26.625 6.65625c-.667968.167969-1.355468.253907-2.046874.253907h-71.507813c-4.714844 0-8.535156-3.820313-8.535156-8.53125v-59.734376c0-14.136718 11.460937-25.597656 25.601562-25.597656h54.441407c.691406 0 1.378906.085938 2.046874.253906l26.625 6.65625c3.808594.941407 6.484376 4.355469 6.484376 8.277344zm0 0" fill="#ff5722"/><path d="m452.332031 55.464844c0 16.496094-13.371093 29.867187-29.867187 29.867187-.9375 0-1.964844.085938-2.902344.085938-.457031.015625-.914062-.015625-1.363281-.085938l-3.925781-1.363281h-.085938l-9.472656-3.15625c-8.039063-2.652344-16.453125-4.007812-24.917969-4.011719-2.851563 0-5.699219.171875-8.53125.511719-5.574219.566406-11.066406 1.738281-16.386719 3.5l-13.480468 4.519531c-1.421876.085938-2.847657.085938-4.269532 0-2.984375.027344-5.953125-.433593-8.789062-1.363281h-.082032c-12.460937-3.902344-20.941406-15.445312-20.941406-28.503906 0-13.054688 8.480469-24.597656 20.941406-28.5h.082032c2.835937-.929688 5.804687-1.390625 8.789062-1.363282.941406 0 1.964844-.085937 2.902344-.085937.457031-.015625.914062.011719 1.367188.085937l13.480468 4.519532c5.320313 1.761718 10.8125 2.933594 16.386719 3.5 2.832031.339844 5.679687.511718 8.53125.511718 8.464844-.003906 16.878906-1.359374 24.917969-4.011718l9.472656-3.15625h.085938l3.925781-1.363282c1.417969-.085937 2.84375-.085937 4.265625 0 16.496094 0 29.867187 13.371094 29.867187 29.863282zm0 0" fill="#ff9801"/><path d="m435.265625 55.464844c-.007813 13.070312-8.511719 24.621094-20.992187 28.503906h-.085938c-2.835938.929688-5.804688 1.390625-8.789062 1.363281-.941407 0-1.964844.085938-2.902344.085938-.457032.015625-.914063-.015625-1.367188-.085938l-13.480468-4.519531c-5.316407-1.761719-10.8125-2.933594-16.382813-3.5-2.832031-.339844-5.683594-.511719-8.535156-.511719-8.464844.003907-16.875 1.359375-24.917969 4.011719l-9.472656 3.15625h-.082032c-12.460937-3.902344-20.941406-15.445312-20.941406-28.503906 0-13.054688 8.480469-24.597656 20.941406-28.5h.082032l9.472656 3.15625c8.042969 2.652344 16.453125 4.007812 24.917969 4.011718 2.851562 0 5.703125-.171874 8.535156-.511718 5.570313-.566406 11.066406-1.738282 16.382813-3.5l13.480468-4.519532c1.421875-.085937 2.847656-.085937 4.269532 0 2.984374-.027343 5.953124.433594 8.789062 1.363282h.085938c12.480468 3.882812 20.984374 15.429687 20.992187 28.5zm0 0" fill="#ffb301"/><path d="m119.53125 128c.011719 9.054688-3.582031 17.746094-9.984375 24.148438-6.40625 6.402343-15.09375 9.996093-24.148437 9.984374-3.625.007813-7.226563-.566406-10.667969-1.707031-5.0625-1.707031-9.671875-4.535156-13.480469-8.277343-13.3125-13.347657-13.3125-34.949219 0-48.296876 3.808594-3.742187 8.417969-6.570312 13.480469-8.277343 3.441406-1.140625 7.042969-1.714844 10.667969-1.707031 9.054687-.011719 17.742187 3.582031 24.148437 9.984374 6.402344 6.402344 9.996094 15.09375 9.984375 24.148438zm0 0" fill="#37474f"/><path d="m332.863281 290.132812c0 23.566407-19.101562 42.667969-42.664062 42.667969-3.601563.023438-7.191407-.433593-10.667969-1.367187-18.820312-4.878906-31.960938-21.859375-31.960938-41.300782 0-19.441406 13.140626-36.421874 31.960938-41.300781 3.476562-.929687 7.066406-1.390625 10.667969-1.367187 23.5625 0 42.664062 19.105468 42.664062 42.667968zm0 0" fill="#37474f"/><path d="m98.199219 128c-.019531 9.050781-3.605469 17.730469-9.984375 24.148438-3.8125 3.742187-8.421875 6.570312-13.484375 8.277343-5.0625-1.707031-9.671875-4.535156-13.480469-8.277343-13.3125-13.347657-13.3125-34.949219 0-48.296876 3.808594-3.742187 8.417969-6.570312 13.480469-8.277343 5.0625 1.707031 9.671875 4.535156 13.484375 8.277343 6.378906 6.417969 9.964844 15.097657 9.984375 24.148438zm0 0" fill="#607d8b"/><path d="m311.53125 290.132812c0-22.808593-14.328125-41.300781-32-41.300781s-32 18.492188-32 41.300781c0 22.8125 14.328125 41.300782 32 41.300782s32-18.488282 32-41.300782zm0 0" fill="#607d8b"/><path d="m45.128906 503.464844h36v-34.132813h-25.070312c-7.832032 0-14.664063 5.328125-16.5625 12.929688l-2.644532 10.597656c-.640624 2.550781-.066406 5.25 1.550782 7.324219 1.617187 2.070312 4.097656 3.28125 6.726562 3.28125zm0 0" fill="#9e9e9e"/><path d="m296.332031 503.464844h-36v-34.132813h25.070313c7.832031 0 14.664062 5.328125 16.5625 12.929688l2.644531 10.597656c.640625 2.550781.066406 5.25-1.550781 7.324219-1.617188 2.070312-4.097656 3.28125-6.726563 3.28125zm0 0" fill="#9e9e9e"/><path d="m264.597656 469.332031v34.132813h-187.734375v-34.132813c.027344-9.414062 7.652344-17.039062 17.066407-17.066406h153.601562c9.414062.027344 17.039062 7.652344 17.066406 17.066406zm0 0" fill="#d84315"/><path d="m247.53125 469.332031v34.132813h-170.667969v-34.132813c.027344-9.414062 7.652344-17.039062 17.066407-17.066406h136.535156c9.414062.027344 17.039062 7.652344 17.066406 17.066406zm0 0" fill="#ff5722"/><path d="m460.863281 55.464844c-.023437-21.195313-17.203125-38.375-38.398437-38.398438h-1.058594c-1.472656-.109375-2.949219-.070312-4.410156.121094-.507813.070312-1.007813.1875-1.496094.347656l-13.472656 4.488282c-14.433594 4.796874-30.035156 4.796874-44.46875 0l-13.464844-4.480469c-.488281-.15625-.984375-.273438-1.492188-.347657-1.464843-.191406-2.941406-.234374-4.414062-.128906h-1.058594c-8.6875.035156-17.101562 3.046875-23.839844 8.535156h-85.195312c-3.027344-5.265624-8.625-8.515624-14.695312-8.535156h-27.015626c-2.085937-4.925781-6.355468-8.589844-11.539062-9.898437l-26.625-6.65625c-1.34375-.335938-2.726562-.50781275-4.113281-.511719h-75.773438c-18.851562 0-34.132812 15.28125-34.132812 34.132812v17.921876c-20.488281 2.996093-35.300781 21.140624-34.136719 41.8125 0 35.753906 0 89.804687 114.613281 169.148437 38.535157 26.683594 52.054688 46.632813 55.390625 60.421875-3.941406.554688-7.917968.839844-11.898437.855469h-47.171875c-9.425782 0-17.066406 7.640625-17.066406 17.066406v70.636719c-5.253907 3.023437-8.503907 8.609375-8.53125 14.671875v18.636719c-7.226563 2.582031-12.914063 8.269531-15.496094 15.496093h-13.84375c-11.746094-.003906-21.988282 7.992188-24.839844 19.386719l-2.652344 10.617188c-1.273437 5.097656-.125 10.496093 3.109375 14.636718 3.238281 4.140625 8.199219 6.558594 13.453125 6.558594h219.46875c.402344-.050781.804688-.128906 1.195313-.238281.390625.109375.789062.1875 1.195312.238281h31.742188c5.253906 0 10.210937-2.421875 13.445312-6.5625s4.382813-9.539062 3.109375-14.632812l-2.652344-10.625c-2.855468-11.390626-13.089843-19.378907-24.832031-19.378907h-16.214843c-2.585938-7.234375-8.285157-12.921875-15.523438-15.496093v-18.636719c-.015625-6.070313-3.269531-11.671875-8.53125-14.695313v-4.128906c26.332031-6.648438 116.796875-34.484375 127.019531-104.5625.058594-.28125.109375-.550781.125-.671875.085938-.605469.105469-1.253906.179688-1.878906.179687-1.558594.34375-3.140625.445312-4.75 0-.460938.09375-.90625.128907-1.375.101562-1.453125.101562-2.910157.101562-4.472657-.050781-47.105468-38.226562-85.28125-85.332031-85.332031-8.285157.015625-16.523438 1.257813-24.441407 3.6875l-132.265624-97.554687h10.613281c1.375 0 2.746093-.171875 4.082031-.511719l26.691406-6.664063c5.179688-1.304687 9.441406-4.96875 11.511719-9.890624h27.007813c9.425781 0 17.066406-7.640626 17.066406-17.066407h74.769531c7.117187 10.652344 19.082031 17.054688 31.894531 17.066407h1.058594c1.472656.109374 2.949219.070312 4.414062-.121094.507813-.070313 1.003907-.1875 1.492188-.347656l13.472656-4.488282c11.285156-3.707031 23.316406-4.5 34.988282-2.3125v24.335938c-3.636719.03125-6.855469 2.371094-8.011719 5.820312l-4.746094 14.464844c-.058594.050781-.144531.074219-.203125.136719l-30.636719 30.632812c-4.796875 4.789063-7.492187 11.289063-7.492187 18.066407 0 6.777343 2.695312 13.277343 7.492187 18.0625l31.660157 31.660156c4.871093 4.871094 12.199218 6.335937 18.570312 3.710937 6.371094-2.628906 10.535156-8.828125 10.5625-15.71875v-27.730469c0-2.265624-.902344-4.433593-2.5-6.035156l-3.953125-3.949218 9.386719-9.386719h20.019531l8.953125 8.957031-4.371094 4.378906c-1.597656 1.601563-2.5 3.769532-2.5 6.035156v27.730469c.015625 6.902344 4.1875 13.117188 10.570313 15.746094 6.382812 2.625 13.71875 1.152344 18.589843-3.738281l32.09375-32.085938c9.949219-9.988281 9.949219-26.140625 0-36.128906l-30.207031-30.207031c-.410156-.328125-.847656-.613281-1.308593-.855469l-4.5625-13.710938c-1.125-3.304687-4.144532-5.59375-7.628907-5.777343v-31.703125c5.484375-6.738282 8.496094-15.152344 8.53125-23.84375zm-21.066406 98.136718h-35.046875l-10.839844-10.847656.410156-1.21875.042969-.136718 4.464844-13.398438h46.878906l4.925781 14.753906zm-30.132813-42.667968v-19.449219l5.835938 1.945313c.488281.160156.988281.277343 1.496094.351562.867187.121094 1.746094.175781 2.625.171875.589844 0 1.1875 0 1.785156-.050781h1.058594c4.371094-.042969 8.699218-.839844 12.800781-2.355469v19.386719zm-129.921874 129.082031c-23.71875 4.976563-40.710938 25.882813-40.746094 50.117187 0 .453126.0625.855469.070312 1.339844l-144.09375-121.984375c19.339844-4.359375 33.082032-21.535156 33.089844-41.359375zm-23.679688 50.117187c0-18.851562 15.285156-34.132812 34.136719-34.132812 18.847656 0 34.132812 15.28125 34.132812 34.132812 0 18.851563-15.285156 34.132813-34.132812 34.132813-18.851563 0-34.136719-15.28125-34.136719-34.132813zm-152.558594-180.230468c9.996094 9.996094 9.996094 26.199218 0 36.195312-9.757812 9.277344-24.957031 9.648438-35.15625.855469l-1.160156-.980469c-9.570312-10.09375-9.332031-25.984375.539062-35.785156 9.875-9.800781 25.765626-9.921875 35.789063-.277344zm20.882813 139.089844c-107.257813-74.261719-107.257813-122.929688-107.257813-155.125-1.03125-11.179688 6.199219-21.457032 17.070313-24.269532v24.269532c.03125 7.644531 5.148437 14.335937 12.515625 16.375-7.558594 16.171874-4.144532 35.351562 8.535156 47.921874.128906.128907.28125.214844.410156.335938.125.117188.066406.109375.109375.152344l149.382813 126.480468c-.09375 1.65625-.289063 3.292969-.289063 5 .570313 12.503907-6.785156 24.011719-18.371093 28.742188-5.617188-21.734375-26.394532-45.167969-62.105469-69.890625zm-13.390625 92.339843h47.171875c3.550781 0 7.097656-.1875 10.625-.554687-4.085938 7.941406-10.601563 14.371094-18.59375 18.355468l-.117188.085938c-1.601562-.519531-3.269531-.796875-4.953125-.820312h-34.132812zm128 85.335938v17.066406h-136.53125v-17.066406zm-128-17.066407v-34.136718h34.132812v34.136718zm-63.222656 74.734376c.949218-3.804688 4.367187-6.472657 8.285156-6.46875h12.273437v17.066406h-23.203125zm208.289062 10.597656h-170.664062v-25.601563c0-4.710937 3.820312-8.53125 8.53125-8.53125h153.601562c4.710938 0 8.53125 3.820313 8.53125 8.53125zm19.457031-17.066406h12.28125c3.914063 0 7.324219 2.664062 8.277344 6.460937l2.652344 10.605469h-23.210938zm-35.234375-85.828126c-5.773437 1.347657-9.847656 6.511719-9.820312 12.441407v5.121093h-68.265625v-34.136718c-.007813-1.097656-.121094-2.191406-.335938-3.265625 13.429688-7.410157 22.859375-20.410157 25.738281-35.472657 8.972657-2.875 17.03125-8.054687 23.371094-15.019531 12.699219 31.855469 43.21875 53.023438 77.5 53.757813-15.488281 7.070312-31.625 12.617187-48.1875 16.574218zm49.914063-170.171874c37.683593.042968 68.222656 30.582031 68.265625 68.265624 0 1.707032-.101563 3.328126-.214844 4.96875-.09375 1.191407-.203125 2.371094-.332031 3.523438-.097657.765625-.199219 1.527344-.308594 2.277344l-.050781.289062-.460938 2.671875c-6.71875 32.410157-35.71875 55.328125-68.800781 54.378907-33.085937-.949219-60.722656-25.496094-65.574219-58.234376l33.949219 28.730469c.527344.460938 1.046875.921875 1.59375 1.355469l.851563.691406c.148437.121094.324218.164063.472656.265625 22.546875 16.738281 54.375 12.160157 71.285156-10.257812 16.914062-22.417969 12.578125-54.28125-9.710938-71.363281-.101562-.085938-.152343-.214844-.265624-.300782l-36.675782-26.996094c1.992188-.179687 3.984375-.265624 5.976563-.265624zm-146.09375-128h-33.355469c-14.984375-11.378907-35.710938-11.378907-50.695312 0h-8.789063v-59.734376c0-9.425781 7.640625-17.066406 17.066406-17.066406h75.722657l26.675781 6.683594v63.460938zm43.691406-17.066407v-42.667969h25.601563v42.667969zm42.667969-17.066406v-17.066406h70.621094c-1.515626 4.097656-2.3125 8.429687-2.355469 12.796875.0625 1.429687.207031 2.855468.433593 4.269531zm121.703125 13.011719-12.476563 4.148437c-.25 0-.488281 0-.742187 0-.574219-.09375-1.195313-.09375-1.820313-.09375-8.652344-.015625-16.4375-5.257812-19.710937-13.265625-3.269531-8.011718-1.378907-17.207031 4.789062-23.273437.050781-.050781.117188-.085938.167969-.136719 3.953125-3.839844 9.246094-5.988281 14.753906-5.992188.625 0 1.246094 0 1.855469-.058593h.742187l12.429688 4.148437c17.945312 5.953125 37.328125 5.953125 55.273438 0l12.472656-4.183594h.746094c.605468 0 1.226562.058594 1.851562.058594 11.78125 0 21.332031 9.554688 21.332031 21.335938s-9.550781 21.332031-21.332031 21.332031c-.625 0-1.246094 0-1.851562.058594l-.746094.042969-12.429688-4.144532c-17.941406-5.980468-37.332031-5.980468-55.273437 0zm40.488281 144.964844-31.632812-31.683594c-1.59375-1.589844-2.492188-3.746094-2.492188-6 0-2.25.898438-4.410156 2.492188-6l20.035156-20.035156 12.085937 12.082031-4.941406 4.941406c-4.953125 4.992187-4.953125 13.042969 0 18.03125l4.488281 4.496094zm91.308594-32.085938-32.101563 32.144531v-24.199219l4.929688-4.933593c4.953125-4.988281 4.953125-13.039063 0-18.03125l-4.929688-4.929688 12.074219-12.074219 20.035156 20.035157c3.28125 3.324219 3.28125 8.664062 0 11.988281zm0 0"/></svg>