<svg height="512pt" viewBox="-4 0 512 512" width="512pt" xmlns="http://www.w3.org/2000/svg"><path d="m394.132812 460.203125 6.996094 6.996094v27.734375c-.015625 3.449218-2.105468 6.554687-5.300781 7.859375-3.195313 1.308593-6.859375.5625-9.292969-1.886719l-.339844-.339844-31.316406-31.320312c-3.195312-3.1875-4.992187-7.515625-4.992187-12.03125 0-4.511719 1.796875-8.84375 4.992187-12.03125l12.117188-12.117188 13.140625-12.375 8.703125-8.105468 15.789062 31.148437-10.496094 10.496094c-1.628906 1.65625-1.628906 4.3125 0 5.972656zm0 0" fill="#9e9e9e"/><path d="m389.394531 458.007812-.714843 6.144532-.351563 30.78125c-.003906 2.074218-.761719 4.074218-2.132813 5.632812l-31.316406-31.320312c-3.195312-3.1875-4.992187-7.515625-4.992187-12.03125 0-4.511719 1.796875-8.84375 4.992187-12.03125l12.117188-12.117188 13.140625-12.375 11.691406 23.042969-3.679687 9.957031c-1.621094 1.707032-.375 2.695313 1.246093 4.316406zm0 0" fill="#cfd8dc"/><path d="m490.472656 468.820312-32.085937 32.085938c-2.429688 2.449219-6.097657 3.195312-9.292969 1.886719-3.191406-1.304688-5.285156-4.410157-5.296875-7.859375v-27.734375l7.421875-7.421875c1.625-1.660156 1.625-4.316406 0-5.976563l-10.070312-10.066406 8.023437-18.261719 6.144531-13.910156 23.039063 21.078125 12.117187 12.117187c3.195313 3.1875 4.992188 7.515626 4.992188 12.03125 0 4.515626-1.796875 8.84375-4.992188 12.03125zm0 0" fill="#9e9e9e"/><path d="m477.363281 460.59375-33.566406 33.570312v-26.964843l7.421875-7.421875c1.625-1.660156 1.625-4.316406 0-5.976563l-10.070312-10.066406 8.023437-18.261719 7.851563 7.167969 20.339843 20.34375c2.101563 2.101563 2.101563 5.507813 0 7.609375zm0 0" fill="#cfd8dc"/><path d="m443.796875 346.625v61.355469h-42.667969v-56.320313l25.597656-2.988281zm0 0" fill="#d84315"/><path d="m426.726562 348.671875v59.308594h-25.597656v-56.320313zm0 0" fill="#ff5722"/><path d="m325.949219 324.265625-.171875 34.132813h-110.25v-34.132813zm0 0" fill="#d84315"/><path d="m291.816406 324.265625-.171875 34.132813h-76.117187v-34.132813zm0 0" fill="#ff5722"/><path d="m221.929688 315.734375v42.664063c0 4.714843-3.820313 8.535156-8.535157 8.535156h-43.433593v-59.734375h43.433593c4.714844 0 8.535157 3.820312 8.535157 8.535156zm0 0" fill="#ff9801"/><path d="m204.863281 315.734375v42.664063c0 4.714843-3.820312 8.535156-8.535156 8.535156h-26.367187v-59.734375h26.367187c4.714844 0 8.535156 3.820312 8.535156 8.535156zm0 0" fill="#ffb301"/><path d="m366.996094 51.199219v34.132812c0 4.714844-3.820313 8.535157-8.535156 8.535157h-136.53125c-4.714844 0-8.535157-3.820313-8.535157-8.535157v-34.132812zm0 0" fill="#ff9801"/><path d="m349.929688 51.199219v34.132812c0 4.714844-3.820313 8.535157-8.535157 8.535157h-119.464843c-4.714844 0-8.535157-3.820313-8.535157-8.535157v-34.132812zm0 0" fill="#ffb301"/><path d="m164.59375 8.535156h36v34.132813h-25.070312c-7.832032 0-14.664063-5.328125-16.5625-12.929688l-2.644532-10.597656c-.640625-2.550781-.066406-5.25 1.550782-7.324219 1.617187-2.070312 4.097656-3.28125 6.726562-3.28125zm0 0" fill="#cfd8dc"/><path d="m418.195312 8.535156h-40.277343v34.132813h29.347656c7.828125-.003907 14.652344-5.332031 16.554687-12.929688l2.652344-10.597656c.636719-2.550781.066406-5.25-1.550781-7.324219-1.617187-2.070312-4.097656-3.28125-6.726563-3.28125zm0 0" fill="#cfd8dc"/><path d="m384.0625 8.535156v34.132813c-.027344 9.414062-7.652344 17.039062-17.066406 17.066406h-153.601563c-9.414062-.027344-17.039062-7.652344-17.066406-17.066406v-34.132813zm0 0" fill="#d84315"/><path d="m366.996094 8.535156v34.132813c-.027344 9.414062-7.652344 17.039062-17.066406 17.066406h-136.535157c-9.414062-.027344-17.039062-7.652344-17.066406-17.066406v-34.132813zm0 0" fill="#ff5722"/><path d="m460.351562 426.667969-17.070312 17.066406h-42.066406l-17.066406-17.066406 8.53125-25.601563h59.136718zm0 0" fill="#ff9801"/><path d="m443.28125 422.398438-17.066406 17.066406h-29.269532l-12.796874-12.796875 8.53125-25.601563h43.519531zm0 0" fill="#ffb301"/><path d="m315.796875 157.609375-206.253906 152.152344-10.835938-10.839844-37.460937-37.460937 3.667968-3.070313 179.714844-152.152344 14.589844-12.371093zm0 0" fill="#d84315"/><path d="m290.195312 157.609375-191.488281 141.3125-37.460937-37.460937 3.667968-3.070313 179.714844-152.152344zm0 0" fill="#ff5722"/><path d="m179.261719 305.324219v63.488281c-.003907 3.917969-2.679688 7.335938-6.484375 8.277344l-26.625 6.652344c-.667969.171874-1.355469.257812-2.046875.257812h-75.777344c-14.136719 0-25.601563-11.460938-25.601563-25.601562v-59.730469c0-4.714844 3.824219-8.535157 8.535157-8.535157h92.84375c.691406 0 1.378906.085938 2.046875.257813l26.625 6.65625c3.804687.941406 6.480468 4.355469 6.484375 8.277344zm0 0" fill="#d84315"/><path d="m162.195312 305.324219v63.488281c-.003906 3.917969-2.679687 7.335938-6.484374 8.277344l-26.625 6.652344c-.667969.171874-1.359376.257812-2.046876.257812h-58.710937c-14.136719 0-25.601563-11.460938-25.601563-25.601562v-59.730469c0-4.714844 3.824219-8.535157 8.535157-8.535157h75.777343c.6875 0 1.378907.085938 2.046876.257813l26.625 6.65625c3.804687.941406 6.480468 4.355469 6.484374 8.277344zm0 0" fill="#ff5722"/><path d="m452.328125 337.152344c0 16.496094-13.371094 29.867187-29.867187 29.867187-.9375 0-1.960938.085938-2.902344.085938-.453125.011719-.910156-.015625-1.363282-.085938l-4.011718-1.28125-9.472656-3.15625c-1.167969-.421875-2.367188-.761719-3.582032-1.023437-6.929687-2.042969-14.113281-3.074219-21.332031-3.074219-2.855469 0-5.703125.171875-8.535156.511719-5.574219.59375-11.070313 1.796875-16.382813 3.585937l-13.484375 4.4375c-1.417969.128907-2.847656.128907-4.265625 0-2.957031.03125-5.898437-.429687-8.703125-1.367187-6.566406-1.917969-12.246093-6.085938-16.042969-11.773438-3.355468-4.933594-5.140624-10.761718-5.121093-16.726562-.035157-4.472656.988281-8.886719 2.988281-12.886719 3.542969-7.53125 10.117188-13.210937 18.089844-15.613281 2.832031-.9375 5.804687-1.398438 8.789062-1.367188.9375 0 1.960938-.085937 2.902344-.085937.457031-.011719.914062.015625 1.363281.085937l13.484375 4.523438c5.316406 1.757812 10.808594 2.933594 16.382813 3.5 2.832031.339844 5.679687.507812 8.535156.511718 8.464844-.007812 16.875-1.359374 24.914063-4.011718l9.472656-3.15625h.085937l3.925781-1.367188c1.421876-.085937 2.84375-.085937 4.265626 0 16.496093 0 29.867187 13.371094 29.867187 29.867188zm0 0" fill="#ff9801"/><path d="m435.261719 337.152344c-.019531 13.113281-8.558594 24.691406-21.078125 28.585937-2.847656.859375-5.8125 1.292969-8.789063 1.28125-.9375 0-1.960937.085938-2.902343.085938-.457032.011719-.914063-.015625-1.363282-.085938l-13.484375-4.4375c-1.167969-.421875-2.367187-.761719-3.582031-1.023437-4.179688-1.238282-8.464844-2.09375-12.800781-2.5625-2.832031-.339844-5.679688-.511719-8.535157-.511719-8.472656-.007813-16.890624 1.378906-24.914062 4.097656l-9.386719 3.070313c-6.566406-1.917969-12.246093-6.085938-16.042969-11.773438-3.355468-4.933594-5.140624-10.761718-5.121093-16.726562-.035157-4.472656.988281-8.886719 2.988281-12.886719 3.542969-7.53125 10.117188-13.210937 18.089844-15.613281l9.472656 3.15625c8.039062 2.652344 16.449219 4.003906 24.914062 4.011718 2.855469-.003906 5.703126-.171874 8.535157-.511718 5.574219-.566406 11.066406-1.742188 16.382812-3.5l13.484375-4.523438c1.421875-.085937 2.84375-.085937 4.265625 0 2.984375-.027344 5.953125.4375 8.789063 1.367188h.085937c12.480469 3.882812 20.984375 15.429687 20.992188 28.5zm0 0" fill="#ffb301"/><path d="m332.863281 123.476562c.007813 14.167969-7.027343 27.410157-18.773437 35.328126-9.53125 6.429687-21.246094 8.765624-32.511719 6.484374h-.085937c-19.785157-4.152343-33.953126-21.597656-33.964844-41.8125-.015625-11.0625 4.304687-21.691406 12.03125-29.609374h61.269531c7.730469 7.917968 12.050781 18.546874 12.035156 29.609374zm0 0" fill="#37474f"/><path d="m119.527344 285.609375c.011718 9.058594-3.582032 17.746094-9.984375 24.148437-6.402344 6.40625-15.089844 9.996094-24.148438 9.984376-2.882812.027343-5.753906-.34375-8.53125-1.109376-11.859375-3.058593-21.167969-12.238281-24.398437-24.054687-3.226563-11.8125.125-24.453125 8.78125-33.117187 4.339844-4.273438 9.722656-7.332032 15.617187-8.875 2.777344-.761719 5.648438-1.132813 8.53125-1.109376 9.058594-.011718 17.746094 3.582032 24.148438 9.984376 6.402343 6.40625 9.996093 15.09375 9.984375 24.148437zm0 0" fill="#37474f"/><path d="m315.796875 123.476562c.007813 14.167969-7.027344 27.410157-18.773437 35.328126-4.652344 3.191406-9.910157 5.398437-15.445313 6.484374h-.085937c-19.785157-4.152343-33.953126-21.597656-33.964844-41.8125-.015625-11.0625 4.304687-21.691406 12.03125-29.609374h44.203125c7.730469 7.917968 12.046875 18.546874 12.035156 29.609374zm0 0" fill="#607d8b"/><path d="m102.460938 285.609375c.039062 15.574219-10.507813 29.183594-25.597657 33.023437-11.859375-3.058593-21.167969-12.238281-24.398437-24.054687-3.226563-11.8125.125-24.453125 8.78125-33.117187 4.339844-4.273438 9.722656-7.332032 15.617187-8.875 5.890625 1.542968 11.277344 4.601562 15.613281 8.875 6.382813 6.421874 9.96875 15.097656 9.984376 24.148437zm0 0" fill="#607d8b"/><path d="m34.195312 335.921875v22.476563c0 18.851562 15.28125 34.136718 34.132813 34.136718h75.777344c1.386719 0 2.769531-.175781 4.113281-.523437l26.597656-6.636719c5.203125-1.289062 9.492188-4.964844 11.5625-9.910156h27.015625c6.074219-.011719 11.675781-3.265625 14.703125-8.53125h84.898438c6.816406 5.558594 15.335937 8.601562 24.132812 8.617187l.945313.042969c.554687 0 1.203125.070312 1.929687.070312 1 .007813 1.996094-.078124 2.976563-.265624.367187-.066407.730469-.15625 1.085937-.273438l13.566406-4.460938c11.261719-3.828124 23.335938-4.585937 34.988282-2.203124v24.074218c-3.640625.03125-6.855469 2.367188-8.011719 5.816406l-3.160156 9.472657-20.480469 19.191406-12.117188 12.117187c-9.945312 9.988282-9.945312 26.140626 0 36.132813l31.660157 31.65625c3.191406 3.234375 7.539062 5.0625 12.082031 5.078125 2.257812-.003906 4.488281-.449219 6.570312-1.3125 6.378907-2.632812 10.527344-8.859375 10.496094-15.753906v-27.734375c.003906-2.261719-.894531-4.429688-2.488281-6.03125l-3.953125-3.953125 4.941406-4.949219h29.457032l4.523437 4.515625-4.378906 4.386719c-1.601563 1.597656-2.5 3.769531-2.5 6.03125v27.734375c-.011719 6.886718 4.136719 13.097656 10.503906 15.71875 2.078125.875 4.308594 1.332031 6.5625 1.347656 4.535156-.003906 8.882813-1.8125 12.082031-5.027344l32.09375-32.085937c9.949219-9.988281 9.949219-26.140625 0-36.128907l-12.390625-12.382812-21.398437-19.574219-2.800782-8.398437c-1.097656-3.300782-4.109374-5.597656-7.585937-5.785156v-31.570313c5.5-6.75 8.515625-15.1875 8.535156-23.894531 0-21.207032-17.195312-38.398438-38.402343-38.398438h-1.125c-1.390626-.078125-2.789063-.046875-4.171876.101563-.582031.058593-1.15625.183593-1.707031.375l-13.441406 4.503906c-14.4375 4.734375-30.011719 4.734375-44.449219 0l-13.484375-4.523437c-.351562-.117188-.710937-.214844-1.074219-.289063-.984374-.171875-1.980468-.257813-2.976562-.253906l-2.902344.085937c-12.777344.023438-24.710937 6.382813-31.855468 16.980469h-74.8125c0-9.425781-7.640626-17.066406-17.066407-17.066406h-26.992187c-2.054688-4.960938-6.347656-8.644531-11.5625-9.925781l-16.765625-4.191407 162.789062-120.054687c.1875-.136719.28125-.347656.460938-.511719 18.996093-14.339844 25.398437-40 15.367187-61.585937h21.769532c9.425781 0 17.066406-7.640626 17.066406-17.066407v-18.636719c7.226562-2.582031 12.917968-8.269531 15.496094-15.496093h16.214843c11.746094 0 21.980469-7.992188 24.832031-19.386719l2.652344-10.617188c1.273438-5.089843.128906-10.484374-3.097656-14.625-3.230469-4.136718-8.179688-6.5624995-13.429688-6.570312h-31.746093c-.402344.0507812-.800781.128906-1.191407.238281-.394531-.109375-.792968-.1874998-1.195312-.238281h-219.46875c-5.253906 0-10.21875 2.417969-13.453125 6.558594s-4.382813 9.539062-3.109375 14.636718l2.652344 10.625c2.855468 11.394532 13.09375 19.382813 24.839844 19.378907h13.839843c1.539063 4.277343 4.1875 8.066406 7.683594 10.976562-26.320313 22.378907-53.808594 43.34375-82.347656 62.8125-114.636719 79.34375-114.636719 133.390625-114.636719 169.15625-1.140625 20.660157 13.660156 38.777344 34.132812 41.777344zm245.570313-162.320313-146.414063 108h-5.683593c-1.53125-18.316406-14.804688-33.503906-32.75-37.472656l144.214843-122.101562c0 .484375-.136718.945312-.136718 1.433594.023437 24.25 17.035156 45.167968 40.769531 50.140624zm-212.476563 93.933594c10.007813-10 26.230469-9.992187 36.230469.019532 10 10.007812 9.992188 26.230468-.015625 36.230468-10.132812 9.671875-26.074218 9.671875-36.207031 0-4.804687-4.800781-7.5-11.3125-7.5-18.101562 0-6.789063 2.695313-13.304688 7.5-18.105469zm372.460938 167.664063h-34.988281l-10.835938-10.84375 4.898438-14.753907h46.839843l4.921876 14.753907zm-30.089844-42.664063v-19.339844l5.871094 1.929688c.335938.109375.679688.199219 1.027344.265625.988281.175781 1.996094.257813 3 .246094l2.902344-.085938c4.371093-.050781 8.699218-.851562 12.800781-2.363281v19.347656zm-17.066406 102.339844-31.65625-31.660156c-3.285156-3.324219-3.285156-8.671875 0-11.996094l11.945312-11.949219 6.128907-5.742187 11.875 11.914062-2.890625 2.898438c-4.800782 5.03125-4.738282 12.964844.136718 17.921875l4.496094 4.496093zm91.871094-44.085938c3.285156 3.324219 3.285156 8.675782 0 12l-32.136719 32.144532v-24.199219l4.914063-4.917969c4.964843-4.992187 4.964843-13.054687 0-18.046875l-2.96875-2.96875 11.8125-11.8125 6.226562 5.683594zm-147.335938-134.96875 2.464844-.148437 12.613281 4.269531c17.933594 5.902344 37.285157 5.902344 55.21875 0l12.40625-4.207031.855469.042969h1.78125c8.605469-.007813 16.367188 5.15625 19.691406 13.089844 3.324219 7.9375 1.554688 17.089843-4.484375 23.21875-3.988281 4.101562-9.480469 6.398437-15.207031 6.355468l-2.472656.136719-12.40625-4.070313c-1.316406-.488281-2.660156-.878906-4.03125-1.175781-7.710938-2.273437-15.714844-3.425781-23.753906-3.414062-9.378907-.019531-18.699219 1.507812-27.582032 4.523437l-12.527344 4.113282h-.59375c-.652343 0-1.308593-.078126-1.964843-.078126-7.089844.003907-13.71875-3.511718-17.6875-9.386718-2.398438-3.519532-3.671875-7.679688-3.652344-11.9375-.027344-3.203125.714844-6.367188 2.15625-9.226563 3.539063-7.378906 10.988281-12.082031 19.175781-12.105469zm-38.152344 16.980469c-.671874 5.765625.011719 11.609375 1.988282 17.066407h-70.503906v-17.066407zm-85.582031 25.597657h-25.597656v-42.664063h25.597656zm-69.308593-59.730469 26.640624 6.65625v63.496093l-26.621093 6.644532h-75.777344c-9.425781 0-17.066406-7.640625-17.066406-17.066406v-47.390626c1.195312 1.691407 2.515625 3.296876 3.941406 4.800782 16.261719 16.296875 42.542969 16.675781 59.265625.855468l.109375-.058593 24.390625-17.9375zm180.242187-175.191407c.003906 11.355469-5.648437 21.96875-15.078125 28.296876-5.609375 3.835937-12.257812 5.871093-19.054688 5.835937-18.851562 0-34.132812-15.28125-34.132812-34.132813.019531-7.679687 2.679688-15.121093 7.535156-21.078124h53.195313c4.855469 5.957031 7.515625 13.398437 7.535156 21.078124zm34.132813-38.144531h-136.53125v-17.066406h136.53125zm36.523437-68.265625h23.210937l-2.652343 10.597656c-.949219 3.800782-4.363281 6.46875-8.277344 6.46875h-12.28125zm-19.457031 25.601563c0 4.710937-3.820313 8.53125-8.53125 8.53125h-153.601563c-4.710937 0-8.53125-3.820313-8.53125-8.53125v-25.601563h170.664063zm-208.289063-14.996094-2.671875-10.605469h23.230469v17.066406h-12.273437c-3.917969.003907-7.332032-2.660156-8.285157-6.460937zm-42.855469 111.351563c31.652344-21.929688 58.582032-42.402344 80.480469-61.113282v7.421875c0 9.425781 7.640625 17.066407 17.066407 17.066407h14.011718l-176.496094 149.445312-3.667968 3.0625c-.113282.09375-.15625.222656-.25.316406s-.210938.15625-.304688.25c-7.554687 7.566406-11.957031 17.71875-12.324218 28.40625-5.355469 2.996094-8.683594 8.648438-8.703126 14.789063v19.746093c-10.871093-2.808593-18.101562-13.089843-17.066406-24.269531 0-32.171875 0-80.863281 107.253906-155.121093zm0 0"/></svg>