<svg height="512pt" viewBox="0 0 512.00911 512" width="512pt" xmlns="http://www.w3.org/2000/svg"><path d="m469.34375 298.632812v110.933594h-187.734375v-110.933594c.027344-9.414062 7.652344-17.039062 17.066406-17.066406h153.601563c9.414062.027344 17.035156 7.652344 17.066406 17.066406zm0 0" fill="#283593"/><path d="m452.277344 298.632812v110.933594h-170.667969v-110.933594c.027344-9.414062 7.652344-17.039062 17.066406-17.066406h136.535157c9.414062.027344 17.035156 7.652344 17.066406 17.066406zm0 0" fill="#3f51b5"/><path d="m399.113281 138.460938-30.207031 30.210937-42.667969-42.667969 30.207031-30.207031zm0 0" fill="#d84315"/><path d="m326.234375 126.007812 25.941406-25.941406 29.867188 29.871094-25.941407 25.9375zm0 0" fill="#ff5722"/><path d="m472.839844 146.226562v45.3125c.023437 3.445313-2.03125 6.566407-5.203125 7.90625-3.171875 1.34375-6.84375.648438-9.300781-1.761718l-.429688-.425782-19.199219-19.199218v-10.496094c-.027343-2.3125-1.867187-4.195312-4.179687-4.269531h-14.25l-12.714844-32.765625 31.144531-1.367188h17.152344c4.519531.003906 8.847656 1.804688 12.035156 5.007813s4.96875 7.542969 4.945313 12.058593zm0 0" fill="#9e9e9e"/><path d="m361.242188 178.3125-.964844 29.867188v17.144531c-.003906 4.511719 1.789062 8.84375 4.980468 12.035156 3.191407 3.191406 7.519532 4.984375 12.035157 4.980469h44.773437c3.4375-.003906 6.539063-2.0625 7.867188-5.230469 1.332031-3.167969.632812-6.824219-1.773438-9.277344l-19.625-19.628906h-9.898437c-2.359375 0-4.269531-1.910156-4.269531-4.265625v-14.789062zm0 0" fill="#cfd8dc"/><path d="m460.042969 146.226562v45.3125c.015625 2.105469-.742188 4.140626-2.136719 5.71875l-19.199219-19.199218v-10.496094c-.027343-2.3125-1.867187-4.195312-4.179687-4.269531h-14.25l-12.714844-32.765625 31.144531-1.367188h4.351563c4.519531.003906 8.851562 1.804688 12.035156 5.007813 3.1875 3.203125 4.96875 7.542969 4.949219 12.058593zm0 0" fill="#cfd8dc"/><path d="m166.75 208.691406c-3.9375-3.832031-8.53125-6.925781-13.566406-9.128906-5.273438-2.199219-10.929688-3.332031-16.640625-3.328125-.597657-.015625-1.199219.011719-1.792969.082031-3 .074219-5.976562.503906-8.875 1.28125-2.03125.527344-4.027344 1.179688-5.972656 1.964844-10.234375 4.316406-18.378906 12.460938-22.699219 22.695312-2.199219 5.273438-3.328125 10.929688-3.328125 16.640626l3.328125 16.640624-3.328125-5.800781-16.894531-29.699219-63.574219-111.273437-.085938-.085937-.339843-.511719-1.964844-3.667969-.425781-.683594 67.671875 2.21875zm0 0" fill="#d84315"/><path d="m145.417969 208.691406c-3.9375-3.832031-8.535157-6.925781-13.570313-9.128906-1.945312-.785156-3.941406-1.4375-5.972656-1.964844-3.476562-.929687-7.066406-1.390625-10.664062-1.363281-5.890626 0-6.4375 9.597656-11.554688 11.730469-5.121094 2.132812-4.082031 12.160156-8.003906 16-3.714844 3.613281-6.898438 7.734375-9.457032 12.238281l-72.789062-127.4375-.085938-.085937-.339843-.511719-1.964844-3.667969 45.910156 1.535156 77.824219 90.28125zm0 0" fill="#ff5722"/><path d="m93.875 238.898438h85.335938v93.867187h-85.335938zm0 0" fill="#f57c00"/><path d="m93.875 238.898438h68.265625v93.867187h-68.265625zm0 0" fill="#ff9801"/><path d="m179.210938 238.898438c0 23.566406-19.105469 42.667968-42.667969 42.667968-2.839844.019532-5.671875-.265625-8.449219-.855468h-.171875c-19.882813-4.035157-34.175781-21.519532-34.175781-41.8125 0-20.289063 14.292968-37.773438 34.175781-41.8125h.171875c2.777344-.585938 5.609375-.875 8.449219-.851563 11.316406 0 22.167969 4.492187 30.167969 12.496094 8.003906 8 12.5 18.851562 12.5 30.167969zm0 0" fill="#37474f"/><path d="m223.328125 57.652344-3.414063 1.109375-.425781.167969-8.023437 2.648437-133.203125 44.457031-34.136719 11.347656-2.984375-14.675781-7-34.472656 153.773437-52.394531 15.445313-5.292969zm0 0" fill="#d84315"/><path d="m201.992188 49.117188-3.414063 1.109374-.425781.171876-8.019532 2.644531-133.207031 44.460937-15.785156 5.203125-7-34.472656 153.773437-52.394531zm0 0" fill="#ff5722"/><path d="m325.726562 61.746094-28.074218 41.644531-94.292969-45.738281 19.96875-47.105469 2.558594 1.28125 99.753906 49.917969zm0 0" fill="#d84315"/><path d="m325.640625 61.746094-19.457031 28.84375-94.292969-45.738282 13.996094-33.023437zm0 0" fill="#ff5722"/><path d="m17.074219 383.964844h477.867187c4.714844 0 8.535156 3.820312 8.535156 8.535156v102.398438c0 4.714843-3.820312 8.535156-8.535156 8.535156h-477.867187c-4.710938 0-8.53125-3.820313-8.53125-8.535156v-102.398438c0-4.714844 3.820312-8.535156 8.53125-8.535156zm0 0" fill="#0377bc"/><path d="m17.074219 383.964844h456.535156c4.710937 0 8.53125 3.820312 8.53125 8.535156v102.398438c0 4.714843-3.820313 8.535156-8.53125 8.535156h-456.535156c-4.710938 0-8.53125-3.820313-8.53125-8.535156v-102.398438c0-4.714844 3.820312-8.535156 8.53125-8.535156zm0 0" fill="#02a9f4"/><path d="m213.34375 332.765625v119.46875c0 4.710937-3.820312 8.53125-8.535156 8.53125h-136.53125c-4.714844 0-8.535156-3.820313-8.535156-8.53125v-119.46875zm0 0" fill="#f57c00"/><path d="m192.007812 332.765625v119.46875c0 4.710937-3.820312 8.53125-8.53125 8.53125h-115.199218c-4.714844 0-8.535156-3.820313-8.535156-8.53125v-119.46875zm0 0" fill="#ff9801"/><path d="m247.476562 332.765625c-.070312 9.398437-7.671874 16.996094-17.066406 17.066406h-187.734375c-9.414062-.027343-17.039062-7.652343-17.066406-17.066406.070313-9.394531 7.667969-16.996094 17.066406-17.066406h187.734375c9.414063.027343 17.039063 7.652343 17.066406 17.066406zm0 0" fill="#606060"/><path d="m226.140625 332.765625c-.066406 9.398437-7.667969 16.996094-17.066406 17.066406h-166.398438c-9.414062-.027343-17.039062-7.652343-17.066406-17.066406.070313-9.394531 7.667969-16.996094 17.066406-17.066406h166.398438c9.414062.027343 17.039062 7.652343 17.066406 17.066406zm0 0" fill="#cfd8dc"/><path d="m298.675781 418.097656h153.601563c9.425781 0 17.066406 7.644532 17.066406 17.070313v17.066406c0 9.425781-7.640625 17.066406-17.066406 17.066406h-153.601563c-9.425781 0-17.066406-7.640625-17.066406-17.066406v-17.066406c0-9.425781 7.640625-17.070313 17.066406-17.070313zm0 0" fill="#283593"/><path d="m298.675781 418.097656h136.535157c9.425781 0 17.066406 7.644532 17.066406 17.070313v17.066406c0 9.425781-7.640625 17.066406-17.066406 17.066406h-136.535157c-9.425781 0-17.066406-7.640625-17.066406-17.066406v-17.066406c0-9.425781 7.640625-17.070313 17.066406-17.070313zm0 0" fill="#3f51b5"/><path d="m324.277344 315.699219h34.132812c4.710938 0 8.53125 3.820312 8.53125 8.535156v17.066406c0 4.710938-3.820312 8.53125-8.53125 8.53125h-34.132812c-4.714844 0-8.535156-3.820312-8.535156-8.53125v-17.066406c0-4.714844 3.820312-8.535156 8.535156-8.535156zm0 0" fill="#8bc34a"/><path d="m59.742188 93.832031c.023437 3.433594-.675782 6.835938-2.046876 9.984375-2.589843 6.113282-7.453124 10.980469-13.570312 13.566406-3.148438 1.375-6.546875 2.070313-9.984375 2.050782-2.914063.015625-5.804687-.503906-8.53125-1.535156-.5-.121094-.988281-.292969-1.449219-.515626-6.117187-2.585937-10.984375-7.453124-13.570312-13.566406-2.730469-6.375-2.730469-13.589844 0-19.96875 2.585937-6.113281 7.453125-10.980468 13.570312-13.566406.460938-.222656.949219-.394531 1.449219-.511719 2.726563-1.035156 5.617187-1.554687 8.53125-1.535156 3.4375-.023437 6.835937.675781 9.984375 2.046875 6.117188 2.585938 10.980469 7.453125 13.570312 13.566406 1.371094 3.148438 2.070313 6.550782 2.046876 9.984375zm0 0" fill="#37474f"/><path d="m238.941406 34.097656c.023438 3.4375-.675781 6.835938-2.046875 9.984375-2.585937 6.117188-7.453125 10.980469-13.566406 13.570313-3.148437 1.371094-6.550781 2.070312-9.984375 2.046875-2.917969.019531-5.808594-.503907-8.535156-1.535157-.5-.121093-.984375-.292968-1.449219-.511718-6.113281-2.589844-10.980469-7.453125-13.570313-13.570313-2.730468-6.375-2.730468-13.589843 0-19.964843 2.589844-6.117188 7.457032-10.984376 13.570313-13.570313.464844-.222656.949219-.394531 1.449219-.511719 2.726562-1.03125 5.617187-1.554687 8.535156-1.535156 3.433594-.023438 6.835938.675781 9.984375 2.046875 6.113281 2.585937 10.980469 7.453125 13.566406 13.570313 1.371094 3.148437 2.070313 6.546874 2.046875 9.980468zm0 0" fill="#37474f"/><path d="m341.34375 85.300781c.019531 3.433594-.675781 6.835938-2.050781 9.984375-.535157 1.308594-1.191407 2.566406-1.960938 3.753906l-7.851562 7.851563c-1.1875.769531-2.445313 1.425781-3.753907 1.960937-3.148437 1.371094-6.550781 2.070313-9.984374 2.046876-2.914063.019531-5.808594-.5-8.53125-1.535157-.503907-.117187-.988282-.289062-1.453126-.511719-6.113281-2.585937-10.980468-7.453124-13.566406-13.566406-2.730468-6.378906-2.730468-13.59375 0-19.96875 2.585938-6.113281 7.453125-10.980468 13.566406-13.570312.464844-.21875.949219-.390625 1.453126-.511719 2.722656-1.03125 5.617187-1.554687 8.53125-1.535156 3.433593-.023438 6.835937.675781 9.984374 2.046875 6.113282 2.589844 10.980469 7.457031 13.566407 13.570312 1.375 3.148438 2.070312 6.546875 2.050781 9.984375zm0 0" fill="#37474f"/><g fill="#607d8b"><path d="m162.140625 238.898438c-.019531 20.242187-14.230469 37.695312-34.046875 41.8125h-.171875c-19.882813-4.035157-34.175781-21.519532-34.175781-41.8125 0-20.289063 14.292968-37.773438 34.175781-41.8125h.171875c19.816406 4.121093 34.027344 21.574218 34.046875 41.8125zm0 0"/><path d="m42.675781 93.832031c.023438 3.433594-.675781 6.835938-2.046875 9.984375-2.589844 6.113282-7.453125 10.980469-13.570312 13.566406-.460938.222657-.949219.394532-1.449219.515626-.5-.121094-.988281-.292969-1.449219-.515626-6.117187-2.585937-10.984375-7.453124-13.570312-13.566406-2.730469-6.375-2.730469-13.589844 0-19.96875 2.585937-6.113281 7.453125-10.980468 13.570312-13.566406.460938-.222656.949219-.394531 1.449219-.511719.5.117188.988281.289063 1.449219.511719 6.117187 2.585938 10.980468 7.453125 13.570312 13.566406 1.371094 3.148438 2.070313 6.550782 2.046875 9.984375zm0 0"/><path d="m221.875 34.097656c.023438 3.4375-.675781 6.835938-2.046875 9.984375-2.585937 6.117188-7.453125 10.980469-13.566406 13.570313-.464844.21875-.953125.390625-1.453125.511718-.5-.121093-.984375-.292968-1.449219-.511718-6.113281-2.589844-10.980469-7.453125-13.570313-13.570313-2.730468-6.375-2.730468-13.589843 0-19.964843 2.589844-6.117188 7.457032-10.984376 13.570313-13.570313.464844-.222656.949219-.394531 1.449219-.511719.5.117188.988281.289063 1.453125.511719 6.113281 2.585937 10.980469 7.453125 13.566406 13.570313 1.371094 3.148437 2.070313 6.546874 2.046875 9.980468zm0 0"/><path d="m324.277344 85.300781c.019531 3.433594-.675782 6.835938-2.050782 9.984375-.535156 1.308594-1.191406 2.566406-1.960937 3.753906l-7.851563 7.851563c-1.1875.769531-2.445312 1.425781-3.753906 1.960937-.464844.222657-.949218.394532-1.449218.511719-.503907-.117187-.988282-.289062-1.453126-.511719-6.113281-2.585937-10.980468-7.453124-13.566406-13.566406-2.730468-6.378906-2.730468-13.59375 0-19.96875 2.585938-6.113281 7.453125-10.980468 13.566406-13.570312.464844-.21875.949219-.390625 1.453126-.511719.5.121094.984374.292969 1.449218.511719 6.113282 2.589844 10.980469 7.457031 13.566406 13.570312 1.375 3.148438 2.070313 6.546875 2.050782 9.984375zm0 0"/></g><path d="m421.726562 137.695312v24.148438l-29.695312 29.695312h-24.148438l-12.035156-24.148437 37.546875-37.546875 1.453125-1.449219 2.816406-2.816406zm0 0" fill="#f57c00"/><path d="m408.925781 137.695312v24.148438l-29.695312 29.695312h-11.347657l-12.035156-24.148437 37.546875-37.546875zm0 0" fill="#ff9801"/><path d="m379.65625 94.855469-54.355469 54.359375c-3.328125 3.308594-8.703125 3.308594-12.03125 0l-12.117187-12.117188c-1.761719-1.746094-2.636719-4.191406-2.390625-6.65625.121093-2.023437.96875-3.933594 2.390625-5.375l54.355468-54.359375c3.328126-3.308593 8.703126-3.308593 12.03125 0l12.117188 12.117188c3.308594 3.328125 3.308594 8.703125 0 12.03125zm0 0" fill="#f57c00"/><path d="m377.78125 80.949219c-.121094 2.019531-.972656 3.929687-2.390625 5.375l-54.359375 54.355469c-3.328125 3.308593-8.703125 3.308593-12.03125 0l-10.238281-10.238282c.121093-2.023437.96875-3.933594 2.390625-5.375l54.355468-54.359375c3.328126-3.308593 8.703126-3.308593 12.03125 0zm0 0" fill="#ff9801"/><path d="m409.609375 315.699219c0 4.714843-3.820313 8.535156-8.535156 8.535156-4.710938 0-8.53125-3.820313-8.53125-8.535156 0-4.710938 3.820312-8.53125 8.53125-8.53125 4.714843 0 8.535156 3.820312 8.535156 8.53125zm0 0"/><path d="m443.742188 315.699219c0 4.714843-3.820313 8.535156-8.53125 8.535156-4.714844 0-8.535157-3.820313-8.535157-8.535156 0-4.710938 3.820313-8.53125 8.535157-8.53125 4.710937 0 8.53125 3.820312 8.53125 8.53125zm0 0"/><path d="m443.742188 349.832031c0 4.714844-3.820313 8.535157-8.53125 8.535157-4.714844 0-8.535157-3.820313-8.535157-8.535157 0-4.710937 3.820313-8.53125 8.535157-8.53125 4.710937 0 8.53125 3.820313 8.53125 8.53125zm0 0"/><path d="m409.609375 349.832031c0 4.714844-3.820313 8.535157-8.535156 8.535157-4.710938 0-8.53125-3.820313-8.53125-8.535157 0-4.710937 3.820312-8.53125 8.53125-8.53125 4.714843 0 8.535156 3.820313 8.535156 8.53125zm0 0"/><path d="m145.074219 238.898438c0 4.714843-3.820313 8.535156-8.53125 8.535156-4.714844 0-8.535157-3.820313-8.535157-8.535156 0-4.710938 3.820313-8.53125 8.535157-8.53125 4.710937 0 8.53125 3.820312 8.53125 8.53125zm0 0"/><path d="m494.941406 375.433594h-17.066406v-76.800782c0-14.136718-11.460938-25.601562-25.597656-25.601562h-153.601563c-14.136719 0-25.601562 11.464844-25.601562 25.601562v76.800782h-51.199219v-17.066406h8.535156c14.136719 0 25.597656-11.460938 25.597656-25.601563 0-14.136719-11.460937-25.597656-25.597656-25.597656h-42.667968v-68.269531c0-6.898438-1.378907-13.726563-4.054688-20.085938-2.53125-5.738281-6.042969-10.988281-10.375-15.523438-.042969-.050781-.050781-.117187-.101562-.167968l-80.1875-93.074219 117.808593-39.253906 82.296875 39.894531c2.699219 2.484375 5.792969 4.503906 9.15625 5.972656 1.304688.511719 2.640625.941406 4.003906 1.277344l-6.144531 6.136719c-6.664062 6.664062-6.664062 17.46875 0 24.132812l12.066407 12.074219c3.199218 3.203125 7.542968 5 12.070312 5s8.867188-1.796875 12.070312-5l6.03125-6.042969 12.324219 12.332031c-2.523437 2.597657-3.132812 6.503907-1.519531 9.746094l4.460938 8.925782-.902344 28.058593v17.132813c.035156 14.097656 11.460937 25.507812 25.554687 25.53125h44.777344c6.898437.011718 13.128906-4.132813 15.785156-10.503906 2.652344-6.367188 1.207031-13.710938-3.660156-18.601563l-19.628906-19.628906c-1.601563-1.585938-3.765625-2.46875-6.023438-2.464844h-5.578125v-7.003906l20.820313-20.824219h6.417969v6.1875c0 2.261719.898437 4.433594 2.5 6.035156l19.625 19.625c4.898437 4.847656 12.234374 6.277344 18.59375 3.617188 6.355468-2.660156 10.492187-8.882813 10.480468-15.777344v-45.371094c-.023437-14.101562-11.449218-25.53125-25.550781-25.558594h-17.519531l-29.011719 1.296876-7.917969-3.957032c-3.128906-1.550781-6.890625-1.027344-9.472656 1.320313l-12.355469-12.363281 6.03125-6.035157c6.664063-6.664062 6.664063-17.464843 0-24.128906l-12.023437-12.058594c-6.753906-6.453125-17.386719-6.453125-24.140625 0l-6.066407 6.066407c-.324218-1.289063-.730468-2.558594-1.210937-3.796876-3.339844-7.984374-9.621094-14.378906-17.546875-17.859374l-.085938-.0625-102.398437-51.199219s-.144531-.058594-.144531-.085938c0-.023437-.246094-.136719-.375-.195312-8.3125-3.453125-17.648438-3.511719-26-.160157l-.078125.050782c-.152344.066406-.324219.085937-.488281.144531l-.09375.023437-167.847657 57.21875c-3.871093.175782-7.683593 1.007813-11.273437 2.464844-17.355469 7.359375-25.472656 27.382813-18.144532 44.75.113282.253906.285157.46875.394532.722656v.070313l1.375 2.507813c.527344.9375.996094 1.910156 1.613281 2.800781l.101563.160156.09375.136719 79.070312 138.445312v55.195313h-42.667969c-14.136719 0-25.601562 11.460937-25.601562 25.597656 0 14.140625 11.464843 25.601563 25.601562 25.601563h8.535157v17.066406h-34.136719c-9.425781 0-17.0664065 7.640625-17.0664065 17.066406v102.398438c0 9.425781 7.6406255 17.066406 17.0664065 17.066406h477.867187c9.425782 0 17.066406-7.640625 17.066406-17.066406v-102.398438c0-9.425781-7.640624-17.066406-17.066406-17.066406zm-204.800781-76.800782c0-4.710937 3.824219-8.535156 8.535156-8.535156h153.601563c4.710937 0 8.53125 3.824219 8.53125 8.535156v76.800782h-170.667969zm-129.421875-83.890624c3.050781 3.140624 5.519531 6.796874 7.285156 10.800781 3.539063 8.496093 3.5625 18.046875.070313 26.558593-3.445313 8.226563-9.96875 14.78125-18.175781 18.269532-8.503907 3.488281-18.03125 3.507812-26.546876.058594-8.238281-3.433594-14.796874-9.957032-18.273437-18.175782-3.535156-8.492187-3.558594-18.042968-.066406-26.554687 3.441406-8.230469 9.964843-14.785157 18.175781-18.261719 8.5-3.496094 18.03125-3.519531 26.546875-.070312 4.074219 1.78125 7.792969 4.28125 10.984375 7.375zm-23.324219-27.042969c-7.1875-.164063-14.328125 1.214843-20.941406 4.046875-12.230469 5.207031-21.960937 14.96875-27.125 27.21875-.46875 1.128906-.855469 2.269531-1.230469 3.414062l-53.902344-94.414062c4.308594-.019532 8.578126-.859375 12.578126-2.472656l.289062-.09375c.109375-.042969.230469-.0625.339844-.101563l28.03125-9.386719zm-71.808593-107.160157c-1.148438-2.609374-2.625-5.0625-4.394532-7.296874-.136718-.273438-.289062-.539063-.460937-.792969l-2.132813-2.390625-.085937-.058594c-.082031-.09375-.144531-.207031-.226563-.289062-.085937-.085938-.410156-.308594-.597656-.488282l122.171875-41.652344c-2.199219 11.136719 1.304687 22.636719 9.34375 30.652344.476563.476563 1.046875.855469 1.550781 1.289063l-123.144531 41.046875c.441406-2.214844.664063-4.46875.667969-6.726563.003906-4.566406-.910156-9.089843-2.691406-13.292969zm218.8125-8.6875c-1.867188 4.234376-2.820313 8.820313-2.789063 13.449219 0 .296875.078125.578125.085937.851563l-49.1875-23.816406c1.785157-1.203126 3.445313-2.578126 4.96875-4.105469 6.410157-6.390625 10.011719-15.078125 10-24.132813 0-.699218-.164062-1.363281-.207031-2.054687l49.632813 24.824219c-1.90625 1.257812-3.675782 2.703124-5.292969 4.316406-3.078125 3.050781-5.527344 6.675781-7.210937 10.667968zm119.921874 69.203126 13.914063 6.964843v15.359375l-24.746094 24.746094h-15.359375l-6.917968-13.949219zm5.699219 80.777343 17.066407 17.066407h-44.785157c-4.671875-.027344-8.453125-3.808594-8.480469-8.480469v-16.863281l.265626-8.394532h16.828124v4.101563c.089844 6.964843 5.757813 12.5625 12.722657 12.570312zm33.722657-79.070312h17.136718c4.675782.027343 8.457032 3.816406 8.480469 8.492187v45.441406l-17.082031-17.121093v-6.96875c-.03125-7.050781-5.753906-12.75-12.800782-12.75h-4.199218v-16.707031zm-58.878907-6.390625-18.101562 18.109375-12.3125-12.316407 18.109375-18.097656zm-18.347656-54.535156 12.082031 12.054687-12.066406 12.066406-30.128906 30.132813-12.125 12.117187-12.078125-12.074219zm-42.402344 18.261718c-.59375.367188-1.214843.6875-1.859375.953125-6.367187 2.632813-13.691406 1.179688-18.570312-3.683593-1.582032-1.589844-2.839844-3.472657-3.695313-5.546876-.882812-2.058593-1.328125-4.28125-1.3125-6.519531.027344-4.515625 1.820313-8.84375 5-12.050781 1.585938-1.59375 3.476563-2.851562 5.554688-3.703125 2.054687-.886719 4.273437-1.335937 6.511719-1.3125 2.3125-.015625 4.601562.464844 6.714843 1.398437 2 .839844 3.8125 2.0625 5.34375 3.601563 1.582031 1.585937 2.839844 3.472656 3.695313 5.546875.882812 2.058594 1.332031 4.277344 1.3125 6.519531.003906 2.351563-.492188 4.675781-1.449219 6.824219-.234375.519531-.5 1.023438-.792969 1.511719zm-104.226562-81.757812.503906.246094c3.914063 1.753906 7.015625 4.925781 8.679687 8.875 1.785157 4.246093 1.785157 9.03125 0 13.277343-1.675781 3.992188-4.820312 7.1875-8.78125 8.925781l-2.558593.851563c-3.640625.980469-7.503907.738281-10.992188-.6875-4.175781-1.761719-7.480469-5.105469-9.1875-9.304687-1.707031-4.195313-1.671875-8.898438.089844-13.070313 2.65625-6.320313 8.847656-10.425781 15.703125-10.421875 2.246094 0 4.46875.441406 6.542969 1.308594zm-201.472657 68.855468c1.761719-4.171874 5.101563-7.472656 9.296876-9.179687 4.191406-1.707031 8.890624-1.675781 13.0625.082031 1.972656.835938 3.773437 2.042969 5.296874 3.550782l.589844.664062c4.558594 4.890625 5.816406 12.003906 3.210938 18.160156-1.761719 4.171875-5.101563 7.472656-9.296875 9.179688-4.191407 1.703125-8.890625 1.675781-13.0625-.085938-2.925781-1.210937-5.441407-3.242187-7.234375-5.851562l-1.957032-3.550782c-1.683593-4.160156-1.644531-8.820312.105469-12.953124zm83.996094 189.675782c4.222656 3.804687 9.015625 6.921875 14.207032 9.242187 12.808593 5.335938 27.222656 5.3125 40.011718-.066406 5.128906-2.320313 9.867188-5.421875 14.046875-9.191406v30.3125h-68.265625zm-68.269531 55.894531c0-4.710937 3.824219-8.53125 8.535156-8.53125h187.734375c4.710938 0 8.53125 3.820313 8.53125 8.53125 0 4.714844-3.820312 8.535156-8.53125 8.535156h-187.734375c-4.710937 0-8.535156-3.820312-8.535156-8.535156zm170.667969 25.601563v93.867187h-136.53125v-93.867187zm290.132812 136.53125h-477.867187v-102.398438h34.136719v59.734375c0 9.425781 7.640624 17.066406 17.066406 17.066406h136.53125c9.425781 0 17.066406-7.640625 17.066406-17.066406v-59.734375h273.066406zm0 0"/><path d="m298.675781 409.566406c-14.136719 0-25.601562 11.460938-25.601562 25.601563v17.066406c0 14.136719 11.464843 25.597656 25.601562 25.597656h153.601563c14.136718 0 25.597656-11.460937 25.597656-25.597656v-17.066406c0-14.140625-11.460938-25.601563-25.597656-25.601563zm162.132813 25.601563v17.066406c0 4.710937-3.820313 8.53125-8.53125 8.53125h-153.601563c-4.710937 0-8.535156-3.820313-8.535156-8.53125v-17.066406c0-4.714844 3.824219-8.535157 8.535156-8.535157h153.601563c4.710937 0 8.53125 3.820313 8.53125 8.535157zm0 0"/><path d="m358.410156 307.167969h-34.132812c-9.425782 0-17.066406 7.640625-17.066406 17.066406v17.066406c0 9.425781 7.640624 17.066407 17.066406 17.066407h34.132812c9.425782 0 17.066406-7.640626 17.066406-17.066407v-17.066406c0-9.425781-7.640624-17.066406-17.066406-17.066406zm-34.132812 34.132812v-17.066406h34.132812v17.066406zm0 0"/><path d="m93.875 392.5h42.667969c4.710937 0 8.53125-3.820312 8.53125-8.535156 0-4.710938-3.820313-8.53125-8.53125-8.53125h-42.667969c-4.710938 0-8.53125 3.820312-8.53125 8.53125 0 4.714844 3.820312 8.535156 8.53125 8.535156zm0 0"/><path d="m170.675781 392.5h8.535157c4.710937 0 8.53125-3.820312 8.53125-8.535156 0-4.710938-3.820313-8.53125-8.53125-8.53125h-8.535157c-4.710937 0-8.535156 3.820312-8.535156 8.53125 0 4.714844 3.824219 8.535156 8.535156 8.535156zm0 0"/></svg>