<svg height="512pt" viewBox="0 0 512 512.00009" width="512pt" xmlns="http://www.w3.org/2000/svg"><path d="m402.601562 195.667969 7 7v27.730469c0 3.441406-2.074218 6.539062-5.253906 7.847656-3.179687 1.308594-6.835937.570312-9.253906-1.871094l-6.828125-6.828125-12.800781-12.714844-12.117188-12.117187c-3.195312-3.1875-4.988281-7.519532-4.988281-12.03125 0-4.515625 1.792969-8.84375 4.988281-12.03125l12.117188-12.117188 7.683594-7.597656 10.921874-10.921875.851563.855469 22.699219 23.890625-15.019532 14.933593c-1.535156 1.695313-1.535156 4.28125 0 5.972657zm0 0" fill="#9e9e9e"/><path d="m389.800781 195.667969-3.804687-.339844-.527344 36.539063-14.269531-15.035157-12.117188-12.117187c-3.195312-3.1875-4.992187-7.519532-4.992187-12.03125 0-4.515625 1.796875-8.84375 4.992187-12.03125l12.117188-12.117188 7.679687-7.597656 13.140625 13.824219 3.175781 7.109375c-1.527343 1.59375-6.929687 12.175781-5.394531 13.796875zm0 0" fill="#cfd8dc"/><path d="m489.984375 204.289062-32.085937 32.085938c-1.660157 1.679688-3.941407 2.59375-6.304688 2.53125-2.359375-.066406-4.589844-1.105469-6.152344-2.875-1.4375-1.523438-2.230468-3.539062-2.21875-5.632812v-27.730469l7.507813-7.425781c1.535156-1.695313 1.535156-4.277344 0-5.972657l-14.507813-14.507812 17.238282-18.261719 4.777343-5.035156 1.539063-1.449219 30.207031 30.207031c3.195313 3.191406 4.992187 7.519532 4.992187 12.035156 0 4.511719-1.796874 8.839844-4.992187 12.03125zm0 0" fill="#9e9e9e"/><path d="m485.496094 195.976562-40.054688 40.054688c-1.4375-1.523438-2.230468-3.539062-2.21875-5.632812v-27.730469l7.507813-7.425781c1.535156-1.695313 1.535156-4.277344 0-5.972657l-14.507813-14.507812 17.238282-18.261719 32.035156 32.035156c.988281.988282 1.542968 2.324219 1.542968 3.722656 0 1.394532-.554687 2.734376-1.542968 3.71875zm0 0" fill="#cfd8dc"/><path d="m25.601562 17.066406h460.796876c9.425781 0 17.066406 7.640625 17.066406 17.066406v34.132813c0 9.425781-7.640625 17.066406-17.066406 17.066406h-460.796876c-9.425781 0-17.066406-7.640625-17.066406-17.066406v-34.132813c0-9.425781 7.640625-17.066406 17.066406-17.066406zm0 0" fill="#0377bc"/><path d="m25.601562 17.066406h443.730469c9.425781 0 17.066407 7.640625 17.066407 17.066406v34.132813c0 9.425781-7.640626 17.066406-17.066407 17.066406h-443.730469c-9.425781 0-17.066406-7.640625-17.066406-17.066406v-34.132813c0-9.425781 7.640625-17.066406 17.066406-17.066406zm0 0" fill="#02a9f4"/><path d="m468.820312 157.695312-17.066406 17.066407h-50.601562l-4.265625-4.265625-12.886719-12.800782 8.535156-25.597656h67.753906zm0 0" fill="#f57c00"/><path d="m451.753906 153.429688-17.066406 17.066406h-37.800781l-12.886719-12.800782 8.535156-25.597656h52.136719zm0 0" fill="#ff9801"/><path d="m452.265625 68.265625v63.832031h-51.199219v-62.550781zm0 0" fill="#f57c00"/><path d="m435.199219 68.695312v63.402344h-34.132813v-62.550781zm0 0" fill="#ff9801"/><path d="m469.332031 51.199219c0 23.566406-19.101562 42.667969-42.664062 42.667969-23.566407 0-42.667969-19.101563-42.667969-42.667969 0-23.5625 19.101562-42.664063 42.667969-42.664063 23.5625 0 42.664062 19.101563 42.664062 42.664063zm0 0" fill="#5e5f62"/><path d="m51.199219 85.332031h153.601562v34.132813h-153.601562zm0 0" fill="#283593"/><path d="m42.667969 119.464844h170.664062c4.714844 0 8.535157 3.824218 8.535157 8.535156v162.132812c0 4.714844-3.820313 8.535157-8.535157 8.535157h-170.664062c-4.714844 0-8.535157-3.820313-8.535157-8.535157v-162.132812c0-4.710938 3.820313-8.535156 8.535157-8.535156zm0 0" fill="#0377bc"/><path d="m46.933594 119.464844h149.332031c4.714844 0 8.535156 3.824218 8.535156 8.535156v162.132812c0 4.714844-3.820312 8.535157-8.535156 8.535157h-149.332031c-4.714844 0-8.535156-3.820313-8.535156-8.535157v-162.132812c0-4.710938 3.820312-8.535156 8.535156-8.535156zm0 0" fill="#02a9f4"/><path d="m230.398438 418.132812h-204.796876l17.066407-51.199218h170.664062zm0 0" fill="#0377bc"/><path d="m213.332031 418.132812h-187.730469l17.066407-51.199218h153.597656zm0 0" fill="#02a9f4"/><path d="m51.199219 298.667969h153.601562v68.265625h-153.601562zm0 0" fill="#283593"/><path d="m51.199219 85.332031h136.535156v34.132813h-136.535156zm0 0" fill="#3f51b5"/><path d="m51.199219 298.667969h136.535156v68.265625h-136.535156zm0 0" fill="#3f51b5"/><path d="m17.066406 452.265625h477.867188c4.710937 0 8.53125 3.820313 8.53125 8.535156v34.132813c0 4.710937-3.820313 8.53125-8.53125 8.53125h-477.867188c-4.710937 0-8.53125-3.820313-8.53125-8.53125v-34.132813c0-4.714843 3.820313-8.535156 8.53125-8.535156zm0 0" fill="#0377bc"/><path d="m17.066406 452.265625h460.800782c4.710937 0 8.53125 3.820313 8.53125 8.535156v34.132813c0 4.710937-3.820313 8.53125-8.53125 8.53125h-460.800782c-4.710937 0-8.53125-3.820313-8.53125-8.53125v-34.132813c0-4.714843 3.820313-8.535156 8.53125-8.535156zm0 0" fill="#02a9f4"/><path d="m307.199219 418.132812h136.535156v34.132813h-136.535156zm0 0" fill="#283593"/><path d="m290.132812 384h170.667969c9.425781 0 17.066407 7.640625 17.066407 17.066406 0 9.425782-7.640626 17.066406-17.066407 17.066406h-170.667969c-9.425781 0-17.066406-7.640624-17.066406-17.066406 0-9.425781 7.640625-17.066406 17.066406-17.066406zm0 0" fill="#4482c3"/><path d="m25.601562 418.132812h204.796876v34.132813h-204.796876zm0 0" fill="#283593"/><path d="m307.199219 418.132812h119.46875v34.132813h-119.46875zm0 0" fill="#3f51b5"/><path d="m25.601562 418.132812h187.730469v34.132813h-187.730469zm0 0" fill="#3f51b5"/><path d="m85.332031 162.132812h17.066407c4.714843 0 8.535156 3.820313 8.535156 8.535157v17.066406c0 4.710937-3.820313 8.53125-8.535156 8.53125h-17.066407c-4.710937 0-8.53125-3.820313-8.53125-8.53125v-17.066406c0-4.714844 3.820313-8.535157 8.53125-8.535157zm0 0" fill="#f44335"/><path d="m153.601562 162.132812h17.066407c4.710937 0 8.53125 3.820313 8.53125 8.535157v17.066406c0 4.710937-3.820313 8.53125-8.53125 8.53125h-17.066407c-4.714843 0-8.535156-3.820313-8.535156-8.53125v-17.066406c0-4.714844 3.820313-8.535157 8.535156-8.535157zm0 0" fill="#ffeb3a"/><path d="m375.464844 324.265625v59.734375h-76.796875v-59.734375c.027343-9.414063 7.652343-17.039063 17.066406-17.066406h42.664063c9.414062.027343 17.039062 7.652343 17.066406 17.066406zm0 0" fill="#9e9e9e"/><path d="m358.398438 324.265625v59.734375h-59.730469v-59.734375c.027343-9.414063 7.652343-17.039063 17.066406-17.066406h25.597656c9.414063.027343 17.039063 7.652343 17.066407 17.066406zm0 0" fill="#cfd8dc"/><path d="m426.667969 349.867188h17.066406c4.710937 0 8.53125 3.820312 8.53125 8.53125v25.601562h-34.132813v-25.601562c0-4.710938 3.820313-8.53125 8.535157-8.53125zm0 0" fill="#424242"/><path d="m93.867188 332.800781c0 4.710938-3.820313 8.53125-8.535157 8.53125-4.710937 0-8.53125-3.820312-8.53125-8.53125 0-4.714843 3.820313-8.535156 8.53125-8.535156 4.714844 0 8.535157 3.820313 8.535157 8.535156zm0 0"/><path d="m136.535156 332.800781c0 4.710938-3.824218 8.53125-8.535156 8.53125s-8.535156-3.820312-8.535156-8.53125c0-4.714843 3.824218-8.535156 8.535156-8.535156s8.535156 3.820313 8.535156 8.535156zm0 0"/><path d="m179.199219 332.800781c0 4.710938-3.820313 8.53125-8.53125 8.53125-4.714844 0-8.535157-3.820312-8.535157-8.53125 0-4.714843 3.820313-8.535156 8.535157-8.535156 4.710937 0 8.53125 3.820313 8.53125 8.535156zm0 0"/><path d="m435.199219 51.199219c0 4.714843-3.820313 8.535156-8.53125 8.535156-4.714844 0-8.535157-3.820313-8.535157-8.535156 0-4.710938 3.820313-8.53125 8.535157-8.53125 4.710937 0 8.53125 3.820312 8.53125 8.53125zm0 0"/><path d="m119.464844 187.734375v-17.066406c0-9.425781-7.640625-17.066407-17.066406-17.066407h-17.066407c-9.425781 0-17.066406 7.640626-17.066406 17.066407v17.066406c0 9.425781 7.640625 17.066406 17.066406 17.066406h17.066407c9.425781 0 17.066406-7.640625 17.066406-17.066406zm-34.132813 0v-17.066406h17.066407v17.066406zm0 0"/><path d="m187.734375 187.734375v-17.066406c0-9.425781-7.640625-17.066407-17.066406-17.066407h-17.066407c-9.425781 0-17.066406 7.640626-17.066406 17.066407v17.066406c0 9.425781 7.640625 17.066406 17.066406 17.066406h17.066407c9.425781 0 17.066406-7.640625 17.066406-17.066406zm-34.132813-17.066406h17.066407v17.066406h-17.066407zm0 0"/><path d="m136.535156 247.464844v-17.066406c0-4.710938-3.824218-8.53125-8.535156-8.53125s-8.535156 3.820312-8.535156 8.53125v17.066406c-4.710938 0-8.53125 3.824218-8.53125 8.535156 0 4.714844 3.820312 8.535156 8.53125 8.535156 0 4.710938 3.824218 8.53125 8.535156 8.53125s8.535156-3.820312 8.535156-8.53125c4.710938 0 8.53125-3.820312 8.53125-8.535156 0-4.710938-3.820312-8.535156-8.53125-8.535156zm0 0"/><path d="m187.734375 230.398438c0-4.710938-3.820313-8.53125-8.535156-8.53125-4.710938 0-8.53125 3.820312-8.53125 8.53125-4.714844 0-8.535157 3.820312-8.535157 8.535156 0 4.710937 3.820313 8.53125 8.535157 8.53125v17.070312c0 4.710938 3.820312 8.53125 8.53125 8.53125 4.714843 0 8.535156-3.820312 8.535156-8.53125v-17.070312c4.710937 0 8.53125-3.820313 8.53125-8.53125 0-4.714844-3.820313-8.535156-8.53125-8.535156zm0 0"/><path d="m85.332031 230.398438c0-4.710938-3.820312-8.53125-8.53125-8.53125-4.714843 0-8.535156 3.820312-8.535156 8.53125-4.710937 0-8.53125 3.820312-8.53125 8.535156 0 4.710937 3.820313 8.53125 8.53125 8.53125v17.070312c0 4.710938 3.820313 8.53125 8.535156 8.53125 4.710938 0 8.53125-3.820312 8.53125-8.53125v-17.070312c4.714844 0 8.535157-3.820313 8.535157-8.53125 0-4.714844-3.820313-8.535156-8.535157-8.535156zm0 0"/><path d="m486.398438 8.535156h-31.488282c-17.109375-11.378906-39.378906-11.378906-56.488281 0h-372.820313c-6.792968 0-13.300781 2.695313-18.101562 7.496094-4.804688 4.800781-7.5 11.3125-7.5 18.101562v34.132813c0 14.140625 11.460938 25.601563 25.601562 25.601563h17.066407v17.066406c-9.425781 0-17.066407 7.640625-17.066407 17.066406v162.132812c0 9.425782 7.640626 17.066407 17.066407 17.066407v51.199219c-3.675781 0-6.9375 2.351562-8.097657 5.839843l-17.070312 51.199219c-.246094.796875-.378906 1.628906-.390625 2.464844v.230468 25.601563c-9.425781 0-17.0664062 7.640625-17.0664062 17.066406v34.132813c0 9.425781 7.6406252 17.066406 17.0664062 17.066406h477.824219c9.425781 0 17.066406-7.640625 17.066406-17.066406v-34.132813c0-9.425781-7.640625-17.066406-17.066406-17.066406h-42.667969v-17.066406h8.535156c14.136719 0 25.597657-11.460938 25.597657-25.601563 0-14.136718-11.460938-25.601562-25.597657-25.601562v-25.597656c0-9.425782-7.640625-17.066407-17.066406-17.066407h-17.066406c-9.425781 0-17.066407 7.640625-17.066407 17.066407v25.597656h-25.601562v-51.199219c0-14.136719-11.460938-25.597656-25.601562-25.597656h-42.664063c-14.140625 0-25.601563 11.460937-25.601563 25.597656v51.199219c-14.136718 0-25.597656 11.464844-25.597656 25.601562 0 14.140625 11.460938 25.601563 25.597656 25.601563h8.535157v17.066406h-59.734375v-25.601563c0-.085937 0-.144531 0-.230468-.011719-.835938-.144532-1.667969-.394532-2.464844l-17.066406-51.199219c-1.164062-3.503906-4.449218-5.859375-8.140625-5.839843v-51.199219c9.425781 0 17.066407-7.640625 17.066407-17.066407v-162.132812c0-9.425781-7.640626-17.066406-17.066407-17.066406v-17.066406h179.3125c-.066406.246093-.117187.492187-.152343.742187v29.011719c-3.640626.035156-6.855469 2.371094-8.015626 5.820312l-4.820312 14.457032c-.058594.058593-.136719.074218-.195312.136718l-30.636719 30.632813c-4.796875 4.789062-7.492188 11.285156-7.492188 18.0625 0 6.777343 2.695313 13.273437 7.492188 18.058593l31.652343 31.660157c4.875 4.902343 12.226563 6.378906 18.617188 3.738281 6.386719-2.640625 10.554688-8.875 10.550781-15.789062v-27.730469c-.003906-2.265625-.902343-4.433594-2.503906-6.035157l-3.949219-3.949218 9.386719-9.386719h28.59375l8.960937 8.960937-4.378906 4.382813c-1.597656 1.601563-2.496094 3.773437-2.5 6.035156v27.722657c-.011718 6.890624 4.144532 13.101562 10.515625 15.71875 6.394531 2.660156 13.757813 1.1875 18.644531-3.71875l32.09375-32.085938c9.949219-9.988281 9.949219-26.140625 0-36.128906l-30.207031-30.199219c-.40625-.328125-.839843-.613281-1.296875-.855469l-4.574218-13.730468c-1.136719-3.285157-4.15625-5.554688-7.628907-5.734376v-29.796874h25.597657c14.140624 0 25.601562-11.460938 25.601562-25.601563v-34.132813c0-14.136718-11.460938-25.597656-25.601562-25.597656zm-59.730469 341.332032h17.066406v17.066406h-17.066406zm34.132812-298.667969c0 18.851562-15.28125 34.132812-34.132812 34.132812-18.851563 0-34.132813-15.28125-34.132813-34.132812 0-18.851563 15.28125-34.132813 34.132813-34.132813 18.851562 0 34.132812 15.28125 34.132812 34.132813zm-12.535156 115.054687h-43.625l-10.835937-10.835937.425781-1.28125.050781-.167969 4.449219-13.3125h55.464843l4.921876 14.761719zm-38.707031-42.664062v-24.195313c11.039062 3.996094 23.132812 3.996094 34.175781 0v24.175781zm-392.492188-55.324219v-34.132813c0-4.710937 3.820313-8.53125 8.535156-8.53125h356.792969c-9.238281 15.816407-9.238281 35.382813 0 51.199219h-356.792969c-4.714843 0-8.535156-3.820312-8.535156-8.535156zm477.867188 426.667969h-477.867188v-34.132813h477.867188zm-187.734375-170.667969c0-4.710937 3.820312-8.53125 8.535156-8.53125h42.664063c4.714843 0 8.535156 3.820313 8.535156 8.53125v51.199219h-59.734375zm-25.597657 76.800781c0-4.710937 3.820313-8.53125 8.53125-8.53125h170.667969c4.710938 0 8.53125 3.820313 8.53125 8.53125 0 4.714844-3.820312 8.535156-8.53125 8.535156h-170.667969c-4.710937 0-8.53125-3.820312-8.53125-8.535156zm34.132813 25.601563h119.464844v17.066406h-119.464844zm-281.601563 17.066406v-17.066406h187.734376v17.066406zm184.429688-34.132813h-181.125l11.382812-34.136718h158.359376zm-22.296875-51.203124h-136.53125v-51.199219h136.53125zm17.066406-68.265626h-170.664062v-162.132812h170.664062zm-17.066406-179.199218h-136.53125v-17.066406h136.53125zm196.269531 119.464844-31.660156-31.65625c-1.59375-1.585938-2.492188-3.746094-2.492188-5.996094s.898438-4.40625 2.492188-5.992188l20.035156-20.039062 12.085938 12.074218-4.941406 4.941407c-4.957032 4.992187-4.957032 13.046875 0 18.039062l4.488281 4.5zm99.890625-32.082032-32.09375 32.082032v-24.164063l4.929688-4.933594c4.953125-4.988281 4.953125-13.039062 0-18.03125l-4.929688-4.941406 12.082031-12.074219 20.035157 20.027344c3.285156 3.328125 3.28125 8.675781-.007813 12zm2.507813-130.050781c0 4.714844-3.820313 8.535156-8.535156 8.535156h-15.460938c9.238281-15.816406 9.238281-35.382812 0-51.199219h15.460938c4.714843 0 8.535156 3.820313 8.535156 8.53125zm0 0"/><path d="m68.265625 51.199219c0-4.710938-3.820313-8.53125-8.53125-8.53125h-17.066406c-4.714844 0-8.535157 3.820312-8.535157 8.53125 0 4.714843 3.820313 8.535156 8.535157 8.535156h17.066406c4.710937 0 8.53125-3.820313 8.53125-8.535156zm0 0"/><path d="m93.867188 59.734375h93.867187c4.710937 0 8.53125-3.820313 8.53125-8.535156 0-4.710938-3.820313-8.53125-8.53125-8.53125h-93.867187c-4.714844 0-8.535157 3.820312-8.535157 8.53125 0 4.714843 3.820313 8.535156 8.535157 8.535156zm0 0"/></svg>