<svg height="512pt" viewBox="0 0 512 512.00009" width="512pt" xmlns="http://www.w3.org/2000/svg"><path d="m34.09375 349.867188h145.066406v59.734374h-145.066406zm0 0" fill="#37474f"/><path d="m34.09375 426.667969h145.066406v51.199219h-145.066406zm0 0" fill="#37474f"/><path d="m38.359375 349.867188h123.734375v59.734374h-123.734375zm0 0" fill="#607d8b"/><path d="m38.359375 426.667969h123.734375v51.199219h-123.734375zm0 0" fill="#607d8b"/><path d="m216.707031 366.933594h-191.148437c-4.710938 0-8.53125-3.820313-8.53125-8.535156v-42.664063c0-28.277344 22.921875-51.199219 51.199218-51.199219h68.523438zm0 0" fill="#f57c00"/><path d="m186.839844 366.933594h-157.011719c-4.714844 0-8.535156-3.820313-8.535156-8.535156v-42.664063c0-28.277344 22.921875-51.199219 51.199219-51.199219h42.921874zm0 0" fill="#f29c1f"/><path d="m290.09375 273.066406-85.335938 85.332032-8.957031-12.371094-170.242187-235.09375.429687-.425782 71.679688-72.449218 12.285156-12.457032 11.691406 16.042969.171875.167969.085938.171875 50.175781 68.949219 77.738281 106.75zm0 0" fill="#f57c00"/><path d="m268.757812 273.066406-72.957031 72.960938-170.242187-235.09375.429687-.425782 71.679688-72.449218 2.644531 3.585937.171875.167969.082031.171875 50.175782 68.949219 77.742187 106.75zm0 0" fill="#ff9801"/><path d="m127.960938 68.265625c-.042969 32.972656-26.761719 59.691406-59.734376 59.734375-2.742187.019531-5.480468-.179688-8.191406-.597656-29.453125-4.058594-51.429687-29.175782-51.535156-58.90625-.109375-29.734375 21.683594-55.007813 51.109375-59.28125 2.84375-.484375 5.730469-.710938 8.617187-.679688 15.617188-.042968 30.613282 6.09375 41.726563 17.066406 4.824219 4.605469 8.785156 10.039063 11.691406 16.042969l.171875.167969.085938.171875c3.984375 8.1875 6.054687 17.175781 6.058594 26.28125zm0 0" fill="#37474f"/><path d="m110.894531 68.265625c.015625 10.425781-2.722656 20.671875-7.9375 29.695313-9.0625 15.851562-24.871093 26.695312-42.921875 29.441406-29.453125-4.058594-51.429687-29.175782-51.535156-58.90625-.109375-29.734375 21.683594-55.007813 51.109375-59.28125 12.574219 1.707031 24.257813 7.457031 33.277344 16.386718 4.824219 4.605469 8.785156 10.039063 11.691406 16.042969l.171875.167969.085938.171875c3.984374 8.1875 6.054687 17.175781 6.058593 26.28125zm0 0" fill="#607d8b"/><path d="m469.804688 237.910156c-11.527344 8.207032-27.523438 5.535156-35.753907-5.972656l-34.558593-48.726562c-2.71875-3.867188-1.804688-9.203126 2.046874-11.945313l21.246094-15.019531 6.570313-4.695313c1.832031-1.316406 4.113281-1.851562 6.339843-1.480469 2.226563.367188 4.214844 1.605469 5.523438 3.445313l34.644531 48.722656c8.167969 11.527344 5.457031 27.488281-6.058593 35.671875zm0 0" fill="#ffb301"/><path d="m452.738281 242.175781c-.179687.144531-.382812.261719-.597656.339844-7.261719-.78125-13.847656-4.632813-18.089844-10.578125l-34.558593-48.726562c-2.71875-3.867188-1.804688-9.203126 2.046874-11.945313l21.246094-15.019531c.519532.449218.980469.964844 1.367188 1.535156l34.644531 48.726562c8.167969 11.523438 5.457031 27.484376-6.058594 35.667969zm0 0" fill="#fec108"/><path d="m190.9375 503.464844h-168.621094c-2.972656.023437-5.742187-1.503906-7.308594-4.03125-1.566406-2.527344-1.707031-5.683594-.371093-8.339844l6.230469-12.289062c2.882812-5.800782 8.796874-9.46875 15.273437-9.472657h140.972656c6.476563.003907 12.390625 3.671875 15.273438 9.472657l6.230469 12.289062c1.335937 2.65625 1.195312 5.8125-.371094 8.339844s-4.335938 4.054687-7.308594 4.03125zm0 0" fill="#f57c00"/><path d="m169.601562 503.464844h-147.285156c-2.972656.023437-5.742187-1.503906-7.308594-4.03125-1.566406-2.527344-1.707031-5.683594-.371093-8.339844l6.230469-12.289062c2.882812-5.800782 8.796874-9.46875 15.273437-9.472657h119.636719c6.476562.003907 12.394531 3.671875 15.277344 9.472657l6.226562 12.289062c1.339844 2.65625 1.199219 5.8125-.367188 8.339844-1.570312 2.527344-4.339843 4.054687-7.3125 4.03125zm0 0" fill="#f29c1f"/><path d="m34.09375 401.066406h145.066406v34.132813h-145.066406zm0 0" fill="#9e9e9e"/><path d="m38.359375 401.066406h123.734375v34.132813h-123.734375zm0 0" fill="#cfd8dc"/><path d="m85.292969 315.734375c0 9.425781-7.640625 17.066406-17.066407 17.066406-9.425781 0-17.066406-7.640625-17.066406-17.066406s7.640625-17.066406 17.066406-17.066406c9.425782 0 17.066407 7.640625 17.066407 17.066406zm0 0" fill="#f57c00"/><path d="m85.292969 68.265625c0 9.425781-7.640625 17.066406-17.066407 17.066406-9.425781 0-17.066406-7.640625-17.066406-17.066406s7.640625-17.066406 17.066406-17.066406c9.425782 0 17.066407 7.640625 17.066407 17.066406zm0 0" fill="#cfd8dc"/><path d="m196.226562 25.601562v85.332032h-24.148437l-1.453125-1.960938-48.722656-66.988281-.085938-.171875-.171875-.167969c-2.90625-6.003906-6.867187-11.4375-11.691406-16.042969zm0 0" fill="#ffb301"/><path d="m170.625 25.601562v83.371094l-48.722656-66.988281-.085938-.171875-.171875-.167969c-2.90625-6.003906-6.867187-11.4375-11.691406-16.042969zm0 0" fill="#fec108"/><path d="m221.828125 34.132812v68.265626c0 4.714843-3.820313 8.535156-8.535156 8.535156h-25.601563v-85.332032h25.601563c4.714843 0 8.535156 3.820313 8.535156 8.53125zm0 0" fill="#f57c00"/><path d="m204.757812 34.132812v68.265626c0 4.714843-3.820312 8.535156-8.53125 8.535156h-8.535156v-85.332032h8.535156c4.710938 0 8.53125 3.820313 8.53125 8.53125zm0 0" fill="#ff9801"/><path d="m221.828125 51.199219h34.132813v34.132812h-34.132813zm0 0" fill="#cfd8dc"/><path d="m349.828125 42.667969v51.199219h-84.480469c-4.945312.222656-9.140625-3.589844-9.386718-8.535157v-34.132812c.246093-4.941407 4.441406-8.753907 9.386718-8.53125zm0 0" fill="#ffb301"/><path d="m324.226562 42.667969v51.199219h-58.878906c-4.945312.222656-9.140625-3.589844-9.386718-8.535157v-34.132812c.246093-4.941407 4.441406-8.753907 9.386718-8.53125zm0 0" fill="#fec108"/><path d="m375.425781 51.199219v34.132812c0 4.714844-3.820312 8.535157-8.53125 8.535157h-25.601562v-51.199219h25.601562c4.710938 0 8.53125 3.820312 8.53125 8.53125zm0 0" fill="#f57c00"/><path d="m358.359375 51.199219v34.132812c0 4.714844-3.820313 8.535157-8.53125 8.535157h-8.535156v-51.199219h8.535156c4.710937 0 8.53125 3.820312 8.53125 8.53125zm0 0" fill="#ff9801"/><path d="m423.46875 51.199219-.253906 34.132812h-47.789063v-34.132812zm0 0" fill="#9e9e9e"/><path d="m397.867188 51.199219-.253907 34.132812h-22.1875v-34.132812zm0 0" fill="#cfd8dc"/><path d="m478.167969 74.324219-41.726563 29.613281-9.21875-12.886719-5.632812-7.9375c-8.179688-11.550781-5.46875-27.542969 6.0625-35.753906 2.605468-1.863281 5.566406-3.171875 8.703125-3.839844 1.964843-.582031 4.007812-.867187 6.058593-.851562 8.296876-.003907 16.082032 4 20.90625 10.75zm0 0" fill="#ffb301"/><path d="m461.101562 78.59375-29.609374 20.992188-5.632813-7.9375c-8.191406-11.519532-11.460937-32.257813.058594-40.449219 2.730469-1.875 5.8125-7.933594 8.882812-8.53125 4.140625 4.75 7.964844 9.769531 11.453125 15.015625zm0 0" fill="#fec108"/><path d="m490.96875 107.09375-34.730469 24.660156-.257812-.339844-19.539063-27.476562 29.183594-20.738281 12.542969-8.875 14.847656 20.824219c2.714844 3.867187 1.800781 9.203124-2.046875 11.945312zm0 0" fill="#f57c00"/><path d="m478.167969 115.625-22.1875 15.789062-19.539063-27.476562 29.183594-20.738281 14.589844 20.480469c2.714844 3.867187 1.800781 9.203124-2.046875 11.945312zm0 0" fill="#ff9801"/><path d="m307.160156 315.734375c0 32.988281-26.742187 59.730469-59.734375 59.730469-2.914062.035156-5.828125-.191406-8.703125-.679688-7.800781-1.074218-15.296875-3.746094-22.015625-7.851562-5.878906-3.511719-11.105469-8.015625-15.445312-13.3125-1.601563-1.957032-3.085938-4.007813-4.4375-6.144532-8.519531-13.59375-11.214844-30.042968-7.472657-45.644531 3.738282-15.601562 13.597657-29.042969 27.355469-37.296875 6.71875-4.105468 14.214844-6.78125 22.015625-7.851562 2.875-.488282 5.789063-.71875 8.703125-.683594 15.84375 0 31.035157 6.292969 42.238281 17.496094 11.203126 11.203125 17.496094 26.394531 17.496094 42.238281zm0 0" fill="#37474f"/><path d="m290.09375 315.734375c.082031 29.769531-21.875 55.011719-51.371094 59.050781-7.800781-1.074218-15.296875-3.746094-22.015625-7.851562-5.878906-3.511719-11.105469-8.015625-15.445312-13.3125-1.601563-1.957032-3.085938-4.007813-4.4375-6.144532-8.519531-13.59375-11.214844-30.042968-7.472657-45.644531 3.738282-15.601562 13.597657-29.042969 27.355469-37.296875 6.71875-4.105468 14.214844-6.78125 22.015625-7.851562 29.496094 4.039062 51.453125 29.277344 51.371094 59.050781zm0 0" fill="#607d8b"/><path d="m264.492188 315.734375c0 9.425781-7.640626 17.066406-17.066407 17.066406s-17.066406-7.640625-17.066406-17.066406 7.640625-17.066406 17.066406-17.066406 17.066407 7.640625 17.066407 17.066406zm0 0" fill="#cfd8dc"/><path d="m68.226562 290.132812c-14.136718 0-25.601562 11.460938-25.601562 25.601563 0 14.136719 11.464844 25.597656 25.601562 25.597656 14.136719 0 25.601563-11.460937 25.601563-25.597656 0-14.140625-11.464844-25.601563-25.601563-25.601563zm0 34.132813c-4.714843 0-8.535156-3.820313-8.535156-8.53125 0-4.714844 3.820313-8.535156 8.535156-8.535156 4.710938 0 8.53125 3.820312 8.53125 8.535156 0 4.710937-3.820312 8.53125-8.53125 8.53125zm0 0"/><path d="m247.425781 290.132812c-14.136719 0-25.597656 11.460938-25.597656 25.601563 0 14.136719 11.460937 25.597656 25.597656 25.597656 14.140625 0 25.601563-11.460937 25.601563-25.597656 0-14.140625-11.460938-25.601563-25.601563-25.601563zm0 34.132813c-4.710937 0-8.53125-3.820313-8.53125-8.53125 0-4.714844 3.820313-8.535156 8.53125-8.535156 4.714844 0 8.535157 3.820312 8.535157 8.535156 0 4.710937-3.820313 8.53125-8.535157 8.53125zm0 0"/><path d="m68.226562 93.867188c14.136719 0 25.601563-11.460938 25.601563-25.601563 0-14.136719-11.464844-25.597656-25.601563-25.597656-14.136718 0-25.601562 11.460937-25.601562 25.597656 0 14.140625 11.464844 25.601563 25.601562 25.601563zm0-34.132813c4.710938 0 8.53125 3.820313 8.53125 8.53125 0 4.714844-3.820312 8.535156-8.53125 8.535156-4.714843 0-8.535156-3.820312-8.535156-8.535156 0-4.710937 3.820313-8.53125 8.535156-8.53125zm0 0"/><path d="m18.648438 115.941406 101.417968 140.058594h-51.839844c-32.972656.039062-59.695312 26.757812-59.734374 59.734375v42.664063c0 9.425781 7.640624 17.066406 17.066406 17.066406v87.597656c-5.363282 2.417969-9.722656 6.617188-12.347656 11.886719l-6.175782 12.347656c-2.648437 5.289063-2.367187 11.574219.742188 16.609375 3.109375 5.03125 8.605468 8.09375 14.523437 8.09375h168.652344c5.929687.007812 11.4375-3.058594 14.550781-8.105469 3.113282-5.046875 3.382813-11.347656.714844-16.640625l-6.179688-12.347656c-2.628906-5.253906-6.988281-9.4375-12.347656-11.84375v-87.597656h26.976563c10.019531 5.582031 21.292969 8.515625 32.757812 8.535156 27.035157.035156 51.53125-15.914062 62.441407-40.648438 10.90625-24.738281 6.160156-53.582031-12.09375-73.519531-.210938-.628906-.496094-1.226562-.855469-1.78125l-108.074219-148.585937h32.984375c4.710937 0 8.53125-3.820313 8.53125-8.53125v-17.066406h17.066406c0 4.710937 3.820313 8.53125 8.535157 8.53125h119.464843c4.714844 0 8.535157-3.820313 8.535157-8.53125h34.832031l10.675781 15.035156 14.8125 20.863281-34.722656 24.6875-13.917969 9.890625c-7.679687 5.457031-9.480469 16.109375-4.027344 23.789062l34.59375 48.703126c8.964844 12.722656 25.453125 17.6875 39.953125 12.03125l30.347656 42.664062c2.769532 3.71875 8 4.542969 11.78125 1.855469 3.777344-2.683594 4.722657-7.894531 2.125-11.734375l-30.351562-42.726563c10.003906-11.863281 10.75-28.984375 1.808594-41.667969l-34.601563-48.691406 34.773438-24.746094 13.910156-9.890624c7.679687-5.457032 9.488281-16.105469 4.035156-23.792969l-29.6875-41.632813c-10.917969-15.367187-32.222656-18.976562-47.589843-8.0625-.890626.695313-1.746094 1.441406-2.5625 2.226563h-36.1875c0-4.714844-3.820313-8.535157-8.535157-8.535157h-119.464843c-4.714844 0-8.535157 3.820313-8.535157 8.535157h-17.066406v-17.066407c0-4.714843-3.820313-8.535156-8.53125-8.535156h-108.632813c-12.386718-11.015625-28.390624-17.0898435-44.96875-17.066406-27.03125-.03125-51.523437 15.917969-62.429687 40.648438-10.90625 24.730468-6.167969 53.570312 12.082031 73.511718.183594.621094.441406 1.222656.769532 1.78125zm157.773437-13.542968-47.609375-65.476563c-.484375-.972656-1.167969-1.839844-1.707031-2.789063h52.054687v68.265626zm-40.421875-26.570313 29.164062 40.105469 96.921876 133.121094c-17.007813-3.800782-34.828126-.898438-49.75 8.105468h-.042969c-18.433594 11.171875-30.527344 30.378906-32.636719 51.832032l-126.21875-174.121094c18.90625 4.230468 38.722656.207031 54.484375-11.0625 15.757813-11.269532 25.96875-28.722656 28.078125-47.980469zm-93.375 367.90625h128v17.066406h-128zm128-17.066406h-128v-17.066407h128zm-148.324219 68.265625 6.175781-12.347656c1.4375-2.898438 4.394532-4.730469 7.628907-4.71875h141.039062c3.234375-.011719 6.195313 1.820312 7.628907 4.71875l6.222656 12.347656zm148.324219-102.398438h-128v-17.070312h128zm8.535156-34.136718h-153.601562v-42.664063c.03125-23.554687 19.117187-42.640625 42.667968-42.667969h64.203126l57.175781 79c1.386719 2.191406 2.890625 4.300782 4.503906 6.324219zm68.265625 8.535156c-9.261719.03125-18.355469-2.492188-26.28125-7.289063h-.042969c-4.914062-2.9375-9.296874-6.6875-12.953124-11.09375l-4.269532-5.835937c-7.210937-11.640625-9.449218-25.683594-6.21875-38.988282 3.234375-13.308593 11.667969-24.761718 23.414063-31.792968 7.933593-4.847656 17.054687-7.410156 26.351562-7.398438 28.277344 0 51.199219 22.921875 51.199219 51.199219s-22.921875 51.199219-51.199219 51.199219zm220.492188-159.726563c5.464843 7.683594 3.660156 18.339844-4.023438 23.804688-7.683593 5.460937-18.339843 3.660156-23.800781-4.023438l-34.605469-48.703125 13.910157-9.878906 13.910156-9.882812zm18.132812-107.09375-19.191406 13.652344-8.660156 6.128906-9.882813-13.917969 27.847656-19.789062 9.886719 13.898438zm-43.605469-48.914062c.964844 0 1.925782.082031 2.878907.238281 4.480469.734375 8.476562 3.238281 11.09375 6.949219l9.886719 13.90625-27.816407 19.773437-9.917969-13.917968c-3.691406-5.199219-4.175781-12.023438-1.257812-17.695313 2.921875-5.667969 8.757812-9.238281 15.132812-9.253906zm-32.84375 8.535156c-1.457031 5.59375-1.472656 11.464844-.042968 17.066406h-25.597656v-17.066406zm-42.707031 25.597656h-17.066406v-34.132812h17.066406zm-34.136719-34.132812v34.132812h-68.265624v-34.132812zm-85.332031 8.535156v17.066406h-17.066406v-17.066406zm-34.132812-8.535156v51.199219h-17.066407v-68.265626h17.066407zm-145.066407-34.132813c13.195313-.023437 25.875 5.097656 35.351563 14.277344l10.96875 15.042969c7.464844 15.867187 6.296875 34.449219-3.089844 49.261719s-25.695312 23.796874-43.230469 23.816406c-28.277343 0-51.199218-22.921875-51.199218-51.199219s22.921875-51.199219 51.199218-51.199219zm0 0"/><path d="m149.207031 152.804688c1.609375 2.21875 4.183594 3.53125 6.921875 3.527343 1.792969.003907 3.542969-.566406 4.992188-1.621093 1.839844-1.328126 3.078125-3.335938 3.4375-5.578126.359375-2.242187-.191406-4.535156-1.527344-6.371093l-13.480469-18.601563c-2.769531-3.816406-8.105469-4.667968-11.921875-1.902344-3.816406 2.765626-4.671875 8.101563-1.902344 11.921876zm0 0"/><path d="m206.039062 231.296875c1.742188 2.582031 4.753907 4.011719 7.855469 3.730469 3.101563-.285156 5.804688-2.238282 7.046875-5.09375 1.242188-2.859375.828125-6.167969-1.078125-8.628906l-33.960937-46.933594c-1.742188-2.585938-4.753906-4.015625-7.855469-3.730469-3.105469.285156-5.804687 2.238281-7.046875 5.09375s-.832031 6.164063 1.078125 8.628906zm0 0"/></svg>