<svg height="512pt" viewBox="-10 0 512 512.00323" width="512pt" xmlns="http://www.w3.org/2000/svg"><path d="m375.46875 384.003906h34.132812v25.597656c0 9.425782-7.640624 17.066407-17.066406 17.066407-9.425781 0-17.066406-7.640625-17.066406-17.066407zm0 0" fill="#ffeb3a"/><path d="m443.734375 384.003906h34.132813v25.597656c0 9.425782-7.640626 17.066407-17.066407 17.066407s-17.066406-7.640625-17.066406-17.066407zm0 0" fill="#ffeb3a"/><path d="m42.667969 247.46875c0 9.425781-7.640625 17.066406-17.066407 17.066406-9.425781 0-17.066406-7.640625-17.066406-17.066406s7.640625-17.066406 17.066406-17.066406c9.425782 0 17.066407 7.640625 17.066407 17.066406zm0 0" fill="#424242"/><path d="m212.3125 302.9375-29.613281 51.199219c-1.53125 2.652343-4.363281 4.277343-7.421875 4.265625h-59.050782c-3.0625.011718-5.894531-1.613282-7.425781-4.265625l-29.523437-51.199219c-1.539063-2.636719-1.539063-5.898438 0-8.535156l14.589844-25.257813 1.195312-2.132812 109.824219 14.589843 7.425781 12.800782c1.535156 2.636718 1.535156 5.898437 0 8.535156zm0 0" fill="#ffb301"/><path d="m190.976562 302.9375-29.609374 51.199219c-1.53125 2.652343-4.363282 4.277343-7.425782 4.265625h-41.984375c-3.058593.011718-5.890625-1.613282-7.421875-4.265625l-29.527344-51.199219c-1.535156-2.636719-1.535156-5.898438 0-8.535156l14.59375-25.257813 93.953126 12.457031 7.421874 12.800782c1.539063 2.636718 1.539063 5.898437 0 8.535156zm0 0" fill="#fec108"/><path d="m252.589844 181.847656-28.84375 93.695313c-1.113282 3.59375-4.429688 6.050781-8.191406 6.058593h-24.234376c-1.277343.023438-2.535156-.269531-3.671874-.851562l-89.429688-42.753906c-.585938-.257813-1.132812-.601563-1.621094-1.023438l-58.109375-45.824218c-2.65625-2.074219-3.832031-5.523438-2.988281-8.789063l3.925781-15.699219 1.195313-4.78125c1.132812-4.566406 5.753906-7.355468 10.324218-6.226562l58.964844 14.761718c.671875.167969 1.359375.253907 2.046875.253907h65.625c1.050781.011719 2.097657-.191407 3.070313-.59375l10.921875-4.355469c.085937 0 .085937-.082031.171875 0l21.164062-8.53125c2.253906-.945312 4.8125-.851562 6.996094.253906l28.328125 14.253906c3.742187 1.859376 5.585937 6.160157 4.355469 10.152344zm0 0" fill="#f57c00"/><path d="m231.253906 190.382812-28.074218 91.21875h-11.859376c-1.277343.023438-2.535156-.269531-3.671874-.851562l-89.429688-42.753906c-.585938-.257813-1.132812-.601563-1.621094-1.023438l-58.109375-45.824218c-2.65625-2.074219-3.832031-5.523438-2.988281-8.789063l3.925781-24.234375 49.152344 8.023438c.683594.167968 1.363281 4.519531 2.046875 4.519531l65.621094 4.269531c1.023437 0 2.132812 4.09375 3.15625 3.667969l21.25-8.53125 10.921875-4.355469c.085937 0 .085937-.082031.171875 0 2.199218-.941406 4.703125-.847656 6.828125.257812l28.328125 14.25c3.742187 1.863282 5.585937 6.160157 4.351562 10.15625zm0 0" fill="#ff9801"/><path d="m409.601562 256.003906h34.132813v76.800782h-34.132813zm0 0" fill="#cfd8dc"/><path d="m59.648438 65.359375-33.425782-16.820313c-4.203125-2.117187-5.902344-7.242187-3.785156-11.449218l7.679688-15.316406c2.113281-4.210938 7.238281-5.910157 11.449218-3.800782l33.441406 16.753906zm0 0" fill="#424242"/><path d="m409.261719 201.046875-16.554688 32.429687-20.480469-10.242187-38.828124-19.539063 15.445312-30.808593.855469-1.703125zm0 0" fill="#9e9e9e"/><path d="m387.925781 192.515625-15.699219 30.71875-38.828124-19.539063 15.445312-30.808593zm0 0" fill="#cfd8dc"/><path d="m76.800781 384.003906h136.535157v68.265625h-136.535157zm0 0" fill="#f57c00"/><path d="m76.800781 384.003906h119.46875v68.265625h-119.46875zm0 0" fill="#ff9801"/><path d="m238.933594 452.269531v25.601563h-187.730469v-25.601563c.027344-9.414062 7.652344-17.039062 17.066406-17.066406h153.597657c9.414062.027344 17.039062 7.652344 17.066406 17.066406zm0 0" fill="#ffb301"/><path d="m221.867188 452.269531v25.601563h-170.664063v-25.601563c.027344-9.414062 7.652344-17.039062 17.066406-17.066406h136.53125c9.414063.027344 17.039063 7.652344 17.066407 17.066406zm0 0" fill="#fec108"/><path d="m238.933594 375.46875c-.066406 9.398438-7.667969 17-17.066406 17.066406h-153.597657c-9.414062-.027344-17.039062-7.652344-17.066406-17.066406.066406-9.394531 7.667969-16.996094 17.066406-17.066406h153.597657c9.414062.027344 17.039062 7.652344 17.066406 17.066406zm0 0" fill="#37474f"/><path d="m221.867188 375.46875c-.070313 9.398438-7.667969 17-17.066407 17.066406h-136.53125c-9.414062-.027344-17.039062-7.652344-17.066406-17.066406.066406-9.394531 7.667969-16.996094 17.066406-17.066406h136.53125c9.414063.027344 17.039063 7.652344 17.066407 17.066406zm0 0" fill="#607d8b"/><path d="m264.535156 494.9375c0 4.710938-3.820312 8.53125-8.535156 8.53125h-221.863281c-4.714844 0-8.535157-3.820312-8.535157-8.53125 0-14.140625 11.460938-25.601562 25.601563-25.601562h187.730469c14.140625 0 25.601562 11.460937 25.601562 25.601562zm0 0" fill="#9e9e9e"/><path d="m243.203125 494.9375c0 4.710938-3.820313 8.53125-8.535156 8.53125h-200.53125c-4.714844 0-8.535157-3.820312-8.535157-8.53125 0-14.140625 11.460938-25.601562 25.601563-25.601562h166.398437c14.136719 0 25.601563 11.460937 25.601563 25.601562zm0 0" fill="#cfd8dc"/><path d="m196.269531 256.003906c0 28.277344-22.925781 51.199219-51.203125 51.199219-3.582031.023437-7.160156-.347656-10.664062-1.109375-23.667969-5.007812-40.601563-25.898438-40.601563-50.089844s16.933594-45.082031 40.601563-50.089844c3.503906-.761718 7.082031-1.136718 10.664062-1.109374 13.582032 0 26.605469 5.394531 36.207032 14.996093 9.601562 9.601563 14.996093 22.625 14.996093 36.203125zm0 0" fill="#37474f"/><path d="m179.203125 256.003906c0-27.664062-18.148437-50.089844-40.535156-50.089844s-40.53125 22.425782-40.53125 50.089844c0 27.664063 18.144531 50.089844 40.53125 50.089844s40.535156-22.425781 40.535156-50.089844zm0 0" fill="#607d8b"/><path d="m460.800781 230.402344c0 18.851562-15.28125 34.132812-34.132812 34.132812-2.882813.027344-5.753907-.347656-8.53125-1.109375-15.023438-3.925781-25.503907-17.496093-25.503907-33.023437s10.480469-29.097656 25.503907-33.023438c2.777343-.761718 5.648437-1.136718 8.53125-1.109375 18.851562 0 34.132812 15.28125 34.132812 34.132813zm0 0" fill="#37474f"/><path d="m443.734375 230.402344c0-18.238282-11.460937-33.023438-25.597656-33.023438-14.140625 0-25.601563 14.785156-25.601563 33.023438 0 18.238281 11.460938 33.023437 25.601563 33.023437 14.136719 0 25.597656-14.785156 25.597656-33.023437zm0 0" fill="#607d8b"/><path d="m162.136719 256.003906c0 9.425782-7.644531 17.066406-17.070313 17.066406-9.421875 0-17.066406-7.640624-17.066406-17.066406 0-9.425781 7.644531-17.066406 17.066406-17.066406 9.425782 0 17.070313 7.640625 17.070313 17.066406zm0 0" fill="#cfd8dc"/><path d="m469.335938 366.9375h-85.335938l6.914062-34.5625c.46875-4.332031 3.9375-7.726562 8.277344-8.105469h54.953125c4.34375.378907 7.808594 3.773438 8.277344 8.105469zm0 0" fill="#ffb301"/><path d="m452.269531 366.9375h-68.269531l6.914062-34.5625c.46875-4.332031 3.9375-7.726562 8.277344-8.105469h37.886719c4.34375.378907 7.808594 3.773438 8.277344 8.105469zm0 0" fill="#fec108"/><path d="m483.757812 368.984375-5.890624 23.550781h-102.398438l-5.886719-23.550781c-.632812-2.546875-.054687-5.238281 1.5625-7.304687 1.613281-2.066407 4.089844-3.273438 6.714844-3.277344h97.621094c2.621093.003906 5.097656 1.210937 6.714843 3.277344 1.613282 2.066406 2.191407 4.757812 1.5625 7.304687zm0 0" fill="#f57c00"/><path d="m466.691406 368.984375-5.890625 23.550781h-85.332031l-5.886719-23.550781c-.632812-2.546875-.054687-5.238281 1.5625-7.304687 1.613281-2.066407 4.089844-3.273438 6.714844-3.277344h80.554687c2.621094.003906 5.097657 1.210937 6.710938 3.277344 1.617188 2.066406 2.195312 4.757812 1.566406 7.304687zm0 0" fill="#ff9801"/><path d="m356.269531 175.023438-16.640625 33.023437c-.992187 2.039063-2.761718 3.59375-4.914062 4.316406-2.148438.722657-4.5.550781-6.519532-.476562l-271.191406-136.191407c-4.214844-2.101562-5.933594-7.21875-3.839844-11.4375l3.925782-7.679687.851562-1.707031 11.863282-23.636719c2.097656-4.214844 7.214843-5.933594 11.433593-3.839844l253.183594 127.148438 5.121094 2.558593 12.886719 6.484376c4.171874 2.136718 5.878906 7.214843 3.839843 11.4375zm0 0" fill="#f57c00"/><path d="m334.421875 158.808594-22.5 44.886718c-2.050781 4.265626-.855469-6.742187-5.0625-8.875l-253.183594-127.148437 16.128907-32.171875c2.097656-4.214844 7.214843-5.933594 11.433593-3.839844zm0 0" fill="#ff9801"/><path d="m435.203125 230.402344c0 4.714844-3.820313 8.535156-8.535156 8.535156-4.710938 0-8.53125-3.820312-8.53125-8.535156 0-4.710938 3.820312-8.53125 8.53125-8.53125 4.714843 0 8.535156 3.820312 8.535156 8.53125zm0 0"/><path d="m145.066406 230.402344c-14.136718 0-25.597656 11.460937-25.597656 25.601562 0 14.136719 11.460938 25.597656 25.597656 25.597656 14.140625 0 25.601563-11.460937 25.601563-25.597656 0-14.140625-11.460938-25.601562-25.601563-25.601562zm0 34.132812c-4.710937 0-8.53125-3.820312-8.53125-8.53125 0-4.714844 3.820313-8.535156 8.53125-8.535156 4.714844 0 8.535156 3.820312 8.535156 8.535156 0 4.710938-3.820312 8.53125-8.535156 8.53125zm0 0"/><path d="m25.601562 273.070312c5.144532.003907 10.171876-1.554687 14.414063-4.472656l34.40625 17.109375-5.011719 8.695313c-1.523437 2.640625-1.523437 5.894531 0 8.535156l27.085938 46.933594h-28.226563v-8.535156c0-4.710938-3.820312-8.53125-8.535156-8.53125-4.710937 0-8.53125 3.820312-8.53125 8.53125v15.191406c-7.914063 7.050781-10.636719 18.265625-6.84375 28.164062 3.789063 9.894532 13.308594 16.417969 23.910156 16.378906v25.597657c-14.140625 0-25.601562 11.464843-25.601562 25.601562v9.746094c-15.023438 3.878906-25.542969 17.402344-25.601563 32.921875 0 9.425781 7.644532 17.066406 17.070313 17.066406h221.863281c9.425781 0 17.066406-7.640625 17.066406-17.066406-.054687-15.519531-10.574218-29.042969-25.597656-32.921875v-9.746094c0-14.136719-11.460938-25.601562-25.601562-25.601562v-25.597657c10.601562.039063 20.121093-6.484374 23.910156-16.378906 3.792968-9.898437 1.070312-21.113281-6.84375-28.164062v-15.191406c0-4.710938-3.820313-8.53125-8.53125-8.53125-4.714844 0-8.535156 3.820312-8.535156 8.53125v8.535156h-26.84375l27.144531-46.933594c1.523437-2.640625 1.523437-5.894531 0-8.535156l-2.46875-4.265625h2.167969c3.75 0 7.058593-2.441407 8.160156-6.023438l29.867187-96.992187 65.277344 32.785156c1.195313.59375 2.507813.90625 3.839844.90625 3.226562-.003906 6.171875-1.820312 7.621093-4.703125l.503907-.988281 47.785156 23.996094c2.164063 10.070312 7.898437 19.023437 16.144531 25.199218v51.421875h-1.867187c-7.832031 0-14.660157 5.335938-16.554688 12.933594l-5.316406 21.257813c-5.152344.140624-9.964844 2.617187-13.078125 6.726562-3.117188 4.109375-4.195312 9.410156-2.9375 14.410156l5.621094 22.503906v24.566407c0 14.136719 11.460937 25.601562 25.601562 25.601562 14.136719 0 25.601563-11.464843 25.601563-25.601562v-17.066407h17.066406v17.066407c0 14.136719 11.460937 25.601562 25.597656 25.601562 14.140625 0 25.601563-11.464843 25.601563-25.601562v-24.566407l5.632812-22.503906c1.253906-5 .167969-10.300781-2.945312-14.410156-3.117188-4.109375-7.925782-6.582031-13.082032-6.726562l-5.316406-21.257813c-1.894531-7.597656-8.722656-12.933594-16.554687-12.933594h-1.867188v-51.421875c17.40625-12.980468 22.234375-36.996094 11.195313-55.695312-11.039063-18.699219-34.394532-26.074219-54.171875-17.105469l-48.28125-24.207031c1.777343-4.105469.054687-8.886719-3.933594-10.914063l-276.25-138.726562c-2.023437-1.015625-4.367187-1.183594-6.519531-.46875-.671875.269531-1.304688.628906-1.882813 1.066406l-34.628906-17.359375c-4.210937-2.109375-9.339844-.410156-11.453125 3.800781l-15.359375 30.546875c-2.121094 4.210938-.429687 9.339844 3.78125 11.460938l33.464844 16.835937-3.097657 6.167969c-1.015624 2.023438-1.1875 4.367188-.476562 6.515625.710938 2.152344 2.246094 3.929687 4.265625 4.945313l2.648437 1.324218-4.191406 21.332032c-2.140625 10.699218 2.601563 21.597656 11.886719 27.324218l-3.574219 16.90625-10.957031-2.742187c-4.574219-1.136719-9.203125 1.644531-10.34375 6.214843l-8.53125 34.132813c-.8125 3.253906.359375 6.683594 2.992187 8.761719l21.207032 16.71875-16.128906 12.226562c-2.671876-.96875-5.488282-1.476562-8.328126-1.507812-14.136718 0-25.601562 11.460937-25.601562 25.597656 0 14.140625 11.464844 25.601562 25.601562 25.601562zm119.464844 25.597657c-23.5625 0-42.664062-19.101563-42.664062-42.664063 0-23.566406 19.101562-42.667968 42.664062-42.667968 23.566406 0 42.667969 19.101562 42.667969 42.667968-.027344 23.550782-19.113281 42.636719-42.667969 42.664063zm110.933594 196.269531h-221.863281c0-9.425781 7.640625-17.066406 17.066406-17.066406h187.730469c9.417968.023437 17.042968 7.648437 17.066406 17.066406zm-25.597656-42.667969v8.535157h-170.667969v-8.535157c0-4.710937 3.820313-8.53125 8.535156-8.53125h153.597657c4.714843 0 8.535156 3.820313 8.535156 8.53125zm-25.601563-25.601562h-119.464843v-25.597657h119.464843zm25.601563-51.199219c0 4.714844-3.820313 8.535156-8.535156 8.535156h-153.597657c-4.714843 0-8.535156-3.820312-8.535156-8.535156 0-4.710938 3.820313-8.53125 8.535156-8.53125h153.597657c4.714843 0 8.535156 3.820312 8.535156 8.53125zm-25.472656-76.800781-29.628907 51.203125h-21.699219v-8.535156c0-4.710938-3.820312-8.53125-8.535156-8.53125-4.710937 0-8.53125 3.820312-8.53125 8.53125v8.535156h-20.335937l-29.550781-51.203125 7.082031-12.277344c10.308593 17.5 28.824219 28.542969 49.117187 29.300781 20.296875.757813 39.582032-8.875 51.167969-25.554687h5.972656zm148.53125-116.050781 40.78125 20.417968c-4.238282 4.976563-7.265626 10.863282-8.851563 17.203125l-40.566406-20.375zm122.019531 184.320312-4.269531 17.066406h-89.078126l-4.265624-17.066406zm-74.414063 51.199219c0 4.710937-3.820312 8.53125-8.53125 8.53125-4.714844 0-8.535156-3.820313-8.535156-8.53125v-17.066407h17.066406zm68.269532 0c0 4.710937-3.820313 8.53125-8.535157 8.53125-4.710937 0-8.53125-3.820313-8.53125-8.53125v-17.066407h17.066407zm-15.191407-85.332031 4.269531 17.066406h-63.480468l4.265625-17.066406zm-18.941406-17.066407h-17.066406v-43.523437c5.628906 1.152344 11.433593 1.152344 17.066406 0zm17.066406-85.335937c0 14.140625-11.460937 25.601562-25.601562 25.601562-14.136719 0-25.601563-11.460937-25.601563-25.601562 0-14.136719 11.464844-25.597656 25.601563-25.597656 14.140625 0 25.601562 11.460937 25.601562 25.597656zm-127.0625-29.585938-105.25-52.855468-.179687-.082032-155.5625-78.125 16.582031-32.996094 260.992187 131.0625zm-295.152343-165.519531 7.679687-15.308594 25.875 12.945313-7.679687 15.359375zm54.332031 63.691406-2.398438 11.949219c-.449219 2.351562-1.832031 4.417969-3.828125 5.734375-1.957031 1.28125-4.324218 1.78125-6.632812 1.398437-.195313-.058593-.382813-.121093-.589844-.160156-2.320312-.511718-4.34375-1.925781-5.625-3.929687-1.28125-2.003907-1.710938-4.433594-1.199219-6.757813l3.300781-16.765625zm-8.53125 36.0625c4.1875-.433593 8.210937-1.871093 11.722656-4.1875 5.78125-3.824219 9.777344-9.8125 11.09375-16.617187l1.46875-7.320313 95.488281 47.949219-18.066406 7.261719h-65.578125l-39.722656-9.933594zm-26.976563 28.902344 59.992188 14.992187c.675781.171876 1.367187.257813 2.0625.257813h68.269531c1.085937 0 2.164063-.203125 3.171875-.605469l33.683594-13.492187 28.371094 14.25-28.859376 93.714843h-13.285156c8.582032-28.644531-5.363281-59.21875-32.617187-71.515624-27.257813-12.296876-59.410157-2.515626-75.203125 22.875l-50.710938-39.976563zm38.546875 76.640625c-2.242187 8.070312-2.664062 16.539062-1.238281 24.796875l-3.171875 5.511719-32.933594-16.359375c2.121094-6.738281 1.1875-14.070313-2.558593-20.0625l16.367187-12.414063zm-61.824219-1.65625c4.710938 0 8.535157 3.820312 8.535157 8.53125 0 4.714844-3.824219 8.535156-8.535157 8.535156-4.710937 0-8.535156-3.820312-8.535156-8.535156 0-4.710938 3.824219-8.53125 8.535156-8.53125zm0 0"/></svg>