<svg height="504pt" viewBox="0 0 504.07968 504" width="504pt" xmlns="http://www.w3.org/2000/svg"><path d="m390.839844 254.804688-21.488282 20.144531-11.917968 11.917969c-3.140625 3.136718-4.90625 7.394531-4.90625 11.835937 0 4.4375 1.765625 8.695313 4.90625 11.832031l11.917968 11.917969 19.265626 19.1875c2.390624 2.410156 5.996093 3.144531 9.136718 1.859375 3.144532-1.285156 5.199219-4.339844 5.214844-7.734375v-27.277344l-6.882812-6.882812c-1.597657-1.632813-1.597657-4.242188 0-5.875l10.28125-10.324219zm0 0" fill="#bdc3c7"/><path d="m388.019531 299.480469h9.796875v36.371093h-9.796875zm0 0" fill="#9e9e9e"/><path d="m444.9375 251.832031h-41.96875l-.082031-62.699219v-.417968l41.964843.167968zm0 0" fill="#9e9e9e"/><path d="m428.148438 251.832031h-25.179688l-.082031-62.699219v-.335937l25.179687.085937zm0 0" fill="#cfd8dc"/><path d="m75.539062 344.160156v63.035156l-33.570312 4.113282v-67.148438zm0 0" fill="#ffb301"/><path d="m58.753906 344.160156v63.035156l-16.785156 2.097657v-65.132813zm0 0" fill="#fec108"/><path d="m251.804688 221.699219v13.347656l-67.148438 83.933594h-16.957031c-1.261719 0-2.523438-.082031-3.773438-.253907-8.621093-1.335937-15.945312-7.011718-19.390625-15.023437l-15.863281-37.015625c-1.847656-4.207031-4.769531-7.855469-8.476563-10.574219l-42.472656-30.300781c-6.605468-4.734375-10.539062-12.351562-10.574218-20.480469v-71.007812h58.753906v58.753906h97.277344c15.800781.019531 28.605468 12.820313 28.625 28.621094zm0 0" fill="#f57c00"/><path d="m230.820312 221.699219v13.347656l-50.714843 83.933594c-8.558594-1.34375-32.128907-7.21875-35.570313-15.277344l-15.863281-37.015625c-1.847656-4.207031-4.769531-7.855469-8.476563-10.574219l-42.472656-30.300781c-6.605468-4.734375-10.539062-12.351562-10.574218-20.480469v-71.007812h54.554687v58.753906h80.496094c15.796875.019531 28.601562 12.820313 28.621093 28.621094zm0 0" fill="#ff9801"/><path d="m318.949219 302.191406v67.148438h-134.292969v-67.148438c-.03125-33.042968 24.011719-61.183594 56.65625-66.308594 3.464844-.574218 6.976562-.851562 10.492188-.835937 17.816406-.027344 34.910156 7.039063 47.507812 19.636719 12.597656 12.601562 19.664062 29.691406 19.636719 47.507812zm0 0" fill="#37474f"/><path d="m302.164062 302.191406v67.148438h-113.3125v-67.148438c-.03125-33.042968 24.011719-61.183594 56.65625-66.308594 32.65625 5.101563 56.710938 33.257813 56.65625 66.308594zm0 0" fill="#607d8b"/><path d="m344.132812 371.101562v31.8125h-184.65625v-31.8125c-.015624-1.136718.4375-2.230468 1.257813-3.019531l5.875-5.875c.789063-.820312 1.882813-1.277343 3.023437-1.261719h164.34375c1.136719-.015624 2.230469.441407 3.019532 1.261719l5.875 5.875c.820312.789063 1.277344 1.882813 1.261718 3.019531zm0 0" fill="#f57c00"/><path d="m327.34375 371.101562v31.8125h-167.867188v-31.8125c-.015624-1.136718.4375-2.230468 1.257813-3.019531l5.875-5.875c.789063-.820312 1.882813-1.277343 3.023437-1.261719h147.554688c1.136719-.015624 2.230469.441407 3.023438 1.261719l5.875 5.875c.816406.789063 1.273437 1.882813 1.257812 3.019531zm0 0" fill="#ff9801"/><g fill="#37474f"><path d="m447.050781 394.957031h-.175781c-.90625-.058593-1.746094-.058593-2.644531-.058593-.898438 0-1.738281 0-2.632813.058593h-11.097656l-110.710938.058594h-.503906l-10.589844.058594h-.503906l-95.863281.058593h-14.652344l-94.09375.058594h-38.609375c-1.855468-.175781-3.71875-.292968-5.570312-.292968-1.855469 0-3.777344.117187-5.640625.292968h-.042969c-26.816406 2.5625-46.816406 25.851563-45.296875 52.746094s24.019531 47.78125 50.953125 47.304688h384.855469c27.417969.371093 50.054687-21.34375 50.824219-48.753907.773437-27.410156-20.605469-50.359375-48.003907-51.53125zm0 0"/><path d="m167.867188 444.882812c0 27.8125-22.546876 50.359376-50.359376 50.359376-2.816406.007812-5.625-.246094-8.394531-.753907-24.21875-4.074219-41.957031-25.046875-41.957031-49.605469 0-24.5625 17.738281-45.53125 41.957031-49.605468 2.769531-.507813 5.578125-.761719 8.394531-.757813 27.8125 0 50.359376 22.546875 50.359376 50.363281zm0 0"/><path d="m302.164062 444.882812c0 27.8125-22.546874 50.359376-50.359374 50.359376-2.816407.007812-5.625-.246094-8.394532-.753907-24.222656-4.074219-41.960937-25.046875-41.960937-49.605469 0-24.5625 17.738281-45.53125 41.960937-49.605468 2.769532-.507813 5.578125-.761719 8.394532-.757813 13.355468 0 26.164062 5.308594 35.609374 14.75 9.445313 9.445313 14.75 22.253907 14.75 35.613281zm0 0"/><path d="m436.460938 444.882812c0 27.8125-22.550782 50.359376-50.363282 50.359376-2.8125.007812-5.625-.246094-8.394531-.753907-24.21875-4.074219-41.957031-25.046875-41.957031-49.605469 0-24.5625 17.738281-45.53125 41.957031-49.605468 2.769531-.507813 5.582031-.761719 8.394531-.757813 27.8125 0 50.363282 22.546875 50.363282 50.363281zm0 0"/></g><path d="m151.082031 444.882812c0-27.398437-18.789062-49.605468-41.96875-49.605468-23.175781 0-41.964843 22.207031-41.964843 49.605468 0 27.394532 18.789062 49.605469 41.964843 49.605469 23.179688 0 41.96875-22.210937 41.96875-49.605469zm0 0" fill="#607d8b"/><path d="m285.378906 444.882812c0-27.398437-18.792968-49.605468-41.96875-49.605468-23.179687 0-41.96875 22.207031-41.96875 49.605468 0 27.394532 18.789063 49.605469 41.96875 49.605469 23.175782 0 41.96875-22.210937 41.96875-49.605469zm0 0" fill="#607d8b"/><path d="m419.671875 444.882812c0-27.398437-18.789063-49.605468-41.96875-49.605468-23.175781 0-41.964844 22.207031-41.964844 49.605468 0 27.394532 18.789063 49.605469 41.964844 49.605469 23.179687 0 41.96875-22.210937 41.96875-49.605469zm0 0" fill="#607d8b"/><path d="m490.847656 310.082031-31.558594 31.558594c-2.390624 2.410156-5.996093 3.144531-9.140624 1.859375-3.140626-1.285156-5.199219-4.339844-5.210938-7.734375v-27.277344l7.300781-7.300781c1.601563-1.632812 1.601563-4.246094 0-5.878906l-9.902343-9.902344 7.886718-17.960938 6.042969-13.683593 22.664063 20.734375 11.917968 11.917968c3.144532 3.136719 4.910156 7.394532 4.910156 11.832032 0 4.441406-1.765624 8.699218-4.910156 11.835937zm0 0" fill="#9e9e9e"/><path d="m479.179688 300.765625-34.242188 34.246094v-26.523438l7.300781-7.300781c1.601563-1.632812 1.601563-4.246094 0-5.878906l-9.902343-9.902344 7.886718-17.960938 7.722656 7.050782 21.234376 21.234375c.671874.667969 1.046874 1.574219 1.046874 2.515625 0 .945312-.375 1.851562-1.046874 2.519531zm0 0" fill="#cfd8dc"/><path d="m402.886719 92.355469h41.964843v92.328125h-41.964843zm0 0" fill="#ffb301"/><path d="m402.886719 92.355469h25.179687v92.328125h-25.179687zm0 0" fill="#fec108"/><path d="m216.886719 63.652344-91.238281 62.699218-3.441407-3.695312-19.554687-21.234375 80.410156-55.3125 18.800781-12.925781zm0 0" fill="#ffb301"/><path d="m195.902344 72.042969-73.695313 50.613281-19.554687-21.234375 80.410156-55.3125zm0 0" fill="#fec108"/><path d="m403.558594 50.304688-6.546875 32.902343-144.957031-25.179687.085937-.503906 4.949219-32.734376 125.398437 21.824219 20.984375 3.691407zm0 0" fill="#ffb301"/><path d="m382.488281 46.613281-6.460937 32.398438-123.886719-21.488281 4.949219-32.734376zm0 0" fill="#fec108"/><path d="m134.296875 444.882812c0 9.269532-7.515625 16.785157-16.789063 16.785157-9.269531 0-16.785156-7.515625-16.785156-16.785157 0-9.273437 7.515625-16.789062 16.785156-16.789062 9.273438 0 16.789063 7.515625 16.789063 16.789062zm0 0" fill="#bdc3c7"/><path d="m402.886719 444.882812c0 9.269532-7.515625 16.785157-16.789063 16.785157-9.269531 0-16.785156-7.515625-16.785156-16.785157 0-9.273437 7.515625-16.789062 16.785156-16.789062 9.273438 0 16.789063 7.515625 16.789063 16.789062zm0 0" fill="#bdc3c7"/><path d="m268.589844 444.882812c0 9.269532-7.515625 16.785157-16.785156 16.785157-9.273438 0-16.789063-7.515625-16.789063-16.785157 0-9.273437 7.515625-16.789062 16.789063-16.789062 9.269531 0 16.785156 7.515625 16.785156 16.789062zm0 0" fill="#bdc3c7"/><path d="m276.984375 302.191406c0 13.910156-11.273437 25.183594-25.179687 25.183594-2.867188.015625-5.714844-.496094-8.394532-1.511719-10.054687-3.523437-16.789062-13.015625-16.789062-23.671875 0-10.652344 6.734375-20.144531 16.789062-23.667968 2.679688-1.015626 5.527344-1.527344 8.394532-1.511719 13.90625 0 25.179687 11.273437 25.179687 25.179687zm0 0" fill="#9e9e9e"/><path d="m260.195312 302.191406c0-13.070312-7.515624-23.667968-16.785156-23.667968-9.269531 0-16.789062 10.597656-16.789062 23.667968 0 13.074219 7.519531 23.671875 16.789062 23.671875 9.269532 0 16.785156-10.597656 16.785156-23.671875zm0 0" fill="#cfd8dc"/><path d="m457.527344 272.3125-10.660156 10.660156c-1.578126 1.578125-3.726563 2.457032-5.960938 2.433594h-34.410156c-2.234375.023438-4.382813-.855469-5.960938-2.433594l-10.660156-10.660156c-2.25-2.234375-3.035156-5.558594-2.015625-8.5625l4.871094-14.519531c1.125-3.453125 4.339843-5.789063 7.972656-5.792969h45.996094c3.628906.003906 6.847656 2.339844 7.972656 5.792969l4.867187 14.519531c1.023438 3.003906.238282 6.328125-2.011718 8.5625zm0 0" fill="#f57c00"/><path d="m440.738281 268.117188-10.660156 10.65625c-1.578125 1.582031-3.726563 2.457031-5.957031 2.4375h-25.347656l-8.898438-8.898438c-2.25-2.234375-3.035156-5.558594-2.015625-8.5625l4.871094-14.519531c1.125-3.453125 4.339843-5.789063 7.972656-5.792969h36.511719c.273437.511719.5 1.042969.671875 1.597656l4.867187 14.519532c1.019532 3.003906.238282 6.328124-2.015625 8.5625zm0 0" fill="#ff9801"/><path d="m444.851562 188.882812c0 11.585938-9.394531 20.980469-20.984374 20.980469-2.890626.015625-5.75-.582031-8.390626-1.761719-7.636718-3.34375-12.566406-10.886718-12.566406-19.21875 0-8.335937 4.929688-15.878906 12.566406-19.222656 2.640626-1.175781 5.5-1.777344 8.390626-1.761718 11.589843 0 20.984374 9.394531 20.984374 20.984374zm0 0" fill="#37474f"/><path d="m428.066406 188.882812c.015625 8.34375-4.933594 15.898438-12.589844 19.21875-7.636718-3.34375-12.566406-10.886718-12.566406-19.21875 0-8.335937 4.929688-15.878906 12.566406-19.222656 7.65625 3.320313 12.605469 10.875 12.589844 19.222656zm0 0" fill="#607d8b"/><path d="m453.246094 71.375c0 16.222656-13.152344 29.375-29.378906 29.375-2.84375.011719-5.675782-.414062-8.390626-1.257812-12.441406-3.699219-20.972656-15.136719-20.972656-28.117188s8.53125-24.417969 20.972656-28.121094c2.714844-.84375 5.546876-1.269531 8.390626-1.257812 7.792968 0 15.265624 3.09375 20.773437 8.605468 5.511719 5.507813 8.605469 12.980469 8.605469 20.773438zm0 0" fill="#37474f"/><path d="m125.902344 130.128906c0 16.222656-13.152344 29.375-29.378906 29.375-2.84375.011719-5.675782-.414062-8.390626-1.257812-12.453124-3.691406-20.996093-15.132813-20.996093-28.117188 0-12.988281 8.542969-24.429687 20.996093-28.121094 2.714844-.84375 5.546876-1.269531 8.390626-1.257812 16.226562 0 29.378906 13.152344 29.378906 29.378906zm0 0" fill="#37474f"/><path d="m260.195312 37.800781c0 16.222657-13.152343 29.375-29.375 29.375-2.847656.011719-5.675781-.414062-8.394531-1.257812-12.441406-3.699219-20.972656-15.136719-20.972656-28.117188s8.53125-24.417969 20.972656-28.121093c2.71875-.84375 5.546875-1.269532 8.394531-1.257813 7.789063 0 15.261719 3.09375 20.773438 8.605469 5.507812 5.507812 8.601562 12.980468 8.601562 20.773437zm0 0" fill="#37474f"/><path d="m436.460938 71.375c-.035157 12.972656-8.558594 24.390625-20.984376 28.117188-12.441406-3.699219-20.972656-15.136719-20.972656-28.117188s8.53125-24.417969 20.972656-28.121094c12.425782 3.726563 20.949219 15.148438 20.984376 28.121094zm0 0" fill="#607d8b"/><path d="m109.113281 130.128906c-.03125 12.972656-8.554687 24.390625-20.980469 28.117188-12.453124-3.691406-20.996093-15.132813-20.996093-28.117188 0-12.988281 8.542969-24.429687 20.996093-28.121094 12.425782 3.726563 20.949219 15.148438 20.980469 28.121094zm0 0" fill="#607d8b"/><path d="m243.410156 37.800781c-.035156 12.972657-8.558594 24.390625-20.984375 28.117188-12.441406-3.699219-20.972656-15.136719-20.972656-28.117188s8.53125-24.417969 20.972656-28.121093c12.425781 3.726562 20.949219 15.148437 20.984375 28.121093zm0 0" fill="#607d8b"/><path d="m50.359375 327.375c-4.632813 0-8.390625-3.757812-8.390625-8.394531v-41.96875c0-4.632813 3.757812-8.394531 8.390625-8.394531 4.636719 0 8.394531 3.761718 8.394531 8.394531v41.96875c0 4.636719-3.757812 8.394531-8.394531 8.394531zm0 0" fill="#bdc3c7"/><path d="m67.148438 260.226562c0 9.269532-7.515626 16.785157-16.789063 16.785157-9.269531 0-16.785156-7.515625-16.785156-16.785157 0-9.273437 7.515625-16.789062 16.785156-16.789062 9.273437 0 16.789063 7.515625 16.789063 16.789062zm0 0" fill="#f44335"/><path d="m100.722656 331.570312c.015625 5.570313-2.1875 10.917969-6.128906 14.855469-3.9375 3.941407-9.285156 6.144531-14.855469 6.128907h-41.96875c-11.589843 0-20.984375-9.394532-20.984375-20.984376 0-11.589843 9.394532-20.984374 20.984375-20.984374h41.96875c5.566407 0 10.902344 2.210937 14.835938 6.144531 3.9375 3.9375 6.148437 9.273437 6.148437 14.839843zm0 0" fill="#f57c00"/><path d="m83.933594 331.570312c.019531 5.570313-2.1875 10.917969-6.125 14.855469-3.9375 3.941407-9.285156 6.144531-14.859375 6.128907h-25.179688c-11.589843 0-20.984375-9.394532-20.984375-20.984376 0-11.589843 9.394532-20.984374 20.984375-20.984374h25.179688c11.589843 0 20.984375 9.394531 20.984375 20.984374zm0 0" fill="#ff9801"/><path d="m92.328125 444.882812c0 13.90625 11.273437 25.179688 25.179687 25.179688s25.179688-11.273438 25.179688-25.179688-11.273438-25.183593-25.179688-25.183593-25.179687 11.277343-25.179687 25.183593zm33.574219 0c0 4.632813-3.757813 8.390626-8.394532 8.390626-4.636718 0-8.394531-3.757813-8.394531-8.390626 0-4.636718 3.757813-8.394531 8.394531-8.394531 4.636719 0 8.394532 3.757813 8.394532 8.394531zm0 0"/><path d="m386.097656 470.0625c13.90625 0 25.179688-11.273438 25.179688-25.179688s-11.273438-25.183593-25.179688-25.183593-25.179687 11.277343-25.179687 25.183593 11.273437 25.179688 25.179687 25.179688zm0-33.574219c4.636719 0 8.394532 3.757813 8.394532 8.394531 0 4.632813-3.757813 8.390626-8.394532 8.390626-4.636718 0-8.394531-3.757813-8.394531-8.390626 0-4.636718 3.757813-8.394531 8.394531-8.394531zm0 0"/><path d="m226.621094 444.882812c0 13.90625 11.277344 25.179688 25.183594 25.179688s25.179687-11.273438 25.179687-25.179688-11.273437-25.183593-25.179687-25.183593-25.183594 11.277343-25.183594 25.183593zm33.574218 0c0 4.632813-3.757812 8.390626-8.390624 8.390626-4.636719 0-8.394532-3.757813-8.394532-8.390626 0-4.636718 3.757813-8.394531 8.394532-8.394531 4.632812 0 8.390624 3.757813 8.390624 8.394531zm0 0"/><path d="m218.230469 302.191406c0 18.542969 15.03125 33.574219 33.574219 33.574219 18.539062 0 33.574218-15.03125 33.574218-33.574219 0-18.539062-15.035156-33.574218-33.574218-33.574218-18.542969 0-33.574219 15.035156-33.574219 33.574218zm50.359375 0c0 9.273438-7.515625 16.789063-16.785156 16.789063-9.273438 0-16.789063-7.515625-16.789063-16.789063 0-9.269531 7.515625-16.785156 16.789063-16.785156 9.269531 0 16.785156 7.515625 16.785156 16.785156zm0 0"/><path d="m484.546875 268.332031-21.050781-19.304687-2.746094-8.25c-1.089844-3.226563-4.035156-5.464844-7.4375-5.65625l-.066406-46.238282c-.046875-.925781-.144532-1.847656-.285156-2.761718.140624-.46875.234374-.949219.285156-1.4375v-89.859375c5.394531-6.628907 8.359375-14.90625 8.394531-23.449219-.023437-20.851562-16.921875-37.75-37.773437-37.773438-8.199219.042969-16.164063 2.773438-22.660157 7.78125l-138.804687-24.1875c-8.097656-12.5-22.8125-19.039062-37.515625-16.679687-14.707031 2.363281-26.632813 13.183594-30.410157 27.589844l-94.007812 64.679687c-1.304688-.210937-2.621094-.355468-3.945312-.429687-20.847657.023437-37.746094 16.921875-37.769532 37.773437 0 .957032.210938 1.851563.285156 2.792969-.136718.457031-.234374.925781-.285156 1.402344v70.976562c.015625 10.835938 5.246094 21.007813 14.058594 27.320313l42.472656 30.332031c2.5 1.789063 4.464844 4.226563 5.679688 7.050781l15.863281 37.015625c5.292969 12.347657 17.429687 20.355469 30.863281 20.355469h8.570313v25.179688h-6.65625c-3.339844-.007813-6.546875 1.316406-8.90625 3.683593l-5.933594 5.933594c-2.363281 2.359375-3.691406 5.566406-3.683594 8.90625v15.695313h-25.238281c-2.761719-.414063-5.546875-.632813-8.335938-.644532-2.808593.023438-5.613281.246094-8.394531.667969h-25.179687v-26.277344c15.238281-2.175781 26.199218-15.765625 25.097656-31.121093-1.105469-15.351563-13.898438-27.234376-29.292969-27.207032h-20.984375v-18.328125c11.5625-4.089843 18.5-15.914062 16.425782-28-2.074219-12.085937-12.554688-20.921875-24.820313-20.921875-12.261719 0-22.742187 8.835938-24.816406 20.921875-2.074219 12.085938 4.863281 23.910157 16.425781 28v18.328125h-4.199219c-15.390625-.027344-28.1875 11.855469-29.292969 27.207032-1.101562 15.355468 9.859376 28.945312 25.097657 31.121093v31.835938c-20.433594 9.609375-33.5039065 30.128906-33.574219 52.710937.261719 32.550782 26.824219 58.75 59.375 58.570313h384.855469c32.128906.613281 58.75-24.785157 59.648437-56.90625.898438-32.121094-24.261718-58.96875-56.375-60.148438l-.453125 8.390625.363281-8.390625c-2.039062-.117187-4.082031-.117187-6.121093 0h-48.117188c-2.347656-.296875-4.710937-.449219-7.078125-.453125-2.386718.011719-4.773437.171875-7.140625.476563h-26.433593v-15.527344c.007812-3.339844-1.316407-6.546875-3.683594-8.90625l-5.933594-5.933594c-2.359375-2.367187-5.566406-3.691406-8.90625-3.683593h-6.65625v-50.363282c-.050781-38.445312-28.941406-70.734375-67.148438-75.042968v-5.433594c-.011718-20.445313-16.585937-37.015625-37.03125-37.03125h-88.867187v-50.359375c-.054687-.476563-.148437-.945313-.289063-1.402344.0625-.773437.226563-1.511719.238282-2.300781l83.648437-57.476563c12.417969 4.769531 26.449219 2.40625 36.621094-6.167969l137.128906 23.820313c.859375 1.402344 1.8125 2.75 2.847657 4.027344v89.859375c.050781.476562.148437.945312.285156 1.402344-.140625.925781-.238282 1.859374-.285156 2.796874v.175782l.066406 46.027344c-3.589844.023437-6.769532 2.328124-7.90625 5.734374l-3.070313 9.332032-20.144531 18.878906-11.921875 11.910156c-4.71875 4.707032-7.367187 11.101563-7.367187 17.769532 0 6.664062 2.648437 13.058593 7.367187 17.769531l31.132813 31.136719c4.796874 4.808593 12.019531 6.253906 18.296874 3.660156 6.277344-2.59375 10.375-8.71875 10.375-15.511719v-27.277344c0-2.226562-.882812-4.359375-2.457031-5.933593l-3.886719-3.886719 4.867188-4.867188h28.980469l4.449219 4.4375-4.3125 4.316407c-1.574219 1.574218-2.460938 3.707031-2.460938 5.933593v27.277344c-.011719 6.777344 4.074219 12.886719 10.339844 15.460937 6.292968 2.613282 13.535156 1.167969 18.339844-3.660156l31.5625-31.558594c9.785156-9.824218 9.785156-25.710937 0-35.539062zm-434.1875-16.5c4.636719 0 8.394531 3.757813 8.394531 8.394531 0 4.632813-3.757812 8.390626-8.394531 8.390626-4.632813 0-8.390625-3.757813-8.390625-8.390626 0-4.636718 3.757812-8.394531 8.390625-8.394531zm390.554687 25.179688h-34.410156l-10.660156-10.667969 4.816406-14.511719h46.082032l4.832031 14.511719zm-17.046874-167.867188c4.300781-.042969 8.558593-.824219 12.59375-2.316406v55.621094c-7.9375-3.925781-17.25-3.925781-25.183594 0v-55.621094c4.035156 1.492187 8.292968 2.273437 12.589844 2.316406zm-12.589844 79.738281c0-6.953124 5.636718-12.589843 12.589844-12.589843 6.953124 0 12.59375 5.636719 12.59375 12.589843 0 6.953126-5.640626 12.589844-12.59375 12.589844-6.953126 0-12.589844-5.636718-12.589844-12.589844zm12.589844 29.375c4.367187-.027343 8.671874-1.042968 12.59375-2.96875v19.757813h-25.183594v-19.71875c3.925781 1.910156 8.226562 2.914063 12.589844 2.929687zm20.984374-146.882812c.007813 9.5-6.371093 17.820312-15.550781 20.277344-9.175781 2.460937-18.863281-1.550782-23.609375-9.78125-4.746094-8.230469-3.371094-18.625 3.355469-25.335938.167969-.152344.359375-.269531.519531-.429687 6.078125-5.746094 14.996094-7.320313 22.675782-3.996094 7.679687 3.320313 12.636718 10.898437 12.609374 19.265625zm-250.125-23.082031c1.589844 5.480469 4.402344 10.527343 8.226563 14.761719l-72.855469 50.074218c-2.574218-5.074218-6.261718-9.5-10.785156-12.949218zm-98.203124 60.851562c11.589843 0 20.984374 9.394531 20.984374 20.984375 0 11.585938-9.394531 20.980469-20.984374 20.980469-11.585938 0-20.984376-9.394531-20.984376-20.980469 0-11.589844 9.398438-20.984375 20.984376-20.984375zm294.132812 294.230469c22.152344 2.4375 38.535156 21.761719 37.316406 44.011719-1.21875 22.253906-19.617187 39.671875-41.902344 39.671875-22.285156 0-40.6875-17.417969-41.90625-39.671875-1.21875-22.25 15.167969-41.574219 37.316407-44.011719zm-96.886719 41.507812c.105469 22.488282-17.539062 41.0625-40.003906 42.113282-22.464844 1.050781-41.765625-15.792969-43.761719-38.195313-1.996094-22.402343 14.019532-42.394531 36.320313-45.332031h10.910156c20.839844 2.6875 36.464844 20.398438 36.535156 41.414062zm-134.292969 0c.085938 22.371094-17.394531 40.878907-39.734374 42.070313-22.339844 1.1875-41.6875-15.355469-43.980469-37.609375s13.277343-42.394531 35.394531-45.785156h12.589844c20.484375 3.054687 35.664062 20.613281 35.730468 41.324218zm-134.296874-113.3125c0-6.953124 5.636718-12.589843 12.589843-12.589843h4.199219c0 4.636719 3.757812 8.394531 8.390625 8.394531 4.636719 0 8.394531-3.757812 8.394531-8.394531h20.984375c6.953125 0 12.589844 5.636719 12.589844 12.589843 0 6.953126-5.636719 12.589844-12.589844 12.589844h-41.96875c-6.953125 0-12.589843-5.636718-12.589843-12.589844zm25.179687 29.375h16.789063v25.886719h-1.429688c-4.003906-.351562-8.035156-.351562-12.042969 0-.3125 0-.628906.015625-.941406.050781-.835937.09375-1.578125.25-2.375.378907zm9.015625 125.902344c-22.371094.40625-41.089844-16.894531-42.4375-39.230468-1.351562-22.335938 15.144531-41.765626 37.402344-44.058594h.21875c3.210937-.300782 6.445312-.300782 9.660156 0h.921875 10.644531c-11.03125 11.097656-17.167968 26.144531-17.039062 41.789062.128906 15.644532 6.511718 30.589844 17.726562 41.5zm99.167969 0c11.214843-10.917968 17.59375-25.871094 17.714843-41.523437.121094-15.652344-6.023437-30.703125-17.066406-41.796875h50.964844c-11.050781 11.085937-17.203125 26.136718-17.085938 41.789062.113282 15.652344 6.488282 30.609375 17.699219 41.53125zm134.296875 0c11.230468-10.933594 17.609375-25.914062 17.714844-41.589844.105468-15.671874-6.070313-30.738281-17.152344-41.824218h51.132812c-11.085937 11.082031-17.269531 26.144531-17.171875 41.820312.097657 15.671875 6.472657 30.65625 17.699219 41.59375zm138.078125-83.496094h11.207031c.703125-.039062 1.40625-.039062 2.105469 0h2.359375c22.714844 1.101563 40.375 20.171876 39.734375 42.902344-.640625 22.734375-19.351563 40.777344-42.09375 40.59375h-17.097657c11.246094-10.949218 17.628907-25.953125 17.71875-41.648437.089844-15.695313-6.121093-30.769531-17.238281-41.847657zm-95.179688-30.535156v13.3125h-167.871093v-13.3125l3.476562-3.476562h160.917969zm-25.179687-70.625v50.363282h-117.507813v-50.363282c0-32.449218 26.304688-58.753906 58.753907-58.753906 32.449218 0 58.753906 26.304688 58.753906 58.753906zm-73.074219-94.777344c3.792969 3.78125 5.925781 8.914063 5.925781 14.269532v5.429687c-38.21875 4.3125-67.113281 36.621094-67.148437 75.078125v8.394532h-8.570313c-6.714844.003906-12.789062-4-15.433594-10.171876l-15.863281-37.023437c-2.421875-5.640625-6.339843-10.507813-11.332031-14.078125l-42.472656-30.332031c-4.425782-3.152344-7.050782-8.25-7.050782-13.679688v-43.796875c12.691407 8.527344 29.28125 8.527344 41.96875 0v31.574219c0 4.636719 3.757813 8.394531 8.394532 8.394531h97.261718c5.375-.011718 10.53125 2.128906 14.320313 5.941406zm-27.648437-169.613281c0-11.589843 9.394531-20.984375 20.984374-20.984375 11.589844 0 20.984376 9.394532 20.984376 20.984375 0 11.585938-9.394532 20.980469-20.984376 20.980469-5.566406 0-10.902343-2.207031-14.839843-6.144531-3.933594-3.933594-6.144531-9.273438-6.144531-14.835938zm55.96875 14.101563c1.828124-4.480469 2.773437-9.265625 2.785156-14.101563 0-.839843-.199219-1.679687-.25-2.519531l120.914062 21.066406c-2.078125 4.738282-3.152344 9.851563-3.15625 15.027344 0 .492188.125.957031.144532 1.441406zm128.6875 283.863281-31.140626-31.148437c-3.242187-3.242188-3.242187-8.503907 0-11.75l11.75-11.75 6.035157-5.648438 11.675781 11.617188-2.871094 2.871093c-4.722656 4.933594-4.648437 12.738281.167969 17.582031l4.425781 4.421876zm90.363281-31.558594-31.566407 31.558594v-23.769531l4.84375-4.84375c4.875-4.910156 4.875-12.832032 0-17.742188l-2.921874-2.921875 11.625-11.625 6.117187 5.589844 11.917969 11.917969c3.234375 3.269531 3.234375 8.53125 0 11.800781zm0 0"/><path d="m134.296875 235.046875h16.785156v16.785156c0 4.636719 3.757813 8.394531 8.394531 8.394531 4.632813 0 8.390626-3.757812 8.390626-8.394531v-25.179687c0-4.636719-3.757813-8.394532-8.390626-8.394532h-25.179687c-4.636719 0-8.394531 3.757813-8.394531 8.394532 0 4.636718 3.757812 8.394531 8.394531 8.394531zm0 0"/></svg>