<svg height="511pt" viewBox="-4 0 511 511.15799" width="511pt" xmlns="http://www.w3.org/2000/svg"><path d="m179.277344 75.9375v145.066406l-136.53125 59.734375h-17.066406c-9.414063-.027343-17.039063-7.652343-17.066407-17.066406v-187.734375c.027344-9.414062 7.652344-17.039062 17.066407-17.066406h136.53125c9.414062.027344 17.039062 7.652344 17.066406 17.066406zm0 0" fill="#283593"/><path d="m162.210938 75.9375v145.066406l-136.53125 59.734375c-9.414063-.027343-17.039063-7.652343-17.066407-17.066406v-187.734375c.027344-9.414062 7.652344-17.039062 17.066407-17.066406h119.464843c9.414063.027344 17.039063 7.652344 17.066407 17.066406zm0 0" fill="#3f51b5"/><path d="m128.078125 178.335938v59.734374h-68.265625v-59.734374c.027344-9.410157 7.652344-17.035157 17.066406-17.066407h34.132813c9.414062.03125 17.039062 7.65625 17.066406 17.066407zm0 0" fill="#37474f"/><path d="m111.011719 178.335938v59.734374h-51.199219v-59.734374c.027344-9.410157 7.652344-17.035157 17.066406-17.066407h17.066406c9.414063.03125 17.039063 7.65625 17.066407 17.066407zm0 0" fill="#607d8b"/><path d="m264.613281 161.269531v68.269531h-51.199219v-68.269531c0-4.710937 3.820313-8.53125 8.53125-8.53125h34.132813c4.714844 0 8.535156 3.820313 8.535156 8.53125zm0 0" fill="#f57c00"/><path d="m247.546875 161.269531v68.269531h-34.132813v-68.269531c0-4.710937 3.820313-8.53125 8.53125-8.53125h17.066407c4.714843 0 8.535156 3.820313 8.535156 8.53125zm0 0" fill="#ff9801"/><path d="m256.078125 127.136719v25.601562h-34.132813v-25.601562c0-9.425781 7.640626-17.066407 17.066407-17.066407 9.398437.070313 16.996093 7.671876 17.066406 17.066407zm0 0" fill="#ffb301"/><path d="m239.011719 127.136719v25.601562h-17.066407v-25.601562c.007813-6.089844 3.257813-11.714844 8.535157-14.761719 1.289062.738281 2.46875 1.65625 3.496093 2.730469 3.242188 3.160156 5.058594 7.503906 5.035157 12.03125zm0 0" fill="#fec108"/><path d="m495.011719 417.269531h-17.066407c.011719-24.976562-18.03125-46.300781-42.667968-50.429687 2.816406-.519532 5.671875-.773438 8.535156-.769532 28.277344 0 51.199219 22.925782 51.199219 51.199219zm0 0" fill="#9e9e9e"/><path d="m495.011719 451.40625c0 28.273438-22.921875 51.199219-51.199219 51.199219-2.863281.003906-5.71875-.25-8.535156-.769531 24.636718-4.128907 42.679687-25.453126 42.667968-50.429688zm0 0" fill="#9e9e9e"/><path d="m477.945312 417.269531h-17.066406c-.027344-9.414062-7.652344-17.035156-17.066406-17.066406-2.972656.003906-5.886719.800781-8.449219 2.304687-4.738281 2.6875-7.90625 7.476563-8.53125 12.886719l-16.300781-3.242187-17.152344-3.414063c3.628906-21.460937 20.441406-38.273437 41.898438-41.898437 24.636718 4.128906 42.679687 25.453125 42.667968 50.429687zm0 0" fill="#cfd8dc"/><path d="m477.945312 451.40625c.011719 24.976562-18.03125 46.300781-42.667968 50.429688-21.457032-3.625-38.269532-20.4375-41.898438-41.898438l17.152344-3.328125 16.300781-3.242187c.675781 5.371093 3.835938 10.109374 8.53125 12.800781 2.5625 1.503906 5.476563 2.300781 8.449219 2.304687 9.414062-.03125 17.039062-7.652344 17.066406-17.066406zm0 0" fill="#cfd8dc"/><path d="m334.160156 408.738281h75.519532c6.789062 0 13.296874 2.699219 18.089843 7.507813.335938.320312.648438.664062.9375 1.023437 6.726563 7.519531 8.410157 18.285157 4.300781 27.496094-4.109374 9.210937-13.242187 15.152344-23.328124 15.171875h-128zm0 0" fill="#ffb301"/><path d="m317.09375 408.738281h75.519531c6.789063 0 13.296875 2.699219 18.089844 7.507813.335937.320312.648437.664062.9375 1.023437 6.726563 7.519531 8.410156 18.285157 4.300781 27.496094s-13.242187 15.152344-23.328125 15.171875h-128zm0 0" fill="#fec108"/><path d="m242.9375 424.355469-16.382812-8.875c-7.375-3.253907-11.46875-11.21875-9.820313-19.105469 1.644531-7.890625 8.585937-13.550781 16.644531-13.578125 2.382813-.023437 4.742188.472656 6.914063 1.449219l22.527343 12.117187zm0 0" fill="#fec108"/><path d="m341.414062 238.070312v26.710938l-42.667968 75.691406h-238.933594c-9.414062-.03125-17.039062-7.652344-17.066406-17.066406v-85.335938c.027344-9.414062 7.652344-17.039062 17.066406-17.066406h264.53125c9.414062.027344 17.039062 7.652344 17.070312 17.066406zm0 0" fill="#0377bc"/><path d="m324.34375 238.070312v26.710938l-29.863281 75.691406h-234.667969c-9.414062-.03125-17.039062-7.652344-17.066406-17.066406v-85.335938c.027344-9.414062 7.652344-17.039062 17.066406-17.066406h247.464844c9.414062.027344 17.039062 7.652344 17.066406 17.066406zm0 0" fill="#02a9f4"/><path d="m307.277344 263.671875v11.605469l-8.53125 31.058594h-85.332032c-4.714843 0-8.535156-3.820313-8.535156-8.53125v-34.132813c0-4.714844 3.820313-8.535156 8.535156-8.535156h85.332032c4.710937 0 8.53125 3.820312 8.53125 8.535156zm0 0" fill="#37474f"/><path d="m290.210938 263.671875v42.664063h-76.796876c-4.714843 0-8.535156-3.820313-8.535156-8.53125v-34.132813c0-4.714844 3.820313-8.535156 8.535156-8.535156h68.265626c4.710937 0 8.53125 3.820312 8.53125 8.535156zm0 0" fill="#607d8b"/><path d="m264.613281 17.058594v33.277344c0 4.714843-3.820312 8.535156-8.535156 8.535156h-162.132813c-4.710937 0-8.53125-3.820313-8.53125-8.535156v-17.832032c-.019531-4.429687 3.351563-8.136718 7.761719-8.535156l150.019531-14.25 12.117188-1.195312c2.386719-.199219 4.75.609374 6.519531 2.230468 1.765625 1.621094 2.773438 3.90625 2.78125 6.304688zm0 0" fill="#f57c00"/><path d="m247.546875 17.058594v33.277344c0 4.714843-3.820313 8.535156-8.535156 8.535156h-145.066407c-4.710937 0-8.53125-3.820313-8.53125-8.535156v-17.832032c-.019531-4.429687 3.351563-8.136718 7.761719-8.535156l150.019531-14.25c2.695313 1.453125 4.371094 4.277344 4.351563 7.339844zm0 0" fill="#ff9801"/><path d="m179.277344 340.472656c0 28.277344-22.921875 51.199219-51.199219 51.199219-3.585937.023437-7.160156-.347656-10.664063-1.109375-23.667968-5.007812-40.601562-25.898438-40.601562-50.089844s16.933594-45.082031 40.601562-50.09375c3.503907-.761718 7.078126-1.132812 10.664063-1.109375 13.578125 0 26.601563 5.394531 36.203125 14.996094 9.601562 9.605469 14.996094 22.625 14.996094 36.207031zm0 0" fill="#37474f"/><path d="m162.210938 340.472656c0-27.664062-18.144532-50.09375-40.53125-50.09375-22.386719 0-40.535157 22.429688-40.535157 50.09375 0 27.664063 18.148438 50.089844 40.535157 50.089844 22.386718 0 40.53125-22.425781 40.53125-50.089844zm0 0" fill="#607d8b"/><path d="m145.144531 340.472656c0 9.425782-7.640625 17.066406-17.066406 17.066406s-17.066406-7.640624-17.066406-17.066406c0-9.425781 7.640625-17.066406 17.066406-17.066406s17.066406 7.640625 17.066406 17.066406zm0 0" fill="#cfd8dc"/><path d="m367.011719 297.804688v87.464843c-.015625 2.238281-.90625 4.382813-2.472657 5.976563l-63.917968 63.914062c-12.953125 12.941406-33.8125 13.359375-47.273438.9375-.363281-.289062-.703125-.601562-1.023437-.9375-13.308594-13.347656-13.308594-34.949218 0-48.300781l43.945312-43.945313c1.570313-1.59375 2.457031-3.738281 2.476563-5.972656v-57.6875c-.285156-17.9375 13-33.207031 30.804687-35.410156 3.160157-.332031 6.355469-.1875 9.472657.425781 16.21875 2.925781 28.011718 17.054688 27.988281 33.535157zm0 0" fill="#f57c00"/><path d="m349.945312 289.269531v87.46875c-.015624 2.238281-.90625 4.378907-2.472656 5.972657l-63.917968 63.914062c-7.914063 7.90625-19.195313 11.441406-30.207032 9.472656-.363281-.289062-.703125-.601562-1.023437-.9375-13.308594-13.347656-13.308594-34.949218 0-48.300781l43.945312-43.945313c1.570313-1.59375 2.457031-3.738281 2.476563-5.972656v-57.6875c-.285156-17.9375 13-33.207031 30.804687-35.410156 3.160157-.332031 6.355469-.1875 9.472657.425781 6.984374 6.433594 10.945312 15.503907 10.921874 25zm0 0" fill="#ff9801"/><path d="m290.210938 425.804688c0 4.710937-3.820313 8.53125-8.53125 8.53125-4.714844 0-8.535157-3.820313-8.535157-8.53125 0-4.714844 3.820313-8.535157 8.535157-8.535157 4.710937 0 8.53125 3.820313 8.53125 8.535157zm0 0"/><path d="m341.414062 306.335938c0 4.714843-3.820312 8.535156-8.535156 8.535156-4.710937 0-8.535156-3.820313-8.535156-8.535156 0-4.710938 3.824219-8.53125 8.535156-8.53125 4.714844 0 8.535156 3.820312 8.535156 8.53125zm0 0"/><path d="m256.078125 67.40625c9.425781 0 17.066406-7.644531 17.066406-17.070312v-33.277344c0-4.804688-2.027343-9.386719-5.578125-12.621094-3.570312-3.210938-8.316406-4.792969-13.101562-4.3710938l-162.132813 15.4453128c-8.777343.792969-15.488281 8.167969-15.453125 16.984375v17.839844h-51.199218c-14.140626 0-25.601563 11.464843-25.601563 25.601562v187.734375c0 14.136719 11.460937 25.597656 25.601563 25.597656h8.53125v34.136719c0 14.136719 11.464843 25.597656 25.601562 25.597656h9.214844c3.21875 22.617188 19.085937 41.40625 40.847656 48.367188 21.757812 6.960937 45.582031.867187 61.332031-15.683594l36.804688 16.265625c-.902344 10.558594 4.894531 20.558594 14.503906 25.027344l11.53125 6.246093c-.769531 15.277344 6.773437 29.777344 19.726563 37.914063 12.949218 8.140625 29.289062 8.648437 42.71875 1.332031h90.148437c8.449219 28.425782 36.492187 46.339844 65.835937 42.054688 29.347657-4.285156 51.097657-29.464844 51.070313-59.121094 0-4.714844-3.820313-8.535156-8.535156-8.535156h-34.132813c-4.710937 0-8.535156 3.820312-8.535156 8.535156 0 4.710938-3.820312 8.53125-8.53125 8.53125-3.125-.046875-5.984375-1.769531-7.484375-4.515625 4.8125-5.976563 7.449219-13.410156 7.484375-21.085937.015625-7.6875-2.625-15.148438-7.476562-21.117188 1.5-2.734375 4.359374-4.449219 7.476562-4.480469 4.710938 0 8.53125 3.820313 8.53125 8.53125 0 4.714844 3.824219 8.535157 8.535156 8.535157h34.132813c4.714843 0 8.535156-3.820313 8.535156-8.535157.027344-29.65625-21.722656-54.835937-51.070313-59.121093-29.34375-4.285157-57.386718 13.628906-65.835937 42.054687h-18.996094l5.390625-5.390625c1.597656-1.609375 2.5-3.777344 2.511719-6.042969v-90.964843c-.023437-16.945313-10.070313-32.269532-25.601563-39.046876v-20.6875c0-14.136718-11.460937-25.597656-25.601562-25.597656h-51.199219v-51.203125c-.015625-6.066406-3.269531-11.667969-8.53125-14.691406v-19.441406c-.046875-10.808594-6.875-20.425781-17.066406-24.027344v-35.703125zm-162.132813-34.910156 162.132813-15.4375v33.277344h-162.132813zm-68.265624 239.707031c-4.714844 0-8.535157-3.820313-8.535157-8.53125v-187.734375c0-4.710938 3.820313-8.53125 8.535157-8.53125h136.53125c4.714843 0 8.535156 3.820312 8.535156 8.53125v136.535156h-34.132813v-34.136718c0-14.136719-11.460937-25.597657-25.601562-25.597657h-34.132813c-14.136718 0-25.601562 11.460938-25.601562 25.597657v35.707031c-10.191406 3.601562-17.019532 13.21875-17.066406 24.027343v34.132813zm93.867187-59.730469h-51.203125v-34.136718c0-4.710938 3.824219-8.53125 8.535156-8.53125h34.132813c4.714843 0 8.535156 3.820312 8.535156 8.53125zm8.53125 170.664063c-23.5625 0-42.664063-19.101563-42.664063-42.664063 0-23.566406 19.101563-42.667968 42.664063-42.667968 23.566406 0 42.667969 19.101562 42.667969 42.667968-.027344 23.550782-19.113282 42.636719-42.667969 42.664063zm59.050781-34.132813h103.082032v7.902344l-28.933594 28.9375-17.417969-9.34375c-3.289063-1.503906-6.863281-2.265625-10.480469-2.238281-7.015625.023437-13.710937 2.9375-18.507812 8.058593l-33.585938-14.839843c2.949219-5.796875 4.925782-12.039063 5.84375-18.476563zm111.617188-76.535156c-5.511719 7.300781-8.507813 16.191406-8.535156 25.335938h-76.796876v-34.132813h85.332032zm-68.71875 135.21875c-2.085938-.910156-3.71875-2.617188-4.539063-4.738281-.820312-2.121094-.757812-4.484375.167969-6.558594 1.839844-4.015625 6.40625-6.007813 10.601562-4.625l12.414063 6.679687-2.378906 2.382813c-3.25 3.324219-5.921875 7.167969-7.910157 11.367187zm213.785156 69.316406c10.84375-.011718 20.511719-6.84375 24.140625-17.066406h17.671875c-3.675781 18.222656-18.753906 31.953125-37.242188 33.90625-18.488281 1.953125-36.105468-8.320312-43.507812-25.371094h4.804688c4.492187-.027344 8.9375-.9375 13.082031-2.671875 4.734375 6.980469 12.613281 11.175781 21.050781 11.203125zm0-102.398437c20.269531.019531 37.734375 14.277343 41.8125 34.132812h-17.664062c-3.171876-9.109375-11.210938-15.652343-20.773438-16.917969-9.5625-1.261718-19.023438 2.972657-24.453125 10.945313-4.140625-1.707031-8.578125-2.578125-13.054687-2.5625h-4.8125c6.6875-15.558594 22.007812-25.628906 38.945312-25.597656zm-34.132812 42.664062c4.527343-.007812 8.867187 1.796875 12.058593 5.011719l.636719.714844c5.863281 6.484375 5.824219 16.367187-.09375 22.800781-3.191406 3.605469-7.789062 5.648437-12.601562 5.609375h-93.234376l34.132813-34.136719zm-51.199219-119.464843v87.433593l-17.460938 17.457031-46.414062 46.414063c-10.003907 10.003906-26.226563 10.003906-36.230469 0-10.007812-10.003906-10.007812-26.226563 0-36.234375l46.414062-46.410156c1.585938-1.605469 2.476563-3.769532 2.488282-6.027344v-62.632812c0-14.140626 11.464844-25.601563 25.601562-25.601563 14.136719 0 25.601563 11.460937 25.601563 25.601563zm-25.601563-59.734376v17.066407c-6.140625.027343-12.199218 1.390625-17.757812 3.996093-2.035156-7.375-8.726563-12.492187-16.375-12.527343h-85.332032c-9.425781 0-17.070312 7.640625-17.070312 17.066406v34.132813c0 9.425781 7.644531 17.066406 17.070312 17.066406h76.796876v17.066406h-103.082032c-4.21875-29.371094-29.378906-51.175781-59.050781-51.175781s-54.832031 21.804687-59.050781 51.175781h-9.214844c-4.714844 0-8.535156-3.820312-8.535156-8.53125v-85.335938c0-4.710937 3.820312-8.53125 8.535156-8.53125h264.53125c4.714844 0 8.535156 3.820313 8.535156 8.53125zm-93.867187-119.464843c4.714843 0 8.535156 3.820312 8.535156 8.53125v17.066406h-17.066406v-17.066406c0-4.710938 3.820312-8.53125 8.53125-8.53125zm-17.066407 93.867187v-51.203125h34.132813v51.203125zm8.535157-109.363281c-10.191407 3.601563-17.023438 13.21875-17.066407 24.027344v19.441406c-5.265624 3.023437-8.515624 8.625-8.535156 14.691406v51.203125h-17.066406v-136.535156c-.027344-2.914062-.558594-5.800781-1.570312-8.53125h44.238281zm0 0"/><path d="m153.679688 246.605469h-76.800782c-4.710937 0-8.535156 3.820312-8.535156 8.53125 0 4.714843 3.824219 8.535156 8.535156 8.535156h76.800782c4.710937 0 8.53125-3.820313 8.53125-8.535156 0-4.710938-3.820313-8.53125-8.53125-8.53125zm0 0"/><path d="m42.746094 127.136719c4.710937 0 8.53125-3.820313 8.53125-8.53125v-25.601563c0-4.710937-3.820313-8.53125-8.53125-8.53125-4.714844 0-8.535156 3.820313-8.535156 8.53125v25.601563c0 4.710937 3.820312 8.53125 8.535156 8.53125zm0 0"/><path d="m76.878906 127.136719c4.714844 0 8.535156-3.820313 8.535156-8.53125v-25.601563c0-4.710937-3.820312-8.53125-8.535156-8.53125-4.710937 0-8.535156 3.820313-8.535156 8.53125v25.601563c0 4.710937 3.824219 8.53125 8.535156 8.53125zm0 0"/><path d="m111.011719 127.136719c4.714843 0 8.535156-3.820313 8.535156-8.53125v-25.601563c0-4.710937-3.820313-8.53125-8.535156-8.53125-4.710938 0-8.53125 3.820313-8.53125 8.53125v25.601563c0 4.710937 3.820312 8.53125 8.53125 8.53125zm0 0"/><path d="m145.144531 127.136719c4.714844 0 8.535157-3.820313 8.535157-8.53125v-25.601563c0-4.710937-3.820313-8.53125-8.535157-8.53125-4.710937 0-8.53125 3.820313-8.53125 8.53125v25.601563c0 4.710937 3.820313 8.53125 8.53125 8.53125zm0 0"/><path d="m128.078125 314.871094c-14.136719 0-25.597656 11.460937-25.597656 25.601562 0 14.136719 11.460937 25.597656 25.597656 25.597656 14.140625 0 25.601563-11.460937 25.601563-25.597656 0-14.140625-11.460938-25.601562-25.601563-25.601562zm0 34.132812c-4.710937 0-8.53125-3.820312-8.53125-8.53125 0-4.714844 3.820313-8.535156 8.53125-8.535156 4.714844 0 8.535156 3.820312 8.535156 8.535156 0 4.710938-3.820312 8.53125-8.535156 8.53125zm0 0"/></svg>