<svg height="512pt" viewBox="0 0 512.00149 512" width="512pt" xmlns="http://www.w3.org/2000/svg"><path d="m79.914062 162.132812-10.066406 10.070313c-1.628906 1.660156-1.628906 4.316406 0 5.972656l7.421875 7.425781v27.734376c-.015625 3.449218-2.105469 6.550781-5.300781 7.859374-3.191406 1.308594-6.859375.5625-9.289062-1.886718l-32.085938-32.085938c-3.195312-3.1875-4.992188-7.519531-4.992188-12.03125 0-4.515625 1.796876-8.84375 4.992188-12.035156l12.117188-12.117188 23.039062-21.074218zm0 0" fill="#bdc3c7"/><path d="m69.890625 178.175781 7.421875 7.425781v27.734376c-.015625 3.449218-2.105469 6.550781-5.300781 7.859374-3.195313 1.308594-6.859375.5625-9.289063-1.886718l-32.085937-32.085938c-3.207031-3.179687-5.019531-7.5-5.035157-12.015625-.015624-4.511719 1.765626-8.847656 4.949219-12.050781l12.117188-12.117188 7.851562-7.167968 15.1875-13.90625 14.164063 32.167968-10.066406 10.070313c-1.605469 1.683594-1.566407 4.335937.085937 5.972656zm0 0" fill="#cfd8dc"/><path d="m60.671875 178.5625h11.375v41.101562h-11.375zm0 0" fill="#9e9e9e"/><path d="m116.4375 162.132812 10.496094 10.496094c1.625 1.660156 1.625 4.316406 0 5.972656l-6.996094 7v27.734376c.015625 3.449218 2.105469 6.550781 5.300781 7.859374 3.191407 1.308594 6.859375.5625 9.289063-1.886718l31.660156-31.660156c3.195312-3.1875 4.992188-7.515626 4.992188-12.03125 0-4.515626-1.796876-8.84375-4.992188-12.03125l-12.117188-12.117188-21.84375-20.480469zm0 0" fill="#bdc3c7"/><path d="m60.714844 145.101562 17.066406 17.066407h42.070312l17.066407-17.066407-8.535157-25.601562h-59.132812zm0 0" fill="#f29c1f"/><path d="m119.9375 79.992188v39.507812h-42.667969v-43.007812zm0 0" fill="#d25627"/><path d="m210.816406 42.71875h88.320313v34.117188h-93.867188zm0 0" fill="#d25627"/><path d="m341.804688 85.28125h-34.132813c-4.714844 0-8.535156-3.820312-8.535156-8.53125v-42.667969c0-4.710937 3.820312-8.53125 8.535156-8.53125h34.132813zm0 0" fill="#f29c1f"/><path d="m68.738281 55.585938c0 16.496093 13.371094 29.867187 29.863281 29.867187.941407 0 1.964844.078125 2.902344.078125.457032.011719.914063-.015625 1.367188-.078125l13.480468-4.4375c1.171876-.421875 2.367188-.765625 3.585938-1.023437 6.925781-2.039063 14.109375-3.074219 21.332031-3.070313 8.472657-.007813 16.890625 1.375 24.917969 4.09375l13.484375 4.4375c1.417969.128906 2.84375.128906 4.265625 0 16.496094 0 29.867188-13.371094 29.867188-29.867187.039062-4.480469-.984376-8.910157-2.988282-12.917969-4.921875-10.382813-15.390625-16.996094-26.878906-16.980469-.9375 0-1.964844-.085938-2.902344-.085938-.457031-.015624-.914062.011719-1.363281.085938l-13.484375 4.519531c-8.042969 2.648438-16.453125 4.003907-24.917969 4.011719-8.464843-.007812-16.875-1.363281-24.917969-4.011719l-13.480468-4.519531c-1.421875-.085938-2.847656-.085938-4.269532 0-7.925781 0-15.527343 3.148438-21.128906 8.757812-5.601562 5.609376-8.746094 13.214844-8.734375 21.140626zm0 0" fill="#f29c1f"/><path d="m166.230469 187.648438-31.660157 31.660156c-2.429687 2.449218-6.097656 3.195312-9.289062 1.886718-3.195312-1.308593-5.289062-4.410156-5.300781-7.859374v-27.734376l6.996093-7c1.601563-1.679687 1.566407-4.335937-.085937-5.972656l-10.496094-10.496094 8.875-17.578124 6.914063-13.566407 21.84375 20.480469 12.117187 12.117188c3.207031 3.175781 5.019531 7.5 5.035157 12.011718.015624 4.515625-1.765626 8.851563-4.949219 12.050782zm0 0" fill="#9e9e9e"/><path d="m152.472656 180.054688-32.492187 32.511718v-26.964844l6.996093-7c1.601563-1.679687 1.566407-4.335937-.085937-5.972656l-10.496094-10.496094 8.875-17.578124 7.425781 6.914062 19.777344 19.777344c2.421875 2.4375 2.421875 6.371094 0 8.808594zm0 0" fill="#cfd8dc"/><path d="m136.875 145.066406-17.066406 17.066406h-42.070313l-17.066406-17.066406 8.535156-25.597656h59.136719zm0 0" fill="#f57c00"/><path d="m119.808594 140.800781-17.066406 17.066407h-29.269532l-12.800781-12.800782 8.535156-25.597656h43.519531zm0 0" fill="#ff9801"/><path d="m119.894531 79.957031v39.511719h-42.667969v-43.007812zm0 0" fill="#d84315"/><path d="m102.828125 79.957031v39.511719h-25.601563v-41.644531zm0 0" fill="#ff5722"/><path d="m299.09375 42.753906v34.046875h-93.867188l5.546876-34.046875zm0 0" fill="#d84315"/><path d="m282.027344 42.753906v34.046875h-76.800782l5.546876-34.046875zm0 0" fill="#ff5722"/><path d="m375.46875 25.601562v59.734376h-67.839844c-4.714844 0-8.535156-3.824219-8.535156-8.535157v-42.667969c0-4.710937 3.820312-8.53125 8.535156-8.53125zm0 0" fill="#f57c00"/><path d="m324.265625 25.601562v59.734376h-16.636719c-4.714844 0-8.535156-3.824219-8.535156-8.535157v-42.667969c0-4.710937 3.820312-8.53125 8.535156-8.53125zm0 0" fill="#ff9801"/><path d="m213.761719 55.554688c.046875 5.953124-1.707031 11.785156-5.035157 16.722656-5.570312 8.242187-14.882812 13.171875-24.832031 13.140625-1.417969.128906-2.847656.128906-4.265625 0l-4.011718-1.363281-9.472657-3.074219c-8.027343-2.71875-16.441406-4.101563-24.917969-4.09375-2.851562 0-5.699218.171875-8.53125.511719-4.335937.464843-8.621093 1.324218-12.800781 2.558593-1.191406.25-2.359375.59375-3.5 1.023438l-13.566406 4.4375c-.421875.074219-.851563.105469-1.28125.085937-1.023437 0-2.046875-.085937-2.984375-.085937-2.980469.011719-5.941406-.417969-8.792969-1.277344-4.742187-1.503906-9.046875-4.140625-12.542969-7.679687-7.273437-7.445313-10.144531-18.136719-7.585937-28.222657 2.5625-10.085937 10.1875-18.113281 20.128906-21.1875h.085938c2.804687-.9375 5.75-1.398437 8.707031-1.363281 1.417969-.085938 2.84375-.085938 4.265625 0l13.566406 4.519531c5.300781 1.722657 10.761719 2.894531 16.300781 3.5 2.832032.339844 5.679688.511719 8.53125.511719 8.46875-.003906 16.878907-1.359375 24.917969-4.011719l9.472657-3.15625 4.011718-1.363281c.449219-.074219.90625-.101562 1.363282-.085938 1.023437 0 2.046874.085938 2.902343.085938 11.519531-.039062 22.023438 6.574219 26.964844 16.980469 1.96875 4.003906 2.964844 8.421875 2.902344 12.886719zm0 0" fill="#f57c00"/><path d="m196.695312 55.554688c.109376 13.132812-8.488281 24.757812-21.078124 28.5-2.835938.9375-5.804688 1.398437-8.789063 1.363281-1.421875.128906-2.847656.128906-4.265625 0l-13.484375-4.4375c-5.316406-1.785157-10.808594-2.988281-16.382813-3.582031-2.832031-.339844-5.683593-.511719-8.535156-.511719-7.222656-.003907-14.40625 1.03125-21.332031 3.070312-1.191406.25-2.359375.59375-3.5 1.023438l-9.558594 3.160156c-4.742187-1.503906-9.046875-4.140625-12.542969-7.679687-7.273437-7.445313-10.144531-18.136719-7.585937-28.222657 2.5625-10.085937 10.1875-18.113281 20.128906-21.1875h.085938l9.472656 3.15625c8.011719 2.644531 16.394531 4 24.832031 4.011719 2.851563 0 5.703125-.171875 8.535156-.511719 5.570313-.566406 11.066407-1.738281 16.382813-3.5l13.484375-4.519531c.449219-.074219.90625-.101562 1.363281-.085938 1.023438 0 2.046875.085938 2.902344.085938 2.984375-.027344 5.953125.433594 8.789063 1.363281 7.992187 2.402344 14.597656 8.074219 18.175781 15.617188 1.96875 4.003906 2.964843 8.421875 2.902343 12.886719zm0 0" fill="#ff9801"/><path d="m279.554688 180.140625 132.007812-97.367187 48.214844 48.300781-3.671875 3.070312-123.5625 104.617188zm0 0" fill="#d25627"/><path d="m469.804688 102.402344c4.710937 0 8.53125-3.820313 8.53125-8.535156v-59.734376c0-14.136718-11.460938-25.597656-25.597657-25.597656h-75.777343c-.691407 0-1.378907.085938-2.046876.253906l-26.625 6.65625c-3.808593.941407-6.484374 4.355469-6.484374 8.277344v63.488282c0 3.921874 2.675781 7.335937 6.484374 8.277343l26.625 6.65625c.667969.167969 1.355469.253907 2.046876.257813zm0 0" fill="#d25627"/><path d="m401.535156 106.898438c-.007812 16.285156 11.492188 30.308593 27.464844 33.488281 15.96875 3.183593 31.964844-5.359375 38.199219-20.402344 6.238281-15.042969.980469-32.398437-12.558594-41.445313-13.539063-9.050781-31.585937-7.277343-43.101563 4.234376-6.414062 6.390624-10.011718 15.074218-10.003906 24.125zm0 0" fill="#2c2f38"/><path d="m459.777344 131.074219-3.671875 3.070312-123.5625 104.617188-11.089844-12.285157-41.898437-46.335937 117.246093-86.527344 14.761719-10.839843zm0 0" fill="#d84315"/><path d="m434.175781 131.074219-3.667969 3.070312-109.054687 92.332031-41.898437-46.335937 117.246093-86.527344zm0 0" fill="#ff5722"/><path d="m478.292969 34.132812v59.734376c0 4.714843-3.820313 8.535156-8.53125 8.535156h-92.84375c-.691407-.003906-1.378907-.089844-2.046875-.257813l-26.625-6.65625c-3.808594-.941406-6.480469-4.355469-6.484375-8.277343v-63.488282c.003906-3.921875 2.675781-7.335937 6.484375-8.277344l26.625-6.65625c.667968-.167968 1.355468-.253906 2.046875-.253906h75.777343c14.136719 0 25.597657 11.460938 25.597657 25.597656zm0 0" fill="#d84315"/><path d="m461.226562 34.132812v59.734376c0 4.714843-3.820312 8.535156-8.53125 8.535156h-75.777343c-.691407-.003906-1.378907-.089844-2.046875-.257813l-26.625-6.65625c-3.808594-.941406-6.480469-4.355469-6.484375-8.277343v-63.488282c.003906-3.921875 2.675781-7.335937 6.484375-8.277344l26.625-6.65625c.667968-.167968 1.355468-.253906 2.046875-.253906h58.710937c14.136719 0 25.597656 11.460938 25.597656 25.597656zm0 0" fill="#ff5722"/><path d="m375.46875 392.535156v110.933594h-333.398438c-8.972656-.082031-17.546874-3.722656-23.835937-10.121094-6.292969-6.402344-9.78125-15.039062-9.699219-24.011718v-42.667969c-.082031-8.972657 3.40625-17.613281 9.699219-24.011719 6.289063-6.402344 14.863281-10.042969 23.835937-10.121094zm0 0" fill="#0377bc"/><path d="m349.867188 392.535156v110.933594h-303.53125c-8.972657-.082031-17.546876-3.722656-23.835938-10.121094-6.289062-6.402344-9.777344-15.039062-9.699219-24.011718v-42.667969c-.078125-8.972657 3.410157-17.613281 9.699219-24.011719 6.289062-6.402344 14.863281-10.042969 23.835938-10.121094zm0 0" fill="#02a9f4"/><path d="m102.402344 375.46875h42.664062v76.796875h-42.664062zm0 0" fill="#37474f"/><path d="m102.402344 375.46875h25.597656v76.796875h-25.597656zm0 0" fill="#607d8b"/><path d="m179.199219 452.265625c-.066407 9.398437-7.667969 17-17.066407 17.070313h-76.796874c-9.414063-.03125-17.039063-7.65625-17.070313-17.070313.070313-9.394531 7.671875-16.996094 17.070313-17.066406h76.796874c9.414063.03125 17.039063 7.652343 17.066407 17.066406zm0 0" fill="#424242"/><path d="m162.132812 452.265625c-.070312 9.398437-7.667968 17-17.066406 17.070313h-59.730468c-9.414063-.03125-17.039063-7.65625-17.070313-17.070313.070313-9.394531 7.671875-16.996094 17.070313-17.066406h59.730468c9.414063.03125 17.039063 7.652343 17.066406 17.066406zm0 0" fill="#9e9e9e"/><path d="m311.636719 469.335938h-77.140625c-2.832032 0-5.476563-1.398438-7.066406-3.742188-1.589844-2.34375-1.917969-5.320312-.867188-7.949219l10.238281-25.601562c1.292969-3.25 4.4375-5.378907 7.9375-5.375h56.660157c3.496093-.003907 6.640624 2.125 7.9375 5.375l10.238281 25.601562c1.046875 2.628907.722656 5.605469-.867188 7.949219-1.589843 2.34375-4.238281 3.742188-7.070312 3.742188zm0 0" fill="#9e9e9e"/><path d="m294.570312 469.335938h-60.074218c-2.832032 0-5.476563-1.398438-7.066406-3.742188-1.589844-2.34375-1.917969-5.320312-.867188-7.949219l10.238281-25.601562c1.292969-3.25 4.4375-5.378907 7.9375-5.375h39.59375c3.496094-.003907 6.640625 2.125 7.933594 5.375l10.242187 25.601562c1.046876 2.628907.722657 5.605469-.867187 7.949219s-4.238281 3.742188-7.070313 3.742188zm0 0" fill="#cfd8dc"/><path d="m469.761719 106.921875c.011719 9.058594-3.582031 17.746094-9.984375 24.148437-6.40625 6.40625-15.09375 9.996094-24.148438 9.988282-2.882812.023437-5.753906-.347656-8.535156-1.109375-11.871094-3.046875-21.191406-12.238281-24.40625-24.066407-3.214844-11.832031.175781-24.472656 8.875-33.109374 4.273438-4.316407 9.644531-7.386719 15.53125-8.875 2.78125-.761719 5.652344-1.132813 8.535156-1.109376 9.054688-.011718 17.742188 3.582032 24.148438 9.984376 6.402344 6.40625 9.996094 15.09375 9.984375 24.148437zm0 0" fill="#37474f"/><path d="m452.695312 106.921875c.023438 9.058594-3.570312 17.753906-9.984374 24.152344-4.304688 4.320312-9.703126 7.386719-15.617188 8.875-11.871094-3.046875-21.191406-12.238281-24.40625-24.066407-3.214844-11.832031.175781-24.472656 8.875-33.109374 4.273438-4.316407 9.644531-7.386719 15.53125-8.875 5.929688 1.453124 11.335938 4.523437 15.617188 8.875 6.441406 6.378906 10.039062 15.085937 9.984374 24.148437zm0 0" fill="#607d8b"/><path d="m59.734375 307.199219h128c4.710937 0 8.53125 3.820312 8.53125 8.535156v76.800781c0 4.710938-3.820313 8.53125-8.53125 8.53125h-128c-4.714844 0-8.535156-3.820312-8.535156-8.53125v-76.800781c0-4.714844 3.820312-8.535156 8.535156-8.535156zm0 0" fill="#558b30"/><path d="m59.734375 307.199219h110.933594c4.710937 0 8.53125 3.820312 8.53125 8.535156v76.800781c0 4.710938-3.820313 8.53125-8.53125 8.53125h-110.933594c-4.714844 0-8.535156-3.820312-8.535156-8.53125v-76.800781c0-4.714844 3.820312-8.535156 8.535156-8.535156zm0 0" fill="#8bc34a"/><path d="m503.46875 332.800781v136.535157c.078125 8.972656-3.410156 17.609374-9.699219 24.011718-6.289062 6.398438-14.863281 10.039063-23.839843 10.121094h-102.996094v-133.976562l47.445312-53.757813h72.023438c9.414062.027344 17.035156 7.652344 17.066406 17.066406zm0 0" fill="#283593"/><path d="m486.402344 332.800781v136.535157c.078125 8.972656-3.410156 17.609374-9.699219 24.011718-6.289063 6.398438-14.863281 10.039063-23.839844 10.121094h-81.664062v-133.976562l47.445312-53.757813h50.691407c9.414062.027344 17.035156 7.652344 17.066406 17.066406zm0 0" fill="#3f51b5"/><path d="m280.917969 306.007812 130.21875 96.082032 48.214843-48.296875-3.671874-3.070313-123.050782-104.195312zm0 0" fill="#d25627"/><path d="m332.800781 243.199219c0 35.347656-28.652343 64-64 64-35.347656 0-64-28.652344-64-64 0-35.34375 28.652344-64 64-64 35.347657 0 64 28.65625 64 64zm0 0" fill="#2c2f38"/><path d="m298.667969 243.199219c0 16.496093-13.371094 29.867187-29.867188 29.867187-16.496093 0-29.867187-13.371094-29.867187-29.867187 0-16.492188 13.371094-29.863281 29.867187-29.863281 16.496094 0 29.867188 13.371093 29.867188 29.863281zm0 0" fill="#bdc3c7"/><path d="m460.800781 355.414062v-125.011718c-.070312-9.398438-7.671875-17-17.066406-17.066406-9.414063.027343-17.039063 7.652343-17.066406 17.066406v114.515625zm0 0" fill="#e57e25"/><path d="m459.351562 353.792969-48.214843 48.296875-17.238281-12.714844-112.980469-83.367188 39.082031-44.886718 12.628906-14.59375 123.050782 104.195312zm0 0" fill="#d84315"/><path d="m433.75 353.792969-35.582031 35.582031-112.984375-83.367188 39.082031-44.886718 105.816406 89.601562zm0 0" fill="#ff5722"/><path d="m332.800781 243.199219c0 35.347656-28.652343 64-64 64-2.855469.019531-5.707031-.183594-8.535156-.597657-31.675781-4.355468-55.273437-31.425781-55.273437-63.402343 0-31.972657 23.597656-59.042969 55.273437-63.402344 2.828125-.414063 5.679687-.613281 8.535156-.597656 35.347657 0 64 28.65625 64 64zm0 0" fill="#37474f"/><path d="m315.734375 243.199219c0-35.015625-24.832031-63.402344-55.46875-63.402344-30.632813 0-55.464844 28.386719-55.464844 63.402344 0 35.019531 24.832031 63.402343 55.464844 63.402343 30.636719 0 55.46875-28.382812 55.46875-63.402343zm0 0" fill="#607d8b"/><path d="m298.667969 243.199219c0 16.496093-13.371094 29.867187-29.867188 29.867187-2.894531.011719-5.769531-.417968-8.535156-1.277344-12.65625-3.753906-21.34375-15.382812-21.34375-28.589843 0-13.203125 8.6875-24.832031 21.34375-28.585938 2.765625-.859375 5.640625-1.292969 8.535156-1.277343 16.496094 0 29.867188 13.371093 29.867188 29.863281zm0 0" fill="#9e9e9e"/><path d="m281.601562 243.199219c-.035156 13.191406-8.699218 24.800781-21.335937 28.589843-12.65625-3.753906-21.34375-15.382812-21.34375-28.589843 0-13.203125 8.6875-24.832031 21.34375-28.585938 12.636719 3.789063 21.300781 15.398438 21.335937 28.585938zm0 0" fill="#cfd8dc"/><path d="m460.800781 230.402344v125.011718l-17.066406-5.207031-17.066406-5.289062v-114.515625c0-9.425782 7.640625-17.066406 17.066406-17.066406 9.394531.066406 16.996094 7.667968 17.066406 17.066406zm0 0" fill="#f57c00"/><path d="m443.734375 230.402344v119.804687l-17.066406-5.289062v-114.515625c.003906-6.09375 3.257812-11.71875 8.53125-14.765625 1.292969.738281 2.472656 1.660156 3.5 2.730469 3.242187 3.164062 5.058593 7.503906 5.035156 12.035156zm0 0" fill="#ff9801"/><path d="m469.335938 377.941406c.007812 9.058594-3.582032 17.746094-9.988282 24.148438-6.402344 6.40625-15.089844 9.996094-24.148437 9.984375-2.878907.027343-5.753907-.347657-8.53125-1.109375-11.859375-3.058594-21.167969-12.242188-24.394531-24.054688-3.226563-11.816406.121093-24.453125 8.777343-33.117187 4.339844-4.273438 9.722657-7.335938 15.617188-8.875 2.777343-.761719 5.652343-1.136719 8.53125-1.109375 9.058593-.011719 17.746093 3.582031 24.148437 9.984375 6.40625 6.40625 9.996094 15.09375 9.988282 24.148437zm0 0" fill="#37474f"/><path d="m452.265625 377.941406c.042969 15.574219-10.507813 29.179688-25.597656 33.023438-11.859375-3.058594-21.167969-12.242188-24.394531-24.054688-3.226563-11.816406.121093-24.453125 8.777343-33.117187 4.339844-4.273438 9.722657-7.335938 15.617188-8.875 5.890625 1.539062 11.277343 4.601562 15.617187 8.875 6.378906 6.417969 9.964844 15.097656 9.980469 24.148437zm0 0" fill="#607d8b"/><path d="m307.199219 243.199219c0-21.207031-17.191407-38.398438-38.398438-38.398438s-38.398437 17.191407-38.398437 38.398438c0 21.210937 17.191406 38.402343 38.398437 38.402343 21.199219-.023437 38.375-17.203124 38.398438-38.402343zm-59.730469 0c0-11.78125 9.550781-21.332031 21.332031-21.332031s21.332031 9.550781 21.332031 21.332031c0 11.785156-9.550781 21.335937-21.332031 21.335937s-21.332031-9.550781-21.332031-21.335937zm0 0"/><path d="m108.433594 335.300781c-3.332032-3.332031-8.734375-3.332031-12.066406 0l-17.066407 17.066407c-2.21875 2.144531-3.109375 5.316406-2.328125 8.300781.78125 2.980469 3.113282 5.3125 6.097656 6.09375 2.980469.78125 6.15625-.109375 8.296876-2.328125l17.066406-17.066406c3.332031-3.332032 3.332031-8.734376 0-12.066407zm0 0"/><path d="m113.433594 372.96875c3.332031 3.328125 8.734375 3.328125 12.066406 0l25.601562-25.601562c3.234376-3.347657 3.1875-8.671876-.105468-11.960938-3.292969-3.292969-8.613282-3.339844-11.960938-.105469l-25.601562 25.601563c-3.332032 3.332031-3.332032 8.734375 0 12.066406zm0 0"/><path d="m486.402344 307.199219h-17.066406v-76.796875c-.023438-10.824219-6.859376-20.457032-17.070313-24.046875v-57.78125l9.320313-7.894531 3.660156-3.0625c.070312-.050782.09375-.136719.152344-.1875.0625-.050782.308593-.230469.445312-.359376 7.554688-7.570312 11.957031-17.726562 12.324219-28.414062 5.347656-3.007812 8.671875-8.652344 8.703125-14.789062v-59.734376c0-18.851562-15.28125-34.132812-34.132813-34.132812h-75.777343c-1.390626 0-2.773438.175781-4.121094.519531l-26.582032 6.632813c-5.210937 1.289062-9.503906 4.964844-11.578124 9.914062h-27.007813c-9.425781 0-17.070313 7.640625-17.070313 17.066406v.085938h-74.84375c-7.125-10.601562-19.046874-16.972656-31.820312-17.007812l-2.902344-.144532c-.996094-.007812-1.992187.070313-2.976562.230469-.375.078125-.742188.179687-1.109375.292969l-13.433594 4.511718c-14.4375 4.726563-30.007813 4.726563-44.449219 0l-13.484375-4.53125c-.527343-.171874-1.070312-.296874-1.621093-.375-1.417969-.136718-2.84375-.167968-4.265626-.09375h-1.117187c-21.207031 0-38.398437 17.191407-38.398437 38.398438.019531 8.707031 3.03125 17.144531 8.53125 23.894531v31.574219c-3.464844.183594-6.46875 2.464844-7.578126 5.75l-2.789062 8.378906-21.648438 19.96875-12.117187 12.117188c-9.949219 9.988281-9.949219 26.140625 0 36.132812l32.074219 32.082032c4.878906 4.894531 12.226562 6.359374 18.613281 3.71875 6.382813-2.644532 10.542969-8.875 10.539063-15.78125v-27.734376c0-2.265624-.902344-4.433593-2.5-6.035156l-4.378907-4.375 4.523438-4.523437h29.457031l4.949219 4.941406-3.953125 3.957031c-1.597656 1.601563-2.5 3.769532-2.5 6.035156v27.734376c-.011719 6.886718 4.144531 13.097656 10.515625 15.714843 6.394531 2.660157 13.757812 1.1875 18.644531-3.71875l31.65625-31.648437c4.800781-4.789063 7.496094-11.289063 7.496094-18.066406 0-6.777344-2.695313-13.277344-7.496094-18.066407l-12.320312-12.3125-20.265626-18.945312-3.160156-9.460938c-1.152344-3.453125-4.363281-5.792969-8.003906-5.828125v-24.125c11.679688-2.304687 23.757812-1.53125 35.046875 2.234375l13.484375 4.445313c.351562.117187.714844.210937 1.082031.273437.980469.1875 1.980469.277344 2.980469.265625.722656 0 1.363281 0 1.917969-.066406l.957031-.042969c8.796875-.03125 17.320312-3.085937 24.132812-8.652343h84.941407c3.019531 5.25 8.601562 8.5 14.660156 8.53125h26.988281c2.0625 4.957031 6.351563 8.640624 11.5625 9.925781l16.8125 4.207031-85.742187 63.230469c-2.820313-.351563-5.652344-.539063-8.492188-.5625-40.058593 0-72.535156 32.472656-72.535156 72.53125 0 40.0625 32.476563 72.535156 72.535156 72.535156 3.3125-.023437 6.621094-.277344 9.898438-.757813l79.703125 58.785157v10.238281h-153.601563v-68.265625c0-9.425781-7.640625-17.066406-17.066406-17.066406h-128c-9.425781 0-17.066406 7.640625-17.066406 17.066406v68.265625h-.597657c-23.386718.191406-42.207031 19.28125-42.070312 42.667969v42.667969c-.136719 23.386718 18.683594 42.472656 42.070312 42.664062h427.859376c23.390624-.191406 42.207031-19.277344 42.070312-42.664062v-136.535157c0-14.136719-11.460938-25.601562-25.597656-25.601562zm-69.300782 88.859375c-7.324218-7.320313-9.519531-18.332032-5.558593-27.902344 3.960937-9.566406 13.296875-15.808594 23.652343-15.808594 10.355469 0 19.691407 6.242188 23.65625 15.808594 3.960938 9.570312 1.765626 20.582031-5.558593 27.902344-10.117188 9.691406-26.074219 9.691406-36.191407 0zm26.632813-174.191406c2.300781-.003907 4.503906.945312 6.082031 2.621093 1.585938 1.554688 2.472656 3.691407 2.449219 5.914063v106.210937l-17.066406-14.445312v-91.765625c0-4.714844 3.820312-8.535156 8.535156-8.535156zm-8.535156-15.496094c-10.191407 3.601562-17.019531 13.21875-17.066407 24.03125v76.796875h-.613281l-76.183593-64.511719v-.152344l93.863281-79.546875zm-17.628907-117.582032c10.035157-9.714843 26-9.59375 35.886719.269532 9.886719 9.863281 10.046875 25.832031.355469 35.886718l-.382812.332032c-10.152344 9.371094-25.839844 9.25-35.839844-.28125-4.804688-4.800782-7.5-11.3125-7.5-18.101563 0-6.792969 2.695312-13.304687 7.5-18.105469zm-126.96875-20.523437h-70.507812c1.980469-5.453125 2.664062-11.296875 1.996094-17.066406h68.511718zm-186.09375 25.601563c.347657-.066407.6875-.152344 1.023438-.265626l5.871094-1.9375v19.269532h-25.597656v-19.308594c4.097656 1.511719 8.429687 2.308594 12.796874 2.363281l2.910157.074219c1.003906.027344 2.007812-.035156 2.996093-.195312zm11.8125 59.734374h-34.988281l-10.847656-10.8125 4.917969-14.789062h46.828125l4.917969 14.753906zm-47.609374 59.734376-32.085938-32.085938c-3.285156-3.324219-3.285156-8.675781 0-12l11.84375-11.886719 6.503906-5.972656 11.808594 11.820313-3.140625 3.128906c-4.828125 5.023437-4.753906 12.992187.171875 17.921875l4.925781 4.921875zm91.445312-43.640626c3.296875 3.296876 3.296875 8.648438 0 11.945313l-31.6875 31.695313v-24.167969l4.5-4.496094c4.960938-4.992187 4.960938-13.058594 0-18.050781l-2.757812-2.746094 11.894531-11.894531 5.972656 5.554687zm21.808594-92.671874c-.203125 0-.417969 0-.554688.050781l-12.449218-4.148438c-8.910157-3.015625-18.257813-4.550781-27.664063-4.539062-7.832031-.027344-15.625 1.070312-23.144531 3.261719-1.507813.324218-2.992188.742187-4.445313 1.253906l-12.414062 4.085937-2.664063-.066406c-11.78125 0-21.332031-9.554687-21.332031-21.335937s9.550781-21.332032 21.332031-21.332032l1.800782-.050781h.851562l12.46875 4.179687c17.933594 5.90625 37.285156 5.90625 55.21875 0l12.382812-4.15625 2.652344.078126c8.289063-.027344 15.828125 4.796874 19.277344 12.332031 1.386719 2.796875 2.09375 5.878906 2.058594 9 0 11.785156-9.554688 21.335937-21.335938 21.335937-.722656-.050781-1.390625-.019531-2.039062.015625zm125.707031-42.890626h25.597656v42.667969h-25.597656zm69.304687 59.734376-26.640624-6.65625v-63.496094l26.625-6.648438h75.777343c9.425781 0 17.066407 7.640625 17.066407 17.066406v47.386719c-7.210938-9.828125-18.3125-16.074219-30.457032-17.128906-12.144531-1.054687-24.15625 3.179687-32.957031 11.617187l-24.242187 17.859376zm10.789063 17.066406h5.628906c1.53125 18.304687 14.789063 33.484375 32.71875 37.460937l-87.78125 74.328125c-6.0625-20.363281-20.710937-37.0625-40.109375-45.722656zm-174.429687 132.265625c-.007813-29.210938 22.648437-53.421875 51.800781-55.351563 29.148437-1.929687 54.800781 19.082032 58.648437 48.039063 3.847656 28.960937-15.425781 55.941406-44.070312 61.6875h-.136719c-16.277344 3.242187-33.152344-.984375-45.984375-11.515625-12.828125-10.53125-20.265625-26.257813-20.257812-42.859375zm125.25 19.542969 79.546874 67.363281v8.8125c-15.515624 6.695312-25.574218 21.964843-25.597656 38.863281l-93.277344-68.875c19.199219-8.933594 33.558594-25.789062 39.328126-46.164062zm-278.851563 52.992187h128v76.800781h-128zm42.667969 128h59.730468c4.714844 0 8.535157 3.820313 8.535157 8.53125 0 4.714844-3.820313 8.535156-8.535157 8.535156h-76.796874c-4.714844 0-8.535157-3.820312-8.535157-8.535156 0-4.710937 3.820313-8.53125 8.535157-8.53125zm34.132812-17.066406h-25.601562v-17.066407h25.601562zm-119.46875 42.667969v-42.667969c-.144531-13.96875 11.039063-25.417969 25.003906-25.601563h2.96875c3.023438 5.265625 8.625 8.515625 14.695313 8.535156h34.132813v17.066407h-8.53125c-14.140626 0-25.601563 11.460937-25.601563 25.597656 0 14.140625 11.460937 25.601563 25.601563 25.601563h76.796874c14.140626 0 25.601563-11.460938 25.601563-25.601563 0-14.136719-11.460937-25.597656-25.601563-25.597656h-8.53125v-17.066407h34.132813c6.070313-.019531 11.667969-3.269531 14.695313-8.535156h155.972656v93.867188h-316.332032c-13.964843-.183594-25.148437-11.632813-25.003906-25.597656zm452.863282 25.597656h-94.460938v-108.550782l30.222656 22.304688c15.933594 15.472656 41.089844 16.082031 57.757813 1.398438 16.664062-14.683594 19.226562-39.714844 5.886719-57.472657v-28.347656h17.066406c4.710937 0 8.53125 3.824219 8.53125 8.535156v136.535157c.148437 13.964843-11.035156 25.414062-25.003906 25.597656zm0 0"/><path d="m327.511719 454.46875-10.242188-25.601562c-2.566406-6.496094-8.855469-10.757813-15.847656-10.734376h-56.710937c-6.988282-.023437-13.277344 4.238282-15.847657 10.734376l-10.238281 25.601562c-2.101562 5.257812-1.457031 11.214844 1.71875 15.902344 3.171875 4.6875 8.464844 7.496094 14.128906 7.496094h77.191406c5.660157 0 10.953126-2.808594 14.128907-7.496094s3.816406-10.644532 1.71875-15.902344zm-93.03125 6.332031 10.238281-25.601562h56.703125l10.242187 25.601562zm0 0"/><path d="m460.800781 435.199219h-42.667969c-4.710937 0-8.53125 3.820312-8.53125 8.535156 0 4.710937 3.820313 8.53125 8.53125 8.53125h42.667969c4.710938 0 8.535157-3.820313 8.535157-8.53125 0-4.714844-3.824219-8.535156-8.535157-8.535156zm0 0"/></svg>