<svg height="512pt" viewBox="-60 0 512 512" width="512pt" xmlns="http://www.w3.org/2000/svg"><path d="m102.996094 366.933594v119.464844c0 9.425781-7.640625 17.066406-17.066406 17.066406-9.425782 0-17.066407-7.640625-17.066407-17.066406v-119.464844zm0 0" fill="#0377bc"/><path d="m85.929688 366.933594v119.464844c-.003907 6.09375-3.257813 11.71875-8.53125 14.765624-5.277344-3.046874-8.527344-8.671874-8.535157-14.765624v-119.464844zm0 0" fill="#02a9f4"/><path d="m188.332031 366.933594v119.464844c-.03125 9.414062-7.652343 17.039062-17.066406 17.066406h-17.066406c-9.425781 0-17.070313-7.640625-17.070313-17.066406v-119.464844zm0 0" fill="#0377bc"/><path d="m171.265625 366.933594v119.464844c0 9.425781-7.644531 17.066406-17.066406 17.066406-9.425781 0-17.070313-7.640625-17.070313-17.066406v-119.464844zm0 0" fill="#02a9f4"/><g fill="#0377bc"><path d="m17.664062 153.601562h17.066407c4.714843 0 8.535156 3.820313 8.535156 8.53125v51.199219c0 4.714844-3.820313 8.535157-8.535156 8.535157h-17.066407c-4.714843 0-8.535156-3.820313-8.535156-8.535157v-51.199219c0-4.710937 3.820313-8.53125 8.535156-8.53125zm0 0"/><path d="m85.929688 128h17.066406c4.714844 0 8.535156 3.820312 8.535156 8.535156v76.796875c0 4.714844-3.820312 8.535157-8.535156 8.535157h-17.066406c-4.710938 0-8.53125-3.820313-8.53125-8.535157v-76.796875c0-4.714844 3.820312-8.535156 8.53125-8.535156zm0 0"/><path d="m154.199219 128h17.066406c4.710937 0 8.53125 3.820312 8.53125 8.535156v76.796875c0 4.714844-3.820313 8.535157-8.53125 8.535157h-17.066406c-4.714844 0-8.535157-3.820313-8.535157-8.535157v-76.796875c0-4.714844 3.820313-8.535156 8.535157-8.535156zm0 0"/><path d="m222.464844 145.066406h17.066406c4.710938 0 8.53125 3.820313 8.53125 8.535156v59.730469c0 4.714844-3.820312 8.535157-8.53125 8.535157h-17.066406c-4.714844 0-8.535156-3.820313-8.535156-8.535157v-59.730469c0-4.714843 3.820312-8.535156 8.535156-8.535156zm0 0"/></g><path d="m26.199219 162.132812v51.199219c0 4.714844-3.824219 8.535157-8.535157 8.535157-4.714843 0-8.535156-3.820313-8.535156-8.535157v-51.199219c0-4.710937 3.820313-8.53125 8.535156-8.53125 4.710938 0 8.535157 3.820313 8.535157 8.53125zm0 0" fill="#02a9f4"/><path d="m94.464844 136.535156v76.796875c0 4.714844-3.820313 8.535157-8.535156 8.535157-4.710938 0-8.53125-3.820313-8.53125-8.535157v-76.796875c0-4.714844 3.820312-8.535156 8.53125-8.535156 4.714843 0 8.535156 3.820312 8.535156 8.535156zm0 0" fill="#02a9f4"/><path d="m162.730469 136.535156v76.796875c0 4.714844-3.820313 8.535157-8.53125 8.535157-4.714844 0-8.535157-3.820313-8.535157-8.535157v-76.796875c0-4.714844 3.820313-8.535156 8.535157-8.535156 4.710937 0 8.53125 3.820312 8.53125 8.535156zm0 0" fill="#02a9f4"/><path d="m230.996094 153.601562v59.730469c0 4.714844-3.820313 8.535157-8.53125 8.535157-4.714844 0-8.535156-3.820313-8.535156-8.535157v-59.730469c0-4.714843 3.820312-8.535156 8.535156-8.535156 4.710937 0 8.53125 3.820313 8.53125 8.535156zm0 0" fill="#02a9f4"/><path d="m43.265625 68.265625v34.132813c0 9.425781-7.644531 17.066406-17.066406 17.066406-9.425781 0-17.070313-7.640625-17.070313-17.066406v-34.132813c0-9.425781 7.644532-17.066406 17.070313-17.066406 4.527343-.023438 8.867187 1.792969 12.03125 5.035156 3.203125 3.1875 5.015625 7.511719 5.035156 12.03125zm0 0" fill="#00838f"/><path d="m111.53125 25.601562v59.730469c0 9.425781-7.640625 17.066407-17.066406 17.066407-9.425782 0-17.066406-7.640626-17.066406-17.066407v-59.730469c0-9.425781 7.640624-17.066406 17.066406-17.066406 4.527344-.027344 8.871094 1.792969 12.03125 5.03125 3.203125 3.1875 5.015625 7.515625 5.035156 12.035156zm0 0" fill="#00838f"/><path d="m179.796875 25.601562v59.730469c0 9.425781-7.640625 17.066407-17.066406 17.066407s-17.066407-7.640626-17.066407-17.066407v-59.730469c0-9.425781 7.640626-17.066406 17.066407-17.066406 4.527343-.027344 8.871093 1.792969 12.03125 5.03125 3.207031 3.1875 5.015625 7.515625 5.035156 12.035156zm0 0" fill="#00838f"/><path d="m248.0625 51.199219v42.667969c0 9.425781-7.640625 17.066406-17.066406 17.066406-9.425782 0-17.066406-7.640625-17.066406-17.066406v-42.667969c0-9.425781 7.640624-17.066407 17.066406-17.066407 4.527344-.023437 8.871094 1.792969 12.035156 5.035157 3.203125 3.1875 5.015625 7.511719 5.03125 12.03125zm0 0" fill="#00838f"/><path d="m26.199219 68.265625v34.132813c-.007813 6.09375-3.261719 11.71875-8.535157 14.765624-5.273437-3.046874-8.527343-8.671874-8.535156-14.765624v-34.132813c.007813-6.089844 3.261719-11.714844 8.535156-14.761719 1.292969.738282 2.46875 1.65625 3.5 2.730469 3.203126 3.1875 5.015626 7.511719 5.035157 12.03125zm0 0" fill="#00bcd4"/><path d="m94.464844 25.601562v59.730469c-.007813 6.09375-3.257813 11.71875-8.535156 14.765625-5.273438-3.046875-8.527344-8.671875-8.53125-14.765625v-59.730469c.003906-6.09375 3.257812-11.71875 8.53125-14.765624 1.292968.738281 2.472656 1.660156 3.5 2.730468 3.203124 3.1875 5.015624 7.515625 5.035156 12.035156zm0 0" fill="#00bcd4"/><path d="m162.730469 25.601562v59.730469c-.007813 6.09375-3.257813 11.71875-8.53125 14.765625-5.277344-3.046875-8.527344-8.671875-8.535157-14.765625v-59.730469c.007813-6.09375 3.257813-11.71875 8.535157-14.765624 1.289062.738281 2.46875 1.660156 3.496093 2.730468 3.207032 3.1875 5.015626 7.515625 5.035157 12.035156zm0 0" fill="#00bcd4"/><path d="m230.996094 51.199219v42.667969c-.003906 6.089843-3.257813 11.714843-8.53125 14.761718-5.277344-3.046875-8.527344-8.671875-8.535156-14.761718v-42.667969c.007812-6.089844 3.257812-11.714844 8.535156-14.761719 1.289062.738281 2.46875 1.65625 3.496094 2.730469 3.207031 3.1875 5.015624 7.511719 5.035156 12.03125zm0 0" fill="#00bcd4"/><path d="m247.464844 264.535156v59.730469c0 28.277344-22.921875 51.199219-51.199219 51.199219h-136.53125c-28.277344 0-51.199219-22.921875-51.199219-51.199219v-59.730469c0-4.714844 3.820313-8.535156 8.53125-8.535156h221.867188c4.710937 0 8.53125 3.820312 8.53125 8.535156zm0 0" fill="#00838f"/><path d="m230.398438 264.535156v59.730469c0 28.277344-22.921876 51.199219-51.199219 51.199219h-119.464844c-28.277344 0-51.199219-22.921875-51.199219-51.199219v-59.730469c0-4.714844 3.820313-8.535156 8.53125-8.535156h204.800782c4.710937 0 8.53125 3.820312 8.53125 8.535156zm0 0" fill="#00bcd4"/><path d="m342.101562 255.914062-26.28125 43.949219c-2.40625 4.050781-7.640624 5.386719-11.691406 2.984375l-14.59375-8.789062c-.996094-.558594-1.84375-1.347656-2.472656-2.304688-2.078125-2.726562-2.28125-6.449218-.511719-9.386718l26.28125-43.945313c2.421875-4.027344 7.632813-5.359375 11.691407-2.988281l4.351562 2.644531 10.324219 6.144531c4.023437 2.433594 5.320312 7.660156 2.902343 11.691406zm0 0" fill="#0377bc"/><path d="m328.59375 247.382812-26.285156 43.945313c-2.402344 4.050781-7.636719 5.390625-11.6875 2.988281l-4.269532-2.5625c-2.074218-2.726562-2.277343-6.449218-.511718-9.386718l26.285156-43.945313c2.421875-4.027344 7.632812-5.359375 11.6875-2.988281l4.355469 2.644531c2.007812 2.730469 2.175781 6.402344.425781 9.304687zm0 0" fill="#02a9f4"/><path d="m384 163.070312c-.007812 1.355469-.179688 2.703126-.511719 4.011719l-7.9375 33.195313c-1.046875 4.402344-3.808593 8.199218-7.667969 10.554687-3.863281 2.355469-8.503906 3.074219-12.894531 1.988281-3.078125-.703124-5.890625-2.273437-8.109375-4.523437-4.15625-4.21875-5.863281-10.273437-4.523437-16.039063l7.9375-33.195312c2.324219-9.109375 11.484375-14.710938 20.652343-12.628906 7.664063 1.875 13.058594 8.746094 13.054688 16.636718zm0 0" fill="#00838f"/><path d="m368.359375 158.804688c-.007813 1.351562-.179687 2.699218-.511719 4.011718l-7.9375 33.195313c-1.371094 5.886719-5.804687 10.582031-11.605468 12.285156-4.15625-4.21875-5.863282-10.273437-4.523438-16.039063l7.9375-33.195312c1.40625-5.898438 5.871094-10.589844 11.691406-12.289062 3.15625 3.210937 4.929688 7.527343 4.949219 12.03125zm0 0" fill="#00bcd4"/><path d="m59.734375 290.132812c0 4.714844-3.820313 8.535157-8.535156 8.535157-4.710938 0-8.53125-3.820313-8.53125-8.535157 0-4.710937 3.820312-8.53125 8.53125-8.53125 4.714843 0 8.535156 3.820313 8.535156 8.53125zm0 0"/><path d="m93.867188 298.667969c-4.714844 0-8.535157-3.820313-8.535157-8.535157 0-4.710937 3.820313-8.53125 8.535157-8.53125 4.710937 0 8.53125 3.820313 8.53125 8.53125 0 4.714844-3.820313 8.535157-8.53125 8.535157"/><path d="m162.132812 298.667969c-4.710937 0-8.53125-3.820313-8.53125-8.535157 0-4.710937 3.820313-8.53125 8.53125-8.53125 4.714844 0 8.535157 3.820313 8.535157 8.53125 0 4.714844-3.820313 8.535157-8.535157 8.535157"/><path d="m204.800781 298.667969c-4.714843 0-8.535156-3.820313-8.535156-8.535157 0-4.710937 3.820313-8.53125 8.535156-8.53125 4.710938 0 8.53125 3.820313 8.53125 8.53125 0 4.714844-3.820312 8.535157-8.53125 8.535157"/><path d="m359.03125 221.867188c11.820312-.019532 22.089844-8.132813 24.847656-19.628907l7.945313-33.175781c1.585937-6.605469.480469-13.574219-3.074219-19.363281-3.550781-5.789063-9.261719-9.929688-15.867188-11.511719-13.75-3.285156-27.5625 5.195312-30.851562 18.945312l-7.953125 33.160157c-1.589844 6.601562-.476563 13.566406 3.089844 19.34375 1.070312 1.703125 2.335937 3.269531 3.773437 4.679687-2.996094 5.117188-6.289062 10.535156-9.335937 15.417969l-10-5.972656c-1.945313-1.167969-4.269531-1.511719-6.46875-.960938-2.195313.550781-4.085938 1.953125-5.25 3.894531l-35.035157 58.601563c-1.164062 1.941406-1.503906 4.269531-.953124 6.464844.554687 2.195312 1.960937 4.082031 3.902343 5.242187l7.332031 4.375c-8.515624 5.847656-18.894531 8.332032-29.132812 6.980469v-43.824219c0-9.425781-7.640625-17.070312-17.066406-17.070312h-11.792969l8.53125-17.066406h3.832031c9.425782 0 17.066406-7.640626 17.066406-17.066407v-59.730469c0-9.425781-7.640624-17.066406-17.066406-17.066406v-18.636718c10.191406-3.605469 17.023438-13.222657 17.066406-24.03125v-42.667969c0-14.136719-11.460937-25.597657-25.597656-25.597657-14.140625 0-25.601562 11.460938-25.601562 25.597657v42.667969c.046875 10.808593 6.875 20.425781 17.066406 24.03125v18.636718c-9.425781 0-17.066406 7.640625-17.066406 17.066406v59.730469c.035156 7.328125 4.742187 13.816407 11.699218 16.121094l-9.011718 18.011719h-37.390625v-17.066406h.570312c9.425781 0 17.066407-7.640626 17.066407-17.066407v-76.796875c0-9.425781-7.640626-17.070312-17.066407-17.070312v-10.101563c10.191407-3.601562 17.023438-13.21875 17.066407-24.03125v-59.730469c0-14.140624-11.460938-25.601562-25.601563-25.601562-14.136719 0-25.597656 11.460938-25.597656 25.601562v59.730469c.042969 10.8125 6.875 20.429688 17.066406 24.03125v10.101563c-9.425781 0-17.066406 7.644531-17.066406 17.070312v76.796875c.027343 9.183594 7.316406 16.699219 16.496093 17.007813v17.125h-51.203124v-17.066406h.574218c9.425782 0 17.066406-7.640626 17.066406-17.066407v-76.796875c0-9.425781-7.640624-17.070312-17.066406-17.070312v-10.101563c10.191406-3.601562 17.019532-13.21875 17.066406-24.03125v-59.730469c0-14.140624-11.460937-25.601562-25.601562-25.601562-14.136719 0-25.597656 11.460938-25.597656 25.601562v59.730469c.042968 10.8125 6.875 20.429688 17.066406 24.03125v10.101563c-9.425781 0-17.066406 7.644531-17.066406 17.070312v76.796875c.027344 9.183594 7.316406 16.699219 16.492187 17.007813v17.125h-37.390625l-8.851562-17.703125c7.453125-1.984375 12.652344-8.71875 12.683594-16.429688v-51.199219c0-9.425781-7.644532-17.066406-17.070313-17.066406v-18.636718c10.195313-3.601563 17.023437-13.21875 17.070313-24.03125v-34.132813c0-14.136719-11.464844-25.597656-25.601563-25.597656s-25.601563 11.460937-25.601563 25.597656v34.132813c.046876 10.8125 6.875 20.429687 17.066407 24.03125v18.636718c-9.425781 0-17.066407 7.640625-17.066407 17.066406v51.199219c0 9.425781 7.640626 17.066407 17.066407 17.066407h2.691406l8.53125 17.066406h-11.792969c-9.425781 0-17.066406 7.644531-17.066406 17.070312v59.730469c.0429688 32.972656 26.761719 59.691406 59.734375 59.734375h.570313v102.398438c0 14.140624 11.460937 25.601562 25.601562 25.601562 14.136719 0 25.597656-11.460938 25.597656-25.601562v-102.398438h17.066406v102.398438c0 14.140624 11.464844 25.601562 25.601563 25.601562h17.066406c14.136719 0 25.601563-11.460938 25.601563-25.601562v-102.398438c32.265625-.355469 58.425781-26.257812 59.101562-58.523438 1.644532.121094 3.414063.207032 5.332032.207032 14.589843.511718 28.757812-4.933594 39.253906-15.078125l6.585937 3.941406c4.042969 2.417969 9.277344 1.105469 11.699219-2.933594l35.039062-58.601562c1.164063-1.941407 1.507813-4.265625.953126-6.460938-.550782-2.195312-1.953126-4.082031-3.898438-5.246093l-4.632812-2.765626c3.347656-5.367187 6.945312-11.289062 10.242187-16.945312.800781.058594 1.664063.273438 2.515625.273438zm-136.59375-170.667969c0-4.710938 3.820312-8.53125 8.535156-8.53125 4.710938 0 8.53125 3.820312 8.53125 8.53125v42.667969c0 4.710937-3.820312 8.53125-8.53125 8.53125-4.714844 0-8.535156-3.820313-8.535156-8.53125zm0 102.402343h17.066406v59.730469h-17.066406zm-68.265625-128c0-4.714843 3.820313-8.535156 8.53125-8.535156 4.714844 0 8.535156 3.820313 8.535156 8.535156v59.730469c0 4.714844-3.820312 8.535157-8.535156 8.535157-4.710937 0-8.53125-3.820313-8.53125-8.535157zm0 110.933594h17.066406v76.796875h-17.066406zm-68.265625-110.933594c0-4.714843 3.820312-8.535156 8.53125-8.535156 4.714844 0 8.535156 3.820313 8.535156 8.535156v59.730469c0 4.714844-3.820312 8.535157-8.535156 8.535157-4.710938 0-8.53125-3.820313-8.53125-8.535157zm0 110.933594h17.066406v76.796875h-17.066406zm-68.269531-68.269531c0-4.710937 3.820312-8.53125 8.535156-8.53125 4.710937 0 8.53125 3.820313 8.53125 8.53125v34.132813c0 4.714843-3.820313 8.535156-8.53125 8.535156-4.714844 0-8.535156-3.820313-8.535156-8.535156zm0 93.867187h17.066406v51.199219h-17.066406zm76.800781 324.265626c0 4.714843-3.820312 8.535156-8.53125 8.535156-4.714844 0-8.535156-3.820313-8.535156-8.535156v-102.398438h17.066406zm85.335938 0c0 4.714843-3.820313 8.535156-8.535157 8.535156h-17.066406c-4.714844 0-8.535156-3.820313-8.535156-8.535156v-102.398438h34.136719zm59.160156-162.132813c-.027344 23.554687-19.113282 42.640625-42.667969 42.667969h-8.53125v-8.535156h8.53125c9.425781 0 17.066406-7.640626 17.066406-17.066407v-25.597656c0-4.714844-3.820312-8.535156-8.53125-8.535156-4.714843 0-8.535156 3.820312-8.535156 8.535156v25.597656h-8.53125c-9.425781 0-17.066406 7.640625-17.066406 17.066407v8.535156h-17.066407v-25.601563c9.425782 0 17.066407-7.640625 17.066407-17.066406v-8.53125c0-4.714844-3.820313-8.535156-8.535157-8.535156-4.710937 0-8.53125 3.820312-8.53125 8.535156v8.53125c-9.425781 0-17.066406 7.640625-17.066406 17.066406v25.601563h-17.070312v-25.601563c0-9.425781-7.640625-17.066406-17.066406-17.066406v-8.53125c0-4.714844-3.820313-8.535156-8.53125-8.535156-4.714844 0-8.535157 3.820312-8.535157 8.535156v8.53125c0 9.425781 7.640625 17.066406 17.066407 17.066406v25.601563h-17.066407v-8.535156c0-9.425782-7.640625-17.066407-17.066406-17.066407h-8.53125v-25.597656c0-4.714844-3.820313-8.535156-8.535156-8.535156-4.710938 0-8.53125 3.820312-8.53125 8.535156v25.597656c0 9.425781 7.640625 17.066407 17.066406 17.066407h8.53125v8.535156h-8.53125c-23.554687-.027344-42.640625-19.113282-42.667969-42.667969v-59.730469h221.867188zm69.597656-28.765625-14.660156-8.78125 26.292968-43.953125 14.640626 8.761719zm42.1875-101.222656 7.945312-33.203125c.914063-3.828125 4.332032-6.539063 8.269532-6.550781.671875 0 1.335937.082031 1.988281.246093 2.203125.523438 4.109375 1.902344 5.296875 3.832031 1.183594 1.933594 1.554688 4.253907 1.027344 6.457032l-7.945313 33.179687c-1.09375 4.566407-5.667969 7.390625-10.242187 6.324219-4.578125-1.101562-7.398438-5.703125-6.304688-10.285156zm0 0"/></svg>