<svg height="512pt" viewBox="0 -30 512.10507 512" width="512pt" xmlns="http://www.w3.org/2000/svg"><path d="m242.601562 210.0625v.085938l-39.59375 15.871093-2.558593-5.800781-54.273438-121.855469 20.992188-19.542969 12.03125-11.261718zm0 0" fill="#d84315"/><path d="m225.535156 210.0625v.085938l-25.085937 10.070312-54.273438-121.855469 20.992188-19.542969zm0 0" fill="#ff5722"/><path d="m467.285156 123.195312-12.457031-12.460937-47.875-47.871094c-6.695313-6.597656-17.449219-6.597656-24.148437 0-9.214844 9.152344-14.558594 21.492188-14.933594 34.476563-.070313.59375-.097656 1.191406-.085938 1.789062-.039062 12.351563 4.457032 24.285156 12.628906 33.539063.730469.941406 1.527344 1.824219 2.390626 2.644531l12.03125 12.03125c9.605468 9.613281 22.636718 15.015625 36.226562 15.015625 13.585938 0 26.621094-5.402344 36.222656-15.015625 3.203125-3.199219 5.003906-7.542969 5.003906-12.074219s-1.800781-8.875-5.003906-12.074219zm0 0" fill="#00838f"/><path d="m454.828125 110.734375-47.875-47.871094c-6.695313-6.597656-17.449219-6.597656-24.148437 0-9.214844 9.152344-14.558594 21.492188-14.933594 34.476563.488281 11.488281 4.917968 22.457031 12.542968 31.058594 20.265626 17.722656 50.800782 16.675781 69.804688-2.386719 4-3.996094 5.730469-9.734375 4.609375-15.277344zm0 0" fill="#00bcd4"/><path d="m375.464844 183.695312-1.621094-.085937-100.863281 65.621094-9.214844-15.101563-13.054687-21.335937 98.386718-64 3.585938-2.300781zm0 0" fill="#f57c00"/><path d="m362.667969 170.894531-1.621094-.085937-97.28125 63.320312-13.054687-21.335937 98.386718-64zm0 0" fill="#ff9801"/><path d="m249.855469 110.394531v.085938c-3.015625 5.367187-8.691407 8.691406-14.847657 8.703125-2.929687-.027344-5.804687-.792969-8.363281-2.21875l-64.511719-35.667969 4.265626-3.328125 25.429687-19.710938 46.765625 26.195313 4.777344 2.730469c8.1875 4.628906 11.089844 15.007812 6.484375 23.210937zm0 0" fill="#f57c00"/><path d="m237.054688 97.59375v.085938c-3.015626 5.367187-8.691407 8.695312-14.847657 8.703124-2.929687-.027343-5.804687-.789062-8.363281-2.21875l-47.445312-26.195312 25.429687-19.710938 46.765625 26.195313c1.238281 4.410156.6875 9.132813-1.539062 13.140625zm0 0" fill="#ff9801"/><path d="m158.378906 98.019531-5.546875 13.3125-30.71875 73.300781-39-17.40625.34375-.769531 36.691407-87.550781zm0 0" fill="#f57c00"/><path d="m141.3125 89.488281-5.546875 13.3125-30.71875 73.300781-21.589844-9.644531 36.691407-87.550781zm0 0" fill="#ff9801"/><path d="m128 345.828125h-76.800781l17.066406-108.882813h42.667969zm0 0" fill="#d84315"/><path d="m110.933594 345.828125h-59.734375l17.066406-108.882813h25.601563zm0 0" fill="#ff5722"/><path d="m187.648438 55.695312c0 21.207032-17.191407 38.402344-38.402344 38.402344-2.144532.019532-4.289063-.179687-6.398438-.597656-18.460937-3.101562-31.984375-19.082031-31.984375-37.804688 0-18.71875 13.523438-34.703124 31.984375-37.800781 2.109375-.417969 4.253906-.621093 6.398438-.597656 21.210937 0 38.402344 17.191406 38.402344 38.398437zm0 0" fill="#37474f"/><path d="m174.847656 55.695312c0-20.878906-14.328125-37.800781-32-37.800781s-32 16.921875-32 37.800781c0 20.878907 14.328125 37.804688 32 37.804688s32-16.925781 32-37.804688zm0 0" fill="#607d8b"/><path d="m401.066406 158.097656c0 14.136719-11.460937 25.597656-25.601562 25.597656-5.144532.023438-10.175782-1.523437-14.417969-4.4375-8.859375-6.058593-13-17-10.371094-27.40625 2.628907-10.402343 11.472657-18.0625 22.144531-19.183593.855469-.085938 1.792969-.171875 2.644532-.171875 6.792968 0 13.304687 2.695312 18.105468 7.496094 4.800782 4.800781 7.496094 11.3125 7.496094 18.105468zm0 0" fill="#9e9e9e"/><path d="m384 153.828125c.03125 13.121094-9.898438 24.121094-22.953125 25.429687-8.859375-6.058593-13-17-10.371094-27.40625 2.628907-10.402343 11.472657-18.0625 22.144531-19.183593 7 4.769531 11.183594 12.691406 11.179688 21.160156zm0 0" fill="#cfd8dc"/><path d="m273.066406 247.695312c0 21.207032-17.191406 38.402344-38.398437 38.402344-21.210938 0-38.402344-17.195312-38.402344-38.402344 0-21.207031 17.191406-38.398437 38.402344-38.398437h.511719c21.019531.25 37.917968 17.378906 37.886718 38.398437zm0 0" fill="#37474f"/><path d="m256 243.429688c.011719 10.1875-4.027344 19.964843-11.230469 27.167968-7.207031 7.203125-16.980469 11.246094-27.167969 11.230469h-.511718c-15.75-8.117187-23.902344-25.957031-19.730469-43.175781 4.175781-17.222656 19.589844-29.351563 37.308594-29.355469h.511719c12.8125 6.550781 20.859374 19.742187 20.820312 34.132813zm0 0" fill="#607d8b"/><path d="m128 205.027344c0 21.210937-17.191406 38.402344-38.398438 38.402344-21.210937 0-38.402343-17.191407-38.402343-38.402344 0-21.207032 17.191406-38.398438 38.402343-38.398438h.511719c21.019531.253906 37.917969 17.378906 37.886719 38.398438zm0 0" fill="#37474f"/><path d="m110.933594 200.761719c.011718 10.1875-4.027344 19.964843-11.230469 27.167969-7.207031 7.207031-16.980469 11.246093-27.167969 11.234374h-.515625c-15.75-8.117187-23.898437-25.960937-19.726562-43.179687 4.175781-17.21875 19.589843-29.347656 37.308593-29.355469h.511719c12.8125 6.550782 20.859375 19.742188 20.820313 34.132813zm0 0" fill="#607d8b"/><path d="m503.464844 358.628906v76.800782c0 4.710937-3.820313 8.53125-8.53125 8.53125h-477.867188c-4.710937 0-8.53125-3.820313-8.53125-8.53125v-76.800782c.027344-9.414062 7.652344-17.039062 17.066406-17.066406h460.796876c9.414062.027344 17.039062 7.652344 17.066406 17.066406zm0 0" fill="#0377bc"/><path d="m486.398438 358.628906v76.800782c0 4.710937-3.820313 8.53125-8.53125 8.53125h-460.800782c-4.710937 0-8.53125-3.820313-8.53125-8.53125v-76.800782c.027344-9.414062 7.652344-17.039062 17.066406-17.066406h443.730469c9.414063.027344 17.039063 7.652344 17.066407 17.066406zm0 0" fill="#02a9f4"/><g fill="#f44335"><path d="m341.332031 281.828125c0 9.425781-7.640625 17.066406-17.066406 17.066406s-17.066406-7.640625-17.066406-17.066406 7.640625-17.066406 17.066406-17.066406 17.066406 7.640625 17.066406 17.066406zm0 0"/><path d="m409.601562 281.828125c0 9.425781-7.640624 17.066406-17.066406 17.066406-9.425781 0-17.070312-7.640625-17.070312-17.066406s7.644531-17.066406 17.070312-17.066406c9.425782 0 17.066406 7.640625 17.066406 17.066406zm0 0"/><path d="m477.867188 281.828125c0 9.425781-7.640626 17.066406-17.066407 17.066406s-17.066406-7.640625-17.066406-17.066406 7.640625-17.066406 17.066406-17.066406 17.066407 7.640625 17.066407 17.066406zm0 0"/></g><path d="m51.199219 375.695312h25.601562c4.710938 0 8.53125 3.820313 8.53125 8.535157v17.066406c0 4.710937-3.820312 8.53125-8.53125 8.53125h-25.601562c-4.710938 0-8.53125-3.820313-8.53125-8.53125v-17.066406c0-4.714844 3.820312-8.535157 8.53125-8.535157zm0 0" fill="#283593"/><path d="m128 375.695312h25.601562c4.710938 0 8.53125 3.820313 8.53125 8.535157v17.066406c0 4.710937-3.820312 8.53125-8.53125 8.53125h-25.601562c-4.710938 0-8.535156-3.820313-8.535156-8.53125v-17.066406c0-4.714844 3.824218-8.535157 8.535156-8.535157zm0 0" fill="#283593"/><path d="m51.199219 375.695312h8.535156c4.710937 0 8.53125 3.820313 8.53125 8.535157v17.066406c0 4.710937-3.820313 8.53125-8.53125 8.53125h-8.535156c-4.710938 0-8.53125-3.820313-8.53125-8.53125v-17.066406c0-4.714844 3.820312-8.535157 8.53125-8.535157zm0 0" fill="#3f51b5"/><path d="m128 375.695312h8.535156c4.710938 0 8.53125 3.820313 8.53125 8.535157v17.066406c0 4.710937-3.820312 8.53125-8.53125 8.53125h-8.535156c-4.710938 0-8.535156-3.820313-8.535156-8.53125v-17.066406c0-4.714844 3.824218-8.535157 8.535156-8.535157zm0 0" fill="#3f51b5"/><path d="m234.667969 290.363281c23.417969-.027343 43.230469-17.3125 46.4375-40.507812l95.28125-61.988281c17.023437-.484376 31.0625-13.492188 32.847656-30.429688 19.523437 9.261719 42.765625 5.226562 58.023437-10.078125 1.183594-1.210937 2.171876-2.59375 2.9375-4.101563 1.160157-.40625 2.21875-1.066406 3.097657-1.929687l36.207031-36.199219c2.21875-2.140625 3.109375-5.316406 2.328125-8.296875-.78125-2.984375-3.113281-5.316406-6.097656-6.097656-2.980469-.777344-6.15625.109375-8.296875 2.328125l-30.175782 30.167969-12.0625-12.066407 48.269532-48.273437c2.21875-2.144531 3.109375-5.316406 2.328125-8.300781s-3.109375-5.3125-6.09375-6.09375-6.15625.109375-8.296875 2.328125l-48.273438 48.273437-12.066406-12.066406 60.339844-60.347656c3.230468-3.347656 3.1875-8.671875-.105469-11.964844-3.292969-3.289062-8.613281-3.335938-11.960937-.101562l-60.347657 60.339843-12.078125-12.066406 48.273438-48.265625c3.335937-3.332031 3.335937-8.734375.003906-12.070312-3.332031-3.335938-8.734375-3.335938-12.070312-.003907l-53.679688 53.683594-3.535156-20.609375 21.007812-21c3.335938-3.332031 3.339844-8.734375.007813-12.070312-3.332031-3.335938-8.738281-3.335938-12.070313-.003907l-24.125 24.132813c-1.960937 1.957031-2.847656 4.742187-2.382812 7.472656l6.65625 38.8125c-8.53125 14.296875-9.542969 31.859375-2.710938 47.042969-10.671875.988281-20.246094 6.957031-25.832031 16.101562l-12.058594 7.835938-74.238281-41.753907c1.871094-10.671874-3.175781-21.367187-12.605469-26.703124l-47.699219-26.785157c-2.605468-18.210937-15.609374-33.21875-33.261718-38.390625-17.652344-5.175781-36.699219.441406-48.71875 14.363282-12.023438 13.921874-14.804688 33.582031-7.117188 50.292968l-33.808594 80.640625c-16.675781 4.628907-29.441406 18.078125-33.191406 34.972657-3.753906 16.894531 2.121094 34.484374 15.269532 45.734374l-15.121094 96.707032h-18.300782c-14.140624 0-25.601562 11.464844-25.601562 25.601562v76.800782c0 9.425781 7.640625 17.066406 17.066406 17.066406h477.867188c9.425781 0 17.066406-7.640625 17.066406-17.066406v-76.800782c0-14.136718-11.460938-25.601562-25.601562-25.601562h-17.066407v-27.167969c11.757813-4.15625 18.808594-16.175781 16.699219-28.464844-2.109375-12.289062-12.761719-21.269531-25.230469-21.269531s-23.125 8.980469-25.230469 21.269531c-2.109374 12.289063 4.941407 24.308594 16.695313 28.464844v27.167969h-51.199219v-27.167969c11.753906-4.15625 18.804688-16.175781 16.699219-28.464844-2.109375-12.289062-12.765625-21.269531-25.230469-21.269531-12.46875 0-23.125 8.980469-25.234375 21.269531-2.105469 12.289063 4.945313 24.308594 16.699219 28.464844v27.167969h-51.199219v-27.167969c11.753907-4.15625 18.804688-16.175781 16.695313-28.464844-2.105469-12.289062-12.761719-21.269531-25.230469-21.269531s-23.121094 8.980469-25.230469 21.269531c-2.109375 12.289063 4.941406 24.308594 16.699219 28.464844v27.167969h-180.4375l-15.15625-96.707032c16.355469-13.933593 21.074219-37.238281 11.425781-56.4375l21.425782-51.203124 40.40625 92.367187c-7.890626 14.542969-7.539063 32.171875.925781 46.390625 8.464843 14.21875 23.792969 22.929688 40.34375 22.925781zm226.132812-17.066406c4.710938 0 8.53125 3.820313 8.53125 8.53125 0 4.714844-3.820312 8.535156-8.53125 8.535156-4.714843 0-8.535156-3.820312-8.535156-8.535156 0-4.710937 3.820313-8.53125 8.535156-8.53125zm-68.265625 0c4.710938 0 8.53125 3.820313 8.53125 8.53125 0 4.714844-3.820312 8.535156-8.53125 8.535156-4.714844 0-8.535156-3.820312-8.535156-8.535156 0-4.710937 3.820312-8.53125 8.535156-8.53125zm-68.269531 0c4.714844 0 8.535156 3.820313 8.535156 8.53125 0 4.714844-3.820312 8.535156-8.535156 8.535156-4.710937 0-8.53125-3.820312-8.53125-8.535156 0-4.710937 3.820313-8.53125 8.53125-8.53125zm-89.597656 0c-12.082031 0-22.972657-7.277344-27.59375-18.4375-4.625-11.160156-2.066407-24.007813 6.472656-32.550781 8.542969-8.539063 21.390625-11.09375 32.550781-6.472656 11.160156 4.621093 18.4375 15.511718 18.4375 27.59375 0 16.496093-13.375 29.867187-29.867187 29.867187zm107.230469-113.886719c1.453124 8.742188 6.265624 16.574219 13.414062 21.820313l-75.589844 49.167969c-2.449218-8.363282-7.175781-15.878907-13.652344-21.707032zm65.023437-24.117187-12.066406-12.0625c-6.402344-6.402344-10-15.085938-10-24.136719 0-9.054688 3.597656-17.738281 10-24.136719l18.097656 18.089844 24.117187 24.113281 18.089844 18.09375c-13.5 12.867188-34.71875 12.886719-48.238281.039063zm-31.457031 1.46875c9.425781 0 17.070312 7.640625 17.070312 17.066406s-7.644531 17.066406-17.070312 17.066406c-9.425782 0-17.066406-7.640625-17.066406-17.066406s7.640624-17.066406 17.066406-17.066406zm-125.761719 62.292969c-.308594-.101563-.589844-.230469-.898437-.332032l-37.050782-84.566406 10.703125 6.027344c3.804688 2.152344 8.109375 3.285156 12.484375 3.285156 6.15625-.0625 12.085938-2.335938 16.707032-6.410156l66.558593 37.4375zm-7.289063-97.023438c-2.3125 4.085938-7.488281 5.535156-11.585937 3.242188l-30.449219-17.152344-4.964844-11.375c1.449219-2.886719 2.59375-5.917969 3.414063-9.042969l40.371094 22.671875c1.972656 1.117188 3.425781 2.972656 4.027343 5.160156.605469 2.1875.3125 4.523438-.8125 6.496094zm-88.917968-76.203125c16.496094 0 29.867187 13.371094 29.867187 29.867187 0 16.496094-13.371093 29.867188-29.867187 29.867188-16.492188 0-29.863282-13.371094-29.863282-29.867188 0-16.496093 13.371094-29.867187 29.863282-29.867187zm-57.496094 128.488281 26.582031-63.402344c6.53125 5.753907 14.539063 9.570313 23.125 11.015626l-26.242187 62.660156c-6.710938-5.542969-14.839844-9.101563-23.464844-10.273438zm-6.398438 16.578125c16.492188 0 29.863282 13.375 29.863282 29.867188 0 16.496093-13.371094 29.867187-29.863282 29.867187-16.496093 0-29.867187-13.371094-29.867187-29.867187 0-16.492188 13.371094-29.867188 29.867187-29.867188zm234.664063 213.335938c4.714844 0 8.535156-3.820313 8.535156-8.535157v-25.597656h51.199219v25.597656c0 4.714844 3.820312 8.535157 8.535156 8.535157 4.710938 0 8.53125-3.820313 8.53125-8.535157v-25.597656h51.199219v25.597656c0 4.714844 3.820313 8.535157 8.535156 8.535157 4.710938 0 8.53125-3.820313 8.53125-8.535157v-25.597656h17.066407c4.714843 0 8.535156 3.820313 8.535156 8.53125v76.800782h-477.867188v-76.800782c0-4.710937 3.820313-8.53125 8.535156-8.53125h290.132813v25.597656c0 4.714844 3.820313 8.535157 8.53125 8.535157zm-206.242187-51.203125h-56.847657l13.746094-87.710938c9.527344 3.171875 19.828125 3.171875 29.355469 0zm46.457031-231.746094c6.929687-1.648438 13.390625-4.859375 18.890625-9.386719l45.988281 104.960938c-8.65625.964843-16.867187 4.339843-23.707031 9.734375l-43.519532-99.625zm0 0"/><path d="m307.199219 409.828125c0 4.714844 3.820312 8.535156 8.535156 8.535156h17.066406c4.710938 0 8.53125-3.820312 8.53125-8.535156 0-4.710937-3.820312-8.53125-8.53125-8.53125h-17.066406c-4.714844 0-8.535156 3.820313-8.535156 8.53125zm0 0"/><path d="m384 418.363281h17.066406c4.714844 0 8.535156-3.820312 8.535156-8.535156 0-4.710937-3.820312-8.53125-8.535156-8.53125h-17.066406c-4.710938 0-8.535156 3.820313-8.535156 8.53125 0 4.714844 3.824218 8.535156 8.535156 8.535156zm0 0"/><path d="m452.265625 418.363281h17.066406c4.714844 0 8.535157-3.820312 8.535157-8.535156 0-4.710937-3.820313-8.53125-8.535157-8.53125h-17.066406c-4.710937 0-8.53125 3.820313-8.53125 8.53125 0 4.714844 3.820313 8.535156 8.53125 8.535156zm0 0"/><path d="m76.800781 367.164062h-25.601562c-9.425781 0-17.066407 7.640626-17.066407 17.066407v17.066406c0 9.425781 7.640626 17.066406 17.066407 17.066406h25.601562c9.425781 0 17.066407-7.640625 17.066407-17.066406v-17.066406c0-9.425781-7.640626-17.066407-17.066407-17.066407zm-25.601562 34.132813v-17.066406h25.601562v17.066406zm0 0"/><path d="m153.601562 367.164062h-25.601562c-9.425781 0-17.066406 7.640626-17.066406 17.066407v17.066406c0 9.425781 7.640625 17.066406 17.066406 17.066406h25.601562c9.425782 0 17.066407-7.640625 17.066407-17.066406v-17.066406c0-9.425781-7.640625-17.066407-17.066407-17.066407zm-25.601562 34.132813v-17.066406h25.601562v17.066406zm0 0"/></svg>