<svg height="512pt" viewBox="0 0 512.11683 512" width="512pt" xmlns="http://www.w3.org/2000/svg"><path d="m452.269531 170.726562v42.664063h-51.199219v-42.664063c0-4.714843 3.820313-8.535156 8.53125-8.535156h34.132813c4.714844 0 8.535156 3.820313 8.535156 8.535156zm0 0" fill="#37474f"/><path d="m435.203125 170.726562v42.664063h-34.132813v-42.664063c0-4.714843 3.820313-8.535156 8.53125-8.535156h17.066407c4.714843 0 8.535156 3.820313 8.535156 8.535156zm0 0" fill="#607d8b"/><path d="m497.410156 243.257812-7.9375 40.277344c-.871094 3.875-4.304687 6.632813-8.277344 6.65625h-305.832031c-13.363281.003906-26.707031-.9375-39.9375-2.816406-3.15625-.511719-6.3125-.851562-9.472656-1.195312h-17.066406l-45.140625-.082032c-3.15625.339844-6.484375.765625-9.726563 1.277344l-10.15625 1.453125c-2.171875.339844-4.390625-.214844-6.144531-1.539063-2.242188-1.585937-3.578125-4.160156-3.582031-6.910156v-37.121094h119.464843l17.066407-8.53125h85.335937l17.066406 8.53125zm0 0" fill="#f57c00"/><path d="m480.34375 243.257812-7.9375 40.277344c-.871094 3.875-4.304688 6.632813-8.277344 6.65625h-305.832031c-13.363281.003906-26.707031-.9375-39.9375-2.816406-3.15625-.511719-6.3125-.851562-9.472656-1.195312l-45.140625-.082032h-16.894532c-2.988281.339844-6.058593.679688-9.132812 1.191406-2.242188-1.585937-3.578125-4.160156-3.582031-6.910156v-37.121094h102.398437l17.066406-8.53125h85.335938l17.066406 8.53125zm0 0" fill="#ff9801"/><path d="m503.296875 213.390625-6.738281 34.132813h-223.488282l-17.066406-8.53125h-85.335937l-17.066407 8.53125h-119.464843v-35.070313c-.039063-4.3125 3.148437-7.972656 7.421875-8.535156l15.53125-1.875c30.3125-3.824219 60.839844-5.730469 91.390625-5.71875h313.003906c.542969.015625 1.085937.074219 1.621094.171875l19.882812 3.925781 13.652344 2.730469c2.257813.449218 4.234375 1.789062 5.488281 3.71875 1.25 1.925781 1.671875 4.277344 1.167969 6.519531zm0 0" fill="#fdd834"/><path d="m486.230469 209.125-6.738281 34.132812h-223.488282l-17.066406-8.53125h-85.335938l-17.066406 8.53125h-102.398437v-30.804687c-.039063-4.3125 3.148437-7.972656 7.421875-8.535156l15.53125-1.875c30.3125-3.824219 60.839844-5.730469 91.390625-5.71875h313.003906c.542969.015625 1.085937.074219 1.621094.171875l19.882812 3.925781c2.722657 1.992187 3.996094 5.414063 3.242188 8.703125zm0 0" fill="#ffeb3a"/><g fill="#37474f"><path d="m137.902344 274.234375-81.664063 81.664063c-3.234375 3.167968-5.050781 7.507812-5.035156 12.03125v21.589843c.007813 6.050781-2.550781 11.816407-7.042969 15.871094-4.492187 4.050781-10.492187 6.007813-16.511718 5.378906-5.8125-.636719-11.082032-3.707031-14.503907-8.449219-2.996093-4.050781-4.613281-8.957031-4.609375-13.996093v-16.894531c-.023437-18.113282 7.160156-35.492188 19.96875-48.300782l79.1875-79.101562c2.816406-2.90625 6.628906-4.644532 10.667969-4.863282 4.976563-.535156 9.921875 1.261719 13.398437 4.863282l6.144532 6.058594c3.203125 3.199218 5.003906 7.542968 5.003906 12.074218 0 4.527344-1.800781 8.875-5.003906 12.074219zm0 0"/><path d="m183.46875 477.925781v12.800781c0 4.710938-3.820312 8.53125-8.53125 8.53125h-25.601562c-4.714844 0-8.535157-3.820312-8.535157-8.53125v-12.800781c.007813-9.324219 6.046875-17.570312 14.933594-20.394531 2.078125-.621094 4.234375-.9375 6.402344-.941406 5.664062-.015625 11.097656 2.226562 15.105469 6.230468 4.003906 4.003907 6.246093 9.441407 6.226562 15.105469zm0 0"/><path d="m453.632812 274.234375-81.664062 81.664063c-3.230469 3.167968-5.046875 7.507812-5.03125 12.03125v21.589843c.007812 6.050781-2.554688 11.816407-7.046875 15.871094-4.488281 4.050781-10.492187 6.007813-16.507813 5.378906-5.8125-.636719-11.085937-3.707031-14.507812-8.449219-2.992188-4.050781-4.609375-8.957031-4.605469-13.996093v-16.894531c-.023437-18.113282 7.160157-35.492188 19.96875-48.300782l79.1875-79.101562c2.816407-2.90625 6.625-4.644532 10.667969-4.863282 4.976562-.535156 9.921875 1.261719 13.398438 4.863282l6.140624 6.058594c3.207032 3.199218 5.007813 7.542968 5.007813 12.074218 0 4.527344-1.800781 8.875-5.007813 12.074219zm0 0"/></g><path d="m120.835938 265.699219-81.664063 81.664062c-3.234375 3.167969-5.050781 7.507813-5.035156 12.035157v21.589843c0 11.648438-9.34375 21.144531-20.992188 21.332031-2.996093-4.050781-4.613281-8.957031-4.609375-13.996093v-16.894531c-.023437-18.113282 7.160156-35.492188 19.96875-48.300782l79.1875-79.101562c2.816406-2.90625 6.628906-4.644532 10.667969-4.863282l2.476563 2.386719c3.203124 3.203125 5.003906 7.546875 5.003906 12.074219 0 4.53125-1.800782 8.875-5.003906 12.074219zm0 0" fill="#607d8b"/><path d="m436.566406 265.699219-81.664062 81.664062c-3.230469 3.167969-5.046875 7.507813-5.035156 12.035157v21.589843c.003906 11.648438-9.339844 21.144531-20.992188 21.332031-2.992188-4.050781-4.609375-8.957031-4.605469-13.996093v-16.894531c-.023437-18.113282 7.160157-35.492188 19.96875-48.300782l79.1875-79.101562c2.816407-2.90625 6.625-4.644532 10.667969-4.863282l2.472656 2.386719c3.207032 3.203125 5.007813 7.546875 5.007813 12.074219 0 4.53125-1.800781 8.875-5.007813 12.074219zm0 0" fill="#607d8b"/><path d="m499.203125 477.925781v12.800781c0 4.710938-3.820313 8.53125-8.535156 8.53125h-25.597657c-4.714843 0-8.535156-3.820312-8.535156-8.53125v-12.800781c.007813-9.324219 6.046875-17.570312 14.933594-20.394531 2.078125-.621094 4.234375-.9375 6.398438-.941406 5.664062-.015625 11.101562 2.226562 15.105468 6.230468 4.007813 4.003907 6.246094 9.441407 6.230469 15.105469zm0 0" fill="#37474f"/><path d="m170.667969 477.925781v12.800781c0 4.710938-3.820313 8.53125-8.53125 8.53125h-12.800781c-4.714844 0-8.535157-3.820312-8.535157-8.53125v-12.800781c.007813-9.324219 6.046875-17.570312 14.933594-20.394531 3.273437 1.0625 6.253906 2.875 8.707031 5.289062 3.996094 4.007813 6.238282 9.441407 6.226563 15.105469zm0 0" fill="#607d8b"/><path d="m486.402344 477.925781v12.800781c0 4.710938-3.820313 8.53125-8.535156 8.53125h-12.796876c-4.714843 0-8.535156-3.820312-8.535156-8.53125v-12.800781c.007813-9.324219 6.046875-17.570312 14.933594-20.394531 3.273438 1.0625 6.253906 2.875 8.703125 5.289062 4 4.007813 6.242187 9.441407 6.230469 15.105469zm0 0" fill="#607d8b"/><path d="m417.878906 107.917969-24.148437 24.152343-6.398438-6.402343-77.484375-77.566407-1.109375-1.109374 40.960938-7.167969zm0 0" fill="#37474f"/><path d="m405.078125 112.1875-13.480469 13.480469-77.484375-77.566407 22.785157-4.011718zm0 0" fill="#607d8b"/><path d="m305.667969 46.992188-75.265625 75.347656-12.800782-12.796875-11.347656-11.351563 58.453125-58.367187 19.199219 3.328125zm0 0" fill="#37474f"/><path d="m283.90625 43.152344-66.304688 66.390625-11.347656-11.351563 58.453125-58.367187zm0 0" fill="#607d8b"/><path d="m349.867188 29.925781v8.53125c0 4.714844-3.820313 8.535157-8.53125 8.535157h-68.265626c-4.714843 0-8.535156-3.820313-8.535156-8.535157v-8.53125c.027344-9.414062 7.652344-17.039062 17.066406-17.066406h51.199219c9.414063.027344 17.039063 7.652344 17.066407 17.066406zm0 0" fill="#424242"/><path d="m332.800781 29.925781v8.53125c0 4.714844-3.820312 8.535157-8.53125 8.535157h-51.199219c-4.714843 0-8.535156-3.820313-8.535156-8.535157v-8.53125c.027344-9.414062 7.652344-17.039062 17.066406-17.066406h34.132813c9.414063.027344 17.039063 7.652344 17.066406 17.066406zm0 0" fill="#9e9e9e"/><path d="m230.402344 106.726562v25.597657c-.027344 9.414062-7.652344 17.039062-17.066406 17.066406h-46.933594v-51.199219h55.464844c4.714843 0 8.535156 3.820313 8.535156 8.535156zm0 0" fill="#424242"/><path d="m213.335938 106.726562v25.597657c-.027344 9.414062-7.652344 17.039062-17.066407 17.066406h-29.867187v-51.199219h38.398437c4.714844 0 8.535157 3.820313 8.535157 8.535156zm0 0" fill="#9e9e9e"/><path d="m460.800781 140.859375c.007813 9.808594-4.222656 19.140625-11.605469 25.597656h-45.054687c-11.816406-10.378906-15.007813-27.488281-7.734375-41.433593 7.277344-13.941407 23.140625-21.109376 38.414062-17.355469 15.273438 3.757812 26 17.460937 25.980469 33.191406zm0 0" fill="#424242"/><path d="m443.734375 140.859375c.007813 9.808594-4.222656 19.140625-11.605469 25.597656h-23.722656c-9.179688-8.085937-13.328125-20.464843-10.878906-32.449219 2.449218-11.984374 11.125-21.742187 22.742187-25.574218 14.003907 4.605468 23.46875 17.683594 23.464844 32.425781zm0 0" fill="#9e9e9e"/><path d="m170.667969 93.925781v64c0 4.710938-3.820313 8.53125-8.53125 8.53125h-78.167969c-2.691406-.015625-5.214844-1.304687-6.808594-3.472656-1.597656-2.164063-2.078125-4.957031-1.296875-7.535156l20.480469-64c1.050781-3.597657 4.355469-6.066407 8.105469-6.058594h57.6875c4.710937 0 8.53125 3.820313 8.53125 8.535156zm0 0" fill="#37474f"/><path d="m153.601562 93.925781v64c0 4.710938-3.820312 8.53125-8.53125 8.53125h-61.101562c-2.691406-.015625-5.214844-1.304687-6.808594-3.472656-1.597656-2.164063-2.078125-4.957031-1.296875-7.535156l20.480469-64c1.050781-3.597657 4.355469-6.066407 8.105469-6.058594h40.621093c4.710938 0 8.53125 3.820313 8.53125 8.535156zm0 0" fill="#607d8b"/><path d="m170.667969 89.660156v34.132813h-36.863281c-3.496094-.003907-6.640626 2.125-7.9375 5.375l-14.929688 37.289062h-31.234375c-3.039063.019531-5.847656-1.613281-7.339844-4.265625-1.234375-2.023437-1.515625-4.492187-.765625-6.742187l20.480469-68.265625c1.050781-3.597656 4.355469-6.070313 8.105469-6.058594h61.953125c2.261719 0 4.433593.898438 6.03125 2.5 1.601562 1.601562 2.5 3.769531 2.5 6.035156zm0 0" fill="#9e9e9e"/><path d="m153.601562 85.390625v34.132813h-36.863281c-3.496093 0-6.640625 2.128906-7.9375 5.378906l-14.933593 37.289062h-21.503907c-1.234375-2.023437-1.515625-4.492187-.765625-6.742187l20.480469-68.265625c1.050781-3.597656 4.355469-6.070313 8.105469-6.058594h52.222656c.78125 1.285156 1.195312 2.761719 1.195312 4.265625zm0 0" fill="#cfd8dc"/><path d="m377.96875 361.871094 63.207031-63.144532h40.105469c8.039062-.070312 14.964844-5.691406 16.683594-13.542968l13.746094-69.972656c.996093-4.488282.140624-9.183594-2.375-13.03125-2.511719-3.847657-6.46875-6.515626-10.976563-7.40625l-33.792969-6.71875c-.988281-.160157-1.988281-.253907-2.988281-.269532h-.777344v-17.058594c-.003906-2.351562-.496093-4.679687-1.449219-6.828124 11.871094-13.347657 14.011719-32.738282 5.335938-48.355469-8.671875-15.617188-26.265625-24.046875-43.871094-21.019531l-62.414062-62.335938v-6.527344c0-14.140625-11.460938-25.6015622-25.601563-25.6015622h-51.199219c-14.136718 0-25.597656 11.4609372-25.597656 25.6015622v6.527344l-53.285156 53.203125h-23.515625c0-9.425781-7.640625-17.066406-17.066406-17.066406h-61.917969c-7.550781-.035157-14.214844 4.925781-16.351562 12.167969l-20.480469 68.269531c-1.546875 5.164062-.5625 10.761719 2.660156 15.085937 3.21875 4.328125 8.296875 6.878906 13.691406 6.878906h82.398438c9.425781 0 17.066406-7.640624 17.066406-17.066406h34.132813c14.136718 0 25.601562-11.464844 25.601562-25.601562v-6.453125l68.265625-68.339844 77.386719 77.464844c-.328125 1.9375-.527344 3.894531-.585938 5.859375.019532 9.992187 3.554688 19.660156 9.980469 27.308594-.949219 2.148437-1.445313 4.476562-1.449219 6.828124v17.066407h-244.054687c-30.890625-.007813-61.753907 1.921875-92.40625 5.777343l-15.675781 1.902344c-8.496094 1.140625-14.828126 8.40625-14.796876 16.980469v67.925781c-.019531 9.25 7.390626 16.800782 16.640626 16.957032l-19.746094 19.746093c-14.453125 14.371094-22.5507815 33.929688-22.49218775 54.3125v16.929688c-.19140625 15.617187 11.33203175 28.90625 26.82031275 30.933593.992187.101563 1.988281.152344 2.984375.152344 13.027344.105469 24.570312-8.378906 28.355468-20.84375l34 11.996094c7.992188 2.96875 15.25 7.625 21.28125 13.652344l34.59375 34.59375c-7.230468 5.609375-11.472656 14.234375-11.503906 23.382812v12.800782c0 9.425781 7.640625 17.066406 17.066406 17.066406h25.601563c9.425781 0 17.066406-7.640625 17.066406-17.066406v-12.800782c0-16.496094-13.371093-29.867187-29.867187-29.867187-.230469 0-.433594.0625-.664063.070312l-40.234375-40.234375c-7.792968-7.792968-17.179687-13.808594-27.511718-17.632812l-37.207032-13.140625c-.34375-.078125-.695312-.125-1.050781-.144531v-13.3125c0-2.265626.898437-4.4375 2.5-6.039063l66.730469-66.722656c1.707031.195312 3.414062.367187 5.265625.65625 13.625 1.929687 27.371093 2.898437 41.132812 2.902343h181.230469l-18.363281 18.355469c-14.453125 14.371094-22.554688 33.929688-22.496094 54.3125v16.929688c-.1875 15.617187 11.335937 28.90625 26.820313 30.933593.992187.101563 1.992187.152344 2.988281.152344 13.027343.105469 24.570312-8.378906 28.355469-20.84375l33.996093 11.996094c7.992188 2.96875 15.253907 7.625 21.285157 13.652344l34.59375 34.59375c-7.230469 5.609375-11.472657 14.234375-11.503907 23.382812v12.800782c0 9.425781 7.640625 17.066406 17.066407 17.066406h25.601562c9.421875 0 17.066406-7.640625 17.066406-17.066406v-12.800782c0-16.496094-13.375-29.867187-29.867187-29.867187-.230469 0-.4375.0625-.667969.070312l-40.234375-40.234375c-7.789063-7.792968-17.175781-13.808594-27.511719-17.632812l-37.203125-13.140625c-.347656-.078125-.699219-.125-1.050781-.144531v-13.3125c-.007812-2.269532.894531-4.453126 2.5-6.058594zm-198.765625 120.320312v12.800782h-25.601563v-12.800782c0-7.070312 5.730469-12.800781 12.800782-12.800781 7.070312 0 12.800781 5.730469 12.800781 12.800781zm315.734375 0v12.800782h-25.601562v-12.800782c0-7.070312 5.730468-12.800781 12.800781-12.800781 7.066406 0 12.800781 5.730469 12.800781 12.800781zm-36.695312-200.53125 1.425781-1.425781c6.285156-6.34375 8.804687-15.511719 6.636719-24.175781h19.917968l-5.015625 25.601562zm-5.972657-145.070312c-.050781 6.410156-2.515625 12.5625-6.902343 17.230468-.546876-.050781-1.078126-.160156-1.632813-.160156h-34.132813c-.554687 0-1.082031.109375-1.628906.160156-7.742187-8.40625-8.953125-20.9375-2.960937-30.671874 5.992187-9.734376 17.722656-14.296876 28.71875-11.167969 10.992187 3.125 18.566406 13.179687 18.539062 24.609375zm-179.199219-110.929688c0-4.714844 3.820313-8.535156 8.53125-8.535156h51.199219c4.714844 0 8.535157 3.820312 8.535157 8.535156v8.53125h-68.265626zm-46.832031 60.371094 37.589844-37.546875c2.746094 1.800781 5.957031 2.761719 9.242187 2.773437h12.003907l-46.777344 46.832032c-1.582031-5.882813-6.175781-10.480469-12.058594-12.058594zm-126.019531-.640625h61.917969v25.601563h-28.355469c-6.988281-.023438-13.277344 4.238281-15.847656 10.734374l-12.773438 31.933594h-25.421875zm23.320312 68.269531 10.242188-25.601562h28.355469v25.601562zm98.328126-25.601562c0 4.710937-3.820313 8.53125-8.53125 8.53125h-34.132813v-34.132813h42.664063zm107.460937-76.800782h12.007813c3.28125-.003906 6.492187-.960937 9.242187-2.753906l52.597656 52.53125c-4.789062 3.171875-8.890625 7.277344-12.066406 12.0625zm80.273437 119.46875h34.132813v17.066407h-34.132813zm-351.445312 39.78125c29.960938-3.769531 60.128906-5.65625 90.324219-5.648437h312.988281l33.46875 6.886719-5.359375 27.246094h-34.988281l-1.039063-1.03125c-10-9.996094-26.203125-9.996094-36.199219 0l-1.023437 1.03125h-141.246094l-15.265625-7.636719c-1.183594-.589844-2.492187-.898438-3.8125-.898438h-85.335937c-1.324219 0-2.628907.308594-3.8125.898438l-15.265625 7.636719h-12.726563l-1.039062-1.03125c-9.996094-9.996094-26.203125-9.996094-36.199219 0l-1.03125 1.03125h-57.925781v-26.597657zm-5.359375 68.421876-10.128906 1.449218v-24.320312h40.875l-21.726563 21.707031c-2.992187.335937-6.03125.703125-9.019531 1.164063zm-2.636719 70.902343c-4.808594 4.792969-7.503906 11.308594-7.492187 18.097657v21.605468c0 3.632813-1.539063 7.089844-4.238281 9.519532-2.695313 2.429687-6.300782 3.597656-9.910157 3.214843-6.78125-1.105469-11.6875-7.078125-11.449219-13.945312v-16.929688c-.042968-15.851562 6.253907-31.066406 17.492188-42.25l75.441406-75.433593.378906-.375 3.308594-3.3125c3.332032-3.328126 8.734375-3.328126 12.066406 0l6.074219 6.070312c1.605469 1.597656 2.503907 3.769531 2.503907 6.035156s-.898438 4.4375-2.503907 6.039063zm125.203125-68.171875c-10.382812-.058594-20.753906-.695312-31.0625-1.914062 5.992188-6.308594 8.355469-15.238282 6.273438-23.6875h3.027343c1.324219 0 2.628907-.304688 3.816407-.894532l15.265625-7.640624h81.304687l15.265625 7.640624c1.183594.589844 2.492188.894532 3.816406.894532h126.191407l-25.601563 25.601562zm183.039063 107.875c0 3.632813-1.539063 7.089844-4.238282 9.519532-2.699218 2.429687-6.300781 3.597656-9.910156 3.214843-6.78125-1.105469-11.6875-7.078125-11.453125-13.945312v-16.929688c-.042969-15.851562 6.257813-31.066406 17.496094-42.25l75.441406-75.433593 3.6875-3.6875c3.332031-3.328126 8.734375-3.328126 12.066407 0l6.074218 6.070312c1.601563 1.597656 2.503906 3.769531 2.503906 6.035156s-.902343 4.4375-2.503906 6.039063l-15.632812 15.632812c-.308594.261719-.59375.546875-.851563.851563l-65.152343 65.144531c-4.828126 4.796875-7.539063 11.328125-7.527344 18.132813zm0 0"/></svg>