<svg height="512pt" viewBox="-97 0 512 512.32083" width="512pt" xmlns="http://www.w3.org/2000/svg"><path d="m119.914062 448.027344c0 30.632812-24.835937 55.46875-55.46875 55.46875-4.3125.015625-8.613281-.5-12.800781-1.535156-25.007812-5.910157-42.671875-28.234376-42.671875-53.933594 0-25.695313 17.664063-48.019532 42.671875-53.929688 4.1875-1.035156 8.488281-1.550781 12.800781-1.535156 30.632813 0 55.46875 24.832031 55.46875 55.464844zm0 0" fill="#37474f"/><path d="m262.335938 448.027344c0 30.632812-24.835938 55.46875-55.46875 55.46875-4.3125.015625-8.613282-.5-12.800782-1.535156-25.007812-5.910157-42.671875-28.234376-42.671875-53.933594 0-25.695313 17.664063-48.019532 42.671875-53.929688 4.1875-1.035156 8.488282-1.550781 12.800782-1.535156 14.710937 0 28.820312 5.84375 39.222656 16.246094s16.246094 24.507812 16.246094 39.21875zm0 0" fill="#37474f"/><path d="m94.3125 448.027344c0-29.785156-19.101562-53.929688-42.667969-53.929688-23.5625 0-42.664062 24.144532-42.664062 53.929688s19.101562 53.933594 42.664062 53.933594c23.566407 0 42.667969-24.148438 42.667969-53.933594zm0 0" fill="#607d8b"/><path d="m236.734375 448.027344c0-29.785156-19.101563-53.929688-42.667969-53.929688-23.5625 0-42.664062 24.144532-42.664062 53.929688s19.101562 53.933594 42.664062 53.933594c23.566406 0 42.667969-24.148438 42.667969-53.933594zm0 0" fill="#607d8b"/><path d="m107.882812 413.46875 22.527344-38.996094-29.867187-19.203125-22.527344 39zm0 0" fill="#424242"/><path d="m134.25 277.019531-31.660156 64.855469c-2.015625 4.15625-2.726563 8.824219-2.046875 13.394531v.085938c.015625.460937.070312.917969.171875 1.367187 1.316406 6.445313 5.285156 12.042969 10.933594 15.417969 5.648437 3.378906 12.457031 4.222656 18.761718 2.332031 4.832032-1.414062 9.058594-4.386718 12.03125-8.449218l30.71875-41.726563zm0 0" fill="#d1d4d1"/><path d="m85.753906 448.027344c0 11.785156-9.550781 21.335937-21.332031 21.335937-11.785156 0-21.335937-9.550781-21.335937-21.335937 0-11.78125 9.550781-21.332032 21.335937-21.332032 11.78125 0 21.332031 9.550782 21.332031 21.332032zm0 0" fill="#9e9e9e"/><path d="m253.800781 278.984375-37.972656 45.3125h-72.960937c-4.710938 0-8.53125-3.820313-8.53125-8.535156v-38.65625l17.234374-11.433594 51.03125-33.792969c.699219.285156 1.355469.660156 1.960938 1.109375 2.246094 1.285157 4.3125 2.863281 6.144531 4.695313zm0 0" fill="#424242"/><path d="m253.800781 204.828125v74.15625l-17.066406-16.386719-26.027344-24.914062c-1.832031-1.832032-3.898437-3.410156-6.144531-4.695313l-6.398438 9.046875-10.242187 14.421875-9.300781 13.140625-14.503906 20.308594v.085938c-11.050782-1-21.488282-5.515626-29.78125-12.886719-10.882813-9.6875-17.097657-23.574219-17.066407-38.144531v-119.464844c.027344-9.414063 7.652344-17.039063 17.066407-17.066406h22.613281l79.785156 42.921874v42.410157c9.398437.070312 16.996094 7.671875 17.066406 17.066406zm0 0" fill="#9e9e9e"/><path d="m236.734375 204.828125v74.15625l-38.570313-36.949219-4.523437-4.351562c-1.832031-1.832032-3.898437-3.410156-6.144531-4.695313l-16.640625 23.46875-9.300781 13.140625-12.03125 16.894532c-5.585938-2.1875-10.734376-5.367188-15.1875-9.386719-10.882813-9.6875-17.097657-23.574219-17.066407-38.144531v-119.464844c.027344-9.414063 7.652344-17.039063 17.066407-17.066406h5.546874l79.785157 42.921874v42.410157c9.394531.070312 16.996093 7.671875 17.066406 17.066406zm0 0" fill="#cfd8dc"/><path d="m250.300781 413.46875 27.992188-48.46875-29.867188-19.199219-27.988281 48.46875zm0 0" fill="#424242"/><path d="m305.855469 358.171875c-5.949219 7.425781-15.789063 10.527344-24.917969 7.851563-2.21875-.632813-4.320312-1.609376-6.230469-2.902344l-58.878906-38.824219-48.640625-32.085937c-1.070312-.671876-2.097656-1.414063-3.070312-2.21875v-.085938c-7.355469-5.996094-11.898438-14.769531-12.546876-24.234375-.734374-8.851563 1.953126-17.648437 7.511719-24.578125 2.800781-3.550781 6.285157-6.507812 10.238281-8.703125 5.230469-2.960937 11.140626-4.519531 17.152344-4.523437 5.625-.027344 11.171875 1.351562 16.128906 4.011718.699219.285156 1.355469.660156 1.960938 1.109375 2.246094 1.285157 4.3125 2.863281 6.144531 4.695313l43.09375 41.300781 49.921875 47.785156c8.710938 8.347657 9.636719 21.953125 2.132813 31.402344zm0 0" fill="#9e9e9e"/><path d="m284.519531 362.4375c-1.0625 1.320312-2.261719 2.523438-3.582031 3.585938-2.21875-.632813-4.320312-1.609376-6.230469-2.902344l-58.878906-38.824219-48.640625-32.085937c-1.070312-.671876-2.097656-1.414063-3.070312-2.21875v-.085938c-7.355469-5.996094-11.898438-14.769531-12.546876-24.234375-.734374-8.851563 1.953126-17.648437 7.511719-24.578125 2.800781-3.550781 6.285157-6.507812 10.238281-8.703125 4.183594.492187 8.234376 1.765625 11.949219 3.753906.695313.285157 1.355469.660157 1.960938 1.109375 2.246093 1.289063 4.3125 2.867188 6.144531 4.695313l43.09375 41.300781 49.917969 47.785156c8.714843 8.347656 9.636719 21.957032 2.132812 31.402344zm0 0" fill="#cfd8dc"/><path d="m298.601562 37.746094-22.527343 108.628906c-.453125 2.21875-1.769531 4.164062-3.65625 5.414062-1.890625 1.25-4.195313 1.695313-6.414063 1.242188l-19.625-4.097656h-.171875l-50.433593-10.496094 31.0625-124.160156v-.167969l65.109374 13.566406c2.226563.441407 4.179688 1.753907 5.429688 3.644531 1.253906 1.890626 1.695312 4.207032 1.226562 6.425782zm0 0" fill="#37474f"/><path d="m277.269531 33.480469-22.53125 108.628906c-.808593 3.972656-4.304687 6.828125-8.359375 6.824219h-.171875l-50.433593-10.496094 31.0625-124.160156 43.777343 9.132812c2.222657.4375 4.179688 1.75 5.429688 3.644532 1.25 1.890624 1.691406 4.207031 1.226562 6.425781zm0 0" fill="#607d8b"/><path d="m226.835938 14.109375-31.0625 124.328125-19.285157-4.007812c-6.65625-1.375-12.492187-5.34375-16.222656-11.023438-3.730469-5.683594-5.046875-12.617188-3.660156-19.269531l15.617187-75.179688c2.863282-13.824219 16.378906-22.71875 30.207032-19.882812zm0 0" fill="#9e9e9e"/><path d="m151.402344 179.226562c-.070313 9.398438-7.671875 17-17.066406 17.070313h-51.203126v-34.136719h51.203126c9.414062.03125 17.035156 7.65625 17.066406 17.066406zm0 0" fill="#00838f"/><path d="m134.335938 179.226562c-.070313 9.398438-7.671876 17-17.066407 17.070313h-34.136719v-34.136719h34.136719c9.414063.03125 17.035157 7.65625 17.066407 17.066406zm0 0" fill="#00bcd4"/><path d="m40.46875 204.828125h34.132812v46.933594h-34.132812zm0 0" fill="#cfd8dc"/><path d="m228.199219 448.027344c0 11.785156-9.550781 21.335937-21.332031 21.335937s-21.332032-9.550781-21.332032-21.335937c0-11.78125 9.550782-21.332032 21.332032-21.332032s21.332031 9.550782 21.332031 21.332032zm0 0" fill="#9e9e9e"/><path d="m53.269531 247.496094h8.53125c11.78125 0 21.332031 9.550781 21.332031 21.332031s-9.550781 21.332031-21.332031 21.332031h-8.53125c-11.785156 0-21.335937-9.550781-21.335937-21.332031s9.550781-21.332031 21.335937-21.332031zm0 0" fill="#424242"/><path d="m83.132812 162.160156v34.136719c0 4.710937-3.820312 8.53125-8.53125 8.53125h-34.132812c-4.714844 0-8.535156-3.820313-8.535156-8.53125 0-11.320313 4.480468-22.179687 12.460937-30.210937 5.105469-5.035157 11.378907-8.726563 18.261719-10.75 3.878906-1.132813 7.902344-1.707032 11.945312-1.707032 4.710938 0 8.53125 3.820313 8.53125 8.53125zm0 0" fill="#424242"/><path d="m66.066406 162.160156v34.136719c0 4.710937-3.820312 8.53125-8.53125 8.53125h-17.066406c-4.714844 0-8.535156-3.820313-8.535156-8.53125 0-11.320313 4.480468-22.179687 12.460937-30.210937 5.105469-5.035157 11.378907-8.726563 18.261719-10.75 2.148438 1.609374 3.410156 4.140624 3.410156 6.824218zm0 0" fill="#9e9e9e"/><path d="m194.066406 264.5625c0 4.710938-3.820312 8.53125-8.53125 8.53125-4.714844 0-8.535156-3.820312-8.535156-8.53125 0-4.714844 3.820312-8.535156 8.535156-8.535156 4.710938 0 8.53125 3.820312 8.53125 8.535156zm0 0"/><path d="m206.867188 418.160156c-16.496094 0-29.867188 13.375-29.867188 29.867188 0 16.496094 13.371094 29.867187 29.867188 29.867187 16.496093 0 29.867187-13.371093 29.867187-29.867187 0-16.492188-13.371094-29.867188-29.867187-29.867188zm0 42.667969c-7.070313 0-12.800782-5.730469-12.800782-12.800781 0-7.066406 5.730469-12.800782 12.800782-12.800782 7.070312 0 12.800781 5.734376 12.800781 12.800782 0 7.070312-5.730469 12.800781-12.800781 12.800781zm0 0"/><path d="m64.421875 384.027344c-29.375-.054688-55.03125 19.855468-62.273437 48.320312-7.246094 28.464844 5.773437 58.214844 31.601562 72.207032 25.824219 13.996093 57.855469 8.65625 77.746094-12.957032 19.890625-21.613281 22.558594-53.980468 6.472656-78.554687l18.335938-31.753907c5.167968-2.195312 9.660156-5.730468 13.003906-10.238281l28.160156-38.222656h35.78125l23.765625 15.660156-20.949219 36.28125c-3.042968-.472656-6.117187-.71875-9.199218-.742187-29.378907-.0625-55.046876 19.839844-62.300782 48.3125-7.25 28.46875 5.765625 58.226562 31.597656 72.226562 25.828126 14 57.867188 8.664063 77.761719-12.953125 19.894531-21.617187 22.5625-53.988281 6.472657-78.570312l21.9375-37.992188c1.738281.304688 3.496093.46875 5.257812.488281 13.019531-.039062 24.710938-7.976562 29.550781-20.0625 4.84375-12.085937 1.863281-25.902343-7.527343-34.917968l-47.28125-45.289063v-70.441406c-.046876-10.808594-6.875-20.425781-17.066407-24.03125v-22.644531c-.039062-.257813-.089843-.515625-.15625-.769532l19.15625 3.96875c4.425781.917969 9.03125.035157 12.800781-2.449218 3.792969-2.472656 6.441407-6.359375 7.347657-10.796875l22.546875-108.628907c1.910156-9.226562-4.019532-18.257812-13.246094-20.171874l-64.664062-13.414063-.152344-.050781c-.066406-.003906-.132813-.003906-.199219 0l-24.515625-5.121094c-18.445312-3.828125-36.507812 8.011719-40.351562 26.453125l-13.824219 66.722656h-15.675781c-14.140626 0-25.601563 11.460938-25.601563 25.601563v34.132812h-17.066406c0-4.714844-3.820313-8.535156-8.535157-8.535156h-8.53125c-28.265624.03125-51.171874 22.9375-51.199218 51.203125v8.53125c0 4.714844 3.820312 8.535156 8.53125 8.535156v34.625c-8.414063 8.582031-10.855469 21.371094-6.195313 32.449219 4.660157 11.074219 15.511719 18.273438 27.53125 18.257812h8.53125c12.015625.015626 22.867188-7.183593 27.527344-18.257812 4.660156-11.078125 2.21875-23.867188-6.195313-32.449219v-34.625c4.714844 0 8.535157-3.820312 8.535157-8.535156h17.066406v34.132813c.039063 14.636718 5.46875 28.746093 15.25 39.636718l-29.089844 59.582032c-2.242187 4.695312-3.289062 9.871093-3.039062 15.070312l-18.210938 31.519531c-3.050781-.464843-6.136719-.714843-9.222656-.742187zm0 110.933594c-25.921875 0-46.933594-21.011719-46.933594-46.933594 0-25.917969 21.011719-46.933594 46.933594-46.933594 25.917969 0 46.933594 21.015625 46.933594 46.933594-.03125 25.910156-21.027344 46.90625-46.933594 46.933594zm78.445313-179.199219v-22.921875c5.722656 2.75 11.855468 4.554687 18.160156 5.335937.511718.375.921875.851563 1.449218 1.195313l24.875 16.390625zm108.425781 42.136719 15.359375 10.136718-18.175782 31.480469c-4.679687-4.019531-9.914062-7.34375-15.539062-9.871094zm-44.425781 137.0625c-25.921876 0-46.933594-21.011719-46.933594-46.933594 0-25.917969 21.011718-46.933594 46.933594-46.933594 25.921874 0 46.933593 21.015625 46.933593 46.933594-.027343 25.910156-21.023437 46.90625-46.933593 46.933594zm92.269531-142.113282c-4.757813 6.023438-13.34375 7.386719-19.734375 3.132813l-107.519532-70.828125c-9.523437-6.257813-13.984374-17.898438-11.085937-28.921875 2.902344-11.019531 12.515625-18.957031 23.882813-19.71875.617187-.042969 1.222656-.058594 1.835937-.058594 6.824219-.015625 13.386719 2.628906 18.296875 7.371094l42.785156 40.960937c.136719.148438.28125.289063.433594.417969l49.757812 47.675781c5.589844 5.285156 6.175782 13.980469 1.347657 19.96875zm-82.5-121.359375c-1.710938-1.617187-3.550781-3.085937-5.503907-4.40625v-30.785156h25.601563c4.710937 0 8.535156 3.820313 8.535156 8.53125v54.085937zm51.109375-86.84375-61.527344-12.75 26.898438-107.714843 57.171874 11.832031zm-87.203125-113.894531c1.617187-7.929688 8.582031-13.632812 16.671875-13.65625 1.175781.003906 2.347656.128906 3.5.367188l15.675781 3.242187-26.90625 107.71875-11.28125-2.347656c-4.429687-.917969-8.316406-3.558594-10.804687-7.339844-2.484376-3.785156-3.363282-8.398437-2.445313-12.832031zm-105.941407 131.410156v34.136719h-34.132812c0-18.851563 15.28125-34.136719 34.132812-34.136719zm-12.800781 119.46875h-8.53125c-7.070312 0-12.800781-5.730468-12.800781-12.800781s5.730469-12.800781 12.800781-12.800781h8.53125c7.070313 0 12.800781 5.730468 12.800781 12.800781s-5.730468 12.800781-12.800781 12.800781zm4.265625-42.230468c-1.410156-.25-2.835937-.394532-4.265625-.4375h-8.53125c-1.433593.042968-2.859375.1875-4.269531.4375v-26.035157h17.066406zm25.601563-68.703126h42.667969c4.710937 0 8.53125 3.820313 8.53125 8.53125.007812 2.304688-.9375 4.503907-2.609376 6.085938-1.5625 1.582031-3.699218 2.464844-5.921874 2.449219h-42.667969zm42.667969 34.132813c.175781 0 .339843 0 .511718-.050781.167969-.050782.160156.050781.253906.050781.242188-.035156.480469-.082031.71875-.144531 6.222657-.273438 12.117188-2.882813 16.503907-7.3125 4.898437-4.761719 7.644531-11.3125 7.609375-18.144532 0-14.136718-11.460938-25.597656-25.597656-25.597656h-8.535157v-34.132812c0-4.714844 3.820313-8.535156 8.535157-8.535156h13.351562c.714844 15.53125 11.832031 28.617187 27.042969 31.832031l54.613281 11.320312c-.71875 1.226563-1.109375 2.617188-1.144531 4.039063v21.074218h-17.066407c-9.425781 0-17.066406 7.644532-17.066406 17.070313v23.78125c-3.464844-.636719-6.996094-.84375-10.511718-.613281-12.222657.816406-23.539063 6.742187-31.175782 16.320312-7.636718 9.578125-10.894531 21.925782-8.972656 34.023438.238281 1.476562.777344 2.851562 1.152344 4.269531-11.648438-7.90625-18.664063-21.039063-18.757813-35.117187v-34.132813zm-24.082032 140.800781 15.546875-31.855468v1.988281c0 9.425781 7.640625 17.066406 17.066407 17.066406h13.414062l-20.710938 28.160156c-1.90625 2.570313-4.605468 4.449219-7.679687 5.34375-4.015625 1.238281-8.375.675781-11.945313-1.546875-3.503906-2.082031-5.992187-5.519531-6.878906-9.496094 0-.433593-.035156-.867187-.101562-1.296874-.40625-2.855469.042968-5.765626 1.289062-8.363282zm-10.242187 27.65625c2.050781 2.378906 4.445312 4.4375 7.109375 6.101563 2.65625 1.601562 5.53125 2.8125 8.535156 3.582031l-9.585938 16.589844c-4.675781-4.023438-9.910156-7.355469-15.539062-9.890625zm0 0"/><path d="m64.421875 418.160156c-16.496094 0-29.867187 13.375-29.867187 29.867188 0 16.496094 13.371093 29.867187 29.867187 29.867187 16.492187 0 29.867187-13.371093 29.867187-29.867187 0-16.492188-13.375-29.867188-29.867187-29.867188zm0 42.667969c-7.070313 0-12.800781-5.730469-12.800781-12.800781 0-7.066406 5.730468-12.800782 12.800781-12.800782 7.066406 0 12.800781 5.734376 12.800781 12.800782 0 7.070312-5.734375 12.800781-12.800781 12.800781zm0 0"/></svg>