<svg height="512pt" viewBox="-9 0 512 512.05319" width="512pt" xmlns="http://www.w3.org/2000/svg"><path d="m290.160156 238.933594v42.667968h-59.734375v-42.667968c.027344-9.414063 7.652344-17.039063 17.066407-17.066406h25.601562c9.414062.027343 17.039062 7.652343 17.066406 17.066406zm0 0" fill="#37474f"/><path d="m273.09375 238.933594v42.667968h-42.667969v-42.667968c.027344-9.414063 7.652344-17.039063 17.066407-17.066406h8.535156c9.414062.027343 17.039062 7.652343 17.066406 17.066406zm0 0" fill="#607d8b"/><path d="m93.894531 247.464844h28.628907v34.136718h-28.628907c-9.425781 0-17.066406-7.640624-17.066406-17.066406 0-9.425781 7.640625-17.070312 17.066406-17.070312zm0 0" fill="#607d8b"/><path d="m162.160156 251.050781v-157.890625h-34.132812v157.890625zm0 0" fill="#cfd8dc"/><path d="m221.894531 29.097656v73.300782c0 4.714843-3.820312 8.535156-8.535156 8.535156h-136.53125c-4.714844 0-8.535156-3.820313-8.535156-8.535156v-73.300782c.019531-2.234375.90625-4.378906 2.476562-5.972656l12.117188-12.117188c1.59375-1.570312 3.734375-2.457031 5.972656-2.472656h112.46875c2.238281.015625 4.378906.902344 5.972656 2.472656l12.117188 12.117188c1.570312 1.59375 2.457031 3.738281 2.476562 5.972656zm0 0" fill="#9e9e9e"/><path d="m204.828125 37.632812v73.300782h-128c-4.714844 0-8.535156-3.820313-8.535156-8.535156v-73.300782c.019531-2.234375.90625-4.378906 2.476562-5.972656l6.058594-6.058594h107.433594c2.238281.019532 4.378906.90625 5.972656 2.476563l12.117187 12.117187c1.570313 1.59375 2.457032 3.734375 2.476563 5.972656zm0 0" fill="#cfd8dc"/><path d="m136.558594 59.734375c0 9.425781-7.640625 17.066406-17.066406 17.066406-9.425782 0-17.066407-7.640625-17.066407-17.066406s7.640625-17.066406 17.066407-17.066406c9.425781 0 17.066406 7.640625 17.066406 17.066406zm0 0" fill="#f44335"/><path d="m179.226562 256v42.667969h-68.265624v-51.203125c0-4.710938 3.820312-8.53125 8.53125-8.53125h42.667968c9.414063.027344 17.039063 7.652344 17.066406 17.066406zm0 0" fill="#37474f"/><path d="m162.160156 256v42.667969h-51.199218v-51.203125c0-4.710938 3.820312-8.53125 8.53125-8.53125h25.601562c9.414062.027344 17.039062 7.652344 17.066406 17.066406zm0 0" fill="#607d8b"/><path d="m447.941406 243.882812-72.449218 38.144532-6.226563-1.453125-70.574219-16.039063 25.601563-13.484375 34.132812-17.921875 72.191407-37.972656 8.621093-4.523438c2-1.0625 4.34375-1.285156 6.507813-.613281 2.164062.675781 3.96875 2.1875 5.011718 4.199219l7.933594 15.105469c6.570313 12.511719 1.757813 27.980469-10.75 34.558593zm0 0" fill="#37474f"/><path d="m430.875 248.148438-61.609375 32.425781-70.574219-16.039063 25.601563-13.484375 34.132812-17.921875 72.191407-37.972656c1.335937.78125 2.402343 1.9375 3.074218 3.328125l7.933594 15.105469c6.570312 12.511718 1.757812 27.984375-10.75 34.558594zm0 0" fill="#607d8b"/><g fill="#9e9e9e"><path d="m42.691406 307.199219h17.070313c4.710937 0 8.53125 3.820312 8.53125 8.535156v34.132813h-34.132813v-34.132813c0-4.714844 3.820313-8.535156 8.53125-8.535156zm0 0"/><path d="m435.226562 307.199219h17.066407c4.714843 0 8.535156 3.820312 8.535156 8.535156v34.132813h-34.136719v-34.132813c0-4.714844 3.824219-8.535156 8.535156-8.535156zm0 0"/><path d="m375.492188 273.066406v38.65625c.015624 2.539063-1.113282 4.953125-3.070313 6.570313l-45.738281 38.144531c-1.535156 1.273438-3.46875 1.964844-5.460938 1.960938h-193.195312c-6.078125.023437-11.691406-3.242188-14.679688-8.53125-.910156-1.472657-1.574218-3.089844-1.960937-4.777344-.273438-1.234375-.417969-2.492188-.425781-3.757813v-59.730469h80.128906c3.375.007813 6.675781-1.003906 9.46875-2.902343l17.066406-11.265625c2.792969-1.898438 6.097656-2.910156 9.472656-2.898438h139.863282c4.710937 0 8.53125 3.820313 8.53125 8.53125zm0 0"/></g><path d="m354.160156 264.535156v38.652344c.011719 2.542969-1.113281 4.953125-3.070312 6.574219l-45.742188 38.140625c-1.535156 1.273437-3.464844 1.96875-5.460937 1.964844h-186.539063c-.910156-1.472657-1.574218-3.089844-1.960937-4.777344-.273438-1.234375-.417969-2.492188-.425781-3.757813v-59.730469h80.128906c3.375.007813 6.675781-1.003906 9.46875-2.902343l17.066406-11.265625c2.792969-1.898438 6.097656-2.910156 9.472656-2.898438zm0 0" fill="#cfd8dc"/><path d="m358.425781 179.199219v58.199219l-34.132812 17.917968v-76.117187c0-4.710938 3.820312-8.53125 8.535156-8.53125h17.066406c4.710938 0 8.53125 3.820312 8.53125 8.53125zm0 0" fill="#607d8b"/><path d="m298.691406 358.398438c0 9.425781-7.640625 17.066406-17.066406 17.066406s-17.066406-7.640625-17.066406-17.066406c0-9.425782 7.640625-17.066407 17.066406-17.066407s17.066406 7.640625 17.066406 17.066407zm0 0" fill="#424242"/><path d="m426.691406 341.332031h34.136719c4.710937 0 8.53125 3.820313 8.53125 8.535157v17.066406c0 4.710937-3.820313 8.53125-8.53125 8.53125h-34.136719c-4.710937 0-8.53125-3.820313-8.53125-8.53125v-17.066406c0-4.714844 3.820313-8.535157 8.53125-8.535157zm0 0" fill="#424242"/><path d="m34.160156 341.332031h34.132813c4.714843 0 8.535156 3.820313 8.535156 8.535157v17.066406c0 4.710937-3.820313 8.53125-8.535156 8.53125h-34.132813c-4.714844 0-8.535156-3.820313-8.535156-8.53125v-17.066406c0-4.714844 3.820312-8.535157 8.535156-8.535157zm0 0" fill="#424242"/><path d="m51.226562 512c-28.277343 0-51.1992182-22.921875-51.1992182-51.199219 0-28.277343 22.9218752-51.199219 51.1992182-51.199219 28.277344 0 51.199219 22.921876 51.199219 51.199219-.027343 28.265625-22.933593 51.171875-51.199219 51.199219zm0-85.332031c-18.851562 0-34.132812 15.28125-34.132812 34.132812 0 18.851563 15.28125 34.132813 34.132812 34.132813 18.851563 0 34.132813-15.28125 34.132813-34.132813 0-18.851562-15.28125-34.132812-34.132813-34.132812zm0 0" fill="#5e5f62"/><path d="m247.492188 512c-28.277344 0-51.199219-22.921875-51.199219-51.199219 0-28.277343 22.921875-51.199219 51.199219-51.199219 28.277343 0 51.199218 22.921876 51.199218 51.199219-.027344 28.265625-22.933594 51.171875-51.199218 51.199219zm0-85.332031c-18.851563 0-34.132813 15.28125-34.132813 34.132812 0 18.851563 15.28125 34.132813 34.132813 34.132813 18.851562 0 34.132812-15.28125 34.132812-34.132813 0-18.851562-15.28125-34.132812-34.132812-34.132812zm0 0" fill="#5e5f62"/><path d="m443.761719 512c-28.277344 0-51.203125-22.921875-51.203125-51.199219 0-28.277343 22.925781-51.199219 51.203125-51.199219 28.273437 0 51.199219 22.921876 51.199219 51.199219-.027344 28.265625-22.9375 51.171875-51.199219 51.199219zm0-85.332031c-18.851563 0-34.136719 15.28125-34.136719 34.132812 0 18.851563 15.285156 34.132813 34.136719 34.132813 18.847656 0 34.132812-15.28125 34.132812-34.132813 0-18.851562-15.285156-34.132812-34.132812-34.132812zm0 0" fill="#5e5f62"/><path d="m.0273438 460.800781c-.0273438 27.171875 21.1796872 49.636719 48.3085942 51.167969 27.128906 1.535156 50.734374-18.390625 53.769531-45.394531 3.035156-27.003907-15.550781-51.675781-42.34375-56.207031v-26.367188h17.066406c4.710937 0 8.53125-3.820312 8.53125-8.535156v-11.203125l21.742187-8.363281c4.769532 6.859374 12.570313 10.972656 20.925782 11.035156h129.570312c1.578125 4.425781 4.351563 8.324218 8.011719 11.273437l-10.503906 32.023438c-26.273438-3.910157-51.160157 12.960937-57.257813 38.8125-6.09375 25.855469 8.632813 52.066406 33.882813 60.304687 25.253906 8.242188 52.605469-4.238281 62.929687-28.710937 10.328125-24.472657.179688-52.777344-23.34375-65.113281l10.351563-31.523438c10.796875-.0625 20.390625-6.890625 23.988281-17.066406h103.96875v8.53125c0 4.714844 3.820312 8.535156 8.535156 8.535156h17.066406v26.367188c-26.246093 4.4375-44.714843 28.242187-42.488281 54.765624 2.226563 26.523438 24.40625 46.917969 51.023438 46.917969 26.617187 0 48.792969-20.394531 51.019531-46.917969 2.226562-26.523437-16.242188-50.328124-42.488281-54.765624v-26.367188h17.066406c4.714844 0 8.535156-3.820312 8.535156-8.535156v-34.132813c0-4.710937-3.820312-8.53125-8.535156-8.53125v-25.601562c0-4.710938-3.820313-8.53125-8.53125-8.53125h-8.535156v-8.535157c0-4.710937-3.820313-8.53125-8.53125-8.53125-4.714844 0-8.535157 3.820313-8.535157 8.53125v8.535157h-8.535156c-4.710937 0-8.53125 3.820312-8.53125 8.53125v25.601562c-4.714844 0-8.535156 3.820313-8.535156 8.53125v8.535157h-61.746094l29.96875-24.996094c3.929688-3.234375 6.195313-8.058594 6.179688-13.148438v-24.550781l67.882812-35.730469c16.679688-8.769531 23.09375-29.394531 14.335938-46.078125l-7.894532-15.011719c-2.074218-4.035156-5.675781-7.074218-10.003906-8.4375-4.328125-1.363281-9.023437-.941406-13.035156 1.175782l-68.351562 35.910156v-39.800781c0-9.425781-7.640626-17.066407-17.066407-17.066407h-17.066406c-9.425781 0-17.066406 7.640626-17.066406 17.066407v66.722656l-17.070313 8.96875v-15.957031c0-14.140625-11.460937-25.601563-25.597656-25.601563h-25.601562c-14.136719 0-25.597657 11.460938-25.597657 25.601563v17.671875c-3.207031.632812-6.253906 1.890625-8.96875 3.703125l-17.195312 11.359375c-1.375.917969-2.992188 1.402343-4.640625 1.398437h-3.328125v-25.601562c.21875-4.503906-1.417969-8.902344-4.53125-12.167969-3.441407-3.09375-7.914063-4.785156-12.539063-4.742187 0-.050782 0-.101563 0-.15625v-110.933594h51.203125c4.710938 0 8.53125-3.820313 8.53125-8.53125v-81.800782c-.011719-4.523437-1.808593-8.859374-5-12.066406l-12.066406-12.066406c-3.191406-3.210938-7.535156-5.0117188-12.066406-5h-112.398438c-4.53125-.0117188-8.875 1.789062-12.066406 5l-12.066406 12.066406c-3.195313 3.207032-4.992188 7.542969-5 12.066406v81.800782c0 4.710937 3.820312 8.53125 8.53125 8.53125h51.199219v111.0625c-4.636719-.035156-9.117188 1.667968-12.558594 4.769531-1.039063 1.074219-1.902344 2.296875-2.5625 3.636719h-10.476563c-14.140625 0-25.601562 11.460937-25.601562 25.601562 0 14.136719 11.460937 25.597656 25.601562 25.597656h8.53125v49.273438l-17.066406 6.570312v-4.644531c0-4.710937-3.820313-8.53125-8.53125-8.53125v-25.601562c0-4.710938-3.820313-8.53125-8.535156-8.53125h-8.53125v-8.535157c0-4.710937-3.824219-8.53125-8.535157-8.53125-4.710937 0-8.535156 3.820313-8.535156 8.53125v8.535157h-8.53125c-4.714844 0-8.535156 3.820312-8.535156 8.53125v25.601562c-4.710938 0-8.53125 3.820313-8.53125 8.53125v34.132813c0 4.714844 3.820312 8.535156 8.53125 8.535156h17.066406v26.367188c-24.601562 4.179687-42.6171872 25.476562-42.6640622 50.433593zm281.5976562 0c0 18.851563-15.28125 34.132813-34.132812 34.132813-18.851563 0-34.132813-15.28125-34.132813-34.132813 0-18.851562 15.28125-34.132812 34.132813-34.132812.734374 0 1.425781.167969 2.144531.210937l-10.242188 31.257813c-.996093 2.910156-.347656 6.128906 1.691407 8.429687 2.039062 2.296875 5.160156 3.320313 8.164062 2.679688 3.007812-.640625 5.4375-2.851563 6.359375-5.785156l10.28125-31.332032c9.78125 6.257813 15.710937 17.058594 15.734375 28.671875zm196.269531 0c.066407 17.753907-13.488281 32.59375-31.179687 34.132813-17.6875 1.539062-33.597656-10.742188-36.597656-28.242188s7.917968-34.375 25.109374-38.8125v32.921875c0 4.710938 3.820313 8.53125 8.535157 8.53125 4.710937 0 8.53125-3.820312 8.53125-8.53125v-32.921875c15.023437 3.878906 25.542969 17.402344 25.601562 32.921875zm-17.066406-93.867187h-34.136719v-17.066406h34.136719zm-25.601563-51.199219h17.066407v17.066406h-17.066407zm-310.492187 33.390625 62.753906-24.140625 54.78125 24.882813h-114.242187c-1.136719-.023438-2.257813-.277344-3.292969-.742188zm156.890625 17.808594c-4.710938 0-8.53125-3.820313-8.53125-8.535156 0-4.710938 3.820312-8.53125 8.53125-8.53125 4.714844 0 8.535156 3.820312 8.535156 8.53125 0 4.714843-3.820312 8.535156-8.535156 8.535156zm161.582031-168.746094 7.941407 15.144531c4.378906 8.347657 1.164062 18.664063-7.183594 23.042969l-60.707032 31.914062c-2.113281-7.253906-8.746093-12.25-16.296874-12.289062h-33.707032l13.421875-7.058594 15.71875-8.25.078125-.058594zm-110.378906 38.75v-57.738281h17.066406v48.75l-2.492187 1.308593zm-93.867187 1.996094c0-4.714844 3.820312-8.535156 8.53125-8.535156h25.601562c4.710938 0 8.53125 3.820312 8.53125 8.535156v17.066406h-42.664062zm-16.503907 35.53125c1.375-.917969 2.988281-1.402344 4.640625-1.398438h139.863282v38.671875l-45.738282 38.128907h-15.566406c-2.914062-8.363282-9.96875-14.605469-18.625-16.488282-8.652344-1.878906-17.660156.875-23.785156 7.273438l-66.953125-30.414063v-20.710937c3.203125-.628906 6.253906-1.890625 8.96875-3.703125zm-51.765625-1.398438h-51.199218v-25.445312c2.066406-.171875 4.140624-.222656 6.214843-.15625h38.773438c2.074219-.0625 4.148437-.007813 6.210937.164062zm-93.863281-243.933594 12.066406-12.066406h112.398438l12.066406 12.066406v73.265626h-136.53125zm76.796875 90.332032v110.933594h-17.066406v-110.933594zm-68.265625 145.070312c0-4.714844 3.820313-8.535156 8.535156-8.535156h8.53125v17.066406h-8.53125c-4.714843 0-8.535156-3.820312-8.535156-8.53125zm34.132813 25.597656h59.734374v19.738282l-59.734374 22.972656zm-76.800782 25.601563h17.070313v17.066406h-17.070313zm-8.53125 34.132813h34.132813v17.066406h-34.132813zm51.199219 110.933593c.066406 17.753907-13.488281 32.59375-31.175781 34.132813-17.6875 1.539062-33.601563-10.742188-36.601563-28.242188-2.996093-17.5 7.921875-34.375 25.109375-38.8125v32.921875c0 4.710938 3.824219 8.53125 8.535156 8.53125 4.710938 0 8.535157-3.820312 8.535157-8.53125v-32.921875c15.023437 3.878906 25.539062 17.402344 25.597656 32.921875zm0 0"/><path d="m145.09375 59.734375c0-14.140625-11.460938-25.601563-25.601562-25.601563-14.136719 0-25.597657 11.460938-25.597657 25.601563 0 14.136719 11.460938 25.597656 25.597657 25.597656 14.140624 0 25.601562-11.460937 25.601562-25.597656zm-25.601562 8.53125c-4.710938 0-8.53125-3.820313-8.53125-8.53125 0-4.714844 3.820312-8.535156 8.53125-8.535156 4.714843 0 8.535156 3.820312 8.535156 8.535156 0 4.710937-3.820313 8.53125-8.535156 8.53125zm0 0"/><path d="m290.160156 307.199219h34.132813c4.714843 0 8.535156-3.820313 8.535156-8.53125 0-4.714844-3.820313-8.535157-8.535156-8.535157h-34.132813c-4.714844 0-8.535156 3.820313-8.535156 8.535157 0 4.710937 3.820312 8.53125 8.535156 8.53125zm0 0"/><path d="m170.691406 76.800781h17.070313c4.710937 0 8.53125-3.820312 8.53125-8.535156 0-4.710937-3.820313-8.53125-8.53125-8.53125h-17.070313c-4.710937 0-8.53125 3.820313-8.53125 8.53125 0 4.714844 3.820313 8.535156 8.53125 8.535156zm0 0"/></svg>