<svg height="509pt" viewBox="-1 0 509 509.50132" width="509pt" xmlns="http://www.w3.org/2000/svg"><path d="m50.058594 128.9375-21.332032 7.9375c-5.710937 2.117188-9.847656 7.132812-10.839843 13.140625l-8.875 51.542969c-1.097657 6.546875 1.699219 13.136718 7.167969 16.894531l18.347656 12.628906 10.582031-2.515625 9.070313-2.960937 12.261718-51.738281 14.996094-14.507813zm0 0" fill="#283593"/><path d="m202.378906 250.28125c-6.070312-.03125-12.136718-.375-18.175781-1.023438-8.53125-1.554687-17.320313-.878906-25.515625 1.964844-.9375.597656-1.792969 1.191406-2.730469 1.875-16.640625 11.09375-34.558593 23.554688-34.558593 41.21875-.035157 1.460938.105468 2.921875.425781 4.351563h-36.691407c-4.53125 0-8.980468-1.207031-12.886718-3.5l-18.175782-10.582031c-4.449218-2.621094-8.015624-6.515626-10.242187-11.179688-4.519531-7.472656-7.804687-15.625-9.726563-24.148438-2.21875-19.027343 5.460938-39.082031 8.535157-57.769531 2.386719-14.082031 4.265625-28.332031 5.628906-42.582031 1.28125-12.542969.683594-25.597656 7.167969-36.777344 4.867187-8.023437 15.957031-12.460937 23.722656-17.238281 3.757812-2.390625 7.597656-4.777344 11.4375-7.167969 1.875-1.109375 3.753906-2.304687 5.628906-3.5 17.835938-11.175781 28.589844 14.253906 35.074219 26.453125 16.382813 30.808594 33.109375 61.527344 48.726563 92.757813.765624 1.367187 1.449218 2.730468 2.214843 4.097656 5.976563 11.261719 32.855469 41.984375 20.140625 42.75zm0 0" fill="#283593"/><path d="m181.046875 254.550781c-5.632813.339844-15.789063-1.027343-25.089844-1.453125-7.765625-.425781-26.113281 39.535156-29.78125 42.011719-17.320312 11.605469-26.113281-15.214844-26.113281 3.472656v.085938h-14.929688c-4.53125 0-8.980468-1.207031-12.886718-3.5l-18.175782-10.582031c-4.449218-2.621094-8.015624-6.515626-10.242187-11.179688-4.519531-7.472656-7.804687-15.625-9.726563-24.148438-2.21875-19.027343 5.460938-39.082031 8.535157-57.769531 2.386719-14.082031 4.265625-28.332031 5.628906-42.582031 1.28125-12.542969.683594-25.597656 7.167969-36.777344 4.867187-8.023437 15.957031-12.460937 23.722656-17.238281 3.757812-2.390625 7.597656-4.777344 11.4375-7.167969 8.875 5.289063 15.015625 19.113282 19.367188 27.222656 16.386718 30.804688 33.109374 61.523438 48.726562 92.757813.769531 1.363281 1.453125 2.730469 2.21875 4.09375 4.523438 8.449219 20.90625 27.988281 23.296875 37.460937.683594 3.074219 0 5.121094-3.15625 5.292969zm0 0" fill="#3f51b5"/><path d="m496.949219 367.785156c-2.464844 4.9375-6.792969 8.683594-12.03125 10.414063l-17.410157 5.800781c-.9375.339844 0 8.617188.34375 9.472656 2.21875 6.65625 8.191407 12.203125 7.167969 19.882813-.511719 3.328125-2.902343 5.035156-4.609375 7.59375-1.78125 2.625-2.785156 5.703125-2.902344 8.875.125 4.378906 1.324219 8.65625 3.5 12.457031 1.707032 3.671875-.425781 5.546875-3.070312 7.851562-2.273438 1.847657-4.308594 3.96875-6.058594 6.316407-2.355468 6.820312-3.253906 14.058593-2.648437 21.246093.085937 5.035157-.253907 10.070313-.253907 15.105469.011719 2.566407-1.1875 4.992188-3.234374 6.535157-2.050782 1.546874-4.710938 2.035156-7.175782 1.316406l-15.957031-4.523438-146.859375-41.984375c-3.527344-1.035156-5.953125-4.261719-5.972656-7.9375v-16.128906c-.015625-2.175781.847656-4.265625 2.386718-5.800781l2.21875-2.21875c2.390626-2.371094 3.070313-5.96875 1.707032-9.046875l-10.066406-23.636719-161.28125-304.722656c-2.816407-5.207032-5.71875-10.414063-8.449219-15.703125-1.023438-1.960938-2.046875-3.925781-2.984375-5.972657-.597656-.996093-1.003906-2.097656-1.195313-3.242187-.003906-3.105469 1.746094-5.945313 4.523438-7.339844 0 0 29.265625-14.59375 31.316406-15.53125l130.132813-10.238281 5.035156-.425781 54.015625 15.445312 123.304687 170.496094v8.957031c-.082031.425782-.082031.941406-.167968 1.367188l-7.851563 39.335937c-.347656 1.773438-.078125 3.613281.769531 5.207031l14.761719 29.609376c.765625 1.28125 1.535156 2.476562 2.386719 3.757812l31.40625 39.25c.851562 1.28125 1.621094 2.476562 2.386718 3.757812l2.902344 5.628907c2.917969 5.925781 2.882813 12.875-.085937 18.773437zm0 0" fill="#0377bc"/><path d="m475.617188 363.519531c-2.464844 4.933594-6.796876 8.683594-12.03125 10.410157l-17.410157 5.804687c-.9375.339844 0 8.617187.339844 9.472656 2.21875 6.65625 8.195313 12.199219 7.167969 19.882813-.511719 3.324218-2.898438 5.03125-4.605469 7.59375-1.78125 2.625-2.789063 5.703125-2.902344 8.875.121094 4.375 1.324219 8.65625 3.5 12.457031 1.707031 3.667969-.425781 5.546875-3.074219 7.851563-2.273437 1.84375-4.308593 3.964843-6.058593 6.3125-2.351563 6.824218-3.253907 14.058593-2.644531 21.25.085937 5.035156-.253907 10.070312-.253907 15.105468-.011719 3.308594-1.992187 6.296875-5.035156 7.59375l-146.859375-41.984375c-3.527344-1.035156-5.953125-4.261719-5.972656-7.9375v-16.128906c-.015625-2.175781.847656-4.265625 2.386718-5.800781l2.21875-2.21875c2.390626-2.371094 3.070313-5.96875 1.707032-9.046875l-10.066406-23.636719-161.28125-304.722656c-2.816407-5.207032-5.71875-10.414063-8.449219-15.703125-1.023438-1.960938-2.046875-3.925781-2.984375-5.972657-.597656-.996093-1.003906-2.097656-1.195313-3.242187-.003906-3.105469 1.746094-5.945313 4.523438-7.339844 0 0 29.265625-14.59375 31.316406-15.53125l130.132813-10.238281 37.71875 10.75 123.304687 170.496094v8.960937c-.085937.425781-.085937.9375-.171875 1.367188l-7.847656 39.335937c-.351563 1.773438-.078125 3.609375.765625 5.207032l14.761719 29.609374c.769531 1.28125 1.539062 2.476563 2.390624 3.753907l31.402344 39.253906c.855469 1.28125 1.621094 2.476563 2.390625 3.753906l2.902344 5.632813c2.914063 5.925781 2.882813 12.875-.085937 18.773437zm0 0" fill="#02a9f4"/><path d="m266.292969 39.9375-2.644531 1.960938c-.597657.511718-1.195313 1.023437-1.792969 1.621093l-13.140625 13.140625c-1.992188 2.003906-4.457032 3.472656-7.167969 4.269532l-68.523437 20.5625c-4.824219 1.519531-10.082032.730468-14.25-2.132813-2.167969-1.34375-3.980469-3.1875-5.289063-5.375l-13.996094-23.296875c-2.960937-5.007812-3.183593-11.171875-.597656-16.382812l1.792969-3.585938c1.683594-3.304688 4.371094-5.992188 7.679687-7.679688l10.238281-5.117187c1.101563-.589844 2.28125-1.023437 3.5-1.28125l30.292969-7.59375c1.367188-.34375 2.773438-.515625 4.183594-.511719h55.890625c1.121094-.019531 2.238281.09375 3.328125.339844l3.585937.683594c6.597657 1.316406 11.804688 6.386718 13.296876 12.949218 1.492187 6.558594-1.007813 13.386719-6.386719 17.429688zm0 0" fill="#00838f"/><path d="m441.484375 217.683594-41.386719 10.414062c-4.453125 1.105469-9.160156.363282-13.058594-2.050781-1.15625-.679687-2.21875-1.511719-3.15625-2.472656l-9.8125-9.8125c-.304687-.296875-.589843-.609375-.855468-.941407l-50.34375-58.707031c-.265625-.332031-.550782-.648437-.855469-.941406l-45.738281-45.738281c-3.222656-3.207032-5.03125-7.570313-5.035156-12.117188v-14.761718c.019531-7.351563 4.722656-13.875 11.691406-16.214844l12.117187-4.007813c1.175781-.425781 2.316407-.9375 3.414063-1.539062l28.925781-17.320313 1.964844-1.195312c6.117187-3.664063 13.867187-3.15625 19.457031 1.28125l16.554688 13.226562c38.773437 31.035156 67.316406 73.019532 81.917968 120.488282l6.398438 20.824218c1.382812 4.480469.859375 9.335938-1.449219 13.421875-2.308594 4.082031-6.199219 7.035157-10.75 8.164063zm0 0" fill="#00838f"/><path d="m244.960938 39.9375-2.644532 1.960938c-.597656.511718-1.195312 1.023437-1.792968 1.621093l-13.140626 13.140625c-1.992187 2.003906-4.457031 3.472656-7.167968 4.269532l-61.441406 18.429687c-2.167969-1.34375-3.980469-3.1875-5.289063-5.375l-13.996094-23.296875c-2.960937-5.007812-3.183593-11.171875-.597656-16.382812l1.792969-3.585938c1.683594-3.304688 4.371094-5.992188 7.679687-7.679688l10.238281-5.117187c1.101563-.589844 2.28125-1.023437 3.5-1.28125l30.292969-7.59375c1.367188-.34375 2.773438-.515625 4.183594-.511719h34.558594c1.117187-.019531 2.234375.09375 3.328125.339844l3.582031.683594c6.597656 1.316406 11.808594 6.386718 13.300781 12.949218 1.492188 6.558594-1.007812 13.386719-6.386718 17.429688zm0 0" fill="#00bcd4"/><path d="m420.148438 217.683594-33.109376 8.363281c-1.15625-.679687-2.21875-1.511719-3.15625-2.472656l-9.8125-9.8125c-.304687-.296875-.589843-.609375-.855468-.941407l-50.34375-58.707031c-.265625-.332031-.550782-.648437-.855469-.941406l-45.738281-45.738281c-3.222656-3.207032-5.03125-7.570313-5.035156-12.117188v-14.761718c.019531-7.351563 4.722656-13.875 11.691406-16.214844l12.117187-4.007813c1.175781-.425781 2.316407-.9375 3.414063-1.539062l28.925781-17.320313c0 .046875.039063.085938.085937.085938l16.554688 13.226562c38.777344 31.035156 67.320312 73.019532 81.921875 120.488282l6.398437 20.824218c1.382813 4.480469.855469 9.335938-1.453124 13.421875-2.308594 4.082031-6.195313 7.035157-10.75 8.164063zm0 0" fill="#00bcd4"/><path d="m430.132812 383.402344c-6.484374 14.082031-4.265624 28.585937-2.21875 43.433594 1.507813 6.167968 2.507813 12.445312 2.988282 18.773437.097656 1.574219-.257813 3.144531-1.023438 4.523437-1.996094 2.21875-5.011718 3.222657-7.9375 2.644532-4.582031-.28125-9.113281-1.140625-13.484375-2.558594-8.359375-2.476562-16.296875-6.230469-24.746093-8.789062-15.914063-4.648438-31.410157-10.613282-46.335938-17.835938-9.066406-3.140625-16.878906-9.125-22.269531-17.066406-3.785157-7.785156-6.238281-16.148438-7.253907-24.746094-11.433593-61.695312-31.574218-125.609375-69.804687-176.214844-8.835937-11.609375-18.414063-22.640625-28.671875-33.023437-10.140625-8.738281-17.621094-20.152344-21.589844-32.9375-1.183594-4.554688-1.035156-9.351563.429688-13.824219 3.476562-8.535156 10.839844-14.882812 19.796875-17.066406 10.949219-3.488282 22.925781-1.210938 31.828125 6.058594 7.050781 7.78125 13.390625 16.175781 18.945312 25.089843 6.539063 8.839844 12.578125 18.042969 18.089844 27.5625 10.785156 19 18.476562 39.59375 22.785156 61.011719 4.742188 27.519531 16.5 53.351562 34.132813 75.007812 12.632812 14.40625 28.945312 25.113282 47.1875 30.976563 19.796875 6.398437 41.046875 2.046875 61.015625 8.105469 11.945312 3.585937 8.53125 12.03125 2.21875 19.796875-5.523438 6.4375-10.25 13.511719-14.082032 21.078125zm0 0" fill="#00695c"/><path d="m408.800781 383.402344c-6.484375 14.082031-4.265625 28.585937-2.21875 43.433594 1.507813 6.167968 2.503907 12.445312 2.984375 18.773437.101563 1.574219-.253906 3.144531-1.023437 4.523437l-.085938.085938c-8.359375-2.476562-16.296875-6.230469-24.746093-8.789062-15.914063-4.648438-31.410157-10.613282-46.335938-17.835938-9.066406-3.140625-16.878906-9.125-22.269531-17.066406-3.785157-7.785156-6.238281-16.148438-7.253907-24.746094-11.433593-61.695312-31.574218-125.609375-69.804687-176.214844-8.835937-11.609375-18.414063-22.640625-28.671875-33.023437-10.140625-8.738281-17.621094-20.152344-21.589844-32.9375-1.183594-4.554688-1.035156-9.351563.429688-13.824219 3.476562-8.535156 10.839844-14.882812 19.796875-17.066406 3.921875 1.175781 7.515625 3.25 10.496093 6.058594 7.050782 7.78125 13.390626 16.175781 18.941407 25.089843 6.542969 8.839844 12.582031 18.042969 18.09375 27.5625 10.78125 19 18.472656 39.59375 22.78125 61.011719 4.746093 27.519531 16.5 53.351562 34.132812 75.007812 12.636719 14.40625 28.945313 25.113282 47.191407 30.976563 19.796874 6.398437 41.046874 2.046875 61.011718 8.105469 11.949219 3.585937 8.535156 12.03125 2.21875 19.796875-5.519531 6.4375-10.25 13.511719-14.078125 21.078125zm0 0" fill="#009688"/><path d="m418.273438 290.21875c-.671876 3.152344-2.710938 5.839844-5.5625 7.339844-2.851563 1.5-6.222657 1.65625-9.203126.425781l-5.117187-2.304687-19.371094-8.617188c-2.058593-.875-3.769531-2.40625-4.863281-4.351562l-2.050781-3.839844c-1.160157-2.472656-1.140625-5.332032.054687-7.785156 1.191406-2.453126 3.429688-4.234376 6.089844-4.847657l14.933594-4.605469 3.5-1.109374c4.882812-2.941407 11.179687-1.890626 14.847656 2.472656 5.40625 7.988281 7.792969 17.636718 6.742188 27.222656zm0 0" fill="#283593"/><path d="m401.207031 290.21875c-.191406 2.117188-1.203125 4.078125-2.816406 5.460938l-19.371094-8.617188c-2.058593-.875-3.769531-2.40625-4.863281-4.351562l-2.050781-3.839844c-1.160157-2.472656-1.140625-5.332032.054687-7.785156 1.191406-2.453126 3.429688-4.234376 6.089844-4.847657l14.933594-4.605469c.492187.390626.921875.847657 1.28125 1.363282 5.40625 7.988281 7.792968 17.636718 6.742187 27.222656zm0 0" fill="#3f51b5"/><path d="m126.175781 170.667969c0 9.386719-11.433593 17.066406-25.597656 17.066406-2.878906.015625-5.746094-.328125-8.535156-1.023437-9.984375-2.304688-17.066407-8.621094-17.066407-16.042969 0-7.425781 7.082032-13.738281 17.066407-16.042969 2.789062-.699219 5.65625-1.042969 8.535156-1.023438 14.164063 0 25.597656 7.679688 25.597656 17.066407zm0 0" fill="#424242"/><path d="m150.835938 235.777344v-.085938c-4.179688-12.800781-21.332032-22.359375-41.726563-22.359375-23.550781 0-42.667969 12.714844-42.667969 28.417969 0 15.699219 19.117188 28.5 42.667969 28.5 4.652344.023438 9.289063-.492188 13.824219-1.535156zm0 0" fill="#37474f"/><path d="m274.65625 381.867188c1.28125 17.664062-12.714844 26.28125-28.757812 27.050781-4.015626.128906-8.039063-.039063-12.03125-.511719h-.085938c-5.289062-.597656-10.496094-1.453125-15.785156-1.707031-10.046875-.152344-20.066406-1.121094-29.953125-2.902344-19.019531-2.378906-35.515625-14.277344-43.777344-31.574219-2.683594-6.429687-4.992187-13.011718-6.910156-19.710937-5.375-17.152344-9.8125-34.558594-15.019531-51.796875-.25-.660156-.421876-1.347656-.511719-2.046875-.320313-1.429688-.460938-2.890625-.425781-4.351563 0-18.691406.253906-41.304687 17.578124-52.910156 7.421876-4.679688 15.839844-7.542969 24.574219-8.359375 11.457031-1.230469 23.046875-.097656 34.050781 3.328125 2.21875.59375 4.265626 1.363281 6.3125 2.132812 16.839844 7.066407 29.875 20.96875 35.839844 38.226563 5.097656 15.355469 9.144532 31.035156 12.117188 46.933594 3.890625 13.0625 9.273437 25.632812 16.042968 37.460937 3.523438 6.429688 5.8125 13.464844 6.742188 20.738282zm0 0" fill="#00838f"/><path d="m257.589844 381.867188c1.109375 15.785156-9.898438 24.320312-23.722656 26.539062h-.085938c-5.289062-.597656-10.496094-1.453125-15.785156-1.707031-10.046875-.152344-20.066406-1.121094-29.953125-2.902344-19.019531-2.378906-35.515625-14.277344-43.777344-31.574219-2.683594-6.429687-4.992187-13.011718-6.910156-19.710937-5.375-17.152344-9.8125-34.558594-15.019531-51.796875-.25-.660156-.421876-1.347656-.511719-2.046875-.320313-1.429688-.460938-2.890625-.425781-4.351563 0-18.691406.253906-41.304687 17.578124-52.910156 7.421876-4.679688 15.839844-7.542969 24.574219-8.359375 5.765625.480469 11.460938 1.597656 16.984375 3.328125 2.21875.59375 4.265625 1.363281 6.3125 2.132812 16.839844 7.066407 29.875 20.96875 35.839844 38.226563 5.097656 15.355469 9.144531 31.035156 12.117188 46.933594 3.886718 13.0625 9.273437 25.632812 16.042968 37.460937 3.523438 6.429688 5.8125 13.464844 6.742188 20.738282zm0 0" fill="#00bcd4"/><path d="m236.257812 374.273438c-.855468-.085938-1.792968-.171876-2.730468-.34375-4.183594-.511719-8.875-1.109376-14.082032-1.277344-.371093.011718-.742187-.015625-1.109374-.085938-7.925782-.101562-15.832032-.84375-23.636719-2.21875-15.273438-3.074218-18.003907-9.300781-19.199219-11.949218-2.023438-4.871094-3.761719-9.855469-5.207031-14.933594l-.339844-1.109375c-2.902344-9.214844-5.546875-18.515625-8.109375-27.816407-2.046875-7.339843-4.179688-14.675781-6.3125-21.929687-.558594-7.773437.308594-15.582031 2.558594-23.042969 1.804687-1.023437 3.765625-1.746094 5.804687-2.132812h.085938c2.722656-.539063 5.496093-.796875 8.277343-.765625 6.445313.007812 12.835938 1.191406 18.855469 3.496093 8.230469 3.496094 14.441407 10.519532 16.898438 19.117188 3.183593 9.132812 5.695312 18.488281 7.507812 27.988281 1.023438 4.863281 2.046875 9.726563 3.242188 14.507813 3.890625 14.148437 9.445312 27.78125 16.554687 40.617187zm0 0" fill="#00695c"/><path d="m218.335938 372.566406c-7.925782-.101562-15.832032-.84375-23.636719-2.21875-15.273438-3.074218-18.003907-9.300781-19.199219-11.949218-2.023438-4.871094-3.761719-9.855469-5.207031-14.933594l-.339844-1.109375c-2.902344-9.214844-5.546875-18.515625-8.109375-27.816407-2.046875-7.339843-4.179688-14.675781-6.3125-21.929687-.558594-7.773437.308594-15.582031 2.558594-23.042969 1.804687-1.023437 3.765625-1.746094 5.804687-2.132812h.085938c3.4375.566406 6.8125 1.480468 10.066406 2.730468 8.230469 3.496094 14.441406 10.519532 16.898437 19.117188 3.183594 9.132812 5.691407 18.488281 7.507813 27.988281 1.023437 4.863281 2.046875 9.726563 3.242187 14.507813 3.890626 14.148437 9.445313 27.78125 16.554688 40.617187zm0 0" fill="#009688"/><path d="m504.621094 345.105469-3.15625-6.09375c-.855469-1.40625-1.707032-2.722657-3.054688-4.71875l-30.976562-38.65625c-.777344-1.160157-1.46875-2.234375-1.851563-2.832031l-14.796875-29.328126 7.875-39.398437c.085938-.441406.136719-.886719.152344-1.332031.109375-.542969.164062-1.09375.164062-1.648438v-6.40625c.214844-.335937.496094-.625.691407-.972656 3.433593-6.125 4.21875-13.386719 2.175781-20.105469l-6.425781-20.871093c-2.746094-8.730469-5.957031-17.308594-9.617188-25.695313-.070312-.421875-.175781-.839844-.316406-1.246094-.101563-.265625-.195313-.53125-.296875-.734375-.105469-.203125-.402344-.484375-.574219-.769531-15.71875-35.542969-39.359375-67.019531-69.117187-92.023437-.503906-.550782-1.078125-1.03125-1.707032-1.433594-1.078124-.851563-2.066406-1.851563-3.160156-2.71875l-16.542968-13.226563c-8.046876-6.386719-19.128907-7.359375-28.160157-2.46875l-45.226562-12.945312c-2.5-9.347657-10.125-16.441407-19.628907-18.261719l-3.53125-.707031c-1.667968-.339844-3.367187-.511719-5.070312-.511719h-55.925781c-2.09375.00390625-4.175781.261719-6.203125.769531l-30.320313 7.574219c-1.800781.453125-3.546875 1.097656-5.207031 1.929688l-10.296875 5.121093c-4.949219 2.484375-8.964844 6.496094-11.453125 11.441407l-1.792969 3.59375c0 .070312 0 .136718-.066406.195312-7.3125 3.601562-24.398437 12.109375-28.484375 14.148438-5.617188 2.871093-9.148438 8.652343-9.140625 14.960937.097656 2.371094.765625 4.683594 1.945313 6.742187.980468 2.175782 2.066406 4.265626 3.167968 6.414063.144532.292969.304688.574219.460938.855469-2.640625.703125-5.15625 1.796875-7.46875 3.25l-17.066406 10.660156c-1.765626 1.097656-3.710938 2.175781-5.714844 3.285156-8.300782 3.703125-15.472656 9.527344-20.804688 16.886719-2.628906 4.605469-4.5 9.605469-5.546875 14.804687l-16.8125 6.21875c-8.558593 3.15625-14.753906 10.675782-16.210937 19.679688l-8.925782 51.609375c-1.632812 9.8125 2.546876 19.683594 10.734376 25.335937l14.257812 9.8125c-.492188 4.976563-.492188 9.984376 0 14.960938 1.277344 7.613281 3.949219 14.929688 7.875 21.578125.914062 1.757813 1.820312 3.507813 2.648438 5.257813 2.945312 6.214843 7.703124 11.390624 13.652343 14.847656l18.167969 10.617187c5.222656 3.042969 11.164062 4.648438 17.210938 4.648438h30.171874c1.878907 6.355469 3.710938 12.714843 5.496094 19.082031 2.707032 9.625 5.402344 19.242188 8.390625 28.773438l.46875 1.492187c1.882813 6.5 4.148438 12.878906 6.78125 19.109375 9.335938 19.839844 28.105469 33.582031 49.835938 36.496094 10.335937 1.882812 20.804687 2.910156 31.308593 3.070312 3.535157.164063 7.03125.605469 10.539063 1.042969 5.070313.734375 10.179687 1.144531 15.300781 1.234375.945313 0 1.902344 0 2.867188-.058594 10.324218-.136718 20.234375-4.085937 27.820312-11.09375l4.222656 9.6875-2.234374 2.242188c-3.128907 3.132812-4.882813 7.378906-4.875 11.800781v16.128906c.042968 7.480469 4.992187 14.046875 12.167968 16.144531l162.765625 46.484376c5.042969 1.46875 10.484375.476562 14.679688-2.679688 4.199219-3.152344 6.664062-8.105469 6.652343-13.355469 0-2.160156.070313-4.320312.136719-6.476562.078125-2.917969.171875-5.835938.113281-8.960938-.300781-5.34375.054688-10.703125 1.058594-15.957031 1.359375-1.789062 2.9375-3.402344 4.691406-4.804688 5.914063-3.871093 8.15625-11.457031 5.292969-17.921874l-.523437-1.140626c-1.328125-2.230468-2.09375-4.75-2.234375-7.339843.050781-1.574219.539062-3.105469 1.40625-4.421875.351562-.496094.730469-.976563 1.136719-1.433594 2.5625-2.707031 4.257812-6.121094 4.863281-9.804688.566406-6.585937-1.179688-13.167968-4.941407-18.609374-.867187-1.453126-1.660156-2.945313-2.371093-4.480469-.058594-.28125-.128907-.734375-.1875-1.253907l11.648437-3.882812c7.375-2.453125 13.484375-7.726562 16.980469-14.667969 4.183594-8.347656 4.199219-18.175781.042969-26.539062zm-161.175782-296.890625 16.542969 13.226562c37.484375 29.914063 65.058594 70.453125 79.105469 116.308594l6.425781 20.871094c.691407 2.238281.429688 4.664062-.71875 6.707031-1.152343 2.042969-3.09375 3.519531-5.367187 4.089844l-41.417969 10.347656c-2.914063.734375-5.996094-.117187-8.117187-2.242187l-10.238282-10.238282-50.347656-58.710937c-.433594-.503907-.855469-1.007813-1.355469-1.476563l-45.742187-45.730468c-1.570313-1.613282-2.445313-3.78125-2.4375-6.03125v-14.773438c-.003906-3.671875 2.347656-6.9375 5.835937-8.097656l12.132813-4.035156c1.789062-.59375 3.503906-1.382813 5.121094-2.347657l29.011718-17.382812c.164063-.101563.335938-.179688.488282-.289063l1.417968-.855468c3.054688-1.828126 6.925782-1.566407 9.710938.660156zm-195.082031-13.707032c.824219-1.648437 2.164063-2.988281 3.8125-3.8125l10.316407-5.121093c.546874-.269531 1.121093-.488281 1.707031-.648438l30.242187-7.601562c.6875-.164063 1.394532-.25 2.101563-.257813h55.925781c.574219-.003906 1.144531.054688 1.707031.171875l3.585938.714844c3.296875.667969 5.890625 3.210937 6.628906 6.496094.738281 3.28125-.523437 6.6875-3.21875 8.703125l-2.558594 1.953125c-.976562.726562-1.898437 1.527343-2.757812 2.390625l-13.214844 13.175781c-.996094.992187-2.222656 1.722656-3.570313 2.125l-68.519531 20.589844c-3.742187 1.121093-7.765625-.4375-9.773437-3.789063l-13.933594-23.289062c-1.140625-1.902344-1.488281-4.179688-.964844-6.339844l.09375-.273438c.136719-.546874.324219-1.082031.5625-1.59375zm-127.351562 176.90625c-2.722657-1.871093-4.125-5.144531-3.59375-8.40625l8.917969-51.566406c.484374-3.003906 2.546874-5.511718 5.402343-6.5625l8.566407-3.226562c-.144532 2.152344-.289063 4.269531-.503907 6.433594-.597656 6.101562-1.332031 12.230468-2.117187 18.339843l-5.765625 34.730469v.359375c-.402344 1.757813-.792969 3.496094-1.222657 5.308594-.75 3.207031-1.5 6.441406-2.207031 9.691406zm55.527343 76.398438-18.160156-10.617188c-2.976562-1.726562-5.355468-4.320312-6.828125-7.429687-.910156-1.921875-1.902343-3.851563-2.898437-5.769531-2.929688-4.832032-4.996094-10.136719-6.101563-15.675782-.53125-12.691406 1.058594-25.378906 4.699219-37.546874 1.382812-5.855469 2.808594-11.945313 3.796875-17.859376 1.351563-8.054687 2.511719-16.214843 3.558594-24.378906l.042969-.257812v-.078125c.785156-6.132813 1.519531-12.277344 2.125-18.398438.257812-2.644531.4375-5.296875.617187-7.960937-.144531-8.722656 1.6875-17.367188 5.355469-25.28125 3.941406-4.582032 8.855468-8.226563 14.378906-10.667969 2.289062-1.253906 4.507812-2.484375 6.503906-3.730469l17.066406-10.65625c1.222657-.878906 2.667969-1.394531 4.171876-1.484375.394531 0 .785156.058594 1.160156.167969 5.976562 1.707031 12.1875 13.730469 15.882812 20.941406l14.429688 27.1875c12.03125 22.519532 24.472656 45.808594 36.15625 69.171875l2.191406 4.105469c1.390625 2.453125 1.390625 5.457031 0 7.910156-1.582031 2.746094-4.460938 4.496094-7.628906 4.640625h-.195313c-2.96875.179688-5.925781.523438-8.859375 1.03125-.347656.070313-.679687.171875-1.039062.242188-.554688.101562-1.101563.246093-1.65625.367187-11.054688-14.113281-28.300782-21.941406-46.199219-20.984375-28.707031 0-51.199219 16.210938-51.199219 36.949219 0 20.734375 22.492188 37.035156 51.199219 37.035156 1.398437 0 2.738281-.144531 4.105469-.222656-.25 3.90625-.316406 7.738281-.34375 11.390625v.179687h-27.722656c-3.023438-.003906-5.992188-.804687-8.609376-2.320312zm51.429688-48.332031c-.164062.152343-.332031.289062-.488281.453125-1.691407 1.738281-3.226563 3.628906-4.589844 5.640625-.179687.261719-.375.511719-.546875.773437-1.25 1.929688-2.355469 3.949219-3.308594 6.042969-.144531.332031-.300781.65625-.445312.980469-.890625 2.078125-1.65625 4.207031-2.296875 6.375-.101563.339844-.195313.691406-.289063 1.042968l-.136718.492188c-2.242188.28125-4.5.425781-6.757813.4375-20.113281 0-34.132813-10.523438-34.132813-19.96875 0-10.589844 15.949219-19.882812 34.132813-19.882812 10.710937-.5 21.207031 3.101562 29.355469 10.070312-1.425782.773438-2.910156 1.492188-4.265625 2.378906-2.238281 1.519532-4.324219 3.25-6.230469 5.164063zm134.894531 154.195312c-4.6875 4.410157-10.914062 6.820313-17.347656 6.714844-5.097656.085937-10.191406-.261719-15.234375-1.03125-3.949219-.484375-7.890625-.964844-11.894531-1.152344-9.617188-.136719-19.203125-1.054687-28.671875-2.746093-16.285156-1.851563-30.488282-11.921876-37.621094-26.675782-2.359375-5.636718-4.394531-11.402344-6.085938-17.273437l-.476562-1.507813c-2.9375-9.386718-5.589844-18.832031-8.253906-28.296875-2.191406-7.824219-4.386719-15.640625-6.945313-24.039062-.042969-.347657-.109375-.691407-.195312-1.03125-.132813-.757813-.1875-1.523438-.171875-2.289063 0-20 1.042968-37.273437 13.789062-45.8125 1.800782-1.183594 3.699219-2.210937 5.675782-3.066406.582031-.253906 1.210937-.441406 1.816406-.679688 1.523437-.605468 3.074218-1.132812 4.652344-1.582031.777343-.210937 1.59375-.382812 2.398437-.5625 1.519531-.339843 3.054687-.640625 4.640625-.851562.964844-.136719 1.945312-.238281 2.9375-.332031 2.097656-.199219 4.207031-.378907 6.382812-.378907 7.859376.035157 15.671876 1.242188 23.175782 3.585938 1.886718.511719 3.617187 1.167969 5.308594 1.800781 14.671874 6.167969 25.996093 18.335938 31.09375 33.417969 3.792968 10.578125 6.730468 21.445312 8.789062 32.492187.964844 4.464844 1.921875 8.917969 2.996094 13.371094 3.542968 12.46875 8.546875 24.476562 14.90625 35.773438l1.765625 3.414062c3.011719 5.460938 5.007812 11.425781 5.890625 17.601562.5 4.015626-.703125 8.054688-3.320313 11.136719zm226.457031-29.710937c-1.457031 2.90625-4.011718 5.113281-7.097656 6.132812l-17.476562 5.828125c-10.316406 3.527344-5.0625 20.105469-5 20.292969 1.03125 2.808594 2.328125 5.515625 3.863281 8.082031 1.675781 2.242188 2.710937 4.894531 2.996094 7.679688-.34375.503906-.71875.988281-1.125 1.441406-.726563.855469-1.460938 1.765625-2.144531 2.765625-2.671876 3.945312-4.183594 8.558594-4.359376 13.320312-.089843 4.945313 1.058594 9.835938 3.34375 14.226563-2.734374 2.25-5.183593 4.828125-7.285156 7.679687-3.808594 8.261719-5.308594 17.40625-4.335937 26.453126 0 2.660156-.042969 5.316406-.109375 7.976562-.175782 2.214844-.066406 4.4375.324218 6.625l-162.605468-46.261719-.117188-15.886719 2.234375-2.238281c4.882813-4.808593 6.28125-12.136719 3.515625-18.40625l-10.070312-23.644531c-.222656-.386719-.476563-.757812-.757813-1.109375 0-1.21875.144531-2.414063.050781-3.667969v-.085937c-1.027343-8.378907-3.632812-16.488281-7.679687-23.894531l-1.828125-3.574219c-5.710938-10.113281-10.242188-20.847657-13.507812-31.992188-1.023438-4.265625-1.953126-8.601562-2.890626-12.9375-2.246093-11.949219-5.453124-23.695312-9.585937-35.132812-6.882813-19.554688-21.785156-35.25-40.957031-43.144531-2.246094-.851563-4.507813-1.703126-6.605469-2.234376-3.210937-.96875-6.472656-1.761718-9.769531-2.378906 3.292968-7.117187 3.074218-15.367187-.597656-22.300781l-2.082032-3.898437c-11.683594-23.382813-24.175781-46.769532-36.269531-69.382813l-14.292969-26.941406c-3.726562-8.179688-8.703125-15.734375-14.753906-22.382813-.058594-.121094-.050781-.246094-.109375-.367187l-2.824219-5.121094c-1.886718-3.410156-3.78125-6.875-5.582031-10.367187-.929687-1.792969-1.84375-3.582032-2.679687-5.410157 2.5625-1.269531 11.410156-5.683593 18.910156-9.386719.539062 1.683594 1.253906 3.308594 2.132812 4.839844l13.945313 23.253906c6.023437 10.039063 18.09375 14.714844 29.3125 11.347657l68.488281-20.640625c4.054688-1.21875 7.746094-3.421875 10.742188-6.417969l13.191406-13.191406c.28125-.28125.585937-.542969.90625-.777344l2.609375-1.972656c3.449219-2.582031 6.1875-5.996094 7.953125-9.921875l26.410156 7.550781-11.722656 7.03125c-.539063.324219-1.109375.585937-1.707032.785156l-12.109374 4.113281c-10.4375 3.480469-17.484376 13.242188-17.5 24.242188v14.773438c-.019532 6.792968 2.679687 13.308593 7.5 18.097656l46.183593 46.214844 50.34375 58.710937c.4375.503906.855469 1.007813 1.359375 1.476563l9.769532 9.761718c4.828124 4.800782 11.359374 7.496094 18.167968 7.492188 2.070313 0 4.132813-.253906 6.144532-.757813l38.578124-9.644531-6.699218 33.511719c-.710938 3.609375-.171875 7.351562 1.527344 10.613281l15.0625 30.175781c.851562 1.414063 1.707031 2.722657 3.054687 4.71875l30.976563 38.65625c.777343 1.160157 1.464843 2.234375 1.894531 2.925781l2.832031 5.503907c1.726562 3.53125 1.695312 7.667969-.085938 11.171875zm0 0"/><path d="m444.46875 334.328125c-10.492188-2.773437-21.296875-4.207031-32.152344-4.265625-9.691406.011719-19.339844-1.257812-28.699218-3.78125-16.769532-5.421875-31.773438-15.257812-43.441407-28.46875-16.675781-20.53125-27.742187-45.03125-32.121093-71.117188-4.527344-22.285156-12.5625-43.710937-23.808594-63.476562-5.65625-9.800781-11.847656-19.277344-18.550782-28.390625-1.707031-2.347656-3.34375-4.789063-4.992187-7.238281-4.28125-6.867188-9.296875-13.25-14.957031-19.039063-9.085938-8.039062-21.308594-11.566406-33.28125-9.605469-14.347656 1.367188-26.773438 10.535157-32.316406 23.839844-2.050782 6.011719-2.3125 12.488282-.75 18.644532 4.261718 14.394531 12.550781 27.269531 23.894531 37.105468 10.011719 10.121094 19.34375 20.890625 27.9375 32.238282 32.316406 42.777343 54.613281 99.234374 68.199219 172.613281l.21875 1.21875c1.199218 9.125 3.917968 17.980469 8.039062 26.207031 5.808594 9.070312 14.394531 16.019531 24.476562 19.8125l1.40625.691406c15.359376 7.386719 31.289063 13.519532 47.632813 18.339844 3.953125 1.203125 7.78125 2.6875 11.605469 4.15625 9.097656 4.019531 18.773437 6.558594 28.671875 7.523438h1.570312c5.515625.476562 10.867188-2.035157 14.019531-6.585938 1.632813-2.734375 2.445313-5.878906 2.347657-9.0625-.082031-4.667969-.703125-9.316406-1.851563-13.839844-.445312-2.03125-.855468-4.082031-1.1875-6.179687l-.128906-.894531c-1.96875-14.097657-3.660156-26.273438 1.664062-37.753907 3.539063-6.941406 7.894532-13.441406 12.972657-19.351562 5.613281-5.738281 8.175781-13.800781 6.902343-21.726563-2.105468-5.933594-7.15625-10.335937-13.320312-11.613281zm-6.824219 22.628906c-5.972656 6.980469-11.0625 14.667969-15.15625 22.886719-5.757812 15.097656-6.835937 31.574219-3.089843 47.292969l.128906.851562c.359375 2.5625.851562 5.011719 1.414062 7.460938.726563 2.875 1.207032 5.8125 1.433594 8.769531-8.082031-.917969-15.972656-3.082031-23.398438-6.40625-4.195312-1.621094-8.410156-3.226562-12.746093-4.550781-15.464844-4.554688-30.535157-10.351563-45.066407-17.328125l-1.441406-.703125c-6.933594-2.378907-12.929687-6.902344-17.125-12.910157-3.15625-6.578124-5.222656-13.628906-6.109375-20.871093l-.222656-1.230469c-14.074219-76.054688-37.417969-134.824219-71.375-179.796875-9.027344-11.929687-18.835937-23.253906-29.351563-33.894531-9.015624-7.621094-15.738281-17.597656-19.414062-28.816406-.808594-2.964844-.769531-6.097657.109375-9.046876 3.441406-7.300781 10.539063-12.1875 18.585937-12.796874 6.8125-1.226563 13.824219.605468 19.167969 5.007812 4.757813 4.949219 8.984375 10.382812 12.609375 16.214844 1.765625 2.617187 3.523438 5.230468 5.335938 7.730468 6.332031 8.609376 12.1875 17.558594 17.542968 26.8125 10.347657 18.199219 17.742188 37.929688 21.90625 58.453126 4.960938 28.980468 17.363282 56.179687 35.992188 78.933593 13.714844 15.523438 31.34375 27.085938 51.046875 33.472657 10.792969 3.007812 21.941406 4.546874 33.144531 4.574218 9.4375.015625 18.835938 1.199219 27.980469 3.535156.585937.160157 1.15625.375 1.707031.640626-.917968 2.082031-2.152344 4.011718-3.664062 5.714843zm0 0"/><path d="m242.902344 368.488281c-6.796875-12.242187-12.128906-25.238281-15.878906-38.726562-1.144532-4.726563-2.175782-9.488281-3.207032-14.257813-1.84375-9.980468-4.488281-19.792968-7.902344-29.347656-3.242187-10.800781-11.164062-19.574219-21.582031-23.894531-13.097656-5.390625-27.804687-5.332031-40.859375.164062-.875.558594-1.636718 1.277344-2.25 2.117188-2.5625 3.515625-4.199218 9.429687-4.269531 28.015625-.003906.832031.117187 1.65625.351563 2.457031 2.175781 7.269531 4.265624 14.566406 6.339843 22.03125 2.621094 9.308594 5.238281 18.613281 8.117188 27.828125l.417969 1.347656c1.539062 5.304688 3.367187 10.519532 5.476562 15.625 2.457031 5.570313 7.765625 13.371094 25.363281 16.886719 8.597657 1.464844 17.300781 2.269531 26.023438 2.398437 4.761719.195313 9.132812.75 13.007812 1.230469l.40625.039063.855469-6.601563.144531-.078125-.332031 6.765625 2.140625.265625c.339844.042969.683594.0625 1.023437.058594 2.96875 0 5.71875-1.542969 7.269532-4.070312 1.550781-2.53125 1.679687-5.683594.335937-8.328126zm-23.117188-4.398437c-7.835937-.113282-15.652344-.808594-23.386718-2.082032-10.957032-2.191406-12.46875-5.597656-13.109376-7.046874-1.859374-4.574219-3.476562-9.242188-4.847656-13.984376l-.355468-1.164062c-2.84375-9.078125-5.410157-18.214844-8.039063-27.5625-1.964844-6.96875-3.933594-13.941406-5.972656-20.886719-.050781-5.132812.203125-10.261719.757812-15.359375 7.769531-1.242187 15.722657-.523437 23.140625 2.089844 3.707032 1.5 8.007813 3.96875 12.09375 14.328125 3.050782 8.695313 5.425782 17.617187 7.101563 26.683594 1.054687 4.898437 2.113281 9.804687 3.300781 14.675781 2.679688 10.496094 6.449219 20.683594 11.246094 30.394531zm0 0"/><path d="m366.644531 286.71875c1.980469 3.640625 5.121094 6.519531 8.917969 8.175781l25.164062 11.171875c2.195313.757813 4.503907 1.144532 6.828126 1.140625 3.972656.015625 7.859374-1.125 11.195312-3.285156 4.546875-2.855469 7.507812-7.664063 8.011719-13.011719 1.242187-11.570312-1.667969-23.203125-8.214844-32.820312-5.957031-7.679688-16.5625-9.988282-25.175781-5.476563l-17.636719 5.496094c-5.328125 1.570313-9.671875 5.4375-11.855469 10.546875-1.894531 4.609375-1.628906 9.828125.726563 14.222656zm14.167969-12.3125 18.429688-5.75c.59375-.1875 1.167968-.4375 1.707031-.742188.582031-.324218 1.238281-.488281 1.902343-.472656.601563-.042968 1.199219.113282 1.707032.4375 4.234375 6.289063 6.085937 13.878906 5.230468 21.410156-.738281.738282-1.785156 1.078126-2.816406.914063l-24.480468-10.914063c-.3125-.117187-.585938-.320312-.785157-.589843l-2.046875-3.566407c.277344-.378906.6875-.640624 1.152344-.734374zm0 0"/><path d="m100.578125 196.265625c19.136719 0 34.132813-11.238281 34.132813-25.597656 0-14.363281-14.996094-25.601563-34.132813-25.601563-19.140625 0-34.136719 11.238282-34.136719 25.601563 0 14.359375 14.996094 25.597656 34.136719 25.597656zm0-34.132813c10.417969 0 17.066406 5.050782 17.066406 8.535157 0 3.480469-6.648437 8.53125-17.066406 8.53125-10.421875 0-17.070313-5.050781-17.070313-8.53125 0-3.484375 6.648438-8.535157 17.070313-8.535157zm0 0"/></svg>