<svg height="512pt" viewBox="0 0 512 512.12894" width="512pt" xmlns="http://www.w3.org/2000/svg"><path d="m345.835938 221.824219-72.703126 68.4375h-34.136718l-72.703125-68.4375c.527343.140625 1.074219.199219 1.621093.171875l58.285157-12.800782 2.386719 9.472657c1.207031 4.8125 4.445312 8.859375 8.875 11.09375l6.484374 3.242187c2.359376 1.183594 4.960938 1.796875 7.597657 1.792969h9.042969c2.636718.003906 5.238281-.609375 7.597656-1.792969l6.484375-3.242187c4.429687-2.234375 7.667969-6.28125 8.875-11.09375l2.386719-9.472657 58.285156 12.800782c.546875.027344 1.09375-.03125 1.621094-.171875zm0 0" fill="#424242"/><path d="m350.785156 209.195312-13.484375 12.628907c-.527343.140625-1.074219.199219-1.621093.171875h-159.230469c-.546875.027344-1.09375-.03125-1.621094-.171875l-13.484375-12.628907 30.207031-50.261718h129.027344zm0 0" fill="#37474f"/><path d="m337.300781 221.824219h-21.332031c-.527344.140625-1.074219.199219-1.621094.171875h-137.898437c-.546875.027344-1.09375-.03125-1.621094-.171875l-13.484375-12.628907 30.207031-50.261718h107.691407zm0 0" fill="#607d8b"/><path d="m315.796875 46.292969v32.34375h-119.464844v-32.34375c.015625-2.234375.902344-4.378907 2.472657-5.972657l10.328124-10.324218 1.789063-1.792969c1.59375-1.570313 3.738281-2.457031 5.972656-2.472656h20.054688c1.335937.007812 2.652343.328125 3.839843.9375l11.007813 5.546875.425781.171875c2.421875 1.191406 5.261719 1.191406 7.683594 0l4.777344-2.390625 6.65625-3.328125c1.1875-.609375 2.503906-.929688 3.839844-.9375h20.054687c2.234375.015625 4.378906.902343 5.972656 2.472656l12.117188 12.117187c1.570312 1.59375 2.457031 3.738282 2.472656 5.972657zm0 0" fill="#37474f"/><path d="m298.730469 50.5625v28.074219h-102.398438v-32.34375c.015625-2.234375.902344-4.378907 2.472657-5.972657l10.328124-10.324218 11.628907-.972656c1.367187 0 1.304687-3.363282 2.5-2.757813l12.535156-4.804687c2.390625 1.195312 4.8125 7.597656 7.203125 6.402343l8.796875 4.351563 2.476563-1.28125c1.1875-.609375 2.503906-.929688 3.839843-.9375h20.050781c2.238282.015625 4.382813.90625 5.976563 2.472656l12.117187 12.117188c1.566407 1.59375 2.457032 3.738281 2.472657 5.976562zm0 0" fill="#607d8b"/><path d="m132.246094 371.5c-6.398438 10.667969-12.714844 29.867188-12.714844 63.828125h-59.734375c0-2.902344.085937-5.800781.34375-8.53125 2.851563-30.5 17.558594-58.65625 40.957031-78.421875 3.414063-3.074219 6.742188-5.804688 9.984375-8.277344zm0 0" fill="#9e9e9e"/><path d="m452.332031 435.328125h-59.734375c0-1.449219 0-2.902344-.085937-4.265625-.425781-31.316406-6.484375-49.324219-12.628907-59.5625l15.105469-22.359375 6.058594-9.042969c22.355469 16.980469 51.285156 48.042969 51.285156 95.230469zm0 0" fill="#9e9e9e"/><path d="m110.914062 362.964844c-6.402343 10.667968-12.714843 29.867187-12.714843 63.832031h-38.058594c2.851563-30.5 17.558594-58.65625 40.957031-78.421875zm0 0" fill="#cfd8dc"/><path d="m430.996094 431.0625h-38.484375c-.425781-31.316406-6.484375-49.324219-12.628907-59.5625l15.105469-22.359375c22.714844 21.222656 35.730469 50.835937 36.007813 81.921875zm0 0" fill="#cfd8dc"/><path d="m213.398438 379.863281c.019531 16.832031 9.90625 32.09375 25.257812 38.996094h34.816406c15.351563-6.902344 25.238282-22.164063 25.257813-38.996094zm0 0" fill="#37474f"/><path d="m290.199219 452.394531c0 18.851563-15.285157 34.132813-34.132813 34.132813-2.882812.027344-5.753906-.34375-8.535156-1.109375-15.023438-3.925781-25.503906-17.496094-25.503906-33.023438 0-15.527343 10.480468-29.097656 25.503906-33.023437 2.78125-.761719 5.652344-1.136719 8.535156-1.109375 18.847656 0 34.132813 15.28125 34.132813 34.132812zm0 0" fill="#9e9e9e"/><path d="m273.132812 452.394531c0-18.238281-11.464843-33.023437-25.601562-33.023437s-25.601562 14.785156-25.601562 33.023437 11.464843 33.023438 25.601562 33.023438 25.601562-14.785157 25.601562-33.023438zm0 0" fill="#cfd8dc"/><path d="m290.964844 204.929688c-.871094 1.421874-1.503906 2.980468-1.875 4.605468l-3.160156 12.460938-2.386719 9.472656c-1.207031 4.8125-4.445313 8.859375-8.875 11.09375l-6.484375 3.242188c-2.359375 1.183593-4.960938 1.796874-7.597656 1.789062h-9.042969c-2.109375.035156-4.203125-.371094-6.144531-1.191406-.5-.164063-.984376-.363282-1.453126-.597656l-6.484374-3.242188c-4.429688-2.234375-7.667969-6.28125-8.875-11.09375l-2.386719-9.472656-3.160157-12.460938c-.371093-1.625-1.003906-3.183594-1.875-4.605468l24.234376-2.988282 10.667968-1.277344zm0 0" fill="#9e9e9e"/><path d="m269.632812 204.929688c-.871093 1.421874-1.503906 2.980468-1.878906 4.605468l-3.15625 12.460938-2.390625 9.472656c-1.203125 4.8125-4.445312 8.859375-8.875 11.09375l-6.484375 3.242188c-.46875.234374-.953125.433593-1.449218.597656-.5-.164063-.984376-.363282-1.453126-.597656l-6.484374-3.242188c-4.429688-2.234375-7.667969-6.28125-8.875-11.09375l-2.386719-9.472656-3.160157-12.460938c-.371093-1.625-1.003906-3.183594-1.875-4.605468l24.234376-2.988282zm0 0" fill="#cfd8dc"/><path d="m337.472656 134.015625-12.203125 18.347656c-.636719.910157-1.351562 1.769531-2.132812 2.558594l-29.609375 46.679687c-1.011719.976563-1.875 2.097657-2.5625 3.328126h-69.800782c-.6875-1.230469-1.550781-2.351563-2.5625-3.328126l-.597656-.9375h51.628906c.683594-1.230468 1.546876-2.351562 2.558594-3.328124l29.613282-46.679688c.78125-.792969 1.492187-1.648438 2.132812-2.558594l12.203125-18.347656c2.484375-3.769531 3.402344-8.363281 2.558594-12.800781l-5.375-26.707031c-1.128907-5.652344-5.050781-10.347657-10.410157-12.460938l-23.210937-9.300781c.160156-.070313.335937-.097657.511719-.085938h6.65625c2.1875.007813 4.355468.414063 6.398437 1.195313l30.976563 12.460937c5.363281 2.113281 9.285156 6.804688 10.410156 12.457031l5.375 26.710938c.847656 4.433594-.074219 9.027344-2.558594 12.796875zm0 0" fill="#9e9e9e"/><path d="m316.140625 129.75-12.203125 18.347656c-.640625.910156-1.351562 1.765625-2.132812 2.558594l-29.613282 46.679688c-1.011718.976562-1.875 2.097656-2.558594 3.328124h-51.628906l-29.011718-45.742187c-.78125-.789063-1.496094-1.648437-2.132813-2.558594l-12.203125-18.347656c-2.484375-3.769531-3.40625-8.363281-2.558594-12.796875l5.375-26.710938c1.128906-5.652343 5.046875-10.34375 10.410156-12.457031l30.976563-12.460937c1.074219-.402344 2.191406-.6875 3.328125-.851563 1.003906-.242187 2.039062-.355469 3.070312-.34375h6.65625c4.164063.019531 8.171876 1.570313 11.265626 4.351563.304687.203125.589843.429687.851562.683594l12.035156 12.03125 12.03125-12.03125c3.074219-3.101563 7.238282-4.878907 11.605469-4.949219l23.210937 9.300781c5.359376 2.113281 9.28125 6.808594 10.410157 12.460938l5.375 26.707031c.84375 4.4375-.074219 9.03125-2.558594 12.800781zm0 0" fill="#cfd8dc"/><path d="m281.664062 145.195312c0 14.140626-11.460937 25.601563-25.597656 25.601563-2.917968.015625-5.808594-.503906-8.535156-1.539063-10.222656-3.578124-17.070312-13.230468-17.070312-24.0625 0-10.832031 6.847656-20.484374 17.070312-24.0625 2.726562-1.035156 5.617188-1.554687 8.535156-1.539062 14.136719 0 25.597656 11.464844 25.597656 25.601562zm0 0" fill="#c52828"/><path d="m264.597656 145.195312c0-13.289062-7.640625-24.0625-17.066406-24.0625s-17.066406 10.773438-17.066406 24.0625c0 13.289063 7.640625 24.0625 17.066406 24.0625s17.066406-10.773437 17.066406-24.0625zm0 0" fill="#f44335"/><path d="m385.855469 196.652344v.171875c-.074219.941406-.304688 1.863281-.683594 2.730469l-35.242187 82.175781h-76.796876l64.167969-59.90625 13.484375-12.628907 20.734375-19.285156c2.179688-2.015625 5.242188-2.765625 8.105469-1.984375s5.121094 2.980469 5.976562 5.824219v.085938c.253907.914062.339844 1.871093.253907 2.816406zm0 0" fill="#f4f4f4"/><path d="m256.066406 128.128906c-4.714844 0-8.535156-3.820312-8.535156-8.535156v-34.132812c0-4.710938 3.820312-8.53125 8.535156-8.53125 4.710938 0 8.53125 3.820312 8.53125 8.53125v34.132812c0 4.714844-3.820312 8.535156-8.53125 8.535156zm0 0" fill="#ff5364"/><path d="m166.882812 370.6875c-14.25 2.5625-50.167968-58.238281-54.265624-44.5l13.65625-129.363281c.074218.941406.304687 1.863281.683593 2.730469l39.507813 82.175781zm0 0" fill="#607d8b"/><path d="m345.664062 370.980469-1.425781-91.027344 40.960938-80.398437c.378906-.867188.609375-1.789063.683593-2.730469l13.652344 129.363281zm0 0" fill="#607d8b"/><path d="m238.996094 281.730469h-76.796875l-35.242188-82.175781c-.378906-.867188-.609375-1.789063-.683593-2.730469v-.171875c-.085938-.945313 0-1.902344.253906-2.816406v-.085938c.855468-2.84375 3.113281-5.042969 5.976562-5.824219 2.863282-.78125 5.925782-.03125 8.105469 1.984375l20.734375 19.285156 13.484375 12.628907zm0 0" fill="#f4f4f4"/><path d="m166.464844 371.5c-10.753906 5.460938-23.464844 5.460938-34.21875 0-12.03125-5.949219-20.0625-17.769531-21.164063-31.148438v-.253906c-.085937-.9375-.085937-1.964844-.085937-2.902344.011718-3.726562.558594-7.433593 1.621094-11.007812 4.128906-13.835938 15.667968-24.1875 29.867187-26.792969l15.445313 33.535157zm0 0" fill="#37474f"/><path d="m401.132812 337.195312c0 .9375 0 1.964844-.085937 2.902344v.253906c-1.101563 13.378907-9.132813 25.199219-21.164063 31.148438-10.753906 5.460938-23.464843 5.460938-34.21875 0l8.535157-38.570312 15.417969-33.535157c14.203124 2.605469 25.742187 12.957031 29.867187 26.792969 1.070313 3.570312 1.625 7.277344 1.648437 11.007812zm0 0" fill="#37474f"/><path d="m371.777344 292.992188-2.132813 6.402343-23.980469 72.105469h-.085937l-2.21875 6.828125c-1.203125 3.449219-4.449219 5.773437-8.105469 5.800781h-158.378906c-3.65625-.027344-6.902344-2.351562-8.105469-5.800781l-2.21875-6.828125h-.085937l-23.980469-72.105469-2.132813-6.402343c-.878906-2.605469-.449218-5.480469 1.160157-7.714844 1.605469-2.234375 4.195312-3.554688 6.949219-3.546875h215.207031c2.753906-.007813 5.34375 1.3125 6.949219 3.546875 1.609374 2.234375 2.039062 5.109375 1.160156 7.714844zm0 0" fill="#9e9e9e"/><path d="m350.441406 292.992188-2.132812 6.402343-23.976563 72.105469h-.085937l-2.21875 6.828125c-1.203125 3.449219-4.449219 5.773437-8.105469 5.800781h-137.046875c-3.65625-.027344-6.902344-2.351562-8.105469-5.800781l-2.21875-6.828125h-.085937l-23.980469-72.105469-2.132813-6.402343c-.878906-2.605469-.449218-5.480469 1.160157-7.714844 1.605469-2.234375 4.195312-3.554688 6.949219-3.546875h193.875c2.753906-.007813 5.339843 1.3125 6.949218 3.546875s2.039063 5.109375 1.15625 7.714844zm0 0" fill="#cfd8dc"/><path d="m315.796875 332.929688c-.070313 9.394531-7.667969 16.996093-17.066406 17.066406h-85.332031c-9.414063-.027344-17.039063-7.652344-17.066407-17.066406.070313-9.398438 7.667969-16.996094 17.066407-17.066407h85.332031c9.414062.027344 17.039062 7.652344 17.066406 17.066407zm0 0" fill="#424242"/><path d="m298.730469 332.929688c-.070313 9.394531-7.667969 16.996093-17.066407 17.066406h-64c-9.414062-.027344-17.039062-7.652344-17.066406-17.066406.070313-9.398438 7.671875-16.996094 17.066406-17.066407h64c9.414063.027344 17.039063 7.652344 17.066407 17.066407zm0 0" fill="#f4f4f4"/><path d="m179.265625 451.628906v30.632813c-.027344 9.414062-7.652344 17.039062-17.066406 17.066406h-8.535157c-4.710937 0-8.53125-3.820313-8.53125-8.53125 0-4.714844-3.820312-8.535156-8.535156-8.535156h-17.066406c-4.714844 0-8.535156 3.820312-8.535156 8.535156 0 1.503906-.414063 2.980469-1.191406 4.265625-1.496094 2.644531-4.300782 4.277344-7.339844 4.265625h-17.066406c-4.714844 0-8.535157-3.820313-8.535157-8.53125 0-4.714844-3.820312-8.535156-8.53125-8.535156h-17.066406c-4.714844 0-8.535156 3.820312-8.535156 8.535156 0 1.503906-.414063 2.980469-1.195313 4.265625-1.492187 2.644531-4.300781 4.277344-7.335937 4.265625h-8.535157c-9.414062-.027344-17.039062-7.652344-17.066406-17.066406v-30.632813c.019532-2.238281.90625-4.378906 2.476563-5.976562l12.117187-12.117188c1.59375-1.566406 3.734375-2.457031 5.972656-2.472656h129.535157c2.238281.015625 4.378906.90625 5.972656 2.472656l12.117187 12.117188c1.570313 1.597656 2.457032 3.738281 2.476563 5.976562zm0 0" fill="#37474f"/><path d="m503.53125 451.628906v30.632813c-.027344 9.414062-7.652344 17.039062-17.066406 17.066406h-8.535156c-4.710938 0-8.53125-3.820313-8.53125-8.53125 0-4.714844-3.820313-8.535156-8.535157-8.535156h-17.066406c-4.710937 0-8.53125 3.820312-8.53125 8.535156-.003906 1.503906-.414063 2.980469-1.195313 4.265625-1.496093 2.644531-4.300781 4.277344-7.339843 4.265625h-17.066407c-4.710937 0-8.53125-3.820313-8.53125-8.53125 0-4.714844-3.820312-8.535156-8.535156-8.535156h-17.066406c-4.714844 0-8.535156 3.820312-8.535156 8.535156 0 1.503906-.414063 2.980469-1.191406 4.265625-1.496094 2.644531-4.300782 4.277344-7.339844 4.265625h-8.535156c-9.414063-.027344-17.035157-7.652344-17.066407-17.066406v-30.632813c.019531-2.238281.90625-4.378906 2.476563-5.976562l1.792968-1.789063 10.324219-10.328125c1.59375-1.566406 3.734375-2.457031 5.972657-2.472656h129.535156c2.238281.015625 4.378906.90625 5.972656 2.472656l12.117188 12.117188c1.570312 1.597656 2.457031 3.738281 2.476562 5.976562zm0 0" fill="#37474f"/><path d="m162.199219 460.160156v30.636719c.015625 1.441406-.1875 2.882813-.597657 4.265625h-7.9375c-4.710937 0-8.53125-3.820312-8.53125-8.535156 0-4.710938-3.820312-8.53125-8.535156-8.53125h-17.066406c-4.714844 0-8.535156 3.820312-8.535156 8.53125 0 1.507812-.414063 2.980468-1.191406 4.269531l-5.207032 7.105469c-3.15625 0-7.125-1.132813-8.574218 1.425781l-10.625-4.265625c-4.714844 0-8.535157-3.820312-8.535157-8.535156 0-4.710938-3.820312-8.53125-8.53125-8.53125h-17.066406c-4.714844 0-8.535156 3.820312-8.535156 8.53125 0 1.507812-.414063 2.980468-1.195313 4.269531l-4.496094 8.53125c-3.15625 0-9.925781-2.558594-11.375 0-9.386718 0-17.066406-11.945313-17.066406-21.332031v-30.636719c.019532-2.234375.90625-4.378906 2.476563-5.972656l1.789062-1.792969h128.769531c2.238282.019531 4.378907.90625 5.972657 2.476562l12.117187 12.117188c1.570313 1.59375 2.457032 3.738281 2.476563 5.972656zm0 0" fill="#607d8b"/><path d="m486.464844 460.160156v30.636719c.015625 1.441406-.183594 2.882813-.597656 4.265625h-7.9375c-4.710938 0-8.53125-3.820312-8.53125-8.535156 0-4.710938-3.820313-8.53125-8.535157-8.53125h-17.066406c-4.710937 0-8.53125 3.820312-8.53125 8.53125-.003906 1.507812-.414063 2.980468-1.195313 4.269531l-7.339843 7.105469c-3.15625 0-7.039063-2.558594-8.488281 0l-8.578126-2.839844c-4.710937 0-8.53125-3.820312-8.53125-8.535156 0-4.710938-3.820312-8.53125-8.535156-8.53125h-17.066406c-4.714844 0-8.535156 3.820312-8.535156 8.53125 0 1.507812-.414063 2.980468-1.191406 4.269531l-6.273438 7.105469c-3.15625 0-5.972656-2.558594-7.464844 0l-2.136718-2.839844c-9.414063-.027344-17.035157-7.652344-17.066407-17.066406v-30.636719c.019531-2.234375.90625-4.378906 2.476563-5.972656l1.792968-1.792969h128.765626c2.238281.019531 4.378906.90625 5.972656 2.476562l12.117187 12.117188c1.570313 1.59375 2.457031 3.738281 2.476563 5.972656zm0 0" fill="#607d8b"/><path d="m264.597656 452.394531c0 4.714844-3.820312 8.535157-8.53125 8.535157-4.714844 0-8.535156-3.820313-8.535156-8.535157 0-4.710937 3.820312-8.53125 8.535156-8.53125 4.710938 0 8.53125 3.820313 8.53125 8.53125zm0 0"/><path d="m25.664062 512.128906h8.535157c9.425781 0 17.066406-7.640625 17.066406-17.066406h17.066406c0 9.425781 7.640625 17.066406 17.066407 17.066406h17.066406c9.425781 0 17.066406-7.640625 17.066406-17.066406h17.066406c0 9.425781 7.640625 17.066406 17.066406 17.066406h8.535157c14.136719 0 25.597656-11.460937 25.597656-25.601562v-30.597656c-.015625-4.523438-1.8125-8.859376-5-12.066407l-12.066406-12.066406c-3.207031-3.191406-7.542969-4.988281-12.066407-5h-30.394531c-.035156-15.234375 2.722657-30.347656 8.140625-44.589844 8.160156 2.460938 16.847656 2.558594 25.0625.285157 2.667969 6.140624 8.714844 10.128906 15.410156 10.171874h28.765626c2.128906 12.441407 8.769531 23.667969 18.65625 31.519532-15.335938 17.09375-14.386719 43.257812 2.140624 59.203125 16.527344 15.941406 42.710938 15.941406 59.238282 0 16.527344-15.945313 17.476562-42.109375 2.140625-59.203125 9.886719-7.851563 16.527343-19.078125 18.65625-31.519532h28.765625c6.699218-.039062 12.742187-4.027343 15.410156-10.171874 8.214844 2.269531 16.902344 2.175781 25.0625-.273438 5.417969 14.234375 8.175781 29.34375 8.140625 44.578125h-30.394531c-4.523438.011719-8.859375 1.808594-12.066406 5l-12.066407 12.066406c-3.1875 3.207031-4.984375 7.542969-5 12.066407v30.597656c0 14.140625 11.460938 25.601562 25.597657 25.601562h8.535156c9.425781 0 17.066406-7.640625 17.066406-17.066406h17.066406c0 9.425781 7.640625 17.066406 17.066406 17.066406h17.066407c9.425781 0 17.066406-7.640625 17.066406-17.066406h17.066406c0 9.425781 7.640625 17.066406 17.066407 17.066406h8.535156c14.136718 0 25.601562-11.460937 25.601562-25.601562v-30.597656c-.015625-4.523438-1.8125-8.859376-5.003906-12.066407l-12.066406-12.066406c-3.207032-3.191406-7.542969-4.988281-12.0625-5h-22.386719c-3.296875-36.160156-21.84375-69.203125-50.992187-90.855469-.121094-3.574218-.648438-7.121094-1.570313-10.574218v-.117188l-13.59375-128.597656v-.121094c.050781-1.898438-.21875-3.796875-.804687-5.605469-.09375-.273437-.175782-.527343-.296876-.792969-2.011718-5.316406-6.539062-9.28125-12.074218-10.578124-5.535156-1.292969-11.351563.253906-15.515625 4.125l-12.984375 12.117187-22-36.605469c.605468-.679687 1.175781-1.390625 1.707031-2.132812l12.203125-18.304688c3.792969-5.644531 5.167969-12.570312 3.8125-19.234375l-5.332031-26.667969c-.625-2.851562-1.738281-5.574218-3.292969-8.046874l23.414062-30.121094c8.519532-11.023438 9.425782-26.140625 2.277344-38.101563-5.339844-8.964843-14.527344-14.957031-24.886718-16.230469-10.359376-1.273437-20.726563 2.3125-28.078126 9.71875l-9.269531 9.257813c-2.472656-1.367187-5.246093-2.097656-8.070312-2.132813h-20.054688c-2.648437.003907-5.257812.621094-7.628906 1.800782l-11.449219 5.726562-11.453125-5.726562c-2.371093-1.179688-4.980469-1.796875-7.628906-1.800782h-20.054687c-2.789063.03125-5.527344.746094-7.976563 2.082032l-9.207031-9.222656c-12.601563-12.757813-32.964844-13.464844-46.421875-1.613282-13.453125 11.847656-15.328125 32.136719-4.269531 46.25l23.382812 30.054688c-1.570312 2.488281-2.695312 5.230468-3.328125 8.105468l-5.332031 26.675782c-1.355469 6.65625.015625 13.578125 3.804687 19.21875l12.195313 18.277344c.523437.753906 1.09375 1.480468 1.707031 2.167968l-22 36.605469-12.988281-12.117187c-4.160156-3.871094-9.976563-5.417969-15.511719-4.125-5.535156 1.296874-10.0625 5.261718-12.074219 10.578124-.121094.265626-.207031.519532-.300781.792969-.527344 1.65625-.792969 3.382813-.792969 5.121094l-13.644531 129.203125v.074219c-.921875 3.453125-1.449219 7-1.570313 10.574219-29.167968 21.65625-47.726562 54.71875-51.019531 90.898437h-22.382812c-4.523438.011719-8.859375 1.808594-12.066407 5l-12.066406 12.066406c-3.191406 3.207031-4.988281 7.542969-4.9999998 12.066407v30.597656c0 14.140625 11.4609378 25.601562 25.5976558 25.601562zm110.351563-148.292968c-9.421875-4.6875-15.671875-14-16.433594-24.5-.050781-.691407-.050781-1.449219-.050781-2.140626.007812-11.695312 6.859375-22.304687 17.519531-27.117187l18.773438 56.234375c-6.6875 1.507812-13.695313.632812-19.808594-2.476562zm-4.785156-132.710938 18.03125 42.070312h-.855469c-5.132812-.023437-10 2.28125-13.226562 6.273438-3.226563 3.992188-4.46875 9.234375-3.367188 14.25-2.664062 1.078125-5.222656 2.402344-7.640625 3.949219zm124.835937 246.871094c-14.140625 0-25.601562-11.460938-25.601562-25.601563 0-14.136719 11.460937-25.597656 25.601562-25.597656 14.136719 0 25.597656 11.460937 25.597656 25.597656 0 14.140625-11.460937 25.601563-25.597656 25.601563zm17.347656-64.496094c-11.019531-5.023438-23.679687-5.023438-34.699218 0-7.753906-4.613281-13.371094-12.101562-15.632813-20.835938h65.964844c-2.261719 8.734376-7.878906 16.222657-15.632813 20.835938zm-96.53125-37.90625-28.441406-85.332031h215.253906l-28.449218 85.332031zm93.9375-140.652344-6.4375 3.226563c-1.183593.589843-2.488281.894531-3.8125.894531h-9.011718c-1.324219 0-2.628906-.304688-3.8125-.894531l-6.445313-3.226563c-2.226562-1.113281-3.859375-3.148437-4.460937-5.566406l-3.976563-15.914062h46.402344l-3.976563 15.914062c-.605468 2.421875-2.238281 4.453125-4.46875 5.566406zm-50.527343-1.425781c1.808593 7.25 6.699219 13.347656 13.378906 16.691406l6.445313 3.226563c.742187.367187 1.558593.546875 2.328124.851562 1.441407 1.164063 3.230469 1.8125 5.085938 1.84375h17.066406c1.867188-.027344 3.671875-.683594 5.121094-1.859375.765625-.289062 1.585938-.46875 2.328125-.855469l6.433594-3.222656c6.6875-3.34375 11.578125-9.441406 13.390625-16.691406l.714844-2.972656h22.886718l-45.710937 42.667968h-27.351563l-45.710937-42.667968h22.84375zm160.605469-2.390625 7.023437 66.5625c-2.417969-1.550781-4.976563-2.875-7.636719-3.953125 1.105469-5.015625-.132812-10.261719-3.363281-14.257813-3.226563-3.996093-8.097656-6.308593-13.234375-6.28125h-.855469zm-24.566407 135.179688 18.773438-56.226563c10.648437 4.820313 17.492187 15.425781 17.492187 27.117187 0 .691407 0 1.449219-.058594 2.269532-.675781 8.617187-5.046874 16.519531-11.992187 21.664062-6.941406 5.148438-15.777344 7.035156-24.214844 5.175782zm138.664063 89.625v30.597656c0 4.714844-3.820313 8.535156-8.53125 8.535156h-8.535156c0-9.425781-7.640626-17.066406-17.066407-17.066406h-17.066406c-9.425781 0-17.066406 7.640625-17.066406 17.066406h-17.066407c0-9.425781-7.640624-17.066406-17.066406-17.066406h-17.066406c-9.425781 0-17.066406 7.640625-17.066406 17.066406h-8.535156c-4.710938 0-8.53125-3.820312-8.53125-8.535156v-30.597656l12.066406-12.066407h129.46875zm-51.566406-29.132813h-42.46875c.023437-17.898437-3.363282-35.636719-9.976563-52.269531 6.597656-4.984375 11.765625-11.621094 14.976563-19.242188 21.234374 18.121094 34.65625 43.738282 37.46875 71.511719zm-66.105469-230.632813-33.015625 77.03125h-49.496094zm-43.605469 17.296876h-36.863281l.46875-1.882813c.382812-1.5 1.160156-2.867187 2.25-3.960937.441406-.445313.832031-.933594 1.171875-1.460938l19.625-30.964844 19.550781 32.519532zm4.761719-196.164063c5.117187.628906 9.652343 3.59375 12.277343 8.03125 1.570313 2.625 2.402344 5.621094 2.414063 8.679687-.007813 3.703126-1.234375 7.304688-3.496094 10.238282l-22.988281 29.550781-2.355469-.9375v-26.53125c-.015625-4.523437-1.8125-8.859375-5-12.066406l-3.414062-3.414063 8.660156-8.710937c3.652344-3.675781 8.796875-5.460938 13.945313-4.839844zm-101.496094 16.964844 11.441406 5.726562c4.816407 2.378907 10.460938 2.378907 15.277344 0l11.441406-5.726562h20.054688l12.066406 12.066406v19.695313l-10.863281-4.34375c-3.019532-1.203126-6.238282-1.820313-9.488282-1.816407h-6.71875c-6.789062-.015625-13.308593 2.683594-18.097656 7.5l-6.03125 6.03125-6.035156-6.03125c-4.789062-4.816406-11.308594-7.515625-18.097656-7.5h-6.71875c-3.253906-.003906-6.480469.617188-9.503906 1.824219l-10.847657 4.34375v-19.703125l12.066407-12.066406zm19.082031 93.867187c9.421875 0 17.066406 7.640625 17.066406 17.066406 0 9.425782-7.644531 17.066407-17.066406 17.066407-9.425781 0-17.070312-7.640625-17.070312-17.066407 0-9.425781 7.644531-17.066406 17.070312-17.066406zm-97.027344-94.121094c0-3.054687.820313-6.050781 2.375-8.679687 2.644532-4.441406 7.199219-7.410156 12.332032-8.039063 5.132812-.628906 10.269531 1.15625 13.90625 4.832032l8.679687 8.640625-3.5 3.5c-3.199219 3.203125-5.011719 7.539062-5.035156 12.066406v26.53125l-2.292969.914063-22.957031-29.542969c-2.261719-2.929688-3.496094-6.523438-3.507813-10.222657zm21.445313 88.863282 4.410156-22.046875 13.238281 17.066406c1.871094 2.402344 4.886719 3.625 7.90625 3.207031 3.019532-.417968 5.585938-2.417968 6.734376-5.242187 1.144531-2.828125.695312-6.046875-1.175782-8.453125l-15.199218-19.550782 3.242187-1.296874 22.367187-8.953126c1.015626-.429687 2.105469-.65625 3.207032-.671874h6.71875c2.261718 0 4.433594.898437 6.03125 2.5l9.566406 9.566406v23.277344c-16.644531 4.296874-27.492188 20.300781-25.328125 37.351562s16.671875 29.832031 33.863281 29.832031c17.1875 0 31.695313-12.78125 33.859375-29.832031 2.164063-17.050781-8.683593-33.054688-25.328125-37.351562v-23.277344l9.566406-9.566406c1.597657-1.601563 3.769532-2.5 6.03125-2.5h6.71875c1.082032 0 2.15625.203124 3.164063.605468l22.382813 8.960938 3.300781 1.320312-15.171875 19.523438c-1.875 2.414062-2.320313 5.640625-1.167969 8.472656 1.152344 2.828125 3.722656 4.828125 6.75 5.246094 3.023437.417968 6.042969-.808594 7.917969-3.222656l13.167968-16.945313 4.394532 21.972656c.445312 2.222657-.011719 4.53125-1.269532 6.417969l-12.230468 18.335938c-.300782.460937-.652344.886718-1.039063 1.273437-.441406.445313-.832031.933594-1.171875 1.460937l-2.25 3.554688-26.90625 42.394531-.058594.09375h-61.324218l-.066406-.09375-26.878907-42.382812-2.253906-3.558594c-.335937-.527344-.730469-1.015625-1.167969-1.460937-.398437-.394532-.753906-.832032-1.058594-1.304688l-12.21875-18.3125c-1.257812-1.882812-1.714843-4.1875-1.273437-6.410156zm11.265625 52.320312 19.625 30.964844c.335938.527344.730469 1.015625 1.167969 1.460938 1.09375 1.09375 1.871093 2.460937 2.253906 3.960937l.476563 1.882813h-36.863282l-6.167968-5.75zm25.597656 98.003906h-49.492187l-33.050781-77.03125zm-111.171875 82.082032c3.203125 7.628906 8.367188 14.273437 14.96875 19.261718-6.613281 16.625-9.996093 34.363282-9.976562 52.257813h-42.46875c2.808593-27.78125 16.234375-53.402344 37.476562-71.519531zm-89.042969 100.652344 12.066407-12.066407h129.464843l12.066407 12.066407v30.597656c0 4.714844-3.820313 8.535156-8.53125 8.535156h-8.535157c0-9.425781-7.640624-17.066406-17.066406-17.066406h-17.066406c-9.425781 0-17.066406 7.640625-17.066406 17.066406h-17.066406c0-9.425781-7.640626-17.066406-17.066407-17.066406h-17.066406c-9.425781 0-17.066406 7.640625-17.066406 17.066406h-8.535157c-4.710937 0-8.53125-3.820312-8.53125-8.535156zm0 0"/><path d="m298.730469 307.328125h-85.332031c-14.140626 0-25.601563 11.460937-25.601563 25.601563 0 14.136718 11.460937 25.597656 25.601563 25.597656h85.332031c14.140625 0 25.601562-11.460938 25.601562-25.597656 0-14.140626-11.460937-25.601563-25.601562-25.601563zm0 34.132813h-85.332031c-4.714844 0-8.535157-3.820313-8.535157-8.53125 0-4.714844 3.820313-8.535157 8.535157-8.535157h85.332031c4.714843 0 8.535156 3.820313 8.535156 8.535157 0 4.710937-3.820313 8.53125-8.535156 8.53125zm0 0"/></svg>