<svg height="503pt" viewBox="0 0 503.3751 503" width="503pt" xmlns="http://www.w3.org/2000/svg"><path d="m293.667969 207.253906h-83.933594l7.550781-31.140625c.96875-4.238281 4.71875-7.257812 9.066406-7.300781h50.695313c4.347656.042969 8.097656 3.0625 9.066406 7.300781zm0 0" fill="#2e7d32"/><path d="m276.878906 207.253906h-67.144531l7.550781-31.140625c.96875-4.238281 4.71875-7.257812 9.066406-7.300781h33.910157c4.347656.042969 8.097656 3.0625 9.066406 7.300781zm0 0" fill="#4caf50"/><path d="m411.175781 34.515625c0 13.90625-11.273437 25.179687-25.179687 25.179687-2.867188.019532-5.714844-.492187-8.394532-1.507812-10.054687-3.523438-16.789062-13.015625-16.789062-23.671875 0-10.652344 6.734375-20.144531 16.789062-23.667969 2.679688-1.015625 5.527344-1.527344 8.394532-1.511718 13.90625 0 25.179687 11.273437 25.179687 25.179687zm0 0" fill="#c52828"/><path d="m394.386719 34.515625c.054687 10.671875-6.699219 20.191406-16.785157 23.671875-10.054687-3.523438-16.789062-13.015625-16.789062-23.671875 0-10.652344 6.734375-20.144531 16.789062-23.667969 10.085938 3.480469 16.839844 13 16.785157 23.667969zm0 0" fill="#f44335"/><path d="m192.945312 17.730469h117.507813c9.273437 0 16.789063 7.515625 16.789063 16.785156v117.507813c0 9.273437-7.515626 16.789062-16.789063 16.789062h-117.507813c-9.269531 0-16.785156-7.515625-16.785156-16.789062v-117.507813c0-9.269531 7.515625-16.785156 16.785156-16.785156zm0 0" fill="#558b30"/><path d="m192.945312 17.730469h100.722657c9.269531 0 16.785156 7.515625 16.785156 16.785156v117.507813c0 9.273437-7.515625 16.789062-16.785156 16.789062h-100.722657c-9.269531 0-16.785156-7.515625-16.785156-16.789062v-117.507813c0-9.269531 7.515625-16.785156 16.785156-16.785156zm0 0" fill="#8bc34a"/><path d="m226.519531 51.304688h50.359375c9.273438 0 16.789063 7.515624 16.789063 16.785156v50.363281c0 9.269531-7.515625 16.785156-16.789063 16.785156h-50.359375c-9.269531 0-16.785156-7.515625-16.785156-16.785156v-50.363281c0-9.269532 7.515625-16.785156 16.785156-16.785156zm0 0" fill="#00838f"/><path d="m226.519531 51.304688h33.574219c9.269531 0 16.785156 7.515624 16.785156 16.785156v50.363281c0 9.269531-7.515625 16.785156-16.785156 16.785156h-33.574219c-9.269531 0-16.785156-7.515625-16.785156-16.785156v-50.363281c0-9.269532 7.515625-16.785156 16.785156-16.785156zm0 0" fill="#00bcd4"/><path d="m156.097656 374.953125-14.6875 51.707031-25.347656 27.695313-19.976562-5.707031-3.609376-1.007813c-2.242187-.652344-4.117187-2.203125-5.179687-4.285156-1.066406-2.078125-1.226563-4.507813-.445313-6.707031l27.867188-75.125c1.46875-4.144532 4.199219-7.726563 7.804688-10.238282 5.355468-3.875 12.191406-5.082031 18.550781-3.273437 11.570312 3.316406 18.285156 15.359375 15.023437 26.941406zm0 0" fill="#558b30"/><path d="m411.761719 447.640625-23.585938 6.714844-1.761719-1.929688-23.585937-25.765625-14.6875-51.707031c-1.589844-5.546875-.894531-11.5 1.929687-16.535156 2.8125-5.066407 7.523438-8.808594 13.09375-10.40625.550782-.179688 1.109376-.320313 1.679688-.417969 10.539062-2.09375 21.023438 3.828125 24.675781 13.929688l27.785157 75.125c.796874 2.1875.652343 4.609374-.394532 6.691406-1.050781 2.082031-2.914062 3.640625-5.148437 4.300781zm0 0" fill="#558b30"/><path d="m130.917969 374.953125-14.6875 51.707031-20.144531 21.988282-3.609376-1.007813c-2.242187-.652344-4.117187-2.203125-5.179687-4.285156-1.066406-2.078125-1.226563-4.507813-.445313-6.707031l27.867188-75.125c1.46875-4.144532 4.199219-7.726563 7.804688-10.238282 7.566406 5.289063 10.9375 14.796875 8.394531 23.667969zm0 0" fill="#8bc34a"/><path d="m403.371094 447.640625-16.957032 4.785156-23.585937-25.765625-14.6875-51.707031c-1.589844-5.546875-.894531-11.5 1.929687-16.535156 2.8125-5.066407 7.523438-8.808594 13.09375-10.40625.550782-.179688 1.109376-.320313 1.679688-.417969 7.511719 1.429688 13.707031 6.730469 16.285156 13.929688l27.78125 75.125c.796875 2.1875.652344 4.609374-.394531 6.691406-1.050781 2.082031-2.910156 3.640625-5.144531 4.300781zm0 0" fill="#8bc34a"/><path d="m344.449219 311.5c-.070313 9.242188-7.546875 16.71875-16.789063 16.789062h-8.394531v33.320313c-.011719 32.582031-26.421875 58.992187-59.003906 59.003906h-16.285157c-.785156.03125-1.574218-.027343-2.347656-.164062-31.648437-1.164063-56.691406-27.171875-56.65625-58.839844v-33.320313h-8.394531c-9.257813-.03125-16.757813-7.527343-16.785156-16.789062.066406-9.242188 7.542969-16.71875 16.785156-16.785156h151.082031c9.261719.027344 16.761719 7.527344 16.789063 16.785156zm0 0" fill="#2e7d32"/><path d="m327.660156 307.304688c-.066406 9.242187-7.542968 16.71875-16.785156 16.785156h-8.394531v33.324218c.035156 31.664063-25.011719 57.675782-56.65625 58.835938-31.644531-1.160156-56.691407-27.171875-56.65625-58.835938v-33.324218h-8.390625c-9.261719-.027344-16.761719-7.527344-16.789063-16.785156.070313-9.242188 7.542969-16.71875 16.789063-16.789063h130.097656c9.257812.027344 16.757812 7.527344 16.785156 16.789063zm0 0" fill="#4caf50"/><path d="m319.265625 245.359375v49.355469l-.835937.082031c-21.96875 2.753906-44.085938 4.128906-66.226563 4.113281-2.851563 0-5.621094 0-8.476563-.167968-19.644531-.25-39.257812-1.59375-58.753906-4.027344v-49.773438l20.480469-36.597656c6.484375-3.90625 13.914063-5.96875 21.488281-5.957031h50.359375c7.472657-.027344 14.8125 1.972656 21.234375 5.789062zm0 0" fill="#558b30"/><path d="m302.480469 235.785156v58.929688l-.839844.082031c-19.210937 2.449219-38.546875 3.765625-57.914063 3.945313-19.644531-.25-39.257812-1.59375-58.753906-4.027344v-49.773438l20.480469-36.597656c6.484375-3.90625 13.914063-5.96875 21.488281-5.957031h33.570313c7.808593 0 23.789062-1.570313 30 2.121093zm0 0" fill="#8bc34a"/><path d="m210.152344 216.320312c.011718 2.203126-.863282 4.324219-2.433594 5.875l-29.714844 29.710938c-3.273437 3.253906-8.558594 3.253906-11.832031 0l-6.96875-6.964844-22.746094-22.746094c-3.253906-3.273437-3.253906-8.5625 0-11.835937 9.441407-9.429687 22.246094-14.714844 35.589844-14.6875 4.683594.011719 9.339844.660156 13.847656 1.929687 8.246094 2.316407 15.761719 6.707032 21.824219 12.757813 1.597656 1.566406 2.480469 3.722656 2.433594 5.960937zm0 0" fill="#558b30"/><path d="m197.5625 203.730469c.011719 2.203125-.863281 4.324219-2.433594 5.875l-29.714844 29.710937c-.578124.59375-1.257812 1.078125-2.011718 1.425782l-22.746094-22.746094c-3.253906-3.273438-3.253906-8.558594 0-11.832032 9.4375-9.433593 22.242188-14.71875 35.585938-14.691406 4.683593.011719 9.34375.664063 13.851562 1.933594 1.773438 1.339844 3.457031 2.796875 5.035156 4.363281 1.597656 1.566407 2.480469 3.722657 2.433594 5.960938zm0 0" fill="#8bc34a"/><path d="m163.167969 248.9375c-1.53125 10.710938-10.953125 18.503906-21.761719 17.992188-10.8125-.507813-19.460938-9.152344-19.972656-19.960938-.515625-10.808594 7.277344-20.238281 17.988281-21.769531zm0 0" fill="#ffeb3a"/><path d="m118.664062 286.320312c0 9.269532-7.515624 16.785157-16.785156 16.785157-9.273437 0-16.789062-7.515625-16.789062-16.785157 0-9.269531 7.515625-16.785156 16.789062-16.785156 9.269532 0 16.785156 7.515625 16.785156 16.785156zm0 0" fill="#ffeb3a"/><path d="m75.269531 254.089844c-6.859375 10.222656-20.144531 13.925781-31.308593 8.730468-2.726563-1.207031-5.203126-2.914062-7.300782-5.039062-1.882812-1.875-3.46875-4.023438-4.699218-6.378906-3.023438-6.378906-1.640626-13.980469 3.441406-18.882813l11.582031-11.585937c.4375-.433594.914063-.828125 1.425781-1.171875 5.023438-4.257813 12.121094-5.054688 17.960938-2.015625 3.4375 1.910156 6.414062 4.546875 8.730468 7.722656 5.96875 8.585938 6.035157 19.964844.167969 28.621094zm0 0" fill="#558b30"/><path d="m367.363281 222.195312-29.714843 29.710938c-3.273438 3.253906-8.558594 3.253906-11.835938 0l-29.710938-29.710938c-1.535156-1.574218-2.40625-3.679687-2.433593-5.875-.007813-2.230468.867187-4.375 2.433593-5.960937 16.195313-16.09375 41.175782-19.328125 60.9375-7.890625 3.78125 2.152344 7.253907 4.808594 10.324219 7.890625 3.253907 3.273437 3.253907 8.5625 0 11.835937zm0 0" fill="#558b30"/><path d="m354.773438 209.605469-29.714844 29.710937c-3.273438 3.253906-8.5625 3.253906-11.835938 0l-17.121094-17.121094c-1.535156-1.574218-2.40625-3.679687-2.433593-5.875-.007813-2.230468.867187-4.375 2.433593-5.960937 16.195313-16.09375 41.175782-19.328125 60.9375-7.890625.480469 2.609375-.371093 5.285156-2.265624 7.136719zm0 0" fill="#8bc34a"/><path d="m364.382812 225.199219c10.71875 1.515625 18.527344 10.9375 18.023438 21.75-.503906 10.816406-9.152344 19.472656-19.964844 19.988281-10.8125.511719-20.242187-7.285156-21.769531-18zm0 0" fill="#ffeb3a"/><path d="m418.710938 286.320312c0 9.269532-7.515626 16.785157-16.785157 16.785157s-16.785156-7.515625-16.785156-16.785157c0-9.269531 7.515625-16.785156 16.785156-16.785156s16.785157 7.515625 16.785157 16.785156zm0 0" fill="#ffeb3a"/><path d="m471.523438 251.90625c-1.882813 3.453125-4.523438 6.4375-7.722657 8.730469-6.023437 4.234375-13.613281 5.585937-20.730469 3.691406-2.800781-.667969-5.453124-1.863281-7.804687-3.523437-6.238281-4.191407-10.265625-10.953126-10.984375-18.433594-.714844-7.476563 1.960938-14.882813 7.289062-20.175782 1.875-1.882812 4.027344-3.46875 6.378907-4.703124.253906-.082032.503906-.25.757812-.335938 6.246094-2.5625 13.425781-1.066406 18.128907 3.777344l11.5 11.585937c5.214843 5.054688 6.511718 12.925781 3.1875 19.386719zm0 0" fill="#558b30"/><path d="m54.285156 254.089844c-2.570312 3.804687-6.144531 6.824218-10.324218 8.730468-2.726563-1.207031-5.203126-2.914062-7.300782-5.039062-1.882812-1.875-3.46875-4.023438-4.699218-6.378906-3.023438-6.378906-1.640626-13.980469 3.441406-18.882813l11.582031-11.585937c.4375-.433594.914063-.828125 1.425781-1.171875 2.1875 1.59375 4.109375 3.519531 5.707032 5.707031 5.96875 8.585938 6.035156 19.964844.167968 28.621094zm0 0" fill="#8bc34a"/><path d="m458.933594 251.90625c-1.882813 3.453125-4.523438 6.4375-7.722656 8.730469-2.4375 1.765625-5.207032 3.019531-8.140626 3.691406-2.800781-.667969-5.453124-1.863281-7.804687-3.523437-6.238281-4.191407-10.265625-10.953126-10.984375-18.433594-.714844-7.476563 1.960938-14.882813 7.289062-20.175782 1.875-1.882812 4.027344-3.46875 6.378907-4.703124.253906-.082032.503906-.25.757812-.335938 2.054688.925781 3.929688 2.203125 5.539063 3.777344l11.5 11.585937c5.214844 5.054688 6.511718 12.925781 3.1875 19.386719zm0 0" fill="#8bc34a"/><path d="m152.574219 449.65625-9.148438 32.316406c-1.214843 4.285156-4.078125 7.914063-7.96875 10.085938-3.886719 2.171875-8.480469 2.710937-12.765625 1.496094l-4.445312-1.257813-3.609375-1.09375c-4.289063-1.210937-7.917969-4.078125-10.089844-7.964844s-2.710937-8.480469-1.496094-12.765625l9.234375-32.230468c1.199219-4.453126 4.214844-8.199219 8.308594-10.324219h.085938c3.800781-1.972657 8.214843-2.421875 12.335937-1.257813l8.058594 2.265625c4.28125 1.210938 7.902343 4.082031 10.0625 7.972657 2.160156 3.890624 2.675781 8.484374 1.4375 12.757812zm0 0" fill="#37474f"/><path d="m389.605469 491.203125-8.058594 2.351563c-4.121094 1.171874-8.539063.71875-12.339844-1.257813-4.101562-2.15625-7.160156-5.878906-8.476562-10.324219l-9.148438-32.316406c-1.214843-4.285156-.675781-8.878906 1.496094-12.765625s5.800781-6.753906 10.085937-7.964844l3.609376-1.007812 4.449218-1.257813c4.285156-1.214844 8.878906-.679687 12.765625 1.492188 3.890625 2.175781 6.753907 5.804687 7.964844 10.089844l9.148437 32.230468c1.25 4.273438.738282 8.871094-1.421874 12.765625-2.160157 3.894531-5.789063 6.761719-10.074219 7.964844zm0 0" fill="#37474f"/><path d="m135.785156 449.65625-9.148437 32.316406c-1.28125 4.4375-4.308594 8.160156-8.390625 10.324219l-3.609375-1.09375c-4.289063-1.210937-7.917969-4.078125-10.089844-7.964844s-2.710937-8.480469-1.496094-12.765625l9.234375-32.230468c1.199219-4.453126 4.214844-8.199219 8.308594-10.324219h.085938l3.609374 1.007812c4.28125 1.210938 7.902344 4.082031 10.0625 7.972657 2.15625 3.890624 2.675782 8.484374 1.433594 12.757812zm0 0" fill="#607d8b"/><path d="m372.816406 491.203125-3.609375 1.09375c-4.101562-2.15625-7.160156-5.878906-8.476562-10.324219l-9.148438-32.316406c-1.214843-4.285156-.675781-8.878906 1.496094-12.765625s5.800781-6.753906 10.085937-7.964844l3.609376-1.007812c4.117187 2.117187 7.160156 5.859375 8.394531 10.324219l9.148437 32.230468c1.25 4.273438.734375 8.871094-1.425781 12.765625s-5.785156 6.761719-10.074219 7.964844zm0 0" fill="#607d8b"/><path d="m276.878906 143.632812c13.910156 0 25.183594-11.273437 25.183594-25.179687v-50.363281c0-13.90625-11.273438-25.179688-25.183594-25.179688h-50.359375c-13.90625 0-25.179687 11.273438-25.179687 25.179688v50.363281c0 13.90625 11.273437 25.179687 25.179687 25.179687zm-50.359375-83.9375h50.359375c4.636719 0 8.394532 3.757813 8.394532 8.394532v25.179687h-13.3125l-14.328126-14.328125c-3.277343-3.273437-8.589843-3.273437-11.867187 0l-14.328125 14.328125h-13.3125v-25.179687c0-4.636719 3.757812-8.394532 8.394531-8.394532zm-8.394531 58.757813v-8.394531h16.789062c2.226563 0 4.359376-.886719 5.933594-2.460938l10.851563-10.851562 10.855469 10.851562c1.570312 1.574219 3.707031 2.460938 5.933593 2.460938h16.785157v8.394531c0 4.632813-3.757813 8.390625-8.394532 8.390625h-50.359375c-4.636719 0-8.394531-3.757812-8.394531-8.390625zm0 0"/><path d="m14.222656 212.03125c-3.292968-3.183594-8.527344-3.136719-11.765625.101562-3.234375 3.238282-3.28125 8.472657-.101562 11.765626l11.867187 11.875c.824219.820312 1.730469 1.550781 2.703125 2.183593.4375 8.117188 3.847657 15.789063 9.578125 21.554688 10.851563 10.910156 27.765625 12.96875 40.917969 4.976562.246094.410157.527344.796875.839844 1.160157l10.851562 10.121093c-4.988281 10.652344-1.917969 23.339844 7.390625 30.53125 9.304688 7.191407 22.359375 6.964844 31.40625-.550781 9.050782-7.511719 11.675782-20.296875 6.320313-30.769531l3.632812-3.625c13.449219 7.992187 30.816407 3.789062 39.121094-9.46875 3.097656 1.082031 6.460937 1.140625 9.59375.167969v24.265624c-13.882813.058594-25.121094 11.296876-25.179687 25.179688 0 13.90625 11.273437 25.179688 25.179687 25.179688v18.324218l-26.691406-5.347656c-6.894531-8.277344-17.683594-12.242188-28.296875-10.402344-10.613282 1.839844-19.4375 9.203125-23.144532 19.316406l-27.851562 75.230469c-1.585938 4.390625-1.285156 9.238281.835938 13.398438 2.121093 4.15625 5.867187 7.25 10.355468 8.542969l15.5 4.398437-2.289062 8.074219c-1.828125 6.429687-1.019532 13.320312 2.238281 19.152344 3.257813 5.835937 8.703125 10.136718 15.132813 11.953124l8.066406 2.292969c13.378906 3.800781 27.304687-3.957031 31.109375-17.332031l9.171875-32.292969c1.828125-6.421875 1.03125-13.3125-2.21875-19.144531-3.253906-5.835938-8.6875-10.140625-15.113282-11.96875l.671876-2.359375 41.128906-24.039063c11.894531 21.292969 34.363281 34.5 58.753906 34.53125h16.265625c24.390625-.03125 46.859375-13.238281 58.753906-34.53125l41.128907 24.03125.671874 2.367188c-6.425781 1.824219-11.863281 6.128906-15.113281 11.960938-3.253906 5.835937-4.054687 12.722656-2.230469 19.144531l9.183594 32.300781c1.8125 6.429688 6.113282 11.875 11.953125 15.128906 5.835938 3.25 12.730469 4.042969 19.152344 2.203125l8.074219-2.292969c6.425781-1.824218 11.863281-6.128906 15.113281-11.960937 3.253906-5.832031 4.054687-12.71875 2.230469-19.144531l-2.300782-8.074219 15.511719-4.398437c4.492188-1.300782 8.242188-4.410157 10.359375-8.582032 2.113282-4.171875 2.40625-9.03125.800782-13.425781l-27.804688-75.128906c-3.699219-10.125-12.519531-17.5-23.136719-19.347657-10.617187-1.847656-21.410156 2.117188-28.308593 10.398438l-26.699219 5.347656v-18.324218c13.878906-.066407 25.113281-11.300782 25.179687-25.179688 0-13.90625-11.273437-25.179688-25.179687-25.179688v-24.121093c1.328125.347656 2.695312.535156 4.070312.550781 1.726563-.019531 3.4375-.300781 5.078125-.839844 1.097656 1.75 2.375 3.371094 3.820313 4.84375 9.339843 9.40625 23.859375 11.304688 35.300781 4.617188l3.628906 3.625c-5.347656 10.46875-2.71875 23.246094 6.324219 30.75 9.046875 7.507812 22.089844 7.734375 31.390625.550781 9.300781-7.1875 12.375-19.863281 7.398438-30.511719l10.960937-10.136718c.316406-.359376.597656-.742188.839844-1.152344 10.027343 6.128906 22.546875 6.503906 32.921875.988281 10.375-5.519531 17.0625-16.105469 17.589844-27.847656.8125-.550781 1.578124-1.175781 2.285156-1.863281l11.867187-11.875c3.179688-3.292969 3.136719-8.527344-.101562-11.765626-3.238281-3.238281-8.472657-3.285156-11.765625-.101562l-11.871094 11.867188-11.867188-11.867188 11.867188-11.878906c3.183594-3.292969 3.136719-8.527344-.101562-11.765625-3.238282-3.238281-8.472657-3.28125-11.765626-.101563l-11.859374 11.867188c-.695313.707031-1.328126 1.472656-1.890626 2.292968-8.210937.371094-15.992187 3.789063-21.820312 9.585938-10.816406 10.886719-12.871094 27.722656-4.996094 40.890625-.25.136719-.492187.285156-.730468.445313l-11.179688 10.425781c-6.664062-3.261719-14.425781-3.414063-21.210938-.414063l-4.195312-4.195312c7.023438-13.308594 2.589844-29.78125-10.164062-37.769532 2.019531-5.960937.441406-12.550781-4.054688-16.957031-19.316406-19.355469-49.453125-22.785156-72.628906-8.265625l-5.335938-18.984375h15.105469c13.90625 0 25.179687-11.273437 25.179687-25.183593v-41.964844h8.394532c28.1875 0 44.484375-14.472656 48.851562-42.691406 16.777344-3.300782 28.46875-18.578126 27.277344-35.632813-1.191406-17.058594-14.898438-30.558594-31.972656-31.496094-17.074219-.933593-32.171875 10.988281-35.222656 27.8125-3.046876 16.824219 6.90625 33.289063 23.222656 38.402344-3.238282 18.886719-12.910156 26.816406-32.15625 26.816406h-8.394532v-58.753906c0-13.90625-11.273437-25.179687-25.179687-25.179687h-117.507813c-13.90625 0-25.179687 11.273437-25.179687 25.179687v117.507813c0 13.910156 11.273437 25.183593 25.179687 25.183593h15.109376l-5.203126 18.742188c-23.144531-14.285157-53.074218-10.777344-72.285156 8.476562-4.417968 4.445313-5.980468 10.984375-4.046875 16.945313-1.75 1.101562-3.375 2.386718-4.859375 3.828125-8.921875 8.988281-11.066406 22.691406-5.3125 33.976562l-4.195312 4.195313c-6.789063-2.992188-14.546875-2.839844-21.210938.414062l-11.238281-10.417968c-.238281-.160157-.480469-.308594-.730469-.445313 7.878906-13.167969 5.824219-30.003906-4.988281-40.890625-5.953125-5.894531-13.910156-9.320312-22.28125-9.59375-.558594-.8125-1.1875-1.574219-1.875-2.277344l-11.867187-11.875c-3.292969-3.179687-8.527344-3.136718-11.765626.101563-3.238281 3.238281-3.285156 8.472656-.101562 11.765625l11.867188 11.878906-11.867188 11.867188zm354.984375-177.515625c0-9.269531 7.515625-16.785156 16.789063-16.785156 9.269531 0 16.785156 7.515625 16.785156 16.785156 0 9.273437-7.515625 16.789063-16.785156 16.789063-9.273438 0-16.789063-7.515626-16.789063-16.789063zm-235.71875 220.355469c-2.917969-2.878906-4.238281-7-3.539062-11.035156.695312-4.035157 3.324219-7.472657 7.039062-9.203126l16.785157 16.738282c-.613282 1.292968-1.433594 2.476562-2.433594 3.5-2.363282 2.375-5.574219 3.710937-8.925782 3.710937-3.351562 0-6.5625-1.335937-8.925781-3.710937zm80.121094-26.710938c3.164063-3.144531 4.933594-7.421875 4.917969-11.882812-.019532-1.441406-.226563-2.875-.621094-4.265625 2.941406-.820313 5.980469-1.234375 9.035156-1.234375h50.359375c2.910157 0 5.8125.375 8.628907 1.117187-1.695313 5.792969-.054688 12.050781 4.261718 16.265625l20.683594 20.683594v38.398438c-39.050781 4.355468-78.460938 4.355468-117.507812 0v-38.835938zm-127.261719 211.398438 27.835938-75.179688c2.480468-6.765625 9.871094-10.351562 16.722656-8.109375 6.847656 2.238281 10.691406 9.503907 8.691406 16.425781l-10.851562 38.160157-1.964844 6.929687c-10.617188.648438-19.679688 7.914063-22.613281 18.140625l-2.289063 8.066407zm57.445313 1.453125c1.085937 1.941406 1.347656 4.238281.730469 6.378906l-9.15625 32.296875c-.609376 2.144531-2.042969 3.957031-3.988282 5.042969-1.945312 1.085937-4.242187 1.351562-6.386718.742187l-8.074219-2.300781c-4.457031-1.269531-7.039063-5.910156-5.773438-10.367187l4.582031-16.097657 4.582032-16.125c1.265625-4.457031 5.90625-7.046875 10.367187-5.78125l8.074219 2.289063c2.136719.589844 3.953125 2 5.050781 3.921875zm6.839843-45.796875 5.097657-17.945313c.800781-2.964843 1.144531-6.039062 1.015625-9.113281l19.304687 3.871094c.453125.085937.914063.128906 1.375.132812.363281 2.230469.839844 4.429688 1.386719 6.582032zm241.691407 83.976562c-1.078125 1.949219-2.894531 3.378906-5.035157 3.980469l-8.074218 2.300781c-4.460938 1.265625-9.101563-1.324218-10.367188-5.785156l-9.183594-32.296875c-1.265624-4.460937 1.324219-9.101563 5.785157-10.367187l8.074219-2.289063c4.457031-1.265625 9.097656 1.316406 10.363281 5.773437l9.183593 32.296876c.617188 2.144531.347657 4.445312-.746093 6.386718zm-18.464844-123.097656c6.726563-1.851562 13.75 1.753906 16.164063 8.300781l27.800781 75.199219-15.503907 4.398438-2.292968-8.074219c-2.867188-10.273438-11.960938-17.578125-22.609375-18.164063l-1.957031-6.882812v-.058594l-10.835938-38.132812c-.992188-3.421876-.570312-7.097657 1.167969-10.207032.109375-.191406.257812-.351562.367187-.535156l.042969-.078125c1.757813-2.796875 4.488281-4.851563 7.664063-5.765625zm-26.40625 12.0625c-.128906 3.074219.210937 6.152344 1.015625 9.125l5.09375 17.933594-28.210938-16.472656c.5625-2.160157 1.019532-4.355469 1.378907-6.582032.464843-.003906.925781-.046875 1.382812-.132812zm-11.398437-56.65625c.003906 2.265625-.929688 4.429688-2.578126 5.984375-1.53125 1.558594-3.628906 2.425781-5.816406 2.410156h-8.394531c-4.632813 0-8.390625 3.757813-8.390625 8.394531v33.3125c-.035156 27.949219-22.6875 50.597657-50.640625 50.621094h-16.265625c-27.941406-.035156-50.585938-22.679687-50.621094-50.621094v-33.3125c0-4.636718-3.757812-8.394531-8.390625-8.394531h-8.394531c-4.636719 0-8.394531-3.757812-8.394531-8.394531-.007813-2.261719.921875-4.429688 2.570312-5.984375 1.539063-1.5625 3.648438-2.429687 5.839844-2.410156h7.972656c22.449219 2.773437 45.042969 4.175781 67.660157 4.199219 22.414062.007812 44.808593-1.378907 67.046874-4.15625l.429688-.042969h7.988281c4.628907.011719 8.378907 3.765625 8.378907 8.394531zm16.449218-56.636719c-1.003906-1.023437-1.824218-2.207031-2.433594-3.5l16.789063-16.730469c1.292969.609376 2.476563 1.429688 3.5 2.433594 4.914063 4.917969 4.914063 12.886719 0 17.804688-4.992187 4.785156-12.867187 4.78125-17.855469-.007813zm89.191406-30.964843c2.367188-2.367188 5.402344-3.960938 8.695313-4.574219.792969 1.691406 1.867187 3.238281 3.179687 4.574219l11.867188 11.875c1.335938 1.304687 2.882812 2.375 4.574219 3.164062-.609375 3.296875-2.203125 6.332031-4.574219 8.707031-4.238281 4.242188-10.421875 5.898438-16.214844 4.34375-5.796875-1.550781-10.320312-6.078125-11.875-11.871093-1.550781-5.796876.105469-11.976563 4.347656-16.21875zm-39.753906 54.027343c4.003906.003907 7.449219 2.835938 8.226563 6.761719.78125 3.925781-1.324219 7.855469-5.023438 9.386719s-7.964843.238281-10.1875-3.089844c-2.222656-3.332031-1.789062-7.765625 1.042969-10.597656 1.574219-1.582031 3.710938-2.46875 5.941406-2.460938zm-40.515625-61.632812-29.675781 29.671875-6.507812-6.503906-.058594-.058594-23.121094-23.109375c16.386719-16.386719 42.960938-16.386719 59.347656 0zm-176.875-64.269531v-117.507813c0-4.632813 3.757813-8.390625 8.394531-8.390625h117.507813c4.636719 0 8.394531 3.757812 8.394531 8.390625v117.507813c0 4.636718-3.757812 8.394531-8.394531 8.394531h-117.507813c-4.636718 0-8.394531-3.757813-8.394531-8.394531zm92.507813 25.183593c.328125.011719.65625.082031.964844.207031l4.605468 16.578126h-61.867187l4.558593-16.441407c.28125-.246093.648438-.371093 1.023438-.34375zm-104.988282 26.789063c11.136719-.027344 21.820313 4.402344 29.671876 12.296875l-22.664063 22.664062h-.046875l-6.933594 6.941407-29.679687-29.671876c7.859375-7.867187 18.535156-12.269531 29.652343-12.230468zm-64.257812 76.382812c2.835938 2.828125 3.277344 7.265625 1.054688 10.597656-2.21875 3.332032-6.484376 4.628907-10.1875 3.101563-3.703126-1.527344-5.808594-5.460937-5.03125-9.386719.78125-3.929687 4.222656-6.761718 8.230468-6.765625 2.222656 0 4.359375.886719 5.933594 2.460938zm-57.984375-56.488281c1.339844-1.359375 2.433594-2.9375 3.234375-4.667969 8.40625 1.414063 14.421875 8.90625 13.980469 17.421875-.441407 8.519531-7.195313 15.351563-15.707031 15.886719-8.511719.535156-16.070313-5.390625-17.578126-13.785156 1.542969-.765625 2.960938-1.773438 4.195313-2.980469zm0 0"/><path d="m243.308594 378.648438c-4.539063.292968-8.980469-1.382813-12.191406-4.597657-3.214844-3.214843-4.890626-7.65625-4.597657-12.191406v-25.179687c0-4.632813-3.757812-8.390626-8.394531-8.390626-4.632812 0-8.390625 3.757813-8.390625 8.390626v25.179687c-.265625 8.984375 3.1875 17.675781 9.542969 24.03125 6.355468 6.355469 15.046875 9.808594 24.03125 9.542969 4.632812 0 8.390625-3.757813 8.390625-8.390625 0-4.636719-3.757813-8.394531-8.390625-8.394531zm0 0"/><path d="m234.914062 261.140625h33.574219c4.632813 0 8.390625-3.757813 8.390625-8.394531 0-4.636719-3.757812-8.394532-8.390625-8.394532h-33.574219c-4.636718 0-8.394531 3.757813-8.394531 8.394532 0 4.636718 3.757813 8.394531 8.394531 8.394531zm0 0"/></svg>