<svg height="512pt" viewBox="0 0 512 512.10604" width="512pt" xmlns="http://www.w3.org/2000/svg"><g fill="#6a1b9a"><path d="m418.140625 273.171875c0 9.425781-7.640625 17.066406-17.066406 17.066406s-17.066407-7.640625-17.066407-17.066406 7.640626-17.066406 17.066407-17.066406 17.066406 7.640625 17.066406 17.066406zm0 0"/><path d="m494.941406 204.90625c0 14.136719-11.460937 25.601562-25.601562 25.601562-2.914063.015626-5.808594-.503906-8.53125-1.539062-10.226563-3.578125-17.070313-13.230469-17.070313-24.0625s6.84375-20.484375 17.070313-24.0625c2.722656-1.035156 5.617187-1.554688 8.53125-1.539062 14.140625 0 25.601562 11.460937 25.601562 25.601562zm0 0"/><path d="m128.007812 273.171875c0 9.425781-7.640624 17.066406-17.066406 17.066406-9.425781 0-17.066406-7.640625-17.066406-17.066406s7.640625-17.066406 17.066406-17.066406c9.425782 0 17.066406 7.640625 17.066406 17.066406zm0 0"/><path d="m68.273438 204.90625c0 14.136719-11.460938 25.601562-25.601563 25.601562-2.914063.015626-5.804687-.503906-8.53125-1.539062-10.222656-3.578125-17.070313-13.230469-17.070313-24.0625s6.847657-20.484375 17.070313-24.0625c2.726563-1.035156 5.617187-1.554688 8.53125-1.539062 14.140625 0 25.601563 11.460937 25.601563 25.601562zm0 0"/></g><path d="m477.875 204.90625c0-13.289062-7.640625-24.0625-17.066406-24.0625-9.425782 0-17.066406 10.773438-17.066406 24.0625s7.640624 24.0625 17.066406 24.0625c9.425781 0 17.066406-10.773438 17.066406-24.0625zm0 0" fill="#9d27b0"/><path d="m51.207031 204.90625c0-13.289062-7.640625-24.0625-17.066406-24.0625s-17.066406 10.773438-17.066406 24.0625 7.640625 24.0625 17.066406 24.0625 17.066406-10.773438 17.066406-24.0625zm0 0" fill="#9d27b0"/><path d="m347.226562 154.304688-4.777343 16.980468-13.3125 84.648438-4.4375 62.125c-.238281 3.753906-2.90625 6.90625-6.570313 7.765625-20.386718 4.589843-41.222656 6.910156-62.121094 6.910156-3.585937 0-7.167968-.085937-10.667968-.167969-17.320313-.675781-34.542969-2.933594-51.457032-6.742187-3.660156-.859375-6.328124-4.011719-6.570312-7.765625l-4.4375-62.125-13.308594-84.648438-4.78125-16.980468c-.683594-2.328126-.339844-4.839844.949219-6.894532 1.289063-2.058594 3.398437-3.460937 5.792969-3.859375l16.382812-2.730469c19.035156-2.652343 38.214844-4.164062 57.429688-4.523437 3.585937-.167969 7.082031-.167969 10.667968-.167969 22.777344-.015625 45.53125 1.550782 68.09375 4.691406l16.386719 2.730469c2.394531.398438 4.5 1.800781 5.789063 3.859375 1.289062 2.054688 1.636718 4.566406.949218 6.894532zm0 0" fill="#c52828"/><path d="m325.894531 154.304688-4.777343 16.980468-13.3125 84.648438-4.4375 62.125c-.238282 3.753906-2.910157 6.90625-6.570313 7.765625-16.910156 3.808593-34.136719 6.066406-51.457031 6.742187-17.320313-.675781-34.542969-2.933594-51.457032-6.742187-3.660156-.859375-6.328124-4.011719-6.570312-7.765625l-4.4375-62.125-13.308594-84.648438-4.78125-16.980468c-.683594-2.328126-.339844-4.839844.949219-6.894532 1.289063-2.058594 3.398437-3.460937 5.792969-3.859375l16.382812-2.730469c19.035156-2.652343 38.214844-4.164062 57.429688-4.523437 19.21875.359375 38.394531 1.871094 57.429687 4.523437l16.382813 2.730469c2.394531.398438 4.503906 1.800781 5.792968 3.859375 1.289063 2.054688 1.636719 4.566406.949219 6.894532zm0 0" fill="#f44335"/><path d="m256.007812 76.90625c-4.714843 0-8.535156-3.820312-8.535156-8.535156v-25.597656c0-4.714844 3.820313-8.535157 8.535156-8.535157 4.710938 0 8.53125 3.820313 8.53125 8.535157v25.597656c0 4.714844-3.820312 8.535156-8.53125 8.535156zm0 0" fill="#a5a5a4"/><path d="m256.007812 76.90625c-4.714843 0-8.535156-3.820312-8.535156-8.535156v-25.597656c0-4.714844 3.820313-8.535157 8.535156-8.535157 4.710938 0 8.53125 3.820313 8.53125 8.535157v25.597656c0 4.714844-3.820312 8.535156-8.53125 8.535156zm0 0" fill="#a5a5a4"/><path d="m256.007812 76.90625c-4.714843 0-8.535156-3.820312-8.535156-8.535156v-25.597656c0-4.714844 3.820313-8.535157 8.535156-8.535157 4.710938 0 8.53125 3.820313 8.53125 8.535157v25.597656c0 4.714844-3.820312 8.535156-8.53125 8.535156zm0 0" fill="#a5a5a4"/><path d="m324.273438 136.640625c0 1.449219-.085938 2.816406-.171876 4.179687h-136.191406c-.085937-1.363281-.167968-2.730468-.167968-4.179687-.035157-33.59375 24.410156-62.203125 57.597656-67.414063 3.527344-.585937 7.09375-.871093 10.667968-.855468 37.703126 0 68.265626 30.566406 68.265626 68.269531zm0 0" fill="#c52828"/><path d="m302.941406 136.640625c0 1.449219-.085937 2.816406-.171875 4.179687h-114.859375c-.085937-1.363281-.167968-2.730468-.167968-4.179687-.035157-33.59375 24.410156-62.203125 57.597656-67.414063 33.1875 5.210938 57.632812 33.820313 57.601562 67.414063zm0 0" fill="#f44335"/><path d="m182.875 255.933594-30.890625-30.890625c-9.980469-9.992188-9.980469-26.183594 0-36.179688l17.582031-17.578125 6.882813 24.003906c1.828125 6.402344 2.972656 12.980469 3.414062 19.625v.085938zm0 0" fill="#6a1b9a"/><path d="m255.921875 367.039062v1.449219c-2.757813-.582031-5.550781-.980469-8.363281-1.191406 2.730468-.171875 5.546875-.257813 8.363281-.257813zm0 0" fill="#f57c00"/><path d="m255.921875 493.757812v9.816407c-2.976563-.050781-5.886719-.875-8.449219-2.390625 3.214844-1.984375 6.070313-4.492188 8.449219-7.425782zm0 0" fill="#f57c00"/><path d="m298.671875 409.707031c0 37.714844-19.113281 93.867188-42.664063 93.867188v-9.898438c15.101563-17.835937 25.597657-55.980469 25.597657-83.96875 0-27.992187-10.578125-37.972656-25.597657-41.21875v-1.449219c23.550782 0 42.664063 4.949219 42.664063 42.667969zm0 0" fill="#f57c00"/><path d="m247.472656 501.183594c-2.589844 1.515625-5.53125 2.339844-8.53125 2.390625v-9.816407c2.382813 2.957032 5.273438 5.472657 8.53125 7.425782zm0 0" fill="#fec108"/><path d="m247.304688 367.296875c-2.8125.210937-5.605469.609375-8.363282 1.191406v-1.449219c2.816406 0 5.632813.085938 8.363282.257813zm0 0" fill="#fec108"/><path d="m281.605469 409.707031c0 27.988281-10.496094 66.132813-25.597657 83.96875 0 .046875-.039062.082031-.085937.082031-2.378906 2.933594-5.234375 5.441407-8.449219 7.425782-3.257812-1.953125-6.148437-4.46875-8.53125-7.425782-.046875 0-.085937-.035156-.085937-.082031-15.105469-17.835937-25.601563-55.980469-25.601563-83.96875 0-27.992187 10.582032-37.972656 25.601563-41.21875h.085937c2.757813-.582031 5.550782-.980469 8.363282-1.191406h.253906c2.8125.210937 5.605468.609375 8.363281 1.191406h.085937c15.019532 3.246094 25.597657 13.226563 25.597657 41.21875zm0 0" fill="#fec108"/><path d="m329.136719 255.933594 30.890625-30.890625c9.984375-9.992188 9.984375-26.183594 0-36.179688l-17.578125-17.578125-6.886719 24.003906c-1.828125 6.402344-2.972656 12.980469-3.414062 19.625v.085938zm0 0" fill="#6a1b9a"/><path d="m297.992188 203.625c-2.390626 26.367188-4.808594 53.761719-7.253907 82.175781-.253906 3.851563-3.109375 7.027344-6.914062 7.679688-9.183594 1.632812-18.488281 2.460937-27.816407 2.476562-2.816406 0-5.71875-.085937-8.535156-.257812-6.464844-.355469-12.90625-1.09375-19.285156-2.21875-3.800781-.652344-6.660156-3.828125-6.910156-7.679688-2.476563-28.414062-4.894532-55.808593-7.253906-82.175781-.441407-4.195312 2.296874-8.0625 6.398437-9.042969 8.761719-1.96875 17.664063-3.222656 26.625-3.757812h.855469c2.730468-.167969 5.375-.253907 8.105468-.253907 11.972657.015626 23.90625 1.363282 35.582032 4.011719 4.105468.980469 6.84375 4.847657 6.402344 9.042969zm0 0" fill="#6a1b9a"/><path d="m280.925781 203.625c-2.390625 26.367188-4.808593 53.761719-7.253906 82.175781-.253906 3.851563-3.109375 7.027344-6.914063 7.679688-6.378906 1.125-12.816406 1.863281-19.285156 2.21875-6.464844-.355469-12.90625-1.09375-19.285156-2.21875-3.800781-.652344-6.660156-3.828125-6.910156-7.679688-2.476563-28.414062-4.894532-55.808593-7.253906-82.175781-.441407-4.195312 2.296874-8.0625 6.398437-9.042969 8.761719-1.96875 17.664063-3.222656 26.625-3.757812h.855469c8.960937.535156 17.863281 1.789062 26.621094 3.757812 4.101562.980469 6.84375 4.847657 6.402343 9.042969zm0 0" fill="#9d27b0"/><path d="m273.074219 25.707031c0 9.425781-7.640625 17.066407-17.066407 17.066407-9.425781 0-17.066406-7.640626-17.066406-17.066407s7.640625-17.066406 17.066406-17.066406c9.425782 0 17.066407 7.640625 17.066407 17.066406zm0 0" fill="#00bcd4"/><path d="m238.941406 111.039062c1.113282-.011718 2.214844-.246093 3.242188-.683593 1.03125-.433594 1.984375-1.039063 2.816406-1.789063 2.441406-2.445312 3.152344-6.128906 1.792969-9.304687-.433594-1.03125-1.039063-1.984375-1.792969-2.8125-2.453125-2.421875-6.125-3.128907-9.300781-1.792969-1.046875.410156-2 1.019531-2.816407 1.792969-.753906.828125-1.359374 1.78125-1.792968 2.8125-1.125 2.625-.847656 5.640625.734375 8.015625 1.585937 2.375 4.261719 3.792968 7.117187 3.761718zm0 0"/><path d="m307.207031 409.707031c0-45.117187-25.882812-51.199219-51.199219-51.199219-25.320312 0-51.199218 6.082032-51.199218 51.199219 0 34.753907 18.070312 102.398438 51.199218 102.398438 33.125 0 51.199219-67.644531 51.199219-102.398438zm-85.332031 0c0-29.210937 10.527344-34.132812 34.132812-34.132812 23.601563 0 34.132813 4.921875 34.132813 34.132812 0 37.484375-19.140625 85.332031-34.132813 85.332031-14.992187 0-34.132812-47.847656-34.132812-85.332031zm0 0"/><path d="m492.441406 130.605469c-3.347656-3.234375-8.671875-3.1875-11.964844.105469-3.289062 3.289062-3.335937 8.613281-.101562 11.960937l12.125 12.125-11.988281 18.007813c-7.203125-2.707032-15.140625-2.707032-22.339844 0l-11.992187-18.007813 12.128906-12.125c3.230468-3.347656 3.1875-8.671875-.105469-11.960937-3.292969-3.292969-8.613281-3.339844-11.960937-.105469l-17.066407 17.066406c-2.875 2.875-3.320312 7.378906-1.070312 10.761719l15.875 23.84375c-10.027344 10.933594-11.628907 27.171875-3.933594 39.859375l-28.007813 27.996093c-5.851562-2.941406-12.648437-3.375-18.824218-1.203124l-20.480469-27.5625c6.113281-12.96875 3.453125-28.378907-6.65625-38.546876l-14.035156-14.035156 6.058593-21.335937c.652344-2.308594.304688-4.785157-.960937-6.824219-1.261719-2.039062-3.328125-3.453125-5.6875-3.890625l-6.382813-1.1875c-4.097656-.769531-8.253906-1.375-12.398437-2.023437-1.546875-37.859376-30.476563-68.933594-68.132813-73.179688v-10.609375c11.757813-4.15625 18.808594-16.175781 16.699219-28.464844-2.109375-12.289062-12.761719-21.269531-25.230469-21.269531s-23.125 8.980469-25.230468 21.269531c-2.109375 12.289063 4.941406 24.308594 16.695312 28.464844v10.609375c-37.660156 4.253906-66.585937 35.351562-68.113281 73.222656-4.136719.648438-8.292969 1.253906-12.378906 2.023438l-6.402344 1.195312c-2.359375.4375-4.425781 1.851563-5.6875 3.890625-1.265625 2.039063-1.613281 4.519531-.960937 6.828125l6.058593 21.332032-14.0625 13.996093c-10.109375 10.164063-12.769531 25.574219-6.65625 38.542969l-20.476562 27.5625c-6.179688-2.171875-12.976563-1.738281-18.828125 1.203125l-27.996094-28.003906c7.691406-12.6875 6.089844-28.925781-3.933594-39.859375l15.871094-23.84375c2.253906-3.382813 1.808594-7.886719-1.066406-10.761719l-17.066406-17.066406c-3.347657-3.234375-8.671876-3.1875-11.960938.105469-3.292969 3.289062-3.339844 8.613281-.105469 11.960937l12.125 12.125-11.988281 18.007813c-3.582031-1.304688-7.359375-1.992188-11.171875-2.03125-3.808594.039062-7.585937.726562-11.167969 2.03125l-11.945312-18.007813 12.125-12.125c3.234375-3.347656 3.1875-8.671875-.105469-11.960937-3.289063-3.292969-8.613281-3.339844-11.960937-.105469l-17.066407 17.066406c-2.875 2.875-3.320312 7.378906-1.066406 10.761719l15.871094 23.84375c-11.304688 12.460937-11.773438 31.324218-1.101563 44.332031 10.667969 13.007813 29.257813 16.238281 43.691406 7.589844l27.957032 28.007812c-1.671875 3.414063-2.546875 7.164063-2.5625 10.964844-.035156 10.941406 6.890625 20.695313 17.230468 24.273437 10.339844 3.578126 21.8125.191407 28.546876-8.433593 6.734374-8.625 7.242187-20.574219 1.265624-29.738281l17.8125-23.945313 24.394532 24.394531 4.207031 58.882813c.480469 7.53125 5.851563 13.855469 13.210937 15.546875 42.15625 9.496094 85.894532 9.496094 128.050782 0 7.324218-1.6875 12.667968-7.980469 13.148437-15.480469l4.214844-58.949219 24.398437-24.394531 17.808594 23.945313c-5.976562 9.164062-5.464844 21.113281 1.269532 29.738281 6.734374 8.625 18.207031 12.011719 28.546874 8.433593 10.339844-3.578124 17.261719-13.332031 17.226563-24.273437-.011719-3.800781-.886719-7.550781-2.558594-10.964844l28.007813-28.007812c5.199218 3.136719 11.148437 4.808593 17.21875 4.839843 13.460937.058594 25.6875-7.828124 31.175781-20.117187 5.492187-12.289063 3.210937-26.660156-5.8125-36.644531l15.871094-23.84375c2.25-3.382813 1.804687-7.886719-1.066407-10.761719zm-236.433594-113.433594c4.710938 0 8.53125 3.820313 8.53125 8.535156 0 4.710938-3.820312 8.53125-8.53125 8.53125-4.714843 0-8.535156-3.820312-8.535156-8.53125 0-4.714843 3.820313-8.535156 8.535156-8.535156zm0 59.734375c30.851563.046875 56.601563 23.554688 59.460938 54.273438-39.496094-4.78125-79.425781-4.78125-118.921875 0 2.855469-30.71875 28.609375-54.226563 59.460937-54.273438zm-230.402343 128c-.003907-7.726562 5.179687-14.492188 12.640625-16.496094 7.460937-2.003906 15.335937 1.253906 19.203125 7.941406 3.867187 6.6875 2.757812 15.136719-2.699219 20.605469-4.878906 4.882813-12.21875 6.347657-18.597656 3.707031-6.378906-2.636718-10.539063-8.855468-10.546875-15.757812zm85.335937 76.800781c-3.4375.003907-6.542968-2.058593-7.875-5.226562-1.332031-3.167969-.632812-6.828125 1.773438-9.28125h.128906l.066406-.101563c2.753906-2.714844 6.984375-3.238281 10.316406-1.28125 3.332032 1.960938 4.933594 5.914063 3.898438 9.640625-1.035156 3.722657-4.445312 6.289063-8.308594 6.25zm47.078125-62.695312c-6.652343-6.664063-6.652343-17.453125 0-24.117188l7.339844-7.328125 2.890625 10.070313c1.667969 5.847656 2.714844 11.851562 3.132812 17.917969l1.3125 18.109374zm158.242188 98.484375c-19.777344 4.449218-39.984375 6.699218-60.253907 6.707031-20.253906.003906-40.441406-2.261719-60.1875-6.757813l-4.4375-62.117187-2.976562-41.035156c-.5-7.222657-1.757812-14.375-3.753906-21.332031l-6.878906-23.964844-4.855469-17.066406c5.367187-.953126 10.777343-1.808594 16.171875-2.558594 44.386718-6.144532 89.414062-6.144532 133.800781 0 5.417969.777344 10.828125 1.621094 16.214844 2.558594l-4.855469 17.066406-6.878906 23.980468c-2.003906 6.984376-3.257813 14.160157-3.746094 21.410157l-2.988281 40.960937zm23.039062-83.796875 1.324219-18.21875c.414062-6.042969 1.460938-12.023438 3.121094-17.84375l2.894531-10.078125 7.335937 7.335937c6.652344 6.664063 6.652344 17.453125 0 24.117188zm61.773438 48.007812c-3.851563-.003906-7.21875-2.585937-8.226563-6.300781-1.011718-3.714844.59375-7.644531 3.914063-9.59375 3.320312-1.949219 7.53125-1.433594 10.285156 1.257812l.070313.101563.101562.0625c2.386719 2.460937 3.066406 6.117187 1.726562 9.273437-1.339843 3.15625-4.441406 5.203126-7.871093 5.199219zm68.265625-59.734375c-4.519532.003906-8.855469-1.792968-12.046875-4.992187-5.761719-5.753907-6.65625-14.78125-2.132813-21.554688 4.523438-6.769531 13.199219-9.402343 20.726563-6.285156 7.523437 3.117187 11.796875 11.113281 10.203125 19.101563-1.589844 7.988281-8.605469 13.738281-16.75 13.730468zm0 0"/><path d="m300.933594 188.148438c-29.398438-8.148438-60.457032-8.148438-89.855469 0-4 1.078124-6.648437 4.882812-6.269531 9.007812 2.816406 30.535156 5.628906 62.59375 8.445312 95.847656.296875 3.769532 3.035156 6.894532 6.734375 7.679688 23.714844 5.132812 48.253907 5.132812 71.96875 0 3.699219-.785156 6.4375-3.910156 6.734375-7.679688 2.816406-33.28125 5.632813-65.3125 8.449219-95.847656.382813-4.105469-2.230469-7.902344-6.207031-9.007812zm-18.667969 96.972656c-17.371094 3.058594-35.144531 3.058594-52.515625 0-2.414062-28.382813-4.828125-55.871094-7.246094-82.253906 22.054688-5.03125 44.953125-5.03125 67.003906 0-2.414062 26.394531-4.828124 53.878906-7.242187 82.253906zm0 0"/><path d="m273.074219 111.039062c2.855469.03125 5.53125-1.386718 7.113281-3.761718 1.585938-2.375 1.863281-5.390625.738281-8.015625-.433593-1.03125-1.039062-1.984375-1.792969-2.8125-3.421874-3.160157-8.695312-3.160157-12.117187 0-.753906.828125-1.359375 1.78125-1.792969 2.8125-1.125 2.625-.847656 5.640625.734375 8.015625 1.585938 2.375 4.261719 3.792968 7.117188 3.761718zm0 0"/><path d="m264.539062 435.304688v-25.597657c0-4.714843-3.820312-8.535156-8.53125-8.535156-4.714843 0-8.535156 3.820313-8.535156 8.535156v25.597657c0 4.714843 3.820313 8.535156 8.535156 8.535156 4.710938 0 8.53125-3.820313 8.53125-8.535156zm0 0"/></svg>