<svg height="503pt" viewBox="-6 0 503 503.67974" width="503pt" xmlns="http://www.w3.org/2000/svg"><path d="m281.277344 142.542969-11.75 105.757812-15.78125-8.8125-7.972656-4.363281-8.394532 4.699219-15.273437 8.476562-1.007813-8.8125-9.988281-90.0625-.167969-1.59375 23.082032 2.179688 12.085937 1.175781 17.878906-4.363281zm0 0" fill="#424242"/><g fill="#9e9e9e"><path d="m264.492188 142.542969-.503907 4.28125-10.242187 92.664062-1.007813 8.8125-15.359375-8.476562-8.394531-4.699219-7.886719 4.363281-9.988281-90.0625 18.210937 1.761719 4.703126-1.175781zm0 0"/><path d="m145.078125 389.621094v-92.328125h33.574219v91.933593"/><path d="m312.945312 389.226562v-91.933593h33.574219v92.328125"/></g><path d="m99.667969 160.722656 65.46875-37.769531 30.277343 30.988281-77.617187 44.753906zm0 0" fill="#424242"/><path d="m389.886719 159.546875-63.425781-36.59375-37.671876 26.726563 91.699219 52.875zm0 0" fill="#424242"/><path d="m170.230469 102.171875-25.347657-5.960937-41.796874-9.820313-3.609376-.839844-6.464843-1.507812-47.339844-11.082031c-4.484375-1.078126-7.261719-5.578126-6.210937-10.070313l5.707031-24.59375c.652343-2.527344 2.410156-4.625 4.785156-5.707031 1.65625-.753906 3.519531-.929688 5.289063-.503906l111.046874 26.019531zm0 0" fill="#37474f"/><path d="m445.871094 72.960938-3.523438.839843-43.8125 10.242188-6.464844 1.507812-3.609374.839844-67.148438 15.78125 3.777344-41.800781.167968-2.265625 111.046876-26.019531c4.492187-1.050782 8.992187 1.722656 10.070312 6.210937l5.707031 24.59375c1.054688 4.492187-1.722656 8.992187-6.210937 10.070313zm0 0" fill="#37474f"/><path d="m144.882812 96.210938-45.996093-9.820313-3.609375-.839844-6.460938-1.507812-47.339844-11.082031c-4.488281-1.078126-7.261718-5.578126-6.210937-10.070313l5.707031-24.59375c.652344-2.527344 2.410156-4.625 4.785156-5.707031l99.292969 25.347656zm0 0" fill="#607d8b"/><path d="m442.347656 73.800781-43.8125 10.242188-6.464844 1.507812-3.609374.839844-67.148438 15.78125 3.777344-41.800781 102.820312-24.089844c4.496094-1.050781 8.992188 1.726562 10.074219 6.210938l5.707031 24.59375c.550782 2.328124.058594 4.777343-1.34375 6.714843zm0 0" fill="#607d8b"/><path d="m354.886719 285.484375v16.785156c0 4.636719-3.757813 8.394531-8.390625 8.394531h-16.789063c4.636719 0 8.394531-3.757812 8.394531-8.394531v-16.785156c0-13.90625-11.273437-25.179687-25.179687-25.179687h16.785156c13.90625 0 25.179688 11.273437 25.179688 25.179687zm0 0" fill="#9e9e9e"/><path d="m338.101562 285.484375v16.785156c0 4.636719-3.757812 8.394531-8.394531 8.394531h-16.785156c-4.636719 0-8.394531-3.757812-8.394531-8.394531v-8.390625h-117.507813v8.390625c0 4.636719-3.757812 8.394531-8.394531 8.394531h-33.574219c-4.632812 0-8.390625-3.757812-8.390625-8.394531v-16.785156c0-13.90625 11.273438-25.179687 25.179688-25.179687h151.082031c13.90625 0 25.179687 11.273437 25.179687 25.179687zm0 0" fill="#cfd8dc"/><path d="m329.707031 67.253906v48.011719c-.011719 1.53125-.417969 3.035156-1.175781 4.363281l-21.570312 35.839844c-1.484376 2.578125-4.246094 4.152344-7.21875 4.113281h-107.9375c-2.976563.039063-5.734376-1.535156-7.21875-4.113281l-.085938-.082031-21.484375-35.757813c-.761719-1.328125-1.164063-2.832031-1.175781-4.363281v-48.011719zm0 0" fill="#9e9e9e"/><path d="m312.921875 67.253906v43.8125c-.011719 1.53125-.417969 3.035156-1.175781 4.367188l-21.570313 35.839844c-1.484375 2.578124-4.246093 4.148437-7.21875 4.113281h-98.457031l-21.484375-35.757813c-.761719-1.328125-1.164063-2.832031-1.175781-4.363281v-48.011719zm0 0" fill="#cfd8dc"/><path d="m349.851562 20.167969-20.144531 47.085937h-167.867187l-20.144532-47.085937c-2.433593-5.539063-6.714843-11.75-.671874-11.75h209.5c6.042968 0 1.761718 6.210937-.671876 11.75zm0 0" fill="#9e9e9e"/><path d="m333.066406 20.167969-20.144531 47.085937h-151.082031l-20.144532-47.085937c-2.433593-5.539063-6.714843-11.75-.671874-11.75h192.714843c6.042969 0 1.761719 6.210937-.671875 11.75zm0 0" fill="#cfd8dc"/><path d="m61.117188 120.519531v-28.117187c0-4.636719 3.757812-8.394532 8.394531-8.394532h16.785156c4.636719 0 8.394531 3.757813 8.394531 8.394532v28.117187zm0 0" fill="#9e9e9e"/><path d="m56.191406 213.351562-21.261718 21.328126c-1.574219 1.574218-3.710938 2.460937-5.9375 2.460937-2.226563 0-4.363282-.886719-5.9375-2.460937l-11.871094-11.859376c-1.574219-1.578124-2.460938-3.710937-2.460938-5.941406 0-2.226562.886719-4.363281 2.460938-5.9375l21.335937-21.226562zm0 0" fill="#9e9e9e"/><path d="m99.667969 213.351562 21.261719 21.328126c1.574218 1.574218 3.710937 2.460937 5.9375 2.460937 2.226562 0 4.363281-.886719 5.9375-2.460937l11.871093-11.871094c1.574219-1.574219 2.460938-3.710938 2.460938-5.9375 0-2.226563-.886719-4.363282-2.460938-5.9375l-21.335937-21.21875zm0 0" fill="#9e9e9e"/><path d="m193.734375 402.992188-14.519531 25.179687h-33.996094l-14.519531-25.179687c-1.511719-2.59375-1.511719-5.800782 0-8.394532l14.519531-25.179687h33.996094l14.519531 25.179687c1.511719 2.59375 1.511719 5.800782 0 8.394532zm0 0" fill="#37474f"/><path d="m161.839844 432.367188v58.757812h-41.96875c-4.636719 0-8.394532-3.757812-8.394532-8.394531-.015624-13.363281 5.285157-26.183594 14.730469-35.628907 9.449219-9.449218 22.269531-14.75 35.632813-14.734374zm0 0" fill="#cfd8dc"/><path d="m212.199219 482.730469c0 4.636719-3.757813 8.394531-8.394531 8.394531h-41.964844v-58.757812c13.359375-.015626 26.179687 5.285156 35.628906 14.734374 9.449219 9.445313 14.75 22.265626 14.730469 35.628907zm0 0" fill="#424242"/><path d="m396.855469 120.519531v-28.117187c0-4.636719 3.757812-8.394532 8.394531-8.394532h16.785156c4.636719 0 8.394532 3.757813 8.394532 8.394532v28.117187zm0 0" fill="#9e9e9e"/><path d="m459.074219 189.714844 21.328125 21.261718c1.578125 1.574219 2.460937 3.710938 2.460937 5.9375 0 2.226563-.882812 4.363282-2.460937 5.9375l-11.867188 11.867188c-1.574218 1.578125-3.710937 2.464844-5.9375 2.464844-2.230468 0-4.363281-.886719-5.9375-2.464844l-21.261718-21.328125zm0 0" fill="#9e9e9e"/><path d="m368.257812 189.714844-21.328124 21.261718c-1.574219 1.574219-2.460938 3.710938-2.460938 5.9375 0 2.226563.886719 4.363282 2.460938 5.9375l11.871093 11.867188c1.574219 1.578125 3.710938 2.464844 5.9375 2.464844 2.226563 0 4.363281-.886719 5.9375-2.464844l21.261719-21.328125zm0 0" fill="#9e9e9e"/><path d="m290.847656 88.238281-19.558594 33.574219c-1.503906 2.605469-4.292968 4.207031-7.300781 4.195312h-36.429687c-3.011719.011719-5.796875-1.589843-7.300782-4.195312l-19.558593-33.574219c-1.511719-2.59375-1.511719-5.800781 0-8.394531l7.304687-12.589844 12.253906-20.984375c1.503907-2.605469 4.289063-4.207031 7.300782-4.195312h36.429687c3.007813-.011719 5.796875 1.589843 7.300781 4.195312l12.253907 20.984375 7.304687 12.589844c1.511719 2.59375 1.511719 5.800781 0 8.394531zm0 0" fill="#37474f"/><path d="m269.863281 88.238281-19.558593 33.574219c-1.503907 2.605469-4.289063 4.207031-7.300782 4.195312h-15.445312c-3.011719.011719-5.796875-1.589843-7.300782-4.195312l-19.558593-33.574219c-1.511719-2.59375-1.511719-5.800781 0-8.394531l7.304687-12.589844 12.253906-20.984375c1.503907-2.605469 4.289063-4.207031 7.300782-4.195312h15.445312c3.011719-.011719 5.796875 1.589843 7.300782 4.195312l12.253906 20.984375 7.304687 12.589844c1.511719 2.59375 1.511719 5.800781 0 8.394531zm0 0" fill="#607d8b"/><path d="m270.953125 293.84375h33.574219l6.714844-33.574219.335937-1.511719c.796875-3.980468-1.355469-7.964843-5.121094-9.484374l-35.503906-14.183594h-50.359375l-35.503906 14.183594c-3.765625 1.519531-5.917969 5.503906-5.121094 9.484374l.335938 1.511719 6.714843 33.574219zm0 0" fill="#424242"/><path d="m270.953125 277.089844v16.789062c-.027344 9.257813-7.527344 16.757813-16.785156 16.785156h-16.789063c-9.257812-.027343-16.757812-7.527343-16.785156-16.785156v-16.789062c0-4.636719 3.757812-8.394532 8.390625-8.394532h33.574219c2.226562 0 4.363281.886719 5.9375 2.460938 1.574218 1.574219 2.457031 3.707031 2.457031 5.933594zm0 0" fill="#9e9e9e"/><path d="m254.167969 277.089844v16.789062c0 9.269532-7.515625 16.785156-16.789063 16.785156-9.269531 0-16.785156-7.515624-16.785156-16.785156v-16.789062c0-4.636719 3.757812-8.394532 8.390625-8.394532h16.789063c4.636718 0 8.394531 3.757813 8.394531 8.394532zm0 0" fill="#cfd8dc"/><path d="m360.847656 402.992188-14.519531 25.179687h-33.910156l-14.523438-25.179687c-1.507812-2.59375-1.507812-5.800782 0-8.394532l14.523438-25.179687h33.910156l14.519531 25.179687c1.511719 2.59375 1.511719 5.800782 0 8.394532zm0 0" fill="#37474f"/><path d="m176.945312 402.992188-14.519531 25.179687h-17.207031l-14.519531-25.179687c-1.511719-2.59375-1.511719-5.800782 0-8.394532l14.519531-25.179687h17.207031l14.519531 25.179687c1.511719 2.59375 1.511719 5.800782 0 8.394532zm0 0" fill="#607d8b"/><path d="m344.058594 402.992188-14.519532 25.179687h-17.121093l-14.523438-25.179687c-1.507812-2.59375-1.507812-5.800782 0-8.394532l14.523438-25.179687h17.121093l14.519532 25.179687c1.511718 2.59375 1.511718 5.800782 0 8.394532zm0 0" fill="#607d8b"/><path d="m329.707031 432.367188v58.757812h-41.964843c-4.636719 0-8.394532-3.757812-8.394532-8.394531-.019531-13.363281 5.28125-26.183594 14.730469-35.628907 9.449219-9.449218 22.265625-14.75 35.628906-14.734374zm0 0" fill="#cfd8dc"/><path d="m380.066406 482.730469c0 4.636719-3.757812 8.394531-8.390625 8.394531h-41.96875v-58.757812c13.363281-.015626 26.183594 5.285156 35.628907 14.734374 9.449218 9.445313 14.75 22.265626 14.730468 35.628907zm0 0" fill="#424242"/><path d="m195.414062 482.730469c0 4.636719-3.757812 8.394531-8.394531 8.394531h-25.179687v-55.816406c7.078125 2.433594 13.507812 6.453125 18.800781 11.75 9.480469 9.445312 14.796875 22.289062 14.773437 35.671875zm0 0" fill="#9e9e9e"/><path d="m363.28125 482.730469c0 4.636719-3.757812 8.394531-8.394531 8.394531h-25.179688v-55.816406c7.078125 2.433594 13.511719 6.453125 18.800781 11.75 9.480469 9.445312 14.796876 22.289062 14.773438 35.671875zm0 0" fill="#9e9e9e"/><path d="m128.265625 167.976562c0 27.8125-22.546875 50.359376-50.363281 50.359376-2.8125.007812-5.621094-.246094-8.390625-.753907-24.222657-4.074219-41.960938-25.042969-41.960938-49.605469s17.738281-45.53125 41.960938-49.605468c2.769531-.507813 5.578125-.761719 8.390625-.757813 13.363281-.015625 26.183594 5.285157 35.632812 14.730469 9.449219 9.449219 14.746094 22.269531 14.730469 35.632812zm0 0" fill="#f57c00"/><path d="m111.476562 167.976562c.011719 24.566407-17.734374 45.542969-41.964843 49.605469-24.222657-4.074219-41.960938-25.042969-41.960938-49.605469s17.738281-45.53125 41.960938-49.605468c24.242187 4.035156 42.003906 25.027344 41.964843 49.605468zm0 0" fill="#ffb301"/><path d="m94.714844 167.941406c0 9.273438-7.515625 16.789063-16.785156 16.789063-9.269532 0-16.785157-7.515625-16.785157-16.789063 0-9.269531 7.515625-16.785156 16.785157-16.785156 9.269531 0 16.785156 7.515625 16.785156 16.785156zm0 0" fill="#ffeb3a"/><path d="m464.003906 167.976562c0 27.8125-22.546875 50.359376-50.363281 50.359376-2.8125.007812-5.625-.246094-8.390625-.753907-24.222656-4.074219-41.960938-25.042969-41.960938-49.605469s17.738282-45.53125 41.960938-49.605468c2.765625-.507813 5.578125-.761719 8.390625-.757813 13.363281-.015625 26.183594 5.285157 35.632813 14.730469 9.445312 9.449219 14.746093 22.269531 14.730468 35.632812zm0 0" fill="#f57c00"/><path d="m447.214844 167.976562c.011718 24.566407-17.734375 45.542969-41.964844 49.605469-24.222656-4.074219-41.960938-25.042969-41.960938-49.605469s17.738282-45.53125 41.960938-49.605468c24.242188 4.035156 42.003906 25.027344 41.964844 49.605468zm0 0" fill="#ffb301"/><path d="m430.453125 167.941406c0 9.273438-7.515625 16.789063-16.785156 16.789063-9.273438 0-16.789063-7.515625-16.789063-16.789063 0-9.269531 7.515625-16.785156 16.789063-16.785156 9.269531 0 16.785156 7.515625 16.785156 16.785156zm0 0" fill="#ffeb3a"/><path d="m254.167969 75.5625c0 4.636719-3.757813 8.394531-8.394531 8.394531-4.636719 0-8.394532-3.757812-8.394532-8.394531 0-4.632812 3.757813-8.390625 8.394532-8.390625 4.636718 0 8.394531 3.757813 8.394531 8.390625zm0 0"/><path d="m77.902344 142.761719c-13.90625 0-25.179688 11.273437-25.179688 25.179687s11.273438 25.179688 25.179688 25.179688c13.910156 0 25.183594-11.273438 25.183594-25.179688s-11.273438-25.179687-25.183594-25.179687zm0 33.574219c-4.632813 0-8.390625-3.757813-8.390625-8.394532 0-4.636718 3.757812-8.394531 8.390625-8.394531 4.636718 0 8.394531 3.757813 8.394531 8.394531 0 4.636719-3.757813 8.394532-8.394531 8.394532zm0 0"/><path d="m413.640625 142.761719c-13.90625 0-25.179687 11.273437-25.179687 25.179687s11.273437 25.179688 25.179687 25.179688 25.183594-11.273438 25.183594-25.179688-11.277344-25.179687-25.183594-25.179687zm0 33.574219c-4.632813 0-8.390625-3.757813-8.390625-8.394532 0-4.636718 3.757812-8.394531 8.390625-8.394531 4.636719 0 8.394531 3.757813 8.394531 8.394531 0 4.636719-3.757812 8.394532-8.394531 8.394532zm0 0"/><path d="m468.9375 187.660156c2.285156-6.324218 3.453125-12.996094 3.457031-19.71875-.03125-22.664062-13.09375-43.289062-33.570312-53.003906v-22.535156c-.007813-2.378906-.527344-4.726563-1.519531-6.882813l18.960937-4.441406c4.289063-1.042969 7.996094-3.738281 10.3125-7.496094 2.363281-3.742187 3.113281-8.285156 2.082031-12.589843l-5.742187-24.726563c-2.183594-8.949219-11.171875-14.46875-20.140625-12.363281l-94.890625 22.21875 9.671875-22.597656c.375-.839844.835937-1.675782 1.214844-2.566407 3.386718-4.628906 4.027343-10.71875 1.679687-15.949219-2.164063-3.335937-5.960937-5.242187-9.929687-4.9843745h-209.5c-3.96875-.2343755-7.757813 1.6914065-9.90625 5.0351565-2.347657 5.230468-1.707032 11.320312 1.679687 15.949218.410156.839844.839844 1.71875 1.183594 2.515626l9.695312 22.664062-94.804687-22.292969c-9.035156-2.140625-18.097656 3.441407-20.253906 12.472657l-5.671876 24.492187c-1.066406 4.347656-.3125 8.941406 2.082032 12.722656 2.332031 3.796875 6.074218 6.511719 10.40625 7.554688l18.867187 4.421875c-.992187 2.160156-1.511719 4.507812-1.519531 6.882812v22.539063c-27.304688 12.828125-40.347656 44.34375-30.097656 72.71875l-17.425782 17.308593c-3.148437 3.148438-4.917968 7.417969-4.917968 11.871094s1.769531 8.726563 4.917968 11.875l11.871094 11.867188c3.136719 3.160156 7.414063 4.929687 11.867188 4.917968 4.460937.011719 8.738281-1.765624 11.875-4.933593l17.332031-17.394531c12.742187 4.644531 26.710937 4.644531 39.449219 0l17.335937 17.394531c3.136719 3.167969 7.414063 4.945312 11.875 4.933593 4.453125.011719 8.726563-1.757812 11.867188-4.917968l11.871093-11.867188c3.152344-3.148437 4.921876-7.421875 4.921876-11.878906 0-4.453125-1.769532-8.726562-4.921876-11.875l-9.863281-9.839844 47.917969-27.628906c1.042969.234375 2.109375.371094 3.179688.410156h12.886718l6.855469 61.726563-29.59375 11.816406c-4.601563 1.855469-8.136719 5.664063-9.644531 10.390625h-10.5c-18.542969 0-33.574219 15.03125-33.574219 33.574219v16.789062c.015625 5.96875 3.214844 11.476563 8.394531 14.453125v50.738282l-13.238281 22.9375c-2.988281 5.199218-2.988281 11.589843 0 16.789062l14.527344 25.179688c.152343.25.355469.445312.523437.679687-21.464844 9.320313-35.359375 30.476563-35.386718 53.878906 0 9.269531 7.515624 16.785157 16.785156 16.785157h83.933594c9.273437 0 16.789062-7.515626 16.789062-16.785157-.035156-23.195312-13.699219-44.199219-34.882812-53.636719.257812-.289062.496093-.597656.710937-.921874l14.53125-25.179688c2.988281-5.199219 2.988281-11.589844 0-16.789062l-13.933594-24.148438v-49.519531c5.175781-2.976563 8.375-8.484375 8.394531-14.453125h18.328126c3.546874 10.023437 13.003906 16.742187 23.636718 16.785156h16.789063c10.632812-.042969 20.089843-6.761719 23.632812-16.785156h18.332031c.019532 5.96875 3.21875 11.476562 8.394532 14.453125v49.519531l-13.933594 24.148438c-2.988281 5.199218-2.988281 11.589843 0 16.789062l14.53125 25.179688c.214844.324218.453125.632812.710938.921874-21.183594 9.4375-34.847657 30.441407-34.882813 53.636719 0 9.269531 7.515625 16.785157 16.789063 16.785157h83.933593c9.269531 0 16.785157-7.515626 16.785157-16.785157-.03125-23.398437-13.925782-44.554687-35.386719-53.878906.167969-.234375.371093-.429687.519531-.679687l14.53125-25.179688c2.988281-5.199219 2.988281-11.589844 0-16.789062l-13.238281-22.9375v-50.738282c5.179687-2.976562 8.375-8.484375 8.394531-14.453125v-16.789062c0-18.542969-15.03125-33.574219-33.574219-33.574219h-10.425781c-1.539062-4.730469-5.097656-8.539062-9.71875-10.390625l-29.535156-11.816406 6.855468-61.726563h12.886719c1.070313-.035156 2.136719-.171875 3.179688-.410156l47.917969 27.628906-9.871094 9.847656c-3.148438 3.148438-4.917969 7.417969-4.917969 11.871094s1.769531 8.726563 4.917969 11.875l11.867187 11.867188c3.140625 3.160156 7.414063 4.929687 11.871094 4.917968 4.457031.011719 8.738281-1.765624 11.875-4.933593l17.332031-17.394531c12.742188 4.644531 26.710938 4.644531 39.449219 0l17.332031 17.394531c3.140625 3.167969 7.417969 4.945312 11.878906 4.933593 4.453126.011719 8.726563-1.757812 11.867188-4.917968l11.867188-11.867188c3.152343-3.148437 4.925781-7.421875 4.925781-11.878906 0-4.453125-1.773438-8.726562-4.925781-11.875zm-55.296875-78.472656c-2.808594.023438-5.613281.246094-8.390625.671875v-17.457031h16.785156v17.457031c-2.777344-.421875-5.582031-.648437-8.394531-.671875zm-134.292969 41.96875h-33.574218l-53.980469-.050781-19.304688-32.230469v-.117188c0-.050781-.074219-.070312-.097656-.117187l-2.160156-3.410156v-39.617188h23.199219c-2.996094 5.195313-2.996094 11.59375 0 16.789063l19.550781 33.574218c3.019531 5.183594 8.5625 8.378907 14.5625 8.390626h36.425781c6-.011719 11.539062-3.207032 14.554688-8.390626l19.566406-33.574218c3-5.195313 3-11.59375 0-16.789063h23.222656v39.652344l-1.921875 3.1875c-.074219.117187-.191406.175781-.257813.304687-.066406.125-.050781.207032-.101562.308594l-19.304688 32.089844zm-176.261718-54.199219 50.359374 11.828125v6.445313c.003907 1.488281.207032 2.972656.605469 4.40625l-27.28125 15.746093c-5.914062-8.820312-14.09375-15.882812-23.683593-20.445312zm30.945312 53.617188 28.074219-16.207031 12.996093 21.582031-39.449218 22.761719c1.792968-9.367188 1.242187-19.03125-1.597656-28.136719zm111.742188-100.140625h18.273437l19.574219 33.523437-19.609375 33.574219h-36.503907l-19.546874-33.574219 19.597656-33.574219zm83.65625 83.933594 28.085937 16.207031c-2.839844 9.105469-3.386719 18.769531-1.59375 28.136719l-39.449219-22.761719zm35.34375 1.015624-27.269532-15.738281c.390625-1.4375.589844-2.921875.597656-4.414062v-6.445313l50.359376-11.828125v17.980469c-9.578126 4.566406-17.753907 11.628906-23.660157 20.445312zm81.847656-95.230468 5.757812 24.601562-46.390625 10.859375h-.738281c-2.695312.023438-5.347656.695313-7.722656 1.964844l-59.425782 13.933594v-22.578125l1.5625-3.652344zm-267.996094-23.34375v16.789062c0 4.632813 3.757812 8.390625 8.394531 8.390625s8.394531-3.757812 8.394531-8.390625v-16.789062h100.71875v16.789062c0 4.632813 3.757813 8.390625 8.394532 8.390625 4.636718 0 8.394531-3.757812 8.394531-8.390625v-16.789062h29.25l-17.96875 41.96875h-35.839844l-9.789062-16.789063c-3.019531-5.183593-8.5625-8.378906-14.5625-8.390625h-36.425781c-5.996094.011719-11.535157 3.207032-14.546876 8.390625l-9.804687 16.789063h-35.882813l-17.976562-41.96875zm-133.671875 23.410156 106.90625 25.054688 1.609375 3.777343v22.460938l-59.425781-13.933594c-2.382813-1.273437-5.042969-1.945313-7.746094-1.964844h-.710937l-46.292969-10.859375zm24.558594 52.183594h16.785156v17.457031c-2.777344-.421875-5.582031-.648437-8.394531-.671875-2.808594.023438-5.613282.246094-8.390625.671875zm-40.523438 136.351562-11.871093-11.871094 13.84375-13.796874c3.363281 4.472656 7.347656 8.449218 11.824218 11.808593zm6.949219-60.8125c0-23.175781 18.789062-41.964844 41.964844-41.964844 23.179687 0 41.96875 18.789063 41.96875 41.964844 0 23.179688-18.789063 41.96875-41.96875 41.96875-23.164063-.027344-41.9375-18.800781-41.964844-41.96875zm90.910156 60.8125-13.773437-13.859375c4.480469-3.359375 8.464843-7.335937 11.832031-11.808593l13.84375 13.796874zm18.203125 56.695313c0-9.269531 7.515625-16.785157 16.789063-16.785157h11.566406l5.21875 25.96875v7.554688h-33.574219zm25.179688 75.542969h-16.785157v-41.96875h16.785157zm-50.359375 125.902343c.027344-19.9375 14.046875-37.113281 33.574218-41.128906v41.128906zm83.933594 0h-33.574219v-41.128906c19.539062 4.007813 33.578125 21.183594 33.617187 41.128906zm-29.519532-67.148437h-24.195312l-12.113282-20.984375 12.113282-20.984375h24.230468l12.109376 20.984375zm79.863282-117.507813h-16.769532c-4.636718 0-8.394531-3.757812-8.394531-8.394531v-16.785156h33.574219v16.785156c0 4.636719-3.757813 8.394531-8.390625 8.394531zm83.9375 58.753907h-16.773438v-41.96875h16.789062zm-50.363282 125.902343c.027344-19.9375 14.046875-37.113281 33.574219-41.128906v41.128906zm83.933594 0h-33.554688v-41.128906c19.527344 4.015625 33.546876 21.191406 33.574219 41.128906zm-30.214844-67.148437h-24.171875l-12.113281-20.984375 12.113281-20.984375h24.230469l12.113281 20.984375zm5.035156-134.296875v16.789062h-33.554687v-7.554687l5.195313-26.019532h11.589843c9.273438 0 16.789063 7.515626 16.789063 16.785157zm-48.847656 0h-18.28125v-8.390625c0-9.273438-7.515625-16.789063-16.789062-16.789063h-33.574219c-9.269531 0-16.785156 7.515625-16.785156 16.789063v8.390625h-18.28125l-5.691407-28.378907 34.046876-13.585937h47.152343l34.027344 13.429687zm-34.210937-58.753907h-35.269531l-6.53125-58.753906h48.394531zm101.265625 2.058594-11.867188-11.871094 13.839844-13.796874c.386719.519531.761719 1.058593 1.164062 1.5625l.09375.125c3.105469 3.796874 6.671876 7.195312 10.609376 10.121093zm6.992187-60.8125c0-23.175781 18.789063-41.964844 41.964844-41.964844 23.179687 0 41.96875 18.789063 41.96875 41.964844 0 23.179688-18.789063 41.96875-41.96875 41.96875-23.164063-.027344-41.9375-18.800781-41.964844-41.96875zm90.910157 60.8125-13.777344-13.859375c4.484375-3.359375 8.46875-7.335937 11.835937-11.808593l13.839844 13.796874zm0 0"/></svg>