<svg height="512pt" viewBox="0 0 512.30074 512" width="512pt" xmlns="http://www.w3.org/2000/svg"><path d="m478 495.164062c0 4.714844-3.820312 8.535157-8.535156 8.535157h-85.332032c-4.710937 0-8.53125-3.820313-8.53125-8.535157-.042968-13.585937 5.367188-26.617187 15.015626-36.179687 5.355468-5.4375 11.898437-9.558594 19.117187-12.035156h34.132813c7.21875 2.476562 13.761718 6.597656 19.113281 12.035156 9.648437 9.5625 15.0625 22.59375 15.019531 36.179687zm0 0" fill="#37474f"/><path d="m136.667969 495.164062c0 4.714844-3.820313 8.535157-8.535157 8.535157h-85.332031c-4.714843 0-8.535156-3.820313-8.535156-8.535157-.039063-13.585937 5.371094-26.617187 15.019531-36.179687 5.351563-5.4375 11.898438-9.558594 19.113282-12.035156h34.136718c7.214844 2.476562 13.761719 6.597656 19.113282 12.035156 9.648437 9.5625 15.058593 22.59375 15.019531 36.179687zm0 0" fill="#37474f"/><path d="m96.046875 247.699219h-27.816406c-4.714844 0-8.535157-3.820313-8.535157-8.535157v-15.105468h-34.132812v32.171875c0 14.140625 11.460938 25.601562 25.601562 25.601562h43.007813zm0 0" fill="#9e9e9e"/><path d="m68.230469 205.03125c0 14.136719-11.460938 25.597656-25.601563 25.597656-2.914062.019532-5.808594-.5-8.53125-1.535156-10.226562-3.582031-17.070312-13.230469-17.070312-24.0625s6.84375-20.484375 17.070312-24.0625c2.722656-1.035156 5.617188-1.554688 8.53125-1.539062 6.789063 0 13.300782 2.699218 18.101563 7.5 4.800781 4.800781 7.5 11.3125 7.5 18.101562zm0 0" fill="#37474f"/><path d="m486.703125 224.058594v32.171875c0 14.140625-11.460937 25.601562-25.597656 25.601562h-43.007813l-1.878906-34.132812h27.820312c4.710938 0 8.53125-3.820313 8.53125-8.535157v-15.105468zm0 0" fill="#424242"/><path d="m469.636719 224.058594v32.171875c0 14.140625-11.460938 25.601562-25.597657 25.601562h-43.007812l-1.878906-34.132812h44.886718c4.710938 0 8.53125-3.820313 8.53125-8.535157v-15.105468zm0 0" fill="#9e9e9e"/><path d="m495.238281 205.03125c0 14.136719-11.460937 25.597656-25.601562 25.597656-2.914063.019532-5.808594-.5-8.53125-1.535156-10.226563-3.582031-17.070313-13.230469-17.070313-24.0625s6.84375-20.484375 17.070313-24.0625c2.722656-1.035156 5.617187-1.554688 8.53125-1.539062 6.789062 0 13.300781 2.699218 18.101562 7.5 4.800781 4.800781 7.5 11.3125 7.5 18.101562zm0 0" fill="#37474f"/><g fill="#607d8b"><path d="m460.933594 495.164062c0 4.714844-3.820313 8.535157-8.535156 8.535157h-68.265626c-4.710937 0-8.53125-3.820313-8.53125-8.535157-.042968-13.585937 5.367188-26.617187 15.015626-36.179687 5.355468-5.4375 11.898437-9.558594 19.117187-12.035156h17.066406c7.21875 2.476562 13.761719 6.597656 19.113281 12.035156 9.648438 9.5625 15.058594 22.59375 15.019532 36.179687zm0 0"/><path d="m119.601562 495.164062c0 4.714844-3.820312 8.535157-8.535156 8.535157h-68.265625c-4.714843 0-8.535156-3.820313-8.535156-8.535157-.039063-13.585937 5.371094-26.617187 15.019531-36.179687 5.351563-5.4375 11.898438-9.558594 19.113282-12.035156h17.066406c7.21875 2.476562 13.761718 6.597656 19.117187 12.035156 9.648438 9.5625 15.058594 22.59375 15.019531 36.179687zm0 0"/><path d="m51.164062 205.03125c0-13.289062-7.640624-24.0625-17.066406-24.0625-9.425781 0-17.066406 10.773438-17.066406 24.0625s7.640625 24.0625 17.066406 24.0625c9.425782 0 17.066406-10.773438 17.066406-24.0625zm0 0"/><path d="m478.171875 205.03125c0-13.289062-7.640625-24.0625-17.066406-24.0625s-17.066407 10.773438-17.066407 24.0625 7.640626 24.0625 17.066407 24.0625 17.066406-10.773438 17.066406-24.0625zm0 0"/></g><path d="m443.867188 426.726562v25.769532c-.007813 6.09375-3.261719 11.722656-8.542969 14.769531-5.277344 3.042969-11.78125 3.042969-17.058594-.003906-1.289063-.738281-2.46875-1.660157-3.496094-2.730469-3.242187-3.164062-5.058593-7.507812-5.035156-12.035156v-24.148438c-.003906-4.546875-1.816406-8.90625-5.035156-12.117187l-6.828125-6.828125 17.066406-13.820313 9.558594-7.765625 5.632812 5.628906c8.785156 8.851563 13.722656 20.8125 13.738282 33.28125zm0 0" fill="#9e9e9e"/><path d="m426.800781 426.726562v25.769532c-.007812 6.09375-3.257812 11.71875-8.535156 14.765625-1.289063-.738281-2.46875-1.660157-3.496094-2.730469-3.242187-3.164062-5.058593-7.507812-5.035156-12.035156v-24.148438c-.003906-4.546875-1.816406-8.90625-5.035156-12.117187l-6.828125-6.828125 17.066406-13.820313c7.65625 8.566407 11.878906 19.65625 11.863281 31.144531zm0 0" fill="#9e9e9e"/><path d="m402.480469 343.015625c14.441406 4.3125 24.335937 17.605469 24.320312 32.683594.027344 4.148437-.753906 8.265625-2.304687 12.117187-4.3125 11.484375-14.496094 19.742188-26.625 21.585938-1.722656.273437-3.460938.417968-5.203125.429687-11.59375.007813-22.394531-5.875-28.671875-15.617187zm0 0" fill="#424242"/><path d="m87.769531 387.816406-5.632812 5.628906c-8.785157 8.851563-13.722657 20.8125-13.738281 33.28125v25.769532c.03125 9.414062 7.652343 17.039062 17.066406 17.066406 9.398437-.066406 17-7.667969 17.070312-17.066406v-24.148438c0-4.546875 1.8125-8.90625 5.03125-12.117187l6.828125-6.828125zm0 0" fill="#9e9e9e"/><path d="m148.273438 394.214844c-6.28125 9.742187-17.082032 15.625-28.671876 15.617187-1.746093-.011719-3.484374-.15625-5.207031-.429687-12.128906-1.84375-22.3125-10.101563-26.625-21.585938-1.546875-3.851562-2.332031-7.96875-2.304687-12.117187-.011719-15.078125 9.878906-28.371094 24.320312-32.683594zm0 0" fill="#424242"/><path d="m324.398438 83.003906-.679688 2.390625-.085938.167969-11.777343 35.414062h-111.445313l-1.449218-4.265624-10.328126-31.148438-.082031-.167969-.683593-2.390625c0-9.386718 30.546874-17.066406 68.265624-17.066406 13.035157-.089844 26.054688.9375 38.914063 3.070312 17.746094 3.074219 29.351563 8.195313 29.351563 13.996094zm0 0" fill="#424242"/><path d="m307.332031 78.738281-.679687 2.386719-.085938.171875-11.777344 35.414063h-95.828124l-10.328126-31.148438-.082031-.167969-.683593-2.390625c0-9.386718 30.546874-17.066406 68.265624-17.066406 13.035157-.089844 26.054688.9375 38.914063 3.070312 7.765625 2.730469 12.285156 6.144532 12.285156 9.730469zm0 0" fill="#9e9e9e"/><path d="m273.199219 25.832031c0 9.425781-7.640625 17.066407-17.066407 17.066407-9.425781 0-17.066406-7.640626-17.066406-17.066407s7.640625-17.066406 17.066406-17.066406c9.425782 0 17.066407 7.640625 17.066407 17.066406zm0 0" fill="#f44335"/><path d="m418.265625 273.296875c0 89.542969-72.589844 162.132813-162.132813 162.132813-2.816406 0-5.546874-.085938-8.363281-.167969-.167969-.085938-.253906-.085938-.339843 0-86.035157-4.675781-153.402344-75.800781-153.402344-161.964844 0-86.160156 67.367187-157.285156 153.402344-161.960937.085937.085937.171874.085937.339843 0 2.816407-.085938 5.546875-.171876 8.363281-.171876 43 0 84.238282 17.082032 114.644532 47.488282s47.488281 71.644531 47.488281 114.644531zm0 0" fill="#37474f"/><path d="m401.199219 273.296875c-.027344 86.164063-67.394531 157.277344-153.429688 161.964844-.167969-.085938-.253906-.085938-.339843 0-86.035157-4.675781-153.402344-75.800781-153.402344-161.964844 0-86.160156 67.367187-157.285156 153.402344-161.960937.085937.085937.171874.085937.339843 0 86.035157 4.683593 153.402344 75.800781 153.429688 161.960937zm0 0" fill="#607d8b"/><path d="m341.464844 273.296875c0 47.128906-38.203125 85.332031-85.332032 85.332031-9.988281.03125-19.902343-1.730468-29.269531-5.203125h-.085937c-33.621094-12.320312-55.976563-44.320312-55.976563-80.128906 0-1.449219 0-2.902344.085938-4.265625 49.890625-39.714844 120.601562-39.714844 170.496093 0 .082032 1.363281.082032 2.816406.082032 4.265625zm0 0" fill="#9e9e9e"/><path d="m324.398438 269.03125c0 47.128906-38.203126 85.332031-85.332032 85.332031-4.085937.035157-8.167968-.28125-12.203125-.9375h-.085937c-33.621094-12.320312-55.976563-44.320312-55.976563-80.128906 0-1.449219 0-2.902344.085938-4.265625 30.871093-24.691406 70.949219-34.75 109.824219-27.5625 15.851562 4.996094 30.636718 12.894531 43.605468 23.296875.082032 1.363281.082032 2.816406.082032 4.265625zm0 0" fill="#cfd8dc"/><path d="m290.265625 251.964844c0 18.851562-15.28125 34.132812-34.132813 34.132812-2.882812.027344-5.753906-.347656-8.53125-1.109375-15.078124-3.867187-25.613281-17.460937-25.601562-33.023437-.039062-4.617188.921875-9.1875 2.816406-13.398438h62.71875c1.828125 4.230469 2.757813 8.792969 2.730469 13.398438zm0 0" fill="#fec108"/><path d="m273.199219 251.964844c.011719 15.5625-10.523438 29.15625-25.597657 33.023437-15.078124-3.867187-25.613281-17.460937-25.601562-33.023437-.039062-4.617188.921875-9.1875 2.816406-13.398438h45.652344c1.828125 4.230469 2.757812 8.792969 2.730469 13.398438zm0 0" fill="#fdd834"/><path d="m341.382812 269.03125c-49.851562-39.84375-120.648437-39.84375-170.496093 0 2.039062-45.597656 39.601562-81.519531 85.246093-81.519531 45.644532 0 83.207032 35.921875 85.25 81.519531zm0 0" fill="#37474f"/><path d="m204.933594 162.363281c0 4.714844-3.820313 8.535157-8.535156 8.535157-4.710938 0-8.53125-3.820313-8.53125-8.535157 0-4.710937 3.820312-8.53125 8.53125-8.53125 4.714843 0 8.535156 3.820313 8.535156 8.53125zm0 0"/><path d="m324.398438 162.363281c0 4.714844-3.820313 8.535157-8.53125 8.535157-4.714844 0-8.535157-3.820313-8.535157-8.535157 0-4.710937 3.820313-8.53125 8.535157-8.53125 4.710937 0 8.53125 3.820313 8.53125 8.53125zm0 0"/><path d="m264.667969 145.296875c0 4.714844-3.820313 8.535156-8.535157 8.535156-4.710937 0-8.53125-3.820312-8.53125-8.535156 0-4.710937 3.820313-8.53125 8.53125-8.53125 4.714844 0 8.535157 3.820313 8.535157 8.53125zm0 0"/><path d="m239.066406 315.964844c0 4.710937-3.820312 8.53125-8.53125 8.53125-4.714844 0-8.535156-3.820313-8.535156-8.53125 0-4.714844 3.820312-8.535156 8.535156-8.535156 4.710938 0 8.53125 3.820312 8.53125 8.535156zm0 0"/><path d="m509.804688 147.796875-17.066407-17.066406c-2.144531-2.21875-5.316406-3.105469-8.300781-2.328125-2.984375.78125-5.3125 3.113281-6.09375 6.097656-.78125 2.980469.109375 6.15625 2.328125 8.296875l12.117187 12.125-11.949218 18.007813c-7.203125-2.707032-15.144532-2.707032-22.347656 0l-11.945313-18.007813 12.125-12.125c3.234375-3.347656 3.1875-8.671875-.105469-11.960937-3.289062-3.292969-8.613281-3.339844-11.960937-.105469l-17.066407 17.066406c-2.871093 2.875-3.320312 7.378906-1.066406 10.761719l15.871094 23.84375c-11.601562 12.707031-11.707031 32.136718-.238281 44.96875v11.792968h-20.71875c-11.367188-55.117187-49.085938-101.132812-100.898438-123.101562l9.089844-27.308594c.125-.324218.246094-.648437.347656-.980468v-.101563c.621094-1.480469.960938-3.0625 1.007813-4.667969 0-.195312-.085938-.367187-.09375-.570312-.039063-.398438-.105469-.789063-.195313-1.179688-2.636719-19.25-47.046875-22.996094-67.976562-23.6875v-7.679687c11.753906-4.15625 18.804687-16.175781 16.695312-28.464844-2.105469-12.289063-12.761719-21.273437-25.230469-21.273437s-23.121093 8.984374-25.230468 21.273437 4.941406 24.308594 16.699218 28.464844v7.679687c-20.933593.675782-65.339843 4.4375-67.976562 23.6875-.09375.390625-.15625.78125-.199219 1.179688 0 .203125-.09375.375-.09375.570312.039063 1.621094.378907 3.222656 1.007813 4.71875.078125.265625.195312.570313.308594.855469l9.128906 27.449219c-51.820313 21.976562-89.539063 68.007812-100.898438 123.136718h-20.648437v-11.792968c11.46875-12.832032 11.363281-32.261719-.238281-44.96875l15.878906-23.84375c2.253906-3.382813 1.804687-7.886719-1.066406-10.761719l-17.066407-17.066406c-3.332031-3.332031-8.738281-3.335938-12.070312-.003907-3.335938 3.332032-3.335938 8.734376-.003907 12.070313l12.125 12.125-11.945312 18.007813c-3.597656-1.308594-7.390625-1.996094-11.214844-2.03125-3.8125.039062-7.589844.726562-11.167968 2.03125l-11.949219-18.007813 12.125-12.125c3.332031-3.335937 3.332031-8.738281-.003907-12.070313-3.332031-3.332031-8.738281-3.328124-12.070312.003907l-17.066406 17.066406c-2.871094 2.875-3.316406 7.378906-1.066406 10.761719l15.871093 23.84375c-11.601562 12.707031-11.707031 32.136718-.238281 44.96875v28.859375c0 18.851562 15.28125 34.132812 34.132812 34.132812h35.125c1.667969 16.640625 5.789063 32.941407 12.226563 48.375-13.28125 7.582031-21.519531 21.664063-21.613281 36.960938.03125 3.25.445312 6.488281 1.238281 9.640625l-2.09375 2.097656c-10.398437 10.429688-16.230469 24.5625-16.210937 39.289062v14.507813c-6.175782 2.886719-11.792969 6.847656-16.589844 11.691406-11.289063 11.144531-17.613282 26.371094-17.542969 42.238281 0 9.425782 7.640625 17.066407 17.066406 17.066407h85.332031c9.425782 0 17.066407-7.640625 17.066407-17.066407.078125-15.832031-6.21875-31.027343-17.46875-42.164062-4.816407-4.875-10.457031-8.855469-16.664063-11.765625v-12.886719c.003906-2.289062.925782-4.480468 2.558594-6.082031l4.054688-4.054687c.65625 0 1.28125.152343 1.945312.152343 11.125.007813 21.804688-4.351562 29.746094-12.140625 62.296875 50.324219 151.277344 50.324219 213.574218 0 7.933594 7.78125 18.605469 12.140625 29.722657 12.140625.664062 0 1.289062-.117187 1.945312-.152343l4.050781 4.054687c1.636719 1.601563 2.558594 3.792969 2.5625 6.082031v12.886719c-6.175781 2.886719-11.792968 6.847656-16.589843 11.691406-11.300781 11.140625-17.632813 26.367188-17.570313 42.238281 0 9.425782 7.640625 17.066407 17.066406 17.066407h85.332032c9.425781 0 17.070312-7.640625 17.070312-17.066407.074219-15.832031-6.21875-31.027343-17.46875-42.164062-4.820312-4.875-10.460937-8.855469-16.667968-11.765625v-14.507813c.023437-14.734374-5.808594-28.875-16.210938-39.3125l-2.082031-2.082031c.785156-3.152343 1.199219-6.386719 1.226562-9.632812-.097656-15.296875-8.335937-29.378907-21.621093-36.960938 6.441406-15.433593 10.566406-31.734375 12.234374-48.375h35.160157c18.851562 0 34.132812-15.28125 34.132812-34.132812v-28.859375c11.46875-12.832032 11.363281-32.261719-.238281-44.96875l15.871094-23.84375c2.25-3.382813 1.804687-7.886719-1.066406-10.761719zm-23.101563 57.234375c0 9.425781-7.640625 17.066406-17.066406 17.066406s-17.066407-7.640625-17.066407-17.066406 7.640626-17.066406 17.066407-17.066406 17.066406 7.640625 17.066406 17.066406zm-76.96875 68.265625c.027344 40.644531-16.101563 79.628906-44.835937 108.375-14-13.414063-25.773438-28.96875-34.882813-46.082031-.488281-.839844-1.117187-1.585938-1.859375-2.210938 14.121094-16.832031 21.855469-38.109375 21.84375-60.082031 0-1.203125-.136719-2.371094-.179688-3.558594.070313-.792969.03125-1.597656-.117187-2.378906-1.285156-20.5625-9.332031-40.121094-22.886719-55.628906 16.566406-11.265625 31.070313-25.304688 42.871094-41.5 25.742188 28.152343 40.027344 64.917969 40.046875 103.066406zm-230.402344.121094c10.417969-7.882813 21.96875-14.132813 34.261719-18.542969 0 .460938-.136719.851562-.136719 1.355469 0 23.566406 19.105469 42.667969 42.667969 42.667969s42.667969-19.101563 42.667969-42.667969c0-.460938-.121094-.894531-.136719-1.355469 12.296875 4.40625 23.855469 10.660156 34.277344 18.542969 0 42.414062-34.386719 76.800781-76.800782 76.800781-42.414062 0-76.800781-34.386719-76.800781-76.800781zm-23.617187-116.054688c57.53125-50.1875 143.289062-50.1875 200.820312 0-.128906.847657-.128906 1.710938 0 2.558594-11.195312 14.957031-24.792968 27.953125-40.242187 38.460937-.996094.054688-1.976563.289063-2.890625.691407-33.667969-26.191407-80.816406-26.191407-114.484375 0-.914063-.402344-1.894531-.636719-2.894531-.691407-15.449219-10.507812-29.046876-23.503906-40.242188-38.460937.113281-.859375.09375-1.734375-.058594-2.59375zm100.417968 39.132813c33.679688.039062 63.414063 21.976562 73.386719 54.144531-45.242187-26.835937-101.527343-26.835937-146.773437 0 9.972656-32.167969 39.710937-54.105469 73.386718-54.144531zm25.601563 59.734375c0 14.140625-11.460937 25.601562-25.601563 25.601562-14.136718 0-25.597656-11.460937-25.597656-25.601562.015625-2.089844.300782-4.167969.851563-6.1875 16.335937-3.253907 33.15625-3.253907 49.492187 0 .539063 2.019531.828125 4.097656.855469 6.1875zm-25.601563-238.933594c4.714844 0 8.535157 3.820313 8.535157 8.535156 0 4.710938-3.820313 8.53125-8.535157 8.53125-4.710937 0-8.53125-3.820312-8.53125-8.53125 0-4.714843 3.820313-8.535156 8.53125-8.535156zm-59.015624 66.730469c5.394531-3.710938 25.855468-9.554688 59.015624-9.554688 32.855469 0 53.417969 5.765625 59.042969 9.480469l-8.695312 26.265625c-32.78125-10.113281-67.847657-10.113281-100.625 0zm-54.535157 86.1875c11.796875 16.195312 26.300781 30.230468 42.871094 41.496094-13.554687 15.507812-21.601563 35.058593-22.886719 55.613281-.152344.785156-.191406 1.585937-.121094 2.378906-.042968 1.1875-.179687 2.355469-.179687 3.558594-.011719 21.976562 7.722656 43.257812 21.847656 60.09375-.746093.621093-1.375 1.371093-1.863281 2.210937-9.105469 17.109375-20.875 32.660156-34.867188 46.078125-57.886718-57.84375-60.003906-151-4.800781-211.414062zm-82.886719 34.816406c0 9.425781-7.640624 17.066406-17.066406 17.066406-9.425781 0-17.066406-7.640625-17.066406-17.066406s7.640625-17.066406 17.066406-17.066406c9.425782 0 17.066406 7.640625 17.066406 17.066406zm-8.53125 68.265625c-9.425781 0-17.066406-7.640625-17.066406-17.066406v-18.277344c2.777344.769531 5.648438 1.175781 8.53125 1.210937 2.886719-.035156 5.753906-.441406 8.535156-1.210937v1.210937c0 9.425782 7.640626 17.066407 17.066407 17.066407h18.089843c-.554687 5.617187-.855468 11.308593-.855468 17.066406zm54.730469 80.871094c7.746094 14.304687 17.484375 27.4375 28.929688 38.996093.398437.695313.851562 1.359376 1.355469 1.980469-5.703126 4.738281-13.136719 6.851563-20.480469 5.828125-9.140625-1.429687-16.789063-7.695312-19.992188-16.375-1.148437-2.824218-1.726562-5.851562-1.707031-8.898437.046875-8.734375 4.527344-16.84375 11.894531-21.53125zm-28.960937 72.558593c.035156-9.078124 3.300781-17.851562 9.207031-24.746093 3.554687 4.53125 7.992187 8.289062 13.046875 11.050781-3.347656 4.40625-5.171875 9.78125-5.1875 15.316406v24.148438c.003906 2.304687-.945312 4.507812-2.621094 6.085937-1.554687 1.585938-3.691406 2.46875-5.914062 2.449219-4.710938 0-8.53125-3.820312-8.53125-8.535156zm51.199218 68.4375h-85.332031c-.046875-11.347656 4.484375-22.234374 12.570313-30.199218 1.78125-1.777344 3.722656-3.386719 5.800781-4.804688 3.316406 10.640625 13.152344 17.898438 24.292969 17.9375 11.152344-.011718 21-7.273437 24.3125-17.921875 2.101562 1.4375 4.0625 3.066407 5.863281 4.867188 8.042969 7.953125 12.546875 18.808593 12.492187 30.121093zm31.976563-102.179687c14.363281-13.914063 26.550781-29.917969 36.144531-47.46875 34.703125 28.863281 85.054688 28.863281 119.757813 0 9.59375 17.550781 21.78125 33.554687 36.148437 47.46875-56.035156 45.21875-136.019531 45.21875-192.050781 0zm309.359375 102.179687h-85.335938c-.046874-11.347656 4.484376-22.234374 12.570313-30.199218 1.773437-1.773438 3.707031-3.375 5.777344-4.789063 1.164062 3.894531 3.285156 7.4375 6.167969 10.300781 4.757812 4.910157 11.316406 7.664063 18.152343 7.621094 11.140625-.035156 20.96875-7.289062 24.292969-17.921875 2.109375 1.441407 4.078125 3.078125 5.878906 4.882813 8.042969 7.949218 12.542969 18.800781 12.496094 30.105468zm-34.136719-42.667968c0 4.714844-3.820312 8.535156-8.53125 8.535156-2.304687.003906-4.503906-.945312-6.085937-2.621094-1.585938-1.554687-2.46875-3.691406-2.449219-5.914062v-24.148438c-.015625-5.527344-1.839844-10.898437-5.1875-15.300781 5.066406-2.75 9.515625-6.507813 13.074219-11.042969 5.882812 6.898438 9.132812 15.65625 9.179687 24.722656zm-17.066406-76.796875c.023437 3.121093-.570313 6.21875-1.757813 9.113281-3.230468 8.585938-10.839843 14.761719-19.90625 16.160156-7.34375 1.035156-14.78125-1.082031-20.480468-5.828125.503906-.621093.957031-1.285156 1.355468-1.980469 11.445313-11.558593 21.183594-24.691406 28.929688-38.996093 7.351562 4.695312 11.820312 12.804687 11.859375 21.53125zm42.839844-102.402344h-34.304688c0-5.757813-.308593-11.449219-.855469-17.066406h18.09375c9.425782 0 17.066407-7.640625 17.066407-17.066407v-1.210937c5.574219 1.613281 11.492187 1.613281 17.066406 0v18.277344c0 9.425781-7.640625 17.066406-17.066406 17.066406zm0 0"/><path d="m303.519531 376.59375c-29.847656 14.839844-64.925781 14.839844-94.773437 0-4.214844-2.105469-9.34375-.394531-11.449219 3.824219-2.109375 4.214843-.394531 9.34375 3.820313 11.449219 34.65625 17.214843 75.375 17.214843 110.03125 0 2.726562-1.363282 4.523437-4.078126 4.707031-7.121094.183593-3.042969-1.269531-5.957032-3.816407-7.636719-2.542968-1.683594-5.792968-1.878906-8.519531-.515625zm0 0"/><path d="m122.40625 280.976562 6.625 13.246094c2.105469 4.214844 7.230469 5.929688 11.449219 3.820313 4.21875-2.105469 5.929687-7.234375 3.824219-11.449219l-6.632813-13.296875 6.632813-13.25c2.105468-4.21875.394531-9.347656-3.824219-11.453125s-9.34375-.394531-11.449219 3.824219l-6.625 13.242187c-2.402344 4.824219-2.402344 10.496094 0 15.316406zm0 0"/><path d="m368.976562 260.046875 6.625 13.25-6.625 13.253906c-1.390624 2.730469-1.210937 5.996094.472657 8.558594 1.683593 2.558594 4.609375 4.023437 7.667969 3.832031 3.058593-.195312 5.777343-2.011718 7.128906-4.761718l6.621094-13.246094c2.386718-4.808594 2.386718-10.460938 0-15.273438l-6.621094-13.242187c-1.351563-2.753907-4.070313-4.570313-7.128906-4.761719-3.058594-.195312-5.984376 1.269531-7.667969 3.832031-1.683594 2.558594-1.863281 5.828125-.472657 8.558594zm0 0"/></svg>