<svg height="512pt" viewBox="-26 0 512 512" width="512pt" xmlns="http://www.w3.org/2000/svg"><path d="m79.210938 298.667969c-1.613282 16.53125.636718 33.210937 6.570312 48.722656-34.21875-11.605469-59.476562-42.578125-70.570312-54.527344v-.085937c9.726562-29.867188 42.238281-66.558594 62.804687-93.351563h.085937c8.242188 7.441407 18.585938 12.152344 29.609376 13.480469-18.785157 24.613281-28.816407 54.796875-28.5 85.761719zm0 0" fill="#cfd8dc"/><path d="m441.960938 292.777344v.085937c-11.089844 11.949219-36.351563 42.921875-70.570313 54.527344l-1.109375 2.21875c.628906-1.183594 1.171875-2.40625 1.621094-3.667969 5.269531-15.167968 7.304687-31.273437 5.976562-47.273437 0-32-11.949218-57.515625-27.734375-84.226563l-.769531-1.277344 1.878906-.257812c1.28125-.171875 2.558594-.339844 3.839844-.597656.085938.085937.085938 0 .085938 0 4.882812-1 9.617187-2.636719 14.078124-4.863282 3.804688-1.917968 7.359376-4.296874 10.582032-7.082031 20.652344 26.707031 52.480468 62.890625 62.121094 92.414063zm0 0" fill="#9e9e9e"/><path d="m429.164062 297.046875v.082031c-9.558593 10.328125-29.78125 34.902344-57.261718 48.8125 5.269531-15.167968 7.304687-31.273437 5.976562-47.273437 0-32-11.949218-57.515625-27.734375-84.226563 1.699219-.585937 3.355469-1.296875 4.949219-2.132812.085938.085937.085938 0 .085938 0 4.289062-2 8.277343-4.585938 11.859374-7.679688.683594.9375 1.453126 1.878906 2.21875 2.816406 20.566407 26.367188 50.601563 61.097657 59.90625 89.601563zm0 0" fill="#cfd8dc"/><path d="m228.542969 175.957031-120.832031 36.949219c-11.023438-1.328125-21.367188-6.039062-29.609376-13.480469h-.085937c-5.078125-4.53125-9.222656-10.011719-12.203125-16.128906-2.589844-5.074219-3.9375-10.6875-3.925781-16.386719.015625-19.457031 15.21875-35.519531 34.648437-36.605468l57.597656-3.242188 34.644532 22.78125zm0 0" fill="#9e9e9e"/><path d="m397.078125 166.910156c.011719 5.699219-1.335937 11.3125-3.925781 16.386719-3.210938 6.546875-7.742188 12.359375-13.3125 17.066406-8.074219 6.921875-18.023438 11.285157-28.585938 12.542969l-5.632812.855469-8.875-5.546875-73.128906-45.144532-6.230469-3.582031 14.078125-9.644531 30.210937-20.648438 3.15625-2.132812 42.324219 2.386719 13.398438.769531 1.878906.085938c.597656.015624 1.199218.070312 1.789062.171874 18.667969 1.933594 32.855469 17.667969 32.855469 36.433594zm0 0" fill="#424242"/><path d="m380.011719 162.644531c.011719 5.695313-1.335938 11.3125-3.925781 16.386719-3.210938 6.546875-7.742188 12.359375-13.3125 17.066406-7.410157 6.332032-16.410157 10.519532-26.027344 12.117188l-73.128906-45.144532-6.230469-3.582031 14.078125-9.644531 30.210937-20.648438 3.15625-2.132812 42.324219 2.386719 13.398438.769531c11.960937 6.398438 19.4375 18.859375 19.457031 32.425781zm0 0" fill="#9e9e9e"/><path d="m167.957031 411.050781-33.449219 61.183594-19.542968-3.328125-22.527344-3.753906 6.058594-83.371094.9375-12.457031zm0 0" fill="#9e9e9e"/><path d="m364.652344 465.152344-42.070313 7.082031-1.453125-2.644531-32-58.539063 52.226563-31.742187 16.296875-9.984375zm0 0" fill="#9e9e9e"/><g fill="#cfd8dc"><path d="m146.625 411.050781-31.660156 57.855469-22.527344-3.753906 6.058594-83.371094zm0 0"/><path d="m347.582031 465.152344-26.453125 4.4375-32-58.539063 52.226563-31.742187zm0 0"/><path d="m382.144531 298.667969c-.058593 17.65625-4.113281 35.074219-11.863281 50.941406l-1.449219 2.816406c-3.183593 5.972657-6.925781 11.628907-11.179687 16.898438-17.65625 21.035156-41.730469 35.691406-68.523438 41.726562-19.804687 4.964844-40.167968 7.34375-60.585937 7.082031-3.667969 0-7.253907-.085937-10.664063-.171874-16.847656-.433594-33.589844-2.75-49.921875-6.910157-26.792969-6.035156-50.867187-20.691406-68.523437-41.726562-4.253906-5.246094-7.96875-10.910157-11.09375-16.898438l-2.558594-5.035156c-7.089844-15.265625-10.789062-31.890625-10.835938-48.722656 1.226563-31.40625 12.738282-61.539063 32.765626-85.761719 18.871093-23.730469 40.726562-44.929688 65.023437-63.0625h111.617187c23.574219 17.671875 44.871094 38.195312 63.402344 61.101562 20.949219 24.574219 33.054688 55.457032 34.390625 87.722657zm0 0"/></g><path d="m360.8125 298.667969c-.058594 17.65625-4.113281 35.074219-11.863281 50.941406l-1.449219 2.816406c-3.183594 5.972657-6.929688 11.628907-11.179688 16.898438-17.65625 21.035156-41.730468 35.691406-68.523437 41.726562-16.328125 4.160157-33.074219 6.476563-49.917969 6.910157-16.847656-.433594-33.589844-2.75-49.921875-6.910157-26.792969-6.035156-50.867187-20.691406-68.523437-41.726562-4.253906-5.246094-7.96875-10.910157-11.09375-16.898438l-2.558594-5.035156c-7.089844-15.265625-10.789062-31.890625-10.835938-48.722656 1.226563-31.40625 12.738282-61.539063 32.765626-85.761719 18.871093-23.730469 40.726562-44.929688 65.023437-63.0625h90.285156c23.574219 17.671875 44.871094 38.195312 63.402344 61.101562 20.945313 24.574219 33.054687 55.457032 34.390625 87.722657zm0 0" fill="#f5f5f5"/><path d="m143.210938 494.933594c0 4.710937-3.820313 8.53125-8.535157 8.53125h-51.199219c-4.710937 0-8.53125-3.820313-8.53125-8.53125.015626-9.050782 3.601563-17.730469 9.984376-24.148438 4.335937-4.273437 9.722656-7.335937 15.613281-8.875 2.78125-.761718 5.652343-1.136718 8.535156-1.109375 9.054687-.011719 17.742187 3.582031 24.148437 9.984375 6.402344 6.402344 9.996094 15.09375 9.984376 24.148438zm0 0" fill="#424242"/><path d="m126.144531 494.933594c0 4.710937-3.820312 8.53125-8.535156 8.53125h-34.132813c-4.710937 0-8.53125-3.820313-8.53125-8.53125.015626-9.050782 3.601563-17.730469 9.984376-24.148438 4.335937-4.273437 9.722656-7.335937 15.613281-8.875 5.894531 1.539063 11.277343 4.601563 15.617187 8.875 6.378906 6.417969 9.96875 15.097656 9.984375 24.148438zm0 0" fill="#9e9e9e"/><path d="m382.144531 494.933594c0 4.710937-3.820312 8.53125-8.535156 8.53125h-51.199219c-4.710937 0-8.53125-3.820313-8.53125-8.53125.015625-9.050782 3.601563-17.730469 9.980469-24.148438 4.339844-4.273437 9.726563-7.335937 15.617187-8.875 2.78125-.761718 5.652344-1.136718 8.535157-1.109375 9.054687-.011719 17.742187 3.582031 24.148437 9.984375 6.402344 6.402344 9.996094 15.09375 9.984375 24.148438zm0 0" fill="#424242"/><path d="m365.078125 494.933594c0 4.710937-3.820313 8.53125-8.535156 8.53125h-34.132813c-4.710937 0-8.53125-3.820313-8.53125-8.53125.015625-9.050782 3.601563-17.730469 9.980469-24.148438 4.339844-4.273437 9.726563-7.335937 15.617187-8.875 5.894532 1.539063 11.277344 4.601563 15.617188 8.875 6.378906 6.417969 9.96875 15.097656 9.984375 24.148438zm0 0" fill="#9e9e9e"/><path d="m88.339844 352.425781c-34.300782 44.460938-86.613282 8.875-79.015625-36.691406 1.371093-7.765625 3.339843-15.410156 5.886719-22.871094 11.09375 11.949219 36.351562 42.921875 70.570312 54.527344.769531 1.707031 1.621094 3.328125 2.558594 5.035156zm0 0" fill="#9e9e9e"/><path d="m386.75 368.128906c-.082031 0-.082031 0-.167969-.085937-6.941406-3.914063-12.984375-9.230469-17.75-15.617188l1.449219-2.816406 1.109375-2.21875c27.050781-9.214844 48.554687-30.460937 61.78125-44.882813 3.585937-3.839843 6.488281-7.167968 8.789063-9.644531 2.546874 7.460938 4.515624 15.105469 5.890624 22.871094 6.3125 38.144531-29.269531 69.289063-61.101562 52.394531zm0 0" fill="#424242"/><path d="m386.75 368.128906c-.082031 0-.082031 0-.167969-.085937-6.941406-3.914063-12.984375-9.230469-17.75-15.617188l1.449219-2.816406 1.109375-2.21875c27.050781-9.214844 48.554687-30.460937 61.78125-44.882813.769531 3.15625 1.453125 6.144532 1.878906 8.957032 5.546875 33.027344-20.480469 60.84375-48.300781 56.664062zm0 0" fill="#9e9e9e"/><path d="m313.878906 85.332031c-.042968 47.113281-38.222656 85.292969-85.335937 85.335938-3.480469-.011719-6.957031-.242188-10.410157-.683594-16.792968-2.0625-32.597656-9.074219-45.398437-20.140625-7.511719-6.417969-13.8125-14.136719-18.601563-22.78125-7.199218-12.726562-10.964843-27.109375-10.921874-41.730469 0-43.519531 32.597656-72.105469 74.667968-76.285156 3.496094-.34375 7.082032-.511719 10.664063-.511719 47.105469 0 85.335937 29.695313 85.335937 76.796875zm0 0" fill="#9e9e9e"/><path d="m292.542969 85.332031c-.054688 42.890625-31.882813 79.097657-74.410157 84.652344-16.792968-2.0625-32.597656-9.074219-45.398437-20.140625-7.511719-6.417969-13.8125-14.136719-18.601563-22.78125-7.199218-12.726562-10.964843-27.109375-10.921874-41.730469 0-43.519531 32.597656-72.105469 74.667968-76.285156 42.066406 4.179687 74.664063 32.765625 74.664063 76.285156zm0 0" fill="#cfd8dc"/><path d="m279.742188 89.601562c.019531 5.660157-2.222657 11.097657-6.226563 15.101563-4.003906 4.007813-9.441406 6.25-15.105469 6.230469h-59.734375c-11.78125 0-21.332031-9.550782-21.332031-21.332032 0-11.785156 9.550781-21.335937 21.332031-21.335937h59.734375c11.78125 0 21.332032 9.550781 21.332032 21.335937zm0 0" fill="#37474f"/><path d="m258.410156 89.601562c.019532 5.660157-2.222656 11.097657-6.226562 15.101563-4.007813 4.007813-9.441406 6.25-15.105469 6.230469h-38.402344c-11.78125 0-21.332031-9.550782-21.332031-21.332032 0-11.785156 9.550781-21.335937 21.332031-21.335937h38.402344c11.78125 0 21.332031 9.550781 21.332031 21.335937zm0 0" fill="#607d8b"/><path d="m198.675781 119.464844h59.734375c16.496094 0 29.867188-13.371094 29.867188-29.863282 0-16.496093-13.371094-29.867187-29.867188-29.867187h-59.734375c-16.492187 0-29.863281 13.371094-29.863281 29.867187 0 16.492188 13.371094 29.863282 29.863281 29.863282zm0-42.664063h59.734375c7.070313 0 12.800782 5.730469 12.800782 12.800781 0 7.066407-5.730469 12.796876-12.800782 12.796876h-59.734375c-7.066406 0-12.796875-5.730469-12.796875-12.796876 0-7.070312 5.730469-12.800781 12.796875-12.800781zm0 0"/><path d="m7.09375 290.132812c-.058594.195313-.117188.410157-.167969.613282-2.585937 7.699218-4.585937 15.585937-5.972656 23.585937-4.722656 25.863281 8.460937 51.6875 32.175781 63.027344 5.925782 2.570313 12.316406 3.894531 18.773438 3.894531 13.085937-.226562 25.582031-5.46875 34.910156-14.644531 1.214844 1.824219 2.496094 3.644531 3.851562 5.460937l-6.453124 88.328126c-11.148438 7.972656-17.777344 20.828124-17.800782 34.535156 0 9.425781 7.640625 17.066406 17.066406 17.066406h51.199219c9.425781 0 17.066407-7.640625 17.066407-17.066406 0-8.351563-2.46875-16.511719-7.089844-23.46875l27.632812-50.550782c18.484375 3.984376 37.351563 5.914063 56.257813 5.753907 18.910156.160156 37.777343-1.769531 56.261719-5.753907l27.628906 50.550782c-4.621094 6.957031-7.085938 15.117187-7.089844 23.46875 0 9.425781 7.640625 17.066406 17.066406 17.066406h51.199219c9.425781 0 17.066406-7.640625 17.066406-17.066406-.027343-13.710938-6.660156-26.566406-17.816406-34.535156l-6.449219-88.34375c1.628906-2.175782 3.171875-4.363282 4.589844-6.5625 9.457031 9.828124 22.433594 15.492187 36.070312 15.742187 6.457032 0 12.847657-1.324219 18.773438-3.890625 23.734375-11.316406 36.953125-37.128906 32.253906-63-1.386718-8-3.382812-15.882812-5.972656-23.578125-.066406-.214844-.148438-.425781-.238281-.632813-.058594-.203124-.171875-.410156-.230469-.613281l-.042969-.09375c-8.53125-25.488281-31.179687-53.964843-51.199219-79.113281-2.816406-3.542969-5.503906-6.9375-8.117187-10.238281 3.371094-3.925781 6.238281-8.257813 8.535156-12.894531 3.199219-6.269532 4.859375-13.210938 4.847657-20.25-.023438-23.34375-17.847657-42.820313-41.097657-44.902344 1.390625-21.691406 6.828125-48.070313 23.59375-64.804688 2.21875-2.140625 3.109375-5.3125 2.328125-8.296875s-3.109375-5.3125-6.09375-6.09375-6.15625.109375-8.300781 2.328125c-20.382813 20.382813-26.9375 50.949219-28.542969 75.75l-31.574218-1.777344c4.210937-10.773437 6.386718-22.234374 6.417968-33.800781 0-49.441406-39.476562-85.332031-93.867187-85.332031s-93.867188 35.890625-93.867188 85.332031c-.015625 11.609375 2.148438 23.113281 6.382813 33.921875l-44.996094 2.558594c-23.933594 1.359375-42.652344 21.160156-42.664062 45.132812-.015626 7.003907 1.628906 13.914063 4.804687 20.15625 2.292969 4.664063 5.160156 9.023438 8.53125 12.980469-2.609375 3.328125-5.308594 6.730469-8.132813 10.238281-20.238281 25.386719-43.144531 54.144532-51.507812 79.8125zm86.394531-71.902343c-16.871093 23.5-26.300781 51.519531-27.078125 80.4375.113282 10.957031 1.632813 21.855469 4.523438 32.425781-17.105469-10.84375-32.464844-24.226562-45.542969-39.6875l-.332031-.417969c8.6875-21.964843 29.660156-48.453125 46.863281-70.050781 2.636719-3.3125 5.171875-6.511719 7.628906-9.636719 4.335938 2.886719 9.019531 5.214844 13.9375 6.929688zm79.195313-57.460938c5.671875 4.210938 11.820312 7.746094 18.3125 10.527344 9.199218 4.0625 19 6.585937 29.015625 7.46875v230.65625c-129.707031-3.765625-136.535157-92.621094-136.535157-110.753906 0-26.242188 10.445313-53.367188 31.027344-80.597657 16.933594-21.449218 36.476563-40.699218 58.179688-57.300781zm111.652344 0c59.1875 46.984375 89.273437 93.363281 89.273437 137.898438 0 18.132812-6.824219 106.988281-136.53125 110.753906v-230.613281c17.113281-1.566406 33.464844-7.820313 47.257813-18.074219zm-244.378907 200.941407c-16.628906-8.144532-25.726562-26.4375-22.1875-44.613282.359375-2.183594.957031-4.675781 1.535157-7.140625 15.894531 18.164063 35.433593 32.78125 57.347656 42.894531-8.980469 10.660157-23.84375 14.25-36.695313 8.859376zm43.519531 133.222656c0-14.140625 11.460938-25.601563 25.601563-25.601563 14.136719 0 25.597656 11.460938 25.597656 25.601563zm48.511719-35.839844c-8.847656-5.894531-19.660156-8.074219-30.105469-6.066406l4.660157-63.746094c14.210937 12.320312 30.828125 21.546875 48.792969 27.101562zm190.421875 35.839844c0-14.140625 11.460938-25.601563 25.601563-25.601563 14.136719 0 25.597656 11.460938 25.597656 25.601563zm25.601563-42.667969c-8.136719.027344-16.089844 2.398437-22.914063 6.828125l-23.347656-42.710938c17.980469-5.558593 34.605469-14.800781 48.820312-27.136718l4.660157 63.746094c-2.382813-.449219-4.796875-.691407-7.21875-.726563zm70.996093-90.546875c-12.839843 5.339844-27.65625 1.753906-36.632812-8.867188 21.910156-10.113281 41.445312-24.730468 57.335938-42.894531.578124 2.472657 1.183593 4.972657 1.542968 7.175781 3.5 18.179688-5.613281 36.453126-22.246094 44.585938zm14.925782-70.730469-.34375.375c-13.59375 16.144531-29.734375 29.964844-47.785156 40.90625 3.109374-10.933593 4.75-22.234375 4.871093-33.601562-.609375-28.738281-9.902343-56.613281-26.65625-79.96875 5.457031-1.730469 10.644531-4.214844 15.417969-7.371094 2.457031 3.125 4.984375 6.316406 7.613281 9.617187 17.210938 21.597657 38.195313 48.101563 46.882813 70.042969zm-78.722656-152.550781c.105468 0 .179687.058594.285156.058594h.195312.152344l6.144531.351562c14.90625.835938 26.570313 13.160156 26.582031 28.089844 0 4.390625-1.042968 8.714844-3.046874 12.621094-2.578126 5.214844-6.136719 9.882812-10.480469 13.746094-.066407.0625-.136719.09375-.195313.15625-6.140625 5.382812-13.628906 9-21.664062 10.460937-16.5625-20.226563-35.308594-38.5625-55.902344-54.664063 3.832031-4.171874 7.277344-8.683593 10.296875-13.476562zm-126.667969-121.371094c45.226562 0 76.800781 28.074219 76.800781 68.265625.011719 22.308594-9.699219 43.511719-26.589844 58.078125-22.460937 19.125-53.816406 23.867188-80.929687 12.246094-15.34375-6.671875-28.078125-18.183594-36.257813-32.777344-6.503906-11.441406-9.890625-24.386718-9.824218-37.546875 0-40.191406 31.574218-68.265625 76.800781-68.265625zm-131.53125 121.753906 52.523437-2.960937c3.003906 4.757813 6.445313 9.222656 10.28125 13.335937-20.507812 16.007813-39.164062 34.257813-55.613281 54.410157-13.402344-2.957031-24.730469-11.851563-30.777344-24.175781-1.984375-3.875-3.015625-8.164063-3.003906-12.519532.011719-14.929687 11.679687-27.257812 26.589844-28.089844zm0 0"/><path d="m262.675781 264.535156h25.601563c4.710937 0 8.535156-3.824218 8.535156-8.535156s-3.824219-8.535156-8.535156-8.535156h-25.601563c-4.710937 0-8.53125 3.824218-8.53125 8.535156s3.820313 8.535156 8.53125 8.535156zm0 0"/><path d="m322.410156 264.535156h8.535156c4.710938 0 8.53125-3.824218 8.53125-8.535156s-3.820312-8.535156-8.53125-8.535156h-8.535156c-4.710937 0-8.53125 3.824218-8.53125 8.535156s3.820313 8.535156 8.53125 8.535156zm0 0"/><path d="m305.34375 298.667969h25.601562c4.710938 0 8.53125-3.820313 8.53125-8.535157 0-4.710937-3.820312-8.53125-8.53125-8.53125h-25.601562c-4.710938 0-8.53125 3.820313-8.53125 8.53125 0 4.714844 3.820312 8.535157 8.53125 8.535157zm0 0"/><path d="m271.210938 281.601562h-8.535157c-4.710937 0-8.53125 3.820313-8.53125 8.53125 0 4.714844 3.820313 8.535157 8.53125 8.535157h8.535157c4.710937 0 8.53125-3.820313 8.53125-8.535157 0-4.710937-3.820313-8.53125-8.53125-8.53125zm0 0"/></svg>