<svg height="512pt" viewBox="-102 0 512 512" width="512pt" xmlns="http://www.w3.org/2000/svg"><path d="m119.625 108.800781h68.265625v78.933594h-68.265625zm0 0" fill="#d84315"/><path d="m119.625 108.800781h46.933594v78.933594h-46.933594zm0 0" fill="#ff5722"/><path d="m280.90625 234.667969c0 16.492187-13.375 29.867187-29.867188 29.867187-2.867187.011719-5.714843-.421875-8.449218-1.28125-3.523438-1.023437-6.824219-2.703125-9.726563-4.949218h-158.210937c-5.210938 4.011718-11.597656 6.203124-18.175782 6.230468-2.917968.011719-5.824218-.421875-8.617187-1.28125-13.824219-4.25-22.617187-17.789062-20.875-32.148437 1.742187-14.355469 13.519531-25.402344 27.957031-26.21875.507813-.074219 1.023438-.101563 1.535156-.085938.289063-.015625.578126.015625.855469.085938h192.851563c.28125-.070313.566406-.101563.855468-.085938 16.492188 0 29.867188 13.371094 29.867188 29.867188zm0 0" fill="#4e342e"/><path d="m263.839844 234.667969c-.003906 13.171875-8.636719 24.785156-21.25 28.585937-3.523438-1.023437-6.824219-2.703125-9.726563-4.949218h-175.277343c-2.902344 2.246093-6.199219 3.925781-9.726563 4.949218-13.824219-4.25-22.617187-17.789062-20.875-32.148437 1.742187-14.355469 13.519531-25.402344 27.957031-26.21875h178.175782c.28125-.070313.566406-.101563.855468-.085938.511719-.015625 1.027344.011719 1.535156.085938 15.871094.789062 28.332032 13.890625 28.332032 29.78125zm0 0" fill="#795548"/><path d="m128.160156 345.601562h51.199219v113.066407h-51.199219zm0 0" fill="#d84315"/><path d="m128.160156 345.601562h29.863282v113.066407h-29.863282zm0 0" fill="#ff5722"/><path d="m204.957031 494.933594c0 4.710937-3.820312 8.53125-8.53125 8.53125h-85.335937c-4.710938 0-8.53125-3.820313-8.53125-8.53125-.042969-13.585938 5.367187-26.617188 15.019531-36.179688 6.941406-7.058594 15.820313-11.898437 25.511719-13.910156 3.503906-.761719 7.082031-1.136719 10.667968-1.109375 28.261719.042969 51.15625 22.941406 51.199219 51.199219zm0 0" fill="#4e342e"/><path d="m183.625 494.933594c0 4.710937-3.820312 8.53125-8.535156 8.53125h-64c-4.710938 0-8.53125-3.820313-8.53125-8.53125-.042969-13.585938 5.367187-26.617188 15.019531-36.179688 6.941406-7.058594 15.820313-11.898437 25.511719-13.910156 9.695312 2.011719 18.574218 6.851562 25.515625 13.910156 9.648437 9.5625 15.058593 22.59375 15.019531 36.179688zm0 0" fill="#795548"/><path d="m248.050781 216.492188-43.433593 119.464843c-4.925782 13.472657-17.742188 22.433594-32.085938 22.441407h-37.546875c-14.34375-.007813-27.15625-8.96875-32.085937-22.441407l-43.433594-119.464843c-3.816406-10.46875-2.28125-22.140626 4.109375-31.269532s16.832031-14.5625 27.976562-14.554687h124.414063c11.144531-.007813 21.585937 5.425781 27.980468 14.554687 6.390626 9.128906 7.921876 20.800782 4.105469 31.269532zm0 0" fill="#f57c00"/><path d="m222.453125 216.492188-43.4375 119.464843c-4.925781 13.472657-17.738281 22.433594-32.085937 22.441407h-11.945313c-14.34375-.007813-27.15625-8.96875-32.085937-22.441407l-43.433594-119.464843c-3.816406-10.46875-2.28125-22.140626 4.109375-31.269532s16.832031-14.5625 27.976562-14.554687h98.816407c11.140624-.007813 21.585937 5.425781 27.976562 14.554687s7.925781 20.800782 4.109375 31.269532zm0 0" fill="#ff9801"/><path d="m230.558594 72.535156c0 35.328125-34.390625 64-76.800782 64-3.566406.027344-7.132812-.199218-10.667968-.683594-37.375-4.265624-66.132813-30.976562-66.132813-63.316406 0-32.769531 22.015625-59.820312 66.132813-63.488281 3.414062-.34375 7-.511719 10.667968-.511719 51.199219 0 76.800782 28.671875 76.800782 64zm0 0" fill="#f57c00"/><path d="m209.226562 72.535156c0 32.339844-28.757812 59.050782-66.136718 63.316406-37.375-4.265624-66.132813-30.976562-66.132813-63.316406 0-32.769531 22.015625-59.820312 66.132813-63.488281 44.117187 3.667969 66.136718 30.71875 66.136718 63.488281zm0 0" fill="#ff9801"/><path d="m132.425781 213.332031h42.664063c11.785156 0 21.335937 9.550781 21.335937 21.335938 0 11.78125-9.550781 21.332031-21.335937 21.332031h-42.664063c-11.78125 0-21.335937-9.550781-21.335937-21.332031 0-11.785157 9.554687-21.335938 21.335937-21.335938zm0 0" fill="#795548"/><path d="m136.691406 68.265625c0 4.714844-3.820312 8.535156-8.53125 8.535156-4.714844 0-8.535156-3.820312-8.535156-8.535156 0-4.710937 3.820312-8.53125 8.535156-8.53125 4.710938 0 8.53125 3.820313 8.53125 8.53125zm0 0"/><path d="m187.890625 68.265625c0 4.714844-3.820313 8.535156-8.53125 8.535156-4.714844 0-8.535156-3.820312-8.535156-8.535156 0-4.710937 3.820312-8.53125 8.535156-8.53125 4.710937 0 8.53125 3.820313 8.53125 8.53125zm0 0"/><path d="m283.617188 254.753906c6.746093-10.765625 7.6875-24.183594 2.511718-35.78125-5.179687-11.601562-15.796875-19.859375-28.316406-22.023437-3.679688-20.207031-21.3125-34.875-41.855469-34.816407h-19.53125v-26.878906c25.0625-11.007812 41.632813-35.367187 42.664063-62.71875 0-44.058594-33.492188-72.535156-85.332032-72.535156-51.839843 0-85.332031 28.476562-85.332031 72.535156 1.03125 27.351563 17.601563 51.710938 42.664063 62.71875v26.878906h-19.53125c-20.523438-.039062-38.132813 14.625-41.8125 34.816407-12.519532 2.164062-23.136719 10.421875-28.3125 22.023437-5.179688 11.597656-4.238282 25.015625 2.507812 35.78125-45.6875 45.226563-14.328125 99.925782-1.050781 118.722656l-3.695313 6.503907c-1.503906 2.652343-1.480468 5.902343.058594 8.535156l14.902344 25.402344c1.53125 2.613281 4.335938 4.214843 7.363281 4.214843h.066407l25.839843-.195312c4.714844-.015625 8.519531-3.851562 8.503907-8.5625-.015626-4.714844-3.851563-8.519531-8.5625-8.503906h-.070313l-20.957031.195312-9.914063-16.929687 9.675781-17.066407 19.59375-.136718 3.898438 6.648437c2.386719 4.066407 7.613281 5.429688 11.683594 3.046875 4.066406-2.386718 5.429687-7.617187 3.046875-11.683594l-6.394531-10.898437c-1.597657-2.570313-4.394532-4.15625-7.421876-4.214844l-29.449218.195313c-3.046875.023437-5.851563 1.671875-7.355469 4.320312l-1.433594 2.515625c-12.699219-20.335937-28.050781-58.027343 3.71875-89.871093 10.121094 6.59375 22.8125 7.867187 34.039063 3.410156l24.851562 68.449218c4.253906 11.53125 13.269532 20.667969 24.746094 25.070313v82.0625c-16.027344 11.148437-25.585938 29.429687-25.601562 48.949219 0 9.425781 7.640624 17.066406 17.066406 17.066406h85.335937c9.425781 0 17.066407-7.640625 17.066407-17.066406-.011719-19.519532-9.574219-37.800782-25.601563-48.949219v-82.0625c11.476563-4.402344 20.496094-13.539063 24.746094-25.070313l24.875-68.40625c11.230469 4.457032 23.921875 3.183594 34.039062-3.410156 31.769531 31.84375 16.417969 69.535156 3.722657 89.871094l-1.433594-2.515625c-1.503906-2.652344-4.308594-4.296875-7.355469-4.320313l-29.476563-.203124c-3.0625-.085938-5.921874 1.539062-7.421874 4.214843l-6.390626 10.898438c-1.542968 2.628906-1.566406 5.882812-.058593 8.535156 1.507812 2.652344 4.3125 4.296875 7.363281 4.316406 3.050781.023438 5.878906-1.585937 7.421875-4.21875l3.898437-6.679687 19.628907.136718 9.675781 17.066407-9.949219 16.929687-20.914062-.152344h-.070313c-4.710937-.015624-8.546875 3.789063-8.5625 8.503907-.015625 4.710937 3.789063 8.546875 8.503906 8.5625l25.839844.152343h.066406c3.03125 0 5.832032-1.601562 7.363282-4.214843l14.902344-25.402344c1.542968-2.632813 1.5625-5.882813.058593-8.535156l-3.695312-6.503907c13.304687-18.796874 44.636719-73.480468-1.050781-118.722656zm-198.125-182.21875c0-34.21875 26.152343-55.46875 68.265624-55.46875 42.113282 0 68.265626 21.25 68.265626 55.46875-1.261719 22.488282-15.988282 41.984375-37.273438 49.355469l-.273438.136719c-19.683593 7.988281-41.703124 7.988281-61.386718 0l-.300782-.121094c-21.300781-7.363281-36.035156-26.871094-37.296874-49.371094zm42.667968 69.1875c16.773438 4.457032 34.421875 4.457032 51.199219 0v20.410156h-51.199219zm-71.683594 114.277344c-10.511718.046875-19.480468-7.601562-21.101562-17.988281-1.621094-10.390625 4.597656-20.402344 14.625-23.558594.386719 1.671875.875 3.316406 1.460938 4.929687l12.800781 35.117188c-2.472657.996094-5.117188 1.507812-7.785157 1.5zm139.949219 238.933594h-85.335937c0-23.5625 19.105468-42.667969 42.667968-42.667969 23.566407 0 42.667969 19.105469 42.667969 42.667969zm-42.667969-59.734375c-5.78125.019531-11.53125.878906-17.066406 2.5625v-70.828125h34.132813v70.828125c-5.53125-1.683594-11.28125-2.542969-17.066407-2.5625zm42.820313-102.1875c-3.699219 10.097656-13.292969 16.820312-24.046875 16.855469h-37.546875c-10.757813-.027344-20.363281-6.753907-24.0625-16.855469l-43.4375-119.464844c-2.851563-7.851563-1.695313-16.597656 3.097656-23.441406 4.792969-6.839844 12.625-10.910157 20.976563-10.90625h124.398437c8.351563.003906 16.175781 4.074219 20.964844 10.914062 4.789063 6.839844 5.945313 15.585938 3.089844 23.433594zm46.710937-78.503907 12.800782-35.117187c.589844-1.613281 1.078125-3.265625 1.46875-4.9375 10.011718 3.179687 16.203125 13.191406 14.574218 23.570313-1.628906 10.378906-10.589843 18.015624-21.09375 17.976562-2.65625.003906-5.285156-.507812-7.75-1.5zm0 0"/><path d="m175.089844 204.800781h-42.664063c-16.496093 0-29.867187 13.371094-29.867187 29.867188 0 16.492187 13.371094 29.867187 29.867187 29.867187h42.664063c16.496094 0 29.867187-13.375 29.867187-29.867187 0-16.496094-13.371093-29.867188-29.867187-29.867188zm0 42.664063h-42.664063c-7.070312 0-12.800781-5.730469-12.800781-12.796875 0-7.070313 5.730469-12.800781 12.800781-12.800781h42.664063c7.070312 0 12.800781 5.730468 12.800781 12.800781 0 7.066406-5.730469 12.796875-12.800781 12.796875zm0 0"/><path d="m170.824219 281.601562h-34.132813c-4.710937 0-8.53125 3.820313-8.53125 8.53125 0 4.714844 3.820313 8.535157 8.53125 8.535157h34.132813c4.714843 0 8.535156-3.820313 8.535156-8.535157 0-4.710937-3.820313-8.53125-8.535156-8.53125zm0 0"/><path d="m170.824219 315.734375h-34.132813c-4.710937 0-8.53125 3.820313-8.53125 8.53125 0 4.714844 3.820313 8.535156 8.53125 8.535156h34.132813c4.714843 0 8.535156-3.820312 8.535156-8.535156 0-4.710937-3.820313-8.53125-8.535156-8.53125zm0 0"/></svg>