<svg height="511pt" viewBox="0 -29 511.96284 511" width="511pt" xmlns="http://www.w3.org/2000/svg"><path d="m119.464844 260.066406h102.398437v113.75h-102.398437zm0 0" fill="#6a1b9a"/><path d="m290.132812 260.066406h102.398438v113.75h-102.398438zm0 0" fill="#6a1b9a"/><path d="m119.464844 260.066406h85.332031v113.75h-85.332031zm0 0" fill="#9d27b0"/><path d="m290.132812 260.066406h85.332032v113.75h-85.332032zm0 0" fill="#9d27b0"/><path d="m119.464844 341.816406h102.398437v85.332032h-102.398437zm0 0" fill="#ad1457"/><path d="m290.132812 341.816406h102.398438v85.332032h-102.398438zm0 0" fill="#ad1457"/><path d="m119.464844 341.816406h85.332031v85.332032h-85.332031zm0 0" fill="#e91e63"/><path d="m290.132812 341.816406h85.332032v85.332032h-85.332032zm0 0" fill="#e91e63"/><path d="m454.570312 196.066406c14.355469 30.847656 23.195313 63.976563 26.109376 97.875l-34.21875 1.539063c-2.449219-25.578125-8.570313-50.667969-18.175782-74.496094zm0 0" fill="#e91e63"/><path d="m413.863281 145.804688c1.417969-.171876 2.84375-.257813 4.269531-.257813 21.207032 0 38.398438 17.195313 38.398438 38.402344s-17.191406 38.398437-38.398438 38.398437c-1.425781.003906-2.851562-.082031-4.269531-.253906zm0 0" fill="#6a1b9a"/><path d="m490.664062 316.214844c0 14.136718-11.460937 25.601562-25.597656 25.601562-2.164062.019532-4.320312-.265625-6.402344-.855468-11.296874-2.898438-19.195312-13.082032-19.195312-24.746094 0-11.664063 7.898438-21.847656 19.195312-24.746094 2.082032-.589844 4.238282-.875 6.402344-.855469 6.789063 0 13.300782 2.699219 18.101563 7.5s7.496093 11.3125 7.496093 18.101563zm0 0" fill="#6a1b9a"/><path d="m57.429688 196.066406c-14.359376 30.847656-23.199219 63.976563-26.113282 97.875l34.21875 1.539063c2.449219-25.578125 8.570313-50.667969 18.175782-74.496094zm0 0" fill="#e91e63"/><path d="m98.132812 222.09375c-1.417968.171875-2.839843.257812-4.269531.253906-21.207031 0-38.398437-17.191406-38.398437-38.398437s17.191406-38.402344 38.398437-38.402344c1.429688 0 2.851563.085937 4.269531.257813zm0 0" fill="#9d27b0"/><path d="m401.066406 145.804688c1.414063-.171876 2.839844-.257813 4.265625-.257813 21.207031 0 38.398438 17.195313 38.398438 38.402344s-17.191407 38.398437-38.398438 38.398437c-1.425781.003906-2.851562-.082031-4.265625-.253906zm0 0" fill="#9d27b0"/><path d="m72.53125 316.214844c0 14.136718-11.460938 25.601562-25.597656 25.601562-14.140625 0-25.601563-11.464844-25.601563-25.601562 0-14.136719 11.460938-25.601563 25.601563-25.601563 14.136718 0 25.597656 11.464844 25.597656 25.601563zm0 0" fill="#9d27b0"/><path d="m477.863281 316.214844c.03125 11.675781-7.882812 21.875-19.199219 24.746094-11.296874-2.898438-19.195312-13.082032-19.195312-24.746094 0-11.664063 7.898438-21.847656 19.195312-24.746094 11.316407 2.871094 19.230469 13.070312 19.199219 24.746094zm0 0" fill="#9d27b0"/><path d="m418.132812 145.546875v110.933594c0 14.140625-11.460937 25.601562-25.601562 25.601562h-273.066406c-14.136719 0-25.601563-11.460937-25.601563-25.601562v-110.933594c0-85.929687 66.902344-132.691406 151.46875-136.277344 3.5-.167969 7.082031-.253906 10.667969-.253906 89.511719 0 162.132812 47.019531 162.132812 136.53125zm0 0" fill="#ad1457"/><path d="m396.796875 145.546875v110.933594c0 14.140625-11.460937 25.601562-25.597656 25.601562h-251.734375c-14.136719 0-25.601563-11.460937-25.601563-25.601562v-110.933594c0-85.929687 66.902344-132.691406 151.46875-136.277344 84.566407 3.585938 151.464844 50.347657 151.464844 136.277344zm0 0" fill="#e91e63"/><path d="m375.464844 137.015625c0 47.101563-25.601563 85.332031-119.464844 85.332031-4.351562 0-8.535156-.085937-12.546875-.253906-41.128906-1.621094-67.667969-11.351562-83.964844-26.285156-3.421875-2.996094-6.484375-6.375-9.132812-10.070313-9.710938-14.339843-14.554688-31.421875-13.824219-48.722656 0-43.949219 46.507812-80.128906 106.242188-84.820313 4.351562-.34375 8.789062-.515624 13.226562-.515624 25.964844-.320313 51.570312 6.089843 74.324219 18.605468 8.808593 4.859375 16.855469 10.984375 23.894531 18.175782 13.210938 12.746093 20.847656 30.199218 21.246094 48.554687zm0 0" fill="#0377bc"/><path d="m349.863281 137.015625c0 44.800781-23.207031 81.664063-106.410156 85.078125-41.128906-1.621094-67.667969-11.351562-83.964844-26.285156-3.421875-2.996094-6.484375-6.375-9.132812-10.070313-9.710938-14.339843-14.554688-31.421875-13.824219-48.722656 0-43.949219 46.507812-80.128906 106.242188-84.820313 21.746093 1.289063 42.925781 7.472657 61.949218 18.089844 8.808594 4.859375 16.859375 10.984375 23.894532 18.175782 13.214843 12.746093 20.851562 30.199218 21.246093 48.554687zm0 0" fill="#02a9f4"/><g fill="#6a1b9a"><path d="m187.730469 341.816406c0 9.425782-7.640625 17.066406-17.066407 17.066406-9.425781 0-17.066406-7.640624-17.066406-17.066406 0-9.425781 7.640625-17.066406 17.066406-17.066406 9.425782 0 17.066407 7.640625 17.066407 17.066406zm0 0"/><path d="m358.398438 341.816406c0 9.425782-7.640626 17.066406-17.066407 17.066406s-17.066406-7.640624-17.066406-17.066406c0-9.425781 7.640625-17.066406 17.066406-17.066406s17.066407 7.640625 17.066407 17.066406zm0 0"/><path d="m238.933594 418.613281v17.066407c0 4.714843-3.824219 8.535156-8.535156 8.535156h-119.464844c-4.714844 0-8.535156-3.820313-8.535156-8.535156v-17.066407c.027343-9.414062 7.652343-17.035156 17.066406-17.066406h102.398437c9.414063.03125 17.039063 7.652344 17.070313 17.066406zm0 0"/><path d="m409.597656 418.613281v17.066407c0 4.714843-3.820312 8.535156-8.53125 8.535156h-119.46875c-4.710937 0-8.53125-3.820313-8.53125-8.535156v-17.066407c.027344-9.414062 7.652344-17.035156 17.066406-17.066406h102.398438c9.414062.03125 17.039062 7.652344 17.066406 17.066406zm0 0"/></g><path d="m221.863281 418.613281v17.066407c0 4.714843-3.820312 8.535156-8.53125 8.535156h-102.398437c-4.714844 0-8.535156-3.820313-8.535156-8.535156v-17.066407c.027343-9.414062 7.652343-17.035156 17.066406-17.066406h85.332031c9.414063.03125 17.039063 7.652344 17.066406 17.066406zm0 0" fill="#9d27b0"/><path d="m392.53125 418.613281v17.066407c0 4.714843-3.820312 8.535156-8.53125 8.535156h-102.402344c-4.710937 0-8.53125-3.820313-8.53125-8.535156v-17.066407c.027344-9.414062 7.652344-17.035156 17.066406-17.066406h85.332032c9.414062.03125 17.039062 7.652344 17.066406 17.066406zm0 0" fill="#9d27b0"/><path d="m256 230.882812c84.929688 0 128-31.574218 128-93.867187 0-51.753906-57.421875-93.867187-128-93.867187-70.582031 0-128 42.113281-128 93.867187 0 62.292969 43.066406 93.867187 128 93.867187zm0-170.667968c61.164062 0 110.933594 34.449218 110.933594 76.800781 0 32.964844-11.503906 76.800781-110.933594 76.800781-99.433594 0-110.933594-43.835937-110.933594-76.800781 0-42.351563 49.765625-76.800781 110.933594-76.800781zm0 0"/><path d="m204.796875 162.613281c9.132813.269531 17.972656-3.242187 24.429687-9.703125 6.460938-6.457031 9.972657-15.296875 9.707032-24.429687 0-4.710938-3.824219-8.53125-8.535156-8.53125-4.710938 0-8.535157 3.820312-8.535157 8.53125.300781 4.613281-1.398437 9.128906-4.667969 12.398437-3.269531 3.265625-7.785156 4.96875-12.398437 4.667969-4.617187.292969-9.136719-1.417969-12.40625-4.695313-3.265625-3.277343-4.964844-7.804687-4.660156-12.421874-.011719-4.710938-3.84375-8.519532-8.558594-8.507813-4.710937.015625-8.519531 3.847656-8.507813 8.558594-.265624 9.132812 3.246094 17.972656 9.703126 24.429687 6.460937 6.460938 15.300781 9.972656 24.429687 9.703125zm0 0"/><path d="m307.199219 162.613281c9.132812.269531 17.96875-3.242187 24.429687-9.703125 6.460938-6.457031 9.96875-15.296875 9.703125-24.429687 0-4.710938-3.820312-8.53125-8.535156-8.53125-4.710937 0-8.53125 3.820312-8.53125 8.53125-.007813 6.097656-3.269531 11.726562-8.554687 14.769531-5.285157 3.039062-11.792969 3.03125-17.066407-.027344-5.277343-3.054687-8.523437-8.695312-8.511719-14.792968-.015624-4.710938-3.847656-8.519532-8.558593-8.507813-4.714844.015625-8.523438 3.847656-8.507813 8.558594-.269531 9.132812 3.242188 17.972656 9.703125 24.429687 6.460938 6.460938 15.296875 9.972656 24.429688 9.703125zm0 0"/><path d="m128 256.480469c4.710938 0 8.53125-3.820313 8.53125-8.53125v-17.066407c0-4.714843-3.820312-8.535156-8.53125-8.535156-4.714844 0-8.535156 3.820313-8.535156 8.535156v17.066407c0 4.710937 3.820312 8.53125 8.535156 8.53125zm0 0"/><path d="m162.132812 230.882812c-4.714843 0-8.535156 3.820313-8.535156 8.53125v8.535157c0 4.710937 3.820313 8.53125 8.535156 8.53125 4.710938 0 8.53125-3.820313 8.53125-8.53125v-8.535157c0-4.710937-3.820312-8.53125-8.53125-8.53125zm0 0"/><path d="m375.464844 230.882812v17.066407c0 4.710937 3.820312 8.53125 8.535156 8.53125 4.710938 0 8.53125-3.820313 8.53125-8.53125v-17.066407c0-4.714843-3.820312-8.535156-8.53125-8.535156-4.714844 0-8.535156 3.820313-8.535156 8.535156zm0 0"/><path d="m349.863281 230.882812c-4.710937 0-8.53125 3.820313-8.53125 8.53125v8.535157c0 4.710937 3.820313 8.53125 8.53125 8.53125 4.714844 0 8.535157-3.820313 8.535157-8.53125v-8.535157c0-4.710937-3.820313-8.53125-8.535157-8.53125zm0 0"/><path d="m2.5 367.988281 17.066406 17.066407c2.140625 2.214843 5.3125 3.105468 8.296875 2.324218s5.3125-3.109375 6.09375-6.09375-.105469-6.15625-2.324219-8.296875l-12.128906-12.128906 9.082032-13.652344c8.921874 4.167969 19.234374 4.167969 28.160156 0l9.054687 13.652344-12.101562 12.128906c-2.21875 2.140625-3.109375 5.3125-2.328125 8.296875s3.113281 5.3125 6.09375 6.09375c2.984375.78125 6.15625-.109375 8.300781-2.324218l17.066406-17.066407c2.867188-2.871093 3.316407-7.363281 1.074219-10.746093l-13.839844-20.871094c9.082032-12.054688 8.984375-28.691406-.238281-40.636719 2.210937-22.246094 7.25-44.121094 14.992187-65.09375h.511719v25.839844c.058594 15.519531 10.574219 29.042969 25.601563 32.921875v105.183594c-10.195313 3.601562-17.023438 13.21875-17.070313 24.027343v17.066407c0 9.425781 7.644531 17.070312 17.070313 17.070312h119.464844c9.425781 0 17.066406-7.644531 17.066406-17.070312v-17.066407c-.042969-10.808593-6.875-20.425781-17.066406-24.027343v-103.972657h51.199218v103.972657c-10.191406 3.601562-17.019531 13.21875-17.066406 24.027343v17.066407c0 9.425781 7.640625 17.070312 17.066406 17.070312h119.46875c9.425782 0 17.066406-7.644531 17.066406-17.070312v-17.066407c-.046874-10.808593-6.875-20.425781-17.066406-24.027343v-105.183594c15.023438-3.878906 25.539063-17.402344 25.597656-32.921875v-25.8125h.511719c7.742188 20.964843 12.78125 42.828125 14.996094 65.066406-9.207031 11.9375-9.304687 28.554687-.242187 40.601563l-13.839844 20.871093c-2.242188 3.382813-1.789063 7.875 1.074218 10.746094l17.066407 17.066406c3.351562 3.234375 8.671875 3.1875 11.964843-.105469 3.289063-3.289062 3.335938-8.613281.101563-11.960937l-12.132813-12.132813 9.054688-13.65625c8.921875 4.167969 19.234375 4.167969 28.160156 0l9.078125 13.65625-12.125 12.125c-2.21875 2.140626-3.109375 5.3125-2.328125 8.296876.78125 2.984374 3.109375 5.3125 6.09375 6.09375s6.15625-.105469 8.300782-2.324219l17.066406-17.066407c2.871094-2.875 3.320312-7.371093 1.074218-10.753906l-13.867187-20.828125c10.175781-13.574219 8.714844-32.585937-3.414063-44.441406-2.992187-33.394531-11.570312-66.046875-25.375-96.597656 3.40625-13.359375.742188-27.542969-7.289062-38.75s-20.601562-18.296875-34.347656-19.363281c-4.300782-82.117188-71.507813-136.730469-170.246094-136.730469-98.742188 0-165.949219 54.613281-170.25 136.730469-13.746094 1.066406-26.316406 8.15625-34.347656 19.363281-8.027344 11.207031-10.695313 25.390625-7.285156 38.75-13.828126 30.5625-22.421876 63.230469-25.421876 96.640625-12.128906 11.855468-13.589843 30.867187-3.414062 44.441406l-13.859375 20.828125c-2.242187 3.382813-1.792969 7.878906 1.078125 10.753906zm23.097656-51.773437c0-9.425782 7.640625-17.066406 17.066406-17.066406 9.425782 0 17.066407 7.640624 17.066407 17.066406 0 9.425781-7.640625 17.066406-17.066407 17.066406-4.523437 0-8.867187-1.796875-12.066406-5-3.199218-3.199219-5-7.539062-5-12.066406zm121.039063 34.132812c3.558593 10.222656 13.203125 17.074219 24.027343 17.074219 10.828126 0 20.46875-6.851563 24.03125-17.074219h18.636719v42.667969h-85.332031v-42.667969zm15.496093-8.53125c0-4.714844 3.820313-8.535156 8.53125-8.535156 4.714844 0 8.535157 3.820312 8.535157 8.535156 0 4.710938-3.820313 8.53125-8.535157 8.53125-4.710937 0-8.53125-3.820312-8.53125-8.53125zm-51.199218 93.863282v-17.066407c0-4.710937 3.820312-8.53125 8.53125-8.53125h102.398437c4.714844 0 8.535157 3.820313 8.535157 8.53125v17.066407zm102.398437-102.398438h-18.636719c-3.5625-10.222656-13.203124-17.074219-24.03125-17.074219-10.824218 0-20.46875 6.851563-24.027343 17.074219h-18.636719v-42.667969h85.332031zm170.667969 59.734375h-85.335938v-42.667969h18.636719c3.5625 10.222656 13.203125 17.074219 24.03125 17.074219s20.46875-6.851563 24.03125-17.074219h18.636719zm-51.203125-51.199219c0-4.714844 3.820313-8.535156 8.535156-8.535156 4.710938 0 8.53125 3.820312 8.53125 8.535156 0 4.710938-3.820312 8.53125-8.53125 8.53125-4.714843 0-8.535156-3.820312-8.535156-8.53125zm51.203125-8.535156h-18.636719c-3.5625-10.222656-13.203125-17.074219-24.03125-17.074219s-20.46875 6.851563-24.03125 17.074219h-18.636719v-42.667969h85.335938zm-102.402344 102.398438v-17.066407c0-4.710937 3.820313-8.53125 8.535156-8.53125h102.398438c4.714844 0 8.535156 3.820313 8.535156 8.53125v17.066407zm170.667969-119.464844c0-9.425782 7.640625-17.066406 17.066406-17.066406s17.066407 7.640624 17.066407 17.066406c0 9.425781-7.640626 17.066406-17.066407 17.066406s-17.066406-7.640625-17.066406-17.066406zm22.75-33.5625c-1.875-.347656-3.777344-.535156-5.683594-.570313-3.886719.035157-7.738281.746094-11.382812 2.097657-2.671875-19.933594-7.496094-39.523438-14.386719-58.417969 5.363281-2.726563 10.152344-6.460938 14.113281-10.992188 8.53125 21.835938 14.355469 44.632813 17.339844 67.882813zm-22.75-98.703125c-.042969 14.804687-10.941406 27.335937-25.601563 29.429687v-58.878906c14.664063 2.09375 25.566407 14.636719 25.601563 29.449219zm-349.867187-38.402344c0-77.753906 60.289062-128 153.601562-128 93.308594 0 153.597656 50.246094 153.597656 128v110.933594c0 9.425781-7.640625 17.066406-17.066406 17.066406h-273.066406c-9.425782 0-17.066406-7.640625-17.066406-17.066406zm-17.066407 8.96875v58.882813c-14.695312-2.039063-25.640625-14.605469-25.640625-29.441407 0-14.839843 10.945313-27.402343 25.640625-29.441406zm-31.011719 60.28125c3.960938 4.523437 8.753907 8.246094 14.117188 10.964844-6.890625 18.886719-11.714844 38.464843-14.390625 58.394531-3.644531-1.34375-7.496094-2.046875-11.382813-2.074219-1.90625.035157-3.808593.222657-5.683593.570313 2.988281-23.242188 8.8125-46.03125 17.339843-67.855469zm0 0"/></svg>