<svg height="512pt" viewBox="-7 0 512 512.22567" width="512pt" xmlns="http://www.w3.org/2000/svg"><path d="m215.390625 443.960938c.007813 3.867187-.65625 7.707031-1.964844 11.347656h-64.339843c-1.308594-3.640625-1.972657-7.480469-1.960938-11.347656-.015625-15.566407 10.523438-29.160157 25.597656-33.027344 2.78125-.761719 5.652344-1.132813 8.535156-1.109375 18.851563 0 34.132813 15.285156 34.132813 34.136719zm0 0" fill="#ffb301"/><path d="m351.921875 443.960938c.007813 3.867187-.65625 7.707031-1.960937 11.347656h-64.339844c-1.308594-3.640625-1.972656-7.480469-1.964844-11.347656-.011719-15.566407 10.523438-29.160157 25.601562-33.027344 2.777344-.761719 5.648438-1.132813 8.53125-1.109375 18.851563 0 34.132813 15.285156 34.132813 34.136719zm0 0" fill="#ffb301"/><path d="m198.324219 443.960938c.007812 3.867187-.65625 7.707031-1.964844 11.347656h-47.273437c-1.308594-3.640625-1.972657-7.480469-1.960938-11.347656-.015625-15.566407 10.523438-29.160157 25.597656-33.027344 15.074219 3.867187 25.613282 17.460937 25.601563 33.027344zm0 0" fill="#fec108"/><path d="m334.855469 443.960938c.007812 3.867187-.65625 7.707031-1.960938 11.347656h-47.273437c-1.308594-3.640625-1.972656-7.480469-1.964844-11.347656-.011719-15.566407 10.523438-29.160157 25.601562-33.027344 15.074219 3.867187 25.609376 17.460937 25.597657 33.027344zm0 0" fill="#fec108"/><path d="m94.984375 108.941406-17.917969 27.050782h-47.617187l-5.632813-8.535157-12.289062-18.515625c-3.679688-5.550781-3.792969-12.738281-.289063-18.402344 3.5-5.664062 9.976563-8.773437 16.589844-7.964843 4.925781.652343 9.339844 3.386719 12.117187 7.507812l4.09375 6.144531 9.21875 13.824219 13.3125-19.96875c3.160157-4.777343 8.519532-7.632812 14.25-7.59375.714844-.027343 1.429688.03125 2.132813.167969 2.625.261719 5.148437 1.171875 7.339844 2.648438 3.773437 2.496093 6.394531 6.398437 7.273437 10.839843.882813 4.4375-.046875 9.046875-2.582031 12.796875zm0 0" fill="#9e9e9e"/><path d="m82.183594 100.40625-17.917969 27.050781h-40.449219l-12.289062-18.515625c-3.679688-5.550781-3.792969-12.738281-.289063-18.402344 3.5-5.664062 9.976563-8.773437 16.589844-7.964843l12.628906 18.941406 3.582031-5.289063 9.21875 13.824219 13.3125-19.96875c3.160157-4.777343 8.519532-7.632812 14.25-7.59375.714844-.027343 1.429688.03125 2.132813.167969 3.085937 5.59375 2.789063 12.445312-.769531 17.75zm0 0" fill="#cfd8dc"/><path d="m490.417969 99.46875c0 3.375-1.007813 6.675781-2.898438 9.472656l-17.921875 27.050782h-47.617187l-5.628907-8.535157-12.289062-18.515625c-3.527344-5.214844-3.875-11.953125-.902344-17.503906 2.972656-5.546875 8.773438-8.996094 15.066406-8.949219.683594 0 1.453126.085938 2.132813.085938 4.929687.652343 9.339844 3.386719 12.117187 7.507812l4.097657 6.144531 9.214843 13.824219 13.3125-19.96875c3.589844-5.410156 9.953126-8.292969 16.382813-7.425781 2.628906.261719 5.152344 1.171875 7.339844 2.648438 4.769531 3.125 7.628906 8.460937 7.59375 14.164062zm0 0" fill="#9e9e9e"/><path d="m477.621094 90.933594c-.003906 3.378906-1.011719 6.675781-2.902344 9.472656l-17.921875 27.050781h-40.445313l-12.289062-18.515625c-3.527344-5.214844-3.875-11.953125-.902344-17.503906 2.972656-5.546875 8.773438-8.996094 15.066406-8.949219.683594 0 1.453126.085938 2.132813.085938l12.628906 18.941406 3.585938-5.289063 9.214843 13.824219 13.3125-19.96875c3.589844-5.410156 9.953126-8.292969 16.382813-7.425781 1.394531 2.539062 2.125 5.382812 2.136719 8.277344zm0 0" fill="#cfd8dc"/><path d="m172.722656 247.691406v51.199219c-29.425781-.035156-58.148437-9.023437-82.347656-25.769531-14-9.621094-26.167969-21.671875-35.925781-35.582032-9.539063-13.285156-16.703125-28.125-21.160157-43.863281-3.75-12.949219-5.644531-26.367187-5.632812-39.851562h51.199219c-.015625 10.128906 1.628906 20.1875 4.863281 29.78125 3.476562 10.519531 8.824219 20.320312 15.789062 28.929687 5.519532 6.875 11.984376 12.9375 19.199219 18.003906 7.292969 5.21875 15.316407 9.332032 23.808594 12.203126 9.726563 3.308593 19.933594 4.980468 30.207031 4.949218zm0 0" fill="#9e9e9e"/><path d="m172.722656 247.691406v34.132813c-29.425781-.035157-58.148437-9.023438-82.347656-25.769531-14-9.621094-26.167969-21.675782-35.925781-35.582032-9.539063-13.285156-16.703125-28.125-21.160157-43.863281-2.148437-7.457031-3.691406-15.078125-4.609374-22.785156h50.175781c-.015625 10.128906 1.628906 20.1875 4.863281 29.78125 3.476562 10.519531 8.824219 20.320312 15.789062 28.929687 5.519532 6.875 11.984376 12.9375 19.199219 18.003906 7.292969 5.21875 15.316407 9.332032 23.808594 12.203126 9.726563 3.308593 19.933594 4.980468 30.207031 4.949218zm0 0" fill="#cfd8dc"/><path d="m78.855469 145.292969v8.53125h-51.199219v-8.53125c-.050781-10.847657 6.8125-20.527344 17.066406-24.066407 2.726563-1.03125 5.617188-1.550781 8.535156-1.535156 14.136719 0 25.597657 11.460938 25.597657 25.601563zm0 0" fill="#f57c00"/><g fill="#9e9e9e"><path d="m471.390625 153.824219c.011719 13.484375-1.882813 26.902343-5.632813 39.851562l-14.507812-2.902343-35.925781-7.167969c.597656-1.875 1.195312-3.753907 1.707031-5.628907 2.101562-7.878906 3.160156-15.996093 3.160156-24.152343zm0 0"/><path d="m465.757812 193.675781c-4.460937 15.738281-11.621093 30.578125-21.164062 43.863281l-13.566406-7.511718-31.488282-17.492188.769532-1.023437c6.613281-8.339844 11.699218-17.789063 15.015625-27.90625l35.925781 7.167969zm0 0"/><path d="m408.667969 273.121094c-12.535157 8.730468-26.394531 15.382812-41.042969 19.710937l-2.644531-11.945312-8.449219-38.144531c6.628906-2.199219 12.964844-5.207032 18.859375-8.960938 1.71875-.96875 3.371094-2.050781 4.949219-3.242188l20.308594 30.550782zm0 0"/><path d="m367.625 292.832031c-13.398438 4.019531-27.3125 6.058594-41.300781 6.058594v-51.199219c6.691406.046875 13.363281-.699218 19.882812-2.21875 3.507813-.636718 6.960938-1.550781 10.324219-2.730468l8.449219 38.144531zm0 0"/><path d="m444.59375 237.539062c-9.753906 13.910157-21.921875 25.960938-35.925781 35.582032l-8.019531-12.03125-20.308594-30.550782c7.214844-5.066406 13.675781-11.128906 19.199218-18.003906l31.488282 17.492188zm0 0"/></g><path d="m420.191406 149.558594c0 8.152344-1.058594 16.273437-3.160156 24.148437-.511719 1.878907-1.109375 3.757813-1.707031 5.632813-3.316407 10.117187-8.402344 19.5625-15.015625 27.90625l-.769532 1.023437c-5.523437 6.875-11.984374 12.933594-19.199218 18.003907-1.578125 1.1875-3.230469 2.273437-4.949219 3.242187-5.894531 3.75-12.230469 6.761719-18.859375 8.960937-3.363281 1.179688-6.816406 2.09375-10.324219 2.730469-6.519531 1.519531-13.191406 2.265625-19.882812 2.21875v42.070313c9.660156-.855469 19.207031-2.6875 28.5-5.460938 3.414062-1.027344 6.828125-2.136718 10.15625-3.414062 10.933593-4.128906 21.308593-9.601563 30.890625-16.300782 1.621094-1.109374 3.15625-2.21875 4.777344-3.496093 11.664062-8.734375 21.910156-19.210938 30.378906-31.0625l.769531-1.023438c8.402344-11.671875 14.964844-24.566406 19.453125-38.230469.597656-1.875 1.195312-3.753906 1.707031-5.632812 2.976563-10.199219 4.78125-20.707031 5.375-31.316406zm0 0" fill="#cfd8dc"/><path d="m471.390625 145.292969v8.53125h-51.199219v-8.53125c-.003906-6.789063 2.699219-13.296875 7.507813-18.089844 2.671875-2.714844 5.945312-4.761719 9.558593-5.976563 2.722657-1.03125 5.617188-1.550781 8.53125-1.535156 14.140626 0 25.601563 11.460938 25.601563 25.601563zm0 0" fill="#f57c00"/><path d="m61.789062 145.292969v8.53125h-34.132812v-8.53125c-.050781-10.847657 6.8125-20.527344 17.066406-24.066407 3.613282 1.214844 6.886719 3.261719 9.558594 5.976563 4.808594 4.792969 7.507812 11.300781 7.507812 18.089844zm0 0" fill="#ff9801"/><path d="m454.324219 145.292969v8.53125h-34.132813v-8.53125c-.003906-6.789063 2.699219-13.296875 7.507813-18.089844 2.671875-2.714844 5.945312-4.761719 9.558593-5.976563 10.253907 3.539063 17.117188 13.21875 17.066407 24.066407zm0 0" fill="#ff9801"/><path d="m360.457031 162.359375-34.132812 42.667969v121l-34.132813 24.066406-21.335937 14.164062c-2.792969 1.898438-6.09375 2.910157-9.472657 2.902344h-23.722656c-3.375.007813-6.675781-1.003906-9.46875-2.902344l-8.449218-5.632812-12.886719-8.53125-34.132813-24.066406v-121l-34.132812-42.667969h76.800781l20.050781 25.085937 14.082032 17.582032 34.132812-42.667969zm0 0" fill="#fec108"/><path d="m339.125 153.824219-6.828125 8.535156-27.308594 34.132813v121.003906l-34.132812 24.0625-21.332031 14.164062c-2.792969 1.902344-6.09375 2.910156-9.472657 2.902344h-20.308593l-12.886719-8.53125-34.132813-24.066406v-121l-34.132812-42.667969h76.800781l17.066406 28.808594 2.984375-3.722657 26.882813-33.621093zm0 0" fill="#fdd834"/><path d="m232.457031 495.160156c0 4.710938-3.820312 8.53125-8.535156 8.53125h-85.332031c-4.710938 0-8.535156-3.820312-8.535156-8.53125-.039063-13.585937 5.371093-26.621094 15.019531-36.183594 7.457031-7.582031 17.148437-12.574218 27.648437-14.25 2.816406-.515624 5.671875-.773437 8.535156-.765624 28.257813.039062 51.15625 22.9375 51.199219 51.199218zm0 0" fill="#f57c00"/><path d="m164.191406 369.121094h34.132813v45.3125h-34.132813zm0 0" fill="#cfd8dc"/><path d="m206.855469 350.09375c0 14.136719-11.460938 25.597656-25.597657 25.597656-2.917968.019532-5.808593-.5-8.535156-1.535156-10.222656-3.582031-17.066406-13.230469-17.066406-24.0625 0-10.835938 6.84375-20.484375 17.066406-24.066406 2.726563-1.03125 5.617188-1.554688 8.535156-1.535156 14.136719 0 25.597657 11.460937 25.597657 25.601562zm0 0" fill="#f57c00"/><path d="m368.988281 495.160156c0 4.710938-3.820312 8.53125-8.53125 8.53125h-85.332031c-4.714844 0-8.535156-3.820312-8.535156-8.53125-.042969-13.585937 5.367187-26.621094 15.019531-36.183594 7.457031-7.582031 17.144531-12.574218 27.648437-14.25 2.8125-.515624 5.671876-.773437 8.53125-.765624 28.261719.039062 51.160157 22.9375 51.199219 51.199218zm0 0" fill="#f57c00"/><path d="m215.390625 495.160156c0 4.710938-3.820313 8.53125-8.535156 8.53125h-68.265625c-4.710938 0-8.535156-3.820312-8.535156-8.53125-.039063-13.585937 5.371093-26.621094 15.019531-36.183594 7.457031-7.582031 17.148437-12.574218 27.648437-14.25 10.503906 1.675782 20.191406 6.667969 27.648438 14.25 9.648437 9.5625 15.058594 22.597657 15.019531 36.183594zm0 0" fill="#ff9801"/><path d="m351.921875 495.160156c0 4.710938-3.820313 8.53125-8.53125 8.53125h-68.265625c-4.714844 0-8.535156-3.820312-8.535156-8.53125-.042969-13.585937 5.367187-26.621094 15.019531-36.183594 7.457031-7.582031 17.144531-12.574218 27.648437-14.25 10.5 1.675782 20.191407 6.667969 27.648438 14.25 9.648438 9.5625 15.058594 22.597657 15.015625 36.183594zm0 0" fill="#ff9801"/><path d="m300.722656 369.121094h34.132813v45.3125h-34.132813zm0 0" fill="#cfd8dc"/><path d="m343.390625 350.09375c0 14.136719-11.460937 25.597656-25.601563 25.597656-2.914062.019532-5.808593-.5-8.53125-1.535156-10.226562-3.582031-17.070312-13.230469-17.070312-24.0625 0-10.835938 6.84375-20.484375 17.070312-24.066406 2.722657-1.03125 5.617188-1.554688 8.53125-1.535156 14.140626 0 25.601563 11.460937 25.601563 25.601562zm0 0" fill="#f57c00"/><path d="m189.789062 350.09375c0-13.292969-7.640624-24.066406-17.066406-24.066406-9.425781 0-17.066406 10.773437-17.066406 24.066406 0 13.289062 7.640625 24.0625 17.066406 24.0625 9.425782 0 17.066406-10.773438 17.066406-24.0625zm0 0" fill="#ff9801"/><path d="m326.324219 350.09375c0-13.292969-7.640625-24.066406-17.066407-24.066406-9.425781 0-17.066406 10.773437-17.066406 24.066406 0 13.289062 7.640625 24.0625 17.066406 24.0625 9.425782 0 17.066407-10.773438 17.066407-24.0625zm0 0" fill="#ff9801"/><path d="m360.457031 162.359375h-221.867187l15.273437-53.503906c1.066407-3.652344 4.390625-6.179688 8.191407-6.230469h174.933593c3.804688.050781 7.128907 2.578125 8.195313 6.230469zm0 0" fill="#f57c00"/><path d="m339.125 162.359375h-200.535156l15.273437-53.503906c1.066407-3.652344 4.390625-6.179688 8.191407-6.230469h153.601562c3.804688.050781 7.128906 2.578125 8.191406 6.230469zm0 0" fill="#ff9801"/><path d="m283.65625 162.359375-34.132812 42.667969-34.132813-42.667969zm0 0" fill="#d84315"/><path d="m326.324219 102.625h-153.601563c0-38.742188 28.757813-63.742188 66.132813-67.582031 3.535156-.484375 7.101562-.714844 10.667969-.683594 19.679687-.511719 38.90625 5.957031 54.273437 18.261719 14.671875 12.410156 22.953125 30.789062 22.527344 50.003906zm0 0" fill="#fec108"/><path d="m304.988281 102.625h-132.265625c0-38.742188 28.757813-63.742188 66.132813-67.582031 15.980469 1.304687 31.1875 7.4375 43.605469 17.578125 14.675781 12.410156 22.953124 30.789062 22.527343 50.003906zm0 0" fill="#fdd834"/><path d="m215.390625 239.160156h68.265625c4.714844 0 8.535156 3.820313 8.535156 8.53125v42.667969c0 4.710937-3.820312 8.53125-8.535156 8.53125h-68.265625c-4.714844 0-8.535156-3.820313-8.535156-8.53125v-42.667969c0-4.710937 3.820312-8.53125 8.535156-8.53125zm0 0" fill="#f57c00"/><path d="m215.390625 239.160156h51.199219c4.710937 0 8.535156 3.820313 8.535156 8.53125v42.667969c0 4.710937-3.824219 8.53125-8.535156 8.53125h-51.199219c-4.714844 0-8.535156-3.820313-8.535156-8.53125v-42.667969c0-4.710937 3.820312-8.53125 8.535156-8.53125zm0 0" fill="#ff9801"/><path d="m155.65625 25.824219c0 9.425781-7.640625 17.066406-17.066406 17.066406-9.425782 0-17.066406-7.640625-17.066406-17.066406s7.640624-17.066407 17.066406-17.066407c9.425781 0 17.066406 7.640626 17.066406 17.066407zm0 0" fill="#ff9801"/><path d="m377.523438 25.824219c0 9.425781-7.640626 17.066406-17.066407 17.066406s-17.066406-7.640625-17.066406-17.066406 7.640625-17.066407 17.066406-17.066407 17.066407 7.640626 17.066407 17.066407zm0 0" fill="#ff9801"/><path d="m240.988281 68.492188c0 4.714843-3.820312 8.535156-8.53125 8.535156-4.714843 0-8.535156-3.820313-8.535156-8.535156 0-4.710938 3.820313-8.53125 8.535156-8.53125 4.710938 0 8.53125 3.820312 8.53125 8.53125zm0 0"/><path d="m275.125 68.492188c0 4.714843-3.824219 8.535156-8.535156 8.535156-4.710938 0-8.535156-3.820313-8.535156-8.535156 0-4.710938 3.824218-8.53125 8.535156-8.53125 4.710937 0 8.535156 3.820312 8.535156 8.53125zm0 0"/><path d="m258.054688 333.027344c0 4.710937-3.820313 8.53125-8.53125 8.53125-4.714844 0-8.535157-3.820313-8.535157-8.53125 0-4.714844 3.820313-8.535156 8.535157-8.535156 4.710937 0 8.53125 3.820312 8.53125 8.535156zm0 0"/><path d="m487.84375 78.425781-.324219-.222656c-5.652343-3.765625-12.570312-5.132813-19.230469-3.796875-6.660156 1.332031-12.515624 5.261719-16.277343 10.914062l-6.222657 9.335938-6.21875-9.386719c-7.855468-11.75-23.734374-14.929687-35.507812-7.109375l-.308594.214844c-11.53125 7.917969-14.570312 23.625-6.824218 35.277344l15.757812 23.703125c-.660156 2.59375-1.003906 5.257812-1.03125 7.9375v8.53125c-.054688 43.800781-33.222656 80.46875-76.800781 84.898437v-30.71875l32.265625-40.328125.078125-.128906.082031-.066406c.0625-.078125.0625-.179688.113281-.257813.628907-.894531 1.074219-1.902344 1.3125-2.96875 0-.195312.113281-.375.144531-.570312.183594-1.140625.128907-2.300782-.160156-3.414063 0-.105469 0-.207031 0-.308593l-15.300781-53.546876c-2.132813-7.300781-8.828125-12.320312-16.433594-12.320312h-2.5625c-1.136719-11.171875-4.835937-21.933594-10.800781-31.445312l22.183594-15.890626c9.667968 6.765626 22.707031 6.046876 31.570312-1.738281 8.867188-7.785156 11.261719-20.621093 5.804688-31.078125-5.457032-10.460937-17.355469-15.835937-28.8125-13.015625-11.457032 2.820313-19.503906 13.101563-19.484375 24.898438.035156 2.371093.402343 4.722656 1.09375 6.992187l-23.167969 16.578125c-1.136719-1.101562-2.234375-2.234375-3.414062-3.269531-16.917969-13.632812-38.121094-20.828125-59.84375-20.300781-23.328126-.660157-45.988282 7.828125-63.148438 23.648437l-23.277344-16.65625c.691406-2.269531 1.058594-4.621094 1.09375-6.992187.050782-11.859375-8.015625-22.214844-19.527344-25.066407-11.511718-2.851562-23.480468 2.535157-28.972656 13.046876-5.492187 10.511718-3.082031 23.414062 5.832032 31.234374 8.914062 7.820313 22.019531 8.53125 31.726562 1.71875l22.316406 15.972657c-6.011718 9.472656-9.746094 20.207031-10.90625 31.363281h-2.5625c-7.609375.023438-14.292968 5.066406-16.398437 12.378906l-15.300781 53.546875v.308594c-.289063 1.113281-.34375 2.277344-.164063 3.414063 0 .195312.105469.375.144531.570312.238282 1.066406.6875 2.078125 1.316406 2.96875.050782.078125.050782.179688.109376.257812l.070312.058594.074219.128906 32.242187 40.292969v30.722657c-43.585937-4.433594-76.753906-41.109376-76.800781-84.917969v-8.53125c-.023437-2.664063-.363281-5.3125-1.015625-7.894531l15.761719-23.679688c7.753906-11.671875 4.679687-27.410156-6.894531-35.3125-.085938-.0625-.175782-.121094-.265626-.175781-5.652343-3.765625-12.566406-5.128907-19.222656-3.796875-6.660156 1.335937-12.511718 5.261718-16.277344 10.910156l-6.21875 9.3125-6.222656-9.335938c-3.761718-5.652343-9.617187-9.578124-16.273437-10.910156-6.660157-1.335937-13.574219.027344-19.226563 3.792969-.082031.050781-.167968.101563-.246094.164063-11.570312 7.90625-14.648437 23.640624-6.910156 35.328124l15.757813 23.703126c-.648438 2.582031-.992188 5.230468-1.011719 7.894531v8.53125c.035156 13.964843 1.988281 27.859375 5.800781 41.292969-.003906.074218-.003906.148437 0 .222656.046875.152344.105469.300781.171875.445312 9.792969 34.285156 31.175782 64.113282 60.5 84.394532l.050782.050781h.050781c13.386719 9.234375 28.164062 16.277343 43.769531 20.863281l.109375.050781h.136719c11.230468 3.25 22.796875 5.203125 34.476562 5.8125v13.710938c-8.855468 5.027343-14.960937 13.785156-16.621094 23.828125-1.65625 10.042968 1.316407 20.300781 8.085938 27.902344v37.613281c-13.324219 9.707031-19.648438 26.378906-16.109375 42.480469-11.519531 11.207031-18.019531 26.59375-18.023437 42.667968 0 9.425782 7.640624 17.066406 17.066406 17.066406h85.332031c9.425781 0 17.066406-7.640624 17.066406-17.066406 0-16.074218-6.5-31.460937-18.019531-42.667968 3.519531-16.089844-2.800781-32.742188-16.113281-42.445313v-37.613281c2.242187-2.519532 4.09375-5.359375 5.496093-8.421875l11.09375 7.378906c4.203126 2.796875 9.140626 4.28125 14.191407 4.269531h23.832031c5.050781.011719 9.992188-1.472656 14.199219-4.269531l11.09375-7.378906c1.40625 3.0625 3.257812 5.902343 5.496093 8.421875v37.613281c-13.335937 9.683594-19.6875 26.339844-16.179687 42.445313-11.519531 11.207031-18.019531 26.59375-18.023437 42.667968 0 9.425782 7.644531 17.066406 17.070312 17.066406h85.332031c9.425781 0 17.066407-7.640624 17.066407-17.066406-.003907-16.074218-6.503907-31.460937-18.023438-42.667968 3.523438-16.089844-2.796875-32.742188-16.109375-42.445313v-37.613281c6.769531-7.605469 9.742187-17.859375 8.082031-27.902344-1.65625-10.042969-7.761718-18.800781-16.617187-23.828125v-13.710937c11.675781-.613282 23.246093-2.5625 34.476562-5.8125h.136719l.109375-.050782c15.613281-4.582031 30.394531-11.625 43.785156-20.863281h.058594l.070313-.070313c29.3125-20.292968 50.679687-50.125 60.457031-84.410156.066406-.144531.125-.292968.171875-.445312.003906-.074219.003906-.148438 0-.222656 3.8125-13.433594 5.765625-27.328126 5.800781-41.292969v-8.53125c-.023437-2.664063-.363281-5.3125-1.015625-7.894531l15.761719-23.679688c7.734375-11.65625 4.695312-27.359375-6.824219-35.292969zm-28.402344 105.265625-33.457031-6.679687c1.148437-4.820313 1.945313-9.71875 2.390625-14.652344h34.21875c-.484375 7.183594-1.535156 14.316406-3.152344 21.332031zm-17.578125 42.539063-29.867187-16.5625c3.375-5.167969 6.277344-10.628907 8.671875-16.316407l34.039062 6.828126c-3.335937 9.125-7.644531 17.871093-12.851562 26.078124zm20.992188-80.9375h-34.132813c0-9.425781 7.640625-17.066407 17.066406-17.066407 9.425782 0 17.066407 7.640626 17.066407 17.066407zm-49.355469-52.855469.214844-.152344c3.914062-2.472656 9.085937-1.371094 11.65625 2.480469l11.75 17.648437c-5.632813 1.460938-10.792969 4.34375-14.996094 8.371094l-10.996094-16.546875c-2.59375-3.917969-1.53125-9.191406 2.371094-11.800781zm-39.59375 189.277344-7.476562-33.773438c3.9375-1.652344 7.769531-3.546875 11.46875-5.675781l18.867187 28.355469c-7.257813 4.402344-14.910156 8.113281-22.859375 11.09375zm-13.449219-264.421875c4.710938 0 8.53125 3.820312 8.53125 8.53125 0 4.714843-3.820312 8.535156-8.53125 8.535156-4.714843 0-8.535156-3.820313-8.535156-8.535156 0-4.710938 3.820313-8.53125 8.535156-8.53125zm-230.402343 8.53125c0-4.710938 3.824218-8.53125 8.535156-8.53125 4.710937 0 8.535156 3.820312 8.535156 8.53125 0 4.714843-3.824219 8.535156-8.535156 8.535156-4.710938 0-8.535156-3.820313-8.535156-8.535156zm119.46875 17.066406c17.65625-.515625 34.929687 5.226563 48.757812 16.214844 10.511719 8.839843 17.261719 21.351562 18.886719 34.988281h-135.261719c4.179688-30.523438 30.769531-51.203125 67.617188-51.203125zm-87.433594 68.269531h174.867187l12.183594 42.664063h-199.234375zm103.808594 59.730469-16.375 20.480469-16.375-20.480469zm-163.609376 99.738281 18.867188-28.363281c3.699219 2.128906 7.53125 4.023437 11.46875 5.675781l-7.484375 33.773438c-7.941406-2.980469-15.59375-6.691406-22.851563-11.085938zm-57.957031-70.457031 34.046875-6.828125c2.394532 5.6875 5.292969 11.148438 8.667969 16.316406l-29.863281 16.5625c-5.203125-8.199218-9.511719-16.933594-12.851563-26.050781zm8.925781-71.945313c9.425782 0 17.066407 7.640626 17.066407 17.066407h-34.132813c0-9.425781 7.640625-17.066407 17.066406-17.066407zm-16.804687 34.132813h34.226563c.4375 4.945313 1.238281 9.851563 2.398437 14.675781l-33.476563 6.65625c-1.613281-7.015625-2.664062-14.148437-3.148437-21.332031zm37.230469-67.59375c1.25-1.886719 3.203125-3.195313 5.421875-3.632813 2.160156-.429687 4.402343-.011718 6.261719 1.167969.058593.050781.121093.085938.179687.128907 3.910156 2.609374 4.96875 7.890624 2.371094 11.808593l-11 16.546875c-4.195313-4.023437-9.355469-6.90625-14.984375-8.371094zm-52.71875-2.335937.171875-.121094c3.917969-2.5 9.113281-1.40625 11.691406 2.457031l11.75 17.648437c-5.628906 1.464844-10.785156 4.347657-14.984375 8.371094l-11-16.546875c-2.597656-3.917969-1.535156-9.199219 2.371094-11.808593zm46.199218 147.804687 30.527344-16.9375c2.96875 3.246094 6.140625 6.300781 9.503906 9.136719l-18.953124 28.453125c-7.746094-6.109375-14.8125-13.035157-21.078126-20.652344zm74.359376 46.4375 7.382812-33.332031c5.023438 1.242187 10.132812 2.097656 15.285156 2.5625v34.21875c-7.640625-.511719-15.222656-1.667969-22.667968-3.449219zm39.734374 46.355469c9.425782 0 17.066407 7.640625 17.066407 17.066406s-7.640625 17.066406-17.066407 17.066406c-9.425781 0-17.066406-7.640625-17.066406-17.066406s7.640625-17.066406 17.066406-17.066406zm42.664063 162.132812h-85.332031c0-23.566406 19.101562-42.667968 42.667968-42.667968 23.5625 0 42.664063 19.101562 42.664063 42.667968zm-42.664063-59.734375c-8.757812.007813-17.40625 1.957031-25.320312 5.707031 1.386719-12.9375 12.304688-22.746093 25.320312-22.746093 13.011719 0 23.929688 9.808593 25.316407 22.746093-7.914063-3.75-16.558594-5.699218-25.316407-5.707031zm0-34.132812c-2.867187-.003907-5.726562.28125-8.535156.851562v-19.128906c5.574219 1.613281 11.492188 1.613281 17.066406 0v19.128906c-2.808593-.570312-5.667968-.855469-8.53125-.851562zm153.597657-51.199219c0 9.425781-7.640625 17.066406-17.066407 17.066406-9.425781 0-17.066406-7.640625-17.066406-17.066406s7.640625-17.066406 17.066406-17.066406c9.425782 0 17.066407 7.640625 17.066407 17.066406zm25.601562 145.066406h-85.332031c0-23.566406 19.101562-42.667968 42.664062-42.667968 23.566407 0 42.667969 19.101562 42.667969 42.667968zm-42.667969-59.734375c-8.757812.007813-17.402343 1.957031-25.316406 5.707031 1.386719-12.9375 12.304688-22.746093 25.316406-22.746093 13.011719 0 23.933594 9.808593 25.320313 22.746093-7.914063-3.75-16.5625-5.699218-25.320313-5.707031zm0-34.132812c-2.863281-.003907-5.722656.28125-8.53125.851562v-19.128906c5.574219 1.613281 11.492188 1.613281 17.066407 0v19.128906c-2.808594-.570312-5.667969-.855469-8.535157-.851562zm-33.636718-56.097657-17.988282 11.996094c-1.394531.921875-3.023437 1.421875-4.695312 1.433594h-23.808594c-1.679687 0-3.324218-.5-4.726562-1.433594l-17.996094-11.996094c-2.402344-16.761718-16.75-29.210937-33.679688-29.234374v-110.933594c0-1.941406-.660156-3.820313-1.871093-5.335938l-23.039063-28.800781h54.9375l31.574219 39.46875c1.617187 2.023437 4.070313 3.203125 6.664063 3.203125s5.042968-1.179688 6.664062-3.203125l31.574219-39.46875h54.9375l-23.039063 28.800781c-1.210937 1.515625-1.871094 3.394532-1.871094 5.335938v110.933594c-16.914062.042968-31.234374 12.488281-33.636718 29.234374zm50.703125-89.320312c5.152343-.460938 10.261719-1.316406 15.285156-2.558594l7.378906 33.332032c-7.445312 1.769531-15.027343 2.910156-22.664062 3.410156zm75.949219 5.011719-18.929688-28.453125c3.363281-2.835938 6.539062-5.890625 9.507812-9.136719l30.523438 16.9375c-6.269531 7.621094-13.347656 14.546875-21.101562 20.652344zm69.671874-156.648438-11 16.546875c-4.199218-4.027344-9.359374-6.910156-14.992187-8.371094l11.75-17.640624c2.5625-3.851563 7.730469-4.960938 11.648437-2.5l.222657.164062c3.894531 2.617188 4.941406 7.890625 2.347656 11.800781zm0 0"/><path d="m292.191406 230.625h-85.335937c-4.710938 0-8.53125 3.820312-8.53125 8.535156v59.730469c0 4.714844 3.820312 8.535156 8.53125 8.535156h85.335937c4.710938 0 8.53125-3.820312 8.53125-8.535156v-59.730469c0-4.714844-3.820312-8.535156-8.53125-8.535156zm-8.535156 59.734375h-68.265625v-42.667969h68.265625zm0 0"/></svg>