<svg height="512pt" viewBox="-1 0 512 512.00172" width="512pt" xmlns="http://www.w3.org/2000/svg"><path d="m225.136719 15.875-14.25-3.242188c-20.988281-2.726562-42.296875-1.628906-62.890625 3.242188l-27.734375 6.570312-2.246094 62.4375 23.578125 21.273438 54.699219 3.753906zm0 0" fill="#283593"/><path d="m315.589844 109.910156 54.699218-3.753906 28.082032-22.1875-6.75-61.523438-27.734375-6.570312c-20.59375-4.871094-41.902344-5.96875-62.890625-3.242188l-14.25 3.242188zm0 0" fill="#283593"/><path d="m58.308594 284.929688c0 .085937-.085938.085937-.085938.171874-.339844.679688-.679687 1.277344-1.109375 1.960938-2.21875 4.183594-4.519531 8.449219-6.824219 12.714844-.941406 1.878906-1.964843 3.753906-2.988281 5.632812-1.792969 3.414063-3.667969 6.828125-5.546875 10.238282-1.28125 3.3125-3.257812 6.3125-5.800781 8.789062-2.296875 1.351562-5.058594 1.660156-7.59375.855469-2.550781-.699219-4.949219-1.855469-7.085937-3.414063-9.308594-6.722656-14.085938-18.082031-12.371094-29.441406.363281-2.003906 1.179687-3.902344 2.386718-5.546875 3.039063-2.65625 6.539063-4.738281 10.328126-6.140625 1.875-1.027344 4.351562-2.390625 6.910156-3.757812 3.15625-1.707032 6.402344-3.496094 9.132812-4.949219zm0 0" fill="#f57c00"/><path d="m106.179688 348.757812c-5.5625 2.589844-11.792969 3.394532-17.832032 2.304688-1.074218-.164062-2.128906-.421875-3.160156-.765625 0 0 0 .082031-.082031 0-6.589844-1.660156-11.890625-6.542969-14.082031-12.972656-4.941407-15.980469-5.734376-32.953125-2.304688-49.324219l15.617188-2.558594 14.847656-2.472656 1.707031-.257812c.085937.511718.257813 1.109374.339844 1.621093 1.621093 7.851563 2.648437 15.785157 4.867187 23.46875 2.839844 7.941407 5.261719 16.03125 7.25 24.234375 1.820313 6.5625-1.15625 13.511719-7.167968 16.722656zm0 0" fill="#f57c00"/><path d="m149.617188 285.015625c-.402344 3.546875-2.539063 6.664063-5.699219 8.320313-3.164063 1.660156-6.941407 1.644531-10.089844-.042969-1.449219-.683594-2.898437-1.453125-4.351563-2.21875-8.53125-4.609375-16.640624-10.496094-24.746093-15.617188l-1.535157-22.015625-.34375-4.691406 37.890626 10.238281c4.632812.542969 8.40625 3.972657 9.386718 8.535157 1.28125 5.78125 1.105469 11.792968-.511718 17.492187zm0 0" fill="#f57c00"/><path d="m195.695312 221.867188-12.542968 111.128906 33.792968 6.207031 10.410157-93.160156zm0 0" fill="#283593"/><path d="m220.613281 347.394531v1.195313l-6.230469 109.308594-72.957031 2.5625.167969-.597657 33.28125-117.761719c2.722656-11.421874 13.554688-19.003906 25.21875-17.65625 11.664062 1.347657 20.476562 11.207032 20.519531 22.949219zm0 0" fill="#283593"/><path d="m136.476562 59.734375c.007813.542969-.019531 1.085937-.085937 1.621094-.171875 2.050781-.511719 5.035156-.941406 8.621093 0 .167969-.082031.339844-.082031.511719-.066407.066407-.097657.160157-.085938.253907-.628906 3.019531-1.574219 5.96875-2.816406 8.789062-.765625 1.988281-1.707032 3.902344-2.816406 5.71875v.085938c-2.089844.75-4.113282 1.664062-6.058594 2.730468-10.769532 5.546875-22.804688 8.164063-34.902344 7.59375-1.515625-.082031-3.027344-.253906-4.523438-.511718-15.960937-2.296876-30.054687-11.628907-38.398437-25.429688-2-3.925781-4.339844-7.664062-6.996094-11.179688-1.261719-1.417968-2.765625-2.601562-4.4375-3.496093 2.15625-23.121094 19.597657-41.894531 42.496094-45.738281 2.785156-.519532 5.613281-.777344 8.445313-.769532 28.242187.089844 51.113281 22.960938 51.203124 51.199219zm0 0" fill="#1566c0"/><path d="m119.40625 59.734375c.011719.542969-.015625 1.085937-.082031 1.621094-.171875 2.050781-.511719 5.035156-.941407 8.621093 0 .167969-.085937.339844-.085937.511719-.0625.066407-.09375.160157-.082031.253907-.628906 3.019531-1.574219 5.96875-2.816406 8.789062-.765626 1.988281-1.710938 3.902344-2.816407 5.71875v.085938c-2.089843.75-4.113281 1.664062-6.058593 2.730468-7.03125 3.53125-14.578126 5.921875-22.359376 7.082032-15.960937-2.296876-30.054687-11.628907-38.398437-25.429688-2-3.925781-4.339844-7.664062-6.996094-11.179688-1.261719-1.417968-2.765625-2.601562-4.4375-3.496093 2.15625-23.121094 19.597657-41.894531 42.496094-45.738281 24.550781 4.246093 42.507813 25.511718 42.578125 50.429687zm0 0" fill="#2296f3"/><path d="m316.1875 221.867188 12.542969 111.128906-33.792969 6.207031-10.410156-93.160156zm0 0" fill="#283593"/><path d="m370.457031 460.460938-17.234375-.597657-55.722656-1.964843-6.230469-109.308594v-1.195313c-.015625-9.460937 5.730469-17.976562 14.507813-21.503906 2.746094-1.070313 5.667968-1.621094 8.617187-1.621094 10.761719-.023437 20.125 7.363281 22.613281 17.832031zm0 0" fill="#283593"/><path d="m203.546875 347.394531v1.195313l-6.230469 109.308594-55.722656 1.964843 33.28125-117.761719c1.75-7.414062 7.054688-13.480468 14.164062-16.210937 8.777344 3.527344 14.523438 12.042969 14.507813 21.503906zm0 0" fill="#3f51b5"/><path d="m353.222656 459.863281-55.722656-1.964843-6.230469-109.308594v-1.195313c-.015625-9.460937 5.730469-17.976562 14.507813-21.503906 7.109375 2.730469 12.414062 8.796875 14.164062 16.210937zm0 0" fill="#3f51b5"/><path d="m332.742188 193.964844v7.933594c-.019532 7.175781-3.480469 13.902343-9.300782 18.09375l-7.253906 5.203124-31.660156 22.613282-2.644532 1.878906-2.390624.425781c-15.597657 2.558594-31.503907 2.558594-47.101563 0l-2.390625-.425781-2.644531-1.878906-7.851563-5.632813-23.808594-16.980469-7.253906-5.203124c-5.820312-4.191407-9.28125-10.917969-9.300781-18.09375v-7.933594c.03125-14.261719 8.082031-27.296875 20.820313-33.707032l2.050781-1.023437h107.859375l2.050781 1.023437c12.765625 6.382813 20.828125 19.433594 20.820313 33.707032zm0 0" fill="#4527a0"/><path d="m315.675781 185.429688v7.9375c-.019531 7.171874-3.480469 13.902343-9.300781 18.089843l-7.253906 5.207031-31.660156 22.613282-2.644532 1.875-2.390625.429687c-14.199219 2.328125-28.664062 2.53125-42.921875.59375l-23.808594-16.980469-7.253906-5.203124c-5.820312-4.191407-9.28125-10.917969-9.300781-18.09375v-7.933594c.03125-14.261719 8.082031-27.296875 20.820313-33.707032l2.050781-1.023437h102.910156c6.890625 6.976563 10.753906 16.390625 10.753906 26.195313zm0 0" fill="#673ab7"/><path d="m312.515625 114.945312c4.269531 2.664063 7.886719 6.25 10.582031 10.496094 3.386719 7.527344 1.832032 16.359375-3.925781 22.273438-2.8125 3.839844-5.972656 7.679687-9.300781 11.519531-13.992188 15.871094-32.597656 30.121094-53.929688 28.5-21.332031 1.621094-39.9375-12.628906-53.929687-28.5-3.328125-3.839844-6.484375-7.679687-9.300781-11.519531-5.757813-5.914063-7.3125-14.746094-3.925782-22.273438 2.695313-4.246094 6.3125-7.832031 10.582032-10.496094zm0 0" fill="#4527a0"/><path d="m324.207031 76.800781c0 19.5625-8.390625 38.1875-23.046875 51.144531-14.65625 12.960938-34.164062 19.007813-53.582031 16.609376h-.339844c-34.210937-4.253907-59.878906-33.351563-59.835937-67.828126.042968-34.476562 25.785156-63.507812 60.003906-67.679687 2.832031-.34375 5.683594-.515625 8.535156-.511719 37.703125 0 68.265625 30.5625 68.265625 68.265625zm0 0" fill="#1566c0"/><path d="m307.140625 76.800781c-.054687 34.324219-25.527344 63.300781-59.5625 67.753907h-.339844c-34.210937-4.253907-59.878906-33.351563-59.835937-67.828126.042968-34.476562 25.785156-63.507812 60.003906-67.679687 34.144531 4.300781 59.746094 33.34375 59.734375 67.753906zm0 0" fill="#2296f3"/><path d="m119.152344 139.265625-8.535156 49.324219c-.015626 7.816406-3.597657 15.199218-9.726563 20.050781l-51.027344-1.707031c-5.050781-4.765625-7.917969-11.398438-7.9375-18.34375l-8.535156-57.601563zm0 0" fill="#4527a0"/><path d="m483.527344 325.292969c-2.539063.804687-5.300782.496093-7.597656-.855469-.964844-.675781-1.777344-1.550781-2.386719-2.558594-1.367188-1.960937-2.304688-4.351562-3.414063-6.230468-1.878906-3.410157-3.753906-6.824219-5.546875-10.238282-3.671875-6.742187-7.253906-13.570312-10.921875-20.308594 0-.085937-.085937-.085937-.085937-.171874l12.714843-7.9375 7.933594-4.949219c4.949219 2.648437 11.949219 6.488281 16.042969 8.707031 3.789063 1.402344 7.289063 3.484375 10.328125 6.140625 1.207031 1.644531 2.023438 3.542969 2.386719 5.546875 2.277343 14.210938-5.902344 28.019531-19.453125 32.855469zm0 0" fill="#f57c00"/><path d="m440.859375 337.324219c-2.652344 7.527343-9.386719 12.871093-17.324219 13.738281-4.578125.769531-9.273437.507812-13.738281-.765625 0 .082031-.085937 0-.085937 0-1.394532-.347656-2.738282-.863281-4.007813-1.539063-6.011719-3.210937-8.988281-10.160156-7.167969-16.722656 1.988282-8.203125 4.410156-16.292968 7.25-24.234375 2.136719-7.339843 3.074219-14.851562 4.695313-22.359375.085937-.9375.339843-1.792968.511719-2.730468l26.710937 4.351562 5.460937.9375c.511719 3.925781 1.023438 7.851562 1.363282 11.777344 1.785156 12.628906.527344 25.503906-3.667969 37.546875zm0 0" fill="#f57c00"/><path d="m409.03125 248.75-1.878906 26.707031c-3.839844 2.390625-7.679688 5.035157-11.519532 7.511719-.683593.511719-1.367187.9375-2.046874 1.363281-4.945313 3.375-10.136719 6.371094-15.53125 8.960938-4.210938 2.46875-9.589844 1.527343-12.714844-2.21875-1.441406-1.78125-2.488282-3.84375-3.074219-6.058594-1.617187-5.699219-1.792969-11.710937-.511719-17.492187.980469-4.5625 4.753906-7.992188 9.386719-8.535157 6.828125-1.878906 13.652344-3.667969 20.480469-5.546875 5.804687-1.535156 11.605468-3.15625 17.410156-4.691406zm0 0" fill="#f57c00"/><g fill="#ff9801"><path d="m41.242188 284.929688c0 .085937-.085938.085937-.085938.171874-3.667969 6.738282-7.253906 13.566407-10.921875 20.308594-1.792969 3.414063-3.667969 6.828125-5.546875 10.238282-1.109375 1.878906-2.046875 4.269531-3.414062 6.230468-9.308594-6.722656-14.085938-18.082031-12.371094-29.441406.363281-2.003906 1.179687-3.902344 2.386718-5.546875 3.039063-2.65625 6.539063-4.738281 10.328126-6.140625 1.875-1.027344 4.351562-2.390625 6.910156-3.757812zm0 0"/><path d="m89.113281 348.757812c-1.238281.671876-2.558593 1.1875-3.925781 1.539063 0 0 0 .082031-.082031 0-6.589844-1.660156-11.890625-6.542969-14.082031-12.972656-4.941407-15.980469-5.734376-32.953125-2.304688-49.324219l15.617188-2.558594c1.621093 7.507813 2.558593 15.019532 4.695312 22.359375 2.839844 7.941407 5.261719 16.03125 7.25 24.234375 1.820312 6.5625-1.15625 13.511719-7.167969 16.722656zm0 0"/><path d="m100.890625 282.710938c.085937.511718.257813 1.109374.339844 1.621093-.679688-.425781-1.363281-.851562-2.046875-1.363281zm0 0"/><path d="m136.816406 289.28125c-.585937 2.214844-1.632812 4.277344-3.074218 6.058594-8.53125-4.609375-16.636719-10.496094-24.746094-15.617188l-1.535156-22.015625c6.828124 1.878907 13.652343 3.671875 20.480468 5.546875 4.632813.542969 8.40625 3.972656 9.386719 8.535156 1.28125 5.78125 1.105469 11.792969-.511719 17.492188zm0 0"/><path d="m443.164062 288c.511719 3.925781 1.023438 7.851562 1.363282 11.777344-2.304688-4.265625-4.605469-8.53125-6.824219-12.714844zm0 0"/><path d="m473.542969 321.878906c-1.367188-1.960937-2.304688-4.351562-3.414063-6.230468-1.878906-3.410157-3.753906-6.824219-5.546875-10.238282-3.671875-6.742187-7.253906-13.570312-10.921875-20.308594 0-.085937-.085937-.085937-.085937-.171874l12.714843-7.9375c2.558594 1.367187 5.035157 2.730468 6.910157 3.757812 3.789062 1.402344 7.289062 3.484375 10.328125 6.140625 1.207031 1.644531 2.023437 3.542969 2.386718 5.546875 1.714844 11.359375-3.0625 22.71875-12.371093 29.441406zm0 0"/><path d="m393.925781 282.710938 1.707031.257812c-.683593.511719-1.367187.9375-2.046874 1.363281.082031-.511719.253906-1.109375.339843-1.621093zm0 0"/><path d="m423.792969 337.324219c-2.234375 6.371093-7.472657 11.226562-13.996094 12.972656 0 .082031-.085937 0-.085937 0-1.394532-.347656-2.738282-.863281-4.007813-1.539063-6.011719-3.210937-8.988281-10.160156-7.167969-16.722656 1.988282-8.203125 4.410156-16.292968 7.25-24.234375 2.136719-7.339843 3.074219-14.851562 4.695313-22.359375l15.617187 2.558594c3.429688 16.371094 2.636719 33.34375-2.304687 49.324219zm0 0"/><path d="m391.621094 249.175781-1.535156 22.015625c-8.105469 5.121094-16.214844 11.007813-24.746094 15.617188-1.441406-1.78125-2.488282-3.847656-3.074219-6.058594-1.617187-5.699219-1.792969-11.710938-.511719-17.496094.980469-4.558594 4.753906-7.988281 9.386719-8.53125 6.828125-1.878906 13.652344-3.671875 20.480469-5.546875zm0 0"/></g><path d="m477.550781 55.042969c-1.671875.894531-3.175781 2.078125-4.4375 3.496093-2.65625 3.515626-4.996093 7.253907-6.996093 11.179688-5.476563 9.078125-13.523438 16.324219-23.125 20.820312-6.230469 2.90625-12.941407 4.640626-19.796876 5.121094-12.097656.570313-24.132812-2.046875-34.902343-7.59375-1.945313-1.066406-3.96875-1.980468-6.058594-2.730468v-.085938c-1.109375-1.816406-2.050781-3.730469-2.816406-5.71875-1.242188-2.820312-2.1875-5.769531-2.816407-8.789062-.097656-.246094-.152343-.503907-.167968-.765626-.429688-3.585937-.769532-6.570312-.941406-8.621093-.070313-.535157-.097657-1.078125-.085938-1.621094-.011719-14.144531 5.863281-27.652344 16.214844-37.289063.179687-.191406.382812-.363281.597656-.511718 9.355469-8.660156 21.644531-13.445313 34.390625-13.398438 26.429687.054688 48.488281 20.191406 50.941406 46.507813zm0 0" fill="#1566c0"/><path d="m464.753906 63.574219c-1.675781.894531-3.179687 2.082031-4.4375 3.5-2.660156 3.511719-5 7.253906-7 11.179687-2.753906 4.625-6.238281 8.777344-10.324218 12.285156-6.230469 2.90625-12.941407 4.640626-19.796876 5.121094-12.097656.570313-24.132812-2.046875-34.902343-7.59375-1.945313-1.066406-3.96875-1.980468-6.058594-2.730468v-.085938c-1.109375-1.816406-2.050781-3.730469-2.816406-5.71875-1.242188-2.820312-2.1875-5.769531-2.816407-8.789062-.097656-.246094-.152343-.503907-.167968-.765626-.429688-3.585937-.769532-6.570312-.941406-8.621093-.070313-.535157-.097657-1.078125-.085938-1.621094-.011719-14.144531 5.863281-27.652344 16.214844-37.289063.179687-.191406.382812-.363281.597656-.511718 6.738281-3.230469 14.117188-4.894532 21.589844-4.863282 26.429687.050782 48.488281 20.1875 50.945312 46.503907zm0 0" fill="#2296f3"/><path d="m392.730469 139.265625 8.535156 49.324219c.015625 7.816406 3.597656 15.199218 9.726563 20.050781l51.027343-1.707031c5.050781-4.765625 7.917969-11.398438 7.9375-18.34375l8.535157-57.601563zm0 0" fill="#4527a0"/><path d="m99.867188 245.632812c3.277343-.011718 6.265624 1.867188 7.679687 4.820313 3.054687 4.363281 4.871094 9.472656 5.257813 14.78125-.675782 5.804687-3.582032 11.125-8.097657 14.832031-17 15.675782-41.398437 8.96875-59.386719-1.050781-3.003906-1.476563-5.5625-3.726563-7.414062-6.519531-1.742188-3.792969-1.582031-8.1875.433594-11.84375.855468-2.621094 1.707031-5.246094 2.5625-7.882813 1.054687-3.558593 4.285156-6.023437 7.996094-6.101562zm0 0" fill="#673ab7"/><path d="m463.15625 246.667969c3.59375.085937 6.71875 2.476562 7.75 5.921875.851562 2.695312 1.703125 5.382812 2.609375 8.0625 2.019531 3.652344 2.1875 8.046875.453125 11.84375-1.851562 2.792968-4.410156 5.042968-7.417969 6.519531-17.988281 10.019531-42.382812 16.726563-59.382812 1.050781-4.515625-3.707031-7.421875-9.027344-8.097657-14.832031.386719-5.308594 2.203126-10.417969 5.257813-14.78125 1.414063-2.953125 4.402344-4.832031 7.679687-4.820313zm0 0" fill="#673ab7"/><path d="m102.597656 248.40625c-4.585937 4.566406-10.96875 6.851562-17.410156 6.230469-7.507812.171875-15.101562.597656-22.527344.339843-.542968-.019531-1.085937-.074218-1.621094-.167968-10.664062-.855469-22.101562-5.976563-21.160156-18.605469 1.824219-9.582031 4.980469-18.859375 9.386719-27.5625 2.167969-8.679687 6.316406-16.738281 12.117187-23.550781.339844-.339844.765626-.683594 1.109376-1.023438 1.324218-1.097656 2.785156-2.015625 4.351562-2.730468 5.707031-2.996094 12.5625-2.800782 18.089844.511718 6.851562 5.320313 11.742187 12.761719 13.910156 21.160156 3.65625 8.972657 6.261719 18.335938 7.765625 27.90625 1.078125 6.132813-.371094 12.441407-4.011719 17.492188zm0 0" fill="#283593"/><path d="m472.003906 236.203125c1.027344 13.226563-11.6875 18.261719-22.78125 18.773437-5.121094.171876-10.242187 0-15.445312-.167968-2.304688 0-4.695313-.085938-7.082032-.171875-6.441406.621093-12.824218-1.664063-17.410156-6.230469-3.640625-5.050781-5.089844-11.359375-4.011718-17.492188 1.503906-9.570312 4.109374-18.933593 7.765624-27.90625 2.167969-8.398437 7.058594-15.839843 13.910157-21.160156.324219-.203125.667969-.375 1.023437-.511718 7.035156-3.515626 15.492188-2.4375 21.417969 2.730468.34375.339844.769531.683594 1.109375 1.023438 5.800781 6.8125 9.949219 14.871094 12.117188 23.550781 4.40625 8.703125 7.5625 17.980469 9.386718 27.5625zm0 0" fill="#283593"/><path d="m85.53125 248.40625c-4.585938 4.566406-10.96875 6.851562-17.410156 6.230469-2.386719.085937-4.777344.171875-7.082032.171875-10.664062-.855469-22.101562-5.976563-21.160156-18.605469 1.824219-9.582031 4.980469-18.859375 9.386719-27.5625 2.167969-8.679687 6.316406-16.738281 12.117187-23.550781.339844-.339844.765626-.683594 1.109376-1.023438 1.324218-1.097656 2.785156-2.015625 4.351562-2.730468.355469.136718.699219.308593 1.023438.511718 6.851562 5.320313 11.742187 12.761719 13.910156 21.160156 3.65625 8.972657 6.261718 18.335938 7.765625 27.90625 1.074219 6.132813-.371094 12.441407-4.011719 17.492188zm0 0" fill="#3f51b5"/><path d="m454.9375 236.203125c.941406 12.628906-10.496094 17.75-21.160156 18.605469-2.304688 0-4.695313-.085938-7.082032-.171875-6.441406.621093-12.824218-1.664063-17.410156-6.230469-3.640625-5.050781-5.089844-11.359375-4.011718-17.492188 1.503906-9.570312 4.109374-18.933593 7.765624-27.90625 2.167969-8.398437 7.058594-15.839843 13.910157-21.160156.324219-.203125.667969-.375 1.023437-.511718 1.566406.714843 3.027344 1.632812 4.351563 2.730468.34375.339844.769531.683594 1.109375 1.023438 5.800781 6.8125 9.949218 14.871094 12.117187 23.550781 4.402344 8.703125 7.5625 17.980469 9.386719 27.5625zm0 0" fill="#3f51b5"/><path d="m141.59375 106.15625c-1.601562 7.121094-4.246094 13.964844-7.851562 20.308594-7.238282 9.480468-17.613282 16.074218-29.265626 18.605468-9.792968 2.410157-19.921874 3.132813-29.953124 2.132813 4.34375-.371094 8.652343-1.085937 12.882812-2.132813 11.65625-2.53125 22.03125-9.125 29.269531-18.605468 3.605469-6.34375 6.25-13.1875 7.851563-20.308594 2.0625-5.988281 1.96875-12.503906-.253906-18.433594 1.714843-.953125 3.515624-1.75 5.375-2.386718v-.085938c1.632812-.644531 3.367187-.988281 5.121093-1.023438 9.300781.085938 9.386719 11.09375 6.824219 21.929688zm0 0" fill="#4527a0"/><path d="m498.542969 97.539062c-1.640625 13.289063-8.753907 25.289063-19.625 33.109376-16.582031 13.054687-37.664063 19.007812-58.625 16.554687-4.34375-.371094-8.652344-1.085937-12.886719-2.132813-11.652344-2.53125-22.027344-9.125-29.265625-18.605468-3.605469-6.34375-6.25-13.1875-7.851563-20.308594-2.0625-5.988281-1.96875-12.503906.253907-18.433594 1.394531-2.269531 3.910156-3.609375 6.570312-3.496094 1.753907.035157 3.488281.378907 5.121094 1.023438v.085938c2.089844.75 4.113281 1.664062 6.058594 2.730468 7.03125 3.53125 14.578125 5.921875 22.359375 7.082032 4.152344.597656 8.355468.769531 12.542968.511718 17.6875-1.113281 33.710938-10.800781 42.921876-25.941406 2-3.925781 4.339843-7.664062 6.996093-11.179688.179688-.21875.378907-.417968.597657-.597656 1.128906-1.152344 2.425781-2.128906 3.839843-2.898437 2.191407-1.277344 4.773438-1.703125 7.253907-1.195313 3.382812.953125 6.164062 3.359375 7.59375 6.570313 2.046874 4.742187 3.453124 9.734375 4.183593 14.847656 1.503907 7.324219 2.160157 14.796875 1.960938 22.273437zm0 0" fill="#4527a0"/><path d="m124.527344 106.15625c-1.601563 7.121094-4.246094 13.964844-7.851563 20.308594-7.238281 9.480468-17.613281 16.074218-29.269531 18.605468-4.230469 1.046876-8.539062 1.761719-12.882812 2.132813-15.195313-1.253906-29.667969-7.015625-41.558594-16.554687-10.871094-7.820313-17.984375-19.820313-19.625-33.109376-.199219-7.476562.460937-14.949218 1.960937-22.273437.730469-5.113281 2.136719-10.105469 4.183594-14.847656.457031-.875 1-1.703125 1.621094-2.476563 1.429687-2.042968 3.550781-3.496094 5.972656-4.09375 2.480469-.507812 5.0625-.082031 7.253906 1.195313 1.671875.894531 3.175781 2.078125 4.4375 3.496093 2.65625 3.515626 4.996094 7.253907 6.996094 11.179688 8.34375 13.800781 22.4375 23.132812 38.398437 25.429688 1.496094.257812 3.007813.429687 4.523438.511718 12.097656.570313 24.132812-2.046875 34.902344-7.59375.253906-.085937.425781-.257812.683594-.34375 2.222656 5.929688 2.316406 12.445313.253906 18.433594zm0 0" fill="#673ab7"/><path d="m124.273438 87.722656c-.257813.085938-.429688.257813-.683594.34375-10.769532 5.546875-22.804688 8.164063-34.902344 7.59375-1.515625-.082031-3.027344-.253906-4.523438-.511718 7.78125-1.160157 15.328126-3.550782 22.359376-7.082032 1.945312-1.066406 3.96875-1.980468 6.058593-2.730468v-.085938c1.632813-.644531 3.367188-.988281 5.121094-1.023438 2.660156-.113281 5.175781 1.226563 6.570313 3.496094zm0 0" fill="#4527a0"/><path d="m481.476562 97.539062c-1.640624 13.289063-8.753906 25.289063-19.625 33.109376-11.894531 9.539062-26.363281 15.300781-41.558593 16.554687-4.34375-.371094-8.652344-1.085937-12.886719-2.132813-11.652344-2.53125-22.027344-9.125-29.265625-18.605468-3.605469-6.34375-6.25-13.1875-7.851563-20.308594-2.0625-5.988281-1.96875-12.503906.253907-18.433594.257812.085938.429687.257813.683593.34375 10.769532 5.546875 22.804688 8.164063 34.902344 7.59375 1.515625-.082031 3.027344-.253906 4.523438-.511718 4.152344.597656 8.355468.769531 12.542968.511718 17.6875-1.113281 33.710938-10.800781 42.921876-25.941406 2-3.925781 4.339843-7.664062 6.996093-11.179688.179688-.21875.378907-.417968.597657-.597656.621093.773438 1.164062 1.601563 1.621093 2.476563 2.046875 4.742187 3.453125 9.734375 4.183594 14.847656 1.5 7.324219 2.160156 14.796875 1.960937 22.273437zm0 0" fill="#673ab7"/><path d="m230.339844 494.933594c0 4.714844-3.820313 8.535156-8.53125 8.535156h-85.332032c-4.714843 0-8.535156-3.820312-8.535156-8.535156-.042968-13.582032 5.371094-26.617188 15.019532-36.179688 6.941406-7.054687 15.820312-11.894531 25.515624-13.910156 3.503907-.761719 7.078126-1.132812 10.664063-1.109375 28.261719.042969 51.160156 22.941406 51.199219 51.199219zm0 0" fill="#4527a0"/><path d="m383.941406 494.933594c0 4.714844-3.820312 8.535156-8.535156 8.535156h-85.332031c-4.710938 0-8.53125-3.820312-8.53125-8.535156-.042969-13.582032 5.367187-26.617188 15.015625-36.179688 6.945312-7.054687 15.824218-11.894531 25.515625-13.910156 3.503906-.761719 7.082031-1.132812 10.667969-1.109375 28.257812.042969 51.15625 22.941406 51.199218 51.199219zm0 0" fill="#4527a0"/><path d="m209.007812 494.933594c0 4.714844-3.820312 8.535156-8.53125 8.535156h-64c-4.714843 0-8.535156-3.820312-8.535156-8.535156-.042968-13.582032 5.371094-26.617188 15.019532-36.179688 6.941406-7.054687 15.820312-11.894531 25.515624-13.910156 9.691407 2.015625 18.570313 6.855469 25.511719 13.910156 9.652344 9.5625 15.0625 22.597656 15.019531 36.179688zm0 0" fill="#673ab7"/><path d="m362.609375 494.933594c0 4.714844-3.820313 8.535156-8.535156 8.535156h-64c-4.710938 0-8.53125-3.820312-8.53125-8.535156-.042969-13.582032 5.367187-26.617188 15.015625-36.179688 6.945312-7.054687 15.824218-11.894531 25.515625-13.910156 9.691406 2.015625 18.570312 6.855469 25.515625 13.910156 9.648437 9.5625 15.058594 22.597656 15.019531 36.179688zm0 0" fill="#673ab7"/><path d="m507.113281 285.6875c-2.8125-3.0625-6.300781-5.429688-10.191406-6.910156-.851563-.410156-1.765625-.800782-2.617187-1.261719l-4.328126-2.355469-6.261718-3.414062c-.226563-3.261719-.933594-6.472656-2.101563-9.523438-1.414062-4.265625-2.796875-8.535156-4.019531-12.894531 2.339844-4.191406 3.347656-8.996094 2.894531-13.773437-1.007812-7.914063-3.34375-15.605469-6.902343-22.75-.617188-1.40625-1.179688-2.816407-1.757813-4.222657 4.148437-5.605469 6.472656-12.347656 6.652344-19.320312l7.988281-53.894531c11.675781-9.128907 19.113281-22.632813 20.589844-37.378907.273437-8.136719-.4375-16.28125-2.113282-24.25l-.214843-1.125c-.777344-5.617187-2.394531-11.082031-4.796875-16.214843-2.535156-5.402344-7.347656-9.398438-13.121094-10.90625-.777344-.117188-1.558594-.179688-2.339844-.1875-6.761718-26.488282-30.527344-45.09375-57.863281-45.304688-13.550781-.0078125-26.699219 4.628906-37.242187 13.144531l-23.507813-5.566406c-21.859375-5.191406-44.488281-6.296875-66.746094-3.257813l-11.480469 2.609376c-20.121093-9.238282-43.273437-9.238282-63.394531 0l-12.253906-2.753907c-22.011719-2.882812-44.363281-1.726562-65.960937 3.410157l-23.507813 5.566406c-10.542969-8.515625-23.6875-13.15625025-37.242187-13.152344-27.347657.21875-51.109376 18.84375-57.855469 45.347656-.785157.007813-1.570313.070313-2.347657.1875-5.773437 1.503906-10.578124 5.496094-13.113281 10.898438-2.402343 5.132812-4.019531 10.597656-4.796875 16.210937l-.210937 1.085938c-1.683594 7.972656-2.398438 16.117187-2.125 24.257812 1.480469 14.746094 8.917969 28.246094 20.589843 37.378907l7.988282 53.894531c.179687 6.972656 2.503906 13.714843 6.65625 19.320312-.582032 1.40625-1.144532 2.816407-1.761719 4.222657-3.554687 7.132812-5.890625 14.8125-6.902344 22.71875-.457031 4.777343.554688 9.585937 2.894531 13.78125-1.210937 4.332031-2.613281 8.652343-4.269531 13.609374-1.0625 2.828126-1.695312 5.796876-1.867187 8.816407l-6.246094 3.410156-4.367188 2.375c-.8125.441406-1.707031.851563-2.5625 1.246094-3.964843 1.515625-7.511718 3.949219-10.351562 7.105469-2.039062 2.691406-3.425781 5.820312-4.050781 9.140624-3.253907 18.636719 7.636719 36.84375 25.597656 42.792969 1.707031.460938 3.464844.695313 5.230469.703125 3.296875.035156 6.527344-.90625 9.285156-2.707031 3.335938-2.507813 5.929688-5.878906 7.5-9.746094.335938-.664062.640625-1.3125 1.058594-2.03125l.65625-1.210937c1.707031-3.0625 3.363281-6.117188 4.917968-9.0625l3.769532-7.023438c-1.472656 12.851563.066406 25.871094 4.5 38.027344 3.75 10.34375 13.019531 17.6875 23.953125 18.96875 2.257812.351562 4.539062.53125 6.824219.535156 5.625.09375 11.1875-1.175781 16.214843-3.703125 9.308594-4.941406 14.078125-15.570312 11.578125-25.8125-1.171875-5.875-2.78125-11.65625-4.8125-17.296875-.851562-2.558594-1.75-5.171875-2.558594-7.808594-1.304687-4.757812-2.347656-9.582031-3.125-14.453124-.265624-1.46875-.570312-2.929688-.851562-4.386719l2.457031 1.601562c6.882813 4.800781 14.09375 9.109375 21.582031 12.894531 2.8125 1.378907 5.902344 2.113282 9.035157 2.144532 2.546875.007812 5.0625-.53125 7.382812-1.582032 5.722657-2.828124 9.878907-8.078124 11.324219-14.300781 1.929688-7.050781 2.128906-14.460937.578125-21.605469-1.738281-7.632812-7.832031-13.507812-15.523437-14.96875l-33.714844-9.085937c1.824218-5.167969 2.371094-10.695313 1.597656-16.121094-.925781-6.398437-2.394531-12.707031-4.386719-18.859375 5.273438-5.960937 8.277344-13.589844 8.492188-21.546875l7.753906-44.816406c5.402344-3.484375 10.101563-7.957031 13.851563-13.183594 3.066406-5.082031 5.492187-10.53125 7.21875-16.210937l35.839843 2.457031c-.921875 1.167969-1.753906 2.40625-2.492187 3.703125-5.214844 10.390625-3.417969 22.929688 4.507812 31.4375 1.011719 1.390625 2.15625 2.839844 3.308594 4.265625-11.6875 8.679687-18.558594 22.390625-18.515625 36.949219v7.902344c.007813 9.9375 4.796875 19.261718 12.867187 25.0625l3.140626 2.242187-11.570313 95.839844c-4.125 4.039062-7.027344 9.160156-8.382813 14.769531l-32.894531 116.414062c-9.269531 10.777344-14.363281 24.523438-14.363281 38.738282 0 9.425781 7.644531 17.066406 17.070312 17.066406h85.332032c9.425781 0 17.066406-7.640625 17.066406-17.066406-.003906-14.929688-5.632812-29.3125-15.761719-40.285156l6.035157-106.058594v-1.195313c-.027344-4.878906-1.195313-9.683593-3.414063-14.03125l8.875-74.417969c14.140625 2.132813 28.523437 2.132813 42.664063 0l8.902343 74.417969c-2.21875 4.347657-3.386719 9.152344-3.414062 14.03125l6.03125 107.253907c-10.136719 10.96875-15.773438 25.351562-15.785157 40.285156 0 9.425781 7.640626 17.066406 17.066407 17.066406h85.332031c9.425781 0 17.070312-7.640625 17.070312-17.066406.003907-14.214844-5.09375-27.960938-14.363281-38.738282l-32.792969-116.054687c-1.367187-5.71875-4.304687-10.9375-8.484374-15.070313l-11.570313-95.890624 3.148437-2.25c8.066407-5.800782 12.851563-15.128907 12.859376-25.0625v-7.917969c.039062-14.554688-6.835938-28.261719-18.523438-36.933594 1.152344-1.460937 2.292969-2.910156 3.308594-4.265625 7.933594-8.511719 9.726562-21.0625 4.5-31.457031-.730469-1.289063-1.558594-2.519531-2.476563-3.683594l35.839844-2.457031c1.722656 5.683594 4.152344 11.128906 7.226563 16.210937 3.738281 5.222657 8.421874 9.695313 13.808593 13.183594l7.757813 44.816406c.226562 7.964844 3.246094 15.589844 8.53125 21.546875-1.996094 6.152344-3.464844 12.460938-4.386719 18.859375-.773437 5.425781-.226563 10.953125 1.597656 16.121094l-33.765625 9.085937c-7.695312 1.464844-13.792968 7.347657-15.53125 14.984376-1.542968 7.144531-1.34375 14.550781.589844 21.597656 1.445312 6.21875 5.597656 11.464844 11.320312 14.292968 2.320313 1.050782 4.835938 1.589844 7.382813 1.582032 3.136719-.03125 6.226563-.765625 9.046875-2.144532 7.480469-3.789062 14.691406-8.097656 21.570312-12.894531l2.457032-1.601562c-.273438 1.457031-.578125 2.917969-.851563 4.386719-.777343 4.886718-1.820312 9.730468-3.125 14.503906-.773437 2.621094-1.652343 5.199218-2.558593 7.792968-2.050782 5.640626-3.679688 11.429688-4.871094 17.3125-2.5 10.234376 2.261718 20.859376 11.5625 25.804688 5.023437 2.527344 10.585937 3.800781 16.210937 3.714844 2.285157-.007813 4.570313-.1875 6.828125-.539063 10.988282-1.246093 20.316406-8.621093 24.070313-19.019531 4.429687-12.160156 5.96875-25.1875 4.492187-38.042969l3.71875 6.910157c1.605469 3.054687 3.277344 6.113281 4.964844 9.175781l.742188 1.347656c.335937.578125.640624 1.230469.972656 1.894531 1.582031 3.878906 4.1875 7.257813 7.535156 9.769532 2.746094 1.785156 5.953125 2.714843 9.226562 2.671874 1.808594-.003906 3.613282-.246093 5.359376-.726562 17.957031-5.992188 28.804687-24.242188 25.496093-42.878906-.660156-3.347656-2.09375-6.492188-4.1875-9.183594zm-44.714843-9.863281c-3.613282 2.019531-7.359376 3.789062-11.214844 5.300781-.523438.136719-1.03125.328125-1.519532.5625-2.324218.855469-4.699218 1.574219-7.105468 2.148438-.1875 0-.367188-.058594-.554688 0-.410156.105468-.808594.242187-1.195312.410156-8.121094 2.089844-16.734375.921875-24.003906-3.25-.609376-.597656-1.308594-1.09375-2.074219-1.46875-.597657-.460938-1.195313-.851563-1.777344-1.425782-2.839844-2.21875-4.753906-5.417968-5.367187-8.976562.265624-2.742188 1.238281-5.367188 2.824218-7.621094.214844-.390625.429688-.851562.648438-1.261718 4.921875 2.054687 10.21875 3.066406 15.550781 2.960937 2.386719 0 4.804687.09375 7.199219.171875 3.414062.101562 6.828125.203125 10.242187.203125 1.859375 0 3.730469 0 5.570313-.109375 4.648437-.179688 9.238281-1.097656 13.59375-2.722656.769531 2.441406 1.597656 4.949218 2.5 7.679687.539062 1.273438.851562 2.628907.921875 4.011719-1.117188 1.453125-2.574219 2.617188-4.238281 3.386719zm-7.757813-64.128907c.996094 2.65625 2.148437 5.292969 3.300781 7.929688 2.769532 5.429688 4.636719 11.273438 5.53125 17.304688.289063 1.773437-.226562 3.582031-1.410156 4.933593-3.667969 3.089844-8.351562 4.710938-13.148438 4.554688-4.847656.1875-9.726562 0-14.617187-.101563-2.492187-.078125-4.984375-.144531-7.476563-.179687-5.828124-.078125-9.199218-1.039063-10.921874-3.132813-2.128907-3.226562-2.902344-7.164062-2.140626-10.957031 1.066407-7.195313 2.890626-14.261719 5.445313-21.074219.570313-1.589844 1.125-3.148437 1.78125-4.824218l.546875-1.347657c1.550781-6.136719 5.011719-11.625 9.882812-15.667969 1.457032-.894531 3.132813-1.367187 4.84375-1.363281 2.816407.074219 5.523438 1.097657 7.679688 2.910157l.746094.648437c3.972656 4.613281 6.839844 10.078125 8.378906 15.972656.492188 1.441407 1.03125 2.929688 1.578125 4.394531zm33.28125-136.011718.21875 1.195312c1.417969 6.65625 2.035156 13.460938 1.84375 20.265625-1.609375 10.835938-7.542969 20.554688-16.441406 26.941407-18.253907 13.898437-41.902344 18.589843-64.078125 12.707031-9.648438-1.988281-18.257813-7.382813-24.25-15.199219-5.015625-8.777344-7.636719-18.71875-7.605469-28.824219.726563.136719 1.433594.355469 2.109375.65625l.203125.058594c1.085937.453125 2.253906 1.007813 3.414063 1.605469l1.195312.597656c12.109375 6.230469 25.648438 9.152344 39.253906 8.472656 20.480469-1.320312 39.039063-12.535156 49.730469-30.054687.699219-1.195313 1.367187-2.414063 2.03125-3.625 1.101563-2.234375 2.429687-4.347657 3.96875-6.308594.546875-.628906 1.203125-1.160156 1.9375-1.5625l.261719-.144531c.339844-.1875.710937-.304688 1.09375-.347656.800781.195312 1.542968 1.347656 2.03125 2.269531 1.542968 3.605469 2.589844 7.40625 3.105468 11.296875zm-19.714844-24.167969c-.492187.480469-1.058593.855469-1.527343 1.359375-2.398438 2.894531-4.460938 6.054688-6.144532 9.421875-.570312 1.03125-1.125 2.0625-1.707031 3.070313-7.777344 12.714843-21.269531 20.835937-36.144531 21.761718-10.605469.496094-21.148438-1.820312-30.566406-6.71875l-1.109376-.5625c-.855468-.425781-1.777343-.851562-2.722656-1.332031-.351562-.722656-.691406-1.507813-1.042968-2.386719-1.046876-2.4375-1.847657-4.972656-2.378907-7.570312-.128906-1.007813-.230469-1.886719-.332031-2.789063-.339844-1.996093-.539062-4.011719-.589844-6.035156-.089844-21.957031 16.550782-40.371094 38.402344-42.503906 21.855469-2.128907 41.738281 12.726562 45.890625 34.285156zm-152.574219 78.066406c1.332032 2.394531 1.980469 5.828125-3.335937 13.089844-2.417969 3.285156-5.242187 6.773437-8.824219 10.921875-16.027344 18.160156-31.828125 26.769531-46.882812 25.597656-.230469 0-.425782.085938-.65625.085938-.210938-.039063-.425782-.070313-.640625-.085938-15.0625 1.128906-30.855469-7.480468-46.832031-25.597656-3.632813-4.207031-6.457032-7.679688-8.875-10.984375-5.316407-7.261719-4.667969-10.691406-3.351563-13.070313.550781-.824218 1.183594-1.589843 1.886719-2.289062 14.570312 16.703125 35.65625 26.285156 57.820312 26.285156 22.164063 0 43.25-9.582031 57.820313-26.285156.703125.710938 1.328125 1.492188 1.871093 2.332031zm-10.242187-19.398437c-16.582031 24.460937-48.566406 33.101562-75.210937 20.320312-26.644532-12.78125-39.921876-43.136718-31.222657-71.378906s36.753907-45.867188 65.972657-41.441406c29.21875 4.425781 50.800781 29.566406 50.746093 59.117187 0 11.902344-3.566406 23.53125-10.242187 33.382813zm-220.117187-93.113282c23.53125.082032 42.582031 19.136719 42.667968 42.664063-.050781 2.148437-.261718 4.292969-.632812 6.410156-.09375.785157-.179688 1.527344-.289063 2.386719-.5625 2.710938-1.402343 5.355469-2.5 7.894531-.316406.792969-.707031 1.433594-1.058593 2.160157-.902344.425781-1.773438.851562-2.558594 1.261718l-1.117188.570313c-9.429687 4.871093-19.96875 7.183593-30.566406 6.710937-14.871094-.921875-28.359375-9.035156-36.140625-21.746094-.605469-1.003906-1.160156-2.039062-1.707031-3.070312-1.699219-3.363281-3.78125-6.515625-6.203125-9.402344-.46875-.523437-1.023438-.855468-1.519531-1.351562 3.960937-19.902344 21.335937-34.296875 41.625-34.488282zm-63.402344 80.074219c-.191406-6.808593.429687-13.613281 1.851562-20.273437l.222656-1.1875c.515626-3.890625 1.566407-7.691406 3.113282-11.296875.488281-.921875 1.230468-2.074219 2.023437-2.261719.101563-.078125.503907 0 1.023438.28125l.402343.222656c.699219.410156 1.332032.929688 1.867188 1.535156 1.546875 1.960938 2.878906 4.078126 3.988281 6.316407.664063 1.210937 1.328125 2.429687 2.03125 3.625 10.6875 17.519531 29.242188 28.734375 49.722657 30.054687 13.601562.675782 27.140624-2.246094 39.253906-8.464844l1.203125-.605468c1.789062-1.054688 3.734375-1.820313 5.757812-2.28125.015625 10.09375-2.609375 20.015625-7.609375 28.785156-6 7.816406-14.613281 13.210938-24.261718 15.199219-22.171876 5.878906-45.816407 1.1875-64.066407-12.707031-8.933593-6.371094-14.894531-16.09375-16.523437-26.941407zm73.207031 183.808594c-7.265625 4.179687-15.882813 5.347656-24.003906 3.261719-.386719-.167969-.785157-.304688-1.195313-.410156-.1875 0-.363281.050781-.554687 0-2.402344-.570313-4.769531-1.273438-7.089844-2.117188-.488281-.238281-1-.425781-1.527344-.5625-3.847656-1.507812-7.589843-3.273438-11.195312-5.292969-1.691407-.789062-3.160157-1.992187-4.265625-3.496093v-.0625l-.078125-.058594c.253906-1.582032.683593-3.132813 1.289062-4.617188.757813-2.277344 1.417969-4.589844 2.140625-6.886718 4.375 1.640624 8.984375 2.566406 13.652344 2.75 1.851562.078124 3.707031.117187 5.574219.109374 3.414062 0 6.828125-.101562 10.238281-.203124 2.398438-.078126 4.8125-.136719 7.195312-.171876 5.335938.09375 10.628907-.929687 15.546876-3.003906.222656.410156.4375.851563.648437 1.273438 1.585937 2.25 2.5625 4.875 2.824219 7.617187-.609375 3.550781-2.519532 6.75-5.359375 8.96875-.578125.53125-1.183594.964844-1.78125 1.433594-.757813.378906-1.453125.875-2.058594 1.46875zm-2.40625-69.972656c2.5625 6.816406 4.390625 13.890625 5.453125 21.09375.761719 3.792969-.011719 7.734375-2.148438 10.957031-1.707031 2.089844-5.121093 3.054688-10.921874 3.132812-2.484376 0-4.976563.101563-7.46875.179688-4.898438.144531-9.777344.289062-14.617188.101562-4.796875.15625-9.480469-1.46875-13.148438-4.558593-1.183593-1.351563-1.699218-3.160157-1.410156-4.929688.894532-6.03125 2.761719-11.875 5.53125-17.308593 1.152344-2.636719 2.304688-5.273438 3.300782-7.925782.546874-1.46875 1.085937-2.953125 1.605468-4.4375 1.53125-5.875 4.382813-11.324218 8.335938-15.933594l.785156-.691406c3.414062-3.113281 8.421875-3.730468 12.492188-1.542968 4.894531 4.039062 8.375 9.535156 9.933593 15.683593l.539063 1.367188c.613281 1.628906 1.167968 3.191406 1.738281 4.769531zm-52.90625 94.71875c-1.550781 2.96875-3.171875 5.972656-4.8125 8.890625l-.578125 1.070312c-.496094.851563-.984375 1.832032-1.476562 2.832032-.515626.9375-.953126 1.914062-1.308594 2.925781-.308594.03125-.621094.003906-.917969-.085938-9.167969-3.644531-14.6875-13.054687-13.390625-22.835937.113281-.648438.316406-1.277344.597656-1.875 1.257813-.972656 2.65625-1.753906 4.148438-2.3125 1.285156-.582032 2.558594-1.167969 3.691406-1.800782l4.34375-2.371093 5.660156-3.082031c1.703125 1.394531 3.53125 2.625 5.460938 3.675781 1.765625.992187 3.5 1.707031 5.246094 2.5625zm62.40625 39.757812c-3.925781 1.746094-8.296875 2.238281-12.511719 1.40625-4.960937-.339843-9.207031-3.683593-10.699218-8.429687-3.878907-11.78125-4.828126-24.332032-2.765626-36.566406 1.1875.078124 2.414063.28125 3.566407.28125 5.074219-.003907 10.117187-.820313 14.933593-2.414063.808594 4.976563 1.898438 9.902344 3.261719 14.753906.851563 2.824219 1.773438 5.617188 2.71875 8.414063 1.78125 4.847656 3.207031 9.820312 4.269531 14.875 1.003907 5.714844-1.519531 7.039062-2.757812 7.679687zm43.851563-71.875c.964843 4.4375.84375 9.046875-.359376 13.429688-.207031 1.308593-.902343 2.488281-1.945312 3.300781-.691406.117188-1.398438-.035156-1.988281-.417969-6.753907-3.457031-13.265625-7.367187-19.488281-11.707031l-2.320313-1.507812c.785156-2.175782 1.265625-4.445313 1.421875-6.75.046875-1.429688-.039062-2.855469-.253906-4.269532l21.664062 5.839844c3.003906.765625 3.109375 1.234375 3.285156 2.082031zm-43.820313-86.453125c-.078125.484375-.117187.96875-.117187 1.460938v.273437c-2.789063-5.863281-7.175782-10.820312-12.65625-14.304687-10.292969-6.015625-23.273438-4.839844-32.316407 2.9375-.511719.433594-1.03125.851562-1.570312 1.382812-2.050781 1.992188-3.863281 4.226563-5.390625 6.644532l-5.632813-37.640626c12.007813 5.5625 25.089844 8.417969 38.324219 8.371094 7.980469-.007812 15.929688-.980468 23.679688-2.890625.570312-.144531 1.066406-.382812 1.621093-.539062zm46.996094-102.867187c-1.515625-2.925781-3.929688-5.285157-6.886719-6.734375.441406-1.390625.777344-2.824219 1.109375-4.265625v-.078125c.074219-.230469.109375-.476563.167969-.707032.929687-4.183593 1.402344-8.457031 1.417968-12.742187-.015624-2.546875-.203124-5.089844-.554687-7.609375-.09375-.71875-.214844-1.417969-.332031-2.125-.328125-1.972656-.753906-3.925781-1.28125-5.855469-.152344-.570312-.273438-1.136719-.453125-1.707031-.722657-2.398438-1.601563-4.75-2.625-7.039062-.207031-.46875-.460938-.914063-.683594-1.375-.894531-1.875-1.890625-3.699219-2.980469-5.46875-.195312-.316407-.332031-.667969-.527344-.980469l14.386719-3.414063c17.660157-4.144531 35.875-5.371094 53.929688-3.628906-22.0625 20.214844-30.238281 51.480469-20.898438 79.90625l-31.570312-2.164062c.523437-4.785157-.242188-9.625-2.21875-14.011719zm53.253906 156.226562 15.832031 11.316407-7.972656 66.695312c-4.03125-1.8125-8.402344-2.753906-12.824219-2.765625-1.394531.027344-2.785156.144531-4.164062.351563zm-19.265625 103.570313c1.707031-7.226563 8.554688-12.03125 15.929688-11.179688 7.375.851563 12.945312 7.089844 12.964843 14.515625v.707031l-5.335937 93.925782c-15.707032-8.238282-34.269532-9.039063-50.628906-2.183594zm-46.710938 150.875c0-23.5625 19.101563-42.664063 42.664063-42.664063 23.566406 0 42.667969 19.101563 42.667969 42.664063zm153.597657 0c0-23.5625 19.101562-42.664063 42.667969-42.664063 23.5625 0 42.664062 19.101563 42.664062 42.664063zm65.707031-55.105469c-16.359375-6.863281-34.925781-6.058594-50.628906 2.191406l-5.347656-93.429687v-1.195313c.003906-8.058593 6.53125-14.589843 14.589843-14.59375 6.933594.007813 12.929688 4.839844 14.40625 11.613281zm-37.207031-123.734375c-1.382813-.210938-2.78125-.332031-4.179688-.359375-4.414062.011719-8.773437.957031-12.800781 2.765625l-7.96875-66.695312 15.828125-11.316407zm5.632812-114.226562c-.007812 4.433593-2.136719 8.597656-5.734375 11.195312l-39.933594 28.535156-.4375.066406c-14.667968 2.402344-29.632812 2.402344-44.304687 0l-40.378906-28.601562c-3.601563-2.59375-5.738281-6.757812-5.742188-11.195312v-7.902344c-.027343-9.625 4.722657-18.636719 12.679688-24.054688 16.988281 17.527344 34.507812 26.453125 52.199219 26.453125 1.117187 0 2.25-.0625 3.414062-.136719 1.132812.074219 2.257812.136719 3.410156.136719 17.675782 0 35.175782-8.953125 52.191406-26.503906 7.957032 5.425781 12.695313 14.457031 12.636719 24.089844zm4.730469-101.429688c9.332031-28.398438 1.183594-59.636719-20.839844-79.851562 18.019532-1.75 36.203125-.535157 53.828125 3.589843l14.386719 3.414063c-.214844.339844-.359375.71875-.570312 1.058594-1.058594 1.71875-2.023438 3.492187-2.894532 5.316406-.238281.496094-.511718.972656-.734375 1.476562-1.023437 2.273438-1.898437 4.609375-2.617187 6.996094-.171875.570312-.300782 1.160156-.460938 1.707031-.523437 1.921875-.949218 3.867188-1.273437 5.828125-.117188.707032-.238281 1.410156-.332031 2.117188-.351563 2.53125-.539063 5.085937-.554688 7.644531-.011719.777344.027344 1.550781.109375 2.320313v.105468c.128906 3.625.585937 7.230469 1.367187 10.777344 0 .082031 0 .167969.066407.253906.335937 1.460938.683593 2.910156 1.128906 4.308594-2.957031 1.449219-5.367187 3.8125-6.878906 6.734375-1.96875 4.390625-2.726563 9.230469-2.191407 14.011719zm76.421875 52.910156c7.75 1.910156 15.699219 2.878906 23.679687 2.890625 13.234376.046875 26.316407-2.8125 38.324219-8.378906l-5.582031 37.664063c-1.539062-2.4375-3.363281-4.6875-5.433594-6.695313-.496094-.460937-1.015625-.90625-1.527344-1.339844-9.046874-7.769531-22.027343-8.941406-32.316406-2.921875-5.476562 3.484375-9.859375 8.441406-12.648437 14.304688 0-.09375 0-.179688 0-.273438 0-.488281-.039063-.976562-.117188-1.460937l-5.972656-34.304688c.527344.148438 1.023437.386719 1.59375.53125zm-35.214844 136.53125c-.597656.367188-1.304687.515625-2 .417969-1.039062-.8125-1.734375-1.988281-1.945312-3.292969-1.199219-4.378906-1.324219-8.984375-.367188-13.421875.1875-.855469.292969-1.332031 3.296875-2.136719l21.664063-5.835937c-.214844 1.414063-.300781 2.839844-.253907 4.265625.15625 2.308594.636719 4.578125 1.421876 6.75l-2.320313 1.511719c-6.226563 4.355469-12.738281 8.285156-19.496094 11.757812zm62.777344 48.554688c-1.492187 4.75-5.75 8.097656-10.71875 8.429687-4.21875.832031-8.597656.339844-12.523437-1.414062-1.222657-.632813-3.746094-1.957031-2.722657-7.679688 1.058594-5.058593 2.484375-10.03125 4.265625-14.882812.945313-2.800781 1.886719-5.589844 2.722656-8.40625 1.363282-4.855469 2.449219-9.785157 3.257813-14.761719 4.816406 1.59375 9.855469 2.40625 14.925781 2.414062 1.160156 0 2.390625-.203124 3.574219-.28125 2.0625 12.238282 1.109375 24.796876-2.78125 36.582032zm48.375-17.136719c-.355469.105469-.628906.128906-.679687.214844-.625-.964844-1.175782-1.972657-1.648438-3.019531-.496094-1-.980469-1.964844-1.390625-2.6875l-.667969-1.214844c-1.636718-2.960938-3.257812-5.921875-4.871094-8.992188l-6.585937-12.269531c1.707031-.855469 3.480469-1.605469 5.253906-2.5625 1.929688-1.046875 3.757813-2.277344 5.453125-3.667969l5.660156 3.039063 4.265626 2.335937c1.175781.65625 2.449218 1.246094 3.738281 1.828125 1.410156.546875 2.753906 1.257813 4 2.125.375.589844.621093 1.25.71875 1.945313 1.363281 9.773437-4.09375 19.226562-13.246094 22.925781zm0 0"/><path d="m229.488281 64.453125c-2.105469-4.21875-7.234375-5.929687-11.453125-3.820313-4.214844 2.105469-5.929687 7.230469-3.820312 11.449219l8.53125 17.066407c1.363281 2.730468 4.078125 4.523437 7.121094 4.707031 3.046874.183593 5.957031-1.269531 7.640624-3.8125 1.679688-2.546875 1.875-5.792969.511719-8.523438zm0 0"/><path d="m293.890625 60.632812c-2.027344-1.015624-4.371094-1.179687-6.519531-.464843-2.148438.71875-3.921875 2.261719-4.933594 4.285156l-8.535156 17.066406c-2.105469 4.21875-.394532 9.347657 3.824218 11.453125 4.21875 2.105469 9.34375.394532 11.453126-3.824218l8.53125-17.066407c1.015624-2.023437 1.179687-4.371093.460937-6.515625-.714844-2.148437-2.257813-3.925781-4.28125-4.933594zm0 0"/></svg>