<svg height="504pt" viewBox="0 0 504 504.59858" width="504pt" xmlns="http://www.w3.org/2000/svg"><g fill="#424242"><path d="m67.101562 235.019531c9.257813-.03125 16.757813-7.527343 16.785157-16.789062v-17.878907l-20.480469-24.085937h-29.878906c-9.261719.027344-16.757813 7.523437-16.789063 16.785156v25.179688c.03125 9.261719 7.527344 16.757812 16.789063 16.789062zm0 0"/><path d="m436.796875 235.019531c-9.257813-.03125-16.757813-7.527343-16.785156-16.789062v-17.878907l20.480469-24.085937h29.878906c9.261718.027344 16.761718 7.523437 16.789062 16.785156v25.179688c-.027344 9.261719-7.527344 16.757812-16.789062 16.789062zm0 0"/><path d="m193.003906 352.527344v53.382812l-50.363281.167969v-70.339844zm0 0"/><path d="m360.871094 335.738281v70.171875l-50.359375.167969v-53.550781l33.574219-11.164063zm0 0"/></g><path d="m176.214844 352.527344v53.382812l-33.574219.082032v-64.628907zm0 0" fill="#9e9e9e"/><path d="m344.085938 341.363281v64.546875l-33.574219.082032v-53.464844zm0 0" fill="#9e9e9e"/><path d="m369.339844 490.890625c-21.601563 7.128906-44.921875 7.128906-66.527344 0-1.414062-.449219-2.519531-1.570313-2.945312-2.996094-7.167969-25.050781-7.167969-51.613281 0-76.664062.425781-1.425781 1.527343-2.550781 2.945312-2.996094 21.605469-7.125 44.925781-7.125 66.527344 0 1.421875.445313 2.523437 1.566406 2.945312 2.996094 7.160156 25.054687 7.160156 51.609375 0 76.664062-.425781 1.425781-1.527344 2.546875-2.945312 2.996094zm0 0" fill="#424242"/><path d="m201.472656 490.890625c-21.605468 7.128906-44.925781 7.128906-66.527344 0-1.417968-.449219-2.519531-1.570313-2.945312-2.996094-7.171875-25.050781-7.171875-51.613281 0-76.664062.421875-1.425781 1.527344-2.550781 2.945312-2.996094 21.601563-7.125 44.921876-7.125 66.527344 0 1.417969.445313 2.523438 1.566406 2.945313 2.996094 7.160156 25.054687 7.160156 51.609375 0 76.664062-.425781 1.425781-1.53125 2.546875-2.945313 2.996094zm0 0" fill="#424242"/><path d="m369.265625 310.558594c.035156 9.085937-2.914063 17.933594-8.394531 25.179687-1.171875 1.605469-2.460938 3.121094-3.859375 4.535157-7.898438 7.847656-18.582031 12.253906-29.714844 12.253906h-151.082031c-13.207032-.015625-25.640625-6.230469-33.574219-16.789063-5.480469-7.246093-8.429687-16.09375-8.390625-25.179687-.035156-11.140625 4.375-21.835938 12.253906-29.710938 7.875-7.878906 18.570313-12.289062 29.710938-12.257812h151.082031c23.179687 0 41.96875 18.792968 41.96875 41.96875zm0 0" fill="#37474f"/><path d="m348.28125 310.558594c.035156 9.085937-2.914062 17.933594-8.394531 25.179687-1.171875 1.605469-2.460938 3.121094-3.859375 4.535157-7.898438 7.847656-18.578125 12.253906-29.714844 12.253906h-130.097656c-13.207032-.015625-25.640625-6.230469-33.574219-16.789063-5.480469-7.246093-8.429687-16.09375-8.390625-25.179687-.035156-11.140625 4.375-21.835938 12.253906-29.710938 7.875-7.878906 18.570313-12.289062 29.710938-12.257812h130.097656c23.179688 0 41.96875 18.792968 41.96875 41.96875zm0 0" fill="#607d8b"/><path d="m310.511719 200.183594v85.195312c0 11.414063-9.90625 18.296875-25.179688 21.90625-5.492187 1.3125-11.078125 2.183594-16.703125 2.601563-5.375.421875-10.996094.671875-16.871094.671875-2.769531 0-5.457031-.082032-8.144531-.167969h-.503906c-2.851563-.167969-5.621094-.335937-8.222656-.585937-2.855469-.167969-5.625-.503907-8.3125-.925782-2.9375-.417968-5.707031-1.007812-8.390625-1.59375-15.277344-3.609375-25.179688-10.492187-25.179688-21.90625v-84.605468l100.71875-.503907zm0 0" fill="#9e9e9e"/><path d="m293.722656 200.269531v85.109375c0 11.414063-9.902344 18.296875-25.179687 21.90625-5.488281 1.3125-11.074219 2.183594-16.703125 2.601563l-8.226563.503906h-.503906c-2.851563-.167969-5.621094-.335937-8.222656-.585937-2.855469-.167969-5.625-.503907-8.3125-.925782-2.9375-.417968-5.707031-1.007812-8.390625-1.59375-15.277344-3.609375-25.179688-10.492187-25.179688-21.90625v-84.605468zm0 0" fill="#cfd8dc"/><path d="m453.199219 151.417969c-.058594 3.78125-1.527344 7.402343-4.113281 10.15625l-15.277344 25.097656c-3.863282 6.289063-9.378906 11.398437-15.945313 14.773437l-61.1875 32.0625c-17.125 9.230469-33.070312 4.195313-47.761719-4.199218-7.71875-4.445313-15.023437-9.820313-21.90625-14.519532-6.75-4.667968-14.417968-7.84375-22.492187-9.316406-4.207031-.847656-8.472656-1.355468-12.757813-1.511718-12.554687.109374-24.804687 3.871093-35.253906 10.828124-20.144531 13.765626-43.5625 32.820313-69.664062 18.71875l-7.304688-3.777343-53.886718-28.285157c-6.5625-3.375-12.078126-8.484374-15.945313-14.773437l-15.277344-25.097656c-2.585937-2.753907-4.054687-6.375-4.113281-10.15625-.167969-78.980469 68.40625-143.023438 153.097656-143.023438h96.691406c16.832032-.027343 33.5625 2.550781 49.605469 7.636719 60.351563 19.222656 103.660157 72.605469 103.492188 135.386719zm0 0" fill="#37474f"/><path d="m432.214844 143.027344c-.058594 3.777344-1.523438 7.398437-4.113282 10.15625l-15.273437 25.09375c-3.867187 6.289062-9.382813 11.398437-15.949219 14.773437l-61.1875 32.0625c-8.125 4.589844-17.636718 6.078125-26.777344 4.195313-15.527343-2.9375-29.964843-14.015625-42.890624-22.914063-.484376-.335937-.988282-.644531-1.507813-.921875-21.109375-13.535156-48.257813-13.171875-68.996094.921875-16.535156 11.332031-35.335937 26.1875-55.984375 23.335938l-53.886718-28.285157c-6.5625-3.375-12.078126-8.484374-15.945313-14.773437l-15.277344-25.097656c-2.585937-2.753907-4.054687-6.375-4.113281-10.15625-.167969-78.980469 68.40625-143.023438 153.097656-143.023438h96.691406c16.832032-.027343 33.5625 2.550781 49.605469 7.636719 49.671875 22.90625 81.765625 72.304688 82.507813 126.996094zm0 0" fill="#607d8b"/><path d="m318.902344 92.328125c0 18.550781-8.476563 33.574219-18.800782 33.574219h-113.058593c-10.324219 0-18.800781-15.023438-18.800781-33.574219 0-18.546875 8.476562-33.574219 18.800781-33.574219h113.058593c10.324219 0 18.800782 15.027344 18.800782 33.574219zm0 0" fill="#cfd8dc"/><path d="m33.527344 286.890625v-51.871094c.027344-9.261719 7.527344-16.761719 16.785156-16.789062 9.242188.070312 16.71875 7.542969 16.789062 16.789062v51.871094zm0 0" fill="#cfd8dc"/><path d="m50.3125 420.175781v24.679688c0 9.269531-7.515625 16.785156-16.785156 16.785156-9.273438 0-16.789063-7.515625-16.789063-16.785156v-32.652344zm0 0" fill="#424242"/><path d="m83.886719 412.203125v32.652344c0 9.269531-7.515625 16.785156-16.785157 16.785156-9.273437 0-16.789062-7.515625-16.789062-16.785156v-24.679688zm0 0" fill="#424242"/><path d="m436.796875 286.890625v-51.871094c.070313-9.246093 7.546875-16.71875 16.789063-16.789062 9.257812.027343 16.757812 7.527343 16.785156 16.789062v51.871094zm0 0" fill="#cfd8dc"/><path d="m487.160156 412.203125v32.652344c0 9.269531-7.515625 16.785156-16.789062 16.785156-9.269532 0-16.785156-7.515625-16.785156-16.785156v-24.679688zm0 0" fill="#424242"/><path d="m453.585938 420.175781v24.679688c0 9.269531-7.515626 16.785156-16.789063 16.785156-9.269531 0-16.785156-7.515625-16.785156-16.785156v-32.652344zm0 0" fill="#424242"/><path d="m86.320312 409.183594c-.296874 1.394531-1.230468 2.570312-2.515624 3.1875-12.953126 6.277344-27.402344 8.808594-41.714844 7.300781h-.335938c-8.632812-1.160156-17.035156-3.621094-24.929687-7.300781-1.289063-.617188-2.21875-1.792969-2.519531-3.1875-7.46875-37.402344-7.46875-75.914063 0-113.3125.300781-1.398438 1.230468-2.574219 2.519531-3.191406 7.953125-3.667969 16.414062-6.128907 25.097656-7.300782 14.367187-1.546875 28.882813.984375 41.882813 7.300782 1.285156.617187 2.21875 1.792968 2.515624 3.191406 7.472657 37.398437 7.472657 75.910156 0 113.3125zm0 0" fill="#424242"/><path d="m489.542969 409.183594c-.265625 1.382812-1.167969 2.566406-2.433594 3.1875-12.953125 6.277344-27.402344 8.808594-41.714844 7.300781h-.335937c-8.632813-1.160156-17.035156-3.621094-24.929688-7.300781-1.308594-.589844-2.25-1.78125-2.519531-3.1875-7.46875-37.402344-7.46875-75.914063 0-113.3125.269531-1.410156 1.210937-2.601563 2.519531-3.191406 7.949219-3.679688 16.410156-6.140626 25.097656-7.300782 14.367188-1.546875 28.882813.984375 41.882813 7.300782 1.265625.625 2.167969 1.804687 2.433594 3.191406 7.46875 37.398437 7.46875 75.910156 0 113.3125zm0 0" fill="#424242"/><path d="m69.535156 409.183594c-.300781 1.394531-1.230468 2.570312-2.519531 3.1875-7.890625 3.679687-16.296875 6.140625-24.925781 7.300781h-.335938c-8.632812-1.160156-17.035156-3.621094-24.929687-7.300781-1.289063-.617188-2.21875-1.792969-2.519531-3.1875-7.46875-37.402344-7.46875-75.914063 0-113.3125.300781-1.398438 1.230468-2.574219 2.519531-3.191406 7.953125-3.667969 16.414062-6.128907 25.097656-7.300782 8.679687 1.171875 17.140625 3.632813 25.09375 7.300782 1.289063.617187 2.21875 1.792968 2.519531 3.191406 7.46875 37.398437 7.46875 75.910156 0 113.3125zm0 0" fill="#9e9e9e"/><path d="m472.753906 409.183594c-.265625 1.382812-1.164062 2.566406-2.433594 3.1875-7.890624 3.679687-16.296874 6.140625-24.925781 7.300781h-.335937c-8.632813-1.160156-17.035156-3.621094-24.929688-7.300781-1.308594-.589844-2.25-1.78125-2.519531-3.1875-7.46875-37.402344-7.46875-75.914063 0-113.3125.269531-1.410156 1.210937-2.601563 2.519531-3.191406 7.949219-3.679688 16.410156-6.140626 25.097656-7.300782 8.679688 1.171875 17.140626 3.632813 25.09375 7.300782 1.269532.625 2.167969 1.804687 2.433594 3.191406 7.472656 37.398437 7.472656 75.910156 0 113.3125zm0 0" fill="#9e9e9e"/><path d="m352.476562 92.328125c0 18.550781-7.554687 33.574219-16.785156 33.574219h-33.574218c9.234374 0 16.785156-15.023438 16.785156-33.574219 0-18.546875-7.550782-33.574219-16.785156-33.574219h33.574218c9.230469 0 16.785156 15.027344 16.785156 33.574219zm0 0" fill="#424242"/><path d="m201.394531 125.902344h-33.574219c-9.230468 0-16.785156-15.023438-16.785156-33.574219 0-18.546875 7.554688-33.574219 16.785156-33.574219h33.574219c-9.230469 0-16.785156 15.027344-16.785156 33.574219 0 18.550781 7.554687 33.574219 16.785156 33.574219zm0 0" fill="#9e9e9e"/><path d="m226.574219 125.902344h50.363281v16.789062c0 9.269532-7.515625 16.785156-16.789062 16.785156h-16.785157c-9.273437 0-16.789062-7.515624-16.789062-16.785156zm0 0" fill="#5e5f62"/><path d="m226.574219 92.328125c0 4.636719-3.757813 8.394531-8.390625 8.394531-4.636719 0-8.394532-3.757812-8.394532-8.394531 0-4.632813 3.757813-8.390625 8.394532-8.390625 4.632812 0 8.390625 3.757812 8.390625 8.390625zm0 0"/><path d="m293.722656 92.328125c0 4.636719-3.757812 8.394531-8.390625 8.394531-4.636719 0-8.394531-3.757812-8.394531-8.394531 0-4.632813 3.757812-8.390625 8.394531-8.390625 4.632813 0 8.390625 3.757812 8.390625 8.390625zm0 0"/><path d="m125.855469 167.871094c0 4.636718-3.757813 8.394531-8.394531 8.394531-4.636719 0-8.394532-3.757813-8.394532-8.394531 0-4.636719 3.757813-8.394532 8.394532-8.394532 4.636718 0 8.394531 3.757813 8.394531 8.394532zm0 0"/><path d="m159.429688 167.871094c0 4.636718-3.757813 8.394531-8.394532 8.394531-4.636718 0-8.394531-3.757813-8.394531-8.394531 0-4.636719 3.757813-8.394532 8.394531-8.394532 4.636719 0 8.394532 3.757813 8.394532 8.394532zm0 0"/><path d="m193.003906 167.871094c0 4.636718-3.757812 8.394531-8.394531 8.394531s-8.394531-3.757813-8.394531-8.394531c0-4.636719 3.757812-8.394532 8.394531-8.394532s8.394531 3.757813 8.394531 8.394532zm0 0"/><path d="m335.691406 50.363281h-167.871094c-14.351562 0-25.179687 18.035157-25.179687 41.964844s10.828125 41.96875 25.179687 41.96875h50.363282v8.394531c0 13.90625 11.273437 25.179688 25.179687 25.179688h16.785157c13.90625 0 25.183593-11.273438 25.183593-25.179688v-8.394531h50.359375c14.351563 0 25.179688-18.039063 25.179688-41.96875s-10.828125-41.964844-25.179688-41.964844zm-25.179687 41.964844c0 17.082031-6.714844 25.179687-8.394531 25.179687h-100.722657c-1.675781 0-8.390625-8.097656-8.390625-25.179687 0-17.078125 6.714844-25.179687 8.390625-25.179687h100.722657c1.679687 0 8.394531 8.101562 8.394531 25.179687zm-142.691407-25.179687h13.253907c-3.324219 7.972656-4.980469 16.542968-4.859375 25.179687-.121094 8.640625 1.535156 17.210937 4.859375 25.179687h-13.253907c-1.675781 0-8.390624-8.097656-8.390624-25.179687 0-17.078125 6.714843-25.179687 8.390624-25.179687zm100.722657 75.542968c0 4.632813-3.757813 8.390625-8.394531 8.390625h-16.785157c-4.636719 0-8.394531-3.757812-8.394531-8.390625v-8.394531h33.574219zm67.148437-25.183594h-13.253906c3.328125-7.96875 4.980469-16.539062 4.859375-25.179687.121094-8.636719-1.53125-17.207031-4.859375-25.179687h13.253906c1.679688 0 8.394532 8.101562 8.394532 25.179687 0 17.082031-6.714844 25.179687-8.394532 25.179687zm0 0"/><path d="m492.730469 286.09375c-4.523438-2.128906-9.191407-3.945312-13.964844-5.441406v-38.785156c10.023437-3.542969 16.742187-13.003907 16.785156-23.636719v-25.179688c0-13.90625-11.273437-25.179687-25.179687-25.179687h-15.257813l.839844-1.320313c3.605469-4.210937 5.613281-9.558593 5.671875-15.105469-.054688-38.894531-15.695312-76.144531-43.425781-103.417968-31.496094-30.949219-73.9375-48.210938-118.097657-48.027344h-96.691406c-44.15625-.183594-86.601562 17.078125-118.097656 48.027344-27.714844 27.277344-43.34375 64.523437-43.390625 103.410156.058594 5.542969 2.066406 10.890625 5.671875 15.105469l.839844 1.320312h-14.90625c-13.90625 0-25.179688 11.273438-25.179688 25.179688v25.179687c.042969 10.632813 6.761719 20.089844 16.785156 23.636719v38.785156c-4.773437 1.492188-9.4375 3.3125-13.964843 5.4375-2.375 1.128907-4.082031 3.304688-4.617188 5.878907-8.335937 39.941406-8.335937 81.171874 0 121.117187.292969 1.335937.910157 2.582031 1.796875 3.625v28.152344c-.046875 9.949219 5.800782 18.984375 14.894532 23.023437 9.097656 4.039063 19.71875 2.316406 27.070312-4.390625 7.351562 6.707031 17.976562 8.429688 27.070312 4.390625 9.097657-4.039062 14.941407-13.074218 14.898438-23.023437v-28.152344c.882812-1.042969 1.5-2.285156 1.796875-3.617187 8.324219-39.945313 8.324219-81.175782 0-121.117188-.535156-2.574219-2.242187-4.75-4.617187-5.875-4.527344-2.128906-9.191407-3.945312-13.96875-5.441406v-38.785156c10.027343-3.542969 16.746093-13.003907 16.789062-23.636719v-3.828125l50.527344 26.492187c7.046875 3.949219 14.980468 6.042969 23.058594 6.085938 6.417968-.113281 12.761718-1.363281 18.742187-3.695313v16.914063h-8.394531c-13.367188-.035157-26.195313 5.261719-35.648438 14.710937-9.449218 9.453125-14.746094 22.28125-14.710937 35.648438 0 9.824218 2.921875 19.421875 8.394531 27.582031v61.625c-1.402344.410156-2.78125.753906-4.199219 1.214844-2.609375.855469-4.632812 2.9375-5.421875 5.566406-5.144531 16.90625-7.207031 34.597656-6.09375 52.230469-15.082031 6.019531-25.316406 20.226562-26.253906 36.4375 0 4.636718 3.757812 8.394531 8.394531 8.394531 4.632813 0 8.390625-3.757813 8.390625-8.394531.5-7.761719 4.933594-14.726563 11.753906-18.464844.972657 5.328125 2.230469 10.601562 3.765626 15.796875.792968 2.625 2.816406 4.699219 5.421874 5.554687 12.289063 4.195313 25.171876 6.390626 38.160157 6.496094 12.984375-.105468 25.867187-2.300781 38.15625-6.496094 2.605469-.855468 4.628906-2.929687 5.421875-5.554687 1.488281-5.050781 2.71875-10.175781 3.683594-15.351563 6.511718 3.746094 10.699218 10.519532 11.144531 18.019532 0 4.636718 3.757812 8.394531 8.394531 8.394531s8.394531-3.757813 8.394531-8.394531c-.859375-15.917969-10.777343-29.925782-25.5-36.035156 1.171875-17.765626-.886719-35.597657-6.078125-52.632813-.785156-2.628906-2.8125-4.710937-5.421875-5.566406-1.675781-.542969-3.3125-.957031-4.96875-1.441407v-38.621093h100.722657v38.847656c-1.402344.410156-2.777344.753906-4.195313 1.214844-2.609375.855469-4.636719 2.9375-5.421875 5.566406-5.144531 16.90625-7.210938 34.597656-6.09375 52.230469-15.082031 6.019531-25.320312 20.226562-26.257812 36.4375 0 4.636718 3.757812 8.394531 8.394531 8.394531s8.394531-3.757813 8.394531-8.394531c.507812-7.769532 4.957031-14.738282 11.792969-18.464844.972656 5.328125 2.234375 10.601562 3.769531 15.796875.789062 2.625 2.8125 4.699219 5.421875 5.554687 24.699219 8.664063 51.609375 8.664063 76.3125 0 2.605469-.855468 4.628906-2.929687 5.421875-5.554687 1.488281-5.050781 2.71875-10.175781 3.683594-15.351563 6.496094 3.757813 10.667968 10.527344 11.105468 18.019532 0 4.636718 3.757813 8.394531 8.394532 8.394531 4.632812 0 8.390625-3.757813 8.390625-8.394531-.859375-15.917969-10.773438-29.925782-25.496094-36.035156 1.167969-17.765626-.890625-35.597657-6.078125-52.632813-.789062-2.628906-2.8125-4.710937-5.421875-5.566406-1.679687-.542969-3.316406-.957031-4.96875-1.441407v-61.398437c5.464844-8.160156 8.386719-17.761719 8.390625-27.582031-.027344-27.800782-22.558594-50.332032-50.359375-50.359375h-8.394531v-16.898438c5.988281 2.320313 12.339844 3.558594 18.761718 3.660157 8.039063-.046876 15.933594-2.128907 22.945313-6.058594l51.007813-26.699219v4.027344c.042968 10.632812 6.761718 20.09375 16.789062 23.636719v38.785156c-4.773438 1.496094-9.441406 3.3125-13.96875 5.441406-2.375 1.125-4.082031 3.300781-4.617188 5.875-8.332031 39.941406-8.332031 81.171875 0 121.117188.296876 1.332031.914063 2.574218 1.796876 3.617187v28.152344c-.042969 9.949219 5.800781 18.984375 14.898437 23.023437 9.09375 4.039063 19.71875 2.316406 27.070313-4.390625 7.351562 6.707031 17.972656 8.429688 27.070312 4.390625 9.09375-4.039062 14.941406-13.074218 14.894531-23.023437v-28.152344c.886719-1.042969 1.503907-2.285156 1.796875-3.617187 8.335938-39.945313 8.335938-81.175782 0-121.117188-.535156-2.574219-2.242187-4.75-4.617187-5.875zm-22.359375-101.4375c4.636718 0 8.394531 3.757812 8.394531 8.394531v25.179688c.003906 2.253906-.90625 4.414062-2.519531 5.984375-4.148438-8.761719-12.964844-14.359375-22.660156-14.378906-9.699219.003906-18.523438 5.601562-22.664063 14.371093-1.609375-1.570312-2.519531-3.726562-2.515625-5.976562v-13.578125c5.011719-3.679688 9.269531-8.285156 12.539062-13.574219l3.917969-6.421875zm-436.84375 268.589844c-4.636719 0-8.394532-3.757813-8.394532-8.390625v-20.457031c5.460938 1.777343 11.085938 3.003906 16.789063 3.667968v16.789063c0 2.222656-.886719 4.359375-2.460937 5.933593-1.574219 1.574219-3.707032 2.457032-5.933594 2.457032zm33.574218 0c-4.636718 0-8.394531-3.757813-8.394531-8.390625v-16.789063c5.703125-.675781 11.328125-1.914062 16.785157-3.699218v20.488281c0 4.632812-3.757813 8.390625-8.390626 8.390625zm11.363282-47.730469c-8.839844 4-18.40625 6.136719-28.109375 6.277344h-.09375c-9.695313-.140625-19.261719-2.277344-28.097657-6.277344-6.765624-35-6.765624-70.96875 0-105.96875 17.828126-8.386719 38.46875-8.386719 56.300782 0 6.757812 35 6.757812 70.96875 0 105.96875zm-36.542969-128.53125v-41.964844c0-4.636719 3.757813-8.394531 8.390625-8.394531 2.265625-.003906 4.433594.925781 5.984375 2.578125 1.5625 1.53125 2.429687 3.628906 2.410156 5.816406v41.964844c-5.578125-.613281-11.207031-.613281-16.785156 0zm31.054687-52.753906c-1.183593-2.554688-2.8125-4.878907-4.808593-6.863281-4.675781-4.84375-11.125-7.5625-17.855469-7.53125-9.695312.019531-18.511719 5.617187-22.660156 14.378906-1.613282-1.570313-2.523438-3.730469-2.519532-5.984375v-25.179688c0-4.636719 3.757813-8.394531 8.394532-8.394531h25.121094l3.917968 6.414062c3.347656 5.4375 7.742188 10.160157 12.925782 13.890626v13.269531c.003906 2.25-.90625 4.402343-2.515626 5.96875zm143.417969.839843 1.789063-1.242187v74.8125c-8.949219-2.351563-16.789063-6.363281-16.789063-13.261719v-50.359375c5.253907-3.226562 10.273438-6.675781 15-9.964843zm35.363281-12.714843c5.6875.183593 11.332032 1.097656 16.785157 2.726562v86.285157c-5.152344.480468-10.667969.796874-16.785157.796874-6.121093 0-11.632812-.335937-16.789062-.839843v-86.207031c5.453125-1.640626 11.097656-2.570313 16.789062-2.761719zm-50.460937 241.042969c-3.773437-.003907-7.070313 2.539062-8.027344 6.1875-1.136719 4.488281 1.578125 9.054687 6.070313 10.195312l.402344.109375c-.707032 4.582031-1.652344 9.125-2.828126 13.605469-6.75 2.019531-13.683593 3.359375-20.699218 3.996094v-25.851563c0-4.636719-3.757813-8.394531-8.394532-8.394531-4.632812 0-8.390624 3.757812-8.390624 8.394531v25.769531c-6.753907-.667968-13.425782-1.976562-19.925782-3.914062-1.207031-4.570313-2.164062-9.199219-2.871094-13.875 3.835938-1.101563 6.34375-4.78125 5.972657-8.757813-.371094-3.972656-3.515625-7.125-7.492188-7.5-.386719-12.734375 1.089844-25.460937 4.390625-37.769531 18.691406-5.832031 38.71875-5.832031 57.410156 0 3.296876 12.320312 4.773438 25.058594 4.382813 37.804688zm-16.6875-57.597657c-11.128906-1.683593-22.453125-1.652343-33.574219.101563v-41.867188c7.644532 4.46875 16.328125 6.839844 25.179688 6.882813h8.394531zm184.554687 57.597657c-3.773437-.007813-7.070312 2.535156-8.023437 6.1875-1.140625 4.488281 1.578125 9.054687 6.066406 10.195312l.402344.109375c-.707031 4.582031-1.648437 9.125-2.828125 13.605469-6.746094 2.019531-13.679688 3.359375-20.695312 3.996094v-25.851563c0-4.636719-3.757813-8.394531-8.394532-8.394531-4.636718 0-8.394531 3.757812-8.394531 8.394531v25.769531c-6.75-.667968-13.421875-1.976562-19.925781-3.914062-1.203125-4.570313-2.164063-9.199219-2.871094-13.875 3.839844-1.101563 6.347656-4.78125 5.976562-8.757813-.371093-3.972656-3.519531-7.125-7.496093-7.5-.382813-12.734375 1.097656-25.460937 4.390625-37.769531 18.691406-5.832031 38.71875-5.832031 57.410156 0 3.300781 12.320312 4.777344 25.058594 4.382812 37.804688zm-50.261718-57.496094v-34.984375h8.394531c8.84375 0 17.53125-2.335938 25.179687-6.773438v41.65625c-11.128906-1.683593-22.453124-1.652343-33.574218.101563zm8.394531-118.917969c18.542969 0 33.574219 15.03125 33.574219 33.574219.039062 7.300781-2.339844 14.410156-6.773438 20.210937-.898437 1.257813-1.898437 2.4375-2.988281 3.535157-6.320313 6.300781-14.886719 9.835937-23.8125 9.828124h-151.082031c-10.558594-.039062-20.492188-5.007812-26.859375-13.429687-4.398438-5.789063-6.761719-12.871094-6.714844-20.144531-.035156-8.914063 3.492187-17.476563 9.792969-23.78125 6.304687-6.300782 14.867187-9.828125 23.78125-9.792969h8.394531v8.394531c0 11.75 7.066406 26.859375 40.691406 31.792969 8.757813 1.269531 17.605469 1.867187 26.457031 1.78125 55.496094 0 67.144532-18.257813 67.144532-33.574219v-8.394531zm-25.179687 8.394531c0 5.757813-6.144532 10.238282-16.785157 13.144532v-74.703126l1.785157 1.234376c4.726562 3.289062 9.746093 6.714843 15 9.9375zm50.605468-59.292968c-11.597656 5.746093-25.367187 4.914062-36.1875-2.1875-1.011718-.957032-2.25-1.636719-3.597656-1.984376-5.472656-3.164062-10.914062-6.914062-16.234375-10.632812l-4.96875-3.441406c-3.535156-2.359375-7.285156-4.375-11.207031-6.019532-.257813-.121093-.523438-.222656-.796875-.308593-8.777344-3.640625-18.140625-5.652344-27.636719-5.941407-.121094 0-.21875.046876-.335938.046876-.117187 0-.21875-.058594-.335937-.046876-9.492187.285157-18.847656 2.289063-27.625 5.914063-.285156.09375-.5625.199219-.839844.320313-3.914062 1.652343-7.660156 3.667968-11.195312 6.027343l-4.96875 3.433594c-17.929688 12.480469-36.460938 25.363281-56.117188 14.753906l-61.148437-32.011719c-5.199219-2.679687-9.570313-6.726562-12.648438-11.699218l-15.316406-25.097656c-.265625-.429688-.570312-.835938-.90625-1.207032-1.191406-1.25-1.886719-2.886718-1.949219-4.609375.078125-34.417969 13.941407-67.367187 38.492188-91.488281 28.335937-27.8125 66.507812-43.308594 106.210937-43.117188h96.691406c39.699219-.199218 77.871094 15.289063 106.210938 43.089844 24.558594 24.128906 38.425781 57.09375 38.492188 91.523438-.0625 1.71875-.757813 3.355468-1.945313 4.601562-.339844.371094-.640625.777344-.90625 1.207032l-15.335937 25.121093c-3.078126 4.972657-7.453126 9.011719-12.648438 11.691407zm92.46875 8.933593c-.007812-2.265625.925782-4.433593 2.578125-5.984375 1.53125-1.5625 3.628907-2.429687 5.816407-2.410156 4.632812 0 8.394531 3.757812 8.394531 8.394531v41.964844c-5.582031-.613281-11.210938-.613281-16.789063 0zm-19.765625 64.527344c17.832031-8.386719 38.476563-8.386719 56.3125 0 6.761719 35 6.761719 70.96875 0 105.96875-8.839843 3.996094-18.402343 6.132813-28.101562 6.277344h-.101563c-9.703125-.144531-19.269531-2.28125-28.109375-6.277344-6.757812-35-6.757812-70.96875 0-105.96875zm11.371094 153.699219c-4.632813 0-8.390625-3.757813-8.390625-8.390625v-20.457031c5.457031 1.789062 11.082031 3.027343 16.785156 3.703124v16.785157c-.019531 4.625-3.769531 8.359375-8.394531 8.359375zm33.574219 0c-4.632813 0-8.390625-3.757813-8.390625-8.390625v-16.789063c5.703125-.675781 11.324219-1.914062 16.785156-3.699218v20.488281c0 4.632812-3.757813 8.390625-8.394531 8.390625zm0 0"/><path d="m344.085938 159.476562h-25.183594c-4.632813 0-8.390625 3.757813-8.390625 8.394532 0 4.636718 3.757812 8.394531 8.390625 8.394531h25.183594c4.632812 0 8.390624-3.757813 8.390624-8.394531 0-4.636719-3.757812-8.394532-8.390624-8.394532zm0 0"/><path d="m386.050781 159.476562h-8.394531c-4.632812 0-8.390625 3.757813-8.390625 8.394532 0 4.636718 3.757813 8.394531 8.390625 8.394531h8.394531c4.636719 0 8.394531-3.757813 8.394531-8.394531 0-4.636719-3.757812-8.394532-8.394531-8.394532zm0 0"/></svg>