<svg height="512pt" viewBox="-51 0 512 512.05144" width="512pt" xmlns="http://www.w3.org/2000/svg"><path d="m230.429688 439.039062v21.761719c-.027344 9.414063-7.652344 17.039063-17.066407 17.066407h-17.066406c-.714844-.011719-1.429687-.070313-2.136719-.171876-8.519531-1.074218-14.914062-8.308593-14.929687-16.894531v-21.761719zm0 0" fill="#f57c00"/><path d="m209.09375 439.039062v21.761719c-.015625 8.585938-6.414062 15.820313-14.933594 16.894531-8.519531-1.074218-14.914062-8.308593-14.929687-16.894531v-21.761719zm0 0" fill="#ff9801"/><path d="m95.003906 393.898438v2.132812c-.898437 10.691406-.640625 21.449219.769532 32.085938 3.148437 10.371093 8.976562 19.734374 16.894531 27.136718 4.792969 4.90625 9.925781 9.46875 15.359375 13.652344 5.050781 2.984375 9.390625 7.03125 12.714844 11.863281 2.316406 6.542969-.757813 13.769531-7.082032 16.636719-.964844.539062-1.996094.941406-3.070312 1.195312-8.019532 1.058594-16.117188-1.257812-22.359375-6.398437-6.996094-4.4375-14.164063-8.875-20.90625-13.738281-11.652344-8.269532-20.257813-20.144532-24.492188-33.792969-5.460937-18.433594-1.960937-37.546875-1.960937-56.320313v-9.386718zm0 0" fill="#cfd8dc"/><path d="m348.785156 378.964844v9.386718c0 18.773438 3.5 37.886719-1.960937 56.320313-4.230469 13.648437-12.839844 25.523437-24.492188 33.792969-6.742187 4.863281-13.910156 9.300781-20.90625 13.738281-6.242187 5.140625-14.339843 7.457031-22.355469 6.398437-1.074218-.253906-2.109374-.65625-3.074218-1.195312-6.320313-2.867188-9.398438-10.09375-7.082032-16.636719 3.324219-4.832031 7.664063-8.878906 12.714844-11.863281 5.433594-4.183594 10.566406-8.746094 15.359375-13.652344 7.917969-7.402344 13.746094-16.765625 16.894531-27.136718 1.410157-10.636719 1.667969-21.394532.769532-32.085938v-2.132812zm0 0" fill="#cfd8dc"/><path d="m303.644531 401.238281c-12.410156 25.96875-38.632812 42.496094-67.414062 42.496094h-62.804688c-28.78125 0-55-16.53125-67.414062-42.496094zm0 0" fill="#37474f"/><path d="m278.042969 401.238281c-12.40625 25.96875-38.632813 42.496094-67.410157 42.496094h-37.207031c-28.78125 0-55-16.53125-67.414062-42.496094zm0 0" fill="#607d8b"/><path d="m366.960938 358.398438c0 29.867187-72.617188 54.015624-162.132813 54.015624-31.300781.226563-62.53125-3.0625-93.097656-9.8125-41.730469-9.726562-69.035157-25.855468-69.035157-44.203124.058594-3.605469 1.058594-7.136719 2.902344-10.238282 4.078125-14.253906 12.671875-26.800781 24.488282-35.753906 10.371093-7.847656 22.789062-12.527344 35.757812-13.484375h197.972656c28.402344 2.199219 52.433594 21.84375 60.246094 49.238281 1.839844 3.101563 2.839844 6.632813 2.898438 10.238282zm0 0" fill="#d84315"/><path d="m345.355469 354.132812c-.078125 16.792969-19.371094 26.957032-33.785157 33.136719-19.695312 7.957031-40.328124 13.375-61.394531 16.117188-22.078125 3.246093-44.367187 4.835937-66.679687 4.761719-24.03125.054687-48.027344-1.800782-71.765625-5.546876-41.730469-9.726562-69.035157-25.855468-69.035157-44.203124.058594-3.605469 1.058594-7.136719 2.902344-10.238282 4.078125-14.253906 12.671875-26.800781 24.488282-35.753906 10.371093-7.847656 22.789062-12.527344 35.757812-13.484375h195.582031c4.535157 1.167969 8.765625 3.289063 12.40625 6.230469 4.285157 2.726562 8.253907 5.925781 11.828125 9.53125 8.367188 9.007812 14.636719 19.753906 18.363282 31.472656.871093 2.570312 1.320312 5.261719 1.332031 7.976562zm0 0" fill="#ff5722"/><path d="m307.230469 221.867188v72.53125c-.113281 3.234374-1.316407 6.332031-3.414063 8.789062-11.605468 14.59375-51.542968 25.347656-98.988281 25.347656-2.816406 0-5.546875 0-8.277344-.085937h-.511719c-43.519531-1.28125-79.273437-11.605469-90.195312-25.261719-2.101562-2.457031-3.304688-5.554688-3.414062-8.789062v-72.53125zm0 0" fill="#f57c00"/><path d="m285.894531 221.867188v72.53125c-.109375 3.234374-1.3125 6.332031-3.414062 8.789062-10.921875 13.65625-46.675781 23.980469-90.195313 25.261719h-.511718c-43.519532-1.28125-79.277344-11.605469-90.199219-25.261719-2.097657-2.457031-3.304688-5.554688-3.414063-8.789062v-72.53125zm0 0" fill="#ff9801"/><path d="m401.09375 145.066406c.039062 27.167969-10.738281 53.238282-29.949219 72.449219-19.214843 19.210937-45.28125 29.988281-72.449219 29.949219h-187.734374c-54.960938.097656-100.199219-43.210938-102.492188-98.128906-2.292969-54.914063 39.179688-101.84375 93.960938-106.328126h204.800781c53.0625 4.4375 93.871093 48.808594 93.863281 102.058594zm0 0" fill="#4e342e"/><path d="m375.496094 145.066406c.035156 27.167969-10.742188 53.238282-29.953125 72.449219-19.210938 19.210937-45.277344 29.988281-72.449219 29.949219h-162.132812c-54.960938.097656-100.199219-43.210938-102.492188-98.128906-2.292969-54.914063 39.179688-101.84375 93.960938-106.328126h179.199218c53.066406 4.4375 93.875 48.808594 93.867188 102.058594zm0 0" fill="#795548"/><path d="m401.09375 145.066406h-392.53125c-.070312-53.273437 40.769531-97.679687 93.867188-102.058594h204.800781c53.0625 4.4375 93.871093 48.808594 93.863281 102.058594zm0 0" fill="#ffb301"/><path d="m375.496094 145.066406h-366.933594c-.070312-53.273437 40.769531-97.679687 93.867188-102.058594h179.199218c53.066406 4.4375 93.875 48.808594 93.867188 102.058594zm0 0" fill="#fec108"/><path d="m307.230469 42.667969c0 18.855469-45.824219 34.132812-102.402344 34.132812-3.582031 0-6.996094-.085937-10.496094-.171875h-.339843c-51.457032-1.792968-91.5625-16.296875-91.5625-33.960937 0-17.664063 40.105468-32.171875 91.5625-33.964844h.339843c3.5-.085937 6.914063-.167969 10.496094-.167969 56.578125 0 102.402344 15.273438 102.402344 34.132813zm0 0" fill="#f57c00"/><path d="m285.894531 42.667969c0 17.664062-40.105469 32.167969-91.5625 33.960937h-.339843c-51.457032-1.792968-91.5625-16.296875-91.5625-33.960937 0-17.664063 40.105468-32.171875 91.5625-33.964844h.339843c51.457031 1.792969 91.5625 16.300781 91.5625 33.964844zm0 0" fill="#ff9801"/><path d="m136.5625 145.066406c0 14.140625-11.460938 25.601563-25.601562 25.601563-2.914063.015625-5.808594-.503907-8.53125-1.539063-10.226563-3.578125-17.070313-13.230468-17.070313-24.0625 0-10.832031 6.84375-20.484375 17.070313-24.0625 2.722656-1.035156 5.617187-1.554687 8.53125-1.539062 14.140624 0 25.601562 11.464844 25.601562 25.601562zm0 0" fill="#0377bc"/><path d="m324.296875 145.066406c0 14.140625-11.464844 25.601563-25.601563 25.601563-2.914062.015625-5.808593-.503907-8.535156-1.539063-10.222656-3.578125-17.066406-13.230468-17.066406-24.0625 0-10.832031 6.84375-20.484375 17.066406-24.0625 2.726563-1.035156 5.621094-1.554687 8.535156-1.539062 14.136719 0 25.601563 11.464844 25.601563 25.601562zm0 0" fill="#0377bc"/><path d="m119.496094 145.066406c0-13.289062-7.640625-24.0625-17.066406-24.0625-9.425782 0-17.066407 10.773438-17.066407 24.0625 0 13.289063 7.640625 24.0625 17.066407 24.0625 9.425781 0 17.066406-10.773437 17.066406-24.0625zm0 0" fill="#00bcd4"/><path d="m307.230469 145.066406c0-13.289062-7.644531-24.0625-17.070313-24.0625-9.425781 0-17.066406 10.773438-17.066406 24.0625 0 13.289063 7.640625 24.0625 17.066406 24.0625 9.425782 0 17.070313-10.773437 17.070313-24.0625zm0 0" fill="#00bcd4"/><path d="m95.421875 35.300781c-54.414063 7.648438-95.011719 54.015625-95.3945312 108.964844-.3828128 54.949219 39.5625002 101.882813 93.8671872 110.285156v35.582031c0 .65625.121094 1.304688.179688 1.964844-26.914063 6.050782-48.453125 26.175782-56.320313 52.613282-2.308594 4.199218-3.542968 8.898437-3.59375 13.6875.878906 12.160156 7.675782 23.109374 18.179688 29.296874v4.921876c0 5.121093-.273438 10.242187-.546875 15.414062-1.5625 14.484375-.601563 29.132812 2.839843 43.289062 4.792969 15.464844 14.527344 28.929688 27.707032 38.332032 6.042968 4.367187 12.382812 8.371094 18.511718 12.246094l2.824219 1.78125c6.578125 4.828124 14.375 7.726562 22.507813 8.371093 2.125.011719 4.238281-.277343 6.28125-.851562 1.832031-.425781 3.59375-1.097657 5.242187-2 10.421875-4.980469 15.132813-17.242188 10.726563-27.917969-2.992188-5.238281-7.25-9.636719-12.382813-12.800781-.957031-.691407-1.886719-1.367188-2.714843-2.015625-5.128907-3.957032-9.976563-8.269532-14.507813-12.902344-6.859375-6.238281-11.9375-14.191406-14.710937-23.039062-1.023438-5.628907-1.34375-11.359376-.953126-17.066407 14.761719 23.222657 40.027344 37.667969 67.53125 38.613281v8.730469c0 14.136719 11.460938 25.597657 25.601563 25.597657h17.066406c14.136719 0 25.597657-11.460938 25.597657-25.597657v-8.636719c27.527343-.84375 52.84375-15.300781 67.558593-38.578124.378907 5.675781.054688 11.375-.964843 16.972656-2.789063 8.867187-7.882813 16.835937-14.761719 23.089844-4.507813 4.59375-9.328125 8.871093-14.429688 12.800781-.851562.683593-1.800781 1.355469-2.757812 2.046875-5.140625 3.171875-9.402344 7.589844-12.386719 12.84375-4.367188 10.65625.335938 22.867187 10.722656 27.835937 1.511719.839844 3.128906 1.480469 4.804688 1.894531 2.160156.609376 4.394531.917969 6.640625.914063 8.167969-.597656 16-3.480469 22.605469-8.320313l2.816406-1.777343c6.125-3.871094 12.464844-7.875 18.507812-12.242188 13.164063-9.375 22.890625-22.804687 27.699219-38.230469 3.453125-14.171874 4.421875-28.839843 2.859375-43.339843-.273438-5.121094-.546875-10.300781-.546875-15.414063v-4.921875c10.511719-6.199219 17.304687-17.167969 18.167969-29.339843-.066406-4.777344-1.3125-9.46875-3.628906-13.652344-7.992188-26.355469-29.476563-46.421875-56.320313-52.597656.105469-.667969.179687-1.339844.214844-2.015626v-35.558593c54.078125-8.242188 93.988281-54.804688 93.867187-109.507813-.304687-55.121094-40.835937-101.75-95.378906-109.730468-8.875-23.203126-59.355469-35.335938-109.421875-35.335938s-100.503906 12.117188-109.40625 35.300781zm11.09375 430.082031c5.078125 5.214844 10.519531 10.0625 16.28125 14.507813 1.035156.808594 2.152344 1.621094 3.285156 2.4375 2.730469 1.652344 5.109375 3.820313 7.007813 6.382813.734375 1.546874-1.28125 4.269531-3.414063 5.453124-.425781.230469-.882812.398438-1.355469.496094-5.648437.175782-11.15625-1.746094-15.464843-5.402344l-2.824219-1.78125c-5.921875-3.738281-12.023438-7.613281-17.65625-11.65625-10.125-7.171874-17.621094-17.464843-21.332031-29.304687-2.855469-12.316406-3.59375-25.03125-2.183594-37.597656.203125-3.847657.304687-7.679688.398437-11.519531 5.582032 2.582031 11.300782 4.863281 17.128907 6.824218-.042969 1.613282-.070313 3.210938-.128907 4.847656-.703124 8.410157-.296874 16.878907 1.203126 25.183594 3.347656 11.929688 9.929687 22.703125 19.019531 31.128906zm115.378906-4.582031c0 4.710938-3.820312 8.53125-8.53125 8.53125h-17.066406c-4.714844 0-8.535156-3.820312-8.535156-8.53125v-8.535156h34.132812zm53.09375-38.136719c-11.257812 8.1875-24.835937 12.578126-38.757812 12.535157h-62.804688c-18.40625-.058594-35.964843-7.753907-48.484375-21.246094 26.367188 4.714844 53.101563 7.054687 79.886719 6.996094 26.765625.0625 53.480469-2.277344 79.828125-6.988281-2.917969 3.21875-6.160156 6.136718-9.667969 8.703124zm65.835938-13.746093c1.414062 12.582031.667969 25.316406-2.203125 37.648437-3.703125 11.816406-11.179688 22.089844-21.28125 29.253906-5.632813 4.042969-11.734375 7.917969-17.65625 11.65625l-2.816406 1.773438c-4.421876 3.753906-10.128907 5.652344-15.921876 5.289062-.320312-.082031-.628906-.210937-.914062-.382812-2.148438-1.160156-4.164062-3.898438-3.410156-5.410156 1.886718-2.582032 4.273437-4.761719 7.011718-6.417969 1.136719-.851563 2.253907-1.628906 3.328126-2.472656 5.734374-4.417969 11.152343-9.234375 16.214843-14.414063 9.113281-8.441406 15.71875-19.238281 19.089844-31.195312 1.503906-8.316406 1.90625-16.796875 1.203125-25.21875-.0625-1.636719-.085938-3.234375-.128906-4.847656 5.828125-1.960938 11.546875-4.242188 17.125-6.824219.042968 3.882812.15625 7.714843.359375 11.5625zm15.042969-58.417969c.15625.40625.347656.804688.566406 1.183594.058594.222656.128906.441406.210937.65625 1.109375 1.832031 1.726563 3.921875 1.785157 6.058594 0 18.996093-58.4375 45.484374-153.601563 45.484374s-153.597656-26.488281-153.597656-45.484374c.0625-2.140626.683593-4.226563 1.796875-6.058594.085937-.21875.15625-.445313.214844-.671875.21875-.375.410156-.765625.5625-1.167969 6.359374-22.679688 25.597656-39.398438 48.941406-42.53125 16.460937 14.992188 56.191406 24.832031 102.082031 24.832031 45.894531 0 85.53125-9.8125 102.035156-24.796875 23.285157 3.261719 42.480469 19.90625 49.003907 42.496094zm-57.171876-60.367188c-.136718 1.300782-.6875 2.519532-1.570312 3.480469-8.515625 10.71875-43.757812 22.121094-92.296875 22.121094s-83.78125-11.402344-92.277344-22.101563c-.894531-.964843-1.449219-2.191406-1.589843-3.5v-34.132812h187.734374zm66.414063-78.652343c-17.582031 17.652343-41.5 27.539062-66.414063 27.453125h-187.734374c-48.5-.066406-88.980469-37.035156-93.429688-85.332032h60.507812c3.832032 15.054688 17.386719 25.589844 32.921876 25.589844 15.535156 0 29.089843-10.535156 32.921874-25.589844h121.890626c3.832031 15.054688 17.386718 25.589844 32.921874 25.589844 15.535157 0 29.089844-10.535156 32.921876-25.589844h60.527343c-1.894531 21.878907-11.472656 42.382813-27.035156 57.878907zm-271.214844-66.414063c0-9.425781 7.640625-17.066406 17.066407-17.066406 9.425781 0 17.066406 7.640625 17.066406 17.066406 0 9.425782-7.640625 17.066406-17.066406 17.066406-9.425782 0-17.066407-7.640624-17.066407-17.066406zm187.734375 0c0-9.425781 7.640625-17.066406 17.066406-17.066406 9.425782 0 17.066407 7.640625 17.066407 17.066406 0 9.425782-7.640625 17.066406-17.066407 17.066406-9.425781 0-17.066406-7.640624-17.066406-17.066406zm110.523438-8.53125h-60.535156c-3.832032-15.054687-17.386719-25.59375-32.921876-25.59375-15.535156 0-29.089843 10.539063-32.921874 25.59375h-121.890626c-3.832031-15.054687-17.386718-25.59375-32.921874-25.59375-15.535157 0-29.089844 10.539063-32.921876 25.59375h-60.527343c3.796875-42.84375 36.324219-77.570312 78.824219-84.15625 2.128906 3.8125 5.019531 7.144532 8.492187 9.796875.519531.515625 1.109375.960938 1.746094 1.320313 19.570312 14.378906 59 21.835937 98.253906 21.835937s78.832031-7.484375 98.355469-21.914062c.582031-.339844 1.117187-.746094 1.605468-1.210938 3.484376-2.644531 6.390626-5.980469 8.53125-9.796875 42.324219 6.902344 74.6875 41.441406 78.832032 84.125zm-187.324219-119.46875c60.730469 0 93.867187 16.90625 93.867187 25.601563 0 2.148437-2.039062 4.804687-5.972656 7.578125-.058594.058594-.136718.082031-.195312.144531-12.253906 8.402344-42.242188 17.875-87.699219 17.875-60.730469 0-93.867187-16.902344-93.867187-25.597656 0-8.695313 33.136718-25.601563 93.867187-25.601563zm0 0"/><path d="m154.839844 367.019531c-50.644532-7.238281-61.441406-20.480469-62.078125-21.394531-2.308594-3.984375-7.359375-5.425781-11.417969-3.25s-5.660156 7.179688-3.621094 11.304688c1.769532 3.515624 13.65625 21.515624 74.695313 30.234374 4.664062.667969 8.988281-2.570312 9.660156-7.234374.667969-4.667969-2.570313-8.992188-7.238281-9.660157zm0 0"/><path d="m221.894531 366.933594h-34.132812c-4.710938 0-8.53125 3.820312-8.53125 8.53125 0 4.714844 3.820312 8.535156 8.53125 8.535156h34.132812c4.714844 0 8.535157-3.820312 8.535157-8.535156 0-4.710938-3.820313-8.53125-8.535157-8.53125zm0 0"/></svg>