<svg height="511pt" viewBox="-43 0 511 511.73663" width="511pt" xmlns="http://www.w3.org/2000/svg"><path d="m277.445312 439.039062-2.046874 16.386719c-1.632813 12.808594-12.515626 22.414063-25.429688 22.441407h-74.242188c-12.910156-.027344-23.796874-9.632813-25.425781-22.441407l-2.050781-16.472656 107.863281.085937zm0 0" fill="#f57c00"/><path d="m256.113281 439.039062-2.050781 16.386719c-1.628906 12.808594-12.515625 22.414063-25.425781 22.441407h-52.910157c-12.910156-.027344-23.796874-9.632813-25.425781-22.441407l-2.050781-16.472656zm0 0" fill="#fec108"/><path d="m417.648438 481.707031v.171875c.121093 7.652344-3.847657 14.785156-10.414063 18.71875-6.566406 3.929688-14.730469 4.0625-21.417969.339844-6.6875-3.71875-10.882812-10.726562-11.003906-18.378906-2.730469-103.167969-25.34375-145.40625-43.007812-169.980469l-21.25.082031-216.40625.683594c-17.492188 24.832031-39.679688 67.074219-42.410157 169.214844-.171875 7.539062-4.296875 14.429687-10.859375 18.140625-6.5625 3.710937-14.59375 3.691406-21.140625-.046875-6.691406-3.886719-10.816406-11.035156-10.835937-18.773438v-.171875c1.621094-139.09375 19.285156-214.527343 69.035156-247.636719 7.097656-4.679687 14.828125-8.328124 22.953125-10.839843l202.921875-.167969h21.335938c8.320312 2.488281 16.230468 6.199219 23.464843 11.007812 49.75 33.109376 67.414063 108.542969 69.035157 247.636719zm0 0" fill="#f57c00"/><path d="m396.316406 481.707031v.171875c-.019531 7.738282-4.144531 14.886719-10.839844 18.773438-6.457031-3.765625-10.496093-10.617188-10.664062-18.09375-2.730469-103.167969-25.34375-145.40625-43.007812-169.980469l-21.25.082031c-.046876 0-.085938-.035156-.085938-.082031l-221.355469-26.710937c-30.71875 29.15625-55.976562 94.550781-58.707031 196.691406-.167969 7.476562-4.207031 14.328125-10.667969 18.09375-6.691406-3.886719-10.816406-11.035156-10.835937-18.773438v-.171875c1.621094-139.09375 19.285156-214.527343 69.035156-247.636719 7.097656-4.679687 14.828125-8.328124 22.953125-10.839843l202.921875-.167969h.085938c8.296874 2.492188 16.175781 6.203125 23.382812 11.007812 49.75 33.109376 67.414062 108.542969 69.035156 247.636719zm0 0" fill="#fec108"/><path d="m327.878906 426.835938c-40.558594 12.898437-82.980468 18.953124-125.527344 17.921874-35.351562-1.230468-70.375-7.257812-104.105468-17.921874-8.144532-86.601563-4.644532-173.910157 10.410156-259.582032 9.632812-46.421875 46.898438-82.089844 93.695312-89.6875 3.535157-.507812 7.097657-.765625 10.667969-.765625 24.539063.792969 48.027344 10.152344 66.390625 26.453125 19.574219 16.386719 32.96875 38.964844 37.972656 64 15.039063 85.675782 18.570313 172.972656 10.496094 259.582032zm0 0" fill="#c52828"/><path d="m306.542969 426.835938c-33.761719 10.65625-68.808594 16.683593-104.191407 17.921874-35.351562-1.230468-70.375-7.257812-104.105468-17.921874-8.144532-86.601563-4.644532-173.910157 10.410156-259.582032 9.632812-46.421875 46.898438-82.089844 93.695312-89.6875 20.664063 3.007813 40.015626 11.929688 55.722657 25.6875 19.574219 16.386719 32.972656 38.964844 37.972656 64 15.042969 85.675782 18.570313 172.972656 10.496094 259.582032zm0 0" fill="#f44335"/><path d="m272.582031 204.800781c0 32.988281-26.742187 59.734375-59.734375 59.734375-2.859375.03125-5.714844-.195312-8.53125-.683594-29.371094-4.21875-51.175781-29.378906-51.175781-59.050781s21.804687-54.832031 51.175781-59.050781c2.816406-.488281 5.671875-.71875 8.53125-.683594 32.992188 0 59.734375 26.742188 59.734375 59.734375zm0 0" fill="#9e9e9e"/><path d="m255.515625 204.800781c.042969 29.695313-21.796875 54.882813-51.199219 59.050781-29.371094-4.21875-51.175781-29.378906-51.175781-59.050781s21.804687-54.832031 51.175781-59.050781c29.402344 4.164062 51.242188 29.355469 51.199219 59.050781zm0 0" fill="#f5f5f5"/><path d="m238.449219 204.800781c0 14.136719-11.460938 25.597657-25.601563 25.597657-2.914062.019531-5.808594-.5-8.53125-1.535157-10.226562-3.582031-17.070312-13.230469-17.070312-24.0625s6.84375-20.484375 17.070312-24.066406c2.722656-1.03125 5.617188-1.550781 8.53125-1.535156 14.140625 0 25.601563 11.460937 25.601563 25.601562zm0 0" fill="#c52828"/><g fill="#f44335"><path d="m221.382812 204.800781c0-13.289062-7.640624-24.066406-17.066406-24.066406-9.425781 0-17.066406 10.777344-17.066406 24.066406 0 13.289063 7.640625 24.0625 17.066406 24.0625 9.425782 0 17.066406-10.773437 17.066406-24.0625zm0 0"/><path d="m118.980469 25.601562c0 9.425782-7.640625 17.066407-17.066407 17.066407-9.425781 0-17.066406-7.640625-17.066406-17.066407 0-9.425781 7.640625-17.066406 17.066406-17.066406 9.425782 0 17.066407 7.640625 17.066407 17.066406zm0 0"/><path d="m340.847656 25.601562c0 9.425782-7.640625 17.066407-17.066406 17.066407s-17.066406-7.640625-17.066406-17.066407c0-9.425781 7.640625-17.066406 17.066406-17.066406s17.066406 7.640625 17.066406 17.066406zm0 0"/></g><path d="m100.207031 165.835938c-2.832031 17.347656-5.117187 34.398437-7.15625 51.292968-6.960937 2.53125-13.613281 5.835938-19.832031 9.859375-50.664062 33.695313-71.101562 105.09375-72.851562 254.890625.054687 16.328125 13.179687 29.609375 29.507812 29.855469 16.332031.246094 29.847656-12.628906 30.398438-28.953125 1.859374-69.375 12.6875-110.292969 25.113281-137.207031.066406 27.445312 1.511719 54.867187 4.335937 82.167969.355469 3.398437 2.707032 6.253906 5.972656 7.261718 14.757813 4.519532 29.734376 8.289063 44.875 11.289063l1.28125 10.242187c2.171876 17.050782 16.667969 29.839844 33.859376 29.863282h74.28125c17.191406-.027344 31.6875-12.8125 33.863281-29.863282l1.277343-10.15625c15.261719-3.011718 30.355469-6.796875 45.226563-11.347656 3.265625-1.007812 5.617187-3.867188 5.976563-7.261719 2.863281-27.675781 4.316406-55.476562 4.351562-83.296875 12.671875 26.90625 23.746094 68.019532 25.597656 138.292969.671875 16.277344 14.226563 29.035156 30.515625 28.71875 16.289063-.316406 29.339844-13.589844 29.382813-29.878906-1.707032-149.53125-22.1875-220.921875-72.851563-254.652344-6.382812-4.203125-13.242187-7.640625-20.429687-10.242187-2.019532-16.808594-4.308594-33.773438-7.132813-51.042969-10.125-48.433594-48.183593-86.148438-96.707031-95.832031l26.625-34.226563c10.167969-13.027344 26.945312-19.011719 43.066406-15.359375-2.269531 10.609375 2.398438 21.492188 11.640625 27.167969 9.246094 5.675781 21.0625 4.90625 29.496094-1.914063 8.433594-6.824218 11.648437-18.222656 8.03125-28.445312-3.621094-10.226563-13.292969-17.06250025-24.140625-17.058594-5.636719.0195312-11.105469 1.921875-15.539062 5.402344-23.96875-8.0625-50.414063-.160156-66.03125 19.726562l-29.363282 37.769532-29.363281-37.757813c-15.613281-19.902344-42.066406-27.8125-66.039063-19.746094-4.433593-3.476562-9.898437-5.3749998-15.53125-5.394531-10.898437-.0390625-20.640624 6.800781-24.296874 17.070312-3.660157 10.269532-.441407 21.726563 8.03125 28.589844 8.46875 6.859375 20.347656 7.628906 29.632812 1.917969 9.285156-5.707031 13.957031-16.65625 11.652344-27.3125 16.121094-3.640625 32.898437 2.339844 43.078125 15.359375l26.625 34.246094c-48.441407 9.832031-86.367188 47.574218-96.429688 95.964844zm232.109375-140.234376c0 4.710938-3.820312 8.53125-8.535156 8.53125-4.710938 0-8.53125-3.820312-8.53125-8.53125 0-4.714843 3.820312-8.535156 8.53125-8.535156 4.714844 0 8.535156 3.820313 8.535156 8.535156zm-230.402344 8.53125c-4.710937 0-8.53125-3.820312-8.53125-8.53125 0-4.714843 3.820313-8.535156 8.53125-8.535156 4.714844 0 8.535157 3.820313 8.535157 8.535156 0 2.261719-.898438 4.433594-2.5 6.03125-1.601563 1.601563-3.769531 2.5-6.035157 2.5zm-58.707031 448.230469c-.171875 6.960938-5.839843 12.527344-12.800781 12.570313-3.460938-.019532-6.773438-1.410156-9.207031-3.875-2.433594-2.460938-3.785157-5.789063-3.765625-9.25 1.648437-141.183594 20.550781-210.902344 65.1875-240.640625 2.636718-1.679688 5.367187-3.210938 8.175781-4.589844-2.5625 25.164063-4.191406 49.742187-4.957031 73.769531-18.714844 27.222656-39.945313 71.648438-42.632813 172.015625zm223.71875-27.980469c-1.070312 8.539063-8.328125 14.949219-16.933593 14.949219h-74.28125c-8.605469 0-15.863282-6.410156-16.929688-14.949219l-.640625-5.078124c18.164063 2.777343 36.511719 4.1875 54.886719 4.214843 18.253906-.03125 36.480468-1.421875 54.527344-4.164062zm76.960938-213.214843c44.679687 29.738281 63.582031 99.457031 65.226562 240.710937.125 7.113282-5.542969 12.984375-12.65625 13.109375-7.117187.125-12.988281-5.542969-13.113281-12.660156-2.679688-101.09375-24.164062-145.550781-43.152344-172.644531-.785156-23.894532-2.390625-48.351563-4.976562-73.386719 2.988281 1.445313 5.882812 3.070313 8.671875 4.871094zm-130.917969-155.835938c44.441406.316407 87.527344 37.746094 95.992188 83.253907 14.519531 83.082031 18.210937 167.699218 10.972656 251.730468-69.652344 21.515625-144.171875 21.515625-213.820313 0-7.226562-83.960937-3.550781-168.503906 10.941407-251.519531 8.507812-45.71875 51.582031-83.148437 95.914062-83.464844zm0 0"/><path d="m212.847656 273.066406c37.703125 0 68.265625-30.5625 68.265625-68.265625s-30.5625-68.265625-68.265625-68.265625-68.265625 30.5625-68.265625 68.265625c.042969 37.683594 30.582031 68.222657 68.265625 68.265625zm0-119.464844c28.277344 0 51.199219 22.921876 51.199219 51.199219 0 28.277344-22.921875 51.199219-51.199219 51.199219s-51.199218-22.921875-51.199218-51.199219c.027343-28.265625 22.933593-51.171875 51.199218-51.199219zm0 0"/><path d="m212.847656 238.933594c18.851563 0 34.132813-15.28125 34.132813-34.132813 0-18.851562-15.28125-34.132812-34.132813-34.132812-18.851562 0-34.132812 15.28125-34.132812 34.132812 0 18.851563 15.28125 34.132813 34.132812 34.132813zm0-51.199219c9.425782 0 17.066406 7.640625 17.066406 17.066406s-7.640624 17.066407-17.066406 17.066407c-9.425781 0-17.066406-7.640626-17.066406-17.066407s7.640625-17.066406 17.066406-17.066406zm0 0"/><path d="m244.824219 315.996094c-20.976563 5.386718-42.972657 5.386718-63.949219 0-2.957031-.761719-6.089844.113281-8.230469 2.289062-2.136719 2.175782-2.949219 5.328125-2.132812 8.269532.816406 2.9375 3.140625 5.21875 6.09375 5.980468 23.765625 6.085938 48.683593 6.085938 72.449219 0 4.566406-1.175781 7.3125-5.835937 6.136718-10.402344-1.179687-4.566406-5.835937-7.3125-10.402344-6.136718zm0 0"/><path d="m244.824219 350.132812c-20.976563 5.382813-42.972657 5.382813-63.949219 0-2.957031-.761718-6.089844.109376-8.230469 2.285157-2.136719 2.175781-2.949219 5.328125-2.132812 8.269531.816406 2.9375 3.140625 5.21875 6.09375 5.980469 23.765625 6.089843 48.683593 6.089843 72.449219 0 4.566406-1.175781 7.3125-5.835938 6.136718-10.402344-1.179687-4.566406-5.835937-7.3125-10.402344-6.132813zm0 0"/><path d="m244.824219 384.265625c-20.976563 5.382813-42.972657 5.382813-63.949219 0-2.957031-.761719-6.089844.109375-8.230469 2.285156-2.136719 2.179688-2.949219 5.332031-2.132812 8.269531.816406 2.941407 3.140625 5.21875 6.09375 5.980469 23.765625 6.089844 48.683593 6.089844 72.449219 0 4.566406-1.175781 7.3125-5.832031 6.136718-10.402343-1.179687-4.566407-5.835937-7.3125-10.402344-6.132813zm0 0"/><path d="m131.285156 409.601562c.359375-.003906.71875-.027343 1.078125-.070312 2.246094-.28125 4.289063-1.441406 5.675781-3.230469 1.390626-1.789062 2.011719-4.054687 1.730469-6.300781-3.011719-25.070312-4.214843-50.328125-3.601562-75.570312.089843-4.714844-3.660157-8.605469-8.371094-8.695313-4.714844-.089844-8.605469 3.65625-8.695313 8.371094-.628906 26.066406.617188 52.140625 3.730469 78.027343.535157 4.261719 4.15625 7.460938 8.453125 7.46875zm0 0"/><path d="m128.53125 298.667969h.5625c4.507812.007812 8.246094-3.488281 8.535156-7.988281.988282-15.359376 2.15625-25.011719 2.164063-25.113282.507812-4.640625-2.8125-8.824218-7.445313-9.394531-4.632812-.566406-8.863281 2.695313-9.492187 7.320313-.050781.410156-1.226563 10.15625-2.261719 26.09375-.3125 4.699218 3.238281 8.761718 7.9375 9.082031zm0 0"/></svg>