<svg height="512pt" viewBox="-9 0 512 512.00218" width="512pt" xmlns="http://www.w3.org/2000/svg"><path d="m417.792969 257.539062-14.335938 30.976563-39.507812 85.160156-3.5 7.511719-21.929688 7.765625-29.441406-3.160156h-.085937l-84.90625-39.421875-47.785157-22.101563-43.4375-20.140625c-1.328125-.582031-2.5625-1.359375-3.667969-2.300781-6.039062-4.929687-7.96875-13.324219-4.691406-20.398437l7.167969-15.445313 39.507813-85.160156 14.335937-30.976563 214.953125 99.667969zm0 0" fill="#9e9e9e"/><path d="m400.46875 249.515625-14.078125 30.464844-39.507813 85.164062-3.5 7.507813-21.929687 7.765625-29.441406-3.15625h-.085938l-84.90625-39.425781-47.785156-22.101563-30.039063-13.90625c-6.039062-4.929687-7.96875-13.324219-4.691406-20.398437l7.167969-15.445313 39.507813-85.160156 14.335937-30.976563zm0 0" fill="#f5f5f5"/><path d="m217.601562 202.328125-39.425781 85.160156-46.503906-21.503906.253906-.511719 39.253907-84.648437 29.097656 13.480469zm0 0" fill="#9e9e9e"/><path d="m200.277344 194.304688-39.167969 84.652343-29.183594-13.484375 39.253907-84.648437zm0 0" fill="#bdc3c7"/><path d="m403.457031 288.515625-39.507812 85.160156-5.71875-2.644531-11.179688-6.3125-30.632812-17.496094 33.449219-64.851562v-.085938l7.082031-15.359375 29.183593 13.566407zm0 0" fill="#424242"/><path d="m386.132812 280.492188-39.082031 84.226562-30.632812-17.496094 33.449219-64.851562v-.085938l7.082031-15.359375zm0 0" fill="#cfd8dc"/><path d="m290.390625 329.558594-3.839844 8.191406-77.398437-35.839844 39.425781-85.160156 72.105469 33.363281zm0 0" fill="#bdc3c7"/><path d="m372.566406 435.203125h-52.480468l-1.875-8.535156-4.355469-19.371094-4.777344-21.417969v-.085937h-.085937l-12.542969-56.148438-1.28125.257813c-4.605469.972656-9.152344-1.90625-10.238281-6.488282l-12.03125-53.84375c-1.03125-4.617187 1.871093-9.195312 6.484374-10.238281l41.300782-9.21875 2.390625-.511719 10.152343-2.304687c4.613282-1.003906 9.175782 1.886719 10.242188 6.488281l6.398438 28.5v.085938l5.632812 25.257812c1.003906 4.613282-1.886719 9.175782-6.484375 10.238282l-2.5625.597656 11.777344 52.566406 2.21875 10.15625zm0 0" fill="#9e9e9e"/><path d="m351.234375 426.667969h-33.023437l-4.355469-19.371094-4.777344-21.417969v-.085937h-.085937l-12.542969-56.148438-1.28125.257813c-4.605469.972656-9.152344-1.90625-10.238281-6.488282l-12.03125-53.84375c-1.03125-4.617187 1.871093-9.195312 6.484374-10.238281l41.300782-9.21875 2.390625-.511719 5.460937 24.148438v.085938l5.632813 25.257812c1.003906 4.613281-1.886719 9.175781-6.488281 10.242188l-2.558594.597656 11.777344 52.566406 2.21875 10.152344zm0 0" fill="#f5f5f5"/><path d="m457.046875 106.328125-24.660156-11.433594-156.929688-72.707031c14.707031-7.378906 30.703125-11.84375 47.105469-13.140625 21.957031-1.914063 44.035156 2.003906 64 11.351563 9.183594 4.207031 17.8125 9.539062 25.683594 15.871093 13.273437 10.40625 24.28125 23.414063 32.339844 38.230469 5.667968 9.953125 9.863281 20.671875 12.460937 31.828125zm0 0" fill="#283593"/><path d="m432.386719 94.894531-156.929688-72.707031c14.707031-7.378906 30.703125-11.84375 47.105469-13.140625 14.773438 1.269531 29.210938 5.113281 42.664062 11.351563 9.1875 4.207031 17.8125 9.539062 25.6875 15.871093 13.273438 10.40625 24.277344 23.414063 32.339844 38.230469 3.683594 6.492188 6.738282 13.320312 9.132813 20.394531zm0 0" fill="#3f51b5"/><path d="m460.800781 136.707031c-.019531 18.539063-4.066406 36.851563-11.859375 53.671875l-16.8125 36.183594-19.199218-8.875-212.992188-98.816406 16.726562-36.09375c11.203126-24.328125 29.808594-44.488282 53.160157-57.601563 1.878906-1.109375 3.671875-2.046875 5.546875-2.988281h.085937l181.589844 84.140625.085937.085937c2.460938 9.90625 3.695313 20.082032 3.667969 30.292969zm0 0" fill="#424242"/><path d="m439.46875 132.441406c-.019531 18.539063-4.066406 36.851563-11.863281 53.671875l-14.675781 31.574219-212.992188-98.816406 16.726562-36.09375c11.203126-24.328125 29.808594-44.488282 53.160157-57.601563l165.890625 76.886719.082031.082031c2.464844 9.910157 3.699219 20.085938 3.671875 30.296875zm0 0" fill="#cfd8dc"/><path d="m307.59375 85.660156c0 9.425782-7.640625 17.066406-17.066406 17.066406-9.425782 0-17.066406-7.640624-17.066406-17.066406 0-9.425781 7.640624-17.066406 17.066406-17.066406 9.425781 0 17.066406 7.640625 17.066406 17.066406zm0 0" fill="#424242"/><path d="m432.128906 226.5625-14.335937 30.976562-232.277344-107.691406 1.878906-4.011718 12.542969-26.964844 213.246094 98.902344zm0 0" fill="#283593"/><path d="m413.183594 217.773438-12.457032 26.964843-213.332031-98.902343 12.542969-26.964844zm0 0" fill="#3f51b5"/><path d="m230.402344 477.867188h-119.46875l17.066406-68.265626h85.335938zm0 0" fill="#424242"/><path d="m196.269531 371.203125v38.398437h-51.203125v-62.121093zm0 0" fill="#37474f"/><path d="m179.199219 371.203125v38.398437h-34.132813v-54.1875zm0 0" fill="#607d8b"/><path d="m409.601562 503.46875h-119.46875l17.066407-68.265625h85.335937zm0 0" fill="#424242"/><path d="m209.066406 477.867188h-98.132812l17.066406-68.265626h64zm0 0" fill="#9e9e9e"/><path d="m388.269531 503.46875h-98.136719l17.066407-68.265625h64zm0 0" fill="#9e9e9e"/><path d="m469.761719 42.667969-25.175781 31.832031c-3.015626-5.582031-6.46875-10.917969-10.324219-15.960938-5.167969-6.734374-11-12.941406-17.40625-18.515624-1.535157-1.28125-3.074219-2.558594-4.609375-3.753907l.769531-.425781 33.277344-18.519531 1.28125-.683594zm0 0" fill="#37474f"/><path d="m456.960938 29.867188-22.699219 28.671874-2.472657 3.160157c-4.226562-7.714844-9.230468-14.980469-14.933593-21.675781-1.28125-1.449219-2.5625-2.816407-3.839844-4.179688l33.277344-18.519531zm0 0" fill="#607d8b"/><path d="m313.855469 407.296875-19.285157 9.472656-98.300781-45.566406-9.304687-4.269531-41.898438-19.453125-1.449218-.683594-2.558594-9.984375-8.195313-32.683594 43.4375 20.140625 126.464844 58.707031 6.3125 2.902344zm0 0" fill="#37474f"/><path d="m305.324219 394.5-19.285157 9.46875-98.304687-45.566406-9.300781-4.265625-37.375-17.324219-8.195313-32.683594 43.4375 20.140625 126.464844 58.707031zm0 0" fill="#607d8b"/><path d="m307.933594 127.386719c0 4.714843-3.820313 8.535156-8.53125 8.535156-4.714844 0-8.535156-3.820313-8.535156-8.535156 0-4.710938 3.820312-8.53125 8.535156-8.53125 4.710937 0 8.53125 3.820312 8.53125 8.53125zm0 0"/><path d="m279.765625 108.886719c12.828125 5.941406 28.042969.359375 33.988281-12.46875 5.941406-12.828125.363282-28.042969-12.464844-33.988281-12.828124-5.941407-28.042968-.363282-33.988281 12.460937-2.878906 6.160156-3.179687 13.210937-.839843 19.59375 2.339843 6.378906 7.128906 11.566406 13.304687 14.402344zm3.023437-26.820313c.949219-2.054687 2.683594-3.644531 4.808594-4.421875 2.128906-.78125 4.476563-.679687 6.53125.277344 4.265625 1.984375 6.117188 7.050781 4.136719 11.320313-2.011719 4.222656-7.050781 6.039062-11.292969 4.066406-4.242187-1.96875-6.109375-6.988282-4.183594-11.25zm0 0"/><path d="m315.648438 281.601562c-4.710938 0-8.53125 3.820313-8.53125 8.535157 0 4.710937 3.820312 8.53125 8.53125 8.53125h.085937c3.046875-.015625 5.859375-1.65625 7.367187-4.304688 1.511719-2.644531 1.496094-5.898437-.042968-8.53125-1.535156-2.632812-4.359375-4.246093-7.410156-4.230469zm0 0"/><path d="m17.066406 469.335938h-8.53125c-4.714844 0-8.535156 3.820312-8.535156 8.53125 0 4.714843 3.820312 8.535156 8.535156 8.535156h8.53125c4.714844 0 8.535156-3.820313 8.535156-8.535156 0-4.710938-3.820312-8.53125-8.535156-8.53125zm0 0"/><path d="m486.402344 494.933594h-70.144532l-15.445312-61.796875c-.949219-3.800781-4.363281-6.464844-8.277344-6.46875h-13.132812l-9.96875-44.558594 2.195312-4.746094.066406-.09375 39.511719-85.171875v-.128906l45.464844-98.019531c8.332031-17.933594 12.65625-37.46875 12.664063-57.242188.03125-10.914062-1.285157-21.789062-3.925782-32.375-.0625-.242187-.140625-.476562-.230468-.710937l-.050782-.160156-.0625-.207032c-2.359375-9.648437-5.839844-18.988281-10.375-27.824218l21.761719-27.46875c2.519531-3.195313 2.4375-7.722657-.199219-10.820313l-22.1875-26.027344c-2.632812-3.089843-7.078125-3.898437-10.628906-1.929687l-30.652344 17.066406c-7.074218-5.265625-14.65625-9.808594-22.632812-13.566406-37.390625-17.425782-80.683594-16.871094-117.613282 1.507812-.113281.042969-.21875.089844-.324218.148438-.1875.082031-.375.144531-.5625.238281-27.703125 13.722656-49.851563 36.539063-62.738282 64.640625l-16.707031 35.984375-.0625.09375-14.359375 30.964844v.078125l-14.328125 30.875-2.917969 6.296875-43.800781 94.386719c-2.84375 6.164062-3.117187 13.207031-.769531 19.574218 1.808594 4.949219 5.121094 9.210938 9.472656 12.179688l9.882813 39.253906c.269531.839844.671875 1.636719 1.191406 2.355469v49.808593h-8.515625c-3.914062 0-7.328125 2.667969-8.277344 6.46875l-15.445312 61.796876h-53.078125c-4.710938 0-8.53125 3.820312-8.53125 8.53125 0 4.714843 3.820312 8.535156 8.53125 8.535156h204.800781c4.714844 0 8.535156-3.820313 8.535156-8.535156 0-4.710938-3.820312-8.53125-8.535156-8.53125h-18.941406l-15.445313-61.796876c-.949219-3.800781-4.363281-6.46875-8.277343-6.46875h-8.535157v-16.503906l86.1875 39.945313c1.125.519531 2.351563.792969 3.59375.792969 1.300781.007812 2.585938-.285157 3.753907-.855469l9.566406-4.691407 1.542968 6.9375h-2.246093c-3.914063 0-7.328125 2.667969-8.277344 6.46875l-15.445313 61.769532h-53.074218c-4.714844 0-8.535156 3.824218-8.535156 8.535156 0 4.714844 3.820312 8.535156 8.535156 8.535156h256c4.710937 0 8.53125-3.820312 8.53125-8.535156 0-4.710938-3.820313-8.535156-8.53125-8.535156zm-221.824219-223.503906 11.636719 52.132812-55.738282-25.808594 32.257813-69.671875 41.488281 19.191407-16.691406 3.71875c-9.210938 2.078124-15.007812 11.21875-12.953125 20.4375zm57.054687-30.285157-69.472656-32.136719c-4.273437-1.976562-9.339844-.117187-11.324218 4.15625l-39.449219 85.164063c-1.976563 4.273437-.117188 9.34375 4.15625 11.324219l77.398437 35.839844c1.117188.523437 2.339844.796874 3.574219.792968 1.625-.003906 3.210937-.46875 4.582031-1.339844l5.777344 25.832032-97.015625-45.03125-19.96875-9.21875-43.414063-20.136719h-.054687c-2.050781-.921875-3.640625-2.636719-4.402344-4.753906-.796875-2.152344-.707031-4.535157.25-6.621094l3.582031-7.722656 38.734376 17.917969c1.125.519531 2.351562.785156 3.589843.785156 3.324219 0 6.34375-1.925782 7.742188-4.9375l39.472656-85.164063c1.984375-4.273437.128906-9.347656-4.144531-11.332031l-38.707032-17.921875 7.175782-15.476563 216.746094 100.480469-7.183594 15.496094-38.742188-17.980469c-2.058594-.945312-4.40625-1.039062-6.539062-.265625-.203125.078125-.355469.246094-.5625.339844l-1.707032-7.464844c-2.203124-9.097656-11.261718-14.777343-20.410156-12.800781zm-146.304687-48.988281 30.964844 14.351562-32.289063 69.683594-30.96875-14.34375 30.722656-66.226562zm28.730469-61.925781 216.746094 100.460937-7.167969 15.488282-216.746094-100.472657zm159.25 224.511719-6.929688-30.96875c5.976563-3.875 8.941406-11.039063 7.449219-18.003907l-5.015625-22.460937 2.300781-5 30.984375 14.386718zm82.304687-327.246094 13.105469 15.359375-13.21875 16.726562c-.066406-.09375-.152344-.1875-.222656-.289062-2.597656-3.84375-5.394532-7.546875-8.386719-11.09375-.0625-.074219-.132813-.148438-.203125-.214844-2.929688-3.445313-6.039062-6.738281-9.3125-9.863281-.109375-.101563-.195312-.222656-.304688-.324219zm-62.644531.667968c8.585938 3.933594 16.648438 8.917969 24.003906 14.835938 9.269532 7.25 17.371094 15.886719 24.011719 25.601562l.050781.078126c2.191406 3.21875 4.230469 6.558593 6.121094 10.015624 2.128906 3.808594 4.042969 7.734376 5.726562 11.761719l-145.921874-67.664062c28.324218-9.097657 59.035156-7.179688 86.007812 5.371093zm-107.238281 3.632813 173.890625 80.570313c1.738281 8 2.625 16.15625 2.648437 24.339843-.015625 17.296875-3.800781 34.386719-11.09375 50.074219l-13.195312 28.441406-216.746094-100.480468 13.195313-28.375c10.710937-23.289063 28.722656-42.457032 51.300781-54.59375zm-56.261719 437.539063h-97.601562l12.796874-51.199219h72.003907zm-65.867188-68.265626v-40.234374l34.132813 15.820312v24.414062zm140.859376 6.246094-94.601563-43.855468-48.953125-22.6875-5.386719-21.335938 27.1875 12.605469 1.355469.632812 127.574219 59.152344 2.414062 10.800781zm23.039062-22.84375c-.0625-.320312-.140625-.632812-.238281-.941406-.042969-.144531-.066407-.28125-.109375-.417969-.019532-.085937-.042969-.171875-.070313-.253906l-12.261719-54.886719v-.164062c-.160156-.460938-.359374-.90625-.597656-1.328125-.1875-.59375-.441406-1.167969-.75-1.707031-.3125-.371094-.65625-.710938-1.03125-1.015626-.394531-.472656-.84375-.894531-1.332031-1.265624-.351563-.171876-.714844-.324219-1.085937-.449219-.617188-.335938-1.273438-.59375-1.953126-.769531-.410156-.023438-.820312-.023438-1.230468 0-.671875-.082032-1.355469-.082032-2.027344 0l-1.519531.289062-12.007813-53.914062 53.898438-11.996094 6.296875 28.039062.101562.539063 5.539063 25.328125-2.5625.605468c-.488282.167969-.957032.382813-1.40625.640626-.570313.195312-1.125.449218-1.648438.75-.363281.332031-.703125.691406-1.015625 1.074218-.445312.394532-.851562.832032-1.210937 1.304688-.246094.492187-.445313 1.003906-.597656 1.527344-.238282.488281-.429688.996093-.578126 1.519531-.054687.589843-.054687 1.183593 0 1.777343-.050781.523438-.050781 1.050782 0 1.578126v.074218l23.816407 106.257813h-34.988281zm-16.433594 110.460938 12.800782-51.199219h72.003906l12.796875 51.199219zm0 0"/></svg>