<svg height="512pt" viewBox="-17 0 512 512.15587" width="512pt" xmlns="http://www.w3.org/2000/svg"><path d="m418.257812 375.496094v29.863281h-358.402343v-29.863281c.789062-38.476563 32.605469-69.035156 71.082031-68.269532h216.234375c38.476563-.765624 70.296875 29.792969 71.085937 68.269532zm0 0" fill="#37474f"/><path d="m396.921875 375.496094v29.863281h-337.066406v-29.863281c.789062-38.476563 32.605469-69.035156 71.082031-68.269532h194.902344c38.476562-.765624 70.292968 29.792969 71.082031 68.269532zm0 0" fill="#607d8b"/><path d="m119.589844 405.359375v-21.332031c0-18.851563 15.28125-34.132813 34.132812-34.132813h170.667969c18.851563 0 34.132813 15.28125 34.132813 34.132813v21.332031zm0 0" fill="#00838f"/><path d="m154.0625 500.082031c-43.234375-3.605469-86.207031-9.84375-128.679688-18.6875-4.828124-1.023437-9.09375-3.828125-11.949218-7.851562-3.128906-4.285157-4.804688-9.457031-4.777344-14.761719v-.085938c0-31.832031 22.953125-57.601562 51.199219-57.601562h17.066406s8.535156 46.933594 51.199219 46.933594c36.011718 0 27.050781 40.703125 25.941406 52.054687zm0 0" fill="#00bcd4"/><path d="m469.457031 458.695312v.085938c.421875 10.527344-6.535156 19.933594-16.726562 22.613281-42.472657 8.84375-85.449219 15.082031-128.683594 18.6875-.105469-.648437-.164063-1.304687-.167969-1.964843-1.707031-13.480469-8.023437-50.089844 26.109375-50.089844 40.703125 0 50.347657-42.75 51.117188-46.675782.042969-.078124.074219-.167968.082031-.257812h17.070312c28.242188 0 51.199219 25.769531 51.199219 57.601562zm0 0" fill="#00838f"/><g fill="#00bcd4"><path d="m448.121094 458.695312v.085938c.425781 10.527344-6.53125 19.933594-16.722656 22.613281-35.535157 7.386719-71.421876 12.96875-107.519532 16.722657-1.707031-13.480469-8.023437-50.089844 26.109375-50.089844 40.703125 0 50.347657-42.75 51.117188-46.675782 26.28125 2.386719 47.015625 27.132813 47.015625 57.34375zm0 0"/><path d="m435.324219 204.828125c0 9.425781-7.640625 17.066406-17.066407 17.066406-9.425781 0-17.070312-7.640625-17.070312-17.066406s7.644531-17.066406 17.070312-17.066406c9.425782 0 17.066407 7.640625 17.066407 17.066406zm0 0"/><path d="m76.921875 204.828125c0 9.425781-7.640625 17.066406-17.066406 17.066406s-17.066407-7.640625-17.066407-17.066406 7.640626-17.066406 17.066407-17.066406 17.066406 7.640625 17.066406 17.066406zm0 0"/></g><path d="m179.324219 292.292969h119.464843v131.585937h-119.464843zm0 0" fill="#1566c0"/><path d="m179.324219 292.292969h98.132812v131.585937h-98.132812zm0 0" fill="#2296f3"/><path d="m375.589844 186.308594v31.832031c-.019532 7.351563-4.722656 13.875-11.691406 16.210937l-15.53125 5.207032-15.613282 5.121094h-187.394531l-31.144531-10.328126c-6.972656-2.335937-11.675782-8.859374-11.691406-16.210937v-31.832031c0-4.546875 1.8125-8.90625 5.035156-12.117188l37.628906-37.628906h187.734375l37.632813 37.628906c3.222656 3.210938 5.03125 7.570313 5.035156 12.117188zm0 0" fill="#37474f"/><path d="m354.257812 194.84375v31.828125c0 4.949219-2.148437 9.652344-5.890624 12.886719l-15.613282 5.121094h-187.394531l-31.144531-10.328126c-6.972656-2.335937-11.675782-8.859374-11.691406-16.210937v-31.832031c0-4.546875 1.8125-8.90625 5.035156-12.117188l29.097656-29.097656h174.933594l37.632812 37.632812c3.21875 3.210938 5.03125 7.570313 5.035156 12.117188zm0 0" fill="#607d8b"/><path d="m332.921875 128.027344v110.933594c0 1.878906-.085937 3.839843-.167969 5.71875-.085937.9375-.085937 1.875-.257812 2.816406l-12.375 4.265625c-18.851563 0-34.132813 15.28125-34.132813 34.132812l-4.265625 36.691407c-13.203125 6.765624-27.832031 10.273437-42.667968 10.242187-3.5625.015625-7.125-.183594-10.664063-.597656-11.164063-1.242188-22.007813-4.511719-32-9.644531l-4.269531-36.691407c0-18.851562-15.28125-34.132812-34.132813-34.132812l-12.371093-4.265625c-.171876-.941406-.171876-1.878906-.257813-2.816406-.085937-1.878907-.171875-3.839844-.171875-5.71875v-110.933594c-.019531-31.757813 16.039062-61.371094 42.667969-78.675782h102.402343c5.46875 3.566407 10.558594 7.683594 15.1875 12.285157 17.628907 17.59375 27.519532 41.484375 27.476563 66.390625zm0 0" fill="#00838f"/><path d="m311.589844 128.027344v110.933594c0 1.878906-.085938 3.839843-.171875 5.71875-.085938.9375-.085938 1.875-.253907 2.816406l-12.375 4.265625c-18.851562 0-34.132812 15.28125-34.132812 34.132812v38.398438c-11.582031 4.589843-23.828125 7.269531-36.265625 7.9375-11.164063-1.242188-22.007813-4.511719-32-9.644531l-4.269531-36.691407c0-18.851562-15.28125-34.132812-34.132813-34.132812l-12.371093-4.265625c-.171876-.941406-.171876-1.878906-.257813-2.816406-.085937-1.878907-.171875-3.839844-.171875-5.71875v-110.933594c-.019531-31.757813 16.039062-61.371094 42.667969-78.675782h81.066406c5.46875 3.566407 10.558594 7.683594 15.191406 12.285157 17.628907 17.59375 27.515625 41.484375 27.476563 66.390625zm0 0" fill="#00bcd4"/><path d="m401.1875 401.09375s0 51.199219-42.664062 51.199219c-36.011719 0-35.585938 36.4375-34.476563 47.789062-56.570313 4.523438-113.410156 4.523438-169.984375 0 .085938-.855469.171875-1.792969.257812-2.816406.683594-13.652344-1.367187-44.972656-34.730468-44.972656-1.140625.03125-2.28125-.023438-3.414063-.167969-5.320312-.230469-10.527343-1.597656-15.273437-4.011719-23.980469-12.117187-23.980469-47.019531-23.980469-47.019531zm0 0" fill="#00695c"/><path d="m379.601562 401.09375c-1.109374 12.289062-7.339843 46.933594-42.414062 46.933594-36.007812 0-35.582031 36.4375-34.472656 47.785156-49.371094 3.941406-98.957032 4.425781-148.394532 1.453125.683594-13.652344-1.367187-44.972656-34.730468-44.972656-1.140625.03125-2.28125-.023438-3.414063-.167969-4.730469-2.457031-9.949219-3.828125-15.273437-4.011719-23.980469-12.117187-23.980469-47.019531-23.980469-47.019531zm0 0" fill="#009688"/><path d="m256.121094 30.664062c8.601562.605469 17.152344 1.777344 25.601562 3.496094 4.710938 0 8.535156 3.820313 8.535156 8.535156v51.199219c0 28.277344-22.925781 51.199219-51.203124 51.199219-28.277344 0-51.199219-22.921875-51.199219-51.199219v-51.199219c0-4.714843 3.820312-8.535156 8.535156-8.535156 8.445313-1.71875 17-2.890625 25.597656-3.496094" fill="#009688"/><path d="m213.457031 196.292969c0 9.425781-7.640625 17.066406-17.066406 17.066406s-17.066406-7.640625-17.066406-17.066406 7.640625-17.066407 17.066406-17.066407 17.066406 7.640626 17.066406 17.066407zm0 0" fill="#cfd8dc"/><path d="m298.789062 196.292969c0 9.425781-7.640624 17.066406-17.066406 17.066406-9.425781 0-17.066406-7.640625-17.066406-17.066406s7.640625-17.066407 17.066406-17.066407c9.425782 0 17.066406 7.640626 17.066406 17.066407zm0 0" fill="#cfd8dc"/><path d="m196.390625 281.628906v40.957032c-28.691406-14.65625-47.859375-43.003907-50.773437-75.089844h16.640624c18.847657 0 34.132813 15.28125 34.132813 34.132812zm0 0" fill="#00695c"/><path d="m332.496094 247.496094c-2.914063 32.085937-22.082032 60.433594-50.773438 75.089844v-40.957032c0-18.851562 15.28125-34.132812 34.132813-34.132812zm0 0" fill="#00695c"/><path d="m290.257812 452.292969c0 28.277343-22.925781 51.203125-51.203124 51.203125-2.859376.003906-5.71875-.253906-8.53125-.769532-24.625-4.140624-42.660157-25.460937-42.660157-50.433593 0-24.96875 18.035157-46.289063 42.660157-50.429688 2.8125-.519531 5.671874-.773437 8.53125-.769531 13.582031 0 26.601562 5.394531 36.207031 14.996094 9.601562 9.601562 14.996093 22.625 14.996093 36.203125zm0 0" fill="#00838f"/><path d="m273.1875 452.292969c.011719 24.980469-18.03125 46.304687-42.664062 50.433593-24.625-4.140624-42.660157-25.460937-42.660157-50.433593 0-24.96875 18.035157-46.289063 42.660157-50.429688 24.632812 4.128907 42.675781 25.453125 42.664062 50.429688zm0 0" fill="#00bcd4"/><path d="m256.121094 452.292969c0 9.425781-7.640625 17.066406-17.066406 17.066406-9.425782 0-17.066407-7.640625-17.066407-17.066406s7.640625-17.066407 17.066407-17.066407c9.425781 0 17.066406 7.640626 17.066406 17.066407zm0 0" fill="#cfd8dc"/><path d="m239.054688 8.5625c9.425781 0 17.066406 7.640625 17.066406 17.066406v68.265625c0 9.425781-7.640625 17.066407-17.066406 17.066407-9.425782 0-17.066407-7.640626-17.066407-17.066407v-68.265625c0-9.425781 7.640625-17.066406 17.066407-17.066406zm0 0" fill="#37474f"/><path d="m426.789062 393.3125v-17.816406c-.839843-43.167969-36.449218-77.515625-79.617187-76.800782h-25.113281c10.164062-14.039062 16.574218-30.441406 18.621094-47.652343l25.976562-8.617188c10.417969-3.527343 17.4375-13.289062 17.464844-24.285156v-4.78125h10.105468c4.15625 11.757813 16.175782 18.808594 28.464844 16.699219 12.289063-2.109375 21.269532-12.761719 21.269532-25.230469s-8.980469-23.125-21.269532-25.230469c-12.289062-2.109375-24.308594 4.941406-28.464844 16.695313h-10.105468v-9.984375c.019531-6.8125-2.695313-13.351563-7.535156-18.148438l-35.128907-35.132812v-5c.078125-27.175782-10.714843-53.253906-29.980469-72.421875-3.941406-3.859375-8.183593-7.398438-12.6875-10.582031v-2.328126c.015626-9.054687-7.039062-16.542968-16.078124-17.066406-6.132813-1.222656-12.253907-2.058594-18.328126-2.722656-1.308593-13.007812-12.253906-22.90625-25.328124-22.90625-13.070313 0-24.015626 9.898438-25.324219 22.90625-6.078125.664062-12.195313 1.5-18.332031 2.722656-9.035157.523438-16.089844 8.011719-16.074219 17.066406v2.386719c-26.785157 19.136719-42.675781 50.027344-42.667969 82.945313v5l-35.132812 35.105468c-4.84375 4.804688-7.558594 11.355469-7.535157 18.175782v9.984375h-10.101562c-4.15625-11.753907-16.175781-18.804688-28.464844-16.695313-12.289063 2.105469-21.273437 12.761719-21.273437 25.230469s8.984374 23.121094 21.273437 25.230469 24.308594-4.941406 28.464844-16.699219h10.101562v4.78125c.039063 11.023437 7.09375 20.800781 17.546875 24.308594l25.898438 8.59375c2.046875 17.210937 8.457031 33.613281 18.617187 47.652343h-25.113281c-43.167969-.714843-78.773438 33.632813-79.613281 76.800782v17.816406c-30.734375 6.421875-52.363281 34.066406-51.203125 65.441406-.417969 14.589844 9.382812 27.5 23.546875 31.019532 42.695312 8.910156 85.902343 15.179687 129.371093 18.773437.070313 0 .128907.050781.195313.058594.285156 0 .566406.042969.855469.042969 28.296875 2.316406 56.617187 3.484374 84.957031 3.507812 28.34375.023438 56.660156-1.148438 84.957031-3.507812.273438 0 .554688 0 .855469-.042969.066406 0 .128906-.050781.195313-.058594 43.46875-3.59375 86.675781-9.863281 129.375-18.773437 14.179687-3.519532 23.988281-16.449219 23.558593-31.054688 1.15625-31.367188-20.472656-58.996094-51.199219-65.40625zm-8.53125-197.019531c4.710938 0 8.53125 3.820312 8.53125 8.535156 0 4.710937-3.820312 8.53125-8.53125 8.53125-4.714843 0-8.535156-3.820313-8.535156-8.53125 0-4.714844 3.820313-8.535156 8.535156-8.535156zm-358.402343 17.066406c-4.710938 0-8.53125-3.820313-8.53125-8.53125 0-4.714844 3.820312-8.535156 8.53125-8.535156 4.714843 0 8.535156 3.820312 8.535156 8.535156 0 4.710937-3.820313 8.53125-8.535156 8.53125zm255.335937 278.820313c-11.171875.851562-22.351562 1.433593-33.527344 1.902343 11.136719-11.289062 17.3125-26.558593 17.152344-42.417969-.160156-15.859374-6.640625-31-18.007812-42.0625h111.105468c-1.921874 12.46875-8.78125 34.132813-33.355468 34.132813-11.8125-.601563-23.296875 3.996094-31.429688 12.578125-8.148437 10.140625-12.386718 22.867188-11.9375 35.867188zm-164.171875-35.839844c-8.136719-8.585938-19.621093-13.179688-31.429687-12.578125-24.40625 0-31.335938-21.660157-33.28125-34.132813h111.027344c-11.363282 11.0625-17.847657 26.203125-18.007813 42.0625s6.015625 31.125 17.15625 42.417969c-11.179687-.460937-22.359375-1.070313-33.527344-1.894531.445313-13.003906-3.792969-25.734375-11.9375-35.875zm36.835938-149.273438c-16.675781-12.484375-28.210938-30.636718-32.425781-51.039062h6.828124c14.136719 0 25.597657 11.460937 25.597657 25.601562zm51.199219 34.292969c17.996093 0 35.664062-4.78125 51.203124-13.855469v65.058594h-102.402343v-65.058594c15.539062 9.074219 33.207031 13.855469 51.199219 13.855469zm110.933593 51.203125h-42.664062v-34.136719h17.066406c14.136719 0 25.597656 11.464844 25.597656 25.601563zm-59.730469-85.496094v-25.4375c0-14.140625 11.460938-25.601562 25.597657-25.601562h6.828125c-4.21875 20.402344-15.75 38.554687-32.425782 51.039062zm-8.535156 145.226563c0 23.566406-19.101562 42.667969-42.667968 42.667969-23.5625 0-42.664063-19.101563-42.664063-42.667969 0-23.5625 19.101563-42.664063 42.664063-42.664063 23.554687.027344 42.640624 19.113282 42.667968 42.664063zm-110.933594-59.730469h-42.667968v-8.535156c0-14.136719 11.464844-25.601563 25.601562-25.601563h17.066406zm238.933594-17.066406v17.066406h-42.667968v-8.535156c-.027344-23.550782-19.113282-42.636719-42.664063-42.667969h-17.066406v-25.597656h39.847656c33.746094-.722657 61.71875 25.988281 62.550781 59.734375zm-45.226562-195.269532c1.636718 1.601563 2.558594 3.792969 2.558594 6.082032v31.832031c-.023438 3.671875-2.367188 6.925781-5.84375 8.113281l-19.753907 6.546875v-75.640625zm-133.972656-154.597656c0-4.714844 3.820312-8.535156 8.53125-8.535156 4.714843 0 8.535156 3.820312 8.535156 8.535156v68.265625c0 4.710938-3.820313 8.53125-8.535156 8.53125-4.710938 0-8.53125-3.820312-8.53125-8.53125zm-34.132813 17.066406c.570313 0 1.144531-.058593 1.707031-.171874 5.117188-1.039063 10.238282-1.792969 15.359375-2.40625v53.777343c0 14.136719 11.460938 25.601563 25.597657 25.601563 14.140624 0 25.601562-11.464844 25.601562-25.601563v-53.761719c5.121094.617188 10.238281 1.367188 15.359375 2.40625.5625.109376 1.132813.160157 1.707031.15625v51.199219c0 23.5625-19.101562 42.667969-42.667968 42.667969-23.5625 0-42.664063-19.105469-42.664063-42.667969zm-42.667969 85.332032c.003906-22.867188 9.234375-44.765625 25.601563-60.738282v26.605469c0 32.988281 26.742187 59.734375 59.730469 59.734375 32.992187 0 59.734374-26.746094 59.734374-59.734375v-26.785156c.195313.195313.425782.367187.625.5625 16.050782 15.976563 25.042969 37.707031 24.976563 60.355469v110.933594h-8.535156c-23.550781.027343-42.636719 19.113281-42.667969 42.667968v34.132813c.054688.417969.136719.832031.25 1.238281-21.890625 9.726562-46.875 9.726562-68.761719 0 .113281-.40625.195313-.820312.246094-1.238281v-34.132813c-.027344-23.554687-19.113281-42.640625-42.664063-42.667968h-8.535156zm-42.667968 90.113281v-31.832031c.003906-2.289063.925781-4.480469 2.5625-6.082032l23.039062-23.039062v75.636719l-19.6875-6.519531c-3.511719-1.175782-5.890625-4.457032-5.914062-8.164063zm19.882812 97.621094h39.851562v25.597656h-17.066406c-23.550781.03125-42.636718 19.117187-42.667968 42.667969v8.535156h-42.664063v-17.066406c.832031-33.746094 28.804687-60.457032 62.546875-59.734375zm-113.75 142.957031c0-27.066406 19.140625-49.089844 42.667969-49.089844h9.078125c2.613281 21.332032 15.234375 51.199219 50.65625 51.199219 6.976562-.539063 13.835937 2.011719 18.773437 6.972656 5 6.578125 7.621094 14.65625 7.433594 22.917969-39.84375-3.609375-79.445313-9.503906-118.613281-17.644531-6.273438-1.867188-10.421875-7.824219-9.996094-14.355469zm433.777344 14.355469c-39.167969 8.140625-78.773438 14.035156-118.613282 17.644531-.191406-8.261719 2.429688-16.339844 7.433594-22.917969 4.925782-4.953125 11.773438-7.5 18.738282-6.972656 35.421874 0 48.042968-29.867187 50.652343-51.199219h9.082031c23.523438 0 42.664063 22.023438 42.664063 49.125.421875 6.511719-3.707031 12.449219-9.957031 14.320313zm0 0"/><path d="m196.390625 221.894531c14.136719 0 25.597656-11.460937 25.597656-25.601562 0-14.136719-11.460937-25.597657-25.597656-25.597657-14.140625 0-25.601563 11.460938-25.601563 25.597657 0 14.140625 11.460938 25.601562 25.601563 25.601562zm0-34.132812c4.710937 0 8.53125 3.820312 8.53125 8.53125 0 4.714843-3.820313 8.535156-8.53125 8.535156-4.714844 0-8.535156-3.820313-8.535156-8.535156 0-4.710938 3.820312-8.53125 8.535156-8.53125zm0 0"/><path d="m281.722656 221.894531c14.136719 0 25.601563-11.460937 25.601563-25.601562 0-14.136719-11.464844-25.597657-25.601563-25.597657-14.136718 0-25.601562 11.460938-25.601562 25.597657 0 14.140625 11.464844 25.601562 25.601562 25.601562zm0-34.132812c4.710938 0 8.535156 3.820312 8.535156 8.53125 0 4.714843-3.824218 8.535156-8.535156 8.535156-4.710937 0-8.535156-3.820313-8.535156-8.535156 0-4.710938 3.824219-8.53125 8.535156-8.53125zm0 0"/><path d="m239.054688 477.894531c14.140624 0 25.601562-11.460937 25.601562-25.601562 0-14.136719-11.460938-25.597657-25.601562-25.597657-14.136719 0-25.597657 11.460938-25.597657 25.597657 0 14.140625 11.460938 25.601562 25.597657 25.601562zm0-34.132812c4.714843 0 8.535156 3.820312 8.535156 8.53125 0 4.714843-3.820313 8.535156-8.535156 8.535156-4.710938 0-8.53125-3.820313-8.53125-8.535156 0-4.710938 3.820312-8.53125 8.53125-8.53125zm0 0"/><path d="m213.457031 247.496094c0 4.710937 3.820313 8.53125 8.53125 8.53125h34.132813c4.714844 0 8.535156-3.820313 8.535156-8.53125 0-4.714844-3.820312-8.535156-8.535156-8.535156h-34.132813c-4.710937 0-8.53125 3.820312-8.53125 8.535156zm0 0"/></svg>