<svg height="503pt" viewBox="-25 0 503 503.70521" width="503pt" xmlns="http://www.w3.org/2000/svg"><path d="m176.617188 402.984375h54.554687v-293.769531h-36.425781c-4.953125 0-9.90625.167968-14.855469.585937-95.601563-.585937-120.78125 66.558594-129.09375 116.921875h-.082031l-25.179688 8.390625c-10.558594 7.9375-16.773437 20.367188-16.789062 33.574219v41.96875c-.074219 21.449219 16.101562 39.476562 37.4375 41.714844 9.617187 22.453125 22.515625 43.359375 38.273437 62.027344l42.636719 50.949218c15.988281 18.996094 39.550781 29.960938 64.378906 29.964844h39.699219v-75.542969h-54.554687c-4.636719 0-8.394532-3.757812-8.394532-8.390625 0-4.636718 3.757813-8.394531 8.394532-8.394531zm-58.753907-125.902344c-13.90625 0-25.179687-11.273437-25.179687-25.179687s11.273437-25.179688 25.179687-25.179688 25.179688 11.273438 25.179688 25.179688c-.121094 13.855468-11.324219 25.0625-25.179688 25.179687zm0 0" fill="#bfa885"/><path d="m205.992188 402.984375v-293.769531h-11.246094c-4.953125 0-9.90625.167968-14.855469.585937-95.601563-.585937-120.78125 66.558594-129.09375 116.921875h-.082031l-25.179688 8.390625c-10.558594 7.9375-16.773437 20.367188-16.789062 33.574219v41.96875c-.074219 21.449219 16.101562 39.476562 37.4375 41.714844 9.617187 22.453125 22.515625 43.359375 38.273437 62.027344l42.636719 50.949218c15.988281 18.996094 39.550781 29.960938 64.378906 29.964844h14.519532zm0 0" fill="#ffecb3"/><path d="m143.042969 251.902344c0 13.90625-11.273438 25.179687-25.179688 25.179687-2.867187.019531-5.714843-.496093-8.394531-1.511719-10.054688-3.519531-16.789062-13.011718-16.789062-23.667968s6.734374-20.148438 16.789062-23.671875c2.679688-1.015625 5.527344-1.527344 8.394531-1.507813 13.90625 0 25.179688 11.273438 25.179688 25.179688zm0 0" fill="#9e9e9e"/><path d="m126.253906 251.902344c0-13.074219-7.515625-23.671875-16.785156-23.671875s-16.785156 10.597656-16.785156 23.671875c0 13.070312 7.515625 23.667968 16.785156 23.667968s16.785156-10.597656 16.785156-23.667968zm0 0" fill="#f5f5f5"/><path d="m243.761719 8.492188-16.785157 100.722656h-32.230468c-4.953125 0-9.90625.167968-14.855469.585937-95.601563-.585937-120.78125 66.558594-129.09375 116.921875h-.082031l-25.179688 8.390625c0-5.035156 0-10.15625.082032-15.359375v-.082031c1.007812-77.304687 11.5-162.832031 92.160156-196.660156 28.1875-10.503907 58.148437-15.4375 88.214844-14.519531 12.589843-.167969 25.265624 0 37.769531 0zm0 0" fill="#fec108"/><path d="m205.992188 8.492188v92.328124h-32.230469c-4.953125 0-9.902344.167969-14.855469.585938-95.601562-.585938-120.78125 66.5625-129.089844 116.921875h-.085937l-4.113281 1.34375c1.007812-77.304687 11.5-162.832031 92.160156-196.660156 28.1875-10.503907 58.148437-15.4375 88.214844-14.519531zm0 0" fill="#fdd834"/><path d="m445.207031 129.777344v196.238281c.023438 11.769531-4.144531 23.164063-11.75 32.148437l-82.929687 118.933594c-9.675782 11.542969-23.964844 18.210938-39.027344 18.214844h-84.523438v-486.820312h29.796876c29.097656-.839844 58.144531 2.984374 86.03125 11.332031 28.316406 9.59375 53.910156 25.859375 74.621093 47.421875l3.019531 2.9375c15.867188 15.769531 24.777344 37.222656 24.761719 59.59375zm0 0" fill="#37474f"/><path d="m424.222656 121.382812v196.238282c.023438 11.773437-4.144531 23.167968-11.75 32.148437l-82.929687 118.933594c-9.675781 11.542969-23.964844 18.210937-39.027344 18.214844h-63.539063v-478.425781h29.796876c29.097656-.839844 58.144531 2.984374 86.03125 11.332031 19.949218 9.898437 38.082031 23.09375 53.636718 39.027343l3.019532 2.9375c15.867187 15.773438 24.78125 37.222657 24.761718 59.59375zm0 0" fill="#607d8b"/><path d="m327.699219 394.589844v33.574218c-.027344 9.261719-7.527344 16.757813-16.789063 16.785157h-83.933594v-67.144531h83.933594c9.261719.027343 16.761719 7.527343 16.789063 16.785156zm0 0" fill="#9e9e9e"/><path d="m352.878906 109.214844c0 9.269531-7.515625 16.785156-16.789062 16.785156-9.269532 0-16.785156-7.515625-16.785156-16.785156 0-9.273438 7.515624-16.789063 16.785156-16.789063 9.273437 0 16.789062 7.515625 16.789062 16.789063zm0 0" fill="#cfd8dc"/><path d="m294.125 67.246094c0 9.269531-7.515625 16.785156-16.789062 16.785156-9.269532 0-16.785157-7.515625-16.785157-16.785156 0-9.269532 7.515625-16.785156 16.785157-16.785156 9.273437 0 16.789062 7.515624 16.789062 16.785156zm0 0" fill="#cfd8dc"/><path d="m411.632812 251.902344c0 41.71875-33.820312 75.539062-75.542968 75.539062-4.214844.007813-8.425782-.332031-12.589844-1.003906-36.351562-6.171875-62.949219-37.664062-62.949219-74.535156s26.597657-68.363282 62.949219-74.535156c4.164062-.675782 8.375-1.011719 12.589844-1.007813 41.722656 0 75.542968 33.824219 75.542968 75.542969zm0 0" fill="#9e9e9e"/><path d="m386.453125 251.902344c0-41.164063-28.183594-74.535156-62.953125-74.535156-34.765625 0-62.949219 33.371093-62.949219 74.535156 0 41.164062 28.183594 74.535156 62.949219 74.535156 34.769531 0 62.953125-33.371094 62.953125-74.535156zm0 0" fill="#f5f5f5"/><path d="m361.273438 251.902344c0 13.90625-11.273438 25.179687-25.183594 25.179687-2.867188.019531-5.710938-.496093-8.390625-1.511719-10.058594-3.519531-16.789063-13.011718-16.789063-23.667968s6.730469-20.148438 16.789063-23.671875c2.679687-1.015625 5.523437-1.527344 8.390625-1.507813 13.910156 0 25.183594 11.273438 25.183594 25.179688zm0 0" fill="#c52828"/><path d="m344.484375 251.902344c0-13.074219-7.515625-23.671875-16.785156-23.671875-9.273438 0-16.789063 10.597656-16.789063 23.671875 0 13.070312 7.515625 23.667968 16.789063 23.667968 9.269531 0 16.785156-10.597656 16.785156-23.667968zm0 0" fill="#f44335"/><path d="m423.382812 61.285156c-51.324218-50.945312-101.796874-61.1874998-166.601562-61.1874998h-13.019531l-13.175781-.0507812c-38.683594-.207031-78.714844-.417969-116.082032 15.242187-88.507812 37.09375-97.113281 130.378907-97.363281 215.957032-10.632813 9.550781-16.730469 23.152344-16.785156 37.441406v41.96875c-.164063 23.863281 16.644531 44.480469 40.050781 49.125 9.691406 21.648438 22.347656 41.835938 37.613281 59.988281l42.644531 50.957031c17.5625 20.925782 43.488282 33.003907 70.808594 32.980469h120.027344c17.792969-.035156 34.636719-8.046875 45.894531-21.824219l82.539063-118.347656c8.8125-10.523437 13.648437-23.808594 13.667968-37.535156v-196.246094c-.074218-24.570312-9.875-48.113281-27.265624-65.46875zm-137.652343 324.910156v16.789063h-16.785157v-16.789063zm25.179687 0c4.636719 0 8.394532 3.757813 8.394532 8.394532v8.394531h-16.785157v-16.789063zm-41.964844 50.363282v-16.789063h16.785157v16.789063zm-33.574218 0v-16.789063h16.785156v16.789063zm67.148437-16.789063h16.785157v8.394531c0 4.636719-3.757813 8.394532-8.394532 8.394532h-8.390625zm-50.363281-16.785156h-16.785156v-16.789063h16.785156zm-131.148438-372.222656c30.535157-12.792969 64.355469-14.003907 97.574219-13.96875v84.027343h-23.835937c-5.625 0-10.71875.199219-14.804688.585938h-1.320312c-74.699219 0-119.933594 39.585938-134.839844 117.507812-3.324219.441407-6.597656 1.21875-9.769531 2.316407.929687-77.328125 11.214843-158.703125 86.996093-190.46875zm12.523438 429.195312-42.664062-50.964843c-15.214844-18.039063-27.675782-38.234376-36.972657-59.929688-.1875-.308594-.390625-.609375-.613281-.894531-.277344-.511719-.609375-.988281-.988281-1.429688-.378907-.386719-.796875-.734375-1.242188-1.039062-.40625-.320313-.835937-.601563-1.292969-.839844-.554687-.238281-1.136718-.417969-1.730468-.539063-.320313-.121093-.652344-.222656-.988282-.300781-7.585937-.789062-14.671874-4.160156-20.070312-9.550781-6.300781-6.324219-9.832031-14.886719-9.828125-23.8125v-41.96875c.039063-10.558594 5.007813-20.492188 13.429687-26.859375 5.816407-4.410156 12.929688-6.773437 20.226563-6.714844 1.058594-.007812 2.105469-.21875 3.082031-.621093.289063-.144532.570313-.3125.839844-.492188.625-.320312 1.207031-.714844 1.738281-1.175781.226563-.246094.441407-.503907.636719-.773438.46875-.527343.863281-1.117187 1.175781-1.753906.128907-.296875.242188-.601563.335938-.914063.199219-.417968.367187-.851562.503906-1.292968 12.203125-73.964844 51.339844-109.953125 120.394531-109.953125h1.132813c4.371093-.355469 8.964843-.53125 14.109375-.53125h23.835937v285.378906h-41.964843c-4.636719 0-8.394532 3.757813-8.394532 8.394531 0 4.632813 3.757813 8.390625 8.394532 8.390625h41.964843v67.148438h-27.109375c-22.351562.027343-43.566406-9.84375-57.941406-26.960938zm303.28125-133.957031c-.058594 10.050781-3.671875 19.757812-10.207031 27.394531l-40.152344 57.5625v-2.433593c.027344-7.617188 2.109375-15.085938 6.027344-21.621094l17.960937-29.964844c2.382813-3.976562 1.089844-9.132812-2.886718-11.515625-3.980469-2.382813-9.132813-1.089844-11.515626 2.886719l-17.980468 29.988281c-5.472656 9.132813-8.371094 19.574219-8.394532 30.21875v26.496094l-25.597656 36.699219c-8.070312 9.648437-20.003906 15.21875-32.585937 15.207031h-76.109375v-33.574219h75.539062c13.90625 0 25.179688-11.273438 25.179688-25.179688v-33.574218c0-13.90625-11.273438-25.179688-25.179688-25.179688h-75.539062v-352.523437h21.410156c60.535156 0 107.527344 9.417969 154.742188 56.308593l2.980468 2.972657c14.234375 14.207031 22.253906 33.472656 22.308594 53.585937zm0 0"/><path d="m386.453125 184.914062v-30.214843l22.71875-22.722657c1.585937-1.585937 2.472656-3.734374 2.460937-5.976562v-25.179688c0-4.636718-3.757812-8.394531-8.394531-8.394531s-8.394531 3.757813-8.394531 8.394531v21.703126l-22.71875 22.722656c-1.574219 1.574218-2.460938 3.707031-2.460938 5.933594v23.847656c-7.992187-3.523438-16.488281-5.757813-25.179687-6.632813v-35.546875c11.5625-4.085937 18.5-15.910156 16.425781-27.996094-2.074218-12.085937-12.554687-20.921874-24.820312-20.921874-12.261719 0-22.742188 8.835937-24.816406 20.921874-2.074219 12.085938 4.863281 23.910157 16.425781 27.996094v35.546875c-5.699219.570313-11.324219 1.722657-16.789063 3.441407v-20.65625c0-2.226563-.882812-4.359376-2.457031-5.933594l-22.722656-22.722656v-31.640626c11.5625-4.089843 18.5-15.910156 16.425781-28-2.074219-12.085937-12.554688-20.921874-24.820312-20.921874-12.261719 0-22.742188 8.835937-24.816407 20.921874-2.074219 12.089844 4.863281 23.910157 16.425781 28v35.117188c0 2.226562.882813 4.359375 2.457032 5.933594l22.722656 22.722656v24.667969c-32.101562 18.511719-48.265625 55.882812-39.769531 91.953125 8.496093 36.066406 39.640625 62.296875 76.628906 64.539062 36.988281 2.238282 71.066406-20.042968 83.851563-54.824218 12.785156-34.78125 1.25-73.828126-28.382813-96.078126zm-109.117187-126.0625c4.636718 0 8.394531 3.757813 8.394531 8.394532 0 4.636718-3.757813 8.394531-8.394531 8.394531-4.632813 0-8.390626-3.757813-8.390626-8.394531 0-4.636719 3.757813-8.394532 8.390626-8.394532zm58.753906 41.96875c4.636718 0 8.394531 3.757813 8.394531 8.394532 0 4.632812-3.757813 8.390625-8.394531 8.390625-4.632813 0-8.390625-3.757813-8.390625-8.390625 0-4.636719 3.757812-8.394532 8.390625-8.394532zm0 218.230469c-37.082032 0-67.144532-30.0625-67.144532-67.148437 0-37.085938 30.0625-67.148438 67.144532-67.148438 37.085937 0 67.148437 30.0625 67.148437 67.148438-.039062 37.066406-30.078125 67.105468-67.148437 67.148437zm0 0"/><path d="m336.089844 218.328125c-18.539063 0-33.570313 15.03125-33.570313 33.574219 0 18.542968 15.03125 33.574218 33.570313 33.574218 18.542968 0 33.574218-15.03125 33.574218-33.574218 0-18.542969-15.03125-33.574219-33.574218-33.574219zm0 50.359375c-9.269532 0-16.785156-7.515625-16.785156-16.785156 0-9.273438 7.515624-16.789063 16.785156-16.789063 9.273437 0 16.789062 7.515625 16.789062 16.789063 0 9.269531-7.515625 16.785156-16.789062 16.785156zm0 0"/><path d="m117.863281 218.328125c-18.542969 0-33.574219 15.03125-33.574219 33.574219 0 18.542968 15.03125 33.574218 33.574219 33.574218 18.539063 0 33.574219-15.03125 33.574219-33.574218 0-18.542969-15.035156-33.574219-33.574219-33.574219zm0 50.359375c-9.273437 0-16.789062-7.515625-16.789062-16.785156 0-9.273438 7.515625-16.789063 16.789062-16.789063 9.269531 0 16.785157 7.515625 16.785157 16.789063 0 9.269531-7.515626 16.785156-16.785157 16.785156zm0 0"/><path d="m191.363281 360.765625c.667969.164063 1.351563.25 2.039063.25 4.238281-.003906 7.804687-3.164063 8.320312-7.367187.519532-4.207032-2.179687-8.136719-6.289062-9.167969-3.976563-.980469-6.769532-4.550781-6.769532-8.644531s2.792969-7.664063 6.769532-8.644532c4.464844-1.152344 7.164062-5.691406 6.042968-10.167968-1.117187-4.472657-5.640624-7.203126-10.121093-6.117188-11.445313 2.855469-19.476563 13.136719-19.476563 24.929688 0 11.792968 8.03125 22.074218 19.476563 24.929687zm0 0"/><path d="m57.933594 276.695312c2.859375-.898437 5.023437-3.257812 5.675781-6.183593.648437-2.925781-.308594-5.980469-2.519531-8.007813-2.210938-2.027344-5.332032-2.722656-8.191406-1.824218-12.058594 4.382812-19.785157 16.191406-18.972657 28.992187-.808593 12.808594 6.929688 24.617187 18.996094 28.992187 4.421875 1.390626 9.132813-1.066406 10.527344-5.488281 1.390625-4.425781-1.070313-9.136719-5.492188-10.527343-4.484375-2.785157-7.214843-7.695313-7.214843-12.976563s2.730468-10.1875 7.214843-12.976563zm0 0"/><path d="m92.683594 209.933594c2.222656 0 4.359375-.882813 5.933594-2.457032 9.15625-9.207031 21.613281-14.367187 34.597656-14.328124h1.433594c4.636718 0 8.394531-3.757813 8.394531-8.394532 0-4.636718-3.757813-8.394531-8.394531-8.394531h-1.433594c-17.4375-.046875-34.171875 6.882813-46.46875 19.246094-2.398438 2.402343-3.117188 6.011719-1.816406 9.148437 1.296874 3.136719 4.359374 5.179688 7.753906 5.179688zm0 0"/></svg>