<svg height="512pt" viewBox="0 0 512.00062 512" width="512pt" xmlns="http://www.w3.org/2000/svg"><path d="m307.199219 447.660156v.339844c0 28.277344-22.921875 51.199219-51.199219 51.199219-3.585938.027343-7.164062-.347657-10.667969-1.109375-23.613281-5.078125-40.488281-25.933594-40.53125-50.089844v-.339844zm0 0" fill="#4527a0"/><path d="m285.867188 447.660156v.339844c-.042969 24.15625-16.917969 45.011719-40.535157 50.089844-23.613281-5.078125-40.488281-25.933594-40.53125-50.089844v-.339844zm0 0" fill="#673ab7"/><path d="m51.199219 430.933594v51.199218c0 5.660157-2.246094 11.085938-6.246094 15.085938s-9.429687 6.25-15.085937 6.25c-3.753907.03125-7.445313-.972656-10.667969-2.902344-6.601563-3.789062-10.671875-10.820312-10.664063-18.433594v-51.199218c-.007812-7.613282 4.0625-14.644532 10.664063-18.433594 3.222656-1.929688 6.914062-2.933594 10.667969-2.898438 5.664062-.019531 11.101562 2.222657 15.105468 6.226563s6.246094 9.441406 6.226563 15.105469zm0 0" fill="#37474f"/><path d="m503.46875 430.933594v51.199218c0 11.78125-9.550781 21.335938-21.335938 21.335938-3.753906.03125-7.445312-.972656-10.664062-2.902344-6.605469-3.789062-10.675781-10.820312-10.667969-18.433594v-51.199218c-.011719-5.660156 2.230469-11.09375 6.230469-15.105469 1.304688-1.320313 2.800781-2.441406 4.4375-3.328125 3.21875-1.929688 6.910156-2.933594 10.664062-2.898438 11.785157 0 21.335938 9.550782 21.335938 21.332032zm0 0" fill="#37474f"/><path d="m29.867188 430.933594v51.199218c.003906 7.613282-4.0625 14.644532-10.667969 18.433594-6.601563-3.789062-10.671875-10.820312-10.664063-18.433594v-51.199218c-.007812-7.613282 4.0625-14.644532 10.664063-18.433594 1.636719.886719 3.132812 2.007812 4.4375 3.328125 4 4.011719 6.242187 9.445313 6.230469 15.105469zm0 0" fill="#607d8b"/><path d="m482.132812 430.933594v51.199218c.007813 7.613282-4.0625 14.644532-10.664062 18.433594-6.605469-3.789062-10.675781-10.820312-10.667969-18.433594v-51.199218c-.011719-5.660156 2.230469-11.09375 6.230469-15.105469 1.304688-1.320313 2.800781-2.441406 4.4375-3.328125 6.601562 3.789062 10.671875 10.820312 10.664062 18.433594zm0 0" fill="#607d8b"/><path d="m426.667969 230.398438v93.867187c-.023438 70.683594-57.316407 127.976563-128 128h-85.335938c-70.679687-.023437-127.972656-57.316406-128-128v-93.867187c-.066406-90.125 70.042969-164.722657 160-170.238282 3.5-.339844 7.085938-.425781 10.667969-.425781 94.242188.03125 170.632812 76.421875 170.667969 170.664063zm0 0" fill="#ad1457"/><path d="m405.332031 230.398438v93.867187c-.023437 70.683594-57.316406 127.976563-128 128h-64c-70.679687-.023437-127.972656-57.316406-128-128v-93.867187c-.066406-90.125 70.042969-164.722657 160-170.238282 89.929688 5.578125 160.007813 80.140625 160 170.238282zm0 0" fill="#e91e63"/><path d="m361.644531 233.8125c-11.59375 2.96875-23.660156 3.605469-35.5 1.878906-1.792969-.171875-3.582031-.511718-5.375-.855468l-13.058593-2.644532c-6.011719-1.195312-12.128907-1.796875-18.257813-1.792968h-67.925781c-5.789063.082031-11.558594.683593-17.238282 1.792968l-13.054687 2.644532c-4.398437.863281-8.84375 1.433593-13.3125 1.707031-1.621094 0-3.242187.085937-4.867187.085937-4.253907.03125-8.507813-.28125-12.710938-.9375-3.367188-.417968-6.699219-1.046875-9.984375-1.878906-8.3125-1.925781-13.859375-9.78125-12.886719-18.261719 6.957032-54.816406 50.550782-97.742187 105.472656-103.847656 4.332032-.515625 8.691407-.773437 13.054688-.769531 22.371094-.03125 44.292969 6.269531 63.234375 18.175781 12.066406 7.570313 22.699219 17.21875 31.402344 28.5 12.988281 16.835937 21.238281 36.84375 23.890625 57.941406.972656 8.480469-4.570313 16.335938-12.882813 18.261719zm0 0" fill="#00838f"/><path d="m336.042969 233.8125c-3.253907.839844-6.5625 1.46875-9.898438 1.878906-10.296875 1.507813-20.777343 1.21875-30.976562-.855468l-13.054688-2.644532c-6.015625-1.195312-12.128906-1.796875-18.261719-1.792968h-67.925781c-5.789062.082031-11.554687.683593-17.238281 1.792968l-13.054688 2.644532c-1.792968.34375-3.5.597656-5.289062.855468-3.367188-.417968-6.699219-1.046875-9.984375-1.878906-8.3125-1.925781-13.859375-9.78125-12.886719-18.261719 6.957032-54.816406 50.550782-97.742187 105.472656-103.847656 18.015626 1.789063 35.371094 7.746094 50.6875 17.40625 12.070313 7.570313 22.699219 17.21875 31.402344 28.5 12.992188 16.835937 21.242188 36.84375 23.894532 57.941406.96875 8.480469-4.574219 16.335938-12.886719 18.261719zm0 0" fill="#00bcd4"/><path d="m163.15625 342.359375c-6.96875 6.976563-17.339844 9.304687-26.621094 5.972656-3.597656-1.242187-6.867187-3.285156-9.558594-5.972656-9.980468-9.996094-9.980468-26.1875 0-36.183594 2.691407-2.691406 5.960938-4.730469 9.558594-5.972656 11.257813-4.015625 23.800782.3125 30.183594 10.421875 6.382812 10.105469 4.90625 23.289062-3.5625 31.734375zm0 0" fill="#4527a0"/><path d="m385.023438 342.359375c-6.96875 6.976563-17.339844 9.304687-26.621094 5.972656-3.597656-1.242187-6.867188-3.285156-9.558594-5.972656-9.984375-9.996094-9.984375-26.1875 0-36.183594 2.691406-2.691406 5.960938-4.730469 9.558594-5.972656 11.257812-4.015625 23.800781.3125 30.183594 10.421875 6.382812 10.105469 4.902343 23.289062-3.5625 31.734375zm0 0" fill="#4527a0"/><path d="m146.089844 342.359375c-2.691406 2.6875-5.957032 4.730469-9.554688 5.972656-3.597656-1.242187-6.867187-3.285156-9.558594-5.972656-9.980468-9.996094-9.980468-26.1875 0-36.183594 2.691407-2.691406 5.960938-4.730469 9.558594-5.972656 3.597656 1.242187 6.863282 3.28125 9.554688 5.972656 9.984375 9.996094 9.984375 26.1875 0 36.183594zm0 0" fill="#673ab7"/><path d="m367.957031 342.359375c-2.691406 2.6875-5.957031 4.730469-9.554687 5.972656-3.597656-1.242187-6.867188-3.285156-9.558594-5.972656-9.984375-9.996094-9.984375-26.1875 0-36.183594 2.691406-2.691406 5.960938-4.730469 9.558594-5.972656 3.597656 1.242187 6.863281 3.28125 9.554687 5.972656 9.984375 9.996094 9.984375 26.1875 0 36.183594zm0 0" fill="#673ab7"/><path d="m230.402344 179.199219c0 9.425781-7.644532 17.066406-17.070313 17.066406-9.421875 0-17.066406-7.640625-17.066406-17.066406s7.644531-17.066407 17.066406-17.066407c9.425781 0 17.070313 7.640626 17.070313 17.066407zm0 0" fill="#4527a0"/><path d="m315.734375 179.199219c0 9.425781-7.640625 17.066406-17.066406 17.066406s-17.066407-7.640625-17.066407-17.066406 7.640626-17.066407 17.066407-17.066407 17.066406 7.640626 17.066406 17.066407zm0 0" fill="#4527a0"/><path d="m110.933594 25.601562c0 9.425782-7.640625 17.066407-17.066406 17.066407-9.425782 0-17.066407-7.640625-17.066407-17.066407 0-9.425781 7.640625-17.066406 17.066407-17.066406 9.425781 0 17.066406 7.640625 17.066406 17.066406zm0 0" fill="#e91e63"/><path d="m435.199219 25.601562c0 9.425782-7.640625 17.066407-17.066407 17.066407-9.425781 0-17.066406-7.640625-17.066406-17.066407 0-9.425781 7.640625-17.066406 17.066406-17.066406 9.425782 0 17.066407 7.640625 17.066407 17.066406zm0 0" fill="#e91e63"/><path d="m230.402344 273.066406c0 4.714844-3.820313 8.535156-8.535156 8.535156-4.710938 0-8.535157-3.820312-8.535157-8.535156 0-4.710937 3.824219-8.53125 8.535157-8.53125 4.714843 0 8.535156 3.820313 8.535156 8.53125zm0 0"/><path d="m264.535156 273.066406c0 4.714844-3.820312 8.535156-8.535156 8.535156-4.710938 0-8.53125-3.820312-8.53125-8.535156 0-4.710937 3.820312-8.53125 8.53125-8.53125 4.714844 0 8.535156 3.820313 8.535156 8.53125zm0 0"/><path d="m298.667969 273.066406c0 4.714844-3.820313 8.535156-8.535157 8.535156-4.710937 0-8.53125-3.820312-8.53125-8.535156 0-4.710937 3.820313-8.53125 8.53125-8.53125 4.714844 0 8.535157 3.820313 8.535157 8.53125zm0 0"/><path d="m148.257812 242.125c14.621094 3.640625 29.867188 4.007812 44.648438 1.066406l13.039062-2.621094c5.472657-1.085937 11.039063-1.636718 16.621094-1.636718h66.867188c5.578125 0 11.136718.546875 16.605468 1.636718l13.109376 2.628907c14.773437 2.9375 30.019531 2.574219 44.636718-1.066407 12.476563-3.023437 20.746094-14.875 19.277344-27.628906-7.980469-64.082031-62.445312-112.183594-127.019531-112.183594s-119.039063 48.101563-127.019531 112.183594c-1.46875 12.738282 6.777343 24.582032 19.234374 27.621094zm107.742188-122.65625c55.914062.046875 103.074219 41.660156 110.082031 97.132812.363281 4.183594-2.394531 8.003907-6.476562 8.976563-12.171875 3.003906-24.851563 3.296875-37.148438.855469l-13.070312-2.621094c-6.574219-1.296875-13.253907-1.949219-19.953125-1.945312h-66.867188c-6.703125.003906-13.390625.664062-19.96875 1.972656l-13.046875 2.617187c-12.296875 2.445313-24.980469 2.15625-37.152343-.851562-4.082032-.972657-6.835938-4.789063-6.476563-8.96875 6.992187-55.488281 54.152344-97.117188 110.078125-97.167969zm0 0"/><path d="m482.132812 401.066406c-13.816406.019532-25.816406 9.515625-29.011718 22.957032l-34.558594-34.5625c10.929688-19.988282 16.652344-42.410157 16.636719-65.195313v-93.867187c-.035157-55.070313-25.445313-107.058594-68.878907-140.917969l40.847657-40.839844c3.417969 1.664063 7.164062 2.539063 10.964843 2.558594 14.140626 0 25.601563-11.460938 25.601563-25.597657 0-14.140624-11.460937-25.601562-25.601563-25.601562-14.136718 0-25.597656 11.460938-25.597656 25.601562.011719 3.800782.890625 7.550782 2.558594 10.964844l-42.886719 42.894532c-58.601562-37.683594-133.808593-37.683594-192.410156 0l-42.890625-42.894532c1.671875-3.414062 2.546875-7.164062 2.5625-10.964844 0-14.140624-11.464844-25.601562-25.601562-25.601562-14.136719 0-25.601563 11.460938-25.601563 25.601562 0 14.136719 11.464844 25.597657 25.601563 25.597657 3.800781-.019531 7.550781-.894531 10.964843-2.558594l40.851563 40.847656c-43.433594 33.859375-68.84375 85.839844-68.882813 140.910157v93.867187c-.027343 22.78125 5.683594 45.203125 16.605469 65.195313l-34.527344 34.5625c-3.425781-14.808594-17.4375-24.671876-32.53125-22.902344-15.097656 1.773437-26.4453122 14.613281-26.347656 29.8125v51.199218c0 16.496094 13.371094 29.867188 29.867188 29.867188 16.496093 0 29.867187-13.371094 29.867187-29.867188v-34.867187l43.109375-43.109375c22.226562 30.769531 56.261719 50.890625 93.933594 55.535156 3.734375 29.867188 29.125 52.28125 59.222656 52.28125 30.101562 0 55.488281-22.414062 59.222656-52.28125 37.671875-4.644531 71.707032-24.765625 93.933594-55.535156l43.109375 43.109375v34.867187c0 16.496094 13.375 29.867188 29.867187 29.867188 16.496094 0 29.867188-13.371094 29.867188-29.867188v-51.199218c0-16.496094-13.371094-29.867188-29.867188-29.867188zm-64-384c3.851563 0 7.226563 2.582032 8.238282 6.296875 1.007812 3.71875-.597656 7.652344-3.921875 9.597657-3.320313 1.949218-7.539063 1.429687-10.289063-1.269532v-.117187h-.117187c-2.40625-2.453125-3.105469-6.109375-1.773438-9.277344 1.328125-3.167969 4.429688-5.230469 7.863281-5.230469zm-332.800781 8.535156c0-3.851562 2.582031-7.226562 6.300781-8.238281 3.714844-1.007812 7.648438.597657 9.597657 3.921875 1.945312 3.320313 1.425781 7.539063-1.269531 10.289063h-.121094l-.058594.09375c-2.457031 2.359375-6.078125 3.035156-9.21875 1.714843-3.140625-1.316406-5.195312-4.378906-5.230469-7.78125zm-42.664062 456.53125c0 7.070313-5.730469 12.800782-12.800781 12.800782-7.070313 0-12.800782-5.730469-12.800782-12.800782v-51.199218c0-7.070313 5.730469-12.800782 12.800782-12.800782 7.070312 0 12.800781 5.730469 12.800781 12.800782zm213.332031 12.800782c-20.25-.027344-37.695312-14.289063-41.746094-34.132813h83.558594c-4.082031 19.851563-21.542969 34.105469-41.8125 34.132813zm42.667969-51.199219h-85.335938c-39.289062-.023437-76.054687-19.375-98.3125-51.753906l6.214844-6.214844c3.234375-3.347656 3.1875-8.667969-.105469-11.960937-3.289062-3.292969-8.613281-3.339844-11.960937-.105469l-3.011719 3.011719c-8.066406-16.304688-12.269531-34.25-12.289062-52.445313v-93.867187c.046874-50.558594 23.722656-98.1875 64-128.75l6.785156 6.828124c3.347656 3.234376 8.667968 3.1875 11.960937-.105468 3.292969-3.289063 3.339844-8.613282.105469-11.960938l-4.5-4.496094c51.433594-31.472656 116.164062-31.472656 167.597656 0l-4.5 4.496094c-2.214844 2.140625-3.105468 5.316406-2.324218 8.296875.78125 2.984375 3.109374 5.316407 6.09375 6.097657 2.984374.78125 6.15625-.109376 8.296874-2.328126l6.828126-6.785156c40.234374 30.570313 63.882812 78.179688 63.921874 128.707032v93.867187c-.019531 18.195313-4.222656 36.140625-12.285156 52.445313l-3.015625-3.011719c-3.347656-3.234375-8.667969-3.1875-11.960937.105469-3.292969 3.292968-3.335938 8.613281-.105469 11.960937l6.214844 6.214844c-22.257813 32.378906-59.023438 51.730469-98.3125 51.753906zm196.265625 38.398437c0 7.070313-5.730469 12.800782-12.800782 12.800782-7.066406 0-12.800781-5.730469-12.800781-12.800782v-51.199218c0-7.070313 5.734375-12.800782 12.800781-12.800782 7.070313 0 12.800782 5.730469 12.800782 12.800782zm0 0"/><path d="m227.335938 400.503906-23.796876 6.375-13.9375-13.9375 4.898438-18.257812c.179688-.15625.410156-.214844.589844-.394532.140625-.1875.269531-.386718.390625-.589843l18.261719-4.898438 5.480468 5.488281c3.332032 3.335938 8.734375 3.335938 12.070313.003907 3.332031-3.332031 3.335937-8.734375.003906-12.070313l-8.96875-8.941406c-2.160156-2.15625-5.304687-2.996094-8.25-2.203125l-23.792969 6.375-15.90625-15.90625c8.015625-13.339844 5.875-30.425781-5.179687-41.378906-13.5-12.902344-34.761719-12.902344-48.265625 0-12.257813 12.097656-13.550782 31.449219-3.003906 45.070312 10.542968 13.617188 29.601562 17.214844 44.382812 8.375l15.90625 15.878907-6.375 23.792968c-.789062 2.945313.054688 6.085938 2.210938 8.242188l20.898437 20.871094c1.601563 1.601562 3.769531 2.5 6.03125 2.503906.75 0 1.492187-.097656 2.210937-.292969l28.554688-7.679687c4.410156-1.332032 6.96875-5.925782 5.777344-10.375-1.191406-4.453126-5.703125-7.152344-10.191406-6.101563zm-94.335938-64.171875c-4.882812-4.878906-6.34375-12.21875-3.699219-18.597656 2.640625-6.378906 8.863281-10.539063 15.765625-10.539063s13.128906 4.160157 15.769532 10.539063c2.640624 6.378906 1.179687 13.71875-3.703126 18.597656-6.75 6.449219-17.378906 6.449219-24.132812 0zm0 0"/><path d="m401.066406 324.265625c.023438-9.054687-3.578125-17.746094-10-24.132813-13.5-12.902343-34.765625-12.902343-48.265625 0-11.054687 10.953126-13.191406 28.042969-5.179687 41.378907l-15.914063 15.90625-23.789062-6.375c-2.949219-.804688-6.101563.039062-8.253907 2.203125l-8.917968 8.976562c-3.332032 3.335938-3.328125 8.738282.003906 12.070313 3.335938 3.332031 8.738281 3.332031 12.070312-.003907l5.480469-5.488281 18.261719 4.898438c.121094.203125.25.402343.390625.589843.179687.179688.410156.238282.589844.394532l4.898437 18.257812-13.933594 13.9375-23.800781-6.375c-4.488281-1.050781-9 1.648438-10.191406 6.101563s1.367187 9.046875 5.78125 10.375l28.550781 7.679687c.71875.195313 1.464844.292969 2.210938.292969 2.261718 0 4.433594-.902344 6.03125-2.5l20.832031-20.925781c2.15625-2.15625 2.996094-5.296875 2.207031-8.242188l-6.347656-23.792968 15.90625-15.914063c10.523438 6.238281 23.585938 6.34375 34.210938.28125 10.628906-6.058594 17.179687-17.359375 17.167968-29.59375zm-22.066406 12.066406c-6.75 6.449219-17.382812 6.449219-24.132812 0-4.882813-4.878906-6.34375-12.21875-3.703126-18.597656 2.644532-6.378906 8.867188-10.539063 15.769532-10.539063s13.128906 4.160157 15.769531 10.539063 1.179687 13.71875-3.703125 18.597656zm0 0"/><path d="m213.332031 204.800781c14.140625 0 25.601563-11.460937 25.601563-25.601562 0-14.136719-11.460938-25.597657-25.601563-25.597657-14.136719 0-25.597656 11.460938-25.597656 25.597657 0 14.140625 11.460937 25.601562 25.597656 25.601562zm0-34.132812c4.714844 0 8.535157 3.820312 8.535157 8.53125 0 4.714843-3.820313 8.535156-8.535157 8.535156-4.710937 0-8.53125-3.820313-8.53125-8.535156 0-4.710938 3.820313-8.53125 8.53125-8.53125zm0 0"/><path d="m298.667969 204.800781c14.136719 0 25.597656-11.460937 25.597656-25.601562 0-14.136719-11.460937-25.597657-25.597656-25.597657-14.140625 0-25.601563 11.460938-25.601563 25.597657 0 14.140625 11.460938 25.601562 25.601563 25.601562zm0-34.132812c4.710937 0 8.53125 3.820312 8.53125 8.53125 0 4.714843-3.820313 8.535156-8.53125 8.535156-4.714844 0-8.535157-3.820313-8.535157-8.535156 0-4.710938 3.820313-8.53125 8.535157-8.53125zm0 0"/></svg>