<svg height="512pt" viewBox="0 0 512 512" width="512pt" xmlns="http://www.w3.org/2000/svg"><path d="m111.171875 350.039062c4.839844 6.214844 6.339844 14.402344 4.011719 21.929688-4.609375 12.628906-21.589844 18.429688-40.277344 14.761719-3.199219-.613281-6.339844-1.5-9.386719-2.644531-22.015625-8.023438-35.585937-26.453126-30.210937-41.132813 4.148437-9.082031 13.0625-15.058594 23.042968-15.445313l40.277344-99.839843 4.4375-11.09375 57.769532 37.976562zm0 0" fill="#1566c0"/><path d="m89.839844 350.039062c4.839844 6.214844 6.335937 14.402344 4.007812 21.929688-3.382812 7.828125-10.523437 13.390625-18.941406 14.761719-3.199219-.613281-6.339844-1.5-9.386719-2.644531-22.015625-8.023438-35.585937-26.453126-30.210937-41.132813 4.148437-9.082031 13.0625-15.058594 23.042968-15.445313l40.277344-99.839843 40.875 26.882812zm0 0" fill="#2296f3"/><path d="m452.589844 381.441406c-1.984375 1.019532-4.039063 1.902344-6.144532 2.644532-22.101562 8.019531-44.285156 2.644531-49.664062-12.117188-2.328125-7.527344-.828125-15.714844 4.011719-21.929688l-49.066407-94.296874-.597656-1.191407 57.769532-37.976562v.085937l44.714843 110.847656c9.980469.386719 18.890625 6.363282 23.042969 15.445313 4.863281 13.226563-5.71875 29.613281-24.066406 38.488281zm0 0" fill="#1566c0"/><path d="m452.589844 381.441406c-1.984375 1.019532-4.039063 1.902344-6.144532 2.644532-22.101562 8.019531-44.285156 2.644531-49.664062-12.117188-2.328125-7.527344-.828125-15.714844 4.011719-21.929688l-49.066407-94.296874 40.105469-26.367188v.085938l44.714844 110.847656c9.980469.386718 18.890625 6.359375 23.039063 15.445312 2.578124 9.199219-.109376 19.066406-6.996094 25.6875zm0 0" fill="#2296f3"/><path d="m325.1875 119.382812-24.917969 42.75-21.246093-.085937-67.160157-.253906-24.148437-42.328125 116.140625-.082032zm0 0" fill="#37474f"/><path d="m303.855469 119.382812-24.832031 42.664063-67.160157-.253906-24.148437-42.328125zm0 0" fill="#607d8b"/><path d="m325.273438 51.285156h-21.332032l-116.226562-.085937 19.96875-34.21875c2.886718-4.917969 8.046875-8.058594 13.738281-8.363281.335937-.070313.679687-.097657 1.023437-.082032l68.695313.253906c6.113281.003907 11.753906 3.296876 14.761719 8.617188zm0 0" fill="#283593"/><path d="m303.941406 51.285156-116.226562-.085937 19.96875-34.21875c2.886718-4.917969 8.046875-8.058594 13.738281-8.363281l48.382813.171874c6.117187.003907 11.757812 3.296876 14.765624 8.617188zm0 0" fill="#3f51b5"/><path d="m358.382812 85.332031c-.058593 18.828125-15.304687 34.078125-34.132812 34.132813h-136.535156c-2.824219.027344-5.640625-.34375-8.363282-1.109375-16.5625-4.324219-27.359374-20.253907-25.242187-37.242188 2.113281-16.988281 16.488281-29.78125 33.605469-29.914062h136.535156c.34375-.011719.6875.015625 1.023438.085937 18.433593.515625 33.105468 15.609375 33.109374 34.046875zm0 0" fill="#558b30"/><path d="m337.050781 85.332031c-.058593 18.828125-15.308593 34.078125-34.136719 34.132813h-115.199218c-2.824219.027344-5.640625-.34375-8.363282-1.109375-16.5625-4.324219-27.359374-20.253907-25.242187-37.242188 2.113281-16.988281 16.488281-29.78125 33.605469-29.914062h115.199218c.34375-.011719.6875.015625 1.027344.085937 18.429688.515625 33.105469 15.609375 33.109375 34.046875zm0 0" fill="#8bc34a"/><path d="m315.972656 384-8.789062 29.183594c-1.785156 12.628906-12.59375 22.015625-25.34375 22.015625h-51.714844c-12.75 0-23.558594-9.386719-25.34375-22.015625l-8.789062-29.183594zm0 0" fill="#37474f"/><path d="m294.636719 384-8.789063 29.183594c-1.785156 12.628906-12.589844 22.015625-25.34375 22.015625h-30.378906c-12.75 0-23.558594-9.386719-25.34375-22.015625l-8.789062-29.183594zm0 0" fill="#607d8b"/><path d="m341.316406 187.734375v108.117187c-.34375 2.046876-.769531 5.289063-1.109375 7.335938l-24.234375 80.8125h-119.980468l-24.234376-80.8125c-.339843-2.046875-.765624-5.289062-1.109374-7.335938v-108.117187c0-14.140625 11.460937-25.601563 25.601562-25.601563h119.464844c14.140625 0 25.601562 11.460938 25.601562 25.601563zm0 0" fill="#283593"/><path d="m319.980469 187.734375v108.117187c-.339844 2.046876-.765625 5.289063-1.105469 7.335938l-24.238281 80.8125h-98.644531l-24.234376-80.8125c-.339843-2.046875-.765624-5.289062-1.109374-7.335938v-108.117187c0-14.140625 11.460937-25.601563 25.601562-25.601563h98.132812c14.136719 0 25.597657 11.460938 25.597657 25.601563zm0 0" fill="#3f51b5"/><path d="m176.878906 171.058594c-14.285156-10.363282-33.171875-11.839844-48.894531-3.820313-15.71875 8.023438-25.609375 24.179688-25.601563 41.828125-.035156 2.519532.195313 5.035156.683594 7.507813 2.070313 12.992187 9.515625 24.507812 20.507813 31.734375 10.992187 7.222656 24.515625 9.488281 37.261719 6.242187 3.410156-.855469 6.703124-2.117187 9.8125-3.757812zm0 0" fill="#607d8b"/><path d="m409.582031 209.066406c.035157 2.519532-.195312 5.035156-.683593 7.507813v.085937c-3.644532 22.703125-23.257813 39.382813-46.25 39.339844-3.59375.011719-7.175782-.417969-10.667969-1.28125-.289063-.015625-.578125-.070312-.851563-.167969-3.410156-.855469-6.703125-2.117187-9.8125-3.757812l-6.230468-79.699219c8.042968-5.761719 17.671874-8.890625 27.5625-8.960938 25.921874 0 46.933593 21.011719 46.933593 46.933594zm0 0" fill="#37474f"/><path d="m388.25 209.066406c.035156 2.519532-.195312 5.035156-.683594 7.507813v.085937c-2.964844 18.769532-17.054687 33.84375-35.585937 38.058594-.289063-.015625-.578125-.070312-.851563-.167969-3.410156-.855469-6.703125-2.117187-9.8125-3.757812l-6.230468-79.699219c5.023437-3.726562 10.785156-6.34375 16.894531-7.679688 21.253906 4.902344 36.300781 23.839844 36.269531 45.652344zm0 0" fill="#607d8b"/><path d="m87.621094 457.386719c-8.839844 14.535156-25.480469 22.421875-42.328125 20.054687-1.53125-.210937-3.046875-.554687-4.519531-1.027344 10.664062-2.757812 19.824218-9.589843 25.511718-19.027343 3.71875-6.148438 5.832032-13.132813 6.144532-20.308594 7.640624-1.171875 14.8125-4.417969 20.738281-9.386719 1.816406 10.242188-.15625 20.796875-5.546875 29.695313zm0 0" fill="#ff9801"/><path d="m466.671875 477.441406c-5.585937.8125-11.28125.464844-16.726563-1.027344h-.085937c-10.667969-2.757812-19.828125-9.589843-25.515625-19.027343-3.714844-6.148438-5.828125-13.132813-6.144531-20.308594-.183594-3.140625.015625-6.296875.597656-9.386719 4.890625 4.042969 10.597656 6.980469 16.726563 8.617188 11.519531 2.960937 23.75.992187 33.757812-5.4375 10.003906-6.425782 16.882812-16.730469 18.976562-28.4375 12.894532 10.867187 18.195313 28.296875 13.53125 44.503906-4.664062 16.203125-18.421874 28.152344-35.117187 30.503906zm0 0" fill="#ff9801"/><path d="m72.429688 437.078125c-.3125 7.175781-2.425782 14.160156-6.144532 20.308594-5.6875 9.4375-14.847656 16.269531-25.511718 19.027343h-.085938c-11.539062-2.933593-21.328125-10.554687-27-21.023437s-6.710938-22.832031-2.867188-34.101563l.253907-.765624c2.539062-7.0625 6.929687-13.3125 12.714843-18.089844 2.589844 15.027344 13.050782 27.507812 27.394532 32.679687 1.277344.429688 2.644531.855469 3.925781 1.195313 5.652344 1.484375 11.558594 1.746094 17.320313.769531zm0 0" fill="#ffb301"/><path d="m72.429688 437.078125c-5.761719.976563-11.667969.714844-17.320313-.769531 6.128906-1.636719 11.832031-4.574219 16.722656-8.617188.585938 3.089844.785157 6.246094.597657 9.386719zm0 0" fill="#ff9801"/><path d="m449.945312 476.414062h-.085937c-10.667969-2.757812-19.828125-9.589843-25.515625-19.027343-3.714844-6.148438-5.828125-13.132813-6.144531-20.308594 5.765625.976563 11.671875.714844 17.324219-.769531 16.4375 4.269531 33.839843-1.632813 44.289062-15.019532 3.890625 11.269532 2.875 23.65625-2.804688 34.136719-5.679687 10.480469-15.496093 18.097657-27.0625 20.988281zm0 0" fill="#ffb301"/><path d="m238.914062 221.867188h42.667969c4.714844 0 8.535157 3.820312 8.535157 8.53125v4.269531h8.53125c4.714843 0 8.535156 3.820312 8.535156 8.53125v17.066406c0 4.714844-3.820313 8.535156-8.535156 8.535156h-8.53125v4.265625c0 4.714844-3.820313 8.535156-8.535157 8.535156h-42.667969zm0 0" fill="#2296f3"/><path d="m238.914062 221.867188v59.734374h-25.597656c-4.714844 0-8.535156-3.820312-8.535156-8.535156v-42.667968c0-4.710938 3.820312-8.53125 8.535156-8.53125zm0 0" fill="#f44335"/><path d="m307.183594 486.398438c0-9.425782-22.925782-17.066407-51.203125-17.066407-28.273438 0-51.199219 7.640625-51.199219 17.066407 0 9.425781 22.925781 17.066406 51.199219 17.066406 28.277343 0 51.203125-7.640625 51.203125-17.066406zm0 0" fill="#37474f"/><path d="m230.382812 332.800781c0 4.710938-3.820312 8.53125-8.535156 8.53125-4.710937 0-8.53125-3.820312-8.53125-8.53125 0-4.714843 3.820313-8.535156 8.53125-8.535156 4.714844 0 8.535156 3.820313 8.535156 8.535156zm0 0"/><path d="m264.515625 332.800781c0 4.710938-3.820313 8.53125-8.535156 8.53125-4.710938 0-8.53125-3.820312-8.53125-8.53125 0-4.714843 3.820312-8.535156 8.53125-8.535156 4.714843 0 8.535156 3.820313 8.535156 8.535156zm0 0"/><path d="m298.648438 332.800781c0 4.710938-3.820313 8.53125-8.53125 8.53125-4.714844 0-8.535157-3.820312-8.535157-8.53125 0-4.714843 3.820313-8.535156 8.535157-8.535156 4.710937 0 8.53125 3.820313 8.53125 8.535156zm0 0"/><path d="m101.425781 425.71875c-.160156-.527344-.363281-1.035156-.613281-1.527344-.230469-.546875-.515625-1.070312-.855469-1.5625-.058593-.128906-.128906-.257812-.203125-.382812-.238281-.21875-.492187-.421875-.757812-.605469-.453125-.464844-.960938-.875-1.511719-1.21875-.421875-.222656-.855469-.410156-1.304687-.566406-.550782-.226563-1.121094-.390625-1.707032-.492188-.550781-.058593-1.105468-.058593-1.65625 0-.382812-.027343-.769531-.027343-1.152344 0-.160156 0-.28125.136719-.441406.167969-.535156.160156-1.054687.371094-1.546875.632812-.535156.226563-1.046875.515626-1.519531.855469-.125.09375-.28125.109375-.398438.210938-9.34375 7.851562-22.164062 10.117187-33.632812 5.945312s-19.835938-14.152343-21.945312-26.167969c-.050782-.144531-.109376-.289062-.171876-.425781-.148437-.542969-.355468-1.070312-.613281-1.570312-.21875-.535157-.488281-1.042969-.8125-1.519531-.09375-.128907-.117187-.28125-.210937-.410157-.242188-.273437-.554688-.410156-.855469-.65625-.429687-.433593-.90625-.820312-1.414063-1.152343-.453124-.253907-.929687-.460938-1.417968-.625-.519532-.210938-1.054688-.371094-1.605469-.476563-.566406-.054687-1.136719-.054687-1.707031 0-.375-.027344-.75-.027344-1.125 0-.164063 0-.289063.136719-.453125.179687-.527344.148438-1.039063.347657-1.527344.597657-.539063.226562-1.054687.515625-1.535156.851562-.128907.09375-.28125.121094-.410157.222657-19.265624 16.140624-23.964843 43.878906-11.09375 65.46875 12.671876 21.277343 38.753907 30.441406 61.949219 21.753906 23.191407-8.683594 36.84375-32.722656 32.421875-57.089844-.027344-.164062-.136718-.28125-.171875-.4375zm-54.84375 43.265625c-10.230469-1.410156-19.273437-7.367187-24.605469-16.207031-5.332031-8.84375-6.382812-19.625-2.855468-29.328125.507812-1.390625 1.101562-2.746094 1.777344-4.0625 12.15625 22.832031 39.5625 32.828125 63.5625 23.1875-.820313 3.6875-2.210938 7.222656-4.128907 10.476562-7.042969 11.59375-20.324219 17.863281-33.75 15.933594zm0 0"/><path d="m493.660156 395.863281c-.125-.113281-.289062-.128906-.417968-.222656-.472657-.320313-.980469-.59375-1.507813-.8125-.503906-.253906-1.03125-.460937-1.570313-.613281-.15625 0-.273437-.144532-.4375-.171875-.375-.027344-.75-.027344-1.125 0-.566406-.054688-1.140624-.054688-1.707031 0-.558593.097656-1.101562.257812-1.621093.480469-.488282.160156-.960938.367187-1.410157.621093-.507812.332031-.976562.714844-1.40625 1.144531-.296875.207032-.582031.425782-.851562.664063-.105469.128906-.121094.28125-.214844.410156-.320313.476563-.59375.980469-.8125 1.511719-.257813.503906-.464844 1.039062-.621094 1.585938 0 .152343-.136719.273437-.171875.425781-2.117187 12.015625-10.480468 21.984375-21.945312 26.15625s-24.28125 1.90625-33.621094-5.941407c-.121094-.09375-.273438-.117187-.402344-.210937-.472656-.335937-.980468-.621094-1.511718-.855469-.5-.265625-1.03125-.476562-1.578126-.628906-.136718-.066406-.273437-.125-.417968-.171875-.378906-.027344-.757813-.027344-1.132813 0-.570312-.058594-1.140625-.058594-1.707031 0-.585938.101563-1.160156.269531-1.707031.496094-.464844.15625-.917969.347656-1.347657.578125-.53125.335937-1.015624.730468-1.453124 1.179687-.28125.191407-.550782.40625-.800782.636719-.078125.128906-.148437.261719-.214844.394531-.335937.476563-.625.988281-.851562 1.527344-.261719.496094-.472656 1.015625-.632812 1.554687 0 .160157-.144532.28125-.171876.433594-3.769531 21.199219 6.128907 42.492188 24.761719 53.277344 18.636719 10.785156 42.03125 8.761719 58.535157-5.070312 16.5-13.828126 22.589843-36.503907 15.230468-56.742188-3.046875-8.425781-8.277344-15.894531-15.15625-21.636719zm-3.539062 56.734375c-6.105469 10.269532-17.136719 16.601563-29.082032 16.691406-11.945312.089844-23.070312-6.070312-29.328124-16.246093-1.917969-3.25-3.308594-6.785157-4.125-10.46875 5.976562 2.371093 12.34375 3.605469 18.773437 3.632812 18.738281.019531 35.960937-10.296875 44.785156-26.828125.679688 1.316406 1.28125 2.675782 1.792969 4.070313 3.507812 9.644531 2.472656 20.355469-2.816406 29.148437zm0 0"/><path d="m298.648438 221.867188c0-4.714844-3.820313-8.535157-8.53125-8.535157h-76.800782c-9.425781 0-17.066406 7.640625-17.066406 17.066407v42.667968c0 9.425782 7.640625 17.066406 17.066406 17.066406h76.800782c4.710937 0 8.53125-3.820312 8.53125-8.53125 9.425781 0 17.066406-7.640624 17.066406-17.066406v-25.601562c0-9.425782-7.640625-17.066406-17.066406-17.066406zm-85.332032 8.53125h17.066406v42.667968h-17.066406zm85.332032 34.136718h-8.53125c-4.714844 0-8.535157 3.820313-8.535157 8.53125h-34.132812v-42.667968h34.132812c0 4.714843 3.820313 8.535156 8.535157 8.535156h8.53125zm0 0"/><path d="m449.363281 392.097656c14.488281-4.777344 26.570313-14.953125 33.742188-28.414062 3.691406-7.328125 4.269531-15.839844 1.597656-23.597656-4.25-10.574219-13.683594-18.1875-24.917969-20.101563l-42.121094-104.398437c.296876-2.160157.449219-4.339844.453126-6.519532-.039063-30.617187-24.851563-55.429687-55.46875-55.464844-9.300782.003907-18.449219 2.375-26.582032 6.894532-5.851562-4.453125-12.996094-6.875-20.351562-6.894532h-.597656l15.285156-26.222656c20.921875-2.957031 36.492187-20.847656 36.523437-41.976562.035157-21.132813-15.472656-39.074219-36.386719-42.09375l-17.195312-30.140625c-4.554688-7.9375-12.984375-12.851563-22.136719-12.902344l-68.699219-.265625h-.105468c-9.09375.015625-17.503906 4.839844-22.101563 12.6875l-17.789062 30.464844c-21.34375 2.53125-37.425781 20.621094-37.4375 42.117187-.011719 21.492188 16.042969 39.601563 37.386719 42.160157l14.90625 26.171874h-1.117188c-7.355469.019532-14.5 2.441407-20.351562 6.894532-8.132813-4.519532-17.28125-6.890625-26.582032-6.894532-30.617187.035157-55.429687 24.847657-55.46875 55.464844 0 2.171875.148438 4.34375.445313 6.492188l-42.113281 104.441406c-11.214844 1.890625-20.644532 9.476562-24.890626 20.027344-2.703124 7.769531-2.140624 16.308594 1.5625 23.65625 7.171876 13.464844 19.265626 23.648437 33.757813 28.421875 7.457031 2.761719 15.335937 4.207031 23.285156 4.269531 17.648438 0 32.324219-7.792969 37.300781-21.464844 2.832032-8.308594 2-17.433594-2.285156-25.09375l41.207032-79.234375v25.226563c-.003907.414062.027343.828125.09375 1.238281l1.082031 7.378906c.058593.40625.148437.808594.265625 1.203125l32.878906 109.476563c2.765625 16.46875 16.988281 28.554687 33.6875 28.628906h51.714844c16.699218-.074219 30.921875-12.160156 33.6875-28.628906l32.878906-109.476563c.117188-.394531.207031-.796875.265625-1.203125l1.082031-7.378906c.066406-.410156.097656-.824219.09375-1.238281v-25.226563l41.207032 79.226563c-4.289063 7.652344-5.117188 16.773437-2.285157 25.078125 4.976563 13.652343 19.625 21.476562 37.300781 21.476562 7.953126-.058593 15.835938-1.5 23.292969-4.265625zm-198.636719-332.363281-25.601562 51.199219h-23.578125l25.601563-51.199219zm-20.53125 68.265625c.058594 0 .117188.042969.179688.042969.058594 0 .203125 0 .304688-.042969h79.609374l-14.910156 25.601562-78.503906-.308593-14.464844-25.292969zm119.652344-42.710938c0 14.140626-11.460937 25.601563-25.597656 25.601563h-80.035156l25.601562-51.199219h54.433594c14.136719 0 25.597656 11.460938 25.597656 25.597656zm-134.824218-63.957031c1.519531-2.632812 4.324218-4.257812 7.363281-4.265625l68.710937.265625c3.042969.003907 5.851563 1.632813 7.371094 4.265625l12.050781 21.070313h-107.9375zm-52.90625 63.957031c0-14.136718 11.460937-25.597656 25.597656-25.597656h20.34375l-25.34375 50.695313c-11.972656-2.382813-20.59375-12.890625-20.597656-25.097657zm238.933593 123.777344c.035157 1.917969-.132812 3.835938-.496093 5.71875-.050782.253906-.09375.535156-.128907.851563-1.785156 10.550781-7.910156 19.871093-16.886719 25.699219-8.972656 5.824218-19.980468 7.625-30.34375 4.960937-1.136718-.3125-2.253906-.6875-3.347656-1.125v-57.4375c0-4.703125-.980468-9.351563-2.875-13.65625 4.921875-2.238281 10.269532-3.402344 15.675782-3.410156 21.199218.023437 38.378906 17.199219 38.402343 38.398437zm-251.734375-38.398437c5.40625.007812 10.753906 1.171875 15.675782 3.410156-1.894532 4.304687-2.875 8.953125-2.875 13.65625v57.480469c-1.121094.414062-2.257813.769531-3.414063 1.066406-10.5 2.675781-21.640625.777344-30.65625-5.222656-9.019531-6.003906-15.070313-15.546875-16.652344-26.265625-.359375-1.886719-.519531-3.804688-.480469-5.726563.023438-21.199218 17.203126-38.375 38.402344-38.398437zm-42.148437 198.382812c-3.683594 10.09375-21.398438 13.300781-38.730469 7.011719-10.21875-3.277344-18.824219-10.285156-24.105469-19.625-1.71875-3.289062-2.070312-7.121094-.984375-10.667969 3.164063-5.976562 9.339844-9.753906 16.105469-9.847656.167969 0 .296875-.125.46875-.152344.78125-.152343 1.539063-.414062 2.25-.777343.21875-.085938.433594-.1875.640625-.296876.84375-.496093 1.589844-1.136718 2.210938-1.894531.128906-.164062.195312-.359375.316406-.53125.363281-.480469.671875-1 .921875-1.550781l36.804687-91.308594c9.574219 14.699219 25.609375 23.921875 43.125 24.816406l-42.589844 81.875c-.136718.363282-.242187.734376-.324218 1.109376-.222656.550781-.386719 1.125-.484375 1.707031-.054688.539062-.054688 1.078125 0 1.613281.011719.542969.074219 1.082031.1875 1.613281.164062.5625.390625 1.105469.671875 1.621094.128906.371094.277344.726563.453125 1.074219 3.207031 3.988281 4.34375 9.253906 3.0625 14.210937zm191.839843 41.710938c-.121093.40625-.210937.824219-.273437 1.246093-1.230469 8.390626-8.414063 14.621094-16.894531 14.660157h-51.714844c-8.480469-.039063-15.664062-6.269531-16.894531-14.660157-.0625-.421874-.152344-.839843-.273438-1.246093l-5.476562-18.226563h97.003906zm33.773438-115.578125-.851562 6.136718-22.316407 74.144532h-107.261719l-22.273437-74.144532-.894531-6.136718v-107.449219c0-9.425781 7.640625-17.066406 17.066406-17.066406h119.464844c9.425781 0 17.066406 7.640625 17.066406 17.066406zm72.015625 73.847656c-1.28125-4.953125-.144531-10.21875 3.0625-14.207031.171875-.34375.320313-.699219.441406-1.066407.289063-.519531.519531-1.066406.683594-1.636718.179687-1.066406.242187-2.148438.1875-3.226563-.097656-.566406-.257813-1.121093-.476563-1.65625-.078124-.390625-.191406-.773437-.332031-1.144531l-42.589843-81.917969c17.503906-.902343 33.523437-10.117187 43.101562-24.796875l36.820312 91.304688c.253907.546875.5625 1.066406.921876 1.554687.121093.167969.1875.367188.324218.535157.613282.773437 1.359375 1.433593 2.203125 1.945312.203125.128906.433594.199219.65625.308594.707031.359375 1.464844.617187 2.242188.769531.164062 0 .292969.136719.460937.152344 6.792969.09375 12.988282 3.902343 16.136719 9.925781 1.070313 3.527344.707031 7.332031-1.007813 10.597656-5.289062 9.316406-13.890624 16.300782-24.097656 19.566406-17.320312 6.332032-35.054687 3.097657-38.738281-7.007812zm0 0"/><path d="m255.980469 460.800781c-29.726563 0-59.730469 7.917969-59.730469 25.597657 0 17.683593 30.003906 25.601562 59.730469 25.601562 29.730469 0 59.734375-7.917969 59.734375-25.601562 0-17.679688-30.003906-25.597657-59.734375-25.597657zm0 34.132813c-23.585938 0-37.878907-5.375-41.886719-8.535156 4.007812-3.15625 18.300781-8.53125 41.886719-8.53125 23.589843 0 37.882812 5.375 41.890625 8.53125-4.007813 3.160156-18.300782 8.535156-41.890625 8.535156zm0 0"/></svg>