<svg height="512pt" viewBox="0 0 512 512" width="512pt" xmlns="http://www.w3.org/2000/svg"><path d="m238.859375 224.71875h34.132813v47.851562h-34.132813zm0 0" fill="#ad1457"/><path d="m324.191406 25.601562v79.1875h-136.535156v-79.1875c.03125-9.414062 7.652344-17.039062 17.066406-17.066406h102.402344c9.414062.027344 17.039062 7.652344 17.066406 17.066406zm0 0" fill="#ad1457"/><path d="m298.589844 25.601562v79.1875h-110.933594v-79.1875c.03125-9.414062 7.652344-17.039062 17.066406-17.066406h76.800782c9.414062.027344 17.039062 7.652344 17.066406 17.066406zm0 0" fill="#e91e63"/><path d="m503.390625 161.425781c0 9.035157-7.324219 16.359375-16.359375 16.359375-9.03125 0-16.355469-7.324218-16.355469-16.359375 0-9.035156 7.324219-16.359375 16.355469-16.359375 9.035156 0 16.359375 7.324219 16.359375 16.359375zm0 0" fill="#ad1457"/><path d="m426.589844 179.199219h-76.800782v-85.332031h76.800782c9.425781 0 17.066406 7.640624 17.066406 17.066406v51.199218c0 9.425782-7.640625 17.066407-17.066406 17.066407zm0 0" fill="#ad1457"/><path d="m41.175781 161.425781c0 9.035157-7.324219 16.359375-16.359375 16.359375s-16.359375-7.324218-16.359375-16.359375c0-9.035156 7.324219-16.359375 16.359375-16.359375s16.359375 7.324219 16.359375 16.359375zm0 0" fill="#e91e63"/><path d="m85.257812 93.867188h119.464844v85.332031h-119.464844c-9.425781 0-17.066406-7.640625-17.066406-17.066407v-51.199218c0-9.425782 7.640625-17.066406 17.066406-17.066406zm0 0" fill="#e91e63"/><path d="m119.390625 42.667969h273.066406c9.425781 0 17.066407 7.640625 17.066407 17.066406v153.597656c0 9.425781-7.640626 17.066407-17.066407 17.066407h-273.066406c-9.425781 0-17.066406-7.640626-17.066406-17.066407v-153.597656c0-9.425781 7.640625-17.066406 17.066406-17.066406zm0 0" fill="#fec108"/><path d="m119.390625 42.667969h251.734375c9.425781 0 17.066406 7.640625 17.066406 17.066406v153.597656c0 9.425781-7.640625 17.066407-17.066406 17.066407h-251.734375c-9.425781 0-17.066406-7.640626-17.066406-17.066407v-153.597656c0-9.425781 7.640625-17.066406 17.066406-17.066406zm0 0" fill="#fdd834"/><path d="m196.191406 153.601562c0 9.425782-7.640625 17.066407-17.066406 17.066407s-17.066406-7.640625-17.066406-17.066407c0-9.425781 7.640625-17.066406 17.066406-17.066406s17.066406 7.640625 17.066406 17.066406zm0 0" fill="#9e9e9e"/><path d="m349.789062 153.601562c0 9.425782-7.640624 17.066407-17.066406 17.066407-9.425781 0-17.066406-7.640625-17.066406-17.066407 0-9.425781 7.640625-17.066406 17.066406-17.066406 9.425782 0 17.066406 7.640625 17.066406 17.066406zm0 0" fill="#9e9e9e"/><path d="m196.191406 264.535156h119.464844c9.425781 0 17.066406 7.640625 17.066406 17.066406v119.464844c0 9.425782-7.640625 17.066406-17.066406 17.066406h-119.464844c-9.425781 0-17.066406-7.640624-17.066406-17.066406v-119.464844c0-9.425781 7.640625-17.066406 17.066406-17.066406zm0 0" fill="#fec108"/><path d="m196.191406 264.535156h98.132813c9.425781 0 17.066406 7.640625 17.066406 17.066406v119.464844c0 9.425782-7.640625 17.066406-17.066406 17.066406h-98.132813c-9.425781 0-17.066406-7.640624-17.066406-17.066406v-119.464844c0-9.425781 7.640625-17.066406 17.066406-17.066406zm0 0" fill="#fdd834"/><path d="m290.058594 324.265625c-.070313 9.398437-7.671875 16.996094-17.066406 17.066406h-34.132813c-9.414063-.027343-17.039063-7.652343-17.070313-17.066406.070313-9.394531 7.671876-16.996094 17.070313-17.066406h34.132813c9.414062.027343 17.039062 7.652343 17.066406 17.066406zm0 0" fill="#ad1457"/><path d="m268.722656 324.265625c-.066406 9.398437-7.667968 16.996094-17.066406 17.066406h-12.796875c-9.414063-.027343-17.039063-7.652343-17.070313-17.066406.070313-9.394531 7.671876-16.996094 17.070313-17.066406h12.796875c9.414062.027343 17.039062 7.652343 17.066406 17.066406zm0 0" fill="#e91e63"/><path d="m136.457031 332.800781c0 9.425781-7.640625 17.066407-17.066406 17.066407s-17.066406-7.640626-17.066406-17.066407 7.640625-17.066406 17.066406-17.066406 17.066406 7.640625 17.066406 17.066406zm0 0" fill="#fdd834"/><path d="m409.523438 335.273438c0 9.425781-7.640626 17.066406-17.066407 17.066406s-17.066406-7.640625-17.066406-17.066406c0-9.425782 7.640625-17.066407 17.066406-17.066407s17.066407 7.640625 17.066407 17.066407zm0 0" fill="#fdd834"/><path d="m238.859375 499.199219c0 4.714843-3.820313 8.535156-8.535156 8.535156h-51.199219c-4.714844 0-8.535156-3.820313-8.535156-8.535156-.160156-13.964844 9.738281-26.023438 23.46875-28.585938 3.488281-.871093 7.070312-1.300781 10.664062-1.28125 8.714844-.246093 17.246094 2.527344 24.152344 7.851563 6.507812 5.433594 10.183594 13.539062 9.984375 22.015625zm0 0" fill="#ad1457"/><path d="m341.257812 499.199219c0 4.714843-3.820312 8.535156-8.535156 8.535156h-51.199218c-4.710938 0-8.53125-3.820313-8.53125-8.535156-.164063-13.964844 9.738281-26.023438 23.464843-28.585938 3.488281-.871093 7.070313-1.300781 10.667969-1.28125 8.714844-.246093 17.246094 2.527344 24.148438 7.851563 6.511718 5.433594 10.1875 13.539062 9.984374 22.015625zm0 0" fill="#ad1457"/><path d="m217.523438 499.199219c0 4.714843-3.820313 8.535156-8.53125 8.535156h-29.867188c-4.714844 0-8.535156-3.820313-8.535156-8.535156-.160156-13.964844 9.738281-26.023438 23.46875-28.585938 4.921875 1.171875 9.527344 3.414063 13.480468 6.570313 6.511719 5.433594 10.1875 13.539062 9.984376 22.015625zm0 0" fill="#e91e63"/><path d="m319.925781 499.199219c0 4.714843-3.820312 8.535156-8.535156 8.535156h-29.867187c-4.710938 0-8.53125-3.820313-8.53125-8.535156-.164063-13.964844 9.738281-26.023438 23.464843-28.585938 4.925781 1.171875 9.527344 3.414063 13.484375 6.570313 6.507813 5.433594 10.183594 13.539062 9.984375 22.015625zm0 0" fill="#e91e63"/><path d="m230.324219 384c0 4.710938-3.820313 8.535156-8.535157 8.535156-4.710937 0-8.53125-3.824218-8.53125-8.535156s3.820313-8.535156 8.53125-8.535156c4.714844 0 8.535157 3.824218 8.535157 8.535156zm0 0"/><path d="m264.457031 384c0 4.710938-3.820312 8.535156-8.53125 8.535156-4.714843 0-8.535156-3.824218-8.535156-8.535156s3.820313-8.535156 8.535156-8.535156c4.710938 0 8.53125 3.824218 8.53125 8.535156zm0 0"/><path d="m298.589844 384c0 4.710938-3.820313 8.535156-8.53125 8.535156-4.714844 0-8.535156-3.824218-8.535156-8.535156s3.820312-8.535156 8.535156-8.535156c4.710937 0 8.53125 3.824218 8.53125 8.535156zm0 0"/><path d="m487.03125 136.535156c-5.121094.003906-10.113281 1.601563-14.285156 4.570313-6.59375-2.703125-13.5-4.585938-20.554688-5.605469v-24.566406c0-14.140625-11.460937-25.601563-25.601562-25.601563h-8.53125v-25.597656c0-14.140625-11.460938-25.601563-25.601563-25.601563h-59.734375v-8.53125c0-14.140624-11.460937-25.601562-25.597656-25.601562h-102.402344c-14.136718 0-25.597656 11.460938-25.597656 25.601562v8.53125h-59.734375c-14.136719 0-25.601563 11.460938-25.601563 25.601563v25.597656h-8.53125c-14.136718 0-25.601562 11.460938-25.601562 25.601563v24.566406c-7.054688 1.019531-13.957031 2.902344-20.554688 5.605469-9.382812-6.566407-22.039062-5.871094-30.644531 1.683593-8.605469 7.554688-10.933593 20.011719-5.636719 30.167969 5.292969 10.152344 16.84375 15.371094 27.964844 12.636719s18.933594-12.714844 18.914063-24.167969c-.019531-1.96875-.277344-3.929687-.769531-5.835937 3.496093-1.226563 7.082031-2.175782 10.726562-2.84375v9.386718c0 14.140626 11.464844 25.601563 25.601562 25.601563h8.53125v25.597656c0 14.140625 11.464844 25.601563 25.601563 25.601563h110.933594v17.066406h-34.132813c-14.140625 0-25.601562 11.460938-25.601562 25.601562v4.136719l-36.539063 26.128907c-8.144531-5.75-18.894531-6.234376-27.523437-1.238282-8.632813 4.996094-13.566406 14.558594-12.632813 24.488282.929688 9.929687 7.554688 18.40625 16.964844 21.710937v37.410156l-21.335937 12.316407c-2.640626 1.523437-4.269532 4.34375-4.265626 7.398437v29.558594c0 3.046875 1.625 5.867187 4.265626 7.390625l25.601562 14.777344c2.640625 1.550781 5.910156 1.566406 8.566406.039062 2.652344-1.523438 4.289063-4.355469 4.28125-7.417969-.007812-3.0625-1.652344-5.886719-4.316406-7.398437l-21.332031-12.289063v-19.703125l16.359375-9.457031c.234375.0625.46875.109375.707031.148437.238281-.039062.476563-.085937.707031-.148437l16.359375 9.457031v7.757813c0 4.710937 3.820313 8.53125 8.535157 8.53125 4.710937 0 8.53125-3.820313 8.53125-8.53125v-12.683594c.003906-3.050781-1.621094-5.871094-4.265626-7.398437l-21.332031-12.347657v-37.410156c10.191407-3.601563 17.019531-13.21875 17.066407-24.027344-.035157-2.371093-.402344-4.722656-1.09375-6.988281l26.691406-19.082031v94.335937c0 14.140625 11.460937 25.601563 25.601562 25.601563v34.984375c-19.851562 4.082031-34.109375 21.546875-34.132812 41.8125 0 4.714844 3.820312 8.535156 8.53125 8.535156h68.269531c4.710937 0 8.53125-3.820312 8.53125-8.535156-.023437-20.265625-14.28125-37.730469-34.132813-41.8125v-34.984375h85.332032v34.984375c-19.851563 4.082031-34.105469 21.546875-34.132813 41.8125 0 4.714844 3.820313 8.535156 8.535157 8.535156h68.265624c4.710938 0 8.53125-3.820312 8.53125-8.535156-.023437-20.265625-14.28125-37.730469-34.132812-41.8125v-34.984375c14.140625 0 25.601562-11.460938 25.601562-25.601563v-91.859375l26.691407 19.078125c-.691407 2.265625-1.058594 4.621094-1.089844 6.988282.042969 10.8125 6.875 20.429687 17.066406 24.03125v37.496093l-21.335937 12.3125c-2.640625 1.523438-4.265625 4.339844-4.265625 7.390625v12.636719c0 4.714844 3.820312 8.535156 8.535156 8.535156 4.710937 0 8.53125-3.820312 8.53125-8.535156v-7.757813l16.375-9.445312c.238281 0 .445313.136719.691406.136719.25 0 .453125-.117188.691407-.136719l16.375 9.445312v19.707032l-21.332032 12.320312c-2.664062 1.511719-4.308594 4.335938-4.316406 7.398438s1.628906 5.894531 4.285156 7.417968c2.652344 1.527344 5.921875 1.511719 8.5625-.035156l25.601563-14.78125c2.640625-1.523437 4.265625-4.339844 4.265625-7.390625v-29.59375c0-3.046875-1.625-5.863281-4.265625-7.390625l-21.332031-12.234375v-37.496093c9.40625-3.304688 16.03125-11.785157 16.960937-21.710938.933594-9.929688-4-19.492188-12.628906-24.488281-8.632813-4.996094-19.378907-4.515625-27.527344 1.238281l-36.539063-26.128906v-6.613282c0-14.140624-11.460937-25.601562-25.601562-25.601562h-34.132812v-17.066406h110.933593c14.140625 0 25.601563-11.460938 25.601563-25.601563v-25.597656h8.53125c14.140625 0 25.601562-11.460937 25.601562-25.601563v-9.386718c3.644532.660156 7.230469 1.601562 10.726563 2.816406-.492188 1.90625-.75 3.867188-.769531 5.835938-.007813 10.070312 6.050781 19.15625 15.351562 23.015624 9.300781 3.863282 20.011719 1.738282 27.136719-5.382812 7.125-7.117188 9.253906-17.828125 5.402343-27.132812-3.855468-9.304688-12.9375-15.367188-23.007812-15.363282zm-462.214844 32.707032c-3.167968.003906-6.023437-1.902344-7.238281-4.828126-1.210937-2.925781-.542969-6.292968 1.695313-8.53125 2.238281-2.238281 5.609374-2.90625 8.53125-1.695312 2.925781 1.214844 4.832031 4.070312 4.828124 7.238281-.003906 4.3125-3.5 7.8125-7.816406 7.816407zm94.574219 172.089843c-4.710937 0-8.53125-3.820312-8.53125-8.53125 0-4.714843 3.820313-8.535156 8.53125-8.535156 4.714844 0 8.535156 3.820313 8.535156 8.535156 0 4.710938-3.820312 8.53125-8.535156 8.53125zm109.363281 153.601563h-48.058594c3.5625-10.222656 13.203126-17.074219 24.027344-17.074219 10.828125 0 20.46875 6.851563 24.03125 17.074219zm102.398438 0h-48.058594c3.5625-10.222656 13.203125-17.074219 24.03125-17.074219 10.824219 0 20.46875 6.851563 24.027344 17.074219zm69.839844-159.660156c0 4.714843-3.820313 8.535156-8.535157 8.535156-4.710937 0-8.53125-3.820313-8.53125-8.535156 0-4.710938 3.820313-8.53125 8.53125-8.53125 4.714844 0 8.535157 3.820312 8.535157 8.53125zm-204.800782-309.671876c0-4.714843 3.820313-8.535156 8.53125-8.535156h102.402344c4.710938 0 8.53125 3.820313 8.53125 8.535156v8.53125h-119.464844zm-110.933594 145.066407c-4.714843 0-8.535156-3.820313-8.535156-8.535157v-51.199218c0-4.714844 3.820313-8.535156 8.535156-8.535156h8.53125v68.269531zm238.933594 110.933593v119.464844c0 4.714844-3.820312 8.535156-8.535156 8.535156h-119.464844c-4.714844 0-8.535156-3.820312-8.535156-8.535156v-119.464844c0-4.714843 3.820312-8.535156 8.535156-8.535156h119.464844c4.714844 0 8.535156 3.820313 8.535156 8.535156zm-59.734375-25.601562h-17.066406v-17.066406h17.066406zm136.535157-42.667969c0 4.714844-3.820313 8.535157-8.535157 8.535157h-273.066406c-4.710937 0-8.53125-3.820313-8.53125-8.535157v-153.597656c0-4.714844 3.820313-8.535156 8.53125-8.535156h273.066406c4.714844 0 8.535157 3.820312 8.535157 8.535156zm34.132812-51.199219c0 4.714844-3.820312 8.535157-8.535156 8.535157h-8.53125v-68.269531h8.53125c4.714844 0 8.535156 3.820312 8.535156 8.535156zm51.90625 7.109376c-3.164062 0-6.019531-1.90625-7.230469-4.832032-1.210937-2.925781-.539062-6.292968 1.703125-8.53125 2.238282-2.234375 5.605469-2.902344 8.527344-1.6875 2.925781 1.210938 4.828125 4.066406 4.828125 7.234375-.007813 4.316407-3.507813 7.816407-7.828125 7.816407zm0 0"/><path d="m272.992188 187.734375h-34.132813c-4.714844 0-8.535156 3.820313-8.535156 8.53125 0 4.714844 3.820312 8.535156 8.535156 8.535156h34.132813c4.710937 0 8.53125-3.820312 8.53125-8.535156 0-4.710937-3.820313-8.53125-8.53125-8.53125zm0 0"/><path d="m179.125 128c-14.140625 0-25.601562 11.460938-25.601562 25.601562 0 14.136719 11.460937 25.597657 25.601562 25.597657 14.136719 0 25.597656-11.460938 25.597656-25.597657 0-14.140624-11.460937-25.601562-25.597656-25.601562zm0 34.132812c-4.714844 0-8.535156-3.820312-8.535156-8.53125 0-4.714843 3.820312-8.535156 8.535156-8.535156 4.710938 0 8.53125 3.820313 8.53125 8.535156 0 4.710938-3.820312 8.53125-8.53125 8.53125zm0 0"/><path d="m332.722656 128c-14.136718 0-25.597656 11.460938-25.597656 25.601562 0 14.136719 11.460938 25.597657 25.597656 25.597657 14.140625 0 25.601563-11.460938 25.601563-25.597657 0-14.140624-11.460938-25.601562-25.601563-25.601562zm0 34.132812c-4.710937 0-8.53125-3.820312-8.53125-8.53125 0-4.714843 3.820313-8.535156 8.53125-8.535156 4.714844 0 8.535156 3.820313 8.535156 8.535156 0 4.710938-3.820312 8.53125-8.535156 8.53125zm0 0"/><path d="m187.050781 82.167969c-.839843-2.101563-2.476562-3.785157-4.558593-4.679688-2.082032-.894531-4.429688-.921875-6.535157-.082031l-42.664062 17.066406c-3.804688 1.515625-5.996094 5.519532-5.222657 9.539063.773438 4.019531 4.292969 6.925781 8.386719 6.921875 1.085938.003906 2.160157-.203125 3.167969-.605469l42.664062-17.066406c2.105469-.839844 3.789063-2.480469 4.679688-4.5625.894531-2.078125.921875-4.429688.082031-6.53125zm0 0"/><path d="m378.558594 94.472656-42.667969-17.066406c-4.378906-1.75-9.34375.382812-11.09375 4.761719-1.75 4.378906.382813 9.34375 4.761719 11.09375l42.667968 17.066406c1.003907.402344 2.078126.609375 3.164063.605469 4.09375.003906 7.613281-2.902344 8.386719-6.921875.773437-4.019531-1.417969-8.023438-5.21875-9.539063zm0 0"/><path d="m238.859375 298.667969c-14.140625 0-25.601563 11.460937-25.601563 25.597656 0 14.140625 11.460938 25.601563 25.601563 25.601563h34.132813c14.136718 0 25.597656-11.460938 25.597656-25.601563 0-14.136719-11.460938-25.597656-25.597656-25.597656zm42.664063 25.597656c0 4.714844-3.820313 8.535156-8.53125 8.535156h-34.132813c-4.714844 0-8.535156-3.820312-8.535156-8.535156 0-4.710937 3.820312-8.53125 8.535156-8.53125h34.132813c4.710937 0 8.53125 3.820313 8.53125 8.53125zm0 0"/></svg>