<svg height="512pt" viewBox="0 0 512 512" width="512pt" xmlns="http://www.w3.org/2000/svg"><path d="m213.332031 494.933594c0 4.710937-3.824219 8.53125-8.535156 8.53125h-85.332031c-4.714844 0-8.535156-3.820313-8.535156-8.53125-.039063-13.585938 5.371093-26.617188 15.019531-36.179688 6.945312-7.058594 15.820312-11.898437 25.515625-13.910156 3.503906-.761719 7.078125-1.136719 10.664062-1.109375 28.261719.042969 51.160156 22.941406 51.203125 51.199219zm0 0" fill="#ad1457"/><path d="m401.0625 494.933594c0 4.710937-3.820312 8.53125-8.53125 8.53125h-85.335938c-4.710937 0-8.53125-3.820313-8.53125-8.53125-.042968-13.585938 5.367188-26.617188 15.019532-36.179688 6.941406-7.058594 15.820312-11.898437 25.511718-13.910156 3.503907-.761719 7.082032-1.136719 10.667969-1.109375 28.257813.042969 51.15625 22.941406 51.199219 51.199219zm0 0" fill="#ad1457"/><path d="m191.996094 494.933594c0 4.710937-3.820313 8.53125-8.53125 8.53125h-64c-4.714844 0-8.535156-3.820313-8.535156-8.53125-.039063-13.585938 5.371093-26.617188 15.019531-36.179688 6.945312-7.058594 15.820312-11.898437 25.515625-13.910156 9.691406 2.011719 18.570312 6.851562 25.511718 13.910156 9.652344 9.5625 15.0625 22.59375 15.019532 36.179688zm0 0" fill="#e91e63"/><path d="m379.730469 494.933594c0 4.710937-3.820313 8.53125-8.535157 8.53125h-64c-4.710937 0-8.53125-3.820313-8.53125-8.53125-.042968-13.585938 5.367188-26.617188 15.019532-36.179688 6.941406-7.058594 15.820312-11.898437 25.511718-13.910156 9.695313 2.011719 18.570313 6.851562 25.515626 13.910156 9.648437 9.5625 15.058593 22.59375 15.019531 36.179688zm0 0" fill="#e91e63"/><g fill="#ad1457"><path d="m179.195312 384c0 14.136719-11.460937 25.601562-25.597656 25.601562-2.914062.015626-5.808594-.503906-8.535156-1.539062-10.222656-3.578125-17.066406-13.230469-17.066406-24.0625s6.84375-20.484375 17.066406-24.0625c2.726562-1.035156 5.621094-1.554688 8.535156-1.539062 14.136719 0 25.597656 11.464843 25.597656 25.601562zm0 0"/><path d="m383.996094 384c0 14.136719-11.460938 25.601562-25.597656 25.601562-2.917969.015626-5.808594-.503906-8.535157-1.539062-10.222656-3.578125-17.066406-13.230469-17.066406-24.0625s6.84375-20.484375 17.066406-24.0625c2.726563-1.035156 5.617188-1.554688 8.535157-1.539062 14.136718 0 25.597656 11.464843 25.597656 25.601562zm0 0"/><path d="m494.929688 332.800781c0 14.136719-11.460938 25.597657-25.597657 25.597657-2.917969.019531-5.808593-.5-8.535156-1.535157-10.222656-3.582031-17.070313-13.230469-17.070313-24.0625s6.847657-20.484375 17.070313-24.066406c2.726563-1.03125 5.617187-1.550781 8.535156-1.535156 14.136719 0 25.597657 11.460937 25.597657 25.601562zm0 0"/><path d="m68.261719 332.800781c0 14.136719-11.460938 25.597657-25.597657 25.597657-2.914062.019531-5.808593-.5-8.535156-1.535157-10.222656-3.582031-17.066406-13.230469-17.066406-24.0625s6.84375-20.484375 17.066406-24.066406c2.726563-1.03125 5.621094-1.550781 8.535156-1.535156 14.136719 0 25.597657 11.460937 25.597657 25.601562zm0 0"/></g><path d="m162.128906 384c0-13.289062-7.640625-24.0625-17.066406-24.0625s-17.066406 10.773438-17.066406 24.0625 7.640625 24.0625 17.066406 24.0625 17.066406-10.773438 17.066406-24.0625zm0 0" fill="#e91e63"/><path d="m366.929688 384c0-13.289062-7.640626-24.0625-17.066407-24.0625s-17.066406 10.773438-17.066406 24.0625 7.640625 24.0625 17.066406 24.0625 17.066407-10.773438 17.066407-24.0625zm0 0" fill="#e91e63"/><path d="m477.863281 332.800781c0-13.289062-7.640625-24.066406-17.066406-24.066406s-17.066406 10.777344-17.066406 24.066406c0 13.289063 7.640625 24.0625 17.066406 24.0625s17.066406-10.773437 17.066406-24.0625zm0 0" fill="#e91e63"/><path d="m51.195312 332.800781c0-13.289062-7.640624-24.066406-17.066406-24.066406-9.425781 0-17.066406 10.777344-17.066406 24.066406 0 13.289063 7.640625 24.0625 17.066406 24.0625 9.425782 0 17.066406-10.773437 17.066406-24.0625zm0 0" fill="#e91e63"/><path d="m401.0625 128v153.601562c0 18.851563-15.28125 34.132813-34.132812 34.132813h-221.867188c-18.851562 0-34.132812-15.28125-34.132812-34.132813v-153.601562c0-65.980469 53.488281-119.464844 119.46875-119.464844h51.199218c31.683594 0 62.070313 12.585938 84.476563 34.988282 22.402343 22.40625 34.988281 52.792968 34.988281 84.476562zm0 0" fill="#fec108"/><path d="m379.730469 128v153.601562c0 18.851563-15.28125 34.132813-34.132813 34.132813h-200.535156c-18.851562 0-34.132812-15.28125-34.132812-34.132813v-153.601562c0-65.980469 53.488281-119.464844 119.46875-119.464844h29.863281c65.980469 0 119.46875 53.484375 119.46875 119.464844zm0 0" fill="#fdd834"/><path d="m238.929688 119.464844v17.070312c0 4.710938-3.820313 8.53125-8.53125 8.53125h-68.269532c-4.710937 0-8.53125-3.820312-8.53125-8.53125v-17.070312c.019532-20.238282 14.230469-37.691406 34.046875-41.8125h.171875c2.777344-.585938 5.609375-.871094 8.445313-.851563 11.328125-.035156 22.199219 4.449219 30.210937 12.457031 8.007813 8.011719 12.492188 18.882813 12.457032 30.207032zm0 0" fill="#9e9e9e"/><path d="m358.398438 119.464844v17.070312c0 4.710938-3.820313 8.53125-8.535157 8.53125h-68.265625c-4.714844 0-8.535156-3.820312-8.535156-8.53125v-17.070312c.019531-20.238282 14.234375-37.691406 34.050781-41.8125h.167969c2.777344-.585938 5.609375-.871094 8.449219-.851563 11.324219-.035156 22.199219 4.449219 30.207031 12.457031 8.007812 8.011719 12.492188 18.882813 12.460938 30.207032zm0 0" fill="#9e9e9e"/><path d="m221.863281 119.464844v17.070312c0 4.710938-3.820312 8.53125-8.53125 8.53125h-51.203125c-4.710937 0-8.53125-3.820312-8.53125-8.53125v-17.070312c.019532-20.238282 14.230469-37.691406 34.046875-41.8125h.171875c19.859375 4.046875 34.109375 21.542968 34.046875 41.8125zm0 0" fill="#f5f5f5"/><path d="m341.332031 119.464844v17.070312c0 4.710938-3.824219 8.53125-8.535156 8.53125h-51.199219c-4.714844 0-8.535156-3.820312-8.535156-8.53125v-17.070312c.019531-20.238282 14.234375-37.691406 34.050781-41.8125h.167969c19.863281 4.046875 34.109375 21.542968 34.050781 41.8125zm0 0" fill="#f5f5f5"/><path d="m170.664062 213.332031h179.199219c4.714844 0 8.535157 3.820313 8.535157 8.535157v51.199218c0 4.714844-3.820313 8.535156-8.535157 8.535156h-179.199219c-4.714843 0-8.535156-3.820312-8.535156-8.535156v-51.199218c0-4.714844 3.820313-8.535157 8.535156-8.535157zm0 0" fill="#6a1b9a"/><path d="m170.664062 213.332031h157.867188c4.710938 0 8.53125 3.820313 8.53125 8.535157v51.199218c0 4.714844-3.820312 8.535156-8.53125 8.535156h-157.867188c-4.714843 0-8.535156-3.820312-8.535156-8.535156v-51.199218c0-4.714844 3.820313-8.535157 8.535156-8.535157zm0 0" fill="#9d27b0"/><path d="m110.929688 136.53125v102.402344c-5.820313.015625-11.597657-.996094-17.066407-2.988282-20.453125-7.199218-34.136719-26.527343-34.136719-48.210937 0-21.6875 13.683594-41.011719 34.136719-48.214844 5.46875-1.992187 11.246094-3 17.066407-2.988281zm0 0" fill="#ad1457"/><path d="m323.324219 315.734375c-1.527344 6.621094-4.597657 12.792969-8.960938 18.003906-14.890625 16.390625-36.234375 25.40625-58.367187 24.660157-4.28125-.007813-8.558594-.320313-12.800782-.9375-17.597656-2.003907-33.828124-10.457032-45.566406-23.722657-4.363281-5.210937-7.433594-11.382812-8.960937-18.003906zm0 0" fill="#ad1457"/><path d="m297.726562 315.734375c-1.527343 6.621094-4.597656 12.792969-8.960937 18.003906-11.738281 13.265625-27.96875 21.71875-45.570313 23.722657-17.597656-2.003907-33.828124-10.457032-45.566406-23.722657-4.363281-5.210937-7.433594-11.382812-8.960937-18.003906zm0 0" fill="#e91e63"/><path d="m452.261719 187.734375c0 28.277344-22.921875 51.199219-51.199219 51.199219v-102.398438c28.277344 0 51.199219 22.921875 51.199219 51.199219zm0 0" fill="#ad1457"/><path d="m93.863281 139.519531v96.425781c-20.453125-7.199218-34.136719-26.527343-34.136719-48.210937 0-21.6875 13.683594-41.011719 34.136719-48.214844zm0 0" fill="#e91e63"/><path d="m435.195312 187.734375c.023438 21.691406-13.664062 41.027344-34.132812 48.210937v-96.425781c20.46875 7.183594 34.15625 26.523438 34.132812 48.214844zm0 0" fill="#e91e63"/><path d="m204.796875 110.933594c0 4.710937-3.820313 8.53125-8.535156 8.53125-4.710938 0-8.53125-3.820313-8.53125-8.53125 0-4.714844 3.820312-8.535156 8.53125-8.535156 4.714843 0 8.535156 3.820312 8.535156 8.535156zm0 0"/><path d="m204.796875 247.464844c0 4.714844-3.820313 8.535156-8.535156 8.535156-4.710938 0-8.53125-3.820312-8.53125-8.535156 0-4.710938 3.820312-8.53125 8.53125-8.53125 4.714843 0 8.535156 3.820312 8.535156 8.53125zm0 0"/><path d="m238.929688 247.464844c0 4.714844-3.820313 8.535156-8.53125 8.535156-4.714844 0-8.535157-3.820312-8.535157-8.535156 0-4.710938 3.820313-8.53125 8.535157-8.53125 4.710937 0 8.53125 3.820312 8.53125 8.53125zm0 0"/><path d="m324.261719 110.933594c0 4.710937-3.820313 8.53125-8.53125 8.53125-4.714844 0-8.535157-3.820313-8.535157-8.53125 0-4.714844 3.820313-8.535156 8.535157-8.535156 4.710937 0 8.53125 3.820312 8.53125 8.535156zm0 0"/><path d="m230.398438 153.601562c9.425781 0 17.066406-7.640624 17.066406-17.066406v-17.070312c0-28.273438-22.925782-51.199219-51.203125-51.199219-28.273438 0-51.199219 22.925781-51.199219 51.199219v17.070312c0 4.523438 1.800781 8.867188 5 12.066406 3.199219 3.199219 7.542969 5 12.066406 5zm-68.269532-34.136718c0-18.847656 15.285156-34.132813 34.132813-34.132813 18.851562 0 34.136719 15.285157 34.136719 34.132813v17.070312h-68.269532zm0 0"/><path d="m315.730469 68.265625c-28.265625.027344-51.171875 22.9375-51.199219 51.199219v17.070312c0 9.425782 7.640625 17.066406 17.066406 17.066406h68.265625c9.425781 0 17.066407-7.640624 17.066407-17.066406v-17.070312c-.027344-28.261719-22.933594-51.171875-51.199219-51.199219zm-34.132813 68.269531v-17.070312c0-18.847656 15.28125-34.132813 34.132813-34.132813 18.851562 0 34.132812 15.285157 34.132812 34.132813v17.070312zm0 0"/><path d="m349.863281 204.800781h-179.199219c-9.425781 0-17.066406 7.640625-17.066406 17.066407v51.199218c0 9.425782 7.640625 17.066406 17.066406 17.066406h179.199219c9.425781 0 17.066407-7.640624 17.066407-17.066406v-51.199218c0-9.425782-7.640626-17.066407-17.066407-17.066407zm-179.199219 68.265625v-51.199218h179.199219v51.199218zm0 0"/><path d="m238.929688 179.199219c0 4.714843 3.820312 8.535156 8.535156 8.535156h17.066406c4.710938 0 8.53125-3.820313 8.53125-8.535156 0-4.710938-3.820312-8.53125-8.53125-8.53125h-17.066406c-4.714844 0-8.535156 3.820312-8.535156 8.53125zm0 0"/><path d="m324.261719 238.933594h-59.730469c-4.714844 0-8.535156 3.820312-8.535156 8.53125 0 4.714844 3.820312 8.535156 8.535156 8.535156h59.730469c4.714843 0 8.535156-3.820312 8.535156-8.535156 0-4.710938-3.820313-8.53125-8.535156-8.53125zm0 0"/><path d="m494.691406 355.429688c7.988282-8.804688 10.769532-21.160157 7.324219-32.542969-3.449219-11.378907-12.617187-20.117188-24.152344-23.007813v-46.78125c-.027343-11.3125-4.511719-22.15625-12.484375-30.179687l-10.15625-10.15625c7.96875-17.09375 7.363282-36.957031-1.632812-53.53125-8.996094-16.578125-25.316406-27.910157-43.992188-30.546875v-.683594c-.082031-70.660156-57.339844-127.921875-128-128h-51.199218c-70.660157.078125-127.921876 57.339844-128 128v.683594c-18.675782 2.636718-35 13.96875-43.996094 30.546875-8.996094 16.574219-9.601563 36.4375-1.632813 53.53125l-10.15625 10.15625c-7.972656 8.023437-12.457031 18.867187-12.484375 30.179687v46.78125c-11.53125 2.890625-20.703125 11.628906-24.148437 23.007813-3.449219 11.382812-.667969 23.738281 7.320312 32.542969l-15.871093 23.84375c-2.25 3.382812-1.804688 7.882812 1.066406 10.757812l17.066406 17.070312c2.144531 2.214844 5.316406 3.105469 8.300781 2.324219s5.3125-3.109375 6.09375-6.09375-.109375-6.15625-2.328125-8.296875l-12.125-12.128906 11.945313-18.003906c3.597656 1.308594 7.386719 1.996094 11.214843 2.03125 3.8125-.039063 7.585938-.726563 11.167969-2.03125l11.992188 18.003906-12.128907 12.128906c-2.214843 2.140625-3.105468 5.3125-2.324218 8.296875s3.109375 5.3125 6.09375 6.09375 6.15625-.109375 8.296875-2.324219l17.066406-17.070312c2.875-2.875 3.320313-7.375 1.070313-10.757812l-15.875-23.84375c7.992187-8.804688 10.769531-21.160157 7.324218-32.542969-3.449218-11.378907-12.617187-20.117188-24.152344-23.007813v-46.78125c.011719-6.789062 2.703126-13.296875 7.484376-18.117187l7.679687-7.679688c9.332031 10.554688 22.097656 17.457031 36.039063 19.484375v34.816406c.027343 23.550782 19.113281 42.636719 42.664062 42.664063h37.34375c1.175781 3.097656 2.644531 6.078125 4.394531 8.894531l-17.921875 20.476563c-4.722656-2.445313-9.960937-3.738281-15.28125-3.769531-18.519531-.117188-33.738281 14.589843-34.257812 33.105468-.515625 18.511719 13.855468 34.042969 32.355468 34.964844l3.515626 17.699219c-30.082032 3.542969-52.761719 29.011719-52.8125 59.296875 0 9.425781 7.640624 17.066406 17.066406 17.066406h85.332031c9.425781 0 17.066406-7.640625 17.066406-17.066406-.050781-28.878906-20.734375-53.597656-49.152343-58.734375l-4.265626-21.597657c8.945313-4.28125 15.566407-12.265624 18.128907-21.84375 2.558593-9.582031.796875-19.800781-4.816407-27.976562l16.210938-18.480469c16.183594 13.71875 36.816406 21.054688 58.027344 20.632813 21.210937.421875 41.847656-6.914063 58.027344-20.632813l16.214843 18.480469c-5.613281 8.179688-7.367187 18.40625-4.800781 27.988281 2.570312 9.578125 9.203125 17.558594 18.152344 21.832031l-4.265625 21.597657c-28.433594 5.121093-49.140625 29.839843-49.195313 58.734375 0 9.425781 7.640625 17.066406 17.066406 17.066406h85.335938c9.425781 0 17.066406-7.640625 17.066406-17.066406-.050781-30.285156-22.734375-55.753906-52.8125-59.296875l3.515625-17.699219c18.496094-.921875 32.867188-16.453125 32.351563-34.964844-.519532-18.515625-15.734375-33.222656-34.253906-33.105468-5.3125.035156-10.542969 1.324218-15.257813 3.761718l-17.921875-20.480468c1.738281-2.8125 3.203125-5.789063 4.371094-8.882813h37.339844c23.554687-.027344 42.640624-19.113281 42.667968-42.664063v-34.816406c13.941406-2.015625 26.71875-8.910156 36.0625-19.457031l7.679688 7.679687c4.765625 4.816407 7.445312 11.316407 7.457031 18.089844v46.78125c-11.535156 2.890625-20.703125 11.628906-24.152344 23.007813-3.445312 11.382812-.664062 23.738281 7.324219 32.542969l-15.871094 23.84375c-2.253906 3.382812-1.808594 7.882812 1.066406 10.757812l17.066407 17.070312c3.347656 3.230469 8.671875 3.1875 11.960937-.105468 3.292969-3.292969 3.339844-8.613282.105469-11.960938l-12.125-12.128906 11.988281-18.003906c7.199219 2.707031 15.140625 2.707031 22.339844 0l11.988281 18.003906-12.125 12.128906c-2.21875 2.140625-3.109375 5.3125-2.328125 8.296875s3.113282 5.3125 6.097656 6.09375c2.980469.78125 6.15625-.109375 8.296876-2.324219l17.066406-17.070312c2.875-2.875 3.320312-7.375 1.066406-10.757812zm-434.960937-22.628907c0 9.425781-7.640625 17.066407-17.066407 17.066407-9.425781 0-17.066406-7.640626-17.066406-17.066407s7.640625-17.066406 17.066406-17.066406c9.425782 0 17.066407 7.640625 17.066407 17.066406zm8.53125-145.066406c.027343-20.269531 14.28125-37.730469 34.136719-41.8125v83.625c-19.855469-4.082031-34.109376-21.546875-34.136719-41.8125zm136.535156 307.199219h-85.332031c0-23.5625 19.101562-42.667969 42.664062-42.667969 23.566406 0 42.667969 19.105469 42.667969 42.667969zm-47.785156-94.207032c-1.125.230469-2.269531.34375-3.414063.339844-7.605468.050782-14.328125-4.941406-16.480468-12.234375-2.152344-7.296875.78125-15.132812 7.195312-19.222656s14.757812-3.441406 20.464844 1.589844c4.921875 4.238281 6.996094 10.910156 5.34375 17.191406s-6.742188 11.066406-13.109375 12.335937zm235.519531 94.207032h-85.335938c0-23.5625 19.105469-42.667969 42.667969-42.667969s42.667969 19.105469 42.667969 42.667969zm-17.066406-110.933594c0 9.425781-7.640625 17.066406-17.066406 17.066406-1.132813 0-2.257813-.113281-3.363282-.339844-6.367187-1.261718-11.457031-6.039062-13.121094-12.308593-1.660156-6.273438.398438-12.945313 5.304688-17.191407 5.007812-4.441406 12.160156-5.523437 18.261719-2.765624 6.097656 2.757812 10.007812 8.84375 9.984375 15.539062zm-67.722656-55.644531c-13.308594 14.339843-32.191407 22.1875-51.746094 21.511719-19.570313.667968-38.472656-7.195313-51.789063-21.554688-1.03125-1.285156-1.976562-2.636719-2.824219-4.046875h109.226563c-.863281 1.425781-1.820313 2.792969-2.867187 4.089844zm84.789062-46.753907c0 14.136719-11.460938 25.597657-25.601562 25.597657h-221.867188c-14.136719 0-25.597656-11.460938-25.597656-25.597657v-153.601562c.070312-61.238281 49.695312-110.863281 110.933594-110.933594h51.199218c61.238282.070313 110.863282 49.695313 110.933594 110.933594zm17.066406-52.054687v-83.625c19.882813 4.035156 34.175782 21.519531 34.175782 41.8125 0 20.289063-14.292969 37.773437-34.175782 41.8125zm42.664063 103.253906c0-9.425781 7.644531-17.066406 17.070312-17.066406 9.421875 0 17.066407 7.640625 17.066407 17.066406s-7.644532 17.066407-17.066407 17.066407c-9.425781 0-17.070312-7.640626-17.070312-17.066407zm0 0"/></svg>