<svg height="512pt" viewBox="-26 0 512 512" width="512pt" xmlns="http://www.w3.org/2000/svg"><path d="m364.886719 403.625c.511719 2.511719-.132813 5.121094-1.753907 7.105469-1.621093 1.984375-4.046874 3.136719-6.609374 3.136719h-252.246094c-2.5625 0-4.988282-1.152344-6.609375-3.136719-1.621094-1.984375-2.265625-4.59375-1.753907-7.105469l15.019532-75.089844h238.933594zm0 0" fill="#00695c"/><path d="m343.550781 403.625c.515625 2.511719-.128906 5.121094-1.75 7.105469-1.621093 1.984375-4.046875 3.136719-6.613281 3.136719h-230.910156c-2.5625 0-4.988282-1.152344-6.609375-3.136719-1.621094-1.984375-2.265625-4.59375-1.753907-7.105469l15.019532-75.089844h217.601562zm0 0" fill="#009688"/><path d="m349.867188 128v183.464844h-238.933594v-183.464844c-.007813-52.96875 34.867187-99.621094 85.675781-114.601562h.253906c10.886719-3.226563 22.183594-4.867188 33.535157-4.863282 65.980468 0 119.46875 53.484375 119.46875 119.464844zm0 0" fill="#558b30"/><path d="m328.535156 132.265625v179.199219h-217.601562v-183.464844c-.007813-52.96875 34.867187-99.621094 85.675781-114.601562h.253906c4.054688-.414063 8.128907-.613282 12.203125-.597657 65.980469 0 119.46875 53.484375 119.46875 119.464844zm0 0" fill="#8bc34a"/><path d="m170.667969 183.125h34.132812v107.007812h-34.132812zm0 0" fill="#00695c"/><path d="m264.535156 234.324219h34.132813v55.808593h-34.132813zm0 0" fill="#00695c"/><path d="m221.867188 153.601562c0 18.851563-15.28125 34.132813-34.132813 34.132813-2.882813.023437-5.753906-.347656-8.535156-1.109375-15.023438-3.925781-25.5-17.496094-25.5-33.023438 0-15.527343 10.476562-29.097656 25.5-33.027343 2.78125-.761719 5.652343-1.132813 8.535156-1.109375 18.851563 0 34.132813 15.285156 34.132813 34.136718zm0 0" fill="#9e9e9e"/><path d="m315.734375 204.800781c0 18.851563-15.28125 34.132813-34.132813 34.132813-2.882812.027344-5.753906-.347656-8.535156-1.109375-15.023437-3.925781-25.5-17.496094-25.5-33.023438 0-15.527343 10.476563-29.097656 25.5-33.023437 2.78125-.761719 5.652344-1.136719 8.535156-1.109375 18.851563 0 34.132813 15.28125 34.132813 34.132812zm0 0" fill="#9e9e9e"/><path d="m204.800781 153.601562c0-18.238281-11.460937-33.027343-25.601562-33.027343-14.136719 0-25.597657 14.789062-25.597657 33.027343 0 18.238282 11.460938 33.023438 25.597657 33.023438 14.140625 0 25.601562-14.785156 25.601562-33.023438zm0 0" fill="#f5f5f5"/><path d="m298.667969 204.800781c0-18.238281-11.460938-33.023437-25.601563-33.023437-14.136718 0-25.601562 14.785156-25.601562 33.023437s11.464844 33.023438 25.601562 33.023438c14.140625 0 25.601563-14.785157 25.601563-33.023438zm0 0" fill="#f5f5f5"/><path d="m366.933594 311.464844c.019531 5.664062-2.222656 11.101562-6.230469 15.105468-4.003906 4.007813-9.441406 6.246094-15.101563 6.230469h-230.402343c-11.78125 0-21.332031-9.550781-21.332031-21.335937 0-11.78125 9.550781-21.332032 21.332031-21.332032h230.402343c11.78125 0 21.332032 9.550782 21.332032 21.332032zm0 0" fill="#2e7d32"/><path d="m345.601562 311.464844c.015626 5.664062-2.226562 11.101562-6.230468 15.105468-4.003906 4.007813-9.441406 6.246094-15.105469 6.230469h-209.066406c-11.78125 0-21.332031-9.550781-21.332031-21.335937 0-11.78125 9.550781-21.332032 21.332031-21.332032h209.066406c11.78125 0 21.335937 9.550782 21.335937 21.332032zm0 0" fill="#4caf50"/><g fill="#37474f"><path d="m128 477.867188c0 14.136718-11.460938 25.597656-25.601562 25.597656-3.6875.011718-7.332032-.804688-10.664063-2.386719-9.09375-4.144531-14.933594-13.21875-14.933594-23.210937 0-9.996094 5.839844-19.066407 14.933594-23.210938 3.332031-1.582031 6.976563-2.398438 10.664063-2.390625 14.140624 0 25.601562 11.460937 25.601562 25.601563zm0 0"/><path d="m213.332031 477.867188c0 14.136718-11.460937 25.597656-25.597656 25.597656-3.691406.011718-7.335937-.804688-10.667969-2.386719-9.09375-4.144531-14.929687-13.21875-14.929687-23.210937 0-9.996094 5.835937-19.066407 14.929687-23.210938 3.332032-1.582031 6.976563-2.398438 10.667969-2.390625 14.136719 0 25.597656 11.460937 25.597656 25.601563zm0 0"/><path d="m298.667969 477.867188c0 14.136718-11.460938 25.597656-25.601563 25.597656-3.6875.011718-7.332031-.804688-10.667968-2.386719-9.09375-4.144531-14.929688-13.21875-14.929688-23.210937 0-9.996094 5.835938-19.066407 14.929688-23.210938 3.335937-1.582031 6.980468-2.398438 10.667968-2.390625 14.140625 0 25.601563 11.460937 25.601563 25.601563zm0 0"/><path d="m384 477.867188c0 14.136718-11.460938 25.597656-25.601562 25.597656-3.6875.011718-7.332032-.804688-10.664063-2.386719-9.09375-4.144531-14.933594-13.21875-14.933594-23.210937 0-9.996094 5.839844-19.066407 14.933594-23.210938 3.332031-1.582031 6.976563-2.398438 10.664063-2.390625 14.140624 0 25.601562 11.460937 25.601562 25.601563zm0 0"/></g><path d="m106.667969 477.867188c0-12.820313-6.6875-23.210938-14.933594-23.210938-8.25 0-14.933594 10.390625-14.933594 23.210938 0 12.820312 6.683594 23.210937 14.933594 23.210937 8.246094 0 14.933594-10.390625 14.933594-23.210937zm0 0" fill="#607d8b"/><path d="m192 477.867188c0-12.820313-6.6875-23.210938-14.933594-23.210938s-14.933594 10.390625-14.933594 23.210938c0 12.820312 6.6875 23.210937 14.933594 23.210937s14.933594-10.390625 14.933594-23.210937zm0 0" fill="#607d8b"/><path d="m277.332031 477.867188c0-12.820313-6.683593-23.210938-14.933593-23.210938-8.246094 0-14.933594 10.390625-14.933594 23.210938 0 12.820312 6.6875 23.210937 14.933594 23.210937 8.25 0 14.933593-10.390625 14.933593-23.210937zm0 0" fill="#607d8b"/><path d="m362.667969 477.867188c0-12.820313-6.6875-23.210938-14.933594-23.210938-8.25 0-14.933594 10.390625-14.933594 23.210938 0 12.820312 6.683594 23.210937 14.933594 23.210937 8.246094 0 14.933594-10.390625 14.933594-23.210937zm0 0" fill="#607d8b"/><path d="m196.265625 153.601562c0 4.710938-3.820313 8.53125-8.53125 8.53125-4.714844 0-8.535156-3.820312-8.535156-8.53125 0-4.714843 3.820312-8.535156 8.535156-8.535156 4.710937 0 8.53125 3.820313 8.53125 8.535156zm0 0"/><path d="m290.132812 204.800781c0 4.710938-3.820312 8.53125-8.53125 8.53125-4.714843 0-8.535156-3.820312-8.535156-8.53125 0-4.714843 3.820313-8.535156 8.535156-8.535156 4.710938 0 8.53125 3.820313 8.53125 8.535156zm0 0"/><path d="m247.464844 42.667969c0 4.710937-3.820313 8.53125-8.53125 8.53125-4.714844 0-8.535156-3.820313-8.535156-8.53125 0-4.714844 3.820312-8.535157 8.535156-8.535157 4.710937 0 8.53125 3.820313 8.53125 8.535157zm0 0"/><path d="m149.769531 101.488281c2.019531 1.015625 4.363281 1.1875 6.515625.476563 2.148438-.707032 3.925782-2.246094 4.945313-4.265625.144531-.308594 15.871093-30.773438 45.632812-38.222657 4.472657-1.226562 7.148438-5.796874 6.023438-10.292968-1.121094-4.5-5.628907-7.277344-10.152344-6.261719-37.546875 9.386719-56.003906 45.59375-56.773437 47.128906-2.097657 4.210938-.394532 9.324219 3.808593 11.4375zm0 0"/><path d="m145.066406 358.398438c-4.710937 0-8.53125 3.820312-8.53125 8.535156v17.066406c0 4.710938 3.820313 8.535156 8.53125 8.535156 4.714844 0 8.535156-3.824218 8.535156-8.535156v-17.066406c0-4.714844-3.820312-8.535156-8.535156-8.535156zm0 0"/><path d="m179.199219 358.398438c-4.710938 0-8.53125 3.820312-8.53125 8.535156v17.066406c0 4.710938 3.820312 8.535156 8.53125 8.535156 4.714843 0 8.535156-3.824218 8.535156-8.535156v-17.066406c0-4.714844-3.820313-8.535156-8.535156-8.535156zm0 0"/><path d="m213.332031 358.398438c-4.710937 0-8.53125 3.820312-8.53125 8.535156v17.066406c0 4.710938 3.820313 8.535156 8.53125 8.535156 4.714844 0 8.535157-3.824218 8.535157-8.535156v-17.066406c0-4.714844-3.820313-8.535156-8.535157-8.535156zm0 0"/><path d="m247.464844 358.398438c-4.710938 0-8.53125 3.820312-8.53125 8.535156v17.066406c0 4.710938 3.820312 8.535156 8.53125 8.535156 4.714844 0 8.535156-3.824218 8.535156-8.535156v-17.066406c0-4.714844-3.820312-8.535156-8.535156-8.535156zm0 0"/><path d="m281.601562 358.398438c-4.714843 0-8.535156 3.820312-8.535156 8.535156v17.066406c0 4.710938 3.820313 8.535156 8.535156 8.535156 4.710938 0 8.53125-3.824218 8.53125-8.535156v-17.066406c0-4.714844-3.820312-8.535156-8.53125-8.535156zm0 0"/><path d="m315.734375 358.398438c-4.714844 0-8.535156 3.820312-8.535156 8.535156v17.066406c0 4.710938 3.820312 8.535156 8.535156 8.535156 4.710937 0 8.53125-3.824218 8.53125-8.535156v-17.066406c0-4.714844-3.820313-8.535156-8.53125-8.535156zm0 0"/><path d="m102.398438 443.734375c-18.851563 0-34.132813 15.28125-34.132813 34.132813 0 18.851562 15.28125 34.132812 34.132813 34.132812 18.851562 0 34.136718-15.28125 34.136718-34.132812 0-18.851563-15.285156-34.132813-34.136718-34.132813zm0 51.199219c-9.425782 0-17.066407-7.640625-17.066407-17.066406 0-9.425782 7.640625-17.066407 17.066407-17.066407 9.425781 0 17.066406 7.640625 17.066406 17.066407 0 9.425781-7.640625 17.066406-17.066406 17.066406zm0 0"/><path d="m187.734375 443.734375c-18.851563 0-34.132813 15.28125-34.132813 34.132813 0 18.851562 15.28125 34.132812 34.132813 34.132812s34.132813-15.28125 34.132813-34.132812c0-18.851563-15.28125-34.132813-34.132813-34.132813zm0 51.199219c-9.425781 0-17.066406-7.640625-17.066406-17.066406 0-9.425782 7.640625-17.066407 17.066406-17.066407s17.066406 7.640625 17.066406 17.066407c0 9.425781-7.640625 17.066406-17.066406 17.066406zm0 0"/><path d="m273.066406 443.734375c-18.851562 0-34.132812 15.28125-34.132812 34.132813 0 18.851562 15.28125 34.132812 34.132812 34.132812 18.851563 0 34.132813-15.28125 34.132813-34.132812 0-18.851563-15.28125-34.132813-34.132813-34.132813zm0 51.199219c-9.425781 0-17.066406-7.640625-17.066406-17.066406 0-9.425782 7.640625-17.066407 17.066406-17.066407 9.425782 0 17.066406 7.640625 17.066406 17.066407 0 9.425781-7.640624 17.066406-17.066406 17.066406zm0 0"/><path d="m358.398438 443.734375c-18.851563 0-34.132813 15.28125-34.132813 34.132813 0 18.851562 15.28125 34.132812 34.132813 34.132812 18.851562 0 34.136718-15.28125 34.136718-34.132812 0-18.851563-15.285156-34.132813-34.136718-34.132813zm0 51.199219c-9.425782 0-17.066407-7.640625-17.066407-17.066406 0-9.425782 7.640625-17.066407 17.066407-17.066407 9.425781 0 17.066406 7.640625 17.066406 17.066407 0 9.425781-7.640625 17.066406-17.066406 17.066406zm0 0"/><path d="m452.265625 324.265625c-4.710937 0-8.53125 3.820313-8.53125 8.535156v17.066407h-17.066406v-17.066407c0-4.714843-3.820313-8.535156-8.535157-8.535156-4.710937 0-8.53125 3.820313-8.53125 8.535156v17.066407c.019532 5.074218 2.308594 9.875 6.246094 13.082031l-25.019531 20.019531-23.828125-7.960938-7.457031-37.292968c9.988281-5.21875 16.15625-15.648438 15.914062-26.914063-.242187-11.269531-6.851562-21.421875-17.058593-26.207031v-156.59375c0-70.691406-57.304688-128-128-128-70.691407 0-128 57.308594-128 128v156.59375c-10.203126 4.78125-16.816407 14.9375-17.0625 26.203125-.242188 11.269531 5.921874 21.699219 15.910156 26.917969l-7.457032 37.292968-23.824218 7.960938-25.011719-20.019531c3.9375-3.207031 6.226563-8.007813 6.246094-13.082031v-17.066407c0-4.714843-3.820313-8.535156-8.53125-8.535156-4.714844 0-8.535157 3.820313-8.535157 8.535156v17.066407h-17.066406v-17.066407c0-4.714843-3.820312-8.535156-8.53125-8.535156-4.714844 0-8.535156 3.820313-8.535156 8.535156v17.066407c0 9.425781 7.640625 17.066406 17.066406 17.066406h5.53125l40.335938 32.265625c2.261718 1.808593 5.289062 2.34375 8.039062 1.421875l18.960938-6.328125-2.390625 11.945312c-1.007813 5.015625.289062 10.21875 3.53125 14.175781 3.242187 3.957032 8.085937 6.253907 13.203125 6.253907h252.246094c5.113281 0 9.957031-2.292969 13.199218-6.25 3.242188-3.957031 4.539063-9.15625 3.535156-14.171875l-2.390624-11.945313 18.960937 6.332031c2.746094.917969 5.773437.382813 8.039063-1.425781l40.335937-32.273437h5.53125c9.425781 0 17.066406-7.640625 17.066406-17.066406v-17.066407c0-4.714843-3.820312-8.535156-8.535156-8.535156zm-332.800781-196.265625c0-61.265625 49.667968-110.933594 110.933594-110.933594 61.269531 0 110.933593 49.667969 110.933593 110.933594v153.601562h-34.132812v-42.890624c14.691406-11.019532 20.683593-30.203126 14.878906-47.625-5.808594-17.421876-22.113281-29.175782-40.476563-29.175782-18.367187 0-34.671874 11.753906-40.480468 29.175782-5.804688 17.421874.1875 36.605468 14.878906 47.625v42.890624h-42.667969v-94.089843c14.691407-11.019531 20.6875-30.203125 14.878907-47.625-5.808594-17.421875-22.113282-29.175781-40.476563-29.175781-18.367187 0-34.671875 11.753906-40.476563 29.175781-5.808593 17.421875.183594 36.605469 14.875 47.625v94.089843h-42.667968zm153.601562 153.601562v-34.988281c5.632813 1.148438 11.4375 1.148438 17.066406 0v34.988281zm8.535156-51.203124c-14.140624 0-25.601562-11.460938-25.601562-25.597657 0-14.140625 11.460938-25.601562 25.601562-25.601562 14.136719 0 25.597657 11.460937 25.597657 25.601562 0 14.136719-11.460938 25.597657-25.597657 25.597657zm-93.867187-51.199219c-14.140625 0-25.601563-11.460938-25.601563-25.597657 0-14.140624 11.460938-25.601562 25.601563-25.601562 14.136719 0 25.597656 11.460938 25.597656 25.601562 0 14.136719-11.460937 25.597657-25.597656 25.597657zm-8.535156 16.214843c5.632812 1.148438 11.4375 1.148438 17.066406 0v86.1875h-17.066406zm-64 103.253907h230.402343c7.066407 0 12.796876 5.730469 12.796876 12.796875 0 7.070312-5.730469 12.800781-12.796876 12.800781h-230.402343c-7.070313 0-12.800781-5.730469-12.800781-12.800781 0-7.066406 5.730468-12.796875 12.800781-12.796875zm-10.921875 110.933593 13.652344-68.269531h224.949218l13.652344 68.269531zm0 0"/></svg>