<svg height="512pt" viewBox="-9 0 512 512" width="512pt" xmlns="http://www.w3.org/2000/svg"><path d="m119.472656 136.535156h247.46875c9.425782 0 17.066406 7.640625 17.066406 17.066406v102.398438c0 9.425781-7.640624 17.066406-17.066406 17.066406h-247.46875c-9.425781 0-17.066406-7.640625-17.066406-17.066406v-102.398438c0-9.425781 7.640625-17.066406 17.066406-17.066406zm0 0" fill="#1566c0"/><path d="m119.472656 136.535156h226.132813c9.425781 0 17.070312 7.640625 17.070312 17.066406v102.398438c0 9.425781-7.644531 17.066406-17.070312 17.066406h-226.132813c-9.425781 0-17.066406-7.640625-17.066406-17.066406v-102.398438c0-9.425781 7.640625-17.066406 17.066406-17.066406zm0 0" fill="#2296f3"/><path d="m98.140625 454.144531-41.984375 9.640625-1.621094-4.519531-28.414062-77.996094-.085938-.257812 21.160156-8.105469 18.6875-7.167969.257813.683594zm0 0" fill="#37474f"/><path d="m136.539062 307.882812-84.992187 18.433594-1.191406.511719h-.085938l15.1875 39.847656.683594-.253906 79.617187-16.554687zm0 0" fill="#607d8b"/><path d="m68.273438 354.132812c0 16.496094-13.371094 29.867188-29.867188 29.867188-3.65625.023438-7.277344-.675781-10.664062-2.046875-11.554688-4.386719-19.195313-15.460937-19.195313-27.820313 0-12.359374 7.640625-23.433593 19.195313-27.816406 3.386718-1.375 7.007812-2.070312 10.664062-2.050781 7.921875 0 15.519531 3.148437 21.121094 8.75 5.601562 5.601563 8.746094 13.195313 8.746094 21.117187zm0 0" fill="#1566c0"/><path d="m230.40625 345.601562h34.132812v118.183594h-34.132812zm0 0" fill="#37474f"/><path d="m128.007812 494.933594c0 4.710937-3.820312 8.53125-8.535156 8.53125h-68.265625c-4.710937 0-8.53125-3.820313-8.53125-8.53125-.082031-19.480469 13.113281-36.515625 32-41.300782 3.476563-.933593 7.0625-1.390624 10.664063-1.367187 11.328125-.03125 22.199218 4.453125 30.207031 12.460937 8.011719 8.007813 12.496094 18.878907 12.460937 30.207032zm0 0" fill="#1566c0"/><path d="m468.914062 381.011719-.085937.257812-30.035156 82.515625-19.714844-4.519531-22.269531-5.121094 29.609375-81.238281 2.390625-6.484375.253906-.683594zm0 0" fill="#37474f"/><path d="m76.808594 454.144531-22.273438 5.121094-28.414062-77.996094-.085938-.257812 21.160156-8.105469zm0 0" fill="#607d8b"/><path d="m447.582031 381.011719-.085937.257812-28.417969 77.996094-22.269531-5.121094 29.609375-81.238281zm0 0" fill="#607d8b"/><path d="m358.40625 307.882812 84.992188 18.433594 1.195312.511719h.085938l-15.191407 39.847656-.679687-.253906-79.617188-16.554687zm0 0" fill="#37474f"/><g fill="#1566c0"><path d="m486.40625 354.132812c0 16.496094-13.371094 29.867188-29.867188 29.867188-3.652343.023438-7.277343-.675781-10.664062-2.046875-11.554688-4.386719-19.195312-15.460937-19.195312-27.820313 0-12.359374 7.640624-23.433593 19.195312-27.816406 3.386719-1.375 7.011719-2.070312 10.664062-2.050781 16.496094 0 29.867188 13.371094 29.867188 29.867187zm0 0"/><path d="m452.273438 494.933594c0 4.710937-3.820313 8.53125-8.53125 8.53125h-68.269532c-4.710937 0-8.53125-3.820313-8.53125-8.53125-.082031-19.480469 13.117188-36.515625 32-41.300782 3.476563-.933593 7.066406-1.390624 10.664063-1.367187 11.328125-.03125 22.199219 4.453125 30.210937 12.460937 8.007813 8.007813 12.492188 18.878907 12.457032 30.207032zm0 0"/><path d="m290.140625 494.933594c0 4.710937-3.820313 8.53125-8.535156 8.53125h-68.265625c-4.710938 0-8.53125-3.820313-8.53125-8.53125-.082032-19.480469 13.113281-36.515625 32-41.300782 3.476562-.933593 7.066406-1.390624 10.664062-1.367187 11.328125-.03125 22.199219 4.453125 30.207032 12.460937 8.011718 8.007813 12.496093 18.878907 12.460937 30.207032zm0 0"/></g><path d="m106.675781 494.933594c0 4.710937-3.824219 8.53125-8.535156 8.53125h-46.933594c-4.710937 0-8.53125-3.820313-8.53125-8.53125-.082031-19.480469 13.113281-36.515625 32-41.300782 18.882813 4.785157 32.078125 21.820313 32 41.300782zm0 0" fill="#2296f3"/><path d="m430.941406 494.933594c0 4.710937-3.820312 8.53125-8.535156 8.53125h-46.933594c-4.710937 0-8.53125-3.820313-8.53125-8.53125-.082031-19.480469 13.117188-36.515625 32-41.300782 18.882813 4.785157 32.078125 21.820313 32 41.300782zm0 0" fill="#2296f3"/><path d="m268.808594 494.933594c0 4.710937-3.820313 8.53125-8.535156 8.53125h-46.933594c-4.710938 0-8.53125-3.820313-8.53125-8.53125-.082032-19.480469 13.113281-36.515625 32-41.300782 18.882812 4.785157 32.078125 21.820313 32 41.300782zm0 0" fill="#2296f3"/><path d="m358.40625 273.066406v68.265625c0 4.714844-3.820312 8.535157-8.53125 8.535157h-204.800781c-4.714844 0-8.535157-3.820313-8.535157-8.535157v-68.265625zm0 0" fill="#283593"/><path d="m337.074219 273.066406v68.265625c0 4.714844-3.820313 8.535157-8.535157 8.535157h-183.464843c-4.714844 0-8.535157-3.820313-8.535157-8.535157v-68.265625zm0 0" fill="#3f51b5"/><path d="m85.339844 170.667969h17.066406v76.796875h-17.066406c-9.425782 0-17.066406-7.640625-17.066406-17.066406v-42.664063c0-9.425781 7.640624-17.066406 17.066406-17.066406zm0 0" fill="#607d8b"/><path d="m401.074219 247.464844h-17.066407v-76.796875h17.066407c9.425781 0 17.066406 7.640625 17.066406 17.066406v42.664063c0 9.425781-7.640625 17.066406-17.066406 17.066406zm0 0" fill="#37474f"/><path d="m281.605469 204.800781c0 18.851563-15.28125 34.132813-34.132813 34.132813-3.621094.007812-7.226562-.566406-10.664062-1.707032-14.007813-4.605468-23.476563-17.683593-23.476563-32.425781 0-14.746093 9.46875-27.824219 23.476563-32.425781 3.4375-1.140625 7.042968-1.71875 10.664062-1.707031 18.851563 0 34.132813 15.28125 34.132813 34.132812zm0 0" fill="#558b30"/><path d="m260.273438 204.800781c0-17.910156-10.507813-32.425781-23.464844-32.425781-12.960938 0-23.46875 14.515625-23.46875 32.425781 0 17.90625 10.507812 32.425781 23.46875 32.425781 12.957031 0 23.464844-14.519531 23.464844-32.425781zm0 0" fill="#8bc34a"/><path d="m315.742188 119.464844v17.070312h-136.535157v-17.070312c.027344-9.414063 7.652344-17.035156 17.066407-17.066406h102.402343c9.410157.03125 17.035157 7.652343 17.066407 17.066406zm0 0" fill="#37474f"/><path d="m294.40625 119.464844v17.070312h-115.199219v-17.070312c.027344-9.414063 7.652344-17.035156 17.066407-17.066406h81.066406c9.414062.03125 17.039062 7.652343 17.066406 17.066406zm0 0" fill="#607d8b"/><path d="m230.40625 25.601562c0 9.425782-7.640625 17.066407-17.066406 17.066407-9.425782 0-17.066406-7.640625-17.066406-17.066407 0-9.425781 7.640624-17.066406 17.066406-17.066406 9.425781 0 17.066406 7.640625 17.066406 17.066406zm0 0" fill="#2296f3"/><path d="m273.074219 332.800781c0 14.136719-11.460938 25.597657-25.601563 25.597657-3.6875.011718-7.332031-.804688-10.664062-2.386719-9.097656-4.144531-14.933594-13.21875-14.933594-23.210938 0-9.996093 5.835938-19.066406 14.933594-23.210937 3.332031-1.582032 6.976562-2.398438 10.664062-2.390625 14.140625 0 25.601563 11.460937 25.601563 25.601562zm0 0" fill="#1566c0"/><path d="m46.941406 354.132812c0-15.363281-8.597656-27.816406-19.199218-27.816406-10.605469 0-19.203126 12.453125-19.203126 27.816406 0 15.363282 8.597657 27.820313 19.203126 27.820313 10.601562 0 19.199218-12.457031 19.199218-27.820313zm0 0" fill="#2296f3"/><path d="m465.074219 354.132812c0-15.363281-8.597657-27.816406-19.199219-27.816406-10.605469 0-19.199219 12.453125-19.199219 27.816406 0 15.363282 8.59375 27.820313 19.199219 27.820313 10.601562 0 19.199219-12.457031 19.199219-27.820313zm0 0" fill="#2296f3"/><path d="m251.742188 332.800781c0-12.820312-6.6875-23.210937-14.933594-23.210937-8.25 0-14.933594 10.390625-14.933594 23.210937 0 12.816407 6.683594 23.210938 14.933594 23.210938 8.246094 0 14.933594-10.394531 14.933594-23.210938zm0 0" fill="#2296f3"/><path d="m145.074219 238.933594c0 4.710937-3.820313 8.53125-8.535157 8.53125-4.710937 0-8.53125-3.820313-8.53125-8.53125 0-4.714844 3.820313-8.535156 8.53125-8.535156 4.714844 0 8.535157 3.820312 8.535157 8.535156zm0 0"/><path d="m179.207031 238.933594c0 4.710937-3.820312 8.53125-8.53125 8.53125-4.714843 0-8.535156-3.820313-8.535156-8.53125 0-4.714844 3.820313-8.535156 8.535156-8.535156 4.710938 0 8.53125 3.820312 8.53125 8.535156zm0 0"/><path d="m489.898438 335.480469c-6.722657-12.140625-19.480469-19.695313-33.359376-19.746094-4.066406.050781-8.101562.761719-11.945312 2.097656l-77.652344-16.835937v-19.394532c14.136719 0 25.597656-11.464843 25.597656-25.601562h8.535157c14.136719 0 25.601562-11.460938 25.601562-25.601562v-42.664063c0-14.140625-11.464843-25.601563-25.601562-25.601563h-8.535157v-8.53125c0-14.140624-11.460937-25.601562-25.597656-25.601562h-42.667968v-8.535156c0-14.136719-11.460938-25.597656-25.597657-25.597656h-43.292969c-2.300781-19.570313-9.347656-38.277344-20.53125-54.503907 2.660157-4.097656 4.082032-8.878906 4.089844-13.761719 0-14.140624-11.460937-25.601562-25.601562-25.601562-14.136719 0-25.597656 11.460938-25.597656 25.601562 0 14.136719 11.460937 25.597657 25.597656 25.597657 2.714844-.035157 5.40625-.507813 7.972656-1.398438 8.875 13.222657 14.636719 28.292969 16.84375 44.066407h-41.882812c-14.136719 0-25.597657 11.460937-25.597657 25.597656v8.535156h-51.203125c-14.136718 0-25.597656 11.460938-25.597656 25.601562v8.53125h-8.535156c-14.136719 0-25.597656 11.460938-25.597656 25.601563v42.664063c0 14.140624 11.460937 25.601562 25.597656 25.601562h8.535156c0 14.136719 11.460938 25.601562 25.597656 25.601562h8.535156v19.394532l-77.652343 16.835937c-3.84375-1.335937-7.878907-2.046875-11.949219-2.097656-13.914062.050781-26.703125 7.644531-33.40625 19.839844-.679688.835937-1.199219 1.789062-1.527344 2.816406-8.222656 17.878906-1.394531 39.074219 15.71875 48.792969l27.167969 74.632812c-7.890625 9.230469-12.222656 20.972656-12.21875 33.117188 0 9.425781 7.640625 17.066406 17.066406 17.066406h68.265625c9.425782 0 17.066406-7.640625 17.066406-17.066406-.019531-20.734375-12.535156-39.410156-31.699218-47.316406l-27.308594-74.847657 69.128906-14.371093h75.214844v92.265624c-15.820312 9.132813-25.578125 26.003907-25.601562 44.269532 0 9.425781 7.640624 17.066406 17.066406 17.066406h68.265625c9.425781 0 17.070312-7.640625 17.070312-17.066406-.027343-18.265625-9.78125-35.136719-25.601562-44.269532v-92.265624h75.210937l69.121094 14.390624-27.304688 74.828126c-19.164062 7.90625-31.675781 26.585937-31.695312 47.316406 0 9.425781 7.640625 17.066406 17.066406 17.066406h68.269532c9.425781 0 17.066406-7.640625 17.066406-17.066406.003906-12.144532-4.332032-23.886719-12.222656-33.117188l27.15625-74.625c17.078124-9.703125 23.929687-30.839844 15.785156-48.714844-.332032-1.101562-.886719-2.121093-1.628906-2.996093zm-285.089844-309.878907c0-4.714843 3.820312-8.535156 8.53125-8.535156 4.714844 0 8.535156 3.820313 8.535156 8.535156 0 4.710938-3.820312 8.53125-8.535156 8.53125-4.710938 0-8.53125-3.820312-8.53125-8.53125zm204.882812 418.132813 22.101563-60.503906c6.660156 5.742187 15.105469 9 23.894531 9.21875l-21.070312 57.855469c-7.605469-4.296876-16.191407-6.558594-24.925782-6.570313zm16.214844-112.488281c-5.011719 6.582031-7.738281 14.617187-7.765625 22.886718 0 .46875.121094.914063.136719 1.382813l-51.6875-10.769531c.234375-1.121094.351562-2.265625.351562-3.414063v-22.867187zm-24.832031-152.046875c4.710937 0 8.53125 3.820312 8.53125 8.535156v42.664063c0 4.714843-3.820313 8.535156-8.53125 8.535156h-8.535157v-59.734375zm-213.332031-59.734375c0-4.710938 3.820312-8.53125 8.53125-8.53125h102.402343c4.710938 0 8.53125 3.820312 8.53125 8.53125v8.535156h-119.464843zm-102.402344 119.46875c-4.710938 0-8.53125-3.820313-8.53125-8.535156v-42.664063c0-4.714844 3.820312-8.535156 8.53125-8.535156h8.535156v59.734375zm25.601562 17.066406v-102.398438c0-4.714843 3.820313-8.535156 8.53125-8.535156h247.46875c4.710938 0 8.53125 3.820313 8.53125 8.535156v102.398438c0 4.710938-3.820312 8.535156-8.53125 8.535156h-247.46875c-4.710937 0-8.53125-3.824218-8.53125-8.535156zm238.933594 25.601562v26.28125l-.683594 33.449219h-68.796875c.769531-2.78125 1.175781-5.648437 1.210938-8.53125 0-18.851562-15.28125-34.132812-34.132813-34.132812-18.851562 0-34.132812 15.28125-34.132812 34.132812.035156 2.882813.445312 5.75 1.210937 8.53125h-69.476562v-59.730469zm-119.46875 51.199219c0-9.425781 7.640625-17.066406 17.066406-17.066406 9.425782 0 17.066406 7.640625 17.066406 17.066406s-7.640624 17.066407-17.066406 17.066407c-9.425781 0-17.066406-7.640626-17.066406-17.066407zm-102.050781 11.945313-51.683594 10.753906c0-.46875.136719-.914062.136719-1.382812-.027344-8.238282-2.722656-16.242188-7.679688-22.820313l58.878906-12.796875v22.832031c0 1.148438.117188 2.292969.347657 3.414063zm-68.027344 105.558594-21.066406-57.855469c8.789062-.222657 17.234375-3.480469 23.890625-9.226563l22.113281 60.511719c-8.738281.011719-17.328125 2.273437-24.9375 6.570313zm-21.921875-117.503907c2.871094 0 5.714844.582031 8.355469 1.707031.128906.058594.230469.144532.367187.203126 9.886719 4.503906 14.785156 15.742187 11.351563 26.054687-3.4375 10.308594-14.09375 16.363281-24.710938 14.039063-10.613281-2.328126-17.761719-12.289063-16.570312-23.089844 1.191406-10.796875 10.34375-18.960938 21.207031-18.914063zm81.066406 162.132813h-68.265625c0-18.851563 15.28125-34.132813 34.132813-34.132813 18.851562 0 34.132812 15.28125 34.132812 34.132813zm93.867188 0c0-18.851563 15.28125-34.132813 34.132812-34.132813 18.851563 0 34.132813 15.28125 34.132813 34.132813zm34.132812-51.199219c-2.859375.015625-5.714844.273437-8.53125.765625v-78.777344c5.574219 1.613282 11.492188 1.613282 17.066406 0v78.777344c-2.820312-.492188-5.671874-.75-8.535156-.765625zm128 51.199219c0-18.851563 15.285156-34.132813 34.132813-34.132813 18.851562 0 34.136719 15.28125 34.136719 34.132813zm90.078125-121.53125c-.261719.117187-.519531.25-.765625.398437-10.628906 3.972657-22.503906-1.066406-27.03125-11.464843-4.527344-10.402344-.125-22.527344 10.023438-27.597657.203125-.085937.382812-.199219.578125-.300781 10.578125-3.921875 22.382812 1.070312 26.9375 11.390625 4.554687 10.320313.285156 22.402344-9.742188 27.574219zm0 0"/><path d="m247.472656 247.464844c23.566406 0 42.667969-19.101563 42.667969-42.664063 0-23.566406-19.101563-42.667969-42.667969-42.667969-23.5625 0-42.664062 19.101563-42.664062 42.667969.027344 23.550781 19.113281 42.636719 42.664062 42.664063zm0-68.265625c14.140625 0 25.601563 11.460937 25.601563 25.601562 0 14.136719-11.460938 25.597657-25.601563 25.597657-14.136718 0-25.597656-11.460938-25.597656-25.597657 0-14.140625 11.460938-25.601562 25.597656-25.601562zm0 0"/><path d="m307.207031 247.464844h42.667969c4.710938 0 8.53125-3.820313 8.53125-8.53125 0-4.714844-3.820312-8.535156-8.53125-8.535156h-42.667969c-4.710937 0-8.53125 3.820312-8.53125 8.535156 0 4.710937 3.820313 8.53125 8.53125 8.53125zm0 0"/></svg>