<svg version="1.1" viewBox="0.0 0.0 409.5223097112861 348.62467191601047" fill="none" stroke="none" stroke-linecap="square" stroke-miterlimit="10" xmlns:xlink="http://www.w3.org/1999/xlink" xmlns="http://www.w3.org/2000/svg"><clipPath id="p.0"><path d="m0 0l409.5223 0l0 348.62466l-409.5223 0l0 -348.62466z" clip-rule="nonzero"/></clipPath><g clip-path="url(#p.0)"><path fill="#000000" fill-opacity="0.0" d="m0 0l409.5223 0l0 348.62466l-409.5223 0z" fill-rule="evenodd"/><path fill="#21ba45" d="m18.267717 244.7156l0 0c0 -17.28122 14.0091915 -31.290405 31.290407 -31.290405l37.072727 0l0 0c8.298737 0 16.257568 3.2966614 22.125664 9.164749c5.868088 5.868088 9.1647415 13.82692 9.1647415 22.125656l0 6.5845337l0 0c0 17.28122 -14.009186 31.290405 -31.290405 31.290405l-37.072727 0c-17.281216 0 -31.290407 -14.009186 -31.290407 -31.290405z" fill-rule="evenodd"/><path stroke="#000000" stroke-width="4.0" stroke-linejoin="round" stroke-linecap="butt" d="m18.267717 244.7156l0 0c0 -17.28122 14.0091915 -31.290405 31.290407 -31.290405l37.072727 0l0 0c8.298737 0 16.257568 3.2966614 22.125664 9.164749c5.868088 5.868088 9.1647415 13.82692 9.1647415 22.125656l0 6.5845337l0 0c0 17.28122 -14.009186 31.290405 -31.290405 31.290405l-37.072727 0c-17.281216 0 -31.290407 -14.009186 -31.290407 -31.290405z" fill-rule="evenodd"/><path fill="#ffffff" d="m57.620125 256.82974l6.09375 -17.640625l-2.21875 -0.21875l0 -4.8125l10.5625 0l7.625 23.84375l0.015625 -0.765625l3.09375 0.140625l0 5.03125l-11.984375 0l0 -4.828125l2.28125 -0.1875q0.375 -0.046875 0.328125 0q-0.03125 0.03125 -0.078125 -0.109375l-0.65625 -1.921875l-8.171875 0l-0.640625 1.921875l2.078125 0.09375l0 5.03125l-10.890625 0l0 -4.8125l2.0625 -0.203125q0.3125 -0.03125 0.5 -0.5625zm11.109375 -17.203125l-2.703125 10.40625l5.171875 0l-2.59375 -10.40625l0.125 0z" fill-rule="nonzero"/><path fill="#f2711c" d="m154.26772 244.7156l0 0c0 -17.28122 14.009186 -31.290405 31.290405 -31.290405l37.07274 0l0 0c8.298721 0 16.257568 3.2966614 22.125656 9.164749c5.868088 5.868088 9.164749 13.82692 9.164749 22.125656l0 6.5845337l0 0c0 17.28122 -14.009201 31.290405 -31.290405 31.290405l-37.07274 0c-17.28122 0 -31.290405 -14.009186 -31.290405 -31.290405z" fill-rule="evenodd"/><path stroke="#000000" stroke-width="4.0" stroke-linejoin="round" stroke-linecap="butt" d="m154.26772 244.7156l0 0c0 -17.28122 14.009186 -31.290405 31.290405 -31.290405l37.07274 0l0 0c8.298721 0 16.257568 3.2966614 22.125656 9.164749c5.868088 5.868088 9.164749 13.82692 9.164749 22.125656l0 6.5845337l0 0c0 17.28122 -14.009201 31.290405 -31.290405 31.290405l-37.07274 0c-17.28122 0 -31.290405 -14.009186 -31.290405 -31.290405z" fill-rule="evenodd"/><path fill="#ffffff" d="m204.12325 257.15787q3.96875 0 3.96875 -3.015625q0 -1.46875 -1.65625 -2.21875q-1.046875 -0.515625 -2.8125 -1.0q-1.765625 -0.484375 -3.015625 -1.015625q-1.25 -0.53125 -2.53125 -1.453125q-2.703125 -2.015625 -2.703125 -6.078125q0 -4.0625 2.796875 -6.375q2.8125 -2.328125 7.15625 -2.328125q4.34375 0 8.5 1.9375l0 7.296875l-5.734375 0.40625l0 -3.21875q0 -0.375 -0.046875 -0.46875q-0.203125 -0.34375 -2.21875 -0.34375q-2.0 0 -2.859375 0.640625q-0.859375 0.640625 -0.859375 1.96875q0 0.9375 0.71875 1.671875q0.515625 0.5 1.671875 0.890625q1.15625 0.390625 2.59375 0.828125q1.453125 0.4375 2.609375 0.984375q1.171875 0.546875 2.4375 1.53125q2.765625 2.046875 2.765625 6.21875q0 4.15625 -2.96875 6.53125q-2.953125 2.375 -7.625 2.375q-4.65625 0 -8.8125 -1.9375l0 -7.609375l5.734375 -0.40625l0 3.328125q0 0.375 0.015625 0.421875q0.03125 0.046875 0.625 0.25q0.609375 0.1875 2.25 0.1875z" fill-rule="nonzero"/><path fill="#db2828" d="m290.26773 244.7156l0 0c0 -17.28122 14.009186 -31.290405 31.290405 -31.290405l37.072723 0l0 0c8.298737 0 16.257568 3.2966614 22.12564 9.164749c5.868103 5.868088 9.164764 13.82692 9.164764 22.125656l0 6.5845337l0 0c0 17.28122 -14.009186 31.290405 -31.290405 31.290405l-37.072723 0c-17.28122 0 -31.290405 -14.009186 -31.290405 -31.290405z" fill-rule="evenodd"/><path stroke="#000000" stroke-width="4.0" stroke-linejoin="round" stroke-linecap="butt" d="m290.26773 244.7156l0 0c0 -17.28122 14.009186 -31.290405 31.290405 -31.290405l37.072723 0l0 0c8.298737 0 16.257568 3.2966614 22.12564 9.164749c5.868103 5.868088 9.164764 13.82692 9.164764 22.125656l0 6.5845337l0 0c0 17.28122 -14.009186 31.290405 -31.290405 31.290405l-37.072723 0c-17.28122 0 -31.290405 -14.009186 -31.290405 -31.290405z" fill-rule="evenodd"/><path fill="#ffffff" d="m328.15387 262.40787l0 -4.8125l2.078125 -0.203125q0.40625 -0.046875 0.40625 -0.296875l0 -17.8125l-2.28125 -0.125l0 -5.0l11.78125 0q6.21875 0 9.765625 3.359375q3.546875 3.34375 3.546875 9.828125q0 3.9375 -1.0625 6.921875q-1.046875 2.984375 -2.921875 4.71875q-3.671875 3.421875 -9.125 3.421875l-12.1875 0zm9.015625 -22.71875l0 17.21875l3.25 0q3.03125 0 4.734375 -2.203125q1.71875 -2.203125 1.71875 -6.640625q0 -8.375 -6.96875 -8.375l-2.734375 0z" fill-rule="nonzero"/><path fill="#2185d0" d="m154.26772 134.87045l0 0c0 -17.281212 14.009186 -31.290398 31.290405 -31.290398l37.07274 0l0 0c8.298721 0 16.257568 3.2966537 22.125656 9.1647415c5.868088 5.8680954 9.164749 13.826927 9.164749 22.125656l0 6.584549l0 0c0 17.28122 -14.009201 31.290405 -31.290405 31.290405l-37.07274 0c-17.28122 0 -31.290405 -14.009186 -31.290405 -31.290405z" fill-rule="evenodd"/><path stroke="#000000" stroke-width="4.0" stroke-linejoin="round" stroke-linecap="butt" d="m154.26772 134.87045l0 0c0 -17.281212 14.009186 -31.290398 31.290405 -31.290398l37.07274 0l0 0c8.298721 0 16.257568 3.2966537 22.125656 9.1647415c5.868088 5.8680954 9.164749 13.826927 9.164749 22.125656l0 6.584549l0 0c0 17.28122 -14.009201 31.290405 -31.290405 31.290405l-37.07274 0c-17.28122 0 -31.290405 -14.009186 -31.290405 -31.290405z" fill-rule="evenodd"/><path fill="#ffffff" d="m223.25388 129.12523l-2.09375 0.203125q-0.40625 0.03125 -0.5625 0.78125l-5.203125 22.453125l-6.78125 0l-3.671875 -18.46875l0.125 0l-3.546875 18.46875l-6.953125 0l-5.515625 -23.109375l-2.453125 -0.140625l0 -5.0l11.578125 0l0 4.8125l-2.078125 0.203125q-0.484375 0.046875 -0.484375 0.203125q0 0.09375 0.015625 0.203125l2.828125 15.390625l-0.15625 0l3.671875 -18.703125l6.46875 0l3.734375 18.90625l-0.078125 0l2.484375 -15.875l-1.984375 -0.15625l0 -4.984375l10.65625 0l0 4.8125z" fill-rule="nonzero"/><path fill="#2185d0" d="m290.26773 93.12243l0 0c0 -17.28122 14.009186 -31.29041 31.290405 -31.29041l37.072723 0l0 0c8.298737 0 16.257568 3.2966576 22.12564 9.164745c5.868103 5.8680954 9.164764 13.826927 9.164764 22.125664l0 6.5845413l0 0c0 17.281212 -14.009186 31.290405 -31.290405 31.290405l-37.072723 0c-17.28122 0 -31.290405 -14.009193 -31.290405 -31.290405z" fill-rule="evenodd"/><path stroke="#000000" stroke-width="4.0" stroke-linejoin="round" stroke-linecap="butt" d="m290.26773 93.12243l0 0c0 -17.28122 14.009186 -31.29041 31.290405 -31.29041l37.072723 0l0 0c8.298737 0 16.257568 3.2966576 22.12564 9.164745c5.868103 5.8680954 9.164764 13.826927 9.164764 22.125664l0 6.5845413l0 0c0 17.281212 -14.009186 31.290405 -31.290405 31.290405l-37.072723 0c-17.28122 0 -31.290405 -14.009193 -31.290405 -31.290405z" fill-rule="evenodd"/><path fill="#ffffff" d="m351.13013 110.8147l-20.65625 0l0 -4.8125l2.078125 -0.203125q0.40625 -0.046875 0.40625 -0.296875l0 -17.8125l-2.28125 -0.125l0 -5.0l19.96875 0l0 8.25l-5.734375 0.375l0 -2.484375q0 -0.40625 0 -0.40625q0 0 -0.328125 0l-5.09375 0l0 5.171875l9.234375 0l0 5.75l-9.234375 0l0 5.8125l5.609375 0q0.28125 0 0.28125 0q0.015625 -0.015625 0.015625 -0.453125l0 -2.890625l5.734375 0.40625l0 8.71875z" fill-rule="nonzero"/><path fill="#db2828" d="m18.267717 93.12243l0 0c0 -17.28122 14.0091915 -31.29041 31.290407 -31.29041l37.072727 0l0 0c8.298737 0 16.257568 3.2966576 22.125664 9.164745c5.868088 5.8680954 9.1647415 13.826927 9.1647415 22.125664l0 6.5845413l0 0c0 17.281212 -14.009186 31.290405 -31.290405 31.290405l-37.072727 0c-17.281216 0 -31.290407 -14.009193 -31.290407 -31.290405z" fill-rule="evenodd"/><path stroke="#000000" stroke-width="4.0" stroke-linejoin="round" stroke-linecap="butt" d="m18.267717 93.12243l0 0c0 -17.28122 14.0091915 -31.29041 31.290407 -31.29041l37.072727 0l0 0c8.298737 0 16.257568 3.2966576 22.125664 9.164745c5.868088 5.8680954 9.1647415 13.826927 9.1647415 22.125664l0 6.5845413l0 0c0 17.281212 -14.009186 31.290405 -31.290405 31.290405l-37.072727 0c-17.281216 0 -31.290407 -14.009193 -31.290407 -31.290405z" fill-rule="evenodd"/><path fill="#ffffff" d="m81.392624 96.7522q0 5.40625 -2.34375 8.96875q-2.328125 3.546875 -6.8125 4.03125l-0.03125 -0.125q3.203125 -0.53125 6.1875 1.25q1.796875 1.125 4.25 1.125q0.546875 0 2.1875 -0.203125l-0.6875 5.546875q-1.265625 0.109375 -1.890625 0.109375l-4.09375 -0.71875q-2.625 -0.90625 -5.0625 -2.046875q-2.5625 -1.1875 -4.6875 -1.1875q-1.046875 0 -3.296875 0.46875l0.625 -3.234375q-9.359375 -1.234375 -9.359375 -13.984375q0 -3.84375 1.140625 -6.796875q1.140625 -2.953125 3.09375 -4.59375q3.765625 -3.28125 8.828125 -3.28125q5.078125 0 8.515625 3.609375q3.4375 3.609375 3.4375 11.0625zm-18.359375 -0.203125q0 9.09375 6.046875 9.09375q3.171875 0 4.453125 -2.578125q1.234375 -2.5 1.234375 -6.203125q0 -3.296875 -1.171875 -6.078125q-0.546875 -1.375 -1.71875 -2.140625q-1.171875 -0.78125 -3.078125 -0.78125q-1.90625 0 -3.28125 1.25q-1.375 1.25 -1.9375 3.125q-0.546875 1.875 -0.546875 4.3125z" fill-rule="nonzero"/><path fill="#00b5ad" d="m508.08923 431.97018l0 0c0 -17.281189 14.009216 -31.290405 31.290405 -31.290405l37.072754 0l0 0c8.298706 0 16.257568 3.2966614 22.125671 9.164764c5.868042 5.8680725 9.164734 13.826935 9.164734 22.12564l0 6.584564l0 0c0 17.281189 -14.009216 31.290405 -31.290405 31.290405l-37.072754 0c-17.281189 0 -31.290405 -14.009216 -31.290405 -31.290405z" fill-rule="evenodd"/><path stroke="#000000" stroke-width="4.0" stroke-linejoin="round" stroke-linecap="butt" d="m508.08923 431.97018l0 0c0 -17.281189 14.009216 -31.290405 31.290405 -31.290405l37.072754 0l0 0c8.298706 0 16.257568 3.2966614 22.125671 9.164764c5.868042 5.8680725 9.164734 13.826935 9.164734 22.12564l0 6.584564l0 0c0 17.281189 -14.009216 31.290405 -31.290405 31.290405l-37.072754 0c-17.281189 0 -31.290405 -14.009216 -31.290405 -31.290405z" fill-rule="evenodd"/><path fill="#ffffff" d="m563.62915 444.14685l0 -6.078125l-9.65625 0l0 6.453125l2.3125 0.109375l0 5.03125l-11.328125 0l0 -4.8125l2.0625 -0.203125q0.421875 -0.046875 0.421875 -0.296875l0 -17.8125l-2.28125 -0.125l0 -5.0l11.328125 0l0 4.8125l-2.046875 0.203125q-0.375 0.046875 -0.421875 0.09375q-0.046875 0.03125 -0.046875 0.390625l0 5.375l9.65625 0l0 -5.75l-2.265625 -0.125l0 -5.0l11.328125 0l0 4.8125l-2.0625 0.203125q-0.421875 0.03125 -0.421875 0.453125l0 17.640625l2.28125 0.109375l0 5.03125l-11.328125 0l0 -4.8125l2.046875 -0.203125q0.328125 -0.03125 0.375 -0.078125q0.046875 -0.046875 0.046875 -0.421875z" fill-rule="nonzero"/><path fill="#21ba45" d="m508.08923 322.12506l0 0c0 -17.28122 14.009216 -31.290405 31.290405 -31.290405l37.072754 0l0 0c8.298706 0 16.257568 3.2966614 22.125671 9.164734c5.868042 5.868103 9.164734 13.826935 9.164734 22.125671l0 6.5845337l0 0c0 17.28122 -14.009216 31.290405 -31.290405 31.290405l-37.072754 0c-17.281189 0 -31.290405 -14.009186 -31.290405 -31.290405z" fill-rule="evenodd"/><path stroke="#000000" stroke-width="4.0" stroke-linejoin="round" stroke-linecap="butt" d="m508.08923 322.12506l0 0c0 -17.28122 14.009216 -31.290405 31.290405 -31.290405l37.072754 0l0 0c8.298706 0 16.257568 3.2966614 22.125671 9.164734c5.868042 5.868103 9.164734 13.826935 9.164734 22.125671l0 6.5845337l0 0c0 17.28122 -14.009216 31.290405 -31.290405 31.290405l-37.072754 0c-17.281189 0 -31.290405 -14.009186 -31.290405 -31.290405z" fill-rule="evenodd"/><path fill="#ffffff" d="m555.39105 334.50482l0 -5.46875l-6.484375 -12.328125l-2.1875 -0.140625l0 -5.0l11.40625 0l0 4.8125l-1.953125 0.203125q-0.140625 0 -0.15625 0.03125q0 0.03125 0.15625 0.328125l2.8125 7.078125l-0.15625 -0.015625l3.203125 -7.328125l-1.515625 -0.125l0 -4.984375l10.25 0l0 4.8125l-1.9375 0.203125q-0.328125 0.03125 -0.703125 0.75l-6.1875 11.703125l0 5.640625l3.109375 0.109375l0 5.03125l-12.9375 0l0 -4.84375l2.90625 -0.171875q0.375 -0.03125 0.375 -0.296875z" fill-rule="nonzero"/><path fill="#00b5ad" d="m632.54596 431.97018l0 0c0 -17.281189 14.009155 -31.290405 31.290405 -31.290405l37.072693 0l0 0c8.298767 0 16.257568 3.2966614 22.125671 9.164764c5.868103 5.8680725 9.164734 13.826935 9.164734 22.12564l0 6.584564l0 0c0 17.281189 -14.009155 31.290405 -31.290405 31.290405l-37.072693 0c-17.28125 0 -31.290405 -14.009216 -31.290405 -31.290405z" fill-rule="evenodd"/><path stroke="#000000" stroke-width="4.0" stroke-linejoin="round" stroke-linecap="butt" d="m632.54596 431.97018l0 0c0 -17.281189 14.009155 -31.290405 31.290405 -31.290405l37.072693 0l0 0c8.298767 0 16.257568 3.2966614 22.125671 9.164764c5.868103 5.8680725 9.164734 13.826935 9.164734 22.12564l0 6.584564l0 0c0 17.281189 -14.009155 31.290405 -31.290405 31.290405l-37.072693 0c-17.28125 0 -31.290405 -14.009216 -31.290405 -31.290405z" fill-rule="evenodd"/><path fill="#ffffff" d="m690.2677 443.56873q-0.765625 6.609375 -8.703125 6.609375q-3.984375 0 -7.546875 -2.015625l0 -8.25l5.734375 -0.40625l0 4.046875q0 0.375 0.03125 0.4375q0.03125 0.0625 0.5 0.25q0.46875 0.171875 1.59375 0.171875q1.140625 0 1.578125 -0.578125q0.4375 -0.59375 0.4375 -2.234375l0 -15.03125l-3.125 -0.15625l0 -5.0l12.140625 0l0 4.8125l-2.0625 0.203125q-0.421875 0.03125 -0.421875 0.40625l0 12.4375q0 2.890625 -0.15625 4.296875z" fill-rule="nonzero"/><path fill="#21ba45" d="m632.54596 322.12506l0 0c0 -17.28122 14.009155 -31.290405 31.290405 -31.290405l37.072693 0l0 0c8.298767 0 16.257568 3.2966614 22.125671 9.164734c5.868103 5.868103 9.164734 13.826935 9.164734 22.125671l0 6.5845337l0 0c0 17.28122 -14.009155 31.290405 -31.290405 31.290405l-37.072693 0c-17.28125 0 -31.290405 -14.009186 -31.290405 -31.290405z" fill-rule="evenodd"/><path stroke="#000000" stroke-width="4.0" stroke-linejoin="round" stroke-linecap="butt" d="m632.54596 322.12506l0 0c0 -17.28122 14.009155 -31.290405 31.290405 -31.290405l37.072693 0l0 0c8.298767 0 16.257568 3.2966614 22.125671 9.164734c5.868103 5.868103 9.164734 13.826935 9.164734 22.125671l0 6.5845337l0 0c0 17.28122 -14.009155 31.290405 -31.290405 31.290405l-37.072693 0c-17.28125 0 -31.290405 -14.009186 -31.290405 -31.290405z" fill-rule="evenodd"/><path fill="#ffffff" d="m678.8958 317.06732l0 13.28125q0 2.421875 1.078125 3.34375q1.078125 0.90625 3.265625 0.90625q2.1875 0 3.3125 -1.015625q1.125 -1.015625 1.125 -3.03125l0 -13.859375l-2.328125 -0.125l0 -5.0l11.140625 0l0 4.8125l-2.078125 0.203125q-0.40625 0.03125 -0.40625 0.359375l0 14.28125q0 4.28125 -2.984375 6.703125q-2.984375 2.40625 -8.09375 2.40625q-5.09375 0 -7.8125 -2.359375q-2.71875 -2.375 -2.71875 -7.390625l0 -13.890625l-2.328125 -0.125l0 -5.0l11.34375 0l0 4.8125l-2.0625 0.203125q-0.359375 0.046875 -0.40625 0.09375q-0.046875 0.03125 -0.046875 0.390625z" fill-rule="nonzero"/><path fill="#e03997" d="m757.0026 431.97018l0 0c0 -17.281189 14.009216 -31.290405 31.290405 -31.290405l37.072754 0l0 0c8.298706 0 16.257568 3.2966614 22.12561 9.164764c5.868103 5.8680725 9.164795 13.826935 9.164795 22.12564l0 6.584564l0 0c0 17.281189 -14.009216 31.290405 -31.290405 31.290405l-37.072754 0c-17.281189 0 -31.290405 -14.009216 -31.290405 -31.290405z" fill-rule="evenodd"/><path stroke="#000000" stroke-width="4.0" stroke-linejoin="round" stroke-linecap="butt" d="m757.0026 431.97018l0 0c0 -17.281189 14.009216 -31.290405 31.290405 -31.290405l37.072754 0l0 0c8.298706 0 16.257568 3.2966614 22.12561 9.164764c5.868103 5.8680725 9.164795 13.826935 9.164795 22.12564l0 6.584564l0 0c0 17.281189 -14.009216 31.290405 -31.290405 31.290405l-37.072754 0c-17.281189 0 -31.290405 -14.009216 -31.290405 -31.290405z" fill-rule="evenodd"/><path fill="#ffffff" d="m798.155 444.14685l0 -17.609375l-2.28125 -0.125l0 -5.0l11.25 0l0 4.8125l-2.0625 0.203125q-0.421875 0.03125 -0.421875 0.453125l0 6.484375l5.671875 -6.875l-1.40625 -0.078125l0 -5.0l11.015625 0l0 4.8125l-2.0625 0.203125q-0.421875 0.046875 -1.046875 0.8125l-5.296875 6.5l6.546875 10.78125l2.46875 0.125l0 5.015625l-11.90625 0l0 -4.8125l2.0 -0.203125q0.25 0.1875 0.046875 0.1875q0 -0.03125 -0.109375 -0.25l-3.34375 -5.796875l-2.578125 3.109375l0 2.625l2.28125 0.109375l0 5.03125l-11.25 0l0 -4.8125l2.046875 -0.203125q0.34375 -0.03125 0.390625 -0.078125q0.046875 -0.046875 0.046875 -0.421875z" fill-rule="nonzero"/><path fill="#f2711c" d="m757.0026 322.12506l0 0c0 -17.28122 14.009216 -31.290405 31.290405 -31.290405l37.072754 0l0 0c8.298706 0 16.257568 3.2966614 22.12561 9.164734c5.868103 5.868103 9.164795 13.826935 9.164795 22.125671l0 6.5845337l0 0c0 17.28122 -14.009216 31.290405 -31.290405 31.290405l-37.072754 0c-17.281189 0 -31.290405 -14.009186 -31.290405 -31.290405z" fill-rule="evenodd"/><path stroke="#000000" stroke-width="4.0" stroke-linejoin="round" stroke-linecap="butt" d="m757.0026 322.12506l0 0c0 -17.28122 14.009216 -31.290405 31.290405 -31.290405l37.072754 0l0 0c8.298706 0 16.257568 3.2966614 22.12561 9.164734c5.868103 5.868103 9.164795 13.826935 9.164795 22.125671l0 6.5845337l0 0c0 17.28122 -14.009216 31.290405 -31.290405 31.290405l-37.072754 0c-17.281189 0 -31.290405 -14.009186 -31.290405 -31.290405z" fill-rule="evenodd"/><path fill="#ffffff" d="m804.455 334.3017l0 -17.609375l-2.28125 -0.125l0 -5.0l11.328125 0l0 4.8125l-2.0625 0.203125q-0.40625 0.03125 -0.40625 0.453125l0 17.640625l2.265625 0.109375l0 5.03125l-11.328125 0l0 -4.8125l2.046875 -0.203125q0.34375 -0.03125 0.390625 -0.078125q0.046875 -0.046875 0.046875 -0.421875z" fill-rule="nonzero"/><path fill="#e03997" d="m881.4593 431.97018l0 0c0 -17.281189 14.009216 -31.290405 31.290405 -31.290405l37.072754 0l0 0c8.298767 0 16.257568 3.2966614 22.125671 9.164764c5.868103 5.8680725 9.164734 13.826935 9.164734 22.12564l0 6.584564l0 0c0 17.281189 -14.009155 31.290405 -31.290405 31.290405l-37.072754 0c-17.281189 0 -31.290405 -14.009216 -31.290405 -31.290405z" fill-rule="evenodd"/><path stroke="#000000" stroke-width="4.0" stroke-linejoin="round" stroke-linecap="butt" d="m881.4593 431.97018l0 0c0 -17.281189 14.009216 -31.290405 31.290405 -31.290405l37.072754 0l0 0c8.298767 0 16.257568 3.2966614 22.125671 9.164764c5.868103 5.8680725 9.164734 13.826935 9.164734 22.12564l0 6.584564l0 0c0 17.281189 -14.009155 31.290405 -31.290405 31.290405l-37.072754 0c-17.281189 0 -31.290405 -14.009216 -31.290405 -31.290405z" fill-rule="evenodd"/><path fill="#ffffff" d="m942.4836 449.66248l-20.65625 0l0 -4.8125l2.0625 -0.203125q0.421875 -0.046875 0.421875 -0.296875l0 -17.8125l-2.28125 -0.125l0 -5.0l11.296875 0l0 4.8125l-2.078125 0.203125q-0.40625 0.03125 -0.40625 0.453125l0 17.0l5.8125 0q0.09375 0 0.09375 0q0 0 0 -0.453125l0 -3.6875l5.734375 0.40625l0 9.515625z" fill-rule="nonzero"/><path fill="#f2711c" d="m881.4593 322.12506l0 0c0 -17.28122 14.009216 -31.290405 31.290405 -31.290405l37.072754 0l0 0c8.298767 0 16.257568 3.2966614 22.125671 9.164734c5.868103 5.868103 9.164734 13.826935 9.164734 22.125671l0 6.5845337l0 0c0 17.28122 -14.009155 31.290405 -31.290405 31.290405l-37.072754 0c-17.281189 0 -31.290405 -14.009186 -31.290405 -31.290405z" fill-rule="evenodd"/><path stroke="#000000" stroke-width="4.0" stroke-linejoin="round" stroke-linecap="butt" d="m881.4593 322.12506l0 0c0 -17.28122 14.009216 -31.290405 31.290405 -31.290405l37.072754 0l0 0c8.298767 0 16.257568 3.2966614 22.125671 9.164734c5.868103 5.868103 9.164734 13.826935 9.164734 22.125671l0 6.5845337l0 0c0 17.28122 -14.009155 31.290405 -31.290405 31.290405l-37.072754 0c-17.281189 0 -31.290405 -14.009186 -31.290405 -31.290405z" fill-rule="evenodd"/><path fill="#ffffff" d="m932.678 311.08295q5.078125 0 8.5 3.609375q3.4375 3.609375 3.4375 10.828125q0 7.21875 -3.40625 11.015625q-3.40625 3.796875 -9.203125 3.796875q-5.78125 0 -9.09375 -3.765625q-3.3125 -3.78125 -3.3125 -10.8125q0 -3.84375 1.140625 -6.78125q1.15625 -2.953125 3.0625 -4.609375q3.796875 -3.28125 8.875 -3.28125zm-6.421875 14.46875q0 9.09375 6.0625 9.09375q3.15625 0 4.421875 -2.59375q1.265625 -2.5 1.265625 -6.1875q0 -3.3125 -1.140625 -6.078125q-0.578125 -1.375 -1.75 -2.140625q-1.171875 -0.78125 -3.09375 -0.78125q-1.90625 0 -3.28125 1.25q-1.375 1.25 -1.9375 3.125q-0.546875 1.875 -0.546875 4.3125z" fill-rule="nonzero"/><path fill="#000000" fill-opacity="0.0" d="m34.913387 9.832021l66.3622 0l0 52.0l-66.3622 0z" fill-rule="evenodd"/><path fill="#000000" d="m75.54669 45.43202l-13.75 0l0 -3.203125l1.375 -0.125q0.265625 -0.03125 0.265625 -0.203125l0 -11.874998l-1.515625 -0.078125l0 -3.328125l7.515625 0l0 3.203125l-1.375 0.125q-0.28125 0.03125 -0.28125 0.296875l0 11.343748l3.890625 0q0.0625 0 0.0625 0q0 0 0 -0.296875l0 -2.453125l3.8125 0.25l0 6.34375z" fill-rule="nonzero"/><path fill="#000000" fill-opacity="0.0" d="m306.9134 9.832021l66.36221 0l0 52.0l-66.36221 0z" fill-rule="evenodd"/><path fill="#000000" d="m332.61047 45.43202l0 -3.203125l1.375 -0.125q0.265625 -0.03125 0.265625 -0.203125l0 -11.874998l-1.515625 -0.078125l0 -3.328125l7.828125 0q3.265625 0 5.09375 1.28125q1.84375 1.265625 1.84375 4.156248q0 2.0 -1.046875 3.3125q-1.046875 1.3125 -1.59375 1.375q0.265625 -0.078125 0.921875 1.421875l1.78125 3.875l1.703125 0.046875l0 3.34375l-7.671875 0l0 -3.203125l1.25 -0.125q0.203125 0.0625 0.125 0.0625q0 -0.03125 -0.046875 -0.140625l-1.265625 -2.65625q-0.234375 -0.5625 -0.46875 -0.734375q-0.234375 -0.1875 -0.703125 -0.1875l-1.890625 0l0 3.578125l1.734375 0.078125l0 3.328125l-7.71875 0zm5.984375 -10.609375l1.78125 0q2.734375 0 2.734375 -2.390625q0 -1.3593731 -0.671875 -1.7499981q-0.65625 -0.390625 -2.4375 -0.390625l-1.40625 0l0 4.531248z" fill-rule="nonzero"/><path fill="#000000" fill-opacity="0.0" d="m170.91339 51.58005l66.3622 0l0 52.000004l-66.3622 0z" fill-rule="evenodd"/><path fill="#000000" d="m210.70837 72.30505l-3.59375 4.859375l4.296875 6.484375l1.921875 0.125l0 3.40625l-8.5 0l0 -3.234375l1.296875 -0.125q0.21875 -0.015625 0.234375 -0.0625q0.03125 -0.046875 0 -0.109375l-1.953125 -3.0l-2.078125 3.15625l0.84375 0.046875l0 3.328125l-7.21875 0l0 -3.203125l1.296875 -0.125q0.25 -0.03125 0.625 -0.609375l4.109375 -5.890625l-3.703125 -5.453125l-1.703125 -0.140625l0 -3.390625l8.171875 0l0 3.1875l-1.15625 0.171875q-0.265625 0.015625 -0.28125 0.0625q-0.015625 0.03125 0.078125 0.171875l1.359375 2.109375l1.578125 -2.328125l-0.890625 -0.046875l0 -3.328125l7.203125 0l0 3.203125l-1.3125 0.125q-0.25 0.03125 -0.625 0.609375z" fill-rule="nonzero"/><path fill="#000000" fill-opacity="0.0" d="m524.7349 238.83464l66.36218 0l0 52.000015l-66.36218 0z" fill-rule="evenodd"/><path fill="#000000" d="m557.3338 270.669l0 -9.59375l-2.796875 1.421875l-1.6875 -2.953125l5.4375 -3.375l3.3125 0l0 14.796875l2.765625 0.140625l0 3.328125l-10.375 0l0 -3.25l3.078125 -0.1875q0.1875 -0.015625 0.21875 -0.046875q0.046875 -0.03125 0.046875 -0.28125z" fill-rule="nonzero"/><path fill="#000000" fill-opacity="0.0" d="m649.1916 238.83464l66.36224 0l0 52.000015l-66.36224 0z" fill-rule="evenodd"/><path fill="#000000" d="m677.1135 274.43463l0 -2.78125l5.40625 -6.859375q0.828125 -1.046875 1.0625 -1.375q0.25 -0.328125 0.46875 -0.890625q0.234375 -0.578125 0.234375 -1.328125q0 -0.75 -0.46875 -1.171875q-0.46875 -0.4375 -1.296875 -0.4375q-0.8125 0 -1.15625 0.109375q-0.328125 0.109375 -0.34375 0.15625q-0.015625 0.03125 -0.015625 0.328125l0 2.46875l-3.8125 -0.25l0 -5.125q2.921875 -1.4531097 5.734375 -1.4531097q2.8125 0 4.3125 1.4531097q1.5 1.453125 1.5 3.90625q0 2.453125 -2.390625 5.34375l-3.53125 4.171875l6.015625 0l0 3.734375l-11.71875 0z" fill-rule="nonzero"/><path fill="#000000" fill-opacity="0.0" d="m773.6483 238.83464l66.36218 0l0 52.000015l-66.36218 0z" fill-rule="evenodd"/><path fill="#000000" d="m804.37213 263.40338l3.09375 0q1.203125 -0.765625 1.203125 -2.3125q0 -1.5 -1.765625 -1.5q-0.765625 0 -1.1875 0.140625q-0.421875 0.140625 -0.4375 0.171875q-0.015625 0.03125 -0.015625 0.34375l0 2.484375l-3.8125 -0.25l0 -5.125q3.078125 -1.5312347 5.859375 -1.5312347q2.796875 0 4.25 1.3437347q1.453125 1.34375 1.453125 3.46875q0 1.546875 -0.734375 2.796875q-0.734375 1.25 -0.953125 1.390625q1.953125 0.609375 1.953125 3.9375q0 2.6875 -1.6875 4.359375q-1.671875 1.65625 -4.875 1.65625q-1.546875 0 -3.078125 -0.421875q-1.515625 -0.421875 -2.828125 -1.21875l1.3125 -3.546875q2.546875 1.40625 4.484375 1.40625q2.359375 0 2.359375 -2.046875q0 -1.046875 -0.703125 -1.53125q-0.6875 -0.5 -2.625 -0.5l-1.609375 0l0.34375 -3.515625z" fill-rule="nonzero"/><path fill="#000000" fill-opacity="0.0" d="m898.105 238.83464l66.36218 0l0 52.000015l-66.36218 0z" fill-rule="evenodd"/><path fill="#000000" d="m933.53284 261.02838l2.8125 0l0 4.984375l2.375 0l0 3.625l-2.390625 0l0 1.328125l2.203125 0.140625l0 3.328125l-8.921875 0l0 -3.234375l2.15625 -0.171875q0.265625 -0.015625 0.265625 -0.203125l0 -1.21875l-6.828125 0l0 -2.875l5.3125 -11.14061l3.5 1.7343597l-4.140625 8.6875l2.390625 0l0 -0.96875l1.265625 -4.015625z" fill-rule="nonzero"/><path fill="#000000" fill-opacity="0.0" d="m524.7349 469.84515l66.36218 0l0 52.0l-66.36218 0z" fill-rule="evenodd"/><path fill="#000000" d="m564.0337 490.8045l-6.171875 0l-0.40625 3.03125q2.5625 0.1875 4.625 1.65625q2.0625 1.46875 2.0625 4.390625q0 2.375 -1.59375 4.125q-1.59375 1.734375 -4.875 1.734375q-1.5625 0 -3.0625 -0.421875q-1.5 -0.421875 -2.828125 -1.265625l1.5 -3.40625q2.484375 1.359375 4.265625 1.359375q2.171875 0 2.171875 -2.0625q0 -2.703125 -6.453125 -2.703125l1.28125 -10.0625l5.796875 0q0.0625 0 0.0625 -0.1875l0 -1.75l3.625 0.265625l0 5.296875z" fill-rule="nonzero"/><path fill="#000000" fill-opacity="0.0" d="m649.1916 469.84515l66.36224 0l0 52.0l-66.36224 0z" fill-rule="evenodd"/><path fill="#000000" d="m686.73987 486.41388l0.890625 3.46875q-5.90625 0.734375 -6.359375 4.078125q0.828125 -0.53125 3.09375 -0.53125q2.265625 0 3.640625 1.5625q1.375 1.546875 1.375 4.296875q0 2.75 -1.65625 4.609375q-1.65625 1.84375 -4.828125 1.84375q-3.15625 0 -4.6875 -2.265625q-1.515625 -2.265625 -1.515625 -5.9375q0 -10.0 10.046875 -11.125zm-1.5625 12.859375q0 -2.484375 -1.828125 -2.484375q-0.609375 0 -1.40625 0.28125q-0.796875 0.28125 -1.015625 0.453125q0 0.015625 0 0.28125q0 2.0 0.515625 3.203125q0.53125 1.1875 1.6875 1.1875q0.890625 0 1.46875 -0.734375q0.578125 -0.75 0.578125 -2.1875z" fill-rule="nonzero"/><path fill="#000000" fill-opacity="0.0" d="m773.6483 469.84515l66.36218 0l0 52.0l-66.36218 0z" fill-rule="evenodd"/><path fill="#000000" d="m801.1079 487.1795l12.609375 0l0 2.875l-6.265625 15.390625l-4.546875 0l6.265625 -14.53125l-4.203125 0q-0.046875 0 -0.046875 0.28125l0 1.640625l-3.8125 -0.25l0 -5.40625z" fill-rule="nonzero"/><path fill="#000000" fill-opacity="0.0" d="m898.105 469.84515l66.36218 0l0 52.0l-66.36218 0z" fill-rule="evenodd"/><path fill="#000000" d="m925.4056 500.66388q0 -3.28125 2.734375 -4.875q-2.171875 -1.328125 -2.171875 -3.953125q0 -2.171875 1.65625 -3.578125q1.671875 -1.421875 4.390625 -1.421875q2.71875 0 4.140625 1.328125q1.4375 1.3125 1.4375 3.21875q0 2.390625 -2.125 4.1875q2.84375 1.65625 2.84375 4.71875q0 2.34375 -1.6875 3.90625q-1.6875 1.546875 -4.9375 1.546875q-3.234375 0 -4.765625 -1.5q-1.515625 -1.515625 -1.515625 -3.578125zm6.28125 1.5625q1.046875 0 1.578125 -0.484375q0.546875 -0.5 0.546875 -1.34375q0 -0.859375 -0.640625 -1.484375q-0.640625 -0.625 -1.75 -1.1875q-0.765625 0.515625 -1.28125 1.171875q-0.515625 0.640625 -0.515625 1.46875q0 0.828125 0.515625 1.34375q0.515625 0.515625 1.546875 0.515625zm1.859375 -10.65625q0 -0.640625 -0.453125 -1.0q-0.453125 -0.375 -1.234375 -0.375q-0.765625 0 -1.234375 0.4375q-0.46875 0.421875 -0.46875 1.015625q0 1.25 1.953125 2.25q0.4375 -0.3125 0.9375 -1.0q0.5 -0.703125 0.5 -1.328125z" fill-rule="nonzero"/><path fill="#000000" fill-opacity="0.0" d="m306.9134 282.59055l66.36221 0l0 52.0l-66.36221 0z" fill-rule="evenodd"/><path fill="#000000" d="m333.11786 299.37805l8.0625 0q6.296875 0 6.296875 4.984375q0 2.78125 -1.484375 3.5625q0.375 0.09375 1.375 1.296875q1.015625 1.203125 1.015625 3.125q0 2.84375 -1.921875 4.34375q-1.921875 1.5 -5.453125 1.5l-8.03125 0l0 -3.203125l1.375 -0.125q0.28125 -0.03125 0.28125 -0.203125l0 -11.875l-1.515625 -0.078125l0 -3.328125zm5.859375 10.734375l0 4.484375l1.953125 0q2.921875 0 2.921875 -2.28125q0 -1.0625 -0.703125 -1.625q-0.6875 -0.578125 -2.078125 -0.578125l-2.09375 0zm0 -7.203125l0 3.734375l1.421875 0q1.453125 0 2.0625 -0.53125q0.625 -0.53125 0.625 -1.484375q0 -0.953125 -0.59375 -1.328125q-0.59375 -0.390625 -1.90625 -0.390625l-1.609375 0z" fill-rule="nonzero"/><path fill="#000000" fill-opacity="0.0" d="m170.91339 282.59055l66.3622 0l0 52.0l-66.3622 0z" fill-rule="evenodd"/><path fill="#000000" d="m202.41936 314.6593l0 -3.640625l-4.328125 -8.21875l-1.453125 -0.09375l0 -3.328125l7.59375 0l0 3.203125l-1.296875 0.125q-0.109375 0 -0.125 0.015625q0 0.015625 0.109375 0.21875l1.875 4.734375l-0.09375 0l2.125 -4.90625l-1.0 -0.0625l0 -3.328125l6.828125 0l0 3.203125l-1.296875 0.125q-0.21875 0.015625 -0.46875 0.5l-4.125 7.8125l0 3.75l2.078125 0.078125l0 3.34375l-8.609375 0l0 -3.21875l1.921875 -0.109375q0.265625 -0.015625 0.265625 -0.203125z" fill-rule="nonzero"/><path fill="#000000" fill-opacity="0.0" d="m34.913387 282.59055l66.3622 0l0 52.0l-66.3622 0z" fill-rule="evenodd"/><path fill="#000000" d="m61.11505 314.48743l4.0625 -11.765625l-1.484375 -0.140625l0 -3.203125l7.046875 0l5.078125 15.875l0.015625 -0.5l2.046875 0.109375l0 3.328125l-7.96875 0l0 -3.203125l1.5 -0.125q0.265625 -0.03125 0.234375 0q-0.03125 0.03125 -0.0625 -0.078125l-0.421875 -1.28125l-5.46875 0l-0.4375 1.28125l1.40625 0.078125l0 3.328125l-7.25 0l0 -3.203125l1.375 -0.125q0.203125 -0.015625 0.328125 -0.375zm7.390625 -11.46875l-1.8125 6.9375l3.46875 0l-1.734375 -6.9375l0.078125 0z" fill-rule="nonzero"/></g></svg>