<svg version="1.1" viewBox="0.0 0.0 495.59055118110234 346.34383202099735" fill="none" stroke="none" stroke-linecap="square" stroke-miterlimit="10" xmlns:xlink="http://www.w3.org/1999/xlink" xmlns="http://www.w3.org/2000/svg"><clipPath id="p.0"><path d="m0 0l495.59055 0l0 346.34384l-495.59055 0l0 -346.34384z" clip-rule="nonzero"/></clipPath><g clip-path="url(#p.0)"><path fill="#000000" fill-opacity="0.0" d="m0 0l495.59055 0l0 346.34384l-495.59055 0z" fill-rule="evenodd"/><path fill="#21ba45" d="m-395.5118 240.14342l0 0c0 -17.281204 14.009186 -31.290405 31.290405 -31.290405l37.072723 0l0 0c8.298737 0 16.257568 3.2966614 22.125671 9.164749c5.8680725 5.868088 9.164734 13.826935 9.164734 22.125656l0 6.584549l0 0c0 17.28122 -14.009186 31.290405 -31.290405 31.290405l-37.072723 0c-17.28122 0 -31.290405 -14.009186 -31.290405 -31.290405z" fill-rule="evenodd"/><path stroke="#000000" stroke-width="4.0" stroke-linejoin="round" stroke-linecap="butt" d="m-395.5118 240.14342l0 0c0 -17.281204 14.009186 -31.290405 31.290405 -31.290405l37.072723 0l0 0c8.298737 0 16.257568 3.2966614 22.125671 9.164749c5.8680725 5.868088 9.164734 13.826935 9.164734 22.125656l0 6.584549l0 0c0 17.28122 -14.009186 31.290405 -31.290405 31.290405l-37.072723 0c-17.28122 0 -31.290405 -14.009186 -31.290405 -31.290405z" fill-rule="evenodd"/><path fill="#ffffff" d="m-356.1594 252.25757l6.09375 -17.640625l-2.21875 -0.21875l0 -4.8125l10.5625 0l7.625 23.84375l0.015625 -0.765625l3.09375 0.140625l0 5.03125l-11.984375 0l0 -4.828125l2.28125 -0.1875q0.375 -0.046875 0.328125 0q-0.03125 0.03125 -0.078125 -0.109375l-0.65625 -1.921875l-8.171875 0l-0.640625 1.921875l2.078125 0.09375l0 5.03125l-10.890625 0l0 -4.8125l2.0625 -0.203125q0.3125 -0.03125 0.5 -0.5625zm11.109375 -17.203125l-2.703125 10.40625l5.171875 0l-2.59375 -10.40625l0.125 0z" fill-rule="nonzero"/><path fill="#f2711c" d="m-259.5118 240.14342l0 0c0 -17.281204 14.009186 -31.290405 31.290405 -31.290405l37.072723 0l0 0c8.298737 0 16.257584 3.2966614 22.125671 9.164749c5.868088 5.868088 9.164749 13.826935 9.164749 22.125656l0 6.584549l0 0c0 17.28122 -14.009201 31.290405 -31.29042 31.290405l-37.072723 0c-17.28122 0 -31.290405 -14.009186 -31.290405 -31.290405z" fill-rule="evenodd"/><path stroke="#000000" stroke-width="4.0" stroke-linejoin="round" stroke-linecap="butt" d="m-259.5118 240.14342l0 0c0 -17.281204 14.009186 -31.290405 31.290405 -31.290405l37.072723 0l0 0c8.298737 0 16.257584 3.2966614 22.125671 9.164749c5.868088 5.868088 9.164749 13.826935 9.164749 22.125656l0 6.584549l0 0c0 17.28122 -14.009201 31.290405 -31.29042 31.290405l-37.072723 0c-17.28122 0 -31.290405 -14.009186 -31.290405 -31.290405z" fill-rule="evenodd"/><path fill="#ffffff" d="m-209.65628 252.5857q3.96875 0 3.96875 -3.015625q0 -1.46875 -1.65625 -2.21875q-1.046875 -0.515625 -2.8125 -1.0q-1.765625 -0.484375 -3.015625 -1.015625q-1.25 -0.53125 -2.53125 -1.453125q-2.703125 -2.015625 -2.703125 -6.078125q0 -4.0625 2.796875 -6.375q2.8125 -2.328125 7.15625 -2.328125q4.34375 0 8.5 1.9375l0 7.296875l-5.734375 0.40625l0 -3.21875q0 -0.375 -0.046875 -0.46875q-0.203125 -0.34375 -2.21875 -0.34375q-2.0 0 -2.859375 0.640625q-0.859375 0.640625 -0.859375 1.96875q0 0.9375 0.71875 1.671875q0.515625 0.5 1.671875 0.890625q1.15625 0.390625 2.59375 0.828125q1.453125 0.4375 2.609375 0.984375q1.171875 0.546875 2.4375 1.53125q2.765625 2.046875 2.765625 6.21875q0 4.15625 -2.96875 6.53125q-2.953125 2.375 -7.625 2.375q-4.65625 0 -8.8125 -1.9375l0 -7.609375l5.734375 -0.40625l0 3.328125q0 0.375 0.015625 0.421875q0.03125 0.046875 0.625 0.25q0.609375 0.1875 2.25 0.1875z" fill-rule="nonzero"/><path fill="#db2828" d="m-123.51181 240.14342l0 0c0 -17.281204 14.009193 -31.290405 31.290405 -31.290405l37.07273 0l0 0c8.298733 0 16.257568 3.2966614 22.12566 9.164749c5.868088 5.868088 9.164747 13.826935 9.164747 22.125656l0 6.584549l0 0c0 17.28122 -14.0091915 31.290405 -31.290407 31.290405l-37.07273 0c-17.281212 0 -31.290405 -14.009186 -31.290405 -31.290405z" fill-rule="evenodd"/><path stroke="#000000" stroke-width="4.0" stroke-linejoin="round" stroke-linecap="butt" d="m-123.51181 240.14342l0 0c0 -17.281204 14.009193 -31.290405 31.290405 -31.290405l37.07273 0l0 0c8.298733 0 16.257568 3.2966614 22.12566 9.164749c5.868088 5.868088 9.164747 13.826935 9.164747 22.125656l0 6.584549l0 0c0 17.28122 -14.0091915 31.290405 -31.290407 31.290405l-37.07273 0c-17.281212 0 -31.290405 -14.009186 -31.290405 -31.290405z" fill-rule="evenodd"/><path fill="#ffffff" d="m-85.62565 257.8357l0 -4.8125l2.078125 -0.203125q0.40625 -0.046875 0.40625 -0.296875l0 -17.8125l-2.28125 -0.125l0 -5.0l11.78125 0q6.21875 0 9.765621 3.359375q3.546875 3.34375 3.546875 9.828125q0 3.9375 -1.0625 6.921875q-1.046875 2.984375 -2.9218712 4.71875q-3.671875 3.421875 -9.125 3.421875l-12.1875 0zm9.015625 -22.71875l0 17.21875l3.25 0q3.03125 0 4.734375 -2.203125q1.71875 -2.203125 1.71875 -6.640625q0 -8.375 -6.96875 -8.375l-2.734375 0z" fill-rule="nonzero"/><path fill="#2185d0" d="m-259.5118 130.29828l0 0c0 -17.281212 14.009186 -31.290405 31.290405 -31.290405l37.072723 0l0 0c8.298737 0 16.257584 3.2966614 22.125671 9.164749c5.868088 5.868088 9.164749 13.826927 9.164749 22.125656l0 6.584549l0 0c0 17.281204 -14.009201 31.290405 -31.29042 31.290405l-37.072723 0c-17.28122 0 -31.290405 -14.009201 -31.290405 -31.290405z" fill-rule="evenodd"/><path stroke="#000000" stroke-width="4.0" stroke-linejoin="round" stroke-linecap="butt" d="m-259.5118 130.29828l0 0c0 -17.281212 14.009186 -31.290405 31.290405 -31.290405l37.072723 0l0 0c8.298737 0 16.257584 3.2966614 22.125671 9.164749c5.868088 5.868088 9.164749 13.826927 9.164749 22.125656l0 6.584549l0 0c0 17.281204 -14.009201 31.290405 -31.29042 31.290405l-37.072723 0c-17.28122 0 -31.290405 -14.009201 -31.290405 -31.290405z" fill-rule="evenodd"/><path fill="#ffffff" d="m-190.52565 124.55305l-2.09375 0.203125q-0.40625 0.03125 -0.5625 0.78125l-5.203125 22.453133l-6.78125 0l-3.671875 -18.46875l0.125 0l-3.546875 18.46875l-6.953125 0l-5.515625 -23.109383l-2.453125 -0.140625l0 -5.0l11.578125 0l0 4.8125l-2.078125 0.203125q-0.484375 0.046875 -0.484375 0.203125q0 0.09375 0.015625 0.203125l2.828125 15.390633l-0.15625 0l3.671875 -18.703133l6.46875 0l3.734375 18.906258l-0.078125 0l2.484375 -15.875008l-1.984375 -0.15625l0 -4.984375l10.65625 0l0 4.8125z" fill-rule="nonzero"/><path fill="#2185d0" d="m-123.51181 88.55025l0 0c0 -17.281212 14.009193 -31.290405 31.290405 -31.290405l37.07273 0l0 0c8.298733 0 16.257568 3.2966576 22.12566 9.164749c5.868088 5.868088 9.164747 13.826927 9.164747 22.125656l0 6.5845413l0 0c0 17.28122 -14.0091915 31.290405 -31.290407 31.290405l-37.07273 0c-17.281212 0 -31.290405 -14.009186 -31.290405 -31.290405z" fill-rule="evenodd"/><path stroke="#000000" stroke-width="4.0" stroke-linejoin="round" stroke-linecap="butt" d="m-123.51181 88.55025l0 0c0 -17.281212 14.009193 -31.290405 31.290405 -31.290405l37.07273 0l0 0c8.298733 0 16.257568 3.2966576 22.12566 9.164749c5.868088 5.868088 9.164747 13.826927 9.164747 22.125656l0 6.5845413l0 0c0 17.28122 -14.0091915 31.290405 -31.290407 31.290405l-37.07273 0c-17.281212 0 -31.290405 -14.009186 -31.290405 -31.290405z" fill-rule="evenodd"/><path fill="#ffffff" d="m-62.649403 106.242516l-20.656246 0l0 -4.8125l2.078125 -0.203125q0.40625 -0.046875 0.40625 -0.296875l0 -17.8125l-2.28125 -0.125l0 -5.0l19.968746 0l0 8.25l-5.734371 0.375l0 -2.484375q0 -0.40625 0 -0.40625q0 0 -0.328125 0l-5.09375 0l0 5.171875l9.234375 0l0 5.75l-9.234375 0l0 5.8125l5.609375 0q0.28125 0 0.28125 0q0.015625 -0.015625 0.015625 -0.453125l0 -2.890625l5.734371 0.40625l0 8.71875z" fill-rule="nonzero"/><path fill="#db2828" d="m-395.5118 88.55025l0 0c0 -17.281212 14.009186 -31.290405 31.290405 -31.290405l37.072723 0l0 0c8.298737 0 16.257568 3.2966576 22.125671 9.164749c5.8680725 5.868088 9.164734 13.826927 9.164734 22.125656l0 6.5845413l0 0c0 17.28122 -14.009186 31.290405 -31.290405 31.290405l-37.072723 0c-17.28122 0 -31.290405 -14.009186 -31.290405 -31.290405z" fill-rule="evenodd"/><path stroke="#000000" stroke-width="4.0" stroke-linejoin="round" stroke-linecap="butt" d="m-395.5118 88.55025l0 0c0 -17.281212 14.009186 -31.290405 31.290405 -31.290405l37.072723 0l0 0c8.298737 0 16.257568 3.2966576 22.125671 9.164749c5.8680725 5.868088 9.164734 13.826927 9.164734 22.125656l0 6.5845413l0 0c0 17.28122 -14.009186 31.290405 -31.290405 31.290405l-37.072723 0c-17.28122 0 -31.290405 -14.009186 -31.290405 -31.290405z" fill-rule="evenodd"/><path fill="#ffffff" d="m-332.3869 92.180016q0 5.40625 -2.34375 8.96875q-2.328125 3.546875 -6.8125 4.03125l-0.03125 -0.125q3.203125 -0.53125 6.1875 1.25q1.796875 1.125 4.25 1.125q0.546875 0 2.1875 -0.203125l-0.6875 5.546875q-1.265625 0.109375 -1.890625 0.109375l-4.09375 -0.71875q-2.625 -0.90625 -5.0625 -2.046875q-2.5625 -1.1875 -4.6875 -1.1875q-1.046875 0 -3.296875 0.46875l0.625 -3.234375q-9.359375 -1.234375 -9.359375 -13.984375q0 -3.84375 1.140625 -6.796875q1.140625 -2.953125 3.09375 -4.59375q3.765625 -3.28125 8.828125 -3.28125q5.078125 0 8.515625 3.609375q3.4375 3.609375 3.4375 11.0625zm-18.359375 -0.203125q0 9.09375 6.046875 9.09375q3.171875 0 4.453125 -2.578125q1.234375 -2.5 1.234375 -6.203125q0 -3.296875 -1.171875 -6.078125q-0.546875 -1.375 -1.71875 -2.140625q-1.171875 -0.78125 -3.078125 -0.78125q-1.90625 0 -3.28125 1.25q-1.375 1.25 -1.9375 3.125q-0.546875 1.875 -0.546875 4.3125z" fill-rule="nonzero"/><path fill="#00b5ad" d="m12.488189 240.14342l0 0c0 -17.281204 14.009192 -31.290405 31.290405 -31.290405l37.07273 0l0 0c8.298729 0 16.257568 3.2966614 22.125656 9.164749c5.8680954 5.868088 9.164749 13.826935 9.164749 22.125656l0 6.584549l0 0c0 17.28122 -14.009193 31.290405 -31.290405 31.290405l-37.07273 0c-17.281214 0 -31.290405 -14.009186 -31.290405 -31.290405z" fill-rule="evenodd"/><path stroke="#000000" stroke-width="4.0" stroke-linejoin="round" stroke-linecap="butt" d="m12.488189 240.14342l0 0c0 -17.281204 14.009192 -31.290405 31.290405 -31.290405l37.07273 0l0 0c8.298729 0 16.257568 3.2966614 22.125656 9.164749c5.8680954 5.868088 9.164749 13.826935 9.164749 22.125656l0 6.584549l0 0c0 17.28122 -14.009193 31.290405 -31.290405 31.290405l-37.07273 0c-17.281214 0 -31.290405 -14.009186 -31.290405 -31.290405z" fill-rule="evenodd"/><path fill="#ffffff" d="m68.0281 252.32007l0 -6.078125l-9.656254 0l0 6.453125l2.3125 0.109375l0 5.03125l-11.328125 0l0 -4.8125l2.0625 -0.203125q0.421875 -0.046875 0.421875 -0.296875l0 -17.8125l-2.28125 -0.125l0 -5.0l11.328125 0l0 4.8125l-2.046875 0.203125q-0.375 0.046875 -0.421875 0.09375q-0.046875 0.03125 -0.046875 0.390625l0 5.375l9.656254 0l0 -5.75l-2.265625 -0.125l0 -5.0l11.328125 0l0 4.8125l-2.0625 0.203125q-0.421875 0.03125 -0.421875 0.453125l0 17.640625l2.28125 0.109375l0 5.03125l-11.328125 0l0 -4.8125l2.046875 -0.203125q0.328125 -0.03125 0.375 -0.078125q0.046875 -0.046875 0.046875 -0.421875z" fill-rule="nonzero"/><path fill="#21ba45" d="m12.488189 130.29828l0 0c0 -17.281212 14.009192 -31.290405 31.290405 -31.290405l37.07273 0l0 0c8.298729 0 16.257568 3.2966614 22.125656 9.164749c5.8680954 5.868088 9.164749 13.826927 9.164749 22.125656l0 6.584549l0 0c0 17.281204 -14.009193 31.290405 -31.290405 31.290405l-37.07273 0c-17.281214 0 -31.290405 -14.009201 -31.290405 -31.290405z" fill-rule="evenodd"/><path stroke="#000000" stroke-width="4.0" stroke-linejoin="round" stroke-linecap="butt" d="m12.488189 130.29828l0 0c0 -17.281212 14.009192 -31.290405 31.290405 -31.290405l37.07273 0l0 0c8.298729 0 16.257568 3.2966614 22.125656 9.164749c5.8680954 5.868088 9.164749 13.826927 9.164749 22.125656l0 6.584549l0 0c0 17.281204 -14.009193 31.290405 -31.290405 31.290405l-37.07273 0c-17.281214 0 -31.290405 -14.009201 -31.290405 -31.290405z" fill-rule="evenodd"/><path fill="#ffffff" d="m59.789974 142.67805l0 -5.46875l-6.484375 -12.328133l-2.1875 -0.140625l0 -5.0l11.40625 0l0 4.8125l-1.953125 0.203125q-0.140625 0 -0.15625 0.03125q0 0.03125 0.15625 0.328125l2.8125 7.0781326l-0.15625 -0.015625l3.2031288 -7.3281326l-1.515625 -0.125l0 -4.984375l10.25 0l0 4.8125l-1.9375 0.203125q-0.328125 0.03125 -0.703125 0.75l-6.1875 11.703133l0 5.640625l3.109375 0.109375l0 5.03125l-12.937504 0l0 -4.84375l2.90625 -0.171875q0.375 -0.03125 0.375 -0.296875z" fill-rule="nonzero"/><path fill="#00b5ad" d="m136.94489 240.14342l0 0c0 -17.281204 14.009186 -31.290405 31.290405 -31.290405l37.072723 0l0 0c8.298737 0 16.257568 3.2966614 22.125656 9.164749c5.868103 5.868088 9.164749 13.826935 9.164749 22.125656l0 6.584549l0 0c0 17.28122 -14.009186 31.290405 -31.290405 31.290405l-37.072723 0c-17.28122 0 -31.290405 -14.009186 -31.290405 -31.290405z" fill-rule="evenodd"/><path stroke="#000000" stroke-width="4.0" stroke-linejoin="round" stroke-linecap="butt" d="m136.94489 240.14342l0 0c0 -17.281204 14.009186 -31.290405 31.290405 -31.290405l37.072723 0l0 0c8.298737 0 16.257568 3.2966614 22.125656 9.164749c5.868103 5.868088 9.164749 13.826935 9.164749 22.125656l0 6.584549l0 0c0 17.28122 -14.009186 31.290405 -31.290405 31.290405l-37.072723 0c-17.28122 0 -31.290405 -14.009186 -31.290405 -31.290405z" fill-rule="evenodd"/><path fill="#ffffff" d="m194.66667 251.74194q-0.765625 6.609375 -8.703125 6.609375q-3.984375 0 -7.546875 -2.015625l0 -8.25l5.734375 -0.40625l0 4.046875q0 0.375 0.03125 0.4375q0.03125 0.0625 0.5 0.25q0.46875 0.171875 1.59375 0.171875q1.140625 0 1.578125 -0.578125q0.4375 -0.59375 0.4375 -2.234375l0 -15.03125l-3.125 -0.15625l0 -5.0l12.140625 0l0 4.8125l-2.0625 0.203125q-0.421875 0.03125 -0.421875 0.40625l0 12.4375q0 2.890625 -0.15625 4.296875z" fill-rule="nonzero"/><path fill="#21ba45" d="m136.94489 130.29828l0 0c0 -17.281212 14.009186 -31.290405 31.290405 -31.290405l37.072723 0l0 0c8.298737 0 16.257568 3.2966614 22.125656 9.164749c5.868103 5.868088 9.164749 13.826927 9.164749 22.125656l0 6.584549l0 0c0 17.281204 -14.009186 31.290405 -31.290405 31.290405l-37.072723 0c-17.28122 0 -31.290405 -14.009201 -31.290405 -31.290405z" fill-rule="evenodd"/><path stroke="#000000" stroke-width="4.0" stroke-linejoin="round" stroke-linecap="butt" d="m136.94489 130.29828l0 0c0 -17.281212 14.009186 -31.290405 31.290405 -31.290405l37.072723 0l0 0c8.298737 0 16.257568 3.2966614 22.125656 9.164749c5.868103 5.868088 9.164749 13.826927 9.164749 22.125656l0 6.584549l0 0c0 17.281204 -14.009186 31.290405 -31.290405 31.290405l-37.072723 0c-17.28122 0 -31.290405 -14.009201 -31.290405 -31.290405z" fill-rule="evenodd"/><path fill="#ffffff" d="m183.2948 125.24055l0 13.281258q0 2.421875 1.078125 3.34375q1.078125 0.90625 3.265625 0.90625q2.1875 0 3.3125 -1.015625q1.125 -1.015625 1.125 -3.03125l0 -13.859383l-2.328125 -0.125l0 -5.0l11.140625 0l0 4.8125l-2.078125 0.203125q-0.40625 0.03125 -0.40625 0.359375l0 14.281258q0 4.28125 -2.984375 6.703125q-2.984375 2.40625 -8.09375 2.40625q-5.09375 0 -7.8125 -2.359375q-2.71875 -2.375 -2.71875 -7.390625l0 -13.890633l-2.328125 -0.125l0 -5.0l11.34375 0l0 4.8125l-2.0625 0.203125q-0.359375 0.046875 -0.40625 0.09375q-0.046875 0.03125 -0.046875 0.390625z" fill-rule="nonzero"/><path fill="#e03997" d="m261.40158 240.14342l0 0c0 -17.281204 14.009186 -31.290405 31.290405 -31.290405l37.072723 0l0 0c8.298737 0 16.257568 3.2966614 22.125671 9.164749c5.8680725 5.868088 9.164734 13.826935 9.164734 22.125656l0 6.584549l0 0c0 17.28122 -14.009186 31.290405 -31.290405 31.290405l-37.072723 0c-17.28122 0 -31.290405 -14.009186 -31.290405 -31.290405z" fill-rule="evenodd"/><path stroke="#000000" stroke-width="4.0" stroke-linejoin="round" stroke-linecap="butt" d="m261.40158 240.14342l0 0c0 -17.281204 14.009186 -31.290405 31.290405 -31.290405l37.072723 0l0 0c8.298737 0 16.257568 3.2966614 22.125671 9.164749c5.8680725 5.868088 9.164734 13.826935 9.164734 22.125656l0 6.584549l0 0c0 17.28122 -14.009186 31.290405 -31.290405 31.290405l-37.072723 0c-17.28122 0 -31.290405 -14.009186 -31.290405 -31.290405z" fill-rule="evenodd"/><path fill="#ffffff" d="m302.554 252.32007l0 -17.609375l-2.28125 -0.125l0 -5.0l11.25 0l0 4.8125l-2.0625 0.203125q-0.421875 0.03125 -0.421875 0.453125l0 6.484375l5.671875 -6.875l-1.40625 -0.078125l0 -5.0l11.015625 0l0 4.8125l-2.0625 0.203125q-0.421875 0.046875 -1.046875 0.8125l-5.296875 6.5l6.546875 10.78125l2.46875 0.125l0 5.015625l-11.90625 0l0 -4.8125l2.0 -0.203125q0.25 0.1875 0.046875 0.1875q0 -0.03125 -0.109375 -0.25l-3.34375 -5.796875l-2.578125 3.109375l0 2.625l2.28125 0.109375l0 5.03125l-11.25 0l0 -4.8125l2.046875 -0.203125q0.34375 -0.03125 0.390625 -0.078125q0.046875 -0.046875 0.046875 -0.421875z" fill-rule="nonzero"/><path fill="#f2711c" d="m261.40158 130.29828l0 0c0 -17.281212 14.009186 -31.290405 31.290405 -31.290405l37.072723 0l0 0c8.298737 0 16.257568 3.2966614 22.125671 9.164749c5.8680725 5.868088 9.164734 13.826927 9.164734 22.125656l0 6.584549l0 0c0 17.281204 -14.009186 31.290405 -31.290405 31.290405l-37.072723 0c-17.28122 0 -31.290405 -14.009201 -31.290405 -31.290405z" fill-rule="evenodd"/><path stroke="#000000" stroke-width="4.0" stroke-linejoin="round" stroke-linecap="butt" d="m261.40158 130.29828l0 0c0 -17.281212 14.009186 -31.290405 31.290405 -31.290405l37.072723 0l0 0c8.298737 0 16.257568 3.2966614 22.125671 9.164749c5.8680725 5.868088 9.164734 13.826927 9.164734 22.125656l0 6.584549l0 0c0 17.281204 -14.009186 31.290405 -31.290405 31.290405l-37.072723 0c-17.28122 0 -31.290405 -14.009201 -31.290405 -31.290405z" fill-rule="evenodd"/><path fill="#ffffff" d="m308.85397 142.47493l0 -17.609383l-2.28125 -0.125l0 -5.0l11.328125 0l0 4.8125l-2.0625 0.203125q-0.40625 0.03125 -0.40625 0.453125l0 17.640633l2.265625 0.109375l0 5.03125l-11.328125 0l0 -4.8125l2.046875 -0.203125q0.34375 -0.03125 0.390625 -0.078125q0.046875 -0.046875 0.046875 -0.421875z" fill-rule="nonzero"/><path fill="#e03997" d="m385.85828 240.14342l0 0c0 -17.281204 14.009186 -31.290405 31.290405 -31.290405l37.072723 0l0 0c8.298737 0 16.257568 3.2966614 22.125671 9.164749c5.8680725 5.868088 9.164734 13.826935 9.164734 22.125656l0 6.584549l0 0c0 17.28122 -14.009186 31.290405 -31.290405 31.290405l-37.072723 0c-17.28122 0 -31.290405 -14.009186 -31.290405 -31.290405z" fill-rule="evenodd"/><path stroke="#000000" stroke-width="4.0" stroke-linejoin="round" stroke-linecap="butt" d="m385.85828 240.14342l0 0c0 -17.281204 14.009186 -31.290405 31.290405 -31.290405l37.072723 0l0 0c8.298737 0 16.257568 3.2966614 22.125671 9.164749c5.8680725 5.868088 9.164734 13.826935 9.164734 22.125656l0 6.584549l0 0c0 17.28122 -14.009186 31.290405 -31.290405 31.290405l-37.072723 0c-17.28122 0 -31.290405 -14.009186 -31.290405 -31.290405z" fill-rule="evenodd"/><path fill="#ffffff" d="m446.88254 257.8357l-20.65625 0l0 -4.8125l2.0625 -0.203125q0.421875 -0.046875 0.421875 -0.296875l0 -17.8125l-2.28125 -0.125l0 -5.0l11.296875 0l0 4.8125l-2.078125 0.203125q-0.40625 0.03125 -0.40625 0.453125l0 17.0l5.8125 0q0.09375 0 0.09375 0q0 0 0 -0.453125l0 -3.6875l5.734375 0.40625l0 9.515625z" fill-rule="nonzero"/><path fill="#f2711c" d="m385.85828 130.29828l0 0c0 -17.281212 14.009186 -31.290405 31.290405 -31.290405l37.072723 0l0 0c8.298737 0 16.257568 3.2966614 22.125671 9.164749c5.8680725 5.868088 9.164734 13.826927 9.164734 22.125656l0 6.584549l0 0c0 17.281204 -14.009186 31.290405 -31.290405 31.290405l-37.072723 0c-17.28122 0 -31.290405 -14.009201 -31.290405 -31.290405z" fill-rule="evenodd"/><path stroke="#000000" stroke-width="4.0" stroke-linejoin="round" stroke-linecap="butt" d="m385.85828 130.29828l0 0c0 -17.281212 14.009186 -31.290405 31.290405 -31.290405l37.072723 0l0 0c8.298737 0 16.257568 3.2966614 22.125671 9.164749c5.8680725 5.868088 9.164734 13.826927 9.164734 22.125656l0 6.584549l0 0c0 17.281204 -14.009186 31.290405 -31.290405 31.290405l-37.072723 0c-17.28122 0 -31.290405 -14.009201 -31.290405 -31.290405z" fill-rule="evenodd"/><path fill="#ffffff" d="m437.07693 119.25617q5.078125 0 8.5 3.609375q3.4375 3.609375 3.4375 10.828133q0 7.21875 -3.40625 11.015625q-3.40625 3.796875 -9.203125 3.796875q-5.78125 0 -9.09375 -3.765625q-3.3125 -3.78125 -3.3125 -10.8125q0 -3.84375 1.140625 -6.7812576q1.15625 -2.953125 3.0625 -4.609375q3.796875 -3.28125 8.875 -3.28125zm-6.421875 14.468758q0 9.09375 6.0625 9.09375q3.15625 0 4.421875 -2.59375q1.265625 -2.5 1.265625 -6.1875q0 -3.3125 -1.140625 -6.0781326q-0.578125 -1.375 -1.75 -2.140625q-1.171875 -0.78125 -3.09375 -0.78125q-1.90625 0 -3.28125 1.25q-1.375 1.25 -1.9375 3.1250076q-0.546875 1.875 -0.546875 4.3125z" fill-rule="nonzero"/><path fill="#000000" fill-opacity="0.0" d="m-378.86615 5.2598424l66.36221 0l0 52.0l-66.36221 0z" fill-rule="evenodd"/><path fill="#000000" d="m-338.23285 40.85984l-13.75 0l0 -3.203125l1.375 -0.125q0.265625 -0.03125 0.265625 -0.203125l0 -11.875l-1.515625 -0.078125l0 -3.328125l7.515625 0l0 3.203125l-1.375 0.125q-0.28125 0.03125 -0.28125 0.296875l0 11.34375l3.890625 0q0.0625 0 0.0625 0q0 0 0 -0.296875l0 -2.453125l3.8125 0.25l0 6.34375z" fill-rule="nonzero"/><path fill="#000000" fill-opacity="0.0" d="m-106.86614 5.2598424l66.362206 0l0 52.0l-66.362206 0z" fill-rule="evenodd"/><path fill="#000000" d="m-81.16904 40.85984l0 -3.203125l1.375 -0.125q0.265625 -0.03125 0.265625 -0.203125l0 -11.875l-1.515625 -0.078125l0 -3.328125l7.828125 0q3.265625 0 5.09375 1.28125q1.84375 1.265625 1.84375 4.15625q0 2.0 -1.046875 3.3125q-1.046875 1.3125 -1.59375 1.375q0.265625 -0.078125 0.921875 1.421875l1.78125 3.875l1.703125 0.046875l0 3.34375l-7.671875 0l0 -3.203125l1.25 -0.125q0.203125 0.0625 0.125 0.0625q0 -0.03125 -0.046875 -0.140625l-1.265625 -2.65625q-0.234375 -0.5625 -0.46875 -0.734375q-0.234375 -0.1875 -0.703125 -0.1875l-1.890625 0l0 3.578125l1.734375 0.078125l0 3.328125l-7.71875 0zm5.984375 -10.609375l1.78125 0q2.734375 0 2.734375 -2.390625q0 -1.359375 -0.671875 -1.75q-0.65625 -0.390625 -2.4375 -0.390625l-1.40625 0l0 4.53125z" fill-rule="nonzero"/><path fill="#000000" fill-opacity="0.0" d="m-242.86613 47.007874l66.3622 0l0 52.0l-66.3622 0z" fill-rule="evenodd"/><path fill="#000000" d="m-203.07115 67.73287l-3.59375 4.859375l4.296875 6.484375l1.921875 0.125l0 3.40625l-8.5 0l0 -3.234375l1.296875 -0.125q0.21875 -0.015625 0.234375 -0.0625q0.03125 -0.046875 0 -0.109375l-1.953125 -3.0l-2.078125 3.15625l0.84375 0.046875l0 3.328125l-7.21875 0l0 -3.203125l1.296875 -0.125q0.25 -0.03125 0.625 -0.609375l4.109375 -5.890625l-3.703125 -5.453125l-1.703125 -0.140625l0 -3.390625l8.171875 0l0 3.1875l-1.15625 0.171875q-0.265625 0.015625 -0.28125 0.0625q-0.015625 0.03125 0.078125 0.171875l1.359375 2.109375l1.578125 -2.328125l-0.890625 -0.046875l0 -3.328125l7.203125 0l0 3.203125l-1.3125 0.125q-0.25 0.03125 -0.625 0.609375z" fill-rule="nonzero"/><path fill="#000000" fill-opacity="0.0" d="m29.133858 47.007874l66.362206 0l0 52.0l-66.362206 0z" fill-rule="evenodd"/><path fill="#000000" d="m61.73276 78.84225l0 -9.59375l-2.796875 1.421875l-1.6875 -2.953125l5.4375 -3.375l3.3125038 0l0 14.796875l2.765625 0.140625l0 3.328125l-10.375004 0l0 -3.25l3.078125 -0.1875q0.1875 -0.015625 0.21875 -0.046875q0.046875 -0.03125 0.046875 -0.28125z" fill-rule="nonzero"/><path fill="#000000" fill-opacity="0.0" d="m153.59055 47.007874l66.36221 0l0 52.0l-66.36221 0z" fill-rule="evenodd"/><path fill="#000000" d="m181.51248 82.60787l0 -2.78125l5.40625 -6.859375q0.828125 -1.046875 1.0625 -1.375q0.25 -0.328125 0.46875 -0.890625q0.234375 -0.578125 0.234375 -1.328125q0 -0.75 -0.46875 -1.171875q-0.46875 -0.4375 -1.296875 -0.4375q-0.8125 0 -1.15625 0.109375q-0.328125 0.109375 -0.34375 0.15625q-0.015625 0.03125 -0.015625 0.328125l0 2.46875l-3.8125 -0.25l0 -5.125q2.921875 -1.453125 5.734375 -1.453125q2.8125 0 4.3125 1.453125q1.5 1.453125 1.5 3.90625q0 2.453125 -2.390625 5.34375l-3.53125 4.171875l6.015625 0l0 3.734375l-11.71875 0z" fill-rule="nonzero"/><path fill="#000000" fill-opacity="0.0" d="m278.04724 47.007874l66.36221 0l0 52.0l-66.36221 0z" fill-rule="evenodd"/><path fill="#000000" d="m308.7711 71.57662l3.09375 0q1.203125 -0.765625 1.203125 -2.3125q0 -1.5 -1.765625 -1.5q-0.765625 0 -1.1875 0.140625q-0.421875 0.140625 -0.4375 0.171875q-0.015625 0.03125 -0.015625 0.34375l0 2.484375l-3.8125 -0.25l0 -5.125q3.078125 -1.53125 5.859375 -1.53125q2.796875 0 4.25 1.34375q1.453125 1.34375 1.453125 3.46875q0 1.546875 -0.734375 2.796875q-0.734375 1.25 -0.953125 1.390625q1.953125 0.609375 1.953125 3.9375q0 2.6875 -1.6875 4.359375q-1.671875 1.65625 -4.875 1.65625q-1.546875 0 -3.078125 -0.421875q-1.515625 -0.421875 -2.828125 -1.21875l1.3125 -3.546875q2.546875 1.40625 4.484375 1.40625q2.359375 0 2.359375 -2.046875q0 -1.046875 -0.703125 -1.53125q-0.6875 -0.5 -2.625 -0.5l-1.609375 0l0.34375 -3.515625z" fill-rule="nonzero"/><path fill="#000000" fill-opacity="0.0" d="m402.50394 47.007874l66.36221 0l0 52.0l-66.36221 0z" fill-rule="evenodd"/><path fill="#000000" d="m437.93182 69.20162l2.8125 0l0 4.984375l2.375 0l0 3.625l-2.390625 0l0 1.328125l2.203125 0.140625l0 3.328125l-8.921875 0l0 -3.234375l2.15625 -0.171875q0.265625 -0.015625 0.265625 -0.203125l0 -1.21875l-6.828125 0l0 -2.875l5.3125 -11.140625l3.5 1.734375l-4.140625 8.6875l2.390625 0l0 -0.96875l1.265625 -4.015625z" fill-rule="nonzero"/><path fill="#000000" fill-opacity="0.0" d="m29.133858 278.01837l66.362206 0l0 52.0l-66.362206 0z" fill-rule="evenodd"/><path fill="#000000" d="m68.43263 298.97775l-6.171879 0l-0.40625 3.03125q2.5625038 0.1875 4.625004 1.65625q2.0625 1.46875 2.0625 4.390625q0 2.375 -1.59375 4.125q-1.59375 1.734375 -4.875004 1.734375q-1.5625 0 -3.0625 -0.421875q-1.5 -0.421875 -2.828125 -1.265625l1.5 -3.40625q2.484375 1.359375 4.265625 1.359375q2.1718788 0 2.1718788 -2.0625q0 -2.703125 -6.453129 -2.703125l1.28125 -10.0625l5.796879 0q0.0625 0 0.0625 -0.1875l0 -1.75l3.625 0.265625l0 5.296875z" fill-rule="nonzero"/><path fill="#000000" fill-opacity="0.0" d="m153.59055 278.01837l66.36221 0l0 52.0l-66.36221 0z" fill-rule="evenodd"/><path fill="#000000" d="m191.13884 294.58713l0.890625 3.46875q-5.90625 0.734375 -6.359375 4.078125q0.828125 -0.53125 3.09375 -0.53125q2.265625 0 3.640625 1.5625q1.375 1.546875 1.375 4.296875q0 2.75 -1.65625 4.609375q-1.65625 1.84375 -4.828125 1.84375q-3.15625 0 -4.6875 -2.265625q-1.515625 -2.265625 -1.515625 -5.9375q0 -10.0 10.046875 -11.125zm-1.5625 12.859375q0 -2.484375 -1.828125 -2.484375q-0.609375 0 -1.40625 0.28125q-0.796875 0.28125 -1.015625 0.453125q0 0.015625 0 0.28125q0 2.0 0.515625 3.203125q0.53125 1.1875 1.6875 1.1875q0.890625 0 1.46875 -0.734375q0.578125 -0.75 0.578125 -2.1875z" fill-rule="nonzero"/><path fill="#000000" fill-opacity="0.0" d="m278.04724 278.01837l66.36221 0l0 52.0l-66.36221 0z" fill-rule="evenodd"/><path fill="#000000" d="m305.5069 295.35275l12.609375 0l0 2.875l-6.265625 15.390625l-4.546875 0l6.265625 -14.53125l-4.203125 0q-0.046875 0 -0.046875 0.28125l0 1.640625l-3.8125 -0.25l0 -5.40625z" fill-rule="nonzero"/><path fill="#000000" fill-opacity="0.0" d="m402.50394 278.01837l66.36221 0l0 52.0l-66.36221 0z" fill-rule="evenodd"/><path fill="#000000" d="m429.8045 308.83713q0 -3.28125 2.734375 -4.875q-2.171875 -1.328125 -2.171875 -3.953125q0 -2.171875 1.65625 -3.578125q1.671875 -1.421875 4.390625 -1.421875q2.71875 0 4.140625 1.328125q1.4375 1.3125 1.4375 3.21875q0 2.390625 -2.125 4.1875q2.84375 1.65625 2.84375 4.71875q0 2.34375 -1.6875 3.90625q-1.6875 1.546875 -4.9375 1.546875q-3.234375 0 -4.765625 -1.5q-1.515625 -1.515625 -1.515625 -3.578125zm6.28125 1.5625q1.046875 0 1.578125 -0.484375q0.546875 -0.5 0.546875 -1.34375q0 -0.859375 -0.640625 -1.484375q-0.640625 -0.625 -1.75 -1.1875q-0.765625 0.515625 -1.28125 1.171875q-0.515625 0.640625 -0.515625 1.46875q0 0.828125 0.515625 1.34375q0.515625 0.515625 1.546875 0.515625zm1.859375 -10.65625q0 -0.640625 -0.453125 -1.0q-0.453125 -0.375 -1.234375 -0.375q-0.765625 0 -1.234375 0.4375q-0.46875 0.421875 -0.46875 1.015625q0 1.25 1.953125 2.25q0.4375 -0.3125 0.9375 -1.0q0.5 -0.703125 0.5 -1.328125z" fill-rule="nonzero"/><path fill="#000000" fill-opacity="0.0" d="m-106.86614 278.01837l66.362206 0l0 52.0l-66.362206 0z" fill-rule="evenodd"/><path fill="#000000" d="m-80.66166 294.80588l8.0625 0q6.296875 0 6.296875 4.984375q0 2.78125 -1.484375 3.5625q0.375 0.09375 1.375 1.296875q1.015625 1.203125 1.015625 3.125q0 2.84375 -1.921875 4.34375q-1.921875 1.5 -5.453125 1.5l-8.03125 0l0 -3.203125l1.375 -0.125q0.28125 -0.03125 0.28125 -0.203125l0 -11.875l-1.515625 -0.078125l0 -3.328125zm5.859375 10.734375l0 4.484375l1.953125 0q2.921875 0 2.921875 -2.28125q0 -1.0625 -0.703125 -1.625q-0.6875 -0.578125 -2.078125 -0.578125l-2.09375 0zm0 -7.203125l0 3.734375l1.421875 0q1.453125 0 2.0625 -0.53125q0.625 -0.53125 0.625 -1.484375q0 -0.953125 -0.59375 -1.328125q-0.59375 -0.390625 -1.90625 -0.390625l-1.609375 0z" fill-rule="nonzero"/><path fill="#000000" fill-opacity="0.0" d="m-242.86613 278.01837l66.3622 0l0 52.0l-66.3622 0z" fill-rule="evenodd"/><path fill="#000000" d="m-211.36017 310.08713l0 -3.640625l-4.328125 -8.21875l-1.453125 -0.09375l0 -3.328125l7.59375 0l0 3.203125l-1.296875 0.125q-0.109375 0 -0.125 0.015625q0 0.015625 0.109375 0.21875l1.875 4.734375l-0.09375 0l2.125 -4.90625l-1.0 -0.0625l0 -3.328125l6.828125 0l0 3.203125l-1.296875 0.125q-0.21875 0.015625 -0.46875 0.5l-4.125 7.8125l0 3.75l2.078125 0.078125l0 3.34375l-8.609375 0l0 -3.21875l1.921875 -0.109375q0.265625 -0.015625 0.265625 -0.203125z" fill-rule="nonzero"/><path fill="#000000" fill-opacity="0.0" d="m-378.86615 278.01837l66.36221 0l0 52.0l-66.36221 0z" fill-rule="evenodd"/><path fill="#000000" d="m-352.6645 309.91525l4.0625 -11.765625l-1.484375 -0.140625l0 -3.203125l7.046875 0l5.078125 15.875l0.015625 -0.5l2.046875 0.109375l0 3.328125l-7.96875 0l0 -3.203125l1.5 -0.125q0.265625 -0.03125 0.234375 0q-0.03125 0.03125 -0.0625 -0.078125l-0.421875 -1.28125l-5.46875 0l-0.4375 1.28125l1.40625 0.078125l0 3.328125l-7.25 0l0 -3.203125l1.375 -0.125q0.203125 -0.015625 0.328125 -0.375zm7.390625 -11.46875l-1.8125 6.9375l3.46875 0l-1.734375 -6.9375l0.078125 0z" fill-rule="nonzero"/></g></svg>